<svg xmlns="http://www.w3.org/2000/svg" xmlns:xlink="http://www.w3.org/1999/xlink" width="44.586" height="45.309" viewBox="0 0 44.586 45.309">
  <defs>
    <linearGradient id="linear-gradient" x1="0.5" y1="1" x2="0.5" gradientUnits="objectBoundingBox">
      <stop offset="0" stop-color="#fa880f"/>
      <stop offset="1" stop-color="#ffc200"/>
    </linearGradient>
    <filter id="Path_116" x="0" y="0" width="44.586" height="45.309" filterUnits="userSpaceOnUse">
      <feOffset dy="3" input="SourceAlpha"/>
      <feGaussianBlur stdDeviation="3" result="blur"/>
      <feFlood flood-opacity="0.161"/>
      <feComposite operator="in" in2="blur"/>
      <feComposite in="SourceGraphic"/>
    </filter>
  </defs>
  <g id="Component_16_1" data-name="Component 16 – 1" transform="translate(9 6)">
    <g transform="matrix(1, 0, 0, 1, -9, -6)" filter="url(#Path_116)">
      <path id="Path_116-2" data-name="Path 116" d="M13.293,0A13.477,13.477,0,0,1,26.586,13.655,13.477,13.477,0,0,1,13.293,27.309,13.477,13.477,0,0,1,0,13.655,13.477,13.477,0,0,1,13.293,0Z" transform="translate(9 6)" fill="url(#linear-gradient)"/>
    </g>
    <g id="Group_124" data-name="Group 124" transform="translate(4.237 11.311)">
      <path id="Path_92" data-name="Path 92" d="M792.158,886.46a2.594,2.594,0,0,1-5.187,0,2.544,2.544,0,0,1,.225-1.055c.373,0,.768-.007,1.268-.007.366,0,.792,0,1.309,0,.373,0,.8,0,1.28.01a2.079,2.079,0,0,0,.842-.084A2.544,2.544,0,0,1,792.158,886.46Z" transform="translate(-786.971 -885.324)" fill="#fff"/>
      <path id="Path_93" data-name="Path 93" d="M793.934,885.634a.924.924,0,0,0,1.534.311,1.6,1.6,0,0,1,.057.416,1.542,1.542,0,1,1-3.084,0,1.52,1.52,0,0,1,.184-.727Z" transform="translate(-791.132 -885.56)" fill="#4b1a0e"/>
    </g>
    <g id="Group_125" data-name="Group 125" transform="translate(17.114 10.928) rotate(9)">
      <path id="Path_94" data-name="Path 94" d="M848.8,886.46a2.594,2.594,0,0,1-5.187,0,2.544,2.544,0,0,1,.225-1.055c.373,0,.768-.007,1.268-.007.366,0,.792,0,1.309,0,.373,0,.8,0,1.28.01a2.079,2.079,0,0,0,.842-.084A2.545,2.545,0,0,1,848.8,886.46Z" transform="translate(-843.617 -885.324)" fill="#fff"/>
      <path id="Path_95" data-name="Path 95" d="M850.58,885.634a.924.924,0,0,0,1.534.311,1.6,1.6,0,0,1,.057.416,1.542,1.542,0,1,1-3.084,0,1.52,1.52,0,0,1,.184-.727Z" transform="translate(-847.778 -885.56)" fill="#4b1a0e"/>
    </g>
    <g id="Group_126" data-name="Group 126" transform="translate(2.852 9.655)">
      <path id="Path_96" data-name="Path 96" d="M786.942,880.748c-.069,0-.133,0-.192,0l-.107,0c-.461,0-.867-.007-1.228-.009h-.05c-.513,0-.937,0-1.3,0-.5,0-.893,0-1.264.007h-.045c-.319,0-.625,0-.974,0a.6.6,0,0,1,0-1.2c.347,0,.65,0,.966,0h.042c.372,0,.769-.007,1.272-.007.364,0,.792,0,1.312,0h.051c.362,0,.769,0,1.232.009l.134,0a1.218,1.218,0,0,0,.489-.048,1.7,1.7,0,0,0,.743-.794.6.6,0,1,1,1.04.591,2.765,2.765,0,0,1-1.357,1.32A2.087,2.087,0,0,1,786.942,880.748Z" transform="translate(-781.182 -878.404)" fill="#b3871f"/>
    </g>
    <g id="Group_127" data-name="Group 127" transform="matrix(0.978, 0.208, -0.208, 0.978, 16.175, 9.046)">
      <path id="Path_97" data-name="Path 97" d="M844.2,885.029h-7.664a.6.6,0,0,1,0-1.2H844.2a.6.6,0,0,1,0,1.2Z" transform="translate(-835.941 -883.833)" fill="#b3871f"/>
    </g>
    <path id="Path_98" data-name="Path 98" d="M816.769,884.185h3.824a.246.246,0,0,0,.229-.335l-1.912-4.908a.246.246,0,0,0-.459,0l-1.912,4.908A.246.246,0,0,0,816.769,884.185Z" transform="translate(-805.215 -869.038)" fill="#ec728e"/>
    <g id="Group_128" data-name="Group 128" transform="translate(12.049 18.765)">
      <path id="Path_99" data-name="Path 99" d="M825.1,919.519a.6.6,0,0,1-.521-.3c-.549-.966-2.523-1.662-4.316-1.521a.6.6,0,0,1-.094-1.193c1.967-.155,4.549.535,5.45,2.123a.6.6,0,0,1-.52.894Z" transform="translate(-819.623 -916.481)" fill="#4b1a0e"/>
    </g>
    <g id="Path_100" data-name="Path 100" transform="translate(11 17.852)" fill="none" opacity="0">
      <path d="M5.714-1.27C7.923-1.27,8,1.192,8,2.613s-1.825,1.23-4.034,1.23S0,4.034,0,2.613,3.5-1.27,5.714-1.27Z" stroke="none"/>
      <path d="M 5.713870048522949 -0.270383358001709 C 4.930520057678223 -0.270383358001709 3.73498010635376 0.1940367221832275 2.668099880218506 0.912766695022583 C 1.476814746856689 1.715315461158752 1.025391101837158 2.416965484619141 1.000019073486328 2.618172645568848 C 1.000227451324463 2.646716117858887 1.002133846282959 2.66722846031189 1.004097938537598 2.680956125259399 C 1.132334232330322 2.762022733688354 1.525437831878662 2.851186752319336 2.633719921112061 2.851186752319336 C 2.832009792327881 2.851186752319336 3.037970066070557 2.849176645278931 3.250110149383545 2.847126722335815 C 3.480989933013916 2.844896793365479 3.719729900360107 2.842586755752563 3.965819835662842 2.842586755752563 C 4.211270332336426 2.842586755752563 4.450479984283447 2.844886779785156 4.681809902191162 2.847106695175171 C 4.896009922027588 2.849166631698608 5.104530334472656 2.851186752319336 5.305840015411377 2.851186752319336 C 5.721829891204834 2.851186752319336 6.196640014648438 2.843666791915894 6.564219951629639 2.787846803665161 C 6.833230972290039 2.747000932693481 6.953396797180176 2.693359375 6.997056007385254 2.668757677078247 C 6.998621940612793 2.655916213989258 7 2.637617826461792 7 2.612976789474487 C 7 2.106436729431152 7 1.163556694984436 6.74822998046875 0.4874567985534668 C 6.542510032653809 -0.06498336791992188 6.26216983795166 -0.270383358001709 5.713870048522949 -0.270383358001709 M 5.713870048522949 -1.270383358001709 C 7.923009872436523 -1.270383358001709 8 1.192146778106689 8 2.612976789474487 C 8 3.732460498809814 6.866982936859131 3.851188659667969 5.305843353271484 3.851188659667969 C 4.885597229003906 3.851188659667969 4.434372425079346 3.842586755752563 3.965819835662842 3.842586755752563 C 3.497402667999268 3.842586755752563 3.049016952514648 3.851188659667969 2.633717060089111 3.851188659667969 C 1.090389728546143 3.851188659667969 0 3.732547283172607 0 2.612976789474487 C 0 1.192146778106689 3.504730224609375 -1.270383358001709 5.713870048522949 -1.270383358001709 Z" stroke="none" fill="#4b1a0e"/>
    </g>
  </g>
</svg>
