<?xml version="1.0" encoding="utf-8"?>
<!-- Generator: Adobe Illustrator 25.0.0, SVG Export Plug-In . SVG Version: 6.00 Build 0)  -->
<svg version="1.1" id="Layer_1" xmlns="http://www.w3.org/2000/svg" xmlns:xlink="http://www.w3.org/1999/xlink" x="0px" y="0px"
	 viewBox="0 0 44.6 45.3" style="enable-background:new 0 0 44.6 45.3;" xml:space="preserve">
<style type="text/css">
	.st0{fill:url(#Path_116-2_1_);}
	.st1{fill:#FFFFFF;}
	.st2{fill:#4B1A0E;}
	.st3{fill:#B3871F;}
	.st4{fill:#EC728E;}
	.st5{opacity:0;}
	.st6{fill:none;}
</style>
<g id="Component_16_1" transform="translate(9 6)">
	<g transform="matrix(1, 0, 0, 1, -9, -6)">
		
			<linearGradient id="Path_116-2_1_" gradientUnits="userSpaceOnUse" x1="-285.3297" y1="332.1611" x2="-285.3297" y2="333.1611" gradientTransform="matrix(26.5884 0 0 -27.309 7608.7632 9104.2959)">
			<stop  offset="0" style="stop-color:#FA880F"/>
			<stop  offset="1" style="stop-color:#FFC200"/>
		</linearGradient>
		<path id="Path_116-2" class="st0" d="M22.3,6c7.4,0.1,13.4,6.2,13.3,13.7c0.1,7.4-5.9,13.6-13.3,13.7C14.9,33.2,8.9,27.1,9,19.7
			C8.9,12.2,14.9,6.1,22.3,6z"/>
	</g>
	<g id="Group_124" transform="translate(4.237 11.311)">
		<path id="Path_92" class="st1" d="M5.2,1.1c0,1.4-1.2,2.6-2.6,2.5C1.1,3.7,0,2.5,0,1.1c0-0.4,0.1-0.7,0.2-1.1c0.4,0,0.8,0,1.3,0
			c0.4,0,0.8,0,1.3,0c0.4,0,0.8,0,1.3,0c0.3,0,0.6,0,0.8-0.1C5.1,0.4,5.2,0.7,5.2,1.1z"/>
		<path id="Path_93" class="st2" d="M2.8,0.1C3,0.6,3.5,0.8,4,0.6c0.1,0,0.2-0.1,0.3-0.2c0,0.1,0.1,0.3,0.1,0.4
			c0,0.9-0.7,1.5-1.5,1.5C2,2.4,1.3,1.7,1.3,0.8c0,0,0,0,0,0c0-0.3,0.1-0.5,0.2-0.7H2.8z"/>
	</g>
	<g id="Group_125" transform="translate(17.114 10.928) rotate(9)">
		<path id="Path_94" class="st1" d="M5.2,1.1c0,1.4-1.2,2.6-2.6,2.5C1.1,3.7,0,2.5,0,1.1c0-0.4,0.1-0.7,0.2-1.1c0.4,0,0.8,0,1.3,0
			c0.4,0,0.8,0,1.3,0c0.4,0,0.8,0,1.3,0c0.3,0,0.6,0,0.8-0.1C5.1,0.4,5.2,0.7,5.2,1.1z"/>
		<path id="Path_95" class="st2" d="M2.8,0.1C3,0.6,3.5,0.8,4,0.6c0.1,0,0.2-0.1,0.3-0.2c0,0.1,0.1,0.3,0.1,0.4
			c0,0.9-0.7,1.5-1.5,1.5C2,2.4,1.3,1.7,1.3,0.8c0,0,0,0,0,0c0-0.3,0.1-0.5,0.2-0.7L2.8,0.1z"/>
	</g>
	<g id="Group_126" transform="translate(2.852 9.655)">
		<path id="Path_96" class="st3" d="M5.8,2.3c-0.1,0-0.1,0-0.2,0H5.5c-0.5,0-0.9,0-1.2,0h0c-0.5,0-0.9,0-1.3,0c-0.5,0-0.9,0-1.3,0h0
			c-0.3,0-0.6,0-1,0C0.3,2.3,0,2.1,0,1.7c0-0.3,0.3-0.6,0.6-0.6c0.3,0,0.7,0,1,0h0c0.4,0,0.8,0,1.3,0c0.4,0,0.8,0,1.3,0h0.1
			c0.4,0,0.8,0,1.2,0h0.1c0.2,0,0.3,0,0.5,0c0.3-0.2,0.6-0.5,0.7-0.8C7,0,7.3-0.1,7.6,0s0.4,0.5,0.3,0.8c0,0,0,0.1,0,0.1
			C7.6,1.5,7.1,1.9,6.5,2.2C6.3,2.3,6,2.3,5.8,2.3z"/>
	</g>
	<g id="Group_127" transform="matrix(0.978, 0.208, -0.208, 0.978, 16.175, 9.046)">
		<path id="Path_97" class="st3" d="M8.3,1.2H0.6C0.3,1.2,0,0.9,0,0.6C0,0.3,0.3,0,0.6,0l0,0l7.7,0c0.3,0,0.6,0.3,0.6,0.6
			C8.9,0.9,8.6,1.2,8.3,1.2z"/>
	</g>
	<path id="Path_98" class="st4" d="M11.6,15.1h3.8c0.1,0,0.2-0.1,0.2-0.2c0,0,0-0.1,0-0.1l-1.9-4.9c0-0.1-0.2-0.2-0.3-0.1
		c-0.1,0-0.1,0.1-0.1,0.1l-1.9,4.9C11.3,14.9,11.3,15.1,11.6,15.1C11.5,15.1,11.5,15.1,11.6,15.1z"/>
	<g id="Group_128" transform="translate(12.049 18.765)">
		<path id="Path_99" class="st2" d="M5.5,3C5.3,3,5.1,2.9,5,2.7c-0.5-1-2.5-1.7-4.3-1.5C0.3,1.2,0,1,0,0.6C0,0.3,0.3,0.1,0.5,0
			c2-0.2,4.5,0.5,5.5,2.1C6.2,2.4,6.1,2.8,5.8,3C5.7,3,5.6,3,5.5,3L5.5,3z"/>
	</g>
	<g id="Path_100" transform="translate(11 17.852)" class="st5">
		<path class="st6" d="M5.7-1.3C7.9-1.3,8,1.2,8,2.6S6.2,3.8,4,3.8S0,4,0,2.6S3.5-1.3,5.7-1.3z"/>
		<path class="st2" d="M5.7-0.3c-0.8,0-2,0.5-3,1.2C1.5,1.7,1,2.4,1,2.6c0,0,0,0,0,0.1c0.1,0.1,0.5,0.2,1.6,0.2c0.2,0,0.4,0,0.6,0
			c0.2,0,0.5,0,0.7,0c0.2,0,0.5,0,0.7,0c0.2,0,0.4,0,0.6,0c0.4,0,0.9,0,1.3-0.1C6.8,2.7,7,2.7,7,2.7c0,0,0,0,0-0.1
			c0-0.5,0-1.4-0.3-2.1C6.5-0.1,6.3-0.3,5.7-0.3 M5.7-1.3C7.9-1.3,8,1.2,8,2.6c0,1.1-1.1,1.2-2.7,1.2c-0.4,0-0.9,0-1.3,0
			c-0.5,0-0.9,0-1.3,0C1.1,3.9,0,3.7,0,2.6C0,1.2,3.5-1.3,5.7-1.3z"/>
	</g>
</g>
</svg>
