<?xml version="1.0" encoding="utf-8"?>
<!-- Generator: Adobe Illustrator 25.0.0, SVG Export Plug-In . SVG Version: 6.00 Build 0)  -->
<svg version="1.1" id="Component_8_5" xmlns="http://www.w3.org/2000/svg" xmlns:xlink="http://www.w3.org/1999/xlink" x="0px"
	 y="0px" viewBox="0 0 28 28" style="enable-background:new 0 0 28 28;" xml:space="preserve">
<style type="text/css">
	.st0{fill:url(#Ellipse_18_1_);}
	.st1{fill:#FFFFFF;}
</style>
<linearGradient id="Ellipse_18_1_" gradientUnits="userSpaceOnUse" x1="-293.6071" y1="324.1071" x2="-293.6071" y2="323.1071" gradientTransform="matrix(28 0 0 -28 8235 9075)">
	<stop  offset="0" style="stop-color:#24DAF5"/>
	<stop  offset="1" style="stop-color:#4084B7"/>
</linearGradient>
<circle id="Ellipse_18" class="st0" cx="14" cy="14" r="14"/>
<g id="target" transform="translate(4.848 4.489)">
	<g id="Group_73">
		<g id="Group_59" transform="translate(1.212 1.212)">
			<g id="Group_58">
				<path id="Path_47" class="st1" d="M7.9,0C3.5,0,0,3.5,0,7.9c0,4.4,3.5,7.9,7.9,7.9c4.4,0,7.9-3.5,7.9-7.9S12.2,0,7.9,0L7.9,0z
					 M7.9,14.5c-3.7,0-6.7-3-6.7-6.7c0-3.7,3-6.7,6.7-6.7c3.7,0,6.7,3,6.7,6.7S11.6,14.5,7.9,14.5L7.9,14.5z"/>
			</g>
		</g>
		<g id="Group_61" transform="translate(8.487)">
			<g id="Group_60">
				<rect id="Rectangle_38" x="0" y="0" class="st1" width="1.2" height="4.8"/>
			</g>
		</g>
		<g id="Group_63" transform="translate(8.487 13.336)">
			<g id="Group_62">
				<rect id="Rectangle_39" x="0" y="0" class="st1" width="1.2" height="4.8"/>
			</g>
		</g>
		<g id="Group_65" transform="translate(13.336 8.487)">
			<g id="Group_64">
				<rect id="Rectangle_40" x="0" y="0" class="st1" width="4.8" height="1.2"/>
			</g>
		</g>
		<g id="Group_67" transform="translate(0 8.487)">
			<g id="Group_66">
				<rect id="Rectangle_41" x="0" y="0" class="st1" width="4.8" height="1.2"/>
			</g>
		</g>
		<g id="Group_69" transform="translate(6.062 6.062)">
			<g id="Group_68">
				<path id="Path_48" class="st1" d="M3,0C1.4,0,0,1.4,0,3s1.4,3,3,3c1.7,0,3-1.4,3-3C6.1,1.4,4.7,0,3,0L3,0z M3,4.9
					C2,4.9,1.2,4,1.2,3S2,1.2,3,1.2S4.9,2,4.9,3S4,4.9,3,4.9L3,4.9z"/>
			</g>
		</g>
	</g>
</g>
</svg>
