<?xml version="1.0" encoding="utf-8"?>
<!-- Generator: Adobe Illustrator 25.0.0, SVG Export Plug-In . SVG Version: 6.00 Build 0)  -->
<svg version="1.1" id="Layer_1" xmlns="http://www.w3.org/2000/svg" xmlns:xlink="http://www.w3.org/1999/xlink" x="0px" y="0px"
	 viewBox="0 0 37.4 45.5" style="enable-background:new 0 0 37.4 45.5;" xml:space="preserve">
<style type="text/css">
	.st0{fill:#F26D6F;}
	.st1{fill:url(#Path_86-2_1_);}
	.st2{fill:url(#Path_87_1_);}
	.st3{fill:url(#Path_88_1_);}
	.st4{fill:url(#Path_89_1_);}
	.st5{fill:#5D2512;}
	.st6{fill:#FFFFFF;}
</style>
<g id="Layer_2_1_" transform="translate(9 6)">
	<g id="Layer_2-2">
		<path id="Path_84" class="st0" d="M8.8,0L8.7,3.1L5.5,3.2L8.8,0z"/>
		<path id="Path_85" class="st0" d="M14.7,1.3l-0.1,3.1l-3.2,0.1L14.7,1.3z"/>
		<g transform="matrix(1, 0, 0, 1, -9, -6)">
			
				<linearGradient id="Path_86-2_1_" gradientUnits="userSpaceOnUse" x1="-284.0123" y1="332.2253" x2="-284.0123" y2="333.2253" gradientTransform="matrix(19.3702 0 0 -27.4717 5520.0669 9160.2764)">
				<stop  offset="0" style="stop-color:#F26A3F"/>
				<stop  offset="1" style="stop-color:#F99D22"/>
			</linearGradient>
			<path id="Path_86-2" class="st1" d="M25.7,23.6c-0.7-0.5-2.7-2.5-2.4-3.3c0.1-0.2,0.7-0.5,0.9-0.7c0.6-0.7,1-1.5,1.3-2.3
				c0.5-1.7-0.6-4.2-1.1-6c-0.3-0.9-1-1.6-1.8-1.9c0.1-0.8,0.6-1.5,1.2-2.1l-2.9,1.4l0,0c-0.3-0.1-0.5-0.1-0.8-0.2
				c-0.6-0.1-3.6-0.9-4-0.3c0.5-0.8,1.2-1.6,1.9-2.3c0,0-3.7,1.4-5,2.7c-1.2,1.2-1.7,3.2-2.1,4.8C9.4,18,8.4,22.8,9.4,27.5
				c0.4,1.8,0.7,3.9,2.6,4.8c1.6,0.7,3.4,1.1,5.1,1c2.1,0.1,4.5,0,6.6,0c4.1-0.1,4.3-2.9,4.6-4.4S27.3,24.8,25.7,23.6z"/>
		</g>
		<g id="Group_123">
			
				<linearGradient id="Path_87_1_" gradientUnits="userSpaceOnUse" x1="-231.9476" y1="291.915" x2="-231.9476" y2="290.915" gradientTransform="matrix(3.9189 0 0 -6.4229 914.5195 1897.863)">
				<stop  offset="0" style="stop-color:#FCC18D"/>
				<stop  offset="1" style="stop-color:#F37543"/>
			</linearGradient>
			<path id="Path_87" class="st2" d="M6.5,29.3L6.5,29.3c-0.8,0.2-1.6-0.6-1.9-1.4l-1-2.9c-0.2-0.8,0.3-1.7,1.1-2c0,0,0,0,0,0l0,0
				c0.8-0.2,1.7,0.3,2,1.1c0,0,0,0,0,0l0.7,3.2C7.7,28,7.3,29,6.5,29.3z"/>
			
				<linearGradient id="Path_88_1_" gradientUnits="userSpaceOnUse" x1="-241.5387" y1="290.1588" x2="-241.5387" y2="289.1588" gradientTransform="matrix(4.4802 0 0 -6.1871 1093.0659 1818.4287)">
				<stop  offset="0" style="stop-color:#FCC18D"/>
				<stop  offset="1" style="stop-color:#F37543"/>
			</linearGradient>
			<path id="Path_88" class="st3" d="M9.4,29.3L9.4,29.3c0.8,0.4,1.7-0.3,2.1-1.1l1.5-2.7c0.4-0.8,0-1.7-0.7-2.1l0,0
				c-0.8-0.4-1.7,0-2.1,0.8l-1.2,3C8.5,27.8,8.7,28.8,9.4,29.3z"/>
		</g>
		
			<linearGradient id="Path_89_1_" gradientUnits="userSpaceOnUse" x1="-271.2246" y1="300.8786" x2="-271.2246" y2="301.8786" gradientTransform="matrix(8.0482 0 0 -8.1946 2201.4175 2495.7861)">
			<stop  offset="0" style="stop-color:#FCC18D"/>
			<stop  offset="0.35" style="stop-color:#F68C59"/>
			<stop  offset="0.5" style="stop-color:#F37543"/>
			<stop  offset="0.97" style="stop-color:#F26B3F"/>
		</linearGradient>
		<path id="Path_89" class="st4" d="M15.6,30.2c-0.5,0-0.9-0.4-1.1-0.9c-0.3-1.4,1.6-1.4,2.4-1.6c1.2-0.2,2.3-0.9,3.1-1.8
			c0.4-0.4,0.4-1,0.1-1.4c-0.2-0.2-0.5-0.3-0.7-0.3c-0.6-0.1-1.2-0.3-1.2-1c0-0.6,0.4-1.1,1-1.2c0.9,0,1.8,0.3,2.5,0.9
			c0.5,0.5,0.9,1.1,0.9,1.8c0.1,1.3-0.5,2.6-1.6,3.4c-0.7,0.6-1.5,1.1-2.4,1.4C17.7,30,16.7,30.2,15.6,30.2z"/>
		<ellipse id="Ellipse_32" class="st5" cx="9.8" cy="9.3" rx="1" ry="0.7"/>
		<circle id="Ellipse_33" class="st6" cx="7.2" cy="6.4" r="1.6"/>
		<path id="Path_90" class="st5" d="M8,6C7.6,6,7.2,5.7,7.2,5.3c0-0.1,0-0.3,0.1-0.4h0c-0.7,0-1.2,0.5-1.2,1.2
			c0,0.7,0.5,1.2,1.2,1.2s1.2-0.5,1.2-1.2c0-0.1,0-0.2,0-0.4C8.4,6,8.2,6,8,6z"/>
		<circle id="Ellipse_34" class="st6" cx="12.6" cy="6.7" r="1.6"/>
		<path id="Path_91" class="st5" d="M13.4,6.4c-0.4,0-0.7-0.3-0.7-0.7c0,0,0,0,0,0c0-0.1,0-0.3,0.1-0.4h0c-0.7,0-1.2,0.5-1.2,1.2
			c0,0.7,0.5,1.2,1.2,1.2c0.7,0,1.2-0.5,1.2-1.2c0-0.1,0-0.2,0-0.3C13.8,6.3,13.6,6.4,13.4,6.4z"/>
		
			<rect id="Rectangle_68" x="5.2" y="7.8" transform="matrix(0.111 -0.9938 0.9938 0.111 -4.5541 13.5137)" class="st5" width="0.2" height="2.9"/>
		
			<rect id="Rectangle_69" x="3.9" y="11.1" transform="matrix(0.8693 -0.4942 0.4942 0.8693 -4.7887 4.1695)" class="st5" width="3.2" height="0.2"/>
		
			<rect id="Rectangle_70" x="12" y="9.3" transform="matrix(0.9942 -0.1075 0.1075 0.9942 -0.9371 1.4822)" class="st5" width="2.5" height="0.2"/>
		
			<rect id="Rectangle_71" x="12.9" y="9.8" transform="matrix(0.5591 -0.8291 0.8291 0.5591 -3.5646 15.7457)" class="st5" width="0.2" height="2.8"/>
	</g>
</g>
</svg>
