<svg xmlns="http://www.w3.org/2000/svg" xmlns:xlink="http://www.w3.org/1999/xlink" width="37.37" height="45.471" viewBox="0 0 37.37 45.471">
  <defs>
    <linearGradient id="linear-gradient" x1="0.5" y1="1" x2="0.5" gradientUnits="objectBoundingBox">
      <stop offset="0" stop-color="#f26a3f"/>
      <stop offset="1" stop-color="#f99d22"/>
    </linearGradient>
    <filter id="Path_86" x="0" y="0" width="37.37" height="45.471" filterUnits="userSpaceOnUse">
      <feOffset dy="3" input="SourceAlpha"/>
      <feGaussianBlur stdDeviation="3" result="blur"/>
      <feFlood flood-opacity="0.161"/>
      <feComposite operator="in" in2="blur"/>
      <feComposite in="SourceGraphic"/>
    </filter>
    <linearGradient id="linear-gradient-2" x1="0.5" x2="0.5" y2="1" gradientUnits="objectBoundingBox">
      <stop offset="0" stop-color="#fcc18d"/>
      <stop offset="1" stop-color="#f37543"/>
    </linearGradient>
    <linearGradient id="linear-gradient-4" x1="0.5" y1="1" x2="0.5" y2="-0.001" gradientUnits="objectBoundingBox">
      <stop offset="0" stop-color="#fcc18d"/>
      <stop offset="0.35" stop-color="#f68c59"/>
      <stop offset="0.5" stop-color="#f37543"/>
      <stop offset="0.97" stop-color="#f26b3f"/>
    </linearGradient>
  </defs>
  <g id="Layer_2" data-name="Layer 2" transform="translate(9 6)">
    <g id="Layer_2-2" data-name="Layer 2">
      <path id="Path_84" data-name="Path 84" d="M33.4,0l-.117,3.083-3.224.139Z" transform="translate(-24.567)" fill="#f26d6f"/>
      <path id="Path_85" data-name="Path 85" d="M65.471,7.18l-.117,3.083L62.13,10.4Z" transform="translate(-50.776 -5.868)" fill="#f26d6f"/>
      <g transform="matrix(1, 0, 0, 1, -9, -6)" filter="url(#Path_86)">
        <path id="Path_86-2" data-name="Path 86" d="M16.713,17.58c-.707-.548-2.659-2.48-2.411-3.312.057-.183.711-.548.861-.731a8.01,8.01,0,0,0,1.347-2.316c.514-1.711-.581-4.154-1.148-5.965A2.882,2.882,0,0,0,13.535,3.39,3.637,3.637,0,0,1,14.7,1.309L11.764,2.741h0c-.274-.068-.548-.126-.835-.174-.556-.091-3.615-.9-3.955-.289A12.1,12.1,0,0,1,8.838,0S5.183,1.416,3.865,2.659C2.617,3.838,2.177,5.867,1.727,7.469.448,12.039-.634,16.82.448,21.542c.415,1.828.744,3.922,2.579,4.829a12.541,12.541,0,0,0,5.117,1.036c2.093.121,4.538.048,6.636-.022,4.143-.139,4.282-2.9,4.558-4.352S18.3,18.824,16.713,17.58Z" transform="translate(9 6)" fill="url(#linear-gradient)"/>
      </g>
      <g id="Group_123" data-name="Group 123">
        <path id="Path_87" data-name="Path 87" d="M22.534,131.786h0c-.844.236-1.645-.574-1.875-1.42l-.987-2.946a1.588,1.588,0,0,1,1.109-1.956h0a1.586,1.586,0,0,1,1.956,1.1l.685,3.156A1.6,1.6,0,0,1,22.534,131.786Z" transform="translate(-16.03 -102.486)" fill="url(#linear-gradient-2)"/>
        <path id="Path_88" data-name="Path 88" d="M48.4,132.892h0c.793.378,1.716-.281,2.094-1.073l1.48-2.732a1.59,1.59,0,0,0-.749-2.118h0a1.59,1.59,0,0,0-2.118.751l-1.221,2.966A1.614,1.614,0,0,0,48.4,132.892Z" transform="translate(-38.964 -103.637)" fill="url(#linear-gradient-2)"/>
      </g>
      <path id="Path_89" data-name="Path 89" d="M80.565,128.7a1.188,1.188,0,0,1-1.082-.877c-.278-1.352,1.552-1.374,2.4-1.6a5.667,5.667,0,0,0,3.107-1.78,1,1,0,0,0-.682-1.74c-.6-.091-1.2-.327-1.246-1.023a1.1,1.1,0,0,1,1.016-1.172,3.716,3.716,0,0,1,2.493.885,2.619,2.619,0,0,1,.925,1.828,3.934,3.934,0,0,1-1.577,3.385,8.508,8.508,0,0,1-2.412,1.416A6.113,6.113,0,0,1,80.565,128.7Z" transform="translate(-64.934 -98.489)" fill="url(#linear-gradient-4)"/>
      <ellipse id="Ellipse_32" data-name="Ellipse 32" cx="1.049" cy="0.687" rx="1.049" ry="0.687" transform="translate(8.719 8.659)" fill="#5d2512"/>
      <circle id="Ellipse_33" data-name="Ellipse 33" cx="1.619" cy="1.619" r="1.619" transform="translate(5.544 4.732)" fill="#fff"/>
      <path id="Path_90" data-name="Path 90" d="M35.162,28.05a.731.731,0,0,1-.62-1.12h-.027a1.234,1.234,0,1,0,1.175.894A.731.731,0,0,1,35.162,28.05Z" transform="translate(-27.191 -22.008)" fill="#5d2512"/>
      <circle id="Ellipse_34" data-name="Ellipse 34" cx="1.619" cy="1.619" r="1.619" transform="translate(10.941 5.072)" fill="#fff"/>
      <path id="Path_91" data-name="Path 91" d="M64.734,29.908A.731.731,0,0,1,64,29.177a.718.718,0,0,1,.113-.387h-.027a1.225,1.225,0,1,0,1.166.892A.731.731,0,0,1,64.734,29.908Z" transform="translate(-51.365 -23.528)" fill="#5d2512"/>
      <rect id="Rectangle_68" data-name="Rectangle 68" width="0.183" height="2.924" transform="matrix(0.111, -0.994, 0.994, 0.111, 3.813, 9.231)" fill="#5d2512"/>
      <rect id="Rectangle_69" data-name="Rectangle 69" width="3.218" height="0.183" transform="matrix(0.869, -0.494, 0.494, 0.869, 4.048, 11.857)" fill="#5d2512"/>
      <rect id="Rectangle_70" data-name="Rectangle 70" width="2.487" height="0.183" transform="translate(12.036 9.477) rotate(-6.17)" fill="#5d2512"/>
      <rect id="Rectangle_71" data-name="Rectangle 71" width="0.183" height="2.827" transform="matrix(0.559, -0.829, 0.829, 0.559, 11.799, 10.51)" fill="#5d2512"/>
    </g>
  </g>
</svg>
