<?xml version="1.0" encoding="utf-8"?>
<!-- Generator: Adobe Illustrator 25.0.0, SVG Export Plug-In . SVG Version: 6.00 Build 0)  -->
<svg version="1.1" id="Layer_1" xmlns="http://www.w3.org/2000/svg" xmlns:xlink="http://www.w3.org/1999/xlink" x="0px" y="0px"
	 viewBox="0 0 27.1 28.7" style="enable-background:new 0 0 27.1 28.7;" xml:space="preserve">
<style type="text/css">
	.st0{fill:url(#Union_1_1_);}
	.st1{fill:#FFFFFF;}
</style>
<g id="Component_11_5" transform="translate(0)">
	
		<linearGradient id="Union_1_1_" gradientUnits="userSpaceOnUse" x1="-293.2607" y1="324.3582" x2="-293.2607" y2="323.3582" gradientTransform="matrix(27.137 0 0 -28.6604 7971.7847 9296.2373)">
		<stop  offset="0" style="stop-color:#24DAF5"/>
		<stop  offset="1" style="stop-color:#4084B7"/>
	</linearGradient>
	<path id="Union_1" class="st0" d="M8.8,28.7v-4.6H3.6v-3.9H0l4.2-7.3c-0.1-0.5-0.1-1-0.1-1.4C4.1,5.1,9.3,0,15.6,0
		s11.5,5.2,11.5,11.5c0,3.6-1.7,7-4.5,9.1v8H8.8z"/>
	<path id="Path_61" class="st1" d="M19.5,4.8L19.5,4.8l-1.4,1.4c-0.3-0.2-0.7-0.3-1-0.4v-2c0-0.3-0.3-0.6-0.6-0.6H14
		c-0.3,0-0.6,0.3-0.6,0.6v2c-0.3,0.1-0.7,0.2-1,0.4L11,4.8c-0.2-0.2-0.6-0.2-0.9,0L8.2,6.7C8,6.9,8,7.3,8.2,7.6L9.6,9
		c-0.2,0.3-0.3,0.7-0.4,1h-2c-0.3,0-0.6,0.3-0.6,0.6V13c0,0.3,0.3,0.6,0.6,0.6h2c0.1,0.3,0.3,0.7,0.4,1L8.2,16
		c-0.2,0.2-0.2,0.6,0,0.9l1.9,1.9c0.2,0.2,0.6,0.2,0.9,0l1.4-1.4c0.3,0.2,0.7,0.3,1,0.4v2c0,0.3,0.3,0.6,0.6,0.6h2.5
		c0.3,0,0.6-0.3,0.6-0.6v-1.9c0.3-0.1,0.7-0.2,1-0.4l1.4,1.4c0.2,0.2,0.6,0.2,0.9,0l1.9-1.9c0.2-0.2,0.2-0.6,0-0.9l-1.4-1.4
		c0.2-0.3,0.3-0.7,0.4-1h2c0.3,0,0.6-0.3,0.6-0.6v-2.5c0-0.3-0.3-0.6-0.6-0.6h-2c-0.1-0.3-0.3-0.7-0.4-1l1.4-1.4
		c0.2-0.2,0.2-0.6,0-0.9l-1.9-1.9C20.1,4.6,19.7,4.6,19.5,4.8z M19.7,8.4c-0.2,0.2-0.2,0.5-0.1,0.8c0.3,0.5,0.5,1,0.6,1.5
		c0.1,0.3,0.3,0.5,0.6,0.5h1.8v1.2h-1.8c-0.3,0-0.5,0.2-0.6,0.5c-0.1,0.5-0.3,1.1-0.6,1.5c-0.1,0.2-0.1,0.6,0.1,0.8l1.3,1.3l-1,1
		l-1.3-1.3c-0.2-0.2-0.5-0.2-0.8-0.1c-0.5,0.3-1,0.5-1.5,0.6c-0.3,0.1-0.5,0.3-0.5,0.6v1.8h-1.2v-1.8c0-0.3-0.2-0.5-0.5-0.6
		c-0.5-0.1-1.1-0.3-1.5-0.6c-0.2-0.1-0.6-0.1-0.8,0.1l-1.3,1.3l-1-1l1.3-1.3c0.2-0.2,0.2-0.5,0.1-0.8c-0.3-0.5-0.5-1-0.6-1.5
		c-0.1-0.3-0.3-0.5-0.6-0.5H7.9v-1.2h1.8c0.3,0,0.5-0.2,0.6-0.5c0.1-0.5,0.3-1.1,0.6-1.5C11,8.9,11,8.6,10.8,8.4L9.5,7.1l1-1
		l1.3,1.3c0.2,0.2,0.5,0.2,0.8,0.1c0.5-0.3,1-0.5,1.5-0.6c0.3-0.1,0.5-0.3,0.5-0.6V4.4h1.2v1.8c0,0.3,0.2,0.5,0.5,0.6
		c0.5,0.1,1.1,0.3,1.5,0.6c0.2,0.1,0.6,0.1,0.8-0.1l1.3-1.3l1,1L19.7,8.4z"/>
	<path id="Path_62" class="st1" d="M15.2,8.7c-1.7,0-3.1,1.4-3.1,3.1s1.4,3.1,3.1,3.1c1.7,0,3.1-1.4,3.1-3.1S16.9,8.7,15.2,8.7
		L15.2,8.7z M15.2,13.7c-1,0-1.8-0.8-1.8-1.8s0.8-1.8,1.8-1.8s1.8,0.8,1.8,1.8S16.3,13.7,15.2,13.7L15.2,13.7z"/>
</g>
</svg>
