<?xml version="1.0" encoding="utf-8"?>
<!-- Generator: Adobe Illustrator 25.0.0, SVG Export Plug-In . SVG Version: 6.00 Build 0)  -->
<svg version="1.1" id="Layer_1" xmlns="http://www.w3.org/2000/svg" xmlns:xlink="http://www.w3.org/1999/xlink" x="0px" y="0px"
	 viewBox="0 0 44 44.7" style="enable-background:new 0 0 44 44.7;" xml:space="preserve">
<style type="text/css">
	.st0{fill:url(#Ellipse_36-2_1_);}
	.st1{fill:#FFFFFF;}
	.st2{fill:#4B1A0E;}
	.st3{fill:#B8291C;}
	.st4{fill:#EC728E;}
	.st5{fill:#392E1A;}
	.st6{enable-background:new    ;}
</style>
<g id="Component_17_1" transform="translate(9 6)">
	<g id="Group_135" transform="translate(0)">
		<g transform="matrix(1, 0, 0, 1, -9, -6)">
			
				<linearGradient id="Ellipse_36-2_1_" gradientUnits="userSpaceOnUse" x1="-285.0769" y1="330.8797" x2="-285.0769" y2="331.8797" gradientTransform="matrix(26 0 0 -26.708 7434 8869.8438)">
				<stop  offset="0" style="stop-color:#FA880F"/>
				<stop  offset="1" style="stop-color:#DC3F18"/>
			</linearGradient>
			<ellipse id="Ellipse_36-2" class="st0" cx="22" cy="19.4" rx="13" ry="13.4"/>
		</g>
		<g id="Group_130" transform="translate(4.144 11.061)">
			<path id="Path_101" class="st1" d="M5.1,1.1c0,1.4-1.1,2.5-2.5,2.5S0,2.5,0,1.1c0-0.4,0.1-0.7,0.2-1c0.4,0,0.8,0,1.2,0
				c0.4,0,0.8,0,1.3,0c0.4,0,0.8,0,1.3,0c0.3,0,0.6,0,0.8-0.1C5,0.3,5.1,0.7,5.1,1.1z"/>
			<path id="Path_102" class="st2" d="M2.5,0.7c0.2,0.5,0.7,0.7,1.2,0.5C3.8,1.2,3.9,1.1,4,1C4,1.1,4,1.3,4,1.4
				c0,0.8-0.7,1.5-1.5,1.5C1.7,2.9,1,2.3,1,1.4c0,0,0,0,0,0c0-0.2,0.1-0.5,0.2-0.7L2.5,0.7z"/>
		</g>
		<g id="Group_131" transform="translate(17.65 11.061)">
			<path id="Path_103" class="st1" d="M5.1,1.1c0,1.4-1.1,2.5-2.5,2.5S0,2.5,0,1.1c0-0.4,0.1-0.7,0.2-1c0.4,0,0.8,0,1.2,0
				c0.4,0,0.8,0,1.3,0c0.4,0,0.8,0,1.3,0c0.3,0,0.6,0,0.8-0.1C5,0.3,5.1,0.7,5.1,1.1z"/>
			<path id="Path_104" class="st2" d="M2.5,0.7c0.2,0.5,0.7,0.7,1.2,0.5C3.8,1.2,3.9,1.1,4,1C4,1.1,4,1.3,4,1.4
				c0,0.8-0.7,1.5-1.5,1.5C1.7,2.9,1,2.3,1,1.4c0,0,0,0,0,0c0-0.2,0.1-0.5,0.2-0.7L2.5,0.7z"/>
		</g>
		<g id="Group_132" transform="matrix(0.951, 0.309, -0.309, 0.951, 4.981, 7.645)">
			<path id="Path_105" class="st3" d="M4.9,2.6C3.2,2.6,1.5,2.1,0.2,1C0,0.8-0.1,0.5,0.1,0.2C0.3,0,0.7-0.1,1,0.1
				C2.4,1.2,4.2,1.7,6,1.3c0.3,0,0.6,0.2,0.6,0.5c0,0.3-0.2,0.6-0.5,0.6C5.7,2.6,5.3,2.6,4.9,2.6z"/>
		</g>
		<g id="Group_144" transform="matrix(-0.951, 0.309, -0.309, -0.951, 23.331, 10.1)">
			<path id="Path_105-2" class="st3" d="M4.9,0C3.2-0.1,1.5,0.5,0.2,1.5C0,1.7-0.1,2.1,0.1,2.4s0.6,0.3,0.8,0.1
				C2.4,1.4,4.2,0.9,6,1.2c0.3,0,0.6-0.2,0.6-0.5S6.5,0.1,6.2,0.1C5.7,0,5.3,0,4.9,0z"/>
		</g>
		<path id="Path_107" class="st4" d="M11.3,14.8H15c0.1,0,0.2-0.1,0.2-0.2c0,0,0-0.1,0-0.1l-1.9-4.8c0-0.1-0.2-0.2-0.3-0.1
			c-0.1,0-0.1,0.1-0.1,0.1l-1.9,4.8C11,14.6,11.1,14.7,11.3,14.8C11.2,14.8,11.3,14.8,11.3,14.8z"/>
		<g id="Group_134" transform="translate(6.898 15.829)">
			<path id="Path_108" class="st5" d="M12.2,1.8v4c0,1-0.8,1.8-1.8,1.8c0,0,0,0,0,0H1.8C0.8,7.6,0,6.8,0,5.8l0,0v-4
				C0,0.8,0.8,0,1.8,0c0,0,0,0,0,0h8.6C11.4,0,12.2,0.8,12.2,1.8L12.2,1.8z"/>
			<path id="Path_109" class="st1" d="M12,1L12,1l-1.1,0.9c-0.2,0.2-0.5,0.2-0.7,0l-1-0.9C9,0.7,8.7,0.7,8.4,0.8l-1.1,1
				C7.1,2,6.8,2,6.6,1.8L5.6,0.9c-0.2-0.2-0.5-0.2-0.7,0l-1,0.9C3.7,2,3.3,2,3.1,1.8l-1-0.9c-0.2-0.2-0.5-0.2-0.7,0
				C0.9,1.3,0.5,1.7,0,2.1V1.8C0,0.8,0.8,0,1.8,0c0,0,0,0,0,0h8.6C11.1,0,11.7,0.4,12,1z"/>
			<path id="Path_110" class="st1" d="M12,6.6L12,6.6l-1.1-0.9c-0.2-0.2-0.5-0.2-0.7,0l-1,0.9C9,6.9,8.7,6.9,8.4,6.7l-1.1-1
				c-0.2-0.2-0.5-0.2-0.7,0L5.6,6.7c-0.2,0.2-0.5,0.2-0.7,0l-1-0.9c-0.2-0.2-0.5-0.2-0.7,0l-1,0.9c-0.2,0.2-0.5,0.2-0.7,0
				C0.9,6.3,0.5,5.9,0,5.5v0.3c0,1,0.8,1.8,1.8,1.8c0,0,0,0,0,0h8.6C11.1,7.6,11.7,7.2,12,6.6z"/>
		</g>
	</g>
	<g id="Group_122" transform="translate(2.316 17.53)">
		<rect id="Rectangle_67" x="0.7" y="1.5" class="st1" width="21" height="8"/>
		<g class="st6">
			<path class="st5" d="M5.1,7.3H3.8L3.6,8.5H2.7l0.3-1.2H1.9V6.4h1.2l0.2-1.1H2.3V4.4h1.2l0.2-1.2h0.9L4.5,4.4h1.3L6,3.3h0.9
				L6.7,4.4h0.9v0.9H6.5L6.2,6.4h0.9v0.9H6.1L5.8,8.5H4.9L5.1,7.3z M5.5,5.3H4.3L4,6.4h1.3L5.5,5.3z"/>
			<path class="st5" d="M10,8.5C9.1,8.4,8.4,7.9,8.4,7.1h1.1c0,0.3,0.2,0.5,0.5,0.6V6.4C9.3,6.2,8.4,6,8.4,5c0-0.8,0.7-1.4,1.6-1.4
				V3h0.4v0.6c0.9,0.1,1.5,0.5,1.5,1.4h-1.1c0-0.3-0.2-0.5-0.5-0.6v1.3C11.2,5.8,12,6,12,7.1c0,0.7-0.6,1.4-1.6,1.5v0.6H10V8.5z
				 M10,5.5V4.3c-0.3,0-0.5,0.2-0.5,0.6C9.4,5.2,9.7,5.4,10,5.5z M10.4,6.5v1.2C10.8,7.7,11,7.4,11,7.1C11,6.8,10.8,6.6,10.4,6.5z"
				/>
			<path class="st5" d="M14,8.5c-0.4,0-0.6-0.3-0.6-0.6c0-0.3,0.3-0.6,0.6-0.6c0.3,0,0.6,0.3,0.6,0.6C14.6,8.3,14.4,8.5,14,8.5z
				 M13.5,3.5h1.1l-0.1,3.4h-0.8L13.5,3.5z"/>
			<path class="st5" d="M18.2,4.7c0-0.3-0.2-0.5-0.4-0.5c-0.3,0-0.5,0.2-0.5,0.4s0.1,0.4,0.4,0.8L19,6.6c0,0,0,0,0-0.1l0.4-0.7h1
				L20,6.8c-0.1,0.2-0.2,0.4-0.3,0.5l1.2,1.2h-1.2l-0.5-0.5c-0.5,0.4-1,0.6-1.7,0.6c-1.1,0-1.8-0.6-1.8-1.5c0-0.6,0.4-1.2,1.1-1.5
				c-0.3-0.3-0.4-0.6-0.4-0.9c0-0.7,0.5-1.2,1.4-1.2c0.9,0,1.4,0.6,1.4,1.2H18.2z M18.5,7.3l-1.2-1.2c-0.5,0.2-0.7,0.5-0.7,0.9
				c0,0.4,0.3,0.7,0.9,0.7C17.9,7.7,18.2,7.6,18.5,7.3z"/>
		</g>
	</g>
</g>
</svg>
