<?xml version="1.0" encoding="utf-8"?>
<!-- Generator: Adobe Illustrator 19.0.0, SVG Export Plug-In . SVG Version: 6.00 Build 0)  -->
<svg version="1.1" id="Layer_1" xmlns="http://www.w3.org/2000/svg" xmlns:xlink="http://www.w3.org/1999/xlink" x="0px" y="0px"
	 viewBox="0 0 94.4 30.8" style="enable-background:new 0 0 94.4 30.8;" xml:space="preserve">
<style type="text/css">
	.st0{fill-rule:evenodd;clip-rule:evenodd;}
	.st1{fill-rule:evenodd;clip-rule:evenodd;fill:#FFFFFF;}
	.st2{fill-rule:evenodd;clip-rule:evenodd;fill:#007CC2;}
</style>
<g>
	<path class="st0" d="M15.4,30.8C6.9,30.9,0,24,0,15.4C0,6.9,6.9,0,15.4,0c8.5,0,15.5,6.9,15.5,15.4C30.9,23.9,24,30.8,15.4,30.8
		L15.4,30.8z"/>
	<path class="st1" d="M28,15c-0.3-1.1-1.3-2-2.6-2c-1.5,0-2.7,1.2-2.7,2.7c0,1.5,1.2,2.7,2.7,2.7c1.1,0,2.1-0.7,2.5-1.7l2.1,0
		c-0.4,2.2-2.3,3.7-4.6,3.7c-2.6,0-4.7-2.1-4.7-4.7c0-2.6,2.1-4.7,4.7-4.7c2.4,0,4.3,1.7,4.6,4H28L28,15z"/>
	<path class="st1" d="M5.5,10.7c-2.7,0-4.8,2.1-4.8,4.8c0,2.6,2.1,4.8,4.8,4.8c0.9,0,1.8-0.3,2.5-0.7v0.8h2.2l0-4.9
		C10.2,12.8,8.1,10.7,5.5,10.7L5.5,10.7z M5.5,18.1c-1.5,0-2.6-1.2-2.6-2.6c0-1.4,1.2-2.6,2.6-2.6c1.4,0,2.6,1.2,2.6,2.6
		C8.1,16.9,6.9,18,5.5,18.1L5.5,18.1z"/>
	<path class="st1" d="M15.5,10.7c-1,0-1.9,0.3-2.6,0.8l-0.1-3.1h-2.2l0.1,7.2c0,2.7,2.2,4.9,4.8,4.9c2.7,0,4.8-2.2,4.8-4.9
		C20.3,12.9,18.2,10.7,15.5,10.7L15.5,10.7z M15.6,18.2c-1.5,0-2.7-1.2-2.7-2.6c0-1.5,1.2-2.6,2.7-2.6c1.5,0,2.6,1.2,2.6,2.6
		C18.2,17,17.1,18.2,15.6,18.2L15.6,18.2z"/>
	<path class="st2" d="M34.1,9.7c-0.7-0.7-1.5-1.2-2-1.2h-0.5V8H32c0.2,0,2.4,0.1,2.6,0.1c0.3,0,1.3-0.1,1.5-0.1h0.4l10,11v-8.7
		c0-1.3-0.6-1.9-2.1-1.9h-0.5V8h0.5c0.1,0,2.3,0.1,2.5,0.1C47.2,8.1,48.7,8,49,8h0.3l0,0.5c-1.4,0.1-1.7,0.5-1.7,1.7v13.6H47
		l-12-13.1v9.8c0,2.1,0.5,2.6,2.2,2.6h0.4v0.4h-0.5c-0.4,0-2.2-0.1-2.6-0.1c-0.2,0-1.9,0.1-2.3,0.1h-0.4v-0.4
		c1.8-0.2,2.1-0.4,2.1-1.7V9.7L34.1,9.7z"/>
	<path class="st2" d="M52.2,9.8c0-1-0.4-1.3-1.6-1.3h-0.4V8h1c0.7,0,4.6,0.1,4.6,0.1c0.6,0,4.2-0.1,5-0.1h1l0.1,3.4h-0.4
		C61.4,9.7,60.6,9,58.7,9h-3.7v5.9h3.2c1.2,0,1.9-0.6,2.1-1.8l0.5,0v4.7h-0.4c-0.2-1.5-1-2.1-2.8-2.1H55v5.5c0,0.9,0.4,1.3,1.4,1.3
		H59c1.7,0,2.9-0.7,3.7-2.3h0.5l-1.1,3.3c-0.8,0-4.4-0.1-5.6-0.1c-0.8,0-4.7,0.1-5.6,0.1h-0.7v-0.4h0.4c1.2,0,1.6-0.3,1.6-1.4V9.8
		L52.2,9.8z"/>
	<path class="st2" d="M77.5,23.8h-0.7l-3-8.2l-3.1,8.2H70l-5.1-13.7C64.4,9,64,8.6,63.4,8.5V8h0.4c0.3,0,1.7,0.1,2.1,0.1
		C66.2,8.1,67.7,8,68,8h0.5v0.5c-0.8,0-1.1,0.2-1.1,0.6c0,0.2,0.1,0.6,0.2,1l3.6,9.7l2.1-5.6l-1.4-3.8c-0.6-1.6-1.1-2-2.4-2V8H70
		c0.4,0,2.3,0.1,2.7,0.1C73.1,8.1,75,8,75.4,8H76v0.5h-0.6c-0.9,0-1.3,0.2-1.3,0.6c0,0.2,0.1,0.7,0.3,1.1l3.5,9.7l2.8-8.2
		c0.3-1.1,0.5-1.7,0.5-2.2c0-0.7-0.4-1-1.2-1h-0.5V8h0.1c0.4,0,1.3,0.1,1.9,0.1c0.3,0,1.3-0.1,1.8-0.1h0.2v0.5
		c-0.6,0.2-1,0.6-1.5,2.2L77.5,23.8L77.5,23.8z"/>
	<path class="st2" d="M83.6,20c0.4,1,0.8,1.5,1.5,2c0.9,0.7,2.1,1,3.4,1c2.3,0,3.8-1.2,3.8-2.9c0-1.3-0.7-2-3.5-3.2
		c-2.6-1.2-3.3-1.9-3.8-2.4c-0.8-0.9-1.2-1.6-1.2-2.7c0-2.4,2-4,4.9-4c0.9,0,1.9,0.1,2.9,0.4c0.4,0.1,0.9,0.2,1.1,0.2
		c0.2,0,0.3,0,0.4-0.2h0.4l0.1,3.3h-0.4c-0.2-0.8-0.4-1.1-0.7-1.6c-0.7-0.8-1.9-1.3-3.4-1.3c-1.9,0-3.1,0.9-3.1,2.2
		c0,1.2,0.7,1.8,3.2,3c3.2,1.5,5.2,2.8,5.2,5.3c0,2.8-2.3,4.7-5.8,4.7c-0.9,0-1.7-0.1-2.8-0.3c-0.3-0.1-0.7-0.1-0.9-0.1
		c-0.3,0-0.4,0.1-0.6,0.3h-0.5l0-0.4c-0.2-1.2-0.4-2.4-0.7-3.1L83.6,20L83.6,20z"/>
</g>
</svg>
