<?xml version="1.0" encoding="utf-8"?>
<!-- Generator: Adobe Illustrator 19.0.0, SVG Export Plug-In . SVG Version: 6.00 Build 0)  -->
<svg version="1.1" id="Layer_1" xmlns="http://www.w3.org/2000/svg" xmlns:xlink="http://www.w3.org/1999/xlink" x="0px" y="0px"
	 viewBox="0 0 22.1 19.4" style="enable-background:new 0 0 22.1 19.4;" xml:space="preserve">
<path d="M21.9,8.8l-8-8.5c-0.4-0.4-1-0.4-1.4,0c-0.4,0.4-0.4,1,0,1.4l6.4,6.8H1c-0.6,0-1,0.4-1,1c0,0.6,0.4,1,1,1h17.9l-6.5,7.3
	c-0.4,0.4-0.3,1,0.1,1.4c0.2,0.2,0.4,0.3,0.7,0.3c0.3,0,0.5-0.1,0.7-0.3l8-9C22.2,9.8,22.2,9.2,21.9,8.8z"/>
</svg>
