<?xml version="1.0" encoding="utf-8"?>
<!-- Generator: Adobe Illustrator 19.0.0, SVG Export Plug-In . SVG Version: 6.00 Build 0)  -->
<svg version="1.1" id="Layer_1" xmlns="http://www.w3.org/2000/svg" xmlns:xlink="http://www.w3.org/1999/xlink" x="0px" y="0px"
	 viewBox="0 0 28 23.1" style="enable-background:new 0 0 28 23.1;" xml:space="preserve">
<style type="text/css">
	.st0{fill:#E5414E;}
	.st1{fill:#FFFFFF;}
</style>
<path class="st0" d="M27.3,8h-3.1V5c0-0.4-0.4-0.7-0.7-0.7c-0.4,0-0.7,0.4-0.7,0.7v3h-3.1c-0.4,0-0.7,0.4-0.7,0.7
	c0,0.4,0.4,0.7,0.7,0.7h3.1v3.3c0,0.4,0.4,0.7,0.7,0.7c0.4,0,0.7-0.4,0.7-0.7V9.5h3.1c0.1,0,0.5,0,0.7-0.7C28,8.4,27.6,8,27.3,8z"/>
<path class="st1" d="M1.3,23.1c-0.4,0-0.7-0.3-0.7-0.7v-1.5c0-0.5,0.2-1,0.6-1.5c1.2-0.9,2.4-1.7,3.1-2v-1.4
	c-0.3-0.3-0.4-0.7-0.4-1.2v-2.3c0-1.5,1.2-2.7,2.6-2.7c0.1,0,0.1,0,0.2,0l0.4,0c1.6,0,2.8,1.2,2.8,2.8v2.3c0,0.5-0.2,0.9-0.4,1.2
	v1.4l0.8,0.4v0.1h0.1v1.6L10,19.2c-0.6-0.4-1.1-0.6-1.3-0.8c-0.3-0.2-0.5-0.5-0.5-0.8v-2.2c0-0.2,0.2-0.4,0.3-0.5
	c0.1-0.1,0.1-0.1,0.1-0.2v-2.3C8.6,11.6,8,11,7.3,11H6.7c-0.7,0-1.4,0.6-1.4,1.4v2.3c0,0.1,0,0.1,0,0.2c0.3,0.1,0.4,0.4,0.4,0.6v2.2
	c0,0.4-0.2,0.7-0.5,0.8c-0.1,0.1-0.2,0.1-0.4,0.2c-0.6,0.4-1.7,0.9-2.7,1.8c0,0,0,0.1-0.1,0.1c-0.1,0.1-0.1,0.2-0.1,0.2v1.5
	C2.1,22.8,1.7,23.1,1.3,23.1z"/>
<path id="XMLID_9_" class="st1" d="M10,18.2c0-0.1,0-0.1,0-0.2c-0.2-0.1-0.4-0.2-0.7-0.3H9.3v-1.8l0,0c0.2-0.3,0.4-0.7,0.4-1.1v-2.3
	c0-1.4-1.1-2.5-2.5-2.5H6.7c-1.4-0.1-2.5,1-2.5,2.4v2.3c0,0.4,0.1,0.8,0.4,1.1l0,0v1.8H4.5c-0.7,0.3-1.9,1.1-3.1,2
	c-0.3,0.4-0.6,0.9-0.6,1.3v1.5c0,0.3,0.2,0.4,0.4,0.4s0.4-0.2,0.4-0.4v-1.5c0-0.2,0.1-0.3,0.2-0.6c1.3-1.1,2.6-1.8,3.2-2.1
	c0.2-0.1,0.3-0.3,0.3-0.6v-2.2c0-0.1-0.1-0.3-0.2-0.3c-0.2-0.1-0.2-0.3-0.2-0.4v-2.3c0-0.9,0.8-1.7,1.7-1.7h0.6
	c0.9,0,1.7,0.8,1.7,1.7v2.3c0,0.2-0.1,0.3-0.2,0.4c-0.1,0.1-0.2,0.2-0.2,0.3v2.2c0,0.2,0.1,0.4,0.3,0.6c0.2,0.1,0.7,0.3,1.3,0.8
	v-0.8H10z"/>
<path class="st1" d="M0.7,13.5c-0.4,0-0.7-0.3-0.7-0.7v-1.5c0-0.5,0.2-0.9,0.6-1.5c1.2-0.9,2.4-1.7,3.1-2V6.3
	C3.4,5.9,3.3,5.6,3.3,5.1V2.7C3.3,1.2,4.5,0,6,0C6,0,6.1,0,6.2,0l0.4,0c1.6,0,2.8,1.2,2.8,2.8v2.3C9.4,5.7,9.2,6,9,6.4v1.4l0.8,0.4
	l0,0.1h0.1v1.6L9.4,9.6C8.8,9.2,8.3,9,8.1,8.9C7.8,8.7,7.6,8.4,7.6,8V5.8c0-0.2,0.2-0.4,0.3-0.5C8,5.2,8.1,5.1,8.1,5.1V2.7
	c0-0.7-0.6-1.4-1.4-1.4H6.2C5.4,1.4,4.8,2,4.8,2.7v2.3c0,0.1,0,0.1,0,0.2c0.3,0.1,0.4,0.4,0.4,0.6V8c0,0.4-0.2,0.7-0.5,0.8
	C4.7,8.9,4.5,9,4.4,9.1C3.7,9.4,2.7,10,1.6,10.9c0,0,0,0.1-0.1,0.1c-0.1,0.1-0.1,0.2-0.1,0.2v1.5C1.5,13.2,1.1,13.5,0.7,13.5z"/>
<path id="XMLID_8_" class="st1" d="M9.5,8.6c0-0.1,0-0.1,0-0.2C9.2,8.3,9,8.1,8.8,8H8.7V6.3l0,0c0.2-0.3,0.4-0.7,0.4-1.1V2.8
	c0-1.4-1.1-2.5-2.5-2.5H6.2c-1.4-0.1-2.5,1-2.5,2.4v2.3c0,0.4,0.1,0.8,0.4,1.1l0,0v1.8H3.9C3.3,8.3,2.1,9,0.9,9.9
	c-0.3,0.4-0.6,0.9-0.6,1.3v1.5c0,0.3,0.2,0.4,0.4,0.4s0.4-0.2,0.4-0.4v-1.5c0-0.2,0.1-0.3,0.2-0.6c1.3-1.1,2.6-1.8,3.2-2.1
	C4.8,8.5,4.9,8.3,4.9,8V5.8c0-0.1-0.1-0.3-0.2-0.3C4.5,5.4,4.5,5.2,4.5,5.1V2.7c0-0.9,0.8-1.7,1.7-1.7h0.6c0.9,0,1.7,0.8,1.7,1.7
	v2.3c0,0.2-0.1,0.3-0.2,0.4C8,5.6,7.9,5.7,7.9,5.8V8c0,0.2,0.1,0.4,0.3,0.6c0.2,0.1,0.7,0.3,1.3,0.8V8.6H9.5z"/>
<path class="st1" d="M19.9,16.7c-0.4,0-0.7-0.4-0.7-0.7v-1.5c0-0.1,0-0.1-0.1-0.2c0,0,0-0.1-0.1-0.1c-1-0.9-2.1-1.4-2.7-1.8
	c-0.2-0.1-0.3-0.2-0.4-0.2c-0.3-0.1-0.5-0.5-0.5-0.8V9c0-0.2,0.1-0.5,0.4-0.6c0,0,0-0.1,0-0.2V5.9c0-0.7-0.6-1.4-1.4-1.4h-0.6
	c-0.7,0-1.4,0.6-1.4,1.4v2.3c0,0.1,0,0.1,0.1,0.2C12.8,8.6,13,8.7,13,9v2.2c0,0.4-0.2,0.7-0.5,0.8c-0.2,0.1-0.6,0.3-1.3,0.8
	l-0.5,0.3v-1.7l0.8-0.4V9.5c-0.2-0.3-0.4-0.7-0.4-1.2V6c0-1.6,1.2-2.8,2.8-2.8h0.6c1.6,0,2.8,1.2,2.8,2.8v2.3c0,0.5-0.1,0.9-0.4,1.2
	v1.4c0.7,0.4,1.9,1.1,3.1,2c0.4,0.4,0.7,1,0.7,1.5v1.5C20.6,16.3,20.3,16.7,19.9,16.7z"/>
<path id="XMLID_7_" class="st1" d="M11,11.7c0-0.1,0-0.1,0-0.2c0.2-0.1,0.4-0.2,0.7-0.3h0.1V9.4l0,0c-0.2-0.3-0.4-0.7-0.4-1.1V6
	c0-1.4,1.1-2.5,2.5-2.5h0.6C15.9,3.5,17,4.6,17,6v2.3c0,0.4-0.1,0.8-0.4,1.1l0,0v1.8h0.1c0.7,0.3,1.9,1.1,3.1,2
	c0.3,0.3,0.6,0.8,0.6,1.2v1.5c0,0.2-0.2,0.4-0.4,0.4c-0.2,0-0.4-0.2-0.4-0.4v-1.5c0-0.2-0.1-0.3-0.2-0.6c-1.3-1.1-2.6-1.8-3.2-2.1
	c-0.2-0.1-0.3-0.3-0.3-0.6V9c0-0.1,0.1-0.3,0.2-0.3c0.2-0.1,0.2-0.3,0.2-0.4V5.9c0-0.9-0.8-1.7-1.7-1.7h-0.6c-0.9,0-1.7,0.8-1.7,1.7
	v2.3c0,0.2,0.1,0.3,0.2,0.4c0.1,0.1,0.2,0.2,0.2,0.3v2.2c0,0.2-0.1,0.4-0.3,0.6c-0.2,0.1-0.7,0.3-1.3,0.8L11,11.7z"/>
</svg>
