<?xml version="1.0" encoding="utf-8"?>
<!-- Generator: Adobe Illustrator 19.0.0, SVG Export Plug-In . SVG Version: 6.00 Build 0)  -->
<svg version="1.1" id="Objects" xmlns="http://www.w3.org/2000/svg" xmlns:xlink="http://www.w3.org/1999/xlink" x="0px" y="0px"
	 viewBox="0 0 175.1 175.1" style="enable-background:new 0 0 175.1 175.1;" xml:space="preserve">
<style type="text/css">
	.st0{fill:#43C5E6;}
	.st1{fill:#FFFFFF;}
</style>
<circle class="st0" cx="87.5" cy="87.5" r="87.5"/>
<g>
	<path class="st1" d="M133,141c-2.3-3.2-13.3-14.8-33-18.4c0,0,0-0.1,0-0.1v-11.5c10.5-7.2,18.8-22.7,18.8-40
		c0-10.8-0.6-15.9-5.7-23.4C107.1,38.5,95.8,36,87.3,36c-8.4,0-20,3-25.9,12.2c-5,7.9-5,13.1-5,24.1c0,17.6,8.6,32.7,19.3,39.4v10.8
		C55.6,126,44.5,137.8,42.2,141c-1.4,1.9-2.8,11.3-3.8,20.3c14,8.7,30.5,13.8,48.1,13.8c18.6,0,35.8-5.6,50.2-15.1
		C135.7,151.4,134.4,142.8,133,141z"/>
</g>
</svg>
