<?xml version="1.0" encoding="utf-8"?>
<!-- Generator: Adobe Illustrator 19.0.0, SVG Export Plug-In . SVG Version: 6.00 Build 0)  -->
<svg version="1.1" id="Layer_1" xmlns="http://www.w3.org/2000/svg" xmlns:xlink="http://www.w3.org/1999/xlink" x="0px" y="0px"
	 viewBox="0 0 34 34" style="enable-background:new 0 0 34 34;" xml:space="preserve">
<style type="text/css">
	.st0{fill:none;stroke:#000000;stroke-miterlimit:10;}
</style>
<g id="Checkmark_1_x40_2x.png">
	<g id="XMLID_33_">
		<path id="XMLID_34_" d="M31.4,7.8c0-0.4-0.3-0.7-0.7-0.7c-0.2,0-0.4,0.1-0.5,0.2l0,0L13.1,25.2l-9.4-9.4c-0.1-0.1-0.3-0.2-0.5-0.2
			c-0.4,0-0.7,0.3-0.7,0.7c0,0.2,0.1,0.3,0.2,0.5l9.8,9.8c0.1,0.1,0.3,0.2,0.5,0.2c0.2,0,0.4-0.1,0.5-0.2l0,0L31.3,8.3l0,0
			C31.4,8.1,31.4,8,31.4,7.8z"/>
	</g>
</g>
<path id="XMLID_1_" class="st0" d="M32.2,33.5H1.8c-0.7,0-1.3-0.6-1.3-1.3V1.8c0-0.7,0.6-1.3,1.3-1.3h30.3c0.7,0,1.3,0.6,1.3,1.3
	v30.3C33.5,32.9,32.9,33.5,32.2,33.5z"/>
</svg>
