<?xml version="1.0" encoding="utf-8"?>
<!-- Generator: Adobe Illustrator 19.0.0, SVG Export Plug-In . SVG Version: 6.00 Build 0)  -->
<svg version="1.1" id="Layer_1" xmlns="http://www.w3.org/2000/svg" xmlns:xlink="http://www.w3.org/1999/xlink" x="0px" y="0px"
	 viewBox="0 0 16.3 17.5" style="enable-background:new 0 0 16.3 17.5;" xml:space="preserve">
<style type="text/css">
	.st0{fill:#EB4361;}
	.st1{fill:#47C5E5;}
</style>
<g id="XMLID_261_">
	<path id="XMLID_29_" d="M13.5,8.5V4.1c0-0.6,0.5-1.1,1.1-1.1c0.6,0,1.1,0.5,1.1,1.1v4.3c0,0.6-0.5,1.1-1.1,1.1
		C14.1,9.6,13.5,9.1,13.5,8.5z M14.7,13.3c-0.6,0-1.1-0.5-1.1-1.1v-0.4c0-0.6,0.5-1.1,1.1-1.1c0.6,0,1.1,0.5,1.1,1.1v0.4
		C15.7,12.8,15.3,13.3,14.7,13.3z"/>
</g>
<g id="XMLID_34_">
	<path id="XMLID_35_" class="st0" d="M5.9,13.2c-0.1,0-0.2,0-0.3-0.1c-0.2-0.2-0.3-0.5-0.1-0.7c0.7-1,1.1-2.1,1.1-3.4
		c0-1.4-0.5-2.7-1.4-3.7c-0.2-0.2-0.2-0.5,0-0.7c0.2-0.2,0.5-0.2,0.7,0C7.1,5.8,7.7,7.4,7.7,9c0,1.4-0.5,2.8-1.3,4
		C6.3,13.1,6.1,13.2,5.9,13.2z"/>
</g>
<g id="XMLID_33_">
	<path id="XMLID_32_" class="st0" d="M8.8,15.3c-0.1,0-0.2,0-0.3-0.1c-0.2-0.2-0.3-0.5-0.1-0.7c1.2-1.6,1.8-3.5,1.8-5.5
		c0-2.2-0.8-4.4-2.3-6C7.7,2.7,7.8,2.4,8,2.2c0.2-0.2,0.5-0.2,0.7,0c1.6,1.9,2.5,4.2,2.5,6.7c0,2.2-0.7,4.3-2,6.1
		C9.1,15.2,8.9,15.3,8.8,15.3z"/>
</g>
<path id="XMLID_3_" class="st1" d="M1.4,6.2C2.8,6.2,4,7.4,4,8.8s-1.2,2.6-2.6,2.6"/>
</svg>
