<?xml version="1.0" encoding="utf-8"?>
<!-- Generator: Adobe Illustrator 19.0.0, SVG Export Plug-In . SVG Version: 6.00 Build 0)  -->
<svg version="1.1" id="Layer_1" xmlns="http://www.w3.org/2000/svg" xmlns:xlink="http://www.w3.org/1999/xlink" x="0px" y="0px"
	 viewBox="0 0 11.6 11.6" style="enable-background:new 0 0 11.6 11.6;" xml:space="preserve">
<g>
	<path d="M10.8,11.6c-0.2,0-0.4-0.1-0.5-0.2L0.2,1.3c-0.3-0.3-0.3-0.8,0-1.1s0.8-0.3,1.1,0l10.1,10.1c0.3,0.3,0.3,0.8,0,1.1
		C11.2,11.5,11,11.6,10.8,11.6z"/>
</g>
<g>
	<path d="M0.8,11.6c-0.2,0-0.4-0.1-0.5-0.2c-0.3-0.3-0.3-0.8,0-1.1L10.3,0.2c0.3-0.3,0.8-0.3,1.1,0s0.3,0.8,0,1.1L1.3,11.4
		C1.1,11.5,0.9,11.6,0.8,11.6z"/>
</g>
</svg>
