<?xml version="1.0" encoding="utf-8"?>
<!-- Generator: Adobe Illustrator 19.0.0, SVG Export Plug-In . SVG Version: 6.00 Build 0)  -->
<svg version="1.1" id="Isolation_Mode" xmlns="http://www.w3.org/2000/svg" xmlns:xlink="http://www.w3.org/1999/xlink" x="0px"
	 y="0px" width="12px" height="12px" viewBox="0 0 12 12" style="enable-background:new 0 0 12 12;" xml:space="preserve">
<style type="text/css">
	.st0{fill:#A2A5A6;}
</style>
<path class="st0" d="M11.7,0.3c-0.4-0.4-1-0.4-1.4,0L6,4.6L1.7,0.4C1.3,0,0.7,0,0.3,0.4c-0.4,0.4-0.4,1,0,1.4L4.6,6l-4.3,4.3
	c-0.4,0.4-0.4,1,0,1.4c0.4,0.4,1,0.4,1.4,0L6,7.4l4.2,4.2c0.4,0.4,1,0.4,1.4,0c0.4-0.4,0.4-1,0-1.4L7.4,6l4.3-4.3
	C12.1,1.3,12.1,0.7,11.7,0.3z"/>
</svg>
