<?xml version="1.0" encoding="utf-8"?>
<!-- Generator: Adobe Illustrator 19.0.0, SVG Export Plug-In . SVG Version: 6.00 Build 0)  -->
<svg version="1.1" id="Layer_1" xmlns="http://www.w3.org/2000/svg" xmlns:xlink="http://www.w3.org/1999/xlink" x="0px" y="0px"
	 viewBox="0 0 354.6 354.6" style="enable-background:new 0 0 354.6 354.6;" xml:space="preserve">
<style type="text/css">
	.st0{fill:#CA2026;}
	.st1{fill:#FFFFFF;}
	.st2{fill-rule:evenodd;clip-rule:evenodd;fill:#FFFFFF;}
</style>
<rect y="0" class="st0" width="354.6" height="354.6"/>
<g>
	<path class="st1" d="M107.5,102.8c0-0.1-27.8,0-27.8,0c-41.1,0-74.5,33.4-74.5,74.5c0,41.1,33.4,74.5,74.5,74.5l52.3,0
		c13.1,0,23.8-10.6,23.8-23.7l0-45.4l36.1,57c4.9,7.4,13.3,12.3,22.8,12.3c15.1,0,27.3-12.2,27.3-27.3l0-41.9l36.1,57
		c4.9,7.4,13.3,12.3,22.8,12.3c15.1,0,27.3-12.2,27.3-27.3l0-121.8h-18.6v121.8c0,4.8-3.9,8.7-8.7,8.7c-3,0-5.7-1.5-7.2-3.8
		l-64.3-101.3c-0.6-0.9-1.6-1.4-2.7-1.4c-1.8,0-3.3,1.5-3.3,3.3l0,94.5c0,4.8-3.9,8.7-8.7,8.7c-3,0-5.7-1.5-7.2-3.8l-64.3-101.3
		c-0.6-0.9-1.6-1.4-2.7-1.4c-1.8,0-3.3,1.5-3.3,3.3l0,98c0,2.9-2.3,5.2-5.2,5.2l-52.3,0c-30.9,0-55.9-25-55.9-55.9
		c0-30.9,25-55.9,55.9-55.9l27.8,0V102.8L107.5,102.8z"/>
	<path class="st2" d="M110.5,209.3c1.5,0,2.6-1.2,2.6-2.6l0-76.6c0-15.1,12.2-27.3,27.3-27.3c9.6,0,18,4.9,22.8,12.4l36,56.5
		l0.1-41.5c0-15.1,12.2-27.3,27.3-27.3c9.6,0,18,4.9,22.8,12.4l36,56.5v-68.8h18.7l0,121.8c0,1.8-1.5,3.3-3.3,3.3
		c-1.1,0-2-0.5-2.6-1.3l-64.4-101.4c-1.6-2.3-4.2-3.8-7.2-3.8c-4.8,0-8.7,3.9-8.7,8.7l0,94.5c0,1.8-1.5,3.3-3.3,3.3
		c-1.1,0-2-0.5-2.6-1.3l-64.4-101.4c-1.6-2.3-4.2-3.8-7.2-3.8c-4.8,0-8.7,3.9-8.7,8.7l0,95.3c0,1.5-1.2,2.6-2.6,2.6l-49.4,0
		c-27.9,0-50.5-22.8-50.5-50.7c0-27.9,22.6-50.7,50.5-50.7c0,0,27.8-0.1,27.8,0c0,0.1,0,18.8,0,18.8l-27.8,0
		c-17.6,0-31.9,14.3-31.9,31.9c0,17.6,14.3,32.1,31.9,32.1L110.5,209.3L110.5,209.3z"/>
</g>
</svg>
