<?xml version="1.0" encoding="utf-8"?>
<!-- Generator: Adobe Illustrator 23.0.1, SVG Export Plug-In . SVG Version: 6.00 Build 0)  -->
<svg version="1.1" id="Layer_1" xmlns="http://www.w3.org/2000/svg" xmlns:xlink="http://www.w3.org/1999/xlink" x="0px" y="0px"
	 viewBox="0 0 33.69 31.42" style="enable-background:new 0 0 33.69 31.42;" xml:space="preserve">
<g>
	<path d="M31.96,22.15h-3.29V5.65c0-0.24-0.19-0.43-0.43-0.43H3.72V1.73C3.72,0.78,4.5,0,5.46,0h26.5c0.96,0,1.73,0.78,1.73,1.73
		v18.68C33.69,21.37,32.92,22.15,31.96,22.15z M29.97,20.85h1.99c0.24,0,0.43-0.19,0.43-0.43V1.73c0-0.24-0.19-0.43-0.43-0.43H5.46
		c-0.24,0-0.43,0.2-0.43,0.43v2.18h23.22c0.96,0,1.73,0.78,1.73,1.73V20.85z"/>
</g>
<g>
	<path d="M0.03,31.42L0,24.45V5.77c0-0.96,0.78-1.73,1.73-1.73h26.5c0.96,0,1.73,0.78,1.73,1.73v18.68c0,0.96-0.78,1.73-1.73,1.73
		H6.53L0.03,31.42z M1.3,28.5l0,0.23l4.77-3.84h22.17c0.24,0,0.43-0.19,0.43-0.43V5.77c0-0.24-0.19-0.43-0.43-0.43H1.73
		c-0.24,0-0.43,0.2-0.43,0.43V28.5z"/>
</g>
<g>
	<rect x="6" y="12.56" width="17.98" height="1.3"/>
</g>
<g>
	<rect x="6" y="17.05" width="17.98" height="1.3"/>
</g>
</svg>
