<?xml version="1.0" encoding="utf-8"?>
<!-- Generator: Adobe Illustrator 19.0.0, SVG Export Plug-In . SVG Version: 6.00 Build 0)  -->
<svg version="1.1" id="Layer_1" xmlns="http://www.w3.org/2000/svg" xmlns:xlink="http://www.w3.org/1999/xlink" x="0px" y="0px"
	 viewBox="0 0 38 30.9" style="enable-background:new 0 0 38 30.9;" xml:space="preserve">
<g>
	<path d="M31.7,25.7c-0.3,0-0.7-0.1-1.1-0.5l-4.7-4.7c-0.4-0.4-1.2-0.7-1.7-0.7h-9.1c-1.1,0-2.1-0.9-2.1-2.1V2.1C13,0.9,14,0,15.1,0
		H36C37.1,0,38,0.9,38,2.1v15.7c0,1.1-0.9,2.1-2.1,2.1h-2.6c-0.3,0-0.6,0.2-0.6,0.6v3.9c0,0.9-0.5,1.3-0.7,1.3
		C32,25.6,31.8,25.7,31.7,25.7z M15.1,1.5c-0.3,0-0.6,0.3-0.6,0.6v15.7c0,0.3,0.3,0.6,0.6,0.6h9.1c0.9,0,2.1,0.5,2.8,1.1l4.3,4.3
		v-3.4c0-1.1,0.9-2.1,2.1-2.1H36c0.3,0,0.6-0.3,0.6-0.6V2.1c0-0.3-0.2-0.6-0.6-0.6H15.1z"/>
</g>
<g>
	<path d="M6.4,30.9c-0.2,0-0.3,0-0.4-0.1c-0.2-0.1-0.7-0.4-0.7-1.3v-3.9C5.2,25.2,5,25,4.7,25H2.1C0.9,25,0,24.1,0,22.9V7.3
		c0-1.1,0.9-2.1,2.1-2.1h11.7v1.5H2.1C1.8,6.7,1.5,7,1.5,7.3v15.7c0,0.3,0.3,0.6,0.6,0.6h2.6c1.1,0,2.1,0.9,2.1,2.1v3.4l4.3-4.3
		c0.6-0.7,1.8-1.1,2.8-1.1h9.1c0.3,0,0.6-0.3,0.6-0.6V19H25v3.9c0,1.1-0.9,2.1-2.1,2.1h-9.1c-0.5,0-1.3,0.3-1.7,0.7l-4.7,4.7
		C7,30.8,6.6,30.9,6.4,30.9z"/>
</g>
</svg>
