<?xml version="1.0" encoding="utf-8"?>
<!-- Generator: Adobe Illustrator 19.0.0, SVG Export Plug-In . SVG Version: 6.00 Build 0)  -->
<svg version="1.1" id="Layer_1" xmlns="http://www.w3.org/2000/svg" xmlns:xlink="http://www.w3.org/1999/xlink" x="0px" y="0px"
	 viewBox="0 0 22 20" style="enable-background:new 0 0 22 20;" xml:space="preserve">
<g>
	<path d="M17,1c0.4,0,0.8,0.2,0.9,0.6l3,7C21,8.8,21,8.9,21,9v1.5l-0.1,0.1L21,11l0,0c0,0.5-0.5,0.9-1,0.9h-6.3h-1.2l0.3,1.2
		l0.9,4.5l0,0.2c0,0.1-0.1,0.2-0.1,0.3l-0.4,0.3l-5.9-5.9C7.1,12.5,7,12.3,7,12V2c0-0.6,0.4-1,1-1H17 M3,1v10H1V1H3 M17,0H8
		C6.9,0,6,0.9,6,2v10c0,0.6,0.2,1.1,0.6,1.4l6.6,6.6l1.1-1c0.3-0.3,0.4-0.7,0.4-1.1l0-0.3l-1-4.6H20c1.1,0,2-0.9,2-2l0-0.1l0,0V9
		c0-0.3,0-0.5-0.1-0.7l-3-7.1C18.5,0.5,17.8,0,17,0L17,0z M4,0H0v12h4V0L4,0z"/>
</g>
</svg>
