<?xml version="1.0" encoding="utf-8"?>
<!-- Generator: Adobe Illustrator 19.0.0, SVG Export Plug-In . SVG Version: 6.00 Build 0)  -->
<svg version="1.1" id="Layer_1" xmlns="http://www.w3.org/2000/svg" xmlns:xlink="http://www.w3.org/1999/xlink" x="0px" y="0px"
	 width="96px" height="96px" viewBox="-463 465 96 96" enable-background="new -463 465 96 96" xml:space="preserve">
<g>
	<path fill="#EF8398" d="M-373.149,520.634c-2.646,5.06-7.465,8.204-12.574,8.204h-14.233c1.658,11.112-1.691,17.673-4.003,20.731
		c-2.897,3.824-7.085,6.108-11.203,6.108c-0.001,0-0.001,0-0.002,0c-4.268,0-7.37-2.231-8.734-6.282
		c-0.999-2.966-0.999-6.578-0.999-9.765c0-2.306,0-4.69-0.412-5.898c-1.429-4.197-3.944-8-6.728-10.172
		c-0.108-0.084-0.216-0.161-0.32-0.235c-0.798-0.571-2.459-1.76-2.459-4.351v-42.819c0-2.938,2.391-5.329,5.33-5.329h36.935
		c1.997,0,6.914,0.907,9.372,3.72c2.106,2.424,3.547,5.72,3.928,8.882c2.907,2.728,4.343,6.793,4.275,12.112
		c0.026,0.033,0.053,0.065,0.079,0.099c0.416,0.521,0.682,0.857,0.88,1.225c0.609,1.119,1.078,2.379,1.356,3.645
		c0.471,2.151,0.422,4.479-0.126,6.688C-370.709,511.157-370.814,516.169-373.149,520.634z M-392.552,476.826h-36.264v41.655
		c0.153,0.109,0.31,0.224,0.469,0.348c3.724,2.905,6.901,7.632,8.718,12.97c0.731,2.148,0.731,4.909,0.732,7.831
		c0,2.86,0,5.816,0.685,7.851c0.553,1.642,1.322,2.196,3.047,2.196c0,0,0.001,0,0.001,0c2.25,0,4.651-1.396,6.418-3.729
		c1.923-2.544,4.771-8.452,2.241-19.438l-0.846-3.673h21.626c3.429,0,5.997-2.575,7.258-4.984c1.016-1.943,1.619-4.666,0.711-7.096
		H-393c-1.657,0-3-1.343-3-3s1.343-3,3-3h14.557c0.135-1.011,0.125-2.033-0.078-2.966c-0.148-0.672-0.4-1.365-0.718-1.971
		c-0.088-0.119-0.214-0.272-0.343-0.433c-0.036-0.045-0.069-0.087-0.104-0.131h-14.147c-1.657,0-3-1.343-3-3s1.343-3,3-3h12.761
		c-0.249-2.351-0.987-4.136-2.195-5.348H-394c-1.657,0-3-1.343-3-3s1.343-3,3-3h8.242c-0.451-1.261-1.123-2.477-1.945-3.422
		C-388.424,477.663-391.132,476.826-392.552,476.826z"/>
	<path fill="#EF8398" d="M-447.56,526.58h-4.968c-5.523,0-10.016-4.493-10.016-10.016v-36.976c0-5.521,4.493-10.012,10.016-10.012
		h4.968c5.523,0,10.016,4.491,10.016,10.012v36.976C-437.544,522.087-442.037,526.58-447.56,526.58z M-443.544,479.588
		c0-2.212-1.802-4.012-4.016-4.012h-4.968c-2.214,0-4.016,1.8-4.016,4.012v36.976c0,2.214,1.802,4.016,4.016,4.016h4.968
		c2.214,0,4.016-1.802,4.016-4.016V479.588z"/>
</g>
</svg>
