<?xml version="1.0" encoding="utf-8"?>
<!-- Generator: Adobe Illustrator 19.0.0, SVG Export Plug-In . SVG Version: 6.00 Build 0)  -->
<svg version="1.1" id="Layer_1" xmlns="http://www.w3.org/2000/svg" xmlns:xlink="http://www.w3.org/1999/xlink" x="0px" y="0px"
	 viewBox="0 0 1024 1024" style="enable-background:new 0 0 1024 1024;" xml:space="preserve">
<style type="text/css">
	.st0{fill:#46C5E4;}
	.st1{fill:#EC1D45;}
</style>
<g id="XMLID_176_">
	<path id="XMLID_177_" class="st0" d="M155.7,159C246.4,66.9,373.4,9.7,511.6,9.7c139.6,0,265.2,57.2,357.3,149.4
		c89.3,92.1,146.5,217.7,146.5,357.3c0,139.6-57.2,265.2-146.5,357.3C776.8,967.2,651.2,1023,511.6,1023
		c-138.2,0-265.2-55.8-355.9-149.3C66.4,781.5,9.1,655.9,9.1,516.3C9.1,376.8,66.4,251.1,155.7,159z M767,260.9
		c-67-67-157.7-107.5-255.4-107.5c-97.7,0-187,40.5-252.6,107.5c-65.6,64.2-106.1,154.9-106.1,255.4c0,100.5,40.5,191.2,106.1,255.4
		c65.6,67,154.9,107.5,252.6,107.5c97.7,0,188.4-40.5,255.4-107.5c64.2-64.2,104.7-153.5,104.7-255.4
		C871.7,414.4,831.3,325.1,767,260.9z"/>
</g>
<g id="XMLID_4_">
	<polygon id="XMLID_5_" class="st0" points="580.9,811.3 676.5,691.4 1015.5,1025 791.5,1025 	"/>
</g>
<polygon id="XMLID_2_" class="st1" points="200.9,449.2 361.4,449.2 501.5,598.4 960.3,153.4 960.8,155.1 505.4,759 "/>
</svg>
