<?xml version="1.0" encoding="utf-8"?>
<!-- Generator: Adobe Illustrator 19.0.0, SVG Export Plug-In . SVG Version: 6.00 Build 0)  -->
<svg version="1.1" id="Layer_1" xmlns="http://www.w3.org/2000/svg" xmlns:xlink="http://www.w3.org/1999/xlink" x="0px" y="0px"
	 viewBox="0 0 47 40" style="enable-background:new 0 0 47 40;" xml:space="preserve">
<style type="text/css">
	.st0{fill:#FFFFFF;}
	.st1{fill:#212223;}
	.st2{fill:#0088CC;}
</style>
<path class="st0" d="M47,3.5v27c0,1.9-1.6,3.5-3.5,3.5H27v5h3.5c0.3,0,0.5,0.2,0.5,0.5S30.8,40,30.5,40h-14c-0.3,0-0.5-0.2-0.5-0.5
	s0.2-0.5,0.5-0.5H20v-5H3.5C1.6,34,0,32.4,0,30.5v-27C0,1.6,1.6,0,3.5,0h40C45.4,0,47,1.6,47,3.5z"/>
<path class="st1" d="M43.5,0h-40C1.6,0,0,1.6,0,3.5v27C0,32.4,1.6,34,3.5,34H20v5h-3.5c-0.3,0-0.5,0.2-0.5,0.5s0.2,0.5,0.5,0.5h14
	c0.3,0,0.5-0.2,0.5-0.5S30.8,39,30.5,39H27v-5h16.5c1.9,0,3.5-1.6,3.5-3.5v-27C47,1.6,45.4,0,43.5,0z M26,39h-5v-5h5V39z M46,30.5
	c0,1.4-1.1,2.5-2.5,2.5h-40C2.1,33,1,31.9,1,30.5V28h45V30.5z M46,27H1V3.5C1,2.1,2.1,1,3.5,1h40C44.9,1,46,2.1,46,3.5V27z"/>
<path class="st2" d="M32,24.2l-4.7-5.4c1.7-1.6,2.8-3.8,2.8-6.3c0-4.7-3.9-8.6-8.6-8.6c-4.7,0-8.6,3.9-8.6,8.6s3.9,8.6,8.6,8.6
	c1.7,0,3.4-0.5,4.7-1.4l4.8,5.5L32,24.2z M14.2,12.5c0-4,3.2-7.2,7.2-7.2c4,0,7.2,3.2,7.2,7.2s-3.2,7.2-7.2,7.2
	C17.4,19.7,14.2,16.5,14.2,12.5"/>
</svg>
