<?xml version="1.0" encoding="utf-8"?>
<!-- Generator: Adobe Illustrator 19.0.0, SVG Export Plug-In . SVG Version: 6.00 Build 0)  -->
<svg version="1.1" id="Layer_1" xmlns="http://www.w3.org/2000/svg" xmlns:xlink="http://www.w3.org/1999/xlink" x="0px" y="0px"
	 viewBox="0 0 47 40" style="enable-background:new 0 0 47 40;" xml:space="preserve">
<style type="text/css">
	.st0{fill:#FFFFFF;}
	.st1{fill:#212223;}
	.st2{fill:#0088CC;}
</style>
<g>
	<path class="st0" d="M39.8,9.9v26.8c0,1.8-1.5,3.3-3.3,3.3h-26c-1.8,0-3.3-1.5-3.3-3.3V3.3C7.2,1.5,8.7,0,10.5,0h20.3L39.8,9.9z"/>
	<path class="st1" d="M30.7,0H10.5C8.7,0,7.2,1.5,7.2,3.3v33.5c0,1.8,1.5,3.3,3.3,3.3h26c1.8,0,3.3-1.5,3.3-3.3V9.9L30.7,0z
		 M38.8,36.7c0,1.3-1,2.3-2.3,2.3h-26c-1.3,0-2.3-1-2.3-2.3V3.3c0-1.3,1-2.3,2.3-2.3h17.2v9.8c0,0.8,0.6,1.4,1.4,1.4h9.8V36.7z
		 M28.6,11.2V0.9h1.6l9.2,10.2H28.6z"/>
	<g>
		<path class="st2" d="M25.1,30.9H13.9c-0.5,0-0.9,0.4-0.9,0.9c0,0.5,0.4,0.9,0.9,0.9h11.2c0.5,0,0.9-0.4,0.9-0.9
			C26,31.3,25.6,30.9,25.1,30.9"/>
		<path class="st2" d="M13.9,10.4h4.7c0.5,0,0.9-0.4,0.9-0.9c0-0.5-0.4-0.9-0.9-0.9h-4.7c-0.5,0-0.9,0.4-0.9,0.9
			C13,10,13.4,10.4,13.9,10.4"/>
		<path class="st2" d="M30.6,23.4H13.9c-0.5,0-0.9,0.4-0.9,0.9c0,0.5,0.4,0.9,0.9,0.9h16.7c0.5,0,0.9-0.4,0.9-0.9
			C31.6,23.8,31.1,23.4,30.6,23.4"/>
		<path class="st2" d="M13,16.9c0,0.5,0.4,0.9,0.9,0.9h16.7c0.5,0,0.9-0.4,0.9-0.9c0-0.5-0.4-0.9-0.9-0.9H13.9
			C13.4,16,13,16.4,13,16.9"/>
	</g>
</g>
<path class="st0" d="M399.5,1057.2v28.8c0,1.9-1.6,3.5-3.5,3.5h-28c-1.9,0-3.5-1.6-3.5-3.5v-36c0-1.9,1.6-3.5,3.5-3.5h21.8
	L399.5,1057.2z"/>
<path class="st1" d="M389.8,1046.5H368c-1.9,0-3.5,1.6-3.5,3.5v36c0,1.9,1.6,3.5,3.5,3.5h28c1.9,0,3.5-1.6,3.5-3.5v-28.8
	L389.8,1046.5z M398.5,1086c0,1.4-1.1,2.5-2.5,2.5h-28c-1.4,0-2.5-1.1-2.5-2.5v-36c0-1.4,1.1-2.5,2.5-2.5h18.5v10.5
	c0,0.8,0.7,1.5,1.5,1.5h10.5V1086z M387.5,1058.5v-11h1.7l9.9,11H387.5z"/>
<g>
	<path class="st2" d="M383.7,1079.7h-12c-0.6,0-1,0.4-1,1c0,0.6,0.4,1,1,1h12c0.6,0,1-0.4,1-1
		C384.7,1080.1,384.2,1079.7,383.7,1079.7"/>
	<path class="st2" d="M371.7,1057.7h5c0.6,0,1-0.4,1-1c0-0.6-0.4-1-1-1h-5c-0.6,0-1,0.4-1,1C370.7,1057.2,371.1,1057.7,371.7,1057.7
		"/>
	<path class="st2" d="M389.7,1071.7h-18c-0.6,0-1,0.4-1,1c0,0.6,0.4,1,1,1h18c0.6,0,1-0.4,1-1
		C390.7,1072.1,390.2,1071.7,389.7,1071.7"/>
	<path class="st2" d="M370.7,1064.7c0,0.6,0.4,1,1,1h18c0.6,0,1-0.4,1-1c0-0.6-0.4-1-1-1h-18
		C371.1,1063.7,370.7,1064.1,370.7,1064.7"/>
</g>
</svg>
