<?xml version="1.0" encoding="utf-8"?>
<!-- Generator: Adobe Illustrator 19.0.0, SVG Export Plug-In . SVG Version: 6.00 Build 0)  -->
<svg version="1.1" id="Layer_1" xmlns="http://www.w3.org/2000/svg" xmlns:xlink="http://www.w3.org/1999/xlink" x="0px" y="0px"
	 viewBox="0 0 47 40" style="enable-background:new 0 0 47 40;" xml:space="preserve">
<style type="text/css">
	.st0{fill:#FFFFFF;}
	.st1{fill:#212223;}
	.st2{fill:#0088CC;}
</style>
<path class="st0" d="M399.5,1057.2v28.8c0,1.9-1.6,3.5-3.5,3.5h-28c-1.9,0-3.5-1.6-3.5-3.5v-36c0-1.9,1.6-3.5,3.5-3.5h21.8
	L399.5,1057.2z"/>
<path class="st1" d="M389.8,1046.5H368c-1.9,0-3.5,1.6-3.5,3.5v36c0,1.9,1.6,3.5,3.5,3.5h28c1.9,0,3.5-1.6,3.5-3.5v-28.8
	L389.8,1046.5z M398.5,1086c0,1.4-1.1,2.5-2.5,2.5h-28c-1.4,0-2.5-1.1-2.5-2.5v-36c0-1.4,1.1-2.5,2.5-2.5h18.5v10.5
	c0,0.8,0.7,1.5,1.5,1.5h10.5V1086z M387.5,1058.5v-11h1.7l9.9,11H387.5z"/>
<g>
	<path class="st2" d="M383.7,1079.7h-12c-0.6,0-1,0.4-1,1c0,0.6,0.4,1,1,1h12c0.6,0,1-0.4,1-1
		C384.7,1080.1,384.2,1079.7,383.7,1079.7"/>
	<path class="st2" d="M371.7,1057.7h5c0.6,0,1-0.4,1-1c0-0.6-0.4-1-1-1h-5c-0.6,0-1,0.4-1,1C370.7,1057.2,371.1,1057.7,371.7,1057.7
		"/>
	<path class="st2" d="M389.7,1071.7h-18c-0.6,0-1,0.4-1,1c0,0.6,0.4,1,1,1h18c0.6,0,1-0.4,1-1
		C390.7,1072.1,390.2,1071.7,389.7,1071.7"/>
	<path class="st2" d="M370.7,1064.7c0,0.6,0.4,1,1,1h18c0.6,0,1-0.4,1-1c0-0.6-0.4-1-1-1h-18
		C371.1,1063.7,370.7,1064.1,370.7,1064.7"/>
</g>
<g>
	<g>
		<path class="st0" d="M12.7,24.2h9.6c0,0,0,0.2,0,0.2c0,0.1,0,0.2,0,0.3h3.5c0-0.1,0-0.2,0-0.3c0,0,0-0.2,0-0.2h9.9l11.4,13.7
			L0.3,38l0.5-0.5L12.7,24.2z"/>
	</g>
</g>
<g>
	<path class="st2" d="M43.5,36.6L40,35.2c-1.8-0.7-4.7-1.2-6.4-1c-1.9,0.2-5.3-0.7-7.6-2c-2.1-1.2-5.2-2.2-6.6-2.2
		c-1.7,0-3.7-1-4.3-2.3l-1.1-2l0.9-0.5l1.1,2c0.5,1,2.1,1.8,3.5,1.8c1.6,0,4.8,1,7.1,2.3c2.1,1.2,5.3,2,7,1.8
		c1.9-0.2,4.9,0.3,6.9,1.1l3.4,1.4L43.5,36.6z"/>
</g>
<g>
	<path class="st2" d="M27.9,33.3l-0.6-0.8l2.1-1.6c1-0.7,1.5-2.1,1-2.9l-1-1.9l0.9-0.4l1,1.9c0.6,1.3,0,3.2-1.3,4.2L27.9,33.3z"/>
</g>
<g>
	<path d="M24.6,1c-4.4,0-8,3.6-8,8c0,3.1,1.8,5.9,4.4,7.2l3.6,20.1l3.6-20.1c2.6-1.3,4.4-4,4.4-7.2C32.6,4.6,29,1,24.6,1"/>
</g>
<g>
	<path class="st0" d="M24.6,29.1l-2-12.3c0.6,0.2,1.3,0.3,2,0.3c0.7,0,1.3-0.1,2-0.3L24.6,29.1z"/>
</g>
<g>
	<path class="st0" d="M23.1,17.3c0.5,0.1,1,0.1,1.5,0.1c0.5,0,1,0,1.5-0.1l-1.5,9.2L23.1,17.3z"/>
</g>
<g>
	<path class="st0" d="M24.6,15.5c-3.5,0-6.4-2.9-6.4-6.4s2.9-6.4,6.4-6.4S31,5.5,31,9S28.1,15.5,24.6,15.5"/>
</g>
<g>
	<path class="st0" d="M24.6,15.9c-3.8,0-6.8-3.1-6.8-6.8s3.1-6.8,6.8-6.8s6.8,3.1,6.8,6.8S28.4,15.9,24.6,15.9z M24.6,3
		c-3.3,0-6,2.7-6,6s2.7,6,6,6c3.3,0,6-2.7,6-6S27.9,3,24.6,3z"/>
</g>
<g>
	<path class="st2" d="M24.6,4.6c-0.2,0-4.4,0.1-4.4,4.4c0,0.2,0.2,0.4,0.4,0.4C20.8,9.4,21,9.3,21,9c0-2.9,2.4-3.6,3.6-3.6
		C24.8,5.4,25,5.2,25,5C25,4.8,24.8,4.6,24.6,4.6z"/>
</g>
</svg>
