<?xml version="1.0" encoding="utf-8"?>
<!-- Generator: Adobe Illustrator 19.0.0, SVG Export Plug-In . SVG Version: 6.00 Build 0)  -->
<svg version="1.1" id="Isolation_Mode" xmlns="http://www.w3.org/2000/svg" xmlns:xlink="http://www.w3.org/1999/xlink" x="0px"
	 y="0px" viewBox="-325.8 322.5 139.9 160.9" style="enable-background:new -325.8 322.5 139.9 160.9;" xml:space="preserve">
<style type="text/css">
	.st0{fill:#43C5E6;}
</style>
<path class="st0" d="M-266.1,483.4c-12.4,0-24.3-3.8-34.4-10.9c-13-9.2-21.7-22.9-24.4-38.6c-2.7-15.7,0.9-31.6,10-44.6
	c11.1-15.8,29.4-25.3,48.9-25.3c8.3,0,16.3,1.7,23.8,4.9l3,1.3l23.2-32.9l-16.6,1l-1-13.1l38.2-2.7l9.5,36.3l-12.5,3.3l-3.8-15
	l-23.1,32.7l2.3,2.4c19.8,20.6,22.2,52.5,5.8,75.9C-228.3,473.9-246.6,483.4-266.1,483.4z M-266.1,380.8c-13.9,0-27,6.8-35,18.1
	c-6.6,9.3-9.1,20.7-7.2,31.9c2,11.3,8.2,21.1,17.5,27.7c7.2,5.1,15.7,7.8,24.6,7.8c13.9,0,27-6.8,35-18.1c6.6-9.3,9.1-20.7,7.2-31.9
	c-2-11.3-8.2-21.1-17.5-27.7C-248.7,383.5-257.2,380.8-266.1,380.8z"/>
</svg>
