<?xml version="1.0" encoding="utf-8"?>
<!-- Generator: Adobe Illustrator 19.0.0, SVG Export Plug-In . SVG Version: 6.00 Build 0)  -->
<svg version="1.1" id="Isolation_Mode" xmlns="http://www.w3.org/2000/svg" xmlns:xlink="http://www.w3.org/1999/xlink" x="0px"
	 y="0px" viewBox="-195.8 311.8 119.5 170.8" style="enable-background:new -195.8 311.8 119.5 170.8;" xml:space="preserve">
<style type="text/css">
	.st0{fill:#EC1C45;}
</style>
<path class="st0" d="M-144.9,482.6v-15h-14v-13h14v-23.9l-3.2-0.7c-27.7-5.7-47.7-30.3-47.7-58.5c0-33,26.8-59.8,59.6-59.8
	c33,0,59.9,26.8,59.9,59.8c0,28.6-20.3,53.2-48.3,58.7l-3.2,0.6v23.7h14v13h-14v15H-144.9z M-136.2,328.8
	c-23.6,0-42.8,19.2-42.8,42.8c0,23.6,19.2,42.8,42.8,42.8c23.6,0,42.8-19.2,42.8-42.8C-93.4,348-112.6,328.8-136.2,328.8z"/>
</svg>
