<svg id="icon_group2" xmlns="http://www.w3.org/2000/svg" width="42.201" height="19.543" viewBox="0 0 42.201 19.543">
  <path id="Path_7" data-name="Path 7" d="M13.789,40.046c.227-2.575-.151-4.469-1.136-5.605A3.743,3.743,0,0,0,10.835,33.3a9.168,9.168,0,0,0-2.727-.53H7.729v2.8c0,.151-.076.227-.151.227H7.5a.278.278,0,0,1-.227-.076l-5-5a.379.379,0,0,1,0-.454l5-5a.235.235,0,0,1,.151-.076h.151c.151.076.151.151.151.227v2.878h.3c2.575.151,4.469.833,5.605,2.045a6.409,6.409,0,0,1,1.591,4.7,7.553,7.553,0,0,1-.151,1.212,6.4,6.4,0,0,1-.379,1.288c-.151.379-.3.833-.454,1.212s-.3.682-.379.833Z" transform="translate(-2.2 -20.504)" fill="#47c5e5"/>
  <path id="Path_22" data-name="Path 22" d="M65.182,7.147a30.24,30.24,0,0,0-2.743-1.858V5.2a1.778,1.778,0,0,1-.708-.354h-.088V2.9c0-.088.088-.088.088-.177a1.778,1.778,0,0,0,.354-.708c0-.177.088-.265.088-.442V-1.081A2.836,2.836,0,0,0,59.254-4h-.619a2.836,2.836,0,0,0-2.919,2.919V1.574a.8.8,0,0,0,.088.442,2.649,2.649,0,0,0,.354.708c0,.088.088.088.088.177V4.847h-.088c-.265.088-.531.265-.8.354v.088a30.243,30.243,0,0,0-2.743,1.858A2.088,2.088,0,0,0,52,8.563V12.1a.531.531,0,0,0,1.062,0V8.563c0-.265.088-.354.265-.619a14.248,14.248,0,0,1,3.45-2.389.592.592,0,0,0,.354-.619V2.37c0-.088-.088-.354-.265-.354a.087.087,0,0,1-.088-.088l-.088-.088h0c0-.088,0-.088-.088-.177V-1.081a1.93,1.93,0,0,1,1.858-1.858h.619a1.93,1.93,0,0,1,1.858,1.858V1.662c0,.088,0,.088-.088.177h0a.087.087,0,0,1-.088.088l-.088.088c-.088,0-.265.265-.265.354V4.847a.592.592,0,0,0,.354.619,23.858,23.858,0,0,1,3.627,2.389c.088.265.265.354.265.619v3.539a.531.531,0,0,0,1.062,0V8.474A1.616,1.616,0,0,0,65.182,7.147Z" transform="translate(-37.684 4)" fill="#42cef2"/>
  <path id="Path_23" data-name="Path 23" d="M65.182,7.147a30.24,30.24,0,0,0-2.743-1.858V5.2a1.778,1.778,0,0,1-.708-.354h-.088V2.9c0-.088.088-.088.088-.177a1.778,1.778,0,0,0,.354-.708c0-.177.088-.265.088-.442V-1.081A2.836,2.836,0,0,0,59.254-4h-.619a2.836,2.836,0,0,0-2.919,2.919V1.574a.8.8,0,0,0,.088.442,2.649,2.649,0,0,0,.354.708c0,.088.088.088.088.177V4.847h-.088c-.265.088-.531.265-.8.354v.088a30.243,30.243,0,0,0-2.743,1.858A2.088,2.088,0,0,0,52,8.563V12.1a.531.531,0,0,0,1.062,0V8.563c0-.265.088-.354.265-.619a14.248,14.248,0,0,1,3.45-2.389.592.592,0,0,0,.354-.619V2.37c0-.088-.088-.354-.265-.354a.087.087,0,0,1-.088-.088l-.088-.088h0c0-.088,0-.088-.088-.177V-1.081a1.93,1.93,0,0,1,1.858-1.858h.619a1.93,1.93,0,0,1,1.858,1.858V1.662c0,.088,0,.088-.088.177h0a.087.087,0,0,1-.088.088l-.088.088c-.088,0-.265.265-.265.354V4.847a.592.592,0,0,0,.354.619,23.858,23.858,0,0,1,3.627,2.389c.088.265.265.354.265.619v3.539a.531.531,0,0,0,1.062,0V8.474A1.616,1.616,0,0,0,65.182,7.147Z" transform="translate(-23.529 4)" fill="#42cef2"/>
</svg>
