<?xml version="1.0" encoding="utf-8"?>
<!-- Generator: Adobe Illustrator 19.0.0, SVG Export Plug-In . SVG Version: 6.00 Build 0)  -->
<svg version="1.1" id="Layer_1" xmlns="http://www.w3.org/2000/svg" xmlns:xlink="http://www.w3.org/1999/xlink" x="0px" y="0px"
	 viewBox="0 14.3 41.3 36" style="enable-background:new 0 14.3 41.3 36;" xml:space="preserve">
<style type="text/css">
	.st0{fill:#47C5E5;}
</style>
<path class="st0" d="M18.7,45.9c0.3-3.4-0.2-5.9-1.5-7.4c-0.6-0.7-1.4-1.2-2.4-1.5c-1-0.4-2.2-0.6-3.6-0.7l-0.5,0V40
	c0,0.2-0.1,0.3-0.2,0.3c0,0-0.1,0-0.1,0c-0.1,0-0.2,0-0.3-0.1l-6.6-6.6c-0.1-0.1-0.1-0.2-0.1-0.3s0-0.2,0.1-0.3l6.6-6.6
	c0.1-0.1,0.2-0.1,0.2-0.1c0.1,0,0.1,0,0.2,0c0.2,0.1,0.2,0.2,0.2,0.3v3.8l0.4,0c3.4,0.2,5.9,1.1,7.4,2.7c1.4,1.4,2.1,3.5,2.1,6.2
	c0,0.5-0.1,1-0.2,1.6c-0.1,0.6-0.3,1.2-0.5,1.7c-0.2,0.5-0.4,1.1-0.6,1.6c-0.2,0.5-0.4,0.9-0.5,1.1L18.7,45.9z"/>
<g>
	<g>
		<path d="M29.9,40.1c-5,0-9.1-4.1-9.1-9.1s4.1-9.1,9.1-9.1S39,25.9,39,31S34.9,40.1,29.9,40.1z M29.9,22.7c-4.6,0-8.3,3.7-8.3,8.3
			s3.7,8.3,8.3,8.3s8.3-3.7,8.3-8.3S34.5,22.7,29.9,22.7z"/>
	</g>
	<g>
		<path d="M28.5,39.9c-2.4-2.3-3.7-5.4-3.7-8.7c0-3.6,1.6-7,4.4-9.2l0.5,0.6c-2.6,2.1-4.1,5.3-4.1,8.6c0,3.1,1.2,6,3.5,8.1
			L28.5,39.9z"/>
	</g>
	<g>
		<path d="M31.2,39.9l-0.6-0.6c2.2-2.1,3.5-5,3.5-8.1c0-3.3-1.5-6.5-4.1-8.6l0.5-0.6c2.8,2.3,4.4,5.7,4.4,9.2
			C34.9,34.5,33.6,37.6,31.2,39.9z"/>
	</g>
	<g>
		<rect x="29.2" y="22.3" width="0.8" height="17.3"/>
	</g>
	<g>
		<rect x="22.2" y="26.5" width="15.5" height="0.8"/>
	</g>
	<g>
		<rect x="22.2" y="34.3" width="15.5" height="0.8"/>
	</g>
</g>
</svg>
