<?xml version="1.0" encoding="utf-8"?>
<!-- Generator: Adobe Illustrator 19.0.0, SVG Export Plug-In . SVG Version: 6.00 Build 0)  -->
<svg version="1.1" id="Layer_1" xmlns="http://www.w3.org/2000/svg" xmlns:xlink="http://www.w3.org/1999/xlink" x="0px" y="0px"
	 viewBox="0 0 30 30" style="enable-background:new 0 0 30 30;" xml:space="preserve">
<style type="text/css">
	.st0{fill:#45C4E4;}
</style>
<g id="XMLID_6_">
	<g id="XMLID_26_">
		<path id="XMLID_3_" d="M20.1,24.8c-0.6,0-1.1-0.1-1.7-0.4c-1.3-0.7-2.2-2-2.3-3.5c0-0.3,0.2-0.5,0.5-0.5c0.3,0,0.5,0.2,0.5,0.5
			c0.1,1.1,0.7,2.1,1.7,2.6c0.9,0.5,1.9,0.4,2.8-0.2c1.2-0.8,1.7-2.2,2.3-3.7c0.3-0.9,0.7-1.9,1.2-2.7c0.4-0.6,0.9-1.2,1.3-1.8
			c1.4-1.8,2.7-3.5,2.6-5.9c-0.1-2.4-1.6-4.5-3.7-5.4c-2.1-0.9-4.9-0.6-6.9,0.9c-0.9,0.7-2.4,2.2-2.1,4.5c0,0.3-0.2,0.5-0.4,0.6
			c-0.3,0-0.5-0.2-0.6-0.4c-0.3-2.1,0.6-4,2.5-5.4c2.3-1.7,5.4-2.1,7.9-1C28.2,3.8,29.8,6.3,30,9c0.2,2.8-1.3,4.7-2.8,6.6
			c-0.4,0.6-0.9,1.1-1.3,1.7c-0.5,0.7-0.8,1.6-1.1,2.5c-0.6,1.6-1.2,3.2-2.6,4.2C21.5,24.5,20.8,24.8,20.1,24.8z"/>
	</g>
	<g id="XMLID_7_">
		<path id="XMLID_2_" d="M18.1,18c-0.3,0-0.5,0-0.6-0.2l-0.2-0.2l0.1-0.2v-2.9c0-0.3,0.2-0.5,0.5-0.5s0.5,0.2,0.5,0.5V17
			c0.3,0,0.7-0.1,0.8-0.1c1-0.4,1.4-1.5,1.4-2.4c0-0.9-0.5-1.7-1.4-1.9c-0.3-0.1-0.8-0.3-1-1c-0.5-1.4,0.2-3.7,0.6-4.4
			c1-1.7,3.1-2.5,5.2-2.1c1.6,0.3,2.8,1.3,3.2,2.8c0.5,1.8-0.1,4.2-1.7,5.7c-0.2,0.2-0.5,0.2-0.7,0c-0.2-0.2-0.2-0.5,0-0.7
			c1.3-1.3,1.9-3.2,1.4-4.8c-0.3-1.1-1.2-1.8-2.4-2.1c-1.6-0.3-3.3,0.3-4.1,1.6c-0.4,0.6-0.9,2.6-0.5,3.5c0.1,0.3,0.3,0.4,0.4,0.4
			c1.2,0.4,2,1.4,2.1,2.8c0.1,1.5-0.8,2.9-2.1,3.3C19.5,17.8,18.7,18,18.1,18z"/>
	</g>
</g>
<path id="XMLID_114_" class="st0" d="M15.4,20.7C15.4,20.7,15.4,20.7,15.4,20.7c0-1.9,0-7.6,0-9l0-0.3c0-0.6-0.2-1.1-0.6-1.5
	c-0.4-0.4-0.9-0.6-1.4-0.6c-0.3,0-0.5,0-0.8,0.1V8.3c0-0.6-0.2-1.1-0.6-1.5c-0.4-0.4-0.9-0.6-1.5-0.6c-0.3,0-0.5,0-0.7,0.1V6.3
	c0-0.6-0.2-1.1-0.6-1.5C8.8,4.5,8.3,4.3,7.8,4.3c-1.1,0-2.1,0.9-2.1,2v0.1C5.5,6.3,5.2,6.3,4.9,6.3c-1.1,0-2.1,0.9-2.1,2v3.5
	c-0.2-0.1-0.5-0.1-0.8-0.1C1,11.7,0,12.6,0,13.7v0.2c0,0.9,0,5,0,6.8c0,0,0,0.1,0,0.1c0,4.2,3.5,7.6,7.7,7.6c2,0,4-0.8,5.4-2.2
	C14.6,24.7,15.4,22.8,15.4,20.7C15.4,20.7,15.4,20.7,15.4,20.7z M7.8,27.1c-3.5,0-6.4-2.9-6.4-6.4c0,0,0,0,0-0.1c0-2,0-6.2,0-6.9
	v-0.1c0-0.4,0.3-0.8,0.8-0.8c0.4,0,0.8,0.3,0.8,0.8v5.8c0,0.4,0.3,0.7,0.6,0.7c1,0,1.9,0.4,2.6,1.1c0.7,0.7,1,1.6,1,2.6
	c0,0.4,0.3,0.6,0.6,0.7c0.4,0,0.7-0.3,0.7-0.6c0-1.3-0.5-2.6-1.4-3.5c-0.8-0.8-1.8-1.3-2.8-1.4V8.3c0-0.4,0.4-0.8,0.8-0.8
	c0.4,0,0.7,0.3,0.8,0.8v7.5c0,0.4,0.3,0.7,0.7,0.7c0.4,0,0.7-0.3,0.7-0.7V6.3c0-0.4,0.3-0.8,0.8-0.8c0.2,0,0.4,0.1,0.5,0.2
	c0.1,0.1,0.2,0.3,0.2,0.5v9.5c0,0.4,0.3,0.7,0.7,0.7c0.4,0,0.7-0.3,0.7-0.7V8.3c0-0.4,0.3-0.8,0.8-0.8c0.2,0,0.4,0.1,0.5,0.2
	c0.1,0.1,0.2,0.3,0.2,0.5v7.5c0,0.4,0.3,0.7,0.7,0.7c0.4,0,0.7-0.3,0.7-0.7v-4.4c0-0.4,0.3-0.8,0.8-0.8c0.2,0,0.4,0.1,0.5,0.2
	c0.1,0.1,0.2,0.3,0.2,0.6v0.1c0,1,0,7.3,0,9.2c0,0,0,0.1,0,0.1C14,24.3,11.2,27.1,7.8,27.1z"/>
</svg>
