<svg id="icon_public2" xmlns="http://www.w3.org/2000/svg" width="34.821" height="20.833" viewBox="0 0 34.821 20.833">
  <path id="Path_12" data-name="Path 12" d="M14.99,41.148c.227-2.576-.152-4.47-1.136-5.606a3.744,3.744,0,0,0-1.818-1.136,9.169,9.169,0,0,0-2.727-.53H8.93v2.8c0,.152-.076.227-.152.227H8.7a.278.278,0,0,1-.227-.076l-5-5a.379.379,0,0,1,0-.455l5-5a.235.235,0,0,1,.152-.076h.152c.152.076.152.152.152.227v2.879h.3c2.576.152,4.47.833,5.606,2.045a6.409,6.409,0,0,1,1.591,4.7,7.554,7.554,0,0,1-.152,1.212,6.4,6.4,0,0,1-.379,1.288c-.152.379-.3.833-.455,1.212s-.3.682-.379.833Z" transform="translate(-3.4 -21.362)" fill="#47c5e5"/>
  <g id="Group_20" data-name="Group 20" transform="translate(13.988 0)">
    <g id="Group_14" data-name="Group 14">
      <path id="Path_13" data-name="Path 13" d="M31.217,42.733A10.417,10.417,0,1,1,41.633,32.317,10.455,10.455,0,0,1,31.217,42.733Zm0-19.918a9.5,9.5,0,1,0,9.5,9.5A9.477,9.477,0,0,0,31.217,22.816Z" transform="translate(-20.8 -21.9)" fill="#42cef2"/>
    </g>
    <g id="Group_15" data-name="Group 15" transform="translate(4.579 0.114)">
      <path id="Path_14" data-name="Path 14" d="M29.035,42.49A13.675,13.675,0,0,1,24.8,32.531,13.35,13.35,0,0,1,29.837,22l.572.687a12.71,12.71,0,0,0-4.693,9.844A12.384,12.384,0,0,0,29.722,41.8Z" transform="translate(-24.8 -22)" fill="#42cef2"/>
    </g>
    <g id="Group_16" data-name="Group 16" transform="translate(10.531 0.114)">
      <path id="Path_15" data-name="Path 15" d="M31.374,42.49l-.687-.687A12.7,12.7,0,0,0,30,22.687L30.572,22a13.668,13.668,0,0,1,.8,20.49Z" transform="translate(-30 -22)" fill="#42cef2"/>
    </g>
    <g id="Group_17" data-name="Group 17" transform="translate(9.615 0.458)">
      <rect id="Rectangle_18" data-name="Rectangle 18" width="0.916" height="19.803" fill="#42cef2"/>
    </g>
    <g id="Group_18" data-name="Group 18" transform="translate(1.603 5.266)">
      <rect id="Rectangle_19" data-name="Rectangle 19" width="17.743" height="0.916" fill="#42cef2"/>
    </g>
    <g id="Group_19" data-name="Group 19" transform="translate(1.603 14.194)">
      <rect id="Rectangle_20" data-name="Rectangle 20" width="17.743" height="0.916" fill="#42cef2"/>
    </g>
  </g>
</svg>
