<?xml version="1.0" encoding="utf-8"?>
<!-- Generator: Adobe Illustrator 19.0.0, SVG Export Plug-In . SVG Version: 6.00 Build 0)  -->
<svg version="1.1" id="Layer_1" xmlns="http://www.w3.org/2000/svg" xmlns:xlink="http://www.w3.org/1999/xlink" x="0px" y="0px"
	 viewBox="0 0 30 30" style="enable-background:new 0 0 30 30;" xml:space="preserve">
<style type="text/css">
	.st0{fill:#45C4E4;}
</style>
<path id="XMLID_9_" class="st0" d="M20.6,25.6c-0.1,0-0.1,0-0.2,0l-0.1,0l-0.2,0c-0.1,0-0.2,0-0.3,0c-0.1,0-0.1,0-0.2,0
	c-0.1,0-0.1,0-0.2,0c-0.1,0-0.1,0-0.1,0c0,0-0.1,0-0.1,0c0,0-0.1,0-0.1,0c-0.8-0.1-1.5-0.2-2.3-0.4V23c0.7,0.8,1.5,1.3,2.4,1.6
	l0.2,0.1v-5.4h-0.8c0.2-0.2,0.3-0.5,0.4-0.8h0.4v-6.6h-1.3L17.9,11h1.5v-5l-0.2,0.1c-0.2,0.1-0.4,0.1-0.5,0.2
	c-0.7,0.2-1.3,0.4-1.9,1c0-0.2-0.1-0.3-0.1-0.5l0,0l-0.2-0.3c0,0,0,0,0,0c-0.1-0.2-0.3-0.5-0.6-0.6c1-0.4,2.1-0.7,3.1-0.7
	c0.1,0,0.1,0,0.2,0c0,0,0.1,0,0.1,0c0,0,0.1,0,0.1,0c0.1,0,0.1,0,0.2,0c0.1,0,0.1,0,0.2,0c0.1,0,0.2,0,0.3,0l0.2,0l0.1,0
	c0.1,0,0.1,0,0.2,0c0.1,0,0.1,0,0.2,0c3.7,0.4,7,2.7,8.5,6.1c0.6,1.3,0.9,2.7,0.9,4.1c0,1.2-0.2,2.4-0.6,3.5c0,0,0,0.1,0,0.1
	c-1.4,3.6-4.8,6.2-8.6,6.6C20.7,25.6,20.6,25.6,20.6,25.6z M20.2,24.7l0.2-0.1c2-0.6,3.7-2.5,4.5-5.2l0.1-0.2h-4.8V24.7z M25.8,19.3
	c-0.5,1.8-1.4,3.4-2.6,4.5l0.2,0.3c2.2-0.9,3.9-2.5,4.9-4.6l0.1-0.2h-2.6L25.8,19.3z M26,12c0.3,1.1,0.4,2.2,0.4,3.4
	c0,1-0.1,1.9-0.3,2.9l0,0.2h2.7l0-0.1c0.3-1,0.5-2,0.5-3c0-1.2-0.2-2.3-0.7-3.4l0-0.1h-2.7L26,12z M20.2,18.4h5l0-0.1
	c0.2-1,0.3-1.9,0.3-2.9c0-1.2-0.1-2.3-0.4-3.4l0-0.1h-4.9V18.4z M23.2,6.9c1,1,1.9,2.4,2.4,4l0,0.1h2.5l-0.1-0.2
	c-1-1.9-2.7-3.3-4.7-4.2L23.2,6.9z M20.2,11h4.6l-0.1-0.2c-0.9-2.5-2.5-4.2-4.4-4.7L20.2,6V11z"/>
<g id="Megaphone_3_1_">
	<g id="XMLID_66_">
		<path id="XMLID_67_" d="M16.2,13.6V9.1c0-0.7-0.5-1.2-1.2-1.2c-0.7,0-1.2,0.5-1.2,1.2v0.3L2,13.3c-0.1-0.1-0.2-0.1-0.4-0.1H0.8
			C0.4,13.2,0,13.5,0,14V18c0,0.4,0.4,0.8,0.8,0.8h0.8c0.1,0,0.3,0,0.4-0.1l1.9,0.6l-0.2,0.5c-0.3,0.9,0.2,1.8,1.1,2L9,23.2
			c0.9,0.3,1.8-0.2,2-1.1l0.1-0.5l2.6,0.8v0.3c0,0.7,0.5,1.2,1.2,1.2c0.7,0,1.2-0.5,1.2-1.2v-4.5c0.9,0,1.6-0.7,1.6-1.6v-1.6
			C17.8,14.3,17.1,13.6,16.2,13.6z M1.6,18H0.8V14h0.8V18z M10.3,21.9c-0.1,0.4-0.6,0.7-1,0.5L5,21.1c-0.4-0.1-0.7-0.6-0.5-1
			l0.2-0.5l5.8,1.9L10.3,21.9z M13.8,21.7L2.4,18c0,0,0,0,0,0V14c0,0,0,0,0,0l11.3-3.7V21.7z M15.4,22.9c0,0.2-0.2,0.4-0.4,0.4
			s-0.4-0.2-0.4-0.4V9.1c0-0.2,0.2-0.4,0.4-0.4s0.4,0.2,0.4,0.4V22.9z M17,16.8c0,0.4-0.4,0.8-0.8,0.8v-3.2c0.4,0,0.8,0.4,0.8,0.8
			V16.8z"/>
	</g>
</g>
</svg>
