<?xml version="1.0" encoding="utf-8"?>
<!-- Generator: Adobe Illustrator 19.0.0, SVG Export Plug-In . SVG Version: 6.00 Build 0)  -->
<svg version="1.1" id="Layer_1" xmlns="http://www.w3.org/2000/svg" xmlns:xlink="http://www.w3.org/1999/xlink" x="0px" y="0px"
	 viewBox="1 10 55.6 41.3" style="enable-background:new 1 10 55.6 41.3;" xml:space="preserve">
<style type="text/css">
	.st0{fill:#010101;}
	.st1{fill:#46C3E4;}
	.st2{fill:#FFFFFF;}
</style>
<path id="XMLID_25_" class="st0" d="M25.7,30.6c0-0.1,0-0.1,0-0.3c-0.3-0.1-0.6-0.3-0.9-0.4h-0.1v-2.3l0,0c0.3-0.4,0.6-0.9,0.6-1.4
	v-3c0-1.9-1.4-3.3-3.3-3.3h-0.6c-1.9-0.1-3.3,1.3-3.3,3.1v3c0,0.6,0.1,1,0.6,1.4l0,0v2.3h-0.1c-0.9,0.4-2.4,1.4-4,2.6
	c-0.4,0.6-0.7,1.1-0.7,1.7v2c0,0.4,0.3,0.6,0.6,0.6c0.3,0,0.6-0.3,0.6-0.6v-2c0-0.3,0.1-0.4,0.3-0.7c1.7-1.4,3.4-2.3,4.1-2.7
	c0.3-0.1,0.4-0.4,0.4-0.7V27c0-0.1-0.1-0.4-0.3-0.4c-0.3-0.1-0.3-0.4-0.3-0.6v-3c0-1.1,1-2.1,2.1-2.1h0.7c1.1,0,2.1,1,2.1,2.1v3
	c0,0.3-0.1,0.4-0.3,0.6c-0.1,0.1-0.3,0.3-0.3,0.4v2.9c0,0.3,0.1,0.6,0.4,0.7c0.3,0.1,0.9,0.4,1.7,1v-1H25.7z"/>
<path id="XMLID_24_" class="st0" d="M44.6,30.6c0-0.1,0-0.1,0-0.3c0.3-0.1,0.6-0.3,0.9-0.4h0.1v-2.3l0,0c-0.3-0.4-0.6-0.9-0.6-1.4
	v-3c0-1.9,1.4-3.3,3.3-3.3H49c1.9,0,3.3,1.4,3.3,3.3v3c0,0.6-0.1,1-0.6,1.4l0,0v2.3h0.1c0.9,0.4,2.4,1.4,4,2.6
	c0.4,0.4,0.7,1,0.7,1.6v2c0,0.3-0.3,0.6-0.6,0.6c-0.3,0-0.6-0.3-0.6-0.6v-2c0-0.3-0.1-0.4-0.3-0.7c-1.7-1.4-3.4-2.3-4.1-2.7
	c-0.3-0.1-0.4-0.4-0.4-0.7V27c0-0.1,0.1-0.4,0.3-0.4c0.3-0.1,0.3-0.4,0.3-0.6v-3c0-1.1-1-2.1-2.1-2.1h-0.7c-1.1,0-2.1,1-2.1,2.1v3
	c0,0.3,0.1,0.4,0.3,0.6c0.1,0.1,0.3,0.3,0.3,0.4v2.9c0,0.3-0.1,0.6-0.4,0.7c-0.3,0.1-0.9,0.4-1.7,1C44.6,31.6,44.6,30.6,44.6,30.6z"
	/>
<path id="XMLID_23_" class="st0" d="M32.1,20.2c-0.9,0.4-2.4,1.4-4,2.6c-0.1,0.1-0.3,0.3-0.4,0.4c0.6,0,1.1,0,1.7,0
	c1.4-1.1,3-2,3.6-2.3c0.3-0.1,0.4-0.4,0.4-0.7v-2.9c0-0.1-0.1-0.4-0.3-0.4c-0.3-0.1-0.3-0.4-0.3-0.6v-3c0-1.1,1-2.1,2.1-2.1h0.7
	c1.1,0,2.1,1,2.1,2.1v3c0,0.3-0.1,0.4-0.3,0.6c-0.1,0.1-0.3,0.3-0.3,0.4v2.9c0,0.3,0.1,0.6,0.4,0.7c0.3,0.1,1.9,1,3.6,2.1
	c0.6,0,1.1,0,1.7,0c-0.1-0.1-0.3-0.3-0.4-0.4c-1.6-1.3-3.1-2.1-4-2.6h-0.1v-2.3l0,0c0.4-0.4,0.6-0.9,0.6-1.4v-3
	c0-1.9-1.4-3.3-3.3-3.3h-0.7c-1.9,0-3.3,1.4-3.3,3.3v3c0,0.6,0.1,1,0.6,1.4l0,0L32.1,20.2L32.1,20.2z"/>
<g id="XMLID_14_">
	<g id="XMLID_21_">
		<path class="st0" d="M33.9,43c-0.1-0.1-0.2-0.2-0.2-0.5v-3.1l-0.2,0c-4-0.7-6.9-4.2-6.9-8.4c0-4.7,3.8-8.6,8.6-8.6
			c4.7,0,8.6,3.8,8.6,8.6c0,2.6-1.2,5.1-3.3,6.8c-1.7,1.3-3.4,2.8-5.7,5.1c-0.1,0-0.2,0-0.3,0.1c-0.1,0-0.2,0.1-0.3,0.1H33.9z
			 M35.1,23.5c-4.1,0-7.4,3.3-7.4,7.4c0,3.9,2.9,7.1,6.7,7.4c0.3,0,0.5,0.3,0.5,0.6V41l0.4-0.4c1.5-1.4,3-2.7,4.4-3.8
			c1.8-1.5,2.8-3.6,2.8-5.9c0.1-1.9-0.6-3.7-2-5.1C39.1,24.3,37.1,23.5,35.1,23.5z"/>
	</g>
	<g id="XMLID_18_">
		<line id="XMLID_20_" class="st0" x1="31.9" y1="29.1" x2="38.3" y2="29.1"/>
		<rect x="31.9" y="28.9" class="st0" width="6.4" height="0.5"/>
		<path class="st0" d="M32.1,29.7c-0.3,0-0.6-0.3-0.6-0.6c0-0.3,0.3-0.6,0.6-0.6h6.3c0.3,0,0.6,0.3,0.6,0.6
			c-0.2,0.6-0.5,0.6-0.6,0.6H32.1z"/>
	</g>
	<g id="XMLID_15_">
		<line id="XMLID_17_" class="st0" x1="31.9" y1="32.7" x2="38.3" y2="32.7"/>
		<rect x="31.9" y="32.4" class="st0" width="6.4" height="0.5"/>
		<path class="st0" d="M32.1,33.1c-0.3,0-0.6-0.3-0.6-0.6s0.3-0.6,0.6-0.6h6.3c0.3,0,0.6,0.3,0.6,0.6s-0.3,0.6-0.6,0.6H32.1z"/>
	</g>
</g>
<g>
	<g>
		<path class="st1" d="M13.5,30.7V24L1.7,35.7l11.7,11.7v-6.9c8.4,0,14.3,2.7,18.5,8.6C30.3,40.7,25.2,32.3,13.5,30.7L13.5,30.7z
			 M13.5,30.7"/>
		<path class="st2" d="M32.9,51.3l-1.4-1.9c-4-5.6-9.6-8.2-17.6-8.3v7.6L1,35.7l12.9-13v7.5c9.8,1.6,16.3,8.2,18.4,18.8L32.9,51.3z
			 M13,40.1h0.5c7.7,0,13.3,2.2,17.5,7c-1.9-6.8-6.5-14.3-17.5-15.9L13,31.1v-5.9L2.4,35.7L13,46.2V40.1z"/>
	</g>
</g>
</svg>
