<?xml version="1.0" encoding="utf-8"?>
<!-- Generator: Adobe Illustrator 19.0.0, SVG Export Plug-In . SVG Version: 6.00 Build 0)  -->
<svg version="1.1" id="Layer_1" xmlns="http://www.w3.org/2000/svg" xmlns:xlink="http://www.w3.org/1999/xlink" x="0px" y="0px"
	 viewBox="32.1 -12.3 55.8 39.8" style="enable-background:new 32.1 -12.3 55.8 39.8;" xml:space="preserve">
<style type="text/css">
	.st0{fill:#46C3E4;}
	.st1{fill:#FFFFFF;}
</style>
<g id="XMLID_31_">
	<g id="XMLID_34_">
		<path id="XMLID_35_" d="M75.9,14.7c-0.7,0-1.3-0.1-2-0.5c-1.6-0.8-2.6-2.4-2.8-4.2c0-0.4,0.2-0.6,0.6-0.6c0.4,0,0.6,0.2,0.6,0.6
			c0.1,1.3,0.8,2.5,2,3.1c1.1,0.6,2.3,0.5,3.4-0.2c1.4-1,2-2.6,2.8-4.5c0.4-1.1,0.8-2.3,1.4-3.3c0.5-0.7,1.1-1.4,1.6-2.2
			c1.7-2.2,3.3-4.2,3.1-7.1s-1.9-5.4-4.5-6.5c-2.5-1.1-5.9-0.7-8.3,1.1C72.8-8.6,71-6.8,71.4-4c0,0.4-0.2,0.6-0.5,0.7
			c-0.4,0-0.6-0.2-0.7-0.5c-0.4-2.5,0.7-4.8,3-6.5c2.8-2,6.5-2.5,9.5-1.2c3,1,4.9,4,5.2,7.2c0.2,3.4-1.6,5.7-3.4,7.9
			c-0.5,0.7-1.1,1.3-1.6,2c-0.6,0.8-1,1.9-1.3,3c-0.7,1.9-1.4,3.9-3.1,5.1C77.6,14.4,76.8,14.7,75.9,14.7z"/>
	</g>
	<g id="XMLID_32_">
		<path id="XMLID_33_" d="M73.5,6.6c-0.4,0-0.6,0-0.7-0.2l-0.2-0.2l0.1-0.2V2.3c0-0.4,0.2-0.6,0.6-0.6c0.4,0,0.6,0.2,0.6,0.6v3
			c0.4,0,0.8-0.1,1-0.1c1.2-0.5,1.7-1.8,1.7-2.9s-0.6-2-1.7-2.3c-0.4-0.1-1-0.4-1.2-1.2c-0.6-1.7,0.2-4.5,0.7-5.3
			c1.2-2,3.7-3,6.3-2.5c1.9,0.4,3.4,1.6,3.9,3.4c0.6,2.2-0.1,5.1-2,6.9c-0.2,0.2-0.6,0.2-0.8,0c-0.2-0.2-0.2-0.6,0-0.8
			c1.6-1.6,2.3-3.9,1.7-5.8c-0.4-1.3-1.4-2.2-2.9-2.5c-1.9-0.4-4,0.4-4.9,1.9c-0.5,0.7-1.1,3.1-0.6,4.2c0.1,0.4,0.4,0.5,0.5,0.5
			c1.4,0.5,2.4,1.7,2.5,3.4c0.1,1.8-1,3.5-2.5,4C75.2,6.3,74.2,6.6,73.5,6.6z"/>
	</g>
</g>
<path d="M61.5,19.7c-5,0-9-4-9-8.9V2.3c0-1.2,1.1-2.1,2.1-2.1c0.3,0,0.7,0,0.8,0.1l0.4,0.2v-4.7c0-1.1,1-2.1,2.2-2.1
	c0.3,0,0.7,0,0.8,0.1L59.4-6v-0.5c0-1.3,1-2.2,2.2-2.2c0.5,0,1.1,0.2,1.5,0.5c0.4,0.4,0.6,0.9,0.6,1.6v0.5l0.4-0.2
	c0.2-0.1,0.4-0.1,0.7-0.1c0.6,0,1.2,0.2,1.6,0.6c0.4,0.4,0.6,1,0.6,1.6v1.7l0.4-0.1c0.3-0.1,0.5-0.1,0.9-0.1c0.5,0,1.1,0.2,1.5,0.6
	c0.4,0.4,0.6,1,0.6,1.6v11.2c0,2.4-0.9,4.7-2.7,6.4C66.2,18.8,63.8,19.7,61.5,19.7z M54.4,1.1c-0.8,0-1.2,0.6-1.2,1.2v8.4
	c0,4.5,3.6,8.1,8,8.1c4.1,0,7.7-3.3,8.5-7.9l0-11.2c0-0.5-0.1-0.8-0.3-1c-0.2-0.2-0.5-0.3-0.8-0.3c-0.8,0-1.2,0.6-1.2,1.2v5.3
	c0,0.3-0.2,0.6-0.6,0.6s-0.6-0.2-0.6-0.6v-9c0-0.3-0.2-0.6-0.3-0.8c-0.2-0.2-0.5-0.3-0.8-0.3c-0.8,0-1.2,0.6-1.2,1.2v8.9
	c0,0.3-0.2,0.6-0.6,0.6c-0.3,0-0.6-0.2-0.6-0.6V-6.6c0-0.3-0.2-0.6-0.3-0.8c-0.2-0.2-0.5-0.3-0.8-0.3c-0.8,0-1.2,0.6-1.2,1.2V5
	c0,0.3-0.2,0.6-0.6,0.6c-0.3,0-0.6-0.2-0.6-0.6v-9c-0.2-0.8-0.6-1.2-1.2-1.2c-0.6,0-1.2,0.6-1.2,1.2V9.1l0.3,0
	c1.1,0.1,2.3,0.7,3.2,1.6c1,1,1.6,2.5,1.6,4c0,0.2-0.2,0.4-0.6,0.4c-0.4-0.1-0.4-0.4-0.4-0.6c0-1.4-0.4-2.5-1.3-3.3
	c-0.9-0.9-2.1-1.4-3.3-1.4c-0.2,0-0.4-0.2-0.4-0.6v-7C55.7,1.5,55.1,1.1,54.4,1.1z"/>
<path d="M61.5,19.6c-4.9,0-8.8-3.9-8.8-8.7V2.3c0-1.1,1-2,2-2c0.3,0,0.6,0,0.8,0.1L56,0.7v-4.9c0-1.1,1-2,2.1-2c0.3,0,0.6,0,0.8,0.1
	l0.6,0.3v-0.7c0-1.2,1-2.1,2.1-2.1c0.5,0,1,0.2,1.4,0.5c0.4,0.4,0.6,0.9,0.6,1.5v0.7l0.6-0.3c0.1-0.1,0.3-0.1,0.7-0.1
	c0.6,0,1.1,0.2,1.5,0.6C66.8-5.3,67-4.8,67-4.2v1.9l0.6-0.2c0.3-0.1,0.5-0.1,0.8-0.1c0.5,0,1,0.2,1.4,0.6c0.4,0.4,0.6,0.9,0.6,1.5
	v11.2c0,2.4-0.9,4.6-2.6,6.3C66.1,18.7,63.8,19.6,61.5,19.6z M54.4,0.9c-0.9,0-1.4,0.7-1.4,1.4v8.4c0,4.6,3.6,8.3,8.1,8.3
	c4.2,0,7.8-3.4,8.6-8.1l0,0V-0.3c0-0.5-0.1-0.9-0.4-1.1c-0.2-0.2-0.5-0.4-0.9-0.4c-0.9,0-1.4,0.7-1.4,1.4v5.3c0,0.2-0.2,0.4-0.4,0.4
	c-0.2,0-0.4-0.2-0.4-0.4v-9c0-0.4-0.2-0.7-0.4-0.9c-0.2-0.2-0.5-0.4-0.9-0.4c-0.9,0-1.4,0.7-1.4,1.4v8.9c0,0.2-0.2,0.4-0.4,0.4
	s-0.4-0.2-0.4-0.4V-6.6c0-0.3-0.1-0.7-0.4-0.9c-0.2-0.2-0.5-0.4-0.9-0.4c-0.9,0-1.4,0.7-1.4,1.4V5c0,0.2-0.2,0.4-0.4,0.4
	c-0.2,0-0.4-0.2-0.4-0.4v-9c-0.2-0.9-0.7-1.4-1.4-1.4c-0.7,0-1.4,0.7-1.4,1.4V9.2l0.4,0c1.1,0.1,2.2,0.7,3.1,1.6
	c1,1,1.6,2.4,1.6,3.9c0,0.1-0.2,0.3-0.4,0.3c-0.3-0.1-0.3-0.3-0.3-0.4c0-1.4-0.4-2.5-1.3-3.4c-0.9-0.9-2.1-1.5-3.4-1.5
	c-0.1,0-0.3-0.2-0.3-0.4v-7C55.8,1.5,55.1,0.9,54.4,0.9z"/>
<g>
	<g>
		<path class="st0" d="M44.5,6.9V0.2L32.8,12l11.7,11.7v-6.9c8.4,0,14.3,2.7,18.5,8.6C61.3,17,56.3,8.6,44.5,6.9L44.5,6.9z
			 M44.5,6.9"/>
		<path class="st1" d="M63.9,27.6l-1.4-1.9c-4-5.6-9.6-8.2-17.5-8.3v7.6L32.1,12L45-1v7.5c9.8,1.6,16.3,8.2,18.4,18.8L63.9,27.6z
			 M44,16.3h0.5c7.7,0,13.3,2.2,17.5,7C60.1,16.5,55.5,9,44.4,7.4L44,7.4V1.4L33.5,12L44,22.5V16.3z"/>
	</g>
</g>
</svg>
