<?xml version="1.0" encoding="utf-8"?>
<!-- Generator: Adobe Illustrator 19.0.0, SVG Export Plug-In . SVG Version: 6.00 Build 0)  -->
<svg version="1.1" id="Layer_1" xmlns="http://www.w3.org/2000/svg" xmlns:xlink="http://www.w3.org/1999/xlink" x="0px" y="0px"
	 viewBox="32.1 -12.3 39.1 41.8" style="enable-background:new 32.1 -12.3 39.1 41.8;" xml:space="preserve">
<style type="text/css">
	.st0{fill:#47C5E5;}
	.st1{fill:#010101;}
</style>
<path class="st0" d="M47.4,22.5c0.3-3.4-0.2-5.9-1.5-7.4c-0.6-0.7-1.4-1.2-2.4-1.5c-1-0.4-2.2-0.6-3.6-0.7l-0.5,0v3.7
	c0,0.2-0.1,0.3-0.2,0.3c0,0-0.1,0-0.1,0c-0.1,0-0.2,0-0.3-0.1l-6.6-6.6c-0.1-0.1-0.1-0.2-0.1-0.3s0-0.2,0.1-0.3l6.6-6.6
	C38.9,3,39,3,39,3c0.1,0,0.1,0,0.2,0c0.2,0.1,0.2,0.2,0.2,0.3v3.8l0.4,0c3.4,0.2,5.9,1.1,7.4,2.7c1.4,1.4,2.1,3.5,2.1,6.2
	c0,0.5-0.1,1-0.2,1.6c-0.1,0.6-0.3,1.2-0.5,1.7c-0.2,0.5-0.4,1.1-0.6,1.6c-0.2,0.5-0.4,0.9-0.5,1.1L47.4,22.5z"/>
<path class="st1" d="M66.9,8.6c-1.1-0.8-2.2-1.6-3.1-2.1c0,0,0,0,0-0.1C63.5,6.3,63.2,6.2,63,6h0h-0.1V3.8c0-0.1,0.1-0.1,0.1-0.2
	c0.2-0.2,0.3-0.5,0.4-0.8c0-0.2,0.1-0.3,0.1-0.5v-3c0-1.9-1.4-3.3-3.3-3.3h0h-0.7h0c-1.9,0-3.3,1.4-3.3,3.3v3c0,0.2,0,0.3,0.1,0.5
	c0.1,0.3,0.2,0.5,0.4,0.8c0,0.1,0.1,0.1,0.1,0.2V6h-0.1h0c-0.3,0.1-0.6,0.3-0.9,0.4c0,0,0,0,0,0.1c-0.9,0.5-2,1.3-3.1,2.1
	c-0.4,0.4-0.7,1-0.7,1.6v4c0,0.3,0.3,0.6,0.6,0.6c0.3,0,0.6-0.3,0.6-0.6v-4c0-0.3,0.1-0.4,0.3-0.7C55,8,56.7,7.2,57.4,6.8
	c0.3-0.1,0.4-0.4,0.4-0.7V3.2c0-0.1-0.1-0.4-0.3-0.4c0,0-0.1,0-0.1-0.1c0,0-0.1-0.1-0.1-0.1c0,0,0,0,0,0c0-0.1,0-0.1-0.1-0.2
	c0,0,0-0.1,0-0.1v-3c0-1.1,1-2.1,2.1-2.1h0.7c1.1,0,2.1,1,2.1,2.1v3c0,0,0,0.1,0,0.1c0,0.1,0,0.1-0.1,0.2c0,0,0,0,0,0
	c0,0.1-0.1,0.1-0.1,0.1c0,0,0,0-0.1,0.1c-0.1,0-0.3,0.3-0.3,0.4V6c0,0.3,0.1,0.6,0.4,0.7c0.7,0.4,2.4,1.3,4.1,2.7
	c0.1,0.3,0.3,0.4,0.3,0.7v4c0,0.3,0.3,0.6,0.6,0.6c0.3,0,0.6-0.3,0.6-0.6v-4C67.6,9.6,67.3,9,66.9,8.6z"/>
</svg>
