<?xml version="1.0" encoding="utf-8"?>
<!-- Generator: Adobe Illustrator 19.0.0, SVG Export Plug-In . SVG Version: 6.00 Build 0)  -->
<svg version="1.1" id="Layer_1" xmlns="http://www.w3.org/2000/svg" xmlns:xlink="http://www.w3.org/1999/xlink" x="0px" y="0px"
	 viewBox="0 0 30 30" style="enable-background:new 0 0 30 30;" xml:space="preserve">
<style type="text/css">
	.st0{fill:#010101;}
	.st1{fill:#45C4E4;}
	.st2{fill:#FFFFFF;}
</style>
<path id="XMLID_118_" class="st0" d="M8.3,16.8c0-0.1,0-0.1,0-0.2c-0.2-0.1-0.4-0.2-0.6-0.3l-0.1,0v-1.6l0,0c0.2-0.3,0.4-0.6,0.4-1
	v-2.1c0-1.3-1-2.3-2.3-2.3H5.3C4,9.2,3,10.2,3,11.5v2.1c0,0.4,0.1,0.7,0.4,1l0,0v1.6l-0.1,0c-0.6,0.3-1.7,1-2.8,1.8
	C0.2,18.4,0,18.8,0,19.2v1.4C0,20.9,0.2,21,0.4,21s0.4-0.2,0.4-0.4v-1.4c0-0.2,0.1-0.3,0.2-0.5c1.2-1,2.4-1.6,2.9-1.9
	c0.2-0.1,0.3-0.3,0.3-0.5v-2c0-0.1-0.1-0.3-0.2-0.3c-0.2-0.1-0.2-0.3-0.2-0.4v-2.1c0-0.8,0.7-1.5,1.5-1.5h0.5c0.8,0,1.5,0.7,1.5,1.5
	v2.1c0,0.2-0.1,0.3-0.2,0.4c-0.1,0.1-0.2,0.2-0.2,0.3v2c0,0.2,0.1,0.4,0.3,0.5c0.2,0.1,0.6,0.3,1.2,0.7V16.8z"/>
<path id="XMLID_113_" class="st0" d="M21.6,16.8c0-0.1,0-0.1,0-0.2c0.2-0.1,0.4-0.2,0.6-0.3l0.1,0v-1.6l0,0c-0.2-0.3-0.4-0.6-0.4-1
	v-2.1c0-1.3,1-2.3,2.3-2.3h0.5c1.3,0,2.3,1,2.3,2.3v2.1c0,0.4-0.1,0.7-0.4,1l0,0v1.6l0.1,0c0.6,0.3,1.7,1,2.8,1.8
	c0.3,0.3,0.5,0.7,0.5,1.1v1.4c0,0.2-0.2,0.4-0.4,0.4c-0.2,0-0.4-0.2-0.4-0.4v-1.4c0-0.2-0.1-0.3-0.2-0.5c-1.2-1-2.4-1.6-2.9-1.9
	c-0.2-0.1-0.3-0.3-0.3-0.5v-2c0-0.1,0.1-0.3,0.2-0.3c0.2-0.1,0.2-0.3,0.2-0.4v-2.1c0-0.8-0.7-1.5-1.5-1.5h-0.5
	c-0.8,0-1.5,0.7-1.5,1.5v2.1c0,0.2,0.1,0.3,0.2,0.4c0.1,0.1,0.2,0.2,0.2,0.3v2c0,0.2-0.1,0.4-0.3,0.5c-0.2,0.1-0.6,0.3-1.2,0.7V16.8
	z"/>
<path id="XMLID_112_" class="st0" d="M12.8,9.5c-0.6,0.3-1.7,1-2.8,1.8c-0.1,0.1-0.2,0.2-0.3,0.3c0.4,0,0.8,0,1.2,0
	c1-0.8,2.1-1.4,2.5-1.6c0.2-0.1,0.3-0.3,0.3-0.5v-2c0-0.1-0.1-0.3-0.2-0.3c-0.2-0.1-0.2-0.3-0.2-0.4V4.7c0-0.8,0.7-1.5,1.5-1.5h0.5
	c0.8,0,1.5,0.7,1.5,1.5v2.1c0,0.2-0.1,0.3-0.2,0.4c-0.1,0.1-0.2,0.2-0.2,0.3v2c0,0.2,0.1,0.4,0.3,0.5c0.2,0.1,1.3,0.7,2.5,1.5
	c0.4,0,0.8,0,1.2,0c-0.1-0.1-0.2-0.2-0.3-0.3c-1.1-0.9-2.2-1.5-2.8-1.8l-0.1,0V7.8l0,0c0.3-0.3,0.4-0.6,0.4-1V4.7
	c0-1.3-1-2.3-2.3-2.3h-0.5c-1.3,0-2.3,1-2.3,2.3v2.1c0,0.4,0.1,0.7,0.4,1l0,0L12.8,9.5L12.8,9.5z"/>
<g id="XMLID_100_">
	<g id="XMLID_111_">
		<path id="XMLID_6_" class="st1" d="M14.3,25.7c-0.1,0-0.1,0-0.2,0c-0.2-0.1-0.3-0.3-0.3-0.5l0-2c-2.9-0.5-5-3.1-5-6.1
			c0-3.4,2.8-6.2,6.2-6.2s6.2,2.8,6.2,6.2c0,1.9-0.9,3.7-2.4,4.9c-1.3,1-2.5,2.1-4,3.6C14.6,25.6,14.5,25.7,14.3,25.7z M14.9,12
			c-2.8,0-5,2.3-5,5c0,2.6,1.9,4.8,4.5,5c0.3,0,0.5,0.3,0.5,0.6l0,1.1c1.1-1,2.1-1.9,3.1-2.7c1.2-1,1.9-2.4,1.9-4
			C20,14.3,17.7,12,14.9,12z"/>
	</g>
	<g id="XMLID_110_">
		<line id="XMLID_3_" class="st2" x1="12.7" y1="15.8" x2="17.2" y2="15.8"/>
		<path id="XMLID_4_" class="st1" d="M17.2,16.4h-4.4c-0.3,0-0.6-0.3-0.6-0.6c0-0.3,0.3-0.6,0.6-0.6h4.4c0.3,0,0.6,0.3,0.6,0.6
			C17.7,16.2,17.5,16.4,17.2,16.4z"/>
	</g>
	<g id="XMLID_109_">
		<line id="XMLID_1_" class="st2" x1="12.7" y1="18.3" x2="17.2" y2="18.3"/>
		<path id="XMLID_2_" class="st1" d="M17.2,18.8h-4.4c-0.3,0-0.6-0.3-0.6-0.6s0.3-0.6,0.6-0.6h4.4c0.3,0,0.6,0.3,0.6,0.6
			S17.5,18.8,17.2,18.8z"/>
	</g>
</g>
</svg>
