<?xml version="1.0" encoding="utf-8"?>
<!-- Generator: Adobe Illustrator 19.0.0, SVG Export Plug-In . SVG Version: 6.00 Build 0)  -->
<svg version="1.1" id="Layer_1" xmlns="http://www.w3.org/2000/svg" xmlns:xlink="http://www.w3.org/1999/xlink" x="0px" y="0px"
	 viewBox="4.4 14.3 49.6 33.7" style="enable-background:new 4.4 14.3 49.6 33.7;" xml:space="preserve">
<style type="text/css">
	.st0{fill:#46C3E4;}
	.st1{fill:#FFFFFF;}
</style>
<path id="XMLID_29_" d="M43.8,36.1c-0.1,0-0.1,0-0.2,0h-0.1h-0.2c-0.1,0-0.2,0-0.3,0c-0.1,0-0.1,0-0.2,0s-0.1,0-0.2,0s-0.1,0-0.1,0
	h-0.1h-0.1c-0.9-0.1-1.6-0.2-2.5-0.4v-2.3c0.7,0.9,1.6,1.4,2.6,1.7l0.2,0.1v-5.8h-0.9c0.2-0.2,0.3-0.5,0.4-0.9h0.4v-7h-1.4l-0.2-1
	h1.6v-5.3l-0.2,0.1c-0.2,0.1-0.4,0.1-0.5,0.2c-0.7,0.2-1.4,0.4-2,1.1c0-0.2-0.1-0.3-0.1-0.5l0,0l-0.2-0.3l0,0
	c-0.1-0.2-0.3-0.5-0.6-0.6c1.1-0.4,2.2-0.7,3.3-0.7c0.1,0,0.1,0,0.2,0h0.1h0.1c0.1,0,0.1,0,0.2,0s0.1,0,0.2,0s0.2,0,0.3,0h0.2h0.1
	c0.1,0,0.1,0,0.2,0s0.1,0,0.2,0c3.9,0.4,7.5,2.9,9.1,6.5c0.6,1.4,1,2.9,1,4.4c0,1.3-0.2,2.6-0.6,3.7V29c-1.5,3.8-5.1,6.6-9.2,7
	C43.9,36.1,43.8,36.1,43.8,36.1z M43.3,35.1l0.2-0.1c2.1-0.6,3.9-2.7,4.8-5.5l0.1-0.2h-5.1V35.1z M49.3,29.4
	c-0.5,1.9-1.5,3.6-2.8,4.8l0.2,0.3c2.3-1,4.2-2.7,5.2-4.9l0.1-0.2L49.3,29.4L49.3,29.4z M49.5,21.6c0.3,1.2,0.4,2.3,0.4,3.6
	c0,1.1-0.1,2-0.3,3.1v0.2h2.9v-0.1c0.3-1.1,0.5-2.1,0.5-3.2c0-1.3-0.2-2.5-0.7-3.6v-0.1h-2.9L49.5,21.6z M43.3,28.4h5.3v-0.1
	c0.2-1.1,0.3-2,0.3-3.1c0-1.3-0.1-2.5-0.4-3.6v-0.1h-5.2V28.4z M46.5,16.1c1.1,1.1,2,2.6,2.6,4.3v0.1h2.7l-0.1-0.2
	c-1.1-2-2.9-3.5-5-4.5L46.5,16.1z M43.3,20.5h4.9l-0.1-0.2c-1-2.7-2.7-4.5-4.7-5l-0.1-0.1V20.5z"/>
<g id="Megaphone_3_3_">
	<g id="XMLID_27_">
		<path id="XMLID_28_" d="M37.9,22.6v-6.4c0-1-0.7-1.7-1.7-1.7s-1.7,0.7-1.7,1.7v0.4l-16.8,5.6c-0.1-0.1-0.3-0.1-0.6-0.1H16
			c-0.6,0-1.1,0.4-1.1,1.1v5.7c0,0.6,0.6,1.1,1.1,1.1h1.1c0.1,0,0.4,0,0.6-0.1l2.7,0.9l-0.3,0.7c-0.4,1.3,0.3,2.6,1.6,2.9l6,2
			c1.3,0.4,2.6-0.3,2.9-1.6l0.1-0.7l3.7,1.1v0.4c0,1,0.7,1.7,1.7,1.7s1.7-0.7,1.7-1.7v-6.4c1.3,0,2.3-1,2.3-2.3v-2.3
			C40.2,23.6,39.2,22.6,37.9,22.6z M17.1,28.9H16v-5.7h1.1V28.9z M29.5,34.5c-0.1,0.6-0.9,1-1.4,0.7l-6.1-1.9
			c-0.6-0.1-1-0.9-0.7-1.4l0.3-0.7l8.3,2.7L29.5,34.5z M34.5,34.2l-16.2-5.3l0,0v-5.7l0,0l16.1-5.3v16.2H34.5z M36.8,35.9
			c0,0.3-0.3,0.6-0.6,0.6c-0.3,0-0.6-0.3-0.6-0.6V16.2c0-0.3,0.3-0.6,0.6-0.6c0.3,0,0.6,0.3,0.6,0.6V35.9z M39,27.2
			c0,0.6-0.6,1.1-1.1,1.1v-4.6c0.6,0,1.1,0.6,1.1,1.1V27.2z"/>
	</g>
</g>
<g>
	<g>
		<path class="st0" d="M16.8,27.3v-6.7L5.1,32.4l11.7,11.7v-6.9c8.4,0,14.3,2.7,18.5,8.6C33.6,37.4,28.6,29,16.8,27.3L16.8,27.3z
			 M16.8,27.3"/>
		<path class="st1" d="M36.2,48l-1.4-1.9c-4-5.6-9.6-8.2-17.6-8.3v7.6L4.4,32.4l12.9-13v7.5c9.8,1.6,16.3,8.2,18.4,18.8L36.2,48z
			 M16.3,36.8h0.5c7.7,0,13.3,2.2,17.5,7c-1.9-6.8-6.5-14.3-17.5-15.9l-0.4-0.1v-5.9L5.8,32.4l10.5,10.5V36.8z"/>
	</g>
</g>
</svg>
