<?xml version="1.0" encoding="utf-8"?>
<!-- Generator: Adobe Illustrator 19.0.0, SVG Export Plug-In . SVG Version: 6.00 Build 0)  -->
<svg version="1.1" id="Layer_1" xmlns="http://www.w3.org/2000/svg" xmlns:xlink="http://www.w3.org/1999/xlink" x="0px" y="0px"
	 width="29.1px" height="23.6px" viewBox="0 0 29.1 23.6" style="enable-background:new 0 0 29.1 23.6;" xml:space="preserve">
<style type="text/css">
	.st0{fill:#FFFFFF;}
</style>
<g id="XMLID_25_">
	<path class="st0" d="M0.9,21.5c-0.6,0-0.9-0.4-0.9-0.9V19c0-0.5,0.2-1,0.7-1.6l0-0.1l0.1,0c1.1-0.8,2.3-1.6,3-1.9v-1.2
		c-0.3-0.4-0.4-0.8-0.4-1.3v-2.3c0-1.6,1.2-2.9,2.8-2.9c0.1,0,0.2,0,0.2,0l0.4,0c1.7,0,3,1.3,3,3V13c0,0.5-0.2,0.9-0.4,1.3v1.3
		l0.8,0.4v0h0.1v2.2l-0.8-0.5c-0.6-0.4-1-0.6-1.3-0.7c-0.4-0.2-0.6-0.6-0.6-1v-2.2c0-0.3,0.2-0.5,0.4-0.7c0,0,0.1-0.1,0.1-0.1l0-2.3
		c0-0.6-0.6-1.2-1.2-1.2H6.4c-0.6,0-1.2,0.6-1.2,1.2v2.3l0,0c0.3,0.1,0.4,0.5,0.4,0.8v2.2c0,0.4-0.2,0.8-0.6,1
		c-0.1,0-0.2,0.1-0.4,0.2C4,17.4,3,18,2,18.8c0,0,0,0.1,0,0.1C1.9,19,1.9,19,1.9,19v1.5C1.9,21.1,1.4,21.5,0.9,21.5z"/>
	<path class="st0" d="M9.7,16.4c0-0.1,0-0.1,0-0.2C9.4,16.1,9.2,16,9,15.8H8.9v-1.8l0,0c0.2-0.3,0.4-0.7,0.4-1.1v-2.3
		c0-1.4-1.1-2.5-2.5-2.5H6.4c-1.4-0.1-2.5,1-2.5,2.4v2.3c0,0.4,0.1,0.8,0.4,1.1l0,0v1.8H4.1c-0.7,0.3-1.9,1.1-3.1,2
		c-0.3,0.4-0.6,0.9-0.6,1.3v1.5c0,0.3,0.2,0.4,0.4,0.4s0.4-0.2,0.4-0.4V19c0-0.2,0.1-0.3,0.2-0.6c1.3-1.1,2.6-1.8,3.2-2.1
		c0.2-0.1,0.3-0.3,0.3-0.6v-2.2c0-0.1-0.1-0.3-0.2-0.3c-0.2-0.1-0.2-0.3-0.2-0.4v-2.3c0-0.9,0.8-1.7,1.7-1.7h0.6
		c0.9,0,1.7,0.8,1.7,1.7v2.3c0,0.2-0.1,0.3-0.2,0.4c-0.1,0.1-0.2,0.2-0.2,0.3v2.2c0,0.2,0.1,0.4,0.3,0.6c0.2,0.1,0.7,0.3,1.3,0.8
		v-0.8H9.7z"/>
</g>
<g id="XMLID_23_">
	<path class="st0" d="M11.5,11.2l1.2-1.2c1.1-0.8,2.2-1.5,3-1.9l0.1-1.4c-0.3-0.4-0.4-0.8-0.4-1.3V3c0-1.7,1.3-3,3-3h0.6
		c1.7,0,3,1.3,3,3v2.3c0,0.5-0.1,0.9-0.4,1.3v1.2c0.8,0.4,1.9,1.1,3,2l1.2,1.2H23L22.9,11c-1.3-0.9-2.5-1.5-2.7-1.6
		c-0.4-0.2-0.6-0.6-0.6-1V6.1c0-0.3,0.2-0.5,0.4-0.7c0,0,0.1-0.1,0.1-0.1L20,3c0-0.6-0.6-1.2-1.2-1.2h-0.6c-0.6,0-1.2,0.6-1.2,1.2
		v2.3l0,0c0.3,0.1,0.4,0.5,0.4,0.8v2.2c0,0.4-0.2,0.8-0.6,1c-0.1,0.1-1.5,0.7-2.7,1.7l-0.1,0.1H11.5z"/>
	<path class="st0" d="M16.1,8.3c-0.7,0.3-1.9,1.1-3.1,2c-0.1,0.1-0.2,0.2-0.3,0.3c0.4,0,0.9,0,1.3,0c1.1-0.9,2.3-1.5,2.8-1.8
		c0.2-0.1,0.3-0.3,0.3-0.6V6.1c0-0.1-0.1-0.3-0.2-0.3c-0.2-0.1-0.2-0.3-0.2-0.4V3c0-0.9,0.8-1.7,1.7-1.7h0.6c0.9,0,1.7,0.8,1.7,1.7
		v2.3c0,0.2-0.1,0.3-0.2,0.4c-0.1,0.1-0.2,0.2-0.2,0.3v2.2c0,0.2,0.1,0.4,0.3,0.6c0.2,0.1,1.4,0.8,2.8,1.7c0.4,0,0.9,0,1.3,0
		c-0.1-0.1-0.2-0.2-0.3-0.3c-1.2-1-2.4-1.7-3.1-2H21V6.5l0,0c0.3-0.3,0.4-0.7,0.4-1.1V3c0-1.4-1.1-2.5-2.5-2.5h-0.6
		c-1.4,0-2.5,1.1-2.5,2.5v2.3c0,0.4,0.1,0.8,0.4,1.1l0,0L16.1,8.3L16.1,8.3z"/>
</g>
<g>
	<path class="st0" d="M11.9,24.1c-1,0-1.7-0.8-1.7-1.7v-9.8c0-1,0.8-1.7,1.7-1.7h15.9c1,0,1.7,0.8,1.7,1.7v9.8c0,1-0.8,1.7-1.7,1.7
		H11.9z M27.6,22.1v-9.3H12.2v9.3H27.6z"/>
	<path class="st0" d="M27.9,23.6H11.9c-0.7,0-1.2-0.6-1.2-1.2v-9.8c0-0.7,0.6-1.2,1.2-1.2h15.9c0.7,0,1.2,0.6,1.2,1.2v9.8
		C29.1,23,28.5,23.6,27.9,23.6z M11.9,12.3c-0.1,0-0.2,0.1-0.2,0.2v9.8c0,0.1,0.1,0.2,0.2,0.2h15.9c0.1,0,0.2-0.1,0.2-0.2v-9.8
		c0-0.1-0.1-0.2-0.2-0.2H11.9z"/>
</g>
<g>
	<path class="st0" d="M19.8,19.7c-0.2,0-0.4-0.1-0.6-0.2l-8.1-6.2c-0.2-0.2-0.3-0.4-0.4-0.7c0-0.3,0-0.5,0.2-0.7
		c0.2-0.2,0.5-0.4,0.8-0.4c0.2,0,0.4,0.1,0.6,0.2l7.4,5.8l7.5-5.9c0.2-0.1,0.4-0.2,0.6-0.2c0.3,0,0.6,0.1,0.8,0.4
		c0.3,0.4,0.3,1.1-0.2,1.4l-8.2,6.3C20.3,19.6,20.1,19.7,19.8,19.7z"/>
	<path class="st0" d="M19.8,19.2c-0.1,0-0.2,0-0.3-0.1l-8.1-6.2c-0.2-0.2-0.3-0.5-0.1-0.7s0.5-0.3,0.7-0.1l7.8,6l7.9-6.1
		c0.2-0.2,0.5-0.1,0.7,0.1c0.2,0.2,0.1,0.5-0.1,0.7l-8.2,6.3C20.1,19.1,19.9,19.2,19.8,19.2z"/>
</g>
<g>
	<path class="st0" d="M11.8,23.1c-0.1,0-0.2,0-0.3-0.1c-0.2-0.2-0.2-0.5,0-0.7l5.3-5.8c0.2-0.2,0.5-0.2,0.7,0c0.2,0.2,0.2,0.5,0,0.7
		l-5.3,5.8C12,23,11.9,23.1,11.8,23.1z"/>
</g>
<g>
	<path class="st0" d="M28,23.6c-0.3,0-0.6-0.1-0.7-0.3l-5.5-6.1c-0.2-0.2-0.3-0.5-0.3-0.7c0-0.3,0.1-0.5,0.3-0.7
		c0.2-0.2,0.4-0.3,0.7-0.3c0.3,0,0.6,0.1,0.7,0.3l5.5,6.1c0.4,0.4,0.3,1-0.1,1.4C28.5,23.5,28.3,23.6,28,23.6z"/>
	<path class="st0" d="M28,23.1c-0.1,0-0.3-0.1-0.4-0.2l-5.5-6.1c-0.2-0.2-0.2-0.5,0-0.7c0.2-0.2,0.5-0.2,0.7,0l5.5,6.1
		c0.2,0.2,0.2,0.5,0,0.7C28.3,23,28.2,23.1,28,23.1z"/>
</g>
</svg>
