<?xml version="1.0" encoding="utf-8"?>
<!-- Generator: Adobe Illustrator 19.0.0, SVG Export Plug-In . SVG Version: 6.00 Build 0)  -->
<svg version="1.1" id="Layer_1" xmlns="http://www.w3.org/2000/svg" xmlns:xlink="http://www.w3.org/1999/xlink" x="0px" y="0px"
	 viewBox="0 0 22 20" style="enable-background:new 0 0 22 20;" xml:space="preserve">
<g>
	<path d="M13.2,1.4l0.3,0.3c0.1,0.1,0.1,0.2,0.1,0.3l0,0.2l-0.9,4.5L12.5,8h1.2H20c0.5,0,1,0.4,1,0.9l0,0l-0.1,0.5L21,9.5V11
		c0,0.1,0,0.2-0.1,0.3l-3,7.1C17.8,18.8,17.4,19,17,19H8c-0.6,0-1-0.4-1-1V8c0-0.3,0.1-0.5,0.3-0.7L13.2,1.4 M3,9v10H1V9H3 M13.2,0
		L6.6,6.6C6.2,6.9,6,7.4,6,8v10c0,1.1,0.9,2,2,2h9c0.8,0,1.5-0.5,1.8-1.2l3-7.1C22,11.5,22,11.3,22,11V9.1l0,0L22,9c0-1.1-0.9-2-2-2
		h-6.3l1-4.6l0-0.3c0-0.4-0.2-0.8-0.4-1.1L13.2,0L13.2,0z M4,8H0v12h4V8L4,8z"/>
</g>
</svg>
