<?xml version="1.0" encoding="utf-8"?>
<!-- Generator: Adobe Illustrator 19.0.0, SVG Export Plug-In . SVG Version: 6.00 Build 0)  -->
<svg version="1.1" id="Layer_1" xmlns="http://www.w3.org/2000/svg" xmlns:xlink="http://www.w3.org/1999/xlink" x="0px" y="0px"
	 viewBox="-99 328.8 411.1 137.2" style="enable-background:new -99 328.8 411.1 137.2;" xml:space="preserve">
<style type="text/css">
	.st0{fill:#FFFFFF;}
	.st1{fill:#45C4E4;}
	.st2{fill:#FFFBF9;}
	.st3{fill:#FFFAF9;}
	.st4{fill:#ED6162;}
	.st5{fill:#ED6968;}
	.st6{fill:#F0867F;}
	.st7{fill:#F3A096;}
	.st8{fill:#EE726E;}
	.st9{fill:#EE7672;}
	.st10{fill:#ED6264;}
	.st11{fill:#ED6D6A;}
	.st12{fill:#EC5B5F;}
	.st13{fill:#FFF6F3;}
	.st14{fill:#EF7F78;}
	.st15{fill:#EF7C77;}
	.st16{fill:#EE6E6A;}
	.st17{fill:#FFF7F4;}
	.st18{fill:#F0817A;}
	.st19{fill:#EC5D60;}
	.st20{fill:#EC5C5F;}
	.st21{fill:#F1867F;}
	.st22{fill:#EA4754;}
	.st23{fill:#F29088;}
	.st24{fill:#EB595E;}
	.st25{fill:#ED6A69;}
	.st26{fill:#F7BEB4;}
	.st27{fill:#ED6465;}
	.st28{fill:#F28F86;}
	.st29{fill:#ED6263;}
	.st30{fill:#ED6565;}
	.st31{fill:#EE7570;}
	.st32{fill:#EF7F79;}
	.st33{fill:#EB565C;}
	.st34{fill:#ED6967;}
	.st35{fill:#EE716D;}
	.st36{fill:#ED6B69;}
	.st37{fill:#F7B8AF;}
	.st38{fill:#EF7E78;}
	.st39{fill:#F6B3AA;}
	.st40{fill:#F7BBB1;}
	.st41{fill:#EB5159;}
	.st42{fill:#FFF9F8;}
	.st43{fill:#F18A81;}
	.st44{fill:#EE7974;}
	.st45{fill:#EF817B;}
	.st46{fill:#F39B92;}
	.st47{fill:#EF837D;}
	.st48{fill:#F18C83;}
	.st49{fill:#F39D94;}
	.st50{fill:#FCE3DC;}
	.st51{fill:#EB535A;}
	.st52{fill:#FAC9BF;}
	.st53{fill:#F8C4BB;}
	.st54{fill:#FDEBE5;}
	.st55{fill:#ED6867;}
	.st56{fill:#EF8079;}
	.st57{fill:#EC5E61;}
	.st58{fill:#EA4553;}
	.st59{fill:#E9324B;}
	.st60{fill:#EA4352;}
	.st61{fill:#EA4453;}
	.st62{fill:#E82548;}
	.st63{fill:#E93B4F;}
	.st64{fill:#E93A4E;}
	.st65{fill:#EA4B56;}
	.st66{fill:#EA5059;}
	.st67{fill:#E9394E;}
	.st68{fill:#FCD9D1;}
	.st69{fill:#F29087;}
	.st70{fill:#EE706D;}
	.st71{fill:#FAD6CF;}
	.st72{fill:#EC535A;}
	.st73{fill:#EA4D57;}
	.st74{fill:#EA4151;}
	.st75{fill:#E8364D;}
	.st76{fill:#EA4C56;}
	.st77{fill:#E93E50;}
	.st78{fill:#E9354D;}
	.st79{fill:#EB5C60;}
	.st80{fill:#ED6364;}
	.st81{fill:#E92E4A;}
	.st82{fill:#EC6766;}
	.st83{fill:#E9354C;}
	.st84{fill:#E92C4A;}
	.st85{fill:#E93F50;}
	.st86{fill:#EA4051;}
	.st87{fill:#EA4C57;}
	.st88{fill:#F0857F;}
	.st89{fill:#E9334C;}
	.st90{fill:#EC6968;}
	.st91{fill:#EC575C;}
	.st92{fill:#EB525A;}
	.st93{fill:#F39C92;}
	.st94{fill:#EB5F61;}
	.st95{fill:#EC545B;}
	.st96{fill:#E8314B;}
	.st97{fill:#EB545B;}
	.st98{fill:#E9364D;}
	.st99{fill:#F18A82;}
	.st100{fill:#F2948C;}
	.st101{fill:#EB5259;}
	.st102{fill:#E82748;}
	.st103{fill:#E94051;}
	.st104{fill:#E82949;}
	.st105{fill:#F5B1A8;}
	.st106{fill:#EE7671;}
	.st107{fill:#F9D2CA;}
	.st108{fill:#E92949;}
	.st109{fill:#EB5C5F;}
	.st110{fill:#EA4654;}
	.st111{fill:#E8354C;}
	.st112{fill:#E9374D;}
	.st113{fill:#E9304B;}
	.st114{fill:#EA4252;}
	.st115{fill:#E82A49;}
	.st116{fill:#E93C4F;}
	.st117{fill:#E82E4A;}
	.st118{fill:#E93A4F;}
	.st119{fill:#E83C50;}
	.st120{fill:#E82648;}
	.st121{fill:#E92C49;}
	.st122{fill:#E83B4F;}
	.st123{fill:#E82447;}
	.st124{fill:#E82F4B;}
	.st125{fill:#E8374E;}
	.st126{fill:#E82C4A;}
	.st127{fill:#E8334C;}
	.st128{fill:#E83A4F;}
	.st129{fill:#E8354D;}
	.st130{fill:#E92F4B;}
	.st131{fill:#EA4A55;}
	.st132{fill:#231F20;}
	.st133{fill:none;stroke:#000000;}
</style>
<g id="XMLID_5_">
	<g id="XMLID_3_">
		<path id="XMLID_36_" class="st0" d="M33.2,435.8c-19.9,0-36.1-16.2-36.1-36.1c0-19.9,16.2-36.1,36.1-36.1s36.1,16.2,36.1,36.1
			C69.3,419.6,53.1,435.8,33.2,435.8z"/>
		<path id="XMLID_9_" class="st1" d="M33.2,371.5c15.6,0,28.3,12.7,28.3,28.3c0,15.6-12.7,28.3-28.3,28.3S4.9,415.3,4.9,399.7
			C4.9,384.2,17.6,371.5,33.2,371.5 M33.2,355.8c-24.3,0-43.9,19.7-43.9,43.9c0,24.3,19.7,43.9,43.9,43.9s43.9-19.7,43.9-43.9
			C77.1,375.5,57.5,355.8,33.2,355.8L33.2,355.8z"/>
	</g>
	<g id="XMLID_2_">
		<g id="XMLID_966_">
			<path id="XMLID_1271_" class="st2" d="M39.6,377.7c1.7,0.8,2.8,2.4,4.4,3.4c0.5,0.3,1.3,1.9,0.5,3.1c-0.4,0.5-1,0.4-1.5,0.4
				c-2.5,0-5,0.4-7.5,0.8c-0.7,0.2-1.4,0.2-2,0.1c-0.5-0.1-1.1-0.1-1-0.9c0.2-0.5,0.7-0.8,1.1-1c0.4-0.2,0.7-0.3,1.1-0.4
				c0.8-0.1,1.5-0.5,2.1-1.1c0.2-0.2,0.3-0.3,0.5-0.4c0.6-0.3,1-0.8,1.6-1.1c0.8-0.3,0.8-0.9,0.7-1.6
				C39.6,378.6,39.2,378.1,39.6,377.7z"/>
			<path id="XMLID_1270_" class="st3" d="M35.3,385.2c3-0.9,6.1-1,9.2-1c3.1,0,6.1-0.1,9.2,0.3c0.6,0.1,1.2,0.2,1.6,0.7
				c-0.1,0.1-0.1,0.1-0.2,0.2c-0.3,0.2-0.6,0.1-1,0.1c-0.5-0.1-1-0.1-1.5-0.1c-3.3,0-6.5-0.1-9.8-0.1c-1.7-0.2-3.4,0.1-5.2,0.3
				c-0.8,0.1-1.5,0.3-2.2-0.1C35.4,385.3,35.4,385.2,35.3,385.2z"/>
			<path id="XMLID_1269_" class="st4" d="M15.7,404.7c1.4-1.5,3.2-2.5,4.9-3.5c0.1-0.1,0.3-0.1,0.4,0c0.1,0.9-0.4,1.5-1.2,1.9
				c-0.8,0.4-1.4,0.9-2,1.5c-0.3,0.3-0.6,0.6-0.3,1.1c0.3,0.5,0.4,1,0.1,1.5c-0.2,0.3-0.5,0.6-0.8,0.9c-0.4,0.3-0.7,0.7-1.3,0.3
				C14.5,407,15.6,405.9,15.7,404.7z"/>
			<path id="XMLID_1268_" class="st5" d="M45.2,395.6c1.9-0.3,3.8-0.6,5.7-0.9c1.3-0.2,2.6-0.2,3.7,0.5c0.2,0.3,0.3,0.5,0.3,0.9
				c0,0.2-0.1,0.3-0.2,0.4c-0.1,0.1-0.3,0.2-0.4,0.2c-0.5,0-0.9-0.3-1.3-0.5c-0.1-0.1-0.2-0.2-0.4-0.2c-0.5-0.6-1.1-0.5-1.7-0.4
				c-0.5,0.1-1.1-0.1-1.6,0.2c-0.2,0.1-0.3,0.3-0.5,0.4c-0.1,0.1-0.2,0.2-0.4,0.2c-1-0.2-1.9-0.2-2.9,0.1c-0.2,0.1-0.4,0.1-0.6,0.2
				c-0.7,0.4-1.3,0.9-2.2,0.6c-0.1,0-0.3-0.1-0.4-0.1c-0.1-0.1-0.2-0.2-0.3-0.3c0.1-0.4,0.4-0.6,0.8-0.8
				C43.6,395.5,44.5,396,45.2,395.6z"/>
			<path id="XMLID_1267_" class="st6" d="M21.7,397.3c-2.2,1.1-4.5,1.8-6.8,2.5c-1.2,0.4-2.2-0.2-2.8-1.4c-0.8-1.5-0.3-2.7,0.7-3.8
				c0.6,1.1-0.3,2.5,0.8,3.4c0.3,0.4,0.8,0.5,1.2,0.6c0.8,0.2,1.4-0.3,2.1-0.5c1-0.2,1.8-0.7,2.8-0.9
				C20.3,397.1,21,396.7,21.7,397.3z"/>
			<path id="XMLID_1266_" class="st7" d="M41.5,424c-0.8,1.4-2.7,2.2-4.4,1.7c-1.3-0.4-2.3-2.2-2-3.8c0.1-0.7,0.2-1.4,0.8-1.9
				c0.7,0.5,0.2,1.3,0.5,1.9c0.3,0.7,0.6,1.3,0.9,2c0.7,1.1,1.6,1.1,2.6,0.5C40.4,424.2,40.8,423.6,41.5,424z"/>
			<path id="XMLID_1265_" class="st8" d="M21.7,397.3c-1.8-0.1-3.2,1.2-5,1.3c0.1-1.1,1-1.4,1.9-1.6c0.6-0.1,1.3-0.2,1.8-0.5
				c0.6-0.3,1.1-0.8,1.8-1c0.7-0.1,1.3,0.1,2-0.1c0.5-0.1,1-0.1,1.5-0.4c0.4-0.2,0.7-0.3,1.1-0.3c0.3,0,0.6,0,0.9,0.2
				c0.1,0.1,0.2,0.3,0.1,0.4c-0.3,0.3-0.8,0-1.1,0.3C25,395.9,23.5,396.9,21.7,397.3z"/>
			<path id="XMLID_1264_" class="st9" d="M18.7,380.9c1.3-0.7,2.9-0.7,4.2-1.3c2.5-1,5.3-0.9,7.9-1.3c0.5,0,1,0,1.5,0
				c0.4-0.2,0.8-0.4,1.3-0.1c0.2,1-0.6,0.7-1.1,0.9c-0.4,0-0.7,0.2-1.1,0.3c-0.1,0-0.3,0-0.4,0c-0.5-0.1-1,0-1.4,0.1
				c-0.4,0.1-0.9,0.1-1.3,0.2c-1.3,0.1-2.5,0.2-3.7,0.8c-0.5,0.2-1,0.4-1.5,0.4c-1.1-0.1-2.2,0.1-3.2,0.5c-0.4,0.1-0.8,0.1-1-0.3
				C18.8,381.1,18.7,381,18.7,380.9z"/>
			<path id="XMLID_1263_" class="st10" d="M29.4,409.3c-2.4,1-4.7,2-7.1,3c-0.2,0.1-0.4,0.2-0.6,0.1c-0.1-0.1-0.2-0.2-0.2-0.4
				c0.2-0.3,0.5-0.4,0.8-0.6c0.2-0.1,0.3-0.2,0.5-0.4c0.3-0.2,0.6-0.5,0.8-0.7c0.1-0.1,0.2-0.1,0.3-0.2c0.4,0.1,0.5-0.4,0.7-0.5
				c1.6-0.2,3-1.2,4.5-1.6c0.4-0.1,0.7-0.3,1.1-0.2c0.1,0.1,0.2,0.3,0.2,0.4C30.4,409,30.2,409.5,29.4,409.3z"/>
			<path id="XMLID_1262_" class="st11" d="M44.1,410.3c3-0.8,4.7-0.1,5.4,2.2c0.5,1.8,0,3.1-1.7,4.2c-0.5-0.5-0.1-0.9,0.1-1.3
				c1.1-2.8,0.1-4.3-2.9-4.6c-0.3,0-0.5-0.1-0.7-0.2C44.2,410.4,44.2,410.3,44.1,410.3z"/>
			<path id="XMLID_1261_" class="st12" d="M44.8,410.4c1.5-0.3,2.8,0.2,3.5,1.4c0.7,1.2,0.7,2.7-0.2,4c-0.2,0.3-0.3,0.6-0.3,0.9
				c-0.2,0.2-0.5,0.4-0.7,0.5c-0.1,0.1-0.2,0.1-0.4,0c0.4-0.9-0.3-2.2,1-3c0.3-0.2-0.2-1.4-0.9-2C46.1,411.6,45.2,411.2,44.8,410.4z
				"/>
			<path id="XMLID_1260_" class="st13" d="M39.6,377.7c0.1,1.2,1.6,2.6-0.7,3.3c-0.3-0.2-0.3-0.5-0.3-0.9c0-1.4-0.6-2.2-2-2.3
				c-0.2,0-0.4-0.1-0.6-0.3c0.8-1.7,1.4-1.8,2.6-0.6C38.9,377.2,39.1,377.7,39.6,377.7z"/>
			<path id="XMLID_1259_" class="st14" d="M36,418.8c-1.2,0.6-2.5,0.5-3.7,0.3c-0.6-0.1-1.2-0.5-1.7-0.4c-1.6,0.3-2-0.7-2.4-1.9
				c0.2-0.2,0.4-0.3,0.6-0.3c0.2,0,0.5,0.1,0.6,0.2c0.4,0.3,0.6,0.8,1.1,0.9c0.6,0.2,1.3,0.1,1.9,0c1.2,0.3,2.3,0.5,3.5,0.7
				c0.1,0.1,0.1,0.2,0.1,0.3C36,418.7,36,418.8,36,418.8z"/>
			<path id="XMLID_1258_" class="st15" d="M37,424c-0.3-0.7-0.7-1.3-1-2c0.7-0.3,1.3,0.4,2,0c0.3,0.4,0.4,0.9,0.9,1.1
				c0.3,0.2,0.6,0.3,1,0.2c0.7-0.1,1.3-0.5,1.9-0.9c0.3-0.1,0.5-0.3,0.8-0.1c0,0.8-0.9,0.9-1.1,1.6c-0.5,0.2-1.1,0.4-1.6,0.7
				C38.9,424.6,37.8,425.1,37,424z"/>
			<path id="XMLID_1257_" class="st16" d="M54.6,396.6c0-0.1,0-0.2,0-0.4c1.1-0.4,1.2,0.5,1.4,1.1c0.5,1.8-0.3,3.1-1.7,4.2
				c-1,0.4-1.8,1-3,0.9c-0.1-0.1-0.1-0.3,0-0.4c0.4-0.6,1.2-0.6,1.8-1C54.7,400,54.8,398.3,54.6,396.6z"/>
			<path id="XMLID_1256_" class="st17" d="M30.9,378.4c-2.6,0.6-5.3,0.9-7.9,1.3c1.3-0.8,2.5-2.1,4.3-1c0.1,0,0.3,0,0.3,0
				C28.5,377.1,29.8,378.5,30.9,378.4z"/>
			<path id="XMLID_1255_" class="st18" d="M36,377.5c0.2,0,0.3-0.1,0.5-0.1c2.2,0.9,2.7,2.1,1.4,3.9c-0.2,0.1-0.3,0-0.4-0.1
				c-0.3-0.4-0.3-1-0.6-1.5c-0.4-1.2-1.3-1.4-2.4-1.2c-0.1,0-0.3,0-0.4,0c-0.1,0-0.3-0.1-0.4-0.2c-0.5,0-0.9,0-1.4,0
				c0.1-0.1,0.2-0.2,0.4-0.3c0.5-0.4,1.1-0.4,1.6-0.3C34.9,377.6,35.5,377.8,36,377.5z"/>
			<path id="XMLID_1254_" class="st2" d="M55.3,385.2c1.5,0.4,2.3,1.5,2.3,3.4c0,2.1-0.8,3-3,3.5c0.2-1.1,1.8-1.4,1.8-2.7
				C57.1,387.7,55.8,386.6,55.3,385.2L55.3,385.2z"/>
			<path id="XMLID_1253_" class="st19" d="M42.6,422.4c-0.2,0.1-0.5,0.2-0.7,0.3c-0.1-0.1-0.2-0.2-0.2-0.4c-0.1-0.9,1-1.3,0.8-2.2
				c0.5-0.6,1.1-1.1,1.5-1.8c0.2-0.3,0.5-0.6,0.9-0.7c0.4,0,0.8,0.1,1,0.5C44.5,419.4,43.8,421.1,42.6,422.4z"/>
			<path id="XMLID_1252_" class="st20" d="M13.4,398.2c-1.5-1-0.8-2.4-0.7-3.6c0.3-0.5,0.4-1,1-1.3c0.1,0.5,0.2,0.9,0.5,1.3
				c0.2,0.7-0.5,1.3-0.3,2c-0.1,0.6,0.7,1.2,0.1,1.8C13.8,398.4,13.6,398.4,13.4,398.2z"/>
			<path id="XMLID_1251_" class="st21" d="M21.6,412.3c0.2,0,0.5,0,0.7,0c-0.6,0.7-1.4,1-2.3,1.3c-0.9,0.4-1.8,0.5-2.8,0.3
				c-0.2,0-0.3-0.1-0.4-0.2c-0.4-0.4-0.5-1.1-1.1-1.4c-0.1-0.1-0.2-0.2-0.2-0.4c-0.1-0.4-0.1-0.8,0.2-1.1c0.6,0,1.1-0.2,1.3,0.8
				c0.2,1.1,1.4,0.8,2.3,0.9C20.1,412.6,20.8,412,21.6,412.3z"/>
			<path id="XMLID_1250_" class="st22" d="M51.3,402.2c0,0.1,0,0.2,0,0.3c-0.1,0.1-0.2,0.2-0.3,0.4c-0.9,0.4-1.8,0.9-2.7,1.2
				c-0.4,0.2-0.9,0.1-1.3-0.2c-0.3-0.6-0.2-1,0.3-1.5c1.1-0.6,2.3-1,3.5-0.8C51.1,401.7,51.3,401.9,51.3,402.2z"/>
			<path id="XMLID_1249_" class="st23" d="M54.3,401.5c0.9-1.1,1.9-2.3,1.4-3.9c-0.2-0.6-0.2-1.3-1.1-1.4c0-0.3,0-0.7,0-1
				c1.4,0.5,2,1.6,1.9,3C56.5,399.8,55.8,401,54.3,401.5z"/>
			<path id="XMLID_1248_" class="st24" d="M25.2,398.2c0.8-1,2.1-1.3,3-2.2c0.1-0.2,0.3-0.5,0.5-0.6c0.3-0.2,0.6-0.4,0.9-0.5
				c0.2,0,0.3,0.1,0.3,0.2c0.1,0.6-0.3,1-0.6,1.4c-0.2,0.2-0.5,0.4-0.7,0.5c-1,0.7-2.1,1.1-2.8,2.3c-0.4,0.7-1.2,0.7-1.7-0.1
				C24.1,398.5,25,398.7,25.2,398.2z"/>
			<path id="XMLID_1247_" class="st25" d="M51.4,392.1c-2.5,0.9-5,1.7-7.3,3.1c-0.2,0.4-0.5,0.3-0.8,0.2c-0.1-0.1-0.2-0.2-0.2-0.4
				c0.1-0.3,0.3-0.5,0.6-0.7c0.9-0.4,1.7-0.8,2.5-1.3c1.2-0.6,2.5-0.8,3.8-1.3C50.5,391.6,51,391.6,51.4,392.1z"/>
			<path id="XMLID_1246_" class="st26" d="M19.6,413.9c-2.5,1.4-4.7,0.5-5.2-2.3c0.1-0.1,0.2-0.1,0.4-0.1c0.5,0.1,0.7,0.4,0.9,0.8
				l0,0c0.5,0.3,0.6,0.9,1,1.3l0,0C17.7,414,18.7,413.5,19.6,413.9z"/>
			<path id="XMLID_1245_" class="st24" d="M14.1,394.7c-0.5-0.4-0.5-0.8-0.3-1.3c0-0.5,0.2-0.8,0.7-1c0.6,0,0.7-0.9,1.4-0.8
				c0.1,0,0.3,0.1,0.4,0.2c0.1,0.4,0.1,0.9,0,1.3c-0.1,0.1-0.1,0.3-0.2,0.4c-0.2,0.5-0.1,1.1-0.7,1.4C14.9,395,14.5,395,14.1,394.7z
				"/>
			<path id="XMLID_1244_" class="st27" d="M47.1,403.8c0.4,0,0.9,0,1.3,0c0.2,0.1,0.2,0.2,0,0.4c-0.9,1.2-2.3,1.7-3.5,2.3
				c-0.2,0.1-0.5,0.1-0.7,0.1c-0.3-0.8,0.4-1.1,0.9-1.4c0.5-0.3,1-0.3,1.3-0.9C46.6,404,46.7,403.7,47.1,403.8z"/>
			<path id="XMLID_1243_" class="st28" d="M18,381.2c0.2-0.1,0.5-0.2,0.7-0.3c0,0,0.1,0.1,0.1,0.1c0.8,0.7,0.1,1.7,0.5,2.4
				c0.1,0.6,1.3,0.6,0.9,1.5c-1.3,0.4-2.2-0.1-2.6-1.4c-0.1-0.2-0.1-0.3-0.2-0.5C17.3,382.3,17.6,381.8,18,381.2z"/>
			<path id="XMLID_1242_" class="st29" d="M30.4,408.3c0-0.1,0-0.2,0-0.3c0.1-0.1,0.1-0.1,0.2-0.2c0.4-0.2,0.8,0,1.1,0.3
				c0.1,0.2,0.3,0.4,0.3,0.7c0.1,0.9-0.5,1.5-1.1,2c-0.7,0.1-1.1,1.4-2.1,0.8c-0.2-0.5,0.3-0.7,0.3-1.1c0.2-0.3,0.3-0.6,0.5-0.8
				C30,409.4,30.8,409.2,30.4,408.3z"/>
			<path id="XMLID_1241_" class="st30" d="M20,387.4c0.9-1.1,2.2-1.7,3.3-2.5c0.1-0.1,0.2-0.2,0.3-0.3c0.1,0,0.3,0,0.4,0
				c0.1,0.1,0.2,0.2,0.3,0.3c0.1,0.3,0,0.6-0.3,0.8c-0.2,0.2-0.5,0.3-0.8,0.4c-0.3,0.1-0.5,0.1-0.6,0.4c-0.1,0.1-0.2,0.2-0.3,0.3
				c-0.5,0.2-0.9,0.5-1.2,0.9c-0.3,0.3-0.5,0.5-0.9,0.6c-0.2,0-0.3-0.1-0.4-0.2C19.8,387.8,19.8,387.6,20,387.4z"/>
			<path id="XMLID_1240_" class="st31" d="M29.1,410.5c0.1,0.4-0.1,0.7-0.3,1.1c0.2,0.8-0.2,1.4-0.7,2.1c-0.3,0.4-0.6,0.9-0.8,1.3
				c-0.2,0.2-0.3,0.3-0.6,0.2c-0.4-0.3-0.5-0.6-0.3-1.1C27.2,412.9,28,411.6,29.1,410.5z"/>
			<path id="XMLID_1239_" class="st32" d="M15.7,404.7c0.3,1.2-0.7,2.5,0,3.7c0.3,0.6,0.6,1.2,0.4,2c-0.4,0.3-0.7,0.3-1.1,0
				c-0.3-0.5-0.2-1-0.3-1.5c0-0.2,0-0.3,0-0.5c-0.1-1,0-2,0.4-2.9C15.2,405.1,15.4,404.8,15.7,404.7z"/>
			<path id="XMLID_1238_" class="st33" d="M41.2,410.3c1,0,1.9,0,2.9-0.1c0,0.1,0,0.1,0,0.2c0,0.9-1,0.7-1.3,1.3
				c-0.1,0.1-0.3,0.1-0.4,0.2c-0.2,0-0.3,0-0.4,0c-0.5-0.1-1-0.4-1.5-0.5c-0.5-0.2-1.3,0.1-1.3-0.8C39.8,410,40.6,410.8,41.2,410.3z
				"/>
			<path id="XMLID_1237_" class="st34" d="M37.9,422.1c-0.7,0.8-1.3,0.2-2,0c-0.3-0.7,0.2-1.4-0.1-2c0.1-0.3,0.1-0.6,0.4-0.7
				c0.1,0.1,0.2,0.2,0.3,0.3c0.2,0.4,0.3,0.9,0.7,1.2c0.2,0.4,0.7,0.4,0.9,0.8C38.1,421.8,38,422,37.9,422.1z"/>
			<path id="XMLID_1236_" class="st35" d="M22.3,384.5c-0.2,0.1-0.4,0.2-0.7,0.3c-0.2-0.2-0.2-0.5-0.1-0.8c0.7-0.8,1.8-0.9,2.8-1
				c0.9-0.1,1.5,0.4,1.4,1.5c-0.4,0.6-0.8,0.7-1.4,0.3l0-0.1c-0.2-0.4-0.5-0.6-1-0.4C22.9,384.4,22.6,384.2,22.3,384.5z"/>
			<path id="XMLID_1235_" class="st36" d="M25.2,398.2c0,0.6-0.7,0.6-0.9,1.1c-0.6,1.4-1.8,2.1-3.3,2c-0.1,0-0.3,0-0.4-0.1
				C22.1,400.1,23.5,398.9,25.2,398.2z"/>
			<path id="XMLID_1234_" class="st32" d="M56.6,389.5c0,1.4-1.3,1.7-2.1,2.5c-0.9,0-1.9,0-2.8,0.1c-0.1-0.1-0.1-0.2-0.1-0.3
				c0-0.1,0-0.1,0.1-0.1c0.3-0.3,0.7-0.3,1.1-0.3c0.4,0,0.7-0.1,1-0.2c0.4-0.1,0.8-0.3,1.1-0.6c0.6-0.2,0.6-1.1,1.4-1.2
				C56.4,389.3,56.5,389.3,56.6,389.5z"/>
			<path id="XMLID_1233_" class="st37" d="M15.1,408.4c0,0.1,0,0.2,0,0.3c-0.6,0.9,0.4,2-0.3,3c-0.1,0-0.2,0-0.4,0
				c0.1-1.6-0.7-3.3,0-4.9C14.9,407.2,14.6,407.9,15.1,408.4z"/>
			<path id="XMLID_1232_" class="st9" d="M20,387.4c0,0.2,0,0.5,0,0.7c0.1,0.5-0.3,0.8-0.5,1.1c-0.2,0.2-0.5,0.4-0.7,0.5
				c-0.4,0.1-0.7,0.3-1.1,0C18.2,388.7,18.9,387.9,20,387.4z"/>
			<path id="XMLID_1231_" class="st16" d="M21.6,384.2c0,0.2,0,0.4,0,0.6c-0.2,0-0.4,0.1-0.6,0.1c-0.2,0.1-0.5,0.2-0.7-0.1
				c-0.6-0.3-1.1-0.6-1.3-1.3c-0.1-0.3,0.1-0.4,0.3-0.5C20.2,383.2,20.9,383.7,21.6,384.2z"/>
			<path id="XMLID_1230_" class="st8" d="M42.9,407.7c-0.9,0.8-1.8,1.5-2.6,2.3c-0.1,0.1-0.3,0.1-0.4,0c0-0.1-0.1-0.1-0.1-0.2
				c0-0.1,0-0.1,0-0.2c0.3-0.6,0.8-1.1,1.3-1.5c0.4-0.3,0.8-0.7,1.4-0.6C42.7,407.5,42.8,407.6,42.9,407.7z"/>
			<path id="XMLID_1229_" class="st38" d="M26.9,415.2c0.1-0.1,0.2-0.2,0.3-0.3c0.2-0.2,0.4-0.2,0.6-0.1c0.1,0.1,0.2,0.2,0.3,0.3
				c0.1,0.5,0.5,0.7,0.8,0.9c0.4,0.3,0.4,0.6,0,0.8c-0.2,0-0.5,0-0.7,0c-0.2-0.1-0.4-0.2-0.7-0.3C27.2,416.1,26.3,416,26.9,415.2z"
				/>
			<path id="XMLID_1228_" class="st39" d="M20.3,384.8c0.2,0,0.4,0.1,0.7,0.1c-1,0.5-2,0.8-3,0c-0.2-0.5-1.3-0.9-0.3-1.7
				C18.3,384.2,18.8,385.4,20.3,384.8z"/>
			<path id="XMLID_1227_" class="st40" d="M17.7,383.2c-0.5,0.7,0.5,1.1,0.3,1.7c-1.4-0.9-1.5-2-0.6-3.3
				C17.8,382.1,17.3,382.7,17.7,383.2L17.7,383.2z"/>
			<path id="XMLID_1226_" class="st41" d="M17.6,389.7c0.4-0.1,0.7-0.2,1.1-0.3c-0.1,1.1-1.2,1.4-1.7,2.2c-0.3,0.2-0.5,0.3-0.9,0.1
				l0,0c-0.2-0.2-0.2-0.4,0-0.7C16.6,390.6,17.1,390.2,17.6,389.7z"/>
			<path id="XMLID_1225_" class="st42" d="M43.2,395.4c0.3,0,0.6-0.1,0.9-0.1c0.2,0.5,0.7,0.4,1.1,0.4c-0.7,0.4-1.5,0.6-2.3,0.7
				c-0.3,0.2-0.6,0.2-0.8-0.2c0-0.3,0.1-0.4,0.2-0.6C42.6,395.4,42.9,395.3,43.2,395.4z"/>
			<path id="XMLID_1224_" class="st43" d="M15.1,408.4c-1-0.3-0.4-1.1-0.6-1.7c0.1-0.5,0.2-1,0.7-1.3
				C15.1,406.4,15.1,407.4,15.1,408.4z"/>
			<path id="XMLID_1223_" class="st44" d="M48.4,404.2c0-0.1,0-0.3,0-0.4c0.9-0.4,1.6-1,2.6-1C50.3,403.6,49.4,404,48.4,404.2z"/>
			<path id="XMLID_1222_" class="st20" d="M45.9,418.2c-0.4-0.1-0.7-0.2-1.1-0.4c-0.1-0.5,0.3-0.6,0.5-0.9c0.5-0.3,1-0.3,1.4,0.2
				c0.1,0,0.2,0,0.3,0C46.7,417.5,46.3,417.8,45.9,418.2z"/>
			<path id="XMLID_1221_" class="st45" d="M30.4,408.3c0.4,0.1,0.7,0.2,0.5,0.7c-0.3,0.6-0.7,1-1.4,0.6c0-0.1-0.1-0.2-0.1-0.4
				C29.9,409.1,30.2,408.8,30.4,408.3z"/>
			<path id="XMLID_1220_" class="st46" d="M26.9,415.2c-0.1,0.6,0.5,0.9,0.6,1.3c-1.5-0.3-1.5-1.2-1-2.4
				C26.6,414.5,26.7,414.9,26.9,415.2z"/>
			<path id="XMLID_1219_" class="st47" d="M16.1,391c0,0.2,0,0.4,0,0.7c-0.7-0.2-0.7,1.4-1.6,0.7C14.9,391.8,15.3,391.2,16.1,391z"
				/>
			<path id="XMLID_1218_" class="st35" d="M42.9,407.7c-0.1,0-0.3,0-0.4,0c0.1-1,0.7-1.4,1.7-1.3c0.2,0,0.5,0,0.7,0
				C44.2,406.9,43.6,407.3,42.9,407.7z"/>
			<path id="XMLID_1217_" class="st13" d="M34.4,377.7c-0.5,0.3-1.1,0.4-1.6,0.3C33,376.6,33.7,377.3,34.4,377.7z"/>
			<path id="XMLID_1216_" class="st48" d="M19.6,413.9c-1-0.1-2,0.3-2.9-0.3c1.1,0,2.2,0,3.3,0C19.9,413.7,19.8,413.8,19.6,413.9z"
				/>
			<path id="XMLID_1215_" class="st39" d="M17.7,383.2c-0.5-0.5-0.2-1.1-0.3-1.6c0.1-0.3,0.4-0.4,0.6-0.4
				C17.9,381.9,17.8,382.6,17.7,383.2z"/>
			<path id="XMLID_1214_" class="st49" d="M39.9,410c0.1,0,0.2,0,0.4,0c0.2,0.4,0.6,0.2,1,0.3c-0.6,0.5-1.3,0.3-1.9,0.3
				C39.2,410.1,39.4,409.9,39.9,410z"/>
			<path id="XMLID_1213_" class="st50" d="M28.8,395.6c-0.2,0.1-0.4,0.3-0.6,0.4c-0.3-0.5-0.9-0.2-1.3-0.3c0.2-0.3,0.6-0.3,0.9-0.3
				C28.2,395.1,28.6,394.9,28.8,395.6z"/>
			<path id="XMLID_1212_" class="st51" d="M51.7,391.7c0,0.1,0,0.2,0,0.3c0,0-0.1,0-0.1,0s-0.1,0-0.1,0c-0.6,0-1.1,0-1.7,0
				c0-0.1,0-0.2,0-0.3C50.4,391.2,51,391.2,51.7,391.7z"/>
			<path id="XMLID_1211_" class="st52" d="M22.3,384.5c0.3-0.3,0.6-0.3,1-0.3c0.2-0.2,0.5-0.2,0.6,0.1c0.1,0.3-0.1,0.5-0.3,0.6
				c-0.1,0-0.2,0-0.3,0C23.1,384.5,22.6,384.6,22.3,384.5z"/>
			<path id="XMLID_1210_" class="st53" d="M36,418.8c0-0.1,0.1-0.2,0.1-0.3c0.3-0.3,0.6-0.3,0.8-0.1c0.3,0.3,0.1,0.7-0.1,1
				c-0.1,0.1-0.3,0.2-0.5,0.1c0-0.1,0-0.1,0-0.2C36.2,419.2,36.1,419,36,418.8z"/>
			<path id="XMLID_1209_" class="st54" d="M37.7,381.3c1.1-1.8,0.9-2.4-1.1-3.9c2.1,0.2,2.7,1.1,2.4,3.5c-0.6,0.2-0.9,1-1.6,1
				C37.1,381.6,37.3,381.4,37.7,381.3z"/>
			<path id="XMLID_1208_" class="st55" d="M33.6,383.8c-0.3,0.2-0.6,0.5-0.9,0.7c-0.7,0.5-1.4,1.1-2.3,1.3c-0.3,0-0.6,0-0.9-0.2
				c-0.3-0.8,0.4-0.9,0.7-1.3c0.9-0.5,1.9-0.8,2.9-1.2C33.6,383.2,33.6,383.5,33.6,383.8z"/>
			<path id="XMLID_1207_" class="st3" d="M30.4,385.5c0.8-0.3,1.4-0.9,2.3-1c-0.1,0.3-0.2,0.7,0.3,0.7c0.8,0,1.5,0,2.3,0
				c0,0,0.1,0.1,0.1,0.1c0.1,0.2,0,0.4-0.2,0.5c-1,0.3-2.1,0.4-3.2,0.6C31.4,386.2,30.6,386.5,30.4,385.5z"/>
			<path id="XMLID_1206_" class="st56" d="M33.6,383.8c-0.1-0.2-0.1-0.4-0.2-0.6c0.1-0.2,0.2-0.4,0.4-0.5c0.6-0.1,1.2-0.7,1.9-0.1
				c0,0.8-0.7,0.7-1.1,0.9C34.3,383.6,33.9,383.7,33.6,383.8z"/>
			<path id="XMLID_1205_" class="st3" d="M34.6,383.5c0.4-0.3,0.7-0.6,1.1-0.9c0.1-0.3,0.4-0.4,0.7-0.5c0.2,0,0.4,0,0.6,0.1
				C36.4,383.2,35.7,383.6,34.6,383.5z"/>
			<path id="XMLID_1204_" class="st18" d="M37,382.2c-0.2,0-0.4,0-0.6,0c0-0.1-0.1-0.1-0.1-0.2c0.1-0.5,0.4-0.8,0.9-1
				c0.2,0,0.3,0,0.4,0.1c0,0,0.1,0.1,0.1,0.1c-0.1,0.2-0.2,0.4-0.3,0.6C37.2,382,37.1,382.1,37,382.2z"/>
			<path id="XMLID_1203_" class="st51" d="M42.9,384.8c3.3-0.2,6.7-0.1,10,0.1c0,0.2,0,0.3-0.2,0.4c-0.9,0.4-2,0.4-3,0.5
				c-1.1,0-2.1,0.3-3.1,0.5c-0.5,0.1-0.6-0.8-1.2-0.6c-0.1,0-0.3,0.1-0.4,0.1c-0.9-0.3-1.9,0.1-2.7-0.5
				C42.4,385,42.4,384.6,42.9,384.8z"/>
			<path id="XMLID_1202_" class="st32" d="M55.2,385.2c1.4,1.1,2.2,2.4,1.4,4.2c0,0-0.1-0.1-0.1-0.1c-0.4-0.2-0.8-0.4-1.1-0.7
				c-0.1-0.1-0.2-0.2-0.2-0.4c0-0.1,0-0.1,0-0.2c0.1-0.1,0.1-0.3,0.2-0.4c0.4-0.8-0.2-1.1-0.7-1.6c-0.3-0.2-0.5-0.3-0.5-0.7
				c0-0.2,0.1-0.3,0.2-0.4C54.6,385.2,54.9,385.2,55.2,385.2z"/>
			<path id="XMLID_1201_" class="st57" d="M42.9,384.8c-0.3,0.1-0.4,0.4-0.4,0.7c-0.8,0.7-1.8,0-2.6,0.1c-1.1,0-2.1,0.2-3.2,0.4
				c-0.2,0-0.3,0-0.5,0c-0.4-0.1-0.8-0.2-1-0.6c0-0.1,0.1-0.2,0.1-0.2c1.9-0.2,3.8-0.3,5.6-0.5C41.7,384.6,42.3,384.5,42.9,384.8z"
				/>
			<path id="XMLID_1200_" class="st34" d="M54.3,385.1c0,0.1,0,0.3,0,0.4c-0.4,0.4-0.8,0.1-1.2-0.2c0-0.1-0.1-0.1-0.1-0.2
				c0-0.1,0-0.2,0-0.3C53.4,384.8,53.9,384.8,54.3,385.1z"/>
			<path id="XMLID_1199_" class="st58" d="M21,401.2c1.2-0.4,2.3-1,3.3-2c0.5,0.2,1.2,0.6,1.3-0.1c0.4-1.6,2-1.5,2.9-2.5
				c0.3,0.2,0.5,0.5,0.5,0.9c0,0.1,0,0.3-0.1,0.4c-0.4,0.2-0.3,0.6-0.5,0.9c-0.5,0.9-1.4,0.9-2.1,1.2c-0.1,0.1-0.2,0.2-0.3,0.3
				c-0.3,1.3-1.6,0.7-2.2,1.2c-0.5,0.6-0.8,1.3-1.8,0.8c-0.5-0.2-0.6,0.4-0.8,0.6c-0.3,0.4-0.7,0.5-1.2,0.6
				c-0.6,0.3-0.8,1.4-1.8,1.1c-0.2,0-0.3-0.1-0.4-0.3c-0.1-0.9,0.9-1.4,1.2-1.5C20.1,402.8,20.4,401.9,21,401.2z"/>
			<path id="XMLID_1198_" class="st59" d="M16.7,407.7c0.2-0.2,0.4-0.4,0.7-0.6c0.1-0.1,0.2-0.1,0.4,0c0.4,2.1,0.6,2.2,2.9,2.1
				c0.6,0.2,1.3,0.3,1.2,1c-0.1,0.7-0.9,0.7-1.4,0.8c-0.4,0-0.7-0.1-1.1,0c-0.1,0.1-0.3,0.1-0.4,0.2c-0.4,0.1-0.7,0-1-0.4
				c0.1-0.5-0.1-0.6-0.5-0.6c-0.1-0.1-0.3-0.1-0.4-0.2C16.8,409.2,16.6,408.5,16.7,407.7z"/>
			<path id="XMLID_1197_" class="st60" d="M16.7,407.7c0.6,0.7,0.5,1.5,0.7,2.3c0,0.4,0,1-0.5,1c-0.6,0.1-0.6-0.6-0.8-1
				c-0.4-0.5-0.4-1.1-0.3-1.6C16.1,408.1,16.4,407.9,16.7,407.7z"/>
			<path id="XMLID_1196_" class="st61" d="M17.7,407.1c-0.1,0-0.2,0-0.3,0c0.3-0.5,0.2-1.1-0.1-1.3c-1-0.9-0.3-1.1,0.4-1.3
				c0.1,0,0.2,0,0.3,0c0.3,0.3,0.6,0.6,0.9,0.7c0.6,0.3,0.5,0.7,0.2,1.1C18.8,406.7,18.6,407.5,17.7,407.1z"/>
			<path id="XMLID_1195_" class="st62" d="M51,401.8c-1.3-0.1-2.4,0.6-3.6,0.7c-0.2,0.2-0.4,0.2-0.6,0.2c-0.8-0.4-1.6-0.2-2.4,0.2
				c-0.1,0.1-0.3,0.1-0.4,0.2c-1.4,0.7-3.1,0.4-4.2,1.7c-0.1,0.1-0.3,0.1-0.4,0c-0.2-0.9-0.6-1.7-0.6-2.6c0.1-0.3,0.4-0.5,0.6-0.7
				c0.4-0.5,0.8-1,1.5-0.9c0.2,0,0.3,0.1,0.4,0.1c0.5,0.4,0.4,0.8,0,1.2c0.8-0.3,0.8-1,0.8-1.7c0.2-0.4,0.6-0.6,1-0.9
				c1-1.4,2.8-1.6,4-2.6c0.5-0.4,1.2-0.1,1.7-0.4c0-0.1,0-0.2,0-0.3c0.8-0.4,1.6-0.1,2.4-0.4c0.5,0.5,1.3-0.1,1.9,0.4l0,0
				c1,1.3,0.3,2.8,0.5,4.2C53.6,401,52.2,401.7,51,401.8z"/>
			<path id="XMLID_1194_" class="st63" d="M47.1,396.9c-1.1,1.1-2.9,1.3-3.9,2.6c-0.4,0.2-0.8,0.3-1.2,0.2c-1-0.2-1.2,0.3-1.1,1.1
				c-0.7,0-1,0.5-1.3,1c-0.4,0.1-0.9,0.5-1-0.3c0.4-0.5,0.5-1,0.5-1.6c0.1-0.3,0.2-0.6,0.3-0.8c0.5-1.5,1.9-1.6,3.1-2
				c0.1,0,0.2,0,0.3,0c1.1,1,1.6,0.3,2-0.7c0.2,0,0.4,0,0.6,0C45.9,396.8,47,395.5,47.1,396.9z"/>
			<path id="XMLID_1193_" class="st64" d="M51,401.8c0.4-0.4,1-0.5,1.5-0.9c0.5-0.5,0.8-0.9,0.6-1.8c-0.3-1-0.1-2.1-0.1-3.2
				c0.6,0,0.8,0.5,1.3,0.7c0.9,1.9-0.1,3.4-1,4.9c-0.7,0.2-1.3,0.4-2,0.7C51.2,402,51.1,401.9,51,401.8z"/>
			<path id="XMLID_1192_" class="st65" d="M53.3,401.5c0.8-1.5,1-3.2,1-4.9c0.1,0,0.2,0,0.3,0C55.8,398.7,54.8,400.1,53.3,401.5z"/>
			<path id="XMLID_1191_" class="st33" d="M42.5,397c-0.8,1-2.4,0.9-3,2.2c-0.4,0.1-0.9,0.1-1.3,0.2c-0.3,0-0.6-0.2-0.7-0.5
				c0-0.1,0-0.3,0.1-0.4c0.4-0.3,0.9-0.4,1.3-0.7c0.4-0.2,0.9-0.4,1.3-0.7c0.3-0.1,0.7-0.3,1.1-0.4c0.3-0.1,0.6-0.1,0.9,0.2
				C42.3,396.9,42.4,397,42.5,397z"/>
			<path id="XMLID_1190_" class="st66" d="M47.1,396.9c-0.3-0.2-0.5-0.7-1.1-0.3c-0.4,0.3-0.4,0.3-0.6-0.4c1.1-0.5,2.2-0.5,3.3,0
				C48.3,396.7,47.7,396.8,47.1,396.9z"/>
			<path id="XMLID_1189_" class="st66" d="M44.8,396.3c0.1,0.7-0.1,1.2-0.9,1.4c-0.8,0.2-1-0.2-1.1-0.8
				C43.7,397.2,44.3,396.9,44.8,396.3z"/>
			<path id="XMLID_1188_" class="st67" d="M53,395.9c-0.6-0.3-1.5,0.9-2-0.3c0-0.1-0.1-0.1-0.1-0.2c0-0.1,0.1-0.1,0.1-0.2
				C51.8,395,52.6,395,53,395.9z"/>
			<path id="XMLID_1187_" class="st68" d="M42.1,396.9c-0.3,0-0.6,0-0.9,0.1c-0.4,0.2-0.6,0-0.8-0.3c-0.1-0.2,0-0.3,0-0.4
				c0.1-0.1,0.2-0.2,0.4-0.2c0.4-0.1,0.9-0.3,1.3,0c0.2,0.1,0.5,0.2,0.7,0.3C42.6,396.5,42.4,396.7,42.1,396.9z"/>
			<path id="XMLID_1186_" class="st67" d="M51,395.6c-0.6,1.2-1.5,0.2-2.3,0.3c0.1-0.1,0.2-0.2,0.3-0.3
				C49.7,395.4,50.4,395.4,51,395.6L51,395.6z"/>
			<path id="XMLID_1185_" class="st66" d="M51,395.6c-0.7,0-1.3,0-2,0c0.6-0.6,1.3-0.2,2-0.3C51,395.4,51,395.5,51,395.6z"/>
			<path id="XMLID_1184_" class="st33" d="M20.7,396.6c-0.3,0.4-0.8,0.7-1.2,0.6c-1.2-0.1-2,0.5-2.7,1.3c-0.6,0.2-1.2,1-2,0.4
				c-0.1-0.1-0.2-0.2-0.2-0.4c0.4-1,1.9-0.8,2-2c0.2-0.4,0.4-0.7,0.8-0.8C18.5,396.1,19.6,396.2,20.7,396.6z"/>
			<path id="XMLID_1183_" class="st4" d="M14.8,398.6c0,0.1,0,0.2,0,0.3c-0.5-0.1-1.2,0.2-1.3-0.7c0.2,0,0.4,0,0.7,0
				C14.4,398.2,14.6,398.4,14.8,398.6z"/>
			<path id="XMLID_1182_" class="st69" d="M37,424c0.9,0.7,2.1-0.1,2.9,0.6C38.7,425.6,37.7,425.4,37,424z"/>
			<path id="XMLID_1181_" class="st67" d="M20.7,396.6c-1.2,0.4-2.3-0.1-3.3-0.7c-0.1-0.4,0.2-0.5,0.5-0.7c0.7-0.4,1.3-0.1,1.9,0.3
				c0.8,0.4,1.6-0.5,2.4-0.1c0.1,0.1,0.1,0.1,0.2,0.2C21.8,396,21.2,396.3,20.7,396.6z"/>
			<path id="XMLID_1180_" class="st65" d="M24.2,395.6c-0.6,0.5-1.3,0.1-1.9,0c0,0,0,0,0,0c0.7-1.3,1.9-1.3,3.2-1.1
				C25.5,395.2,25.5,395.2,24.2,395.6z"/>
			<path id="XMLID_1179_" class="st70" d="M27.9,395c-0.4,0-0.7,0-1.1,0c-0.1-0.5,0.3-0.7,0.5-1c0.1-0.1,0.2-0.1,0.4-0.1
				c0.5,0.1,0.9,0.4,1.3,0.7c0.2,0.2,0.2,0.4,0,0.6C28.6,395.1,28.3,395.2,27.9,395z"/>
			<path id="XMLID_1178_" class="st65" d="M27.5,394c0.1,0.5-0.5,0.6-0.7,1c-0.3,0.1-0.6,0.2-0.9,0.3c-0.2-0.2-0.2-0.5-0.2-0.7
				C26.1,393.8,26.8,393.8,27.5,394z"/>
			<path id="XMLID_1177_" class="st5" d="M25.9,394.6c0,0.2,0,0.4,0,0.6c-0.5,0.3-1.1,0.4-1.7,0.3c0.4-0.3,0.9-0.6,1.3-1
				C25.7,394.5,25.8,394.5,25.9,394.6z"/>
			<path id="XMLID_1176_" class="st71" d="M27.9,395c0.4,0,0.8-0.1,1.2-0.1c0.1-0.1,0.2,0,0.3,0.1c0,0.4-0.4,0.5-0.7,0.6
				c-0.3-0.3-0.7-0.2-1-0.3C27.8,395.2,27.8,395.1,27.9,395z"/>
			<path id="XMLID_1175_" class="st72" d="M22.9,380.6c0.5-0.1,1.1-0.2,1.6-0.3c0.6-0.2,0.8,0.2,1.1,0.6c0.1,0.4-0.3,0.9,0.3,1.2
				c0.2,0.2,0.4,0.4,0.6,0.6c0.7,0.3,1.6,0.3,2.3,0.6c0.1,0.1,0.3,0.1,0.4,0.2c0.1,0.3,0,0.6-0.1,0.8c0.1,0.4-0.8,0.1-0.4,0.7
				c0,0.5-0.1,0.9-0.4,1.2c-0.4,0.2-0.7,0.1-1.1-0.1c-0.1-0.1-0.2-0.2-0.3-0.3c0-0.1,0-0.1-0.1-0.2c0-0.1,0-0.1,0-0.2
				c0.3-0.9-0.8-0.5-1-1c0-0.7-0.5-1.2-1-1.6c-0.4-0.4-0.8-0.8-1.3,0.1c-0.3,0.5-1,0.6-1.6,0.5c-0.3,0-0.7,0-0.8-0.4
				c-0.1-0.3,0.1-0.5,0.3-0.7c0.4-0.4,0.8-0.9,1.1-1.4C22.5,380.8,22.7,380.7,22.9,380.6z"/>
			<path id="XMLID_1174_" class="st33" d="M28.2,379.3c0.5,0,1.1,0,1.6,0c0.4,0.1,0.9-0.3,1.3,0l0,0c0.2,0.2,0.6,0.1,0.7,0.3
				c0,0.1,0,0.3-0.1,0.4c-0.4,0.4-0.8,0.6-1.2,0.8c-0.5,0.2-0.9,0.3-1.3,0.6c-0.3,0.2-0.6,0.4-1,0.3c-0.3,0-0.6-0.1-0.9-0.2
				c-0.2,0-0.4-0.1-0.6-0.2c-0.3-0.1-0.5-0.3-0.6-0.6C26.2,379.6,27.7,380.1,28.2,379.3z"/>
			<path id="XMLID_1173_" class="st30" d="M28.2,379.3c-0.1,0.3,0.2,0.8-0.5,0.7c-0.6-0.1-1.1,0.3-1.4,0.9c-0.2,0.2-0.4,0.2-0.6,0
				c-0.3-0.2-0.7-0.4-1-0.7C25.6,379.3,27,379.6,28.2,379.3z"/>
			<path id="XMLID_1172_" class="st16" d="M22.9,380.6c-0.1,0.1-0.2,0.2-0.3,0.3c-0.9,0.6-1.7,1.2-2.9,0.8c-0.2-0.1-0.2-0.3-0.1-0.5
				C20.7,380.6,21.8,380.4,22.9,380.6z"/>
			<path id="XMLID_1171_" class="st70" d="M19.7,381.3c0,0.1,0,0.2,0,0.3c0,0.6,0.5,1.2-0.3,1.6c-0.1,0.1-0.2,0.2-0.3,0.3
				c-0.9-0.8,0.4-1.7-0.2-2.5C19.1,381.1,19.4,381.2,19.7,381.3z"/>
			<path id="XMLID_1170_" class="st73" d="M31.7,380c0-0.1,0-0.2,0-0.3c-0.2-0.4,0.2-0.7,0.3-1c0.5-0.1,1.2,0.2,1.6-0.3
				c0.1,0,0.2,0,0.3,0C33.9,379.8,32.8,379.9,31.7,380z"/>
			<path id="XMLID_1169_" class="st5" d="M31.1,379.3c-0.4-0.1-0.9,0.6-1.3,0C30.2,378.9,30.7,378.8,31.1,379.3z"/>
			<path id="XMLID_1168_" class="st5" d="M32.1,378.7c-0.1,0.3-0.2,0.6-0.3,1c-0.3,0-0.5-0.1-0.6-0.3
				C31.4,379.1,31.8,378.9,32.1,378.7z"/>
			<path id="XMLID_1167_" class="st74" d="M30.4,408c-0.3,0.1-0.6,0.2-1,0.3c-0.3,0-0.6-0.1-0.9-0.2c-0.9-0.4-1.9-0.7-2.8-0.9
				c-0.5-0.1-0.8-0.2-0.7-0.8c0.2-0.5,0.6-0.7,1.1-0.9c0.5-0.1,0.9,0,1.4,0.1c0.6,0.3,1.2,0,1.8-0.1c1.2-0.3,2.3-0.8,3.5-0.9
				c0.9-0.1,1.6,0,1.8,1.1c0,0.2-0.1,0.4-0.3,0.6c-0.5,0.6-1.1,0.9-1.8,1C31.8,407.6,31.1,407.8,30.4,408L30.4,408z"/>
			<path id="XMLID_1166_" class="st75" d="M19,410.6c0.8-0.7,1.9,0.6,2.7-0.7c0-0.5-0.9-0.2-1.1-0.6c-0.1-0.1-0.1-0.2-0.1-0.3
				c0-0.1,0-0.1,0.1-0.1c0.7-0.5,1.6-0.4,2.4-0.8c1.6,0.2,0.8,1.4,0.9,2.2l0,0c-0.4,0.3-0.8,0.5-1,1c-0.1,0.1-0.2,0.2-0.3,0.3
				c-0.5,0.2-1.2-0.1-1.7,0.3c-0.5,0.1-1,0.3-1.5,0.1C18.9,411.7,19.5,411,19,410.6z"/>
			<path id="XMLID_1165_" class="st76" d="M19.3,411.9c0.5-0.1,1.1-0.2,1.6-0.3c0.2,0.2,0.5,0.1,0.7,0.3c0,0.1,0,0.2,0,0.3
				c-0.8,0.5-1.7,0.8-2.6,0.7c-0.9-0.1-2.1,0.1-2.3-1.5c0-0.4-0.7-0.3-1-0.6c-0.5,0.1-0.7-0.1-0.6-0.6c0.3,0,0.7,0,0.9-0.4
				c0.4,0.6,0.9,1,1.3,0c0,0,0,0,0,0c0.2,0.2,0.5,0.4,0.7,0.7c0.3,0.1,0.7,0.2,1,0.3c0.3,0.3,0.1,0.6,0.1,1c0,0.2,0.2,0.3,0.1,0.1
				C19.1,411.8,19.5,412.1,19.3,411.9z"/>
			<path id="XMLID_1164_" class="st60" d="M28.8,408c0.3,0,0.5,0.1,0.7,0.3c-1.6,0.6-3,1.9-4.9,1.6c-0.7-0.5-0.8-1,0-1.5
				c0.1,0,0.3,0,0.4,0.1c0.2,0.1,0.3,0.4,0.5,0.1c0.2-1,0.6-1.7,1.7-0.9C27.7,408.3,28.3,407.7,28.8,408z"/>
			<path id="XMLID_1163_" class="st77" d="M24.9,408.7c-1.1,0.2-0.5,0.8-0.3,1.3c-0.1,0.2-0.1,0.5-0.2,0.7c-0.2-0.1-0.3-0.2-0.5-0.4
				c0.2-0.4-1.4-0.4-0.2-1.2c0.4-0.3-0.3-0.7-0.7-0.8c-0.1-0.1-0.1-0.3-0.1-0.4c0.2-0.3,0.5-0.6,0.9-0.7
				C24.4,407.5,25,407.8,24.9,408.7z"/>
			<path id="XMLID_1162_" class="st22" d="M22.9,411.3c-0.1-0.7,0.2-1.1,1-1C23.9,411,23.3,411.1,22.9,411.3z"/>
			<path id="XMLID_1161_" class="st22" d="M21.6,412c-0.3,0-0.5-0.1-0.7-0.3c0.5-0.5,1.1-0.1,1.6,0C22.4,412,22,411.9,21.6,412z"/>
			<path id="XMLID_1160_" class="st78" d="M46.7,417.1c-0.4,0-0.8-0.3-1.3,0c-0.1-0.1-0.2-0.3-0.2-0.4c0.6-0.7,0.2-1.7,0.8-2.4
				c0.3-0.3,0-0.3-0.2-0.4c-0.3-0.2-0.7-0.4-0.7-0.7c0-1.8-1.5-1.3-2.4-1.7c0.1-0.2-0.9-0.9,0.3-0.7c0.5,0.1,0.8-0.1,1.1-0.5
				c0.2,0,0.4,0,0.6-0.1c1.4,0.7,3,1.3,3.1,3C47.9,414.6,47.6,416,46.7,417.1z"/>
			<path id="XMLID_1159_" class="st5" d="M36.6,419.4c0.2-0.5,0.4-1-0.5-0.9c-1.3,0.4-2.5-0.1-3.6-0.7c-0.1-0.1-0.1-0.2-0.1-0.4
				c0.1-0.2,0.2-0.4,0.4-0.5c0.2-0.1,0.4-0.2,0.6-0.3c1.2,0.2,2.2,1.4,3.5,1c0.3,0,0.6,0,0.9,0.2c0.3,0.2,0.4,0.4,0.4,0.7
				c0,0.1-0.1,0.3-0.2,0.4c-0.3,0.3-0.6,0.5-1.1,0.6C36.8,419.6,36.6,419.5,36.6,419.4z"/>
			<path id="XMLID_1158_" class="st79" d="M28.9,416.8c0.1-0.3,0.1-0.6-0.4-0.6c-0.8-0.1-0.9-0.6-0.7-1.3c1.8-0.5,2-0.3,1.8,1.8
				c-0.1,0.1-0.1,0.1-0.2,0.2C29.3,416.8,29.1,416.8,28.9,416.8z"/>
			<path id="XMLID_1157_" class="st29" d="M32.4,417.5c0,0.1,0,0.2,0,0.3c-0.7,0.5-1.3,0.5-2,0c-0.1-0.1-0.1-0.3,0-0.4
				C31.1,417.1,31.8,417.3,32.4,417.5z"/>
			<path id="XMLID_1156_" class="st38" d="M30.4,417.5c0,0.1,0,0.2,0,0.3c-0.7,0.1-1-0.2-1-1c0,0,0-0.1,0-0.1
				c0.1-0.1,0.2-0.1,0.4-0.1C30.1,416.9,30.4,417.1,30.4,417.5z"/>
			<path id="XMLID_1155_" class="st51" d="M41.9,422.4c0,0.1,0,0.2,0,0.3c-0.6,0.5-1.1,1.1-1.9,1c-0.1-0.1-0.2-0.2-0.2-0.3
				c0.1-0.4-0.3-0.7,0-1.1C40.5,421.6,41.2,421.4,41.9,422.4z"/>
			<path id="XMLID_1154_" class="st80" d="M39.6,422.4c0.2,0.3,0.7,0.5,0.3,1c-0.3,0.2-0.7,0.3-1,0c-1,0.1-1-0.6-1-1.3
				c0-0.1,0-0.2,0-0.3c0.1-0.1,0.2-0.1,0.4-0.1c0.3,0.2,0.7,0.4,1.1,0.6C39.5,422.3,39.5,422.3,39.6,422.4z"/>
			<path id="XMLID_1153_" class="st34" d="M38.9,423.4c0.3,0,0.7,0,1,0c0,0.1,0,0.2,0,0.3C39.5,423.9,39,424.2,38.9,423.4z"/>
			<path id="XMLID_1152_" class="st81" d="M31.7,380c0.8-0.5,1.7-0.7,2.3-1.6c0.1,0,0.2-0.1,0.3-0.1c0.3-0.2,0.6,0,0.8,0.1
				c0.5,0.3,0.5,1,1.1,1.2c0.1,0.1,0.2,0.2,0.3,0.3c0.8,1.4-0.7,1.7-1.2,2.4c-0.2,0.1-0.4,0.1-0.6,0.1c-1.1,0.1-2.1,0-3.1,0.5
				c-0.1,0-0.3,0.1-0.4,0.1c-0.5-0.1-1.1-0.2-1.6,0c-0.1,0-0.3,0.1-0.4,0.1c-0.8,0.1-1.5-0.2-2.3-0.3c-0.1-0.1-0.1-0.3,0-0.4
				c0.1-0.1,0.1-0.3,0.2-0.4c0.3-0.4,0.8-0.3,1.1-0.5c0.3-0.1,0.6-0.2,1-0.3c0.4-0.2,1-0.1,1.3-0.6C30.9,380.4,31.2,379.9,31.7,380z
				"/>
			<path id="XMLID_1151_" class="st73" d="M35,378.7c-0.2-0.1-0.4-0.2-0.6-0.3c1.4-0.6,2.4-0.2,2.9,1.3c-0.3,0.3-0.6,0.3-0.9,0.2
				C35.9,379.4,35.7,378.7,35,378.7z"/>
			<path id="XMLID_1150_" class="st82" d="M36.3,379.6c0.3,0,0.6,0,1,0c0.3,0.5,0.4,1,0.3,1.6c0,0-0.2,0-0.2,0l-0.2,0
				c-0.6-0.2-0.3-1.1-0.9-1.3l0,0c-0.1-0.1-0.1-0.1-0.1-0.2C36.3,379.7,36.3,379.6,36.3,379.6z"/>
			<path id="XMLID_1149_" class="st83" d="M45.5,416.8c0,0.1,0,0.2,0,0.3c-0.2,0.2-0.4,0.4-0.7,0.6c-0.2,0.2-0.4,0.4-0.6,0.6
				c-0.8,0.4-1.7,0.3-2.5,0c0.2,0.1-0.1,0,0,0c1.3,0.4,2.2,0.8,0.4,1.9c-0.9,0.2-1.7,0.2-2.6,0.1c-0.9-0.1-1.8-0.5-1-1.7
				c0.3-0.9-0.7-0.5-0.9-0.8c-0.1-0.2-0.2-0.4-0.1-0.6c0.2-0.5,0.8-0.8,0.8-1.4c0-0.5,0.2-1.1,1-0.9c0.5,2.3,0.5,2.3,3.7,1.6
				C43.8,416.4,44.7,416.2,45.5,416.8z"/>
			<path id="XMLID_1148_" class="st77" d="M38.9,418.8c-1.4,1.1,0,1.2,0.6,1.3c0.9,0.1,1.8,0,2.7,0c0.1-0.1,0.2-0.1,0.3,0
				c0.3,0.4,0.9,0.7,0,1.1c-0.4,0.2-0.7,0.6-0.7,1.1c-0.8-0.7-1.5-0.2-2.3,0c0,0,0,0,0,0c-0.4-0.8-1.2-1.3-1.9-1.9
				c-0.5-0.6-0.5-1.2,0.2-1.7l0,0C38.3,418.4,38.6,418,38.9,418.8z"/>
			<path id="XMLID_1147_" class="st77" d="M42.5,420.1c-0.1,0-0.2,0-0.3,0c0.6-0.5,0.9-1.1-0.2-1.3c-0.5-0.1-1-0.1-1.6-1
				c1.4,0.8,2.6,0.3,3.7,0.7C43.8,419.2,43.4,419.9,42.5,420.1z"/>
			<path id="XMLID_1146_" class="st84" d="M18,395.6c-0.3,0-0.5,0.1-0.7,0.3c-0.2,0.2-0.4,0.4-0.6,0.7c-0.2,0.2-0.3,0.4-0.6,0.6
				c-1.4,1.1-1.6,1-2.4-0.6c-0.9-0.8,0.5-1.3,0.3-1.9c0.4,0,0.9,0,1.3,0c0.2-0.2,0.4-0.3,0.6-0.4c0.8-0.2,1.6-0.7,2.4-0.9
				c1.1-0.2,1.5,0.2,1.3,1.3c-0.4,0.2-0.8,0.1-1.2,0.3C18.3,395.1,18.2,395.4,18,395.6z"/>
			<path id="XMLID_1145_" class="st85" d="M13.8,396.6c1,1.8,2,0.1,2.9,0c0.2,0.5,0.4,0.8-0.3,1.1c-0.6,0.2-1.1,0.6-1.6,0.9
				c-0.3,0-0.5-0.1-0.7-0.3C14.2,397.6,13.3,397.3,13.8,396.6z"/>
			<path id="XMLID_1144_" class="st48" d="M15.2,410.4c0.2,0.2,0.4,0.4,0.6,0.6c0,0.4,0,0.9,0,1.3c-0.3-0.2-0.6-0.4-1-0.7
				c0.2-1-0.4-2,0.3-3C15.1,409.2,15.1,409.8,15.2,410.4z"/>
			<path id="XMLID_1143_" class="st48" d="M16.7,413.6c-0.8,0-1-0.6-1-1.3C16.8,412.2,16.8,412.9,16.7,413.6z"/>
			<path id="XMLID_1142_" class="st64" d="M46.8,402.5c0.2,0,0.4,0,0.7,0c-0.2,0.4-0.4,0.8-0.3,1.3c-0.3,0.1-0.3,0.4-0.3,0.7
				c-1.4,0.1-2.5,1.2-3.8,1.5c-0.1,0.2-0.9-0.5-0.6,0.4c0.4,1.3-1,1.4-1.4,2.1c-0.7,0.1-0.7,0.8-1,1.2l0,0c-0.3,0.2-0.7,0.1-1,0
				c-0.1-0.1-0.2-0.1-0.3-0.2c-0.1-0.5-0.1-1,0-1.5c0.2-0.4,0.6-0.6,0.8-1c0.4-0.6,1-0.4,1.5-0.3c-0.7-0.2-1.2-0.2-1.7,0.4
				c-0.5,0.3-0.9,0.1-1.3-0.2c-0.4-0.5-1.2-0.9-0.1-1.5c0.6-0.3,1.3-0.4,1.9-0.7l0,0c1.6-0.5,3.2-0.9,4.6-2l0,0
				C45,402.9,45.8,401.8,46.8,402.5z"/>
			<path id="XMLID_1141_" class="st86" d="M28.8,397.6c-0.1-0.3-0.2-0.6-0.3-1c0.3,0,0.5-0.1,0.7-0.3c0.5-0.3,0.9-0.1,1.2,0.3
				C30.6,398,30.3,398.1,28.8,397.6z"/>
			<path id="XMLID_1140_" class="st87" d="M30.1,396.6c-0.3-0.1-0.6-0.2-1-0.3c0.2-0.4,0.4-0.8,0.7-1.2c0.1-0.2,0.3-0.3,0.6-0.4
				c0.2,0,0.5,0,0.7,0.1c0.1,0.1,0.2,0.2,0.2,0.4c-0.1,0.4-0.3,0.7-0.5,1C30.6,396.4,30.5,396.8,30.1,396.6z"/>
			<path id="XMLID_1139_" class="st88" d="M30.4,395c-0.2,0-0.4,0.1-0.6,0.1c-0.1,0-0.2-0.1-0.4-0.1c-0.1,0-0.2,0-0.3-0.1
				c-0.1-0.1-0.2-0.2-0.4-0.3c0-0.4,0.3-0.6,0.6-0.7c0.5-0.1,1-0.4,1.3,0.1C31,394.4,30.7,394.7,30.4,395z"/>
			<path id="XMLID_1138_" class="st51" d="M49.7,392c-1,0.9-2.4,0.8-3.6,1.3c-0.1,0-0.1-0.1-0.2-0.1c-0.2-0.2-0.3-0.4-0.2-0.6
				c0.3-0.7,1.4-0.4,1.7-1C48.3,391.5,49.1,391.4,49.7,392L49.7,392z"/>
			<path id="XMLID_1137_" class="st66" d="M46.1,393.3c-0.6,0.7-1.5,1-2.3,1.3c-0.4-0.1-0.8-0.2-0.8-0.7
				C44.4,392.3,44.4,392.3,46.1,393.3L46.1,393.3z"/>
			<path id="XMLID_1136_" class="st22" d="M43.2,394c0.2,0.2,0.4,0.4,0.6,0.6c-0.2,0.1-0.4,0.2-0.6,0.4c-0.6,0.4-1.3,0.5-2,0.2
				c-0.7-0.5-0.6-0.9,0.1-1.2C41.9,393.8,42.5,393.6,43.2,394z"/>
			<path id="XMLID_1135_" class="st66" d="M41.2,395c0.7,0,1.3,0,2,0c0,0.1,0,0.3,0,0.4c-0.1,0.3-0.4,0.3-0.6,0.3
				c-0.5,0.1-1,0.4-1.5,0.4c-0.2-0.1-0.2-0.2-0.3-0.3C40.8,395.4,41,395.2,41.2,395z"/>
			<path id="XMLID_1134_" class="st89" d="M19.3,394.6c0.3-0.2,0.7-0.3,0.3-0.7c-0.4-0.4-1-0.4-1.4-0.2c-0.7,0.4-1.4,0.7-2.2,0.9
				c-0.4-0.5-0.4-1.1-0.3-1.6c0.1,0,0.2,0,0.3,0c0.2-0.5,0.2-1.2,0.7-1.6c0.7-0.7,1.3-1.3,2-2c0.2-0.1,0.4-0.2,0.6-0.3
				c0.3-0.2,0.6-0.3,0.9-0.4c0.6-0.1,1.1-0.4,1.7,0c0.2,0.2,0.1,0.4,0,0.6c-0.3,0.3-0.6,0.4-1,0.5c-1.9,0.8-2,1.2-1,2.8
				c0.8-0.8,1.8-1.3,2.7-1.7c0.4-0.2,0.9-0.2,1.3-0.4c0.9-0.2,1.8-0.5,1.2,1c-0.2,0.1,0.1,0.1-0.1,0.1c-2.7,0.4-3.8,2.7-5.4,4.4
				c-0.5-0.3-1-0.9-1.6-0.3c0-0.4-0.1-0.7,0.3-1C18.7,394.9,19,394.6,19.3,394.6z"/>
			<path id="XMLID_1133_" class="st74" d="M16.7,391.4c0.1,0.4-0.5,0.8,0,1.3c0.2,0.2,0.4,0.5-0.1,0.5c-0.2,0-0.4-0.1-0.6-0.2
				c-0.3-0.4-0.3-0.9,0-1.3C16.3,391.6,16.5,391.5,16.7,391.4z"/>
			<path id="XMLID_1132_" class="st74" d="M15.8,393c0.3,0.5,0.4,1.1,0.3,1.6c-0.2,0-0.4,0-0.6,0C15.5,394.1,15.2,393.5,15.8,393z"
				/>
			<path id="XMLID_1131_" class="st22" d="M40.9,408.3c0.3-0.7,1.4-0.9,1.3-2c0.1-0.3,0.4-0.5,0.7-0.6c1.3-0.4,2.2-2.2,3.9-1.3
				c0,0.8-0.7,0.7-1.1,0.9c-0.6,0.2-1.2,0.5-1.5,1.1c-0.7,0.3-1.3,0.6-1.7,1.3c-0.6,0-0.8,0.5-1.3,0.7
				C41.1,408.5,41,408.5,40.9,408.3z"/>
			<path id="XMLID_1130_" class="st58" d="M29.8,416.8c-0.1,0-0.2,0-0.3-0.1c0-1.1-0.1-2.1-1.6-1.9c0,0,0,0,0,0
				c-0.4-0.4,0.3-0.9,0-1.3c0.3-0.7,0.6-1.3,1-2c1,0.4,1-1.3,2-1c0.1,0.1,0.2,0.2,0.2,0.4c0,0.1,0,0.2,0,0.3c-0.8,1-1,2-0.3,3.1
				c0.2,0.8,1.3,1,1.4,2c0.1,0.3,0,0.7-0.3,0.9C31,417.5,30.4,417.3,29.8,416.8z"/>
			<path id="XMLID_1129_" class="st74" d="M30.8,411c0-0.1,0-0.2,0-0.3c0.3-0.6,1-1.1,1-2c0.2-0.2,0.4-0.2,0.6-0.2
				c0.3,0.1,0.6,0.2,0.7,0.5c0.1,0.4-0.2,0.7-0.4,1c-0.3,0.5-0.5,1.1-1,1.5C31.3,411.6,31,411.3,30.8,411z"/>
			<path id="XMLID_1128_" class="st24" d="M30.4,408c0.7-0.3,1.1-1,2-1c0.2,0.2,0.2,0.4,0.2,0.6c-0.1,0.2-0.2,0.4-0.3,0.6
				c-0.3,0.2-0.5,0.3-0.8,0.1C31.2,408,30.8,408,30.4,408z"/>
			<path id="XMLID_1127_" class="st90" d="M31.4,408.4c0.3,0,0.5-0.1,0.7-0.3c0.3-0.2,0.6-0.2,0.7,0.2c0.1,0.3-0.1,0.5-0.4,0.5
				c-0.2,0-0.4,0-0.6,0C31.6,408.6,31.5,408.5,31.4,408.4z"/>
			<path id="XMLID_1126_" class="st65" d="M22,388.8c-0.5,0.1-1.1,0.2-1.6,0.3c-0.1-0.3-0.1-0.7,0-1c0.1-0.3,0.3-0.5,0.6-0.7
				c0.5-0.4,1.2-0.5,1.6-1l0,0c0.4-0.3,0.6,0.6,1,0.2c0.2-0.3,0-0.8,0.5-1c1.5,0,1.5,0,1.3,1.9C24.4,388.7,23.2,388.8,22,388.8z"/>
			<path id="XMLID_1125_" class="st72" d="M25.2,387.5c-0.2,0-0.5-0.1-0.4-0.3c0.8-1.3,0.1-1.3-0.9-1.3c-0.1-0.1-0.1-0.1-0.1-0.2
				c0-0.1,0.1-0.1,0.1-0.1c0.3-0.1,0.3-0.4,0.3-0.6c0.5,0,0.9-0.1,1.3-0.3c0.1,0,0.1,0.1,0.2,0.1c0.4,0.2,1.3-0.1,1.1,0.9l0,0
				c-0.3,0.2-0.3,0.6-0.4,0.9c-0.2,0.2-0.2,0.4-0.1,0.6c-0.1,0.4-0.5,0.5-0.9,0.5C25.4,387.5,25.3,387.5,25.2,387.5z"/>
			<path id="XMLID_1124_" class="st91" d="M23.9,386.8c-0.2,0.3-0.2,0.8-0.7,0.8c-0.6-0.1-0.1-0.9-0.7-1.1c-0.4-0.8,0.2-0.6,0.7-0.7
				C23.7,386,23.8,386.4,23.9,386.8z"/>
			<path id="XMLID_1123_" class="st91" d="M22.6,386.5c-0.2,0.9-0.9,0.9-1.6,1C21.3,386.8,21.8,386.4,22.6,386.5z"/>
			<path id="XMLID_1122_" class="st92" d="M20.3,388.1c0.2,0.3,0.2,0.7,0,1c-0.3,0-0.7,0-1,0c0-0.5,0.5-0.6,0.7-0.9
				C20.1,388.1,20.2,388.1,20.3,388.1z"/>
			<path id="XMLID_1121_" class="st93" d="M23.6,384.9c0.2-0.4,0.2-0.7-0.3-0.7c0.3-0.3,0.6-0.4,1-0.2c0.4,0.2,0,0.5,0,0.8
				C24,384.8,23.8,384.8,23.6,384.9z"/>
			<path id="XMLID_1120_" class="st94" d="M23.9,386.8c-0.2-0.3-0.4-0.7-0.7-1c0.2-0.1,0.4-0.2,0.7-0.3c0,0.1,0,0.2,0,0.3
				C23.8,386.2,24.3,386.5,23.9,386.8z"/>
			<path id="XMLID_1119_" class="st24" d="M27.8,413.6c0.6,0.4,0.2,0.9,0,1.3c-0.2,0-0.4,0-0.6,0C27,414.3,27.5,413.9,27.8,413.6z"
				/>
			<path id="XMLID_1118_" class="st62" d="M45.5,416.8c-1,0-2,0-2.9,0c-0.7,0.2-1.5,0.4-2-0.3c-0.4-0.7-0.1-1.3,0.6-1.8
				c0.3-0.2,0-0.6,0-0.9c0-0.3,0.1-0.6,0.2-0.8c0.1-0.1,0.2-0.2,0.3-0.3c0.5-0.2,0.6-0.8,0.9-1.1c0.1,0,0.2,0,0.3,0
				c0.7-0.6,1.4,0,2.1,0.1c1.2,0.2,0.9,0.7,0.5,1.4c0,0.1,0.5,0.5,0.8,0.7c0.2,0.1,0.4-0.6,0.7-0.2c0.2,0.4-0.1,0.7-0.4,0.9
				c-0.4,0.2-0.7,0.3-0.3,0.9C46.6,416.1,45.8,416.4,45.5,416.8z"/>
			<path id="XMLID_1117_" class="st77" d="M40.9,411c0.4,0.2,0.9,0.4,1.3,0.7c0.2,0.6-0.3,0.9-0.7,1.3h0c-1.8,0.7-2,0.7-2.3-0.8
				C39.2,410.9,40.3,411.3,40.9,411z"/>
			<path id="XMLID_1116_" class="st95" d="M40.9,411c-0.4,0.5-1.6,0.2-1.3,1.3c-0.2,0.2-0.4,0.2-0.6,0.2c-0.6-0.2-0.9-0.6-0.8-1.2
				c-0.1-0.8,0-1.5,0.8-1.9c0.3,0.1,0.6,0.2,1,0.3c0,0.1,0,0.2,0,0.3c-0.2,0.2-0.4,0.4-0.6,0.6C39.7,411.2,40.3,410.9,40.9,411z"/>
			<path id="XMLID_1115_" class="st96" d="M41.5,412.9c-0.1-0.6,0.3-0.9,0.7-1.3c0.1,0,0.2,0,0.3,0C42.5,412.3,42.6,413,41.5,412.9z
				"/>
			<path id="XMLID_1114_" class="st73" d="M37.9,418.8c-0.4,0.5-0.4,1.1,0,1.6c0,0.5,1.2,0.6,0.3,1.3c-0.1,0-0.2,0-0.3,0
				c-0.3-0.2-0.6-0.4-1-0.7c-0.3-0.5-0.2-1.1,0-1.6C37.1,419,37.5,418.8,37.9,418.8z"/>
			<path id="XMLID_1113_" class="st10" d="M37,419.5c0.5,0.5,0.1,1.1,0,1.6c-0.5-0.4-0.7-0.9-0.7-1.5c0.1-0.1,0.2-0.1,0.3-0.1
				C36.7,419.4,36.8,419.4,37,419.5z"/>
			<path id="XMLID_1112_" class="st97" d="M19.3,383.2c0.4-0.5-0.4-1.2,0.3-1.6c1.1,0.2,1.9-0.7,2.9-0.7c0.1,1-0.7,1.5-1.3,2.1
				c1.7,0.4,1.7,0.4,2.4-1.6c0.7,1.1,2.3,1.6,2.2,3.2c-0.1,0.1-0.2,0.1-0.3,0c0,0,0,0,0,0c-0.2-1-0.6-1.4-1.7-1
				c-0.7,0.3-1.6,0.3-2.2,0.7C20.6,384.4,20.1,383.6,19.3,383.2z"/>
			<path id="XMLID_1111_" class="st78" d="M49.7,392c-0.8-0.1-1.5-0.2-2.3-0.3c-0.1-0.2-0.1-0.3,0.1-0.5c2.5-0.1,4.8-0.8,6.5-2.9
				c0.9,0.4,0.6,1,0.3,1.6c-0.3,0.6-0.8,1.2-1.2,1.7c-0.4,0-0.8,0.1-1.3,0.1C51,391.8,50.3,391.5,49.7,392z"/>
			<path id="XMLID_1110_" class="st98" d="M53,391.6c0-0.6,0.1-1,0.6-1.4c0.5-0.4,1.1-1,0.4-1.8c0-0.1-0.1-0.1-0.1-0.2
				c0-0.5-0.2-1,0.4-1.3c0.7,0.1,1.2,0.4,1.1,1.2l0,0c-0.2,0.6,0,1.2-0.3,1.8c-0.1,0.1-0.1,0.2-0.2,0.4c-0.2,0.4-0.4,0.9-0.8,1.1
				C53.6,391.5,53.3,391.5,53,391.6z"/>
			<path id="XMLID_1109_" class="st34" d="M55.6,388.4c0.4,0.2,0.7,0.5,0.9,0.9c-0.8,0.1-0.5,1.5-1.5,1.4c-0.6,0-0.5-0.3-0.3-0.7
				l0,0C55.6,389.9,54.9,388.8,55.6,388.4z"/>
			<path id="XMLID_1108_" class="st24" d="M54.6,390.1c0,0.3,0.1,0.5,0.3,0.7c-0.2,0.4-0.5,0.7-1,0.6
				C54.2,390.9,54.4,390.5,54.6,390.1z"/>
			<path id="XMLID_1107_" class="st95" d="M40.9,408.3c0.1,0,0.2,0,0.3,0c-0.4,0.4-0.9,0.9-1.3,1.3C39.9,409,39.9,408.3,40.9,408.3z
				"/>
			<path id="XMLID_1106_" class="st99" d="M40.9,396c0.6,0,1.1-0.5,1.7-0.3c-0.1,0.1-0.2,0.2-0.4,0.3c-0.4,0.1-0.8,0.4-1.3,0.3
				C40.8,396.1,40.8,396,40.9,396z"/>
			<path id="XMLID_1105_" class="st30" d="M33.7,382.9c-0.1,0.1-0.2,0.2-0.3,0.3c-0.8,0.8-1.9,0.9-3,1.3c0-0.1-0.1-0.1-0.1-0.2
				c-0.3-1,0.8-0.8,1.1-1.3c0.7-0.4,1.4-0.8,2.2-0.3C33.6,382.8,33.7,382.9,33.7,382.9z"/>
			<path id="XMLID_1104_" class="st30" d="M28.2,386.2c0-0.5,0.1-0.9,0.3-1.3c0.6-0.3,1.2-0.8,1.9-0.3c0,0,0,0,0,0
				c-0.3,0.3-0.6,0.7-1,1c0,0.1,0,0.1-0.1,0.2c-0.5,0.5-0.2,0.8,0.2,1.2c0,0.2-0.1,0.3-0.2,0.4c-0.6,0.2-1.1,0.3-1.6-0.3
				C27.7,386.6,27.9,386.4,28.2,386.2z"/>
			<path id="XMLID_1103_" class="st100" d="M30.4,385.5c0.4,0.6,1.1,0.1,1.6,0.3c-0.4,1.1-1.4,0.7-2.2,0.9c-1-0.2-0.9-0.7-0.4-1.3
				c0,0,0,0,0,0C29.8,385.5,30.1,385.5,30.4,385.5z"/>
			<path id="XMLID_1102_" class="st73" d="M29.8,386.5c0.7-0.4,1.6-0.2,2.3-0.7c1.1-0.1,2.1-0.2,3.2-0.4c0.4,0.1,0.8,0,1,0.4
				c-0.3,0.7-0.9,1-1.5,1.3c-0.2,0.1-0.4,0.1-0.7,0.2c-0.7-0.1-1.2,0.4-1.7,0.7c-1-0.1-1.9-0.6-2.9-0.8c0-0.1,0-0.2,0-0.3
				C29.5,386.7,29.7,386.6,29.8,386.5z"/>
			<path id="XMLID_1101_" class="st30" d="M34.7,382.2c0.2,0,0.4,0,0.6,0c0.3-0.2,0.6-0.3,0.9,0c0.1,0,0.1,0.1,0.2,0.1
				c-0.2,0.1-0.5,0.2-0.7,0.3c-0.7-0.1-1.2,0.8-2,0.3c0,0,0,0,0,0C33.7,382.2,34.2,382.2,34.7,382.2z"/>
			<path id="XMLID_1100_" class="st22" d="M36.2,382.2c-0.3,0-0.6,0-0.9,0c0.1-0.9,1.8-1,1-2.3c0.8,0,0.6,0.8,0.9,1.3
				C36.9,381.5,36.5,381.9,36.2,382.2z"/>
			<path id="XMLID_1099_" class="st22" d="M39.6,385.2c1-0.2,1.9,0.4,2.9,0.3c1-0.7,2,0,2.9,0c0.1,0.8-0.6,0.8-1.1,0.9
				c-0.6,0.1-1.2,0.4-1.8,0.7c-1.2,0.2-2.3,0.1-3.2-0.9C39.3,385.9,39.3,385.5,39.6,385.2z"/>
			<path id="XMLID_1098_" class="st78" d="M46.4,386.2c2.1-1.1,4.3-0.8,6.5-1c0,0,0,0,0,0c0.4,0.6,0.7,1.1,0,1.7
				c-2.1-1.1-4.1-0.5-6.2,0c-0.2,0-0.5-0.1-0.7-0.3C46,386.3,46.1,386.1,46.4,386.2z"/>
			<path id="XMLID_1097_" class="st84" d="M46.1,386.5c0.2,0,0.4,0,0.7,0c-0.1,0.9-0.9,0.8-1.5,0.9c-0.8-0.2-1.6,0.3-2.4-0.2
				c-0.1-0.1-0.1-0.3,0-0.4c0-0.8,0.8-0.6,1.2-0.7c0.5-0.2,1.1,0,1.4-0.6c0.1,0,0.2,0,0.3,0C46.1,385.8,45.8,386.2,46.1,386.5z"/>
			<path id="XMLID_1096_" class="st22" d="M46.1,386.5c-0.9-0.1-0.2-0.7-0.3-1c0.6-0.2,0.4,0.4,0.7,0.7
				C46.3,386.3,46.2,386.4,46.1,386.5z"/>
			<path id="XMLID_1095_" class="st101" d="M53,386.8c0.3-0.5-0.1-1.1,0-1.6c0.4,0.1,0.9,0.2,1.3,0.3c0.1,0.3,0.4,0.3,0.7,0.3
				c0,0.8,1.3,1.3,0.7,2.3c-0.1,0-0.2,0-0.3,0c-0.3-0.5-0.6-1-1.3-1c-0.3,0.2-0.5,0.1-0.7-0.1C53.1,387,53,386.9,53,386.8z"/>
			<path id="XMLID_1094_" class="st34" d="M55.6,388.1c0.2-0.9-1.2-1.3-0.7-2.3C55.4,386.5,56.8,386.9,55.6,388.1z"/>
			<path id="XMLID_1093_" class="st101" d="M55.6,388.4c-0.2,0.6,0.4,1.7-1,1.6c0.3-0.6,0-1.4,0.7-1.9
				C55.4,388.2,55.5,388.3,55.6,388.4z"/>
			<path id="XMLID_1092_" class="st63" d="M34.7,386.8c0.5-0.3,1.1-0.7,1.6-1c0.1,0,0.2,0,0.3,0c0.7,0.6,1.8-0.4,2.4,0.6
				c-0.6,0.4-0.7,1.1-1,1.6c-0.5,0.4-1.1,0.6-1.8,0.7C35.3,388.4,34.9,387.7,34.7,386.8z"/>
			<path id="XMLID_1091_" class="st73" d="M38.9,386.5c-0.6-0.7-1.9,0.7-2.3-0.6c0.9-0.6,2-0.3,2.9-0.6c0,0.3,0,0.6,0,1
				C39.5,386.5,39.3,386.6,38.9,386.5z"/>
			<path id="XMLID_1090_" class="st98" d="M30.1,396.6c0.3-0.1,0.3-0.4,0.3-0.7c0.6-0.1,0.6,0.4,0.7,0.7c0.3,1,1.7,1.1,1.7,2.4
				c-0.1,0.7-0.4,1.1-1.2,1.1c-0.3-0.2-0.5-0.1-0.6,0.3c-0.1,0.1-0.2,0.2-0.3,0.3c-0.2,0.1-0.3,0.2-0.5,0.2c0.2,0.1,0.5,0,0.6,0.3
				c0,0.4-0.3,0.5-0.6,0.6c-0.9,0.1-1.6,1.1-2.6,0.9c-0.7-0.4-1.2-1.4-2.2-0.6c-0.4,0.3-0.8,0.4-1.3,0.3c-0.6-0.2-0.4-0.8-0.6-1.2
				c-0.3-0.5,0.3-0.7,0.4-0.6c1.1,0.9,1.3-0.4,1.9-0.7c0.2,0.2,0.3,0.5,0.6,0.3c0.3-0.2-0.1-0.1-0.1-0.1c-0.2,0-0.4-0.1-0.6-0.2
				c0.6-0.7,1.9-0.3,2.3-1.3c0.7,0.3,0.3-0.6,0.7-0.7c0-0.1,0-0.2,0-0.3C29.3,397.3,30.7,398.3,30.1,396.6z"/>
			<path id="XMLID_1089_" class="st75" d="M23.6,401.2c0.2,0.3,0.4,0.7,0.7,1c0.1,0.3-0.3,1.1,0.6,0.6c0.3-0.2,0.6-0.4,1-0.6
				c0.6-0.2,0.9-0.1,0.9,0.6c0,0.2-0.1,0.3-0.2,0.5c-1.3,1.1-2.9,1.3-4.4,2c-0.7,0.3-1.4,0.4-2,1c-0.4,0.4-0.9,0.4-1.2-0.2
				c0.2-0.4,0.2-0.7-0.3-0.7c0-1,1.1-0.7,1.5-1.2c0.1-0.2,0.2-0.3,0.4-0.5c0.1-0.1,0.3-0.1,0.4-0.1c0.8-0.1,0.3-0.4,0.1-0.6
				c0-0.1-0.1-0.1-0.1-0.2c0.3-1.1,0.3-1,1.4-0.7C23,402.3,23.1,401.4,23.6,401.2z"/>
			<path id="XMLID_1088_" class="st85" d="M20.6,404.4c-0.7,0.3-1.3,0.7-2,1c-0.7,0-0.7-0.5-0.7-1c1.2,0.3,0.7-1.3,1.6-1.3
				c0.2,0.2,0.6,0.1,0.7,0.3C20.5,403.8,20.3,404.2,20.6,404.4z"/>
			<path id="XMLID_1087_" class="st96" d="M20.3,403.5c-0.3,0-0.5-0.1-0.6-0.3c0.5,0,0.9-0.1,1.3-0.3c0,0,0,0,0,0
				c0.2,0.2,0.7,0.1,0.7,0.5c0,0.3-0.3,0.6-0.7,0.4c-0.1,0-0.2,0-0.3,0C20.4,403.8,20.4,403.6,20.3,403.5z"/>
			<path id="XMLID_1086_" class="st86" d="M28.8,397.9c-0.1,0.3,0.2,1.1-0.7,0.7c0.4-0.3-0.6-0.6,0-0.8
				C28.3,397.7,28.6,397.8,28.8,397.9z"/>
			<path id="XMLID_1085_" class="st102" d="M19,406.1c0.2,0.1,0.5,0.3,0.6,0.2c2-1.8,4.7-2,6.9-3.1c0.8,0,1.1,0.5,1.2,1.1
				c0,0.2,0,0.3-0.1,0.4c-0.3,0.5-1,0.7-1.5,1c-0.3,0.2-0.7,0.4-1,0.7c-0.3,0.7-1,0.8-1.6,1c-0.1,0.3-0.3,0.5-0.7,0.7
				c-0.8,0.3-1.7,0.3-2.3,1c0,0.1,0,0.2,0,0.3c-0.9,0.5-1.9,0.4-2.6-0.3c-0.6-0.5-0.8-1.2-0.3-2C18.4,407.1,18.4,406.2,19,406.1z"/>
			<path id="XMLID_1084_" class="st22" d="M19.3,411.9c-0.1,0.6-0.4,0.8-0.9,0.5c-0.6-0.5,0.3-0.4,0.4-0.7c0-0.3,0.1-0.5,0.1-0.8
				c0-0.1,0-0.2,0-0.3C20.1,410.8,19.5,411.4,19.3,411.9z"/>
			<path id="XMLID_1083_" class="st103" d="M18,410.6c-0.4,0-0.6-0.2-0.7-0.7C17.8,410,18.4,409.8,18,410.6z"/>
			<path id="XMLID_1082_" class="st89" d="M34.4,405.7c-0.5-1-1-1.4-1.9-0.3c-0.2,0.3-0.4,0.6-0.8,0.5c-0.5-0.2,0.1-0.7-0.2-1
				c-1,1.5-2.7,0.8-4,1.1c-0.2-0.2-0.2-0.4-0.1-0.6c0.3-0.5,0.7-0.7,1.4-0.5c-0.3-0.2-0.7-0.1-0.9-0.4c0.4-0.7,0.3-2.1,1.8-1.2
				c0.1,0.2-0.1,0.6,0.2,0.6c0.1,0,0.1-0.4,0.1-0.6c0.2-0.6,0.3-1.2,0.8-1.6c0.3-0.2,0.6-0.2,0.9,0c0.3,0.3,0.4,0.8,0.9,0.8
				c0.2-0.7,0.4-1.4,1.3-1.5c0.1,0,0.3,0.1,0.4,0.1c0.3,0.2,0.6,0.2,0.9,0c0.6-0.4,1.1-1,1.9-0.6c0.1,0,0.3,0.1,0.4,0.2
				c0.3,0.2,0.6,0.3,1,0.2c0.3,0.1,0.8,0,0.7,0.6c-0.1,0.7,0.5,0.2,0.7,0.3c-0.1,0.3-0.4,0.3-0.7,0.3c-0.5,0.5-0.4,1.9-1.7,1.1
				c-0.3-0.4-0.5-0.1-0.8,0.1c-0.9,0.3-1.3,0.8-0.9,1.8C35.4,405.9,35.1,406.2,34.4,405.7z"/>
			<path id="XMLID_1081_" class="st104" d="M37.3,403.1c1.1,0.6,0.9-0.9,1.6-1c0.4,0.8,0.7,1.7,0.7,2.6c-0.3,0.7-1,0.8-1.6,1
				c-0.7-0.2-1.7,0.1-1.9-1.1c0-0.2,0.1-0.5,0.2-0.6C36.8,403.9,36.7,403.1,37.3,403.1z"/>
			<path id="XMLID_1080_" class="st104" d="M44.2,402.8c-1.1,1.5-2.7,2.2-4.6,2C40.6,402.9,42.6,403.4,44.2,402.8z"/>
			<path id="XMLID_1079_" class="st89" d="M40.9,400.8c-0.1-0.4-1.2-0.5-0.6-1c0.3-0.3,0.9-1,1.6-0.6c0.5,0.3,0.9,0.3,1.3,0.3
				c-0.3,0.2-0.7,0.4-1,0.7c-0.2,0.3-0.5,0.7-1,0.7C41.1,400.8,41,400.8,40.9,400.8z"/>
			<path id="XMLID_1078_" class="st104" d="M41.2,400.8c0.3-0.2,0.7-0.4,1-0.7c0.2,0.6,0.9,1.4-0.4,1.6c-0.6,0.1-0.5,0.9-1,1.2
				C40.3,402.2,41.8,401.7,41.2,400.8z"/>
			<path id="XMLID_1077_" class="st104" d="M46.8,402.5c-0.5,0-1-0.1-1.4,0.5c-0.5,0.8-0.8,0.1-1.2-0.2
				C45,402.2,45.7,401.4,46.8,402.5z"/>
			<path id="XMLID_1076_" class="st75" d="M38.9,401.5c-0.2-0.4-0.6-0.3-1-0.3c-0.1-0.1-0.1-0.2-0.1-0.4c0.3-0.3,0.6-0.6,0.8-0.9
				c0.1-0.1,0.2-0.1,0.4-0.2c0.1,0,0.1,0.1,0.2,0.1C39.3,400.5,39.6,401.1,38.9,401.5z"/>
			<path id="XMLID_1075_" class="st75" d="M38.3,399.2c0.4-0.4,0.9-0.5,1.3,0c0,0.3-0.1,0.5-0.3,0.7c0,0,0,0,0,0
				C39,399.5,38.2,400.1,38.3,399.2z"/>
			<path id="XMLID_1074_" class="st61" d="M38.3,399.2c0.3,0.2,0.7,0.4,1,0.7c-0.1,0-0.2,0-0.3,0c-0.1,0.1-0.2,0.2-0.3,0.3
				c-0.5,0.2-1.3,0-1.6,0.7c-0.9-0.4-1.3,0.4-2,0.7c-0.3-0.1-0.7,0.2-1,0c0-0.1,0-0.2,0-0.3c-0.1-0.8,0.6-0.9,1.1-1.2
				c0.4-0.2,0.7-0.4,1.1-0.6c0.4-0.2,0.8-0.3,1.2-0.5c0.1,0,0.1,0,0.2,0C37.8,399,38.1,399.1,38.3,399.2z"/>
			<path id="XMLID_1073_" class="st105" d="M40.3,397.3c-0.3,0.5-0.8,0.6-1.4,0.6c-0.2,0.1-0.5,0.1-0.7,0c0-1.1,0.7-1.2,1.6-1.2
				C40.1,396.9,40.3,397.1,40.3,397.3z"/>
			<path id="XMLID_1072_" class="st8" d="M37.7,398.6c0,0.1,0,0.2,0,0.3c0,0,0,0,0,0c-0.5,0.4-1,0.5-1.6,0.6c-0.4,0-0.7-0.1-0.8-0.5
				c0-0.3,0.1-0.5,0.3-0.6c0.2-0.1,0.5-0.2,0.7-0.2c0.2,0,0.3,0,0.5,0C37.1,398.2,37.4,398.3,37.7,398.6z"/>
			<path id="XMLID_1071_" class="st106" d="M37.7,398.6c-0.3,0-0.7,0-1,0c0.3-0.9,0.9-1,1.6-0.6c0.2,0,0.5,0,0.7,0.1
				C38.8,398.8,38.2,398.5,37.7,398.6z"/>
			<path id="XMLID_1070_" class="st107" d="M40.3,397.3c-0.1-0.1-0.3-0.3-0.4-0.4c0.1-0.5,0.3-0.5,0.7-0.3c0.2,0.1,0.5,0.2,0.7,0.4
				C41,397.1,40.6,397.2,40.3,397.3z"/>
			<path id="XMLID_1069_" class="st33" d="M40.6,396.6c-0.2,0.1-0.5,0.2-0.7,0.3c-0.6,0.2-1.3,0.3-1.6,1c-0.6,0.1-1.2,0.2-1.6,0.6
				c-0.1,0-0.2,0-0.3,0c-0.3-1.4,1.2-1.3,1.7-2c0.6-0.4,1.1-1.4,2-0.7c0.2,0.1,0.4,0.2,0.5,0.4C40.6,396.4,40.6,396.5,40.6,396.6z"
				/>
			<path id="XMLID_1068_" class="st22" d="M40.6,396.3c-0.2,0-0.5,0-0.7,0c0-0.7,0.3-0.9,1-0.6c0,0.1,0,0.2,0,0.3c0,0.1,0,0.2,0,0.3
				C40.8,396.3,40.7,396.3,40.6,396.3z"/>
			<path id="XMLID_1067_" class="st108" d="M19.7,396c0.1-0.8,0.4-1.5,1.2-1.8c0.6-0.2,0.2-0.5,0.2-0.7c0.3-1.1,1.1-1.4,2.1-1.6
				c0.6-0.1,1.1-0.3,1.7-0.5c1.3-1.1,3-1.2,4.5-1.7c0.9,1.5,0.8,1.8-1.1,1.9c0.6,0.4,1.1,0.4,1.5,0.1c1.6-1,3.3-0.7,5-1
				c1-0.1,1.5,1.1,2.5,1.3c0.3,0.7-0.1,1.1-0.6,1.4c-0.1,0.1-0.3,0.1-0.5,0c-0.9-1.2-2-0.2-3-0.4c-0.5,0.1-1,0.2-1.5,0.3
				c-0.1,0-0.3,0.1-0.4,0.1c-1.3,0.1-2.5,0.7-3.9,0.6c0,0,0,0,0,0c-0.5,0.4-1.2,0.1-1.6,0.6c-0.1,0-0.2,0-0.3,0
				c-1.2,0-2.3,0.4-3.3,1C21.3,395.2,20.6,396.6,19.7,396z"/>
			<path id="XMLID_1066_" class="st76" d="M27.5,394c1.3-0.5,2.5-1,3.9-1c-0.2,1.2-1.6,0.4-2,1.3c-0.2,0.1-0.5,0.2-0.7,0.3
				C28.3,394.4,27.9,394.2,27.5,394z"/>
			<path id="XMLID_1065_" class="st65" d="M30.4,384.5c-0.6,0.1-1.3,0.5-1.9,0.3c-0.4-0.4,0.4-0.4,0.3-0.7c0.2-0.2,0.6-0.2,0.3-0.6
				l0,0c-0.2-0.2-0.2-0.4,0-0.6c0.1,0,0.2,0,0.3,0c0.5,0.1,1.1-0.1,1.6,0c0.1,0,0.2,0,0.3,0c0.1,0.1,0.1,0.1,0.1,0.2
				c0,0.1-0.1,0.1-0.1,0.1C31.1,383.7,30.2,383.7,30.4,384.5z"/>
			<path id="XMLID_1064_" class="st61" d="M25.5,380.9c0.2,0,0.4,0,0.6,0c0.2,0.1,0.4,0.2,0.7,0.3c0.2,0.6-0.4,0.6-0.6,0.8
				c-0.1,0.1-0.2,0.1-0.4,0.2c-0.4,0-0.8,0.1-0.9-0.4C24.8,381.4,25.4,381.3,25.5,380.9z"/>
			<path id="XMLID_1063_" class="st63" d="M29.1,382.9c0,0.2,0,0.4,0,0.6c-1,0-2-0.2-2.9-0.6c0.1-0.3,0.3-0.5,0.7-0.3
				C27.6,382.8,28.4,382.9,29.1,382.9z"/>
			<path id="XMLID_1062_" class="st61" d="M25.6,384.5c0.1,0,0.2,0,0.3,0c0.5-0.1,0.9-0.1,1.4-0.2c0.2,0.5-0.1,0.9-0.5,1.2
				C26.7,384.8,25.9,385,25.6,384.5z"/>
			<path id="XMLID_1061_" class="st109" d="M26.9,382.6c-0.2,0.1-0.4,0.2-0.7,0.3c-0.3-0.1-0.3-0.4-0.3-0.7c0-0.1,0-0.2,0-0.3
				C26.5,381.7,27.1,381.4,26.9,382.6C26.8,382.6,26.9,382.6,26.9,382.6z"/>
			<path id="XMLID_1060_" class="st24" d="M26.2,386.8c-0.2-0.1-0.2-0.2,0-0.3c0.2-0.2,0.3-0.5,0.7-0.6c0.1,0,0.2,0,0.3,0
				c0.1,0.4,0.7,0.6,0.2,1.1C27,387.2,26.6,387.2,26.2,386.8z"/>
			<path id="XMLID_1059_" class="st55" d="M27.5,386.8c-0.1-0.3-0.2-0.6-0.3-1c0.3,0.1,0.6,0.2,1,0.3c0,0.3-0.1,0.5-0.3,0.7
				C27.7,386.9,27.6,386.9,27.5,386.8z"/>
			<path id="XMLID_1058_" class="st110" d="M26.9,385.8c0,0.4-0.2,0.6-0.7,0.6c0-0.5,0-0.9,0.7-1C26.9,385.6,26.9,385.7,26.9,385.8z
				"/>
			<path id="XMLID_1057_" class="st24" d="M29.1,383.6c0.2,0.1,0.6,0,0.5,0.4c-0.1,0.3-0.5,0.2-0.8,0.2
				C28.9,384,29,383.8,29.1,383.6z"/>
			<path id="XMLID_1056_" class="st63" d="M30.4,380.6c0.1,1.3-0.7,0.7-1.3,0.6C29.5,380.8,29.9,380.7,30.4,380.6z"/>
			<path id="XMLID_1055_" class="st92" d="M26.8,382.6c0-0.7-0.5-0.7-1-0.6c0.3-0.2,0.6-0.4,1-0.7c0.2,0,0.4,0,0.7,0
				c0.2,0.4-0.2,0.7-0.3,1C27.1,382.3,27,382.5,26.8,382.6z"/>
			<path id="XMLID_1054_" class="st63" d="M27.2,382.2c0.1-0.3,0.2-0.7,0.3-1c0.2,0.1,0.4,0.2,0.6,0.3
				C27.8,381.8,27.5,382,27.2,382.2z"/>
			<path id="XMLID_1053_" class="st111" d="M23.6,407.4c0.4-0.5,1.1-0.7,1.6-1c0.8,0.6,1.8,0.7,2.7,1c0.4,0.1,0.8,0.1,0.9,0.7
				c-0.7,0.2-1.1,0.7-2.1,0c-1.2-0.8-0.6,0.8-0.8,1.3c-0.8,0.5-0.7-0.4-1-0.6c0,0,0,0,0,0C24.6,408.1,24.1,407.7,23.6,407.4z"/>
			<path id="XMLID_1052_" class="st84" d="M36.3,404.4c0,1.2,1.2,0.7,1.6,1.3c-1,0.3,0.1,0.7,0,1c0.1,0.1,0.1,0.2,0.1,0.2
				c0,0.1,0,0.1-0.1,0.1c-0.1,0.1-0.3,0.1-0.4,0.1c-0.5-0.1-0.9-0.3-1.4-0.3c-0.7-0.4-1.9,0.5-2.1-0.9c0.1-0.1,0.2-0.2,0.3-0.3
				c0.7,0.1,1.1-0.3,1-1C35.6,404.4,35.9,404.2,36.3,404.4z"/>
			<path id="XMLID_1051_" class="st112" d="M34,406.1c0.5,1,1.7-0.1,2.3,0.7c0.4,0.5,0.3,0.9-0.3,1.1c-0.4,0.1-0.8,0.2-1.2,0.3
				c-0.8-0.2-1.6,0.1-2.3-0.4c0-0.2,0-0.4,0-0.7C33,406.8,33.6,406.6,34,406.1z"/>
			<path id="XMLID_1050_" class="st113" d="M27.5,405.4c0,0.2,0,0.4,0,0.7c-0.4-0.1-0.9-0.2-1.3-0.3c0.3-0.5,0.6-1,1.3-1
				C27.7,405,27.7,405.2,27.5,405.4z"/>
			<path id="XMLID_1049_" class="st81" d="M20.6,409c0.4-1.1,1.2-1.3,2.3-1c0,0.1,0,0.2,0,0.3C22.3,409.2,21.4,408.8,20.6,409z"/>
			<path id="XMLID_1048_" class="st77" d="M24.9,408.7c0.3,0.2,0.5,0.7,1,0.6C24.9,410,24.9,409.3,24.9,408.7z"/>
			<path id="XMLID_1047_" class="st66" d="M37,417.8c-1.3,1-2.2-0.3-3.2-0.7c-0.2-0.1-0.5-0.2-0.7-0.3c-0.1-0.1-0.2-0.3-0.2-0.4
				c0-0.2,0.1-0.3,0.2-0.4c0.2-0.1,0.4-0.1,0.7-0.1c1.1,0.4,2,1.1,3,1.7C36.9,417.7,36.9,417.8,37,417.8z"/>
			<path id="XMLID_1046_" class="st73" d="M38.9,418.8c-0.3-0.5-0.7-0.1-1,0c0-0.3-0.1-0.5-0.3-0.6c-0.1-0.1-0.1-0.1-0.1-0.2
				c0-0.1,0.1-0.1,0.1-0.1c0.5,0,1-0.1,1.4,0.1C39.8,418.2,39.7,418.6,38.9,418.8z"/>
			<path id="XMLID_1045_" class="st66" d="M29.8,416.8c0.7,0.1,1.3,0.4,2,0.3c0.3-0.3,0.7-0.3,1,0c-0.1,0.1-0.2,0.2-0.3,0.3
				c-0.7,0.5-1.3-0.1-2,0C30.2,417.3,30,417.1,29.8,416.8z"/>
			<path id="XMLID_1044_" class="st114" d="M32.7,417.2c-0.3,0-0.7,0-1,0c0-0.3,0-0.7,0-1c0.5-0.3,0.9,0,1.3,0.3c0,0.1,0,0.2,0,0.3
				C32.9,417,32.8,417.1,32.7,417.2z"/>
			<path id="XMLID_1043_" class="st66" d="M37.6,417.8c0,0.1,0,0.2,0,0.3c-0.2-0.1-0.4-0.2-0.6-0.3c0,0,0,0,0,0
				c0.3-0.5-0.6-0.6-0.3-1.1c0.1-0.1,0.3-0.1,0.4-0.1c0.3,0.1,0.6,0.1,0.5,0.6C37.6,417.4,37.6,417.6,37.6,417.8z"/>
			<path id="XMLID_1042_" class="st65" d="M38.3,421.7c0.4-0.6-0.5-0.8-0.3-1.3c0.8,0.4,1.9,0.6,1.6,2
				C39.1,422.3,38.4,422.6,38.3,421.7z"/>
			<path id="XMLID_1041_" class="st63" d="M31.4,383.2c0-0.1,0-0.2,0-0.3c0.9-1.1,2.1-0.6,3.3-0.6c-0.3,0.2-0.7,0.4-1,0.6
				C32.9,382.5,32.2,383.3,31.4,383.2z"/>
			<path id="XMLID_1040_" class="st22" d="M36.3,379.6c0,0.1,0,0.2,0,0.3c-1,0.2-0.9-0.9-1.3-1.3C35.7,378.6,36.3,378.8,36.3,379.6z
				"/>
			<path id="XMLID_1039_" class="st63" d="M31.1,382.9c-0.5,0.2-1.1,0.6-1.6,0C30,382.4,30.5,382.4,31.1,382.9z"/>
			<path id="XMLID_1038_" class="st115" d="M41.2,413.6c0.3,0.6,1.8,1.4-0.3,1.7c-0.4,0.1-0.2,0.5-0.2,0.8c0,0.4,0.2,0.6,0.5,0.7
				c0.4,0.1,0.9,0,1.3,0.1c-0.8,0.7-1.8,0.5-2.6,0.5c-1.5-0.2-0.8-1.5-0.7-2.4c0-0.1,0.1-0.1,0.1-0.2
				C39.8,414,40.2,413.2,41.2,413.6z"/>
			<path id="XMLID_1037_" class="st116" d="M37.6,417.2c-0.1-0.3-0.4-0.3-0.7-0.3c0.2-0.6-0.4-1.4,0.4-1.9c0.4-0.2,0.8-0.6,1.2-0.7
				c0.6-0.2,1-0.1,0.7,0.7c0,0,0,0,0,0C38.2,415.3,38.9,416.9,37.6,417.2z"/>
			<path id="XMLID_1036_" class="st117" d="M40.6,421.3c-0.1-0.1-0.2-0.3-0.3-0.5c0-0.3,0.2-0.3,0.4-0.3c0.3,0,0.3,0.2,0.3,0.4
				C41.2,421.2,41,421.3,40.6,421.3z"/>
			<path id="XMLID_1035_" class="st77" d="M19.3,394.6c-0.3,0.4-0.7,0.4-1,0C18.7,394.6,19,394.1,19.3,394.6z"/>
			<path id="XMLID_1034_" class="st77" d="M38.9,409.3c-0.3,0.6-0.5,1.3-0.3,2c-0.1,0.1-0.2,0.1-0.3,0.1c-0.1-0.5-0.4-0.4-0.8-0.3
				c-0.6-0.1-1.1,0.2-1.6,0.4c-0.2,0-0.3,0-0.5-0.1c-0.8-0.4-1.4-0.9-0.7-1.9c0.7-0.1,1.2-0.2,1.4-1c0.1-0.5,0.4-1.1,1.1-1.2
				c0.9,0.7,1.3,1.4-0.1,2.3c0.6-0.3,1-0.4,1.5-0.3C38.7,409.3,38.8,409.3,38.9,409.3z"/>
			<path id="XMLID_1033_" class="st89" d="M38.6,409.3c-0.2,0.3-0.4,0.4-0.7,0.3c-0.5-0.2-0.4,1-0.9,0.4c-0.4-0.5,0-0.8,0.5-1.1
				c0.9-0.6-0.2-1.1-0.2-1.6c0-0.2,0.2-0.2,0.3-0.3c0.1,0,0.2,0,0.3,0c0.5,0.2,0.8,0.4,0.7,1C38.9,408.5,38.9,408.9,38.6,409.3z"/>
			<path id="XMLID_1032_" class="st77" d="M42.8,405.7c-0.1,0.3-0.3,0.5-0.7,0.6c-0.3-0.2-0.6-0.4-0.9-0.6
				C41.9,405.2,42.4,405.5,42.8,405.7z"/>
			<path id="XMLID_1031_" class="st118" d="M38.6,408c-0.2-0.3-0.4-0.7-0.7-1c0-0.1,0-0.2,0-0.3c0.4,0.1,0.9,0.2,1.3,0.3l0,0
				C39.3,407.5,39,407.8,38.6,408z"/>
			<path id="XMLID_1030_" class="st119" d="M39.3,407.1c0.3-1.1,1-0.5,1.6-0.5C40.3,406.7,39.8,406.9,39.3,407.1L39.3,407.1z"/>
			<path id="XMLID_1029_" class="st86" d="M30.8,396.9c0-0.4,0.1-0.7-0.3-1c0.1-0.3,0.3-0.5,0.6-0.7c0.4-0.1,0.1-0.6,0.3-0.8
				c0.2-0.1,0.3-0.2,0.5-0.3c0.3-0.1,0.7-0.2,1-0.3c0.5-0.1,0.7-0.7,1.3-0.7c0.6,0.2,0.8,0.7,0.7,1.3c-0.1,0.2-0.2,0.4-0.3,0.6
				c-0.3,0.4-0.7,0.8-1.1,1.2C32.6,396.3,31.8,397.3,30.8,396.9z"/>
			<path id="XMLID_1028_" class="st70" d="M29.4,394.3c0.3-1,1.5-0.6,2-1.3c0.1,0,0.2,0,0.3,0c0.2,0.1,0.2,0.3,0.2,0.6
				c-0.1,0.2-0.2,0.4-0.3,0.5c-0.3,0.2-0.3,0.6-0.5,0.8c-0.2,0-0.4,0-0.7,0C30.9,393.6,29.9,394.4,29.4,394.3z"/>
			<path id="XMLID_1027_" class="st66" d="M31.1,395c0-0.4-0.1-0.8,0.3-1c0.2,0.2,0.2,0.4,0,0.7c0.1,0.3,0.4,0.5,0.1,0.8
				c-0.2,0.2-0.3,0-0.5-0.1C31.1,395.2,31.1,395.1,31.1,395z"/>
			<path id="XMLID_1026_" class="st120" d="M37.3,392c-0.7,0-1.3,0-1.9-0.8c-0.4-0.6-1.6,0.1-2.5,0.1c-1.4-0.1-2.5,0.7-3.8,1
				c-0.5,0.1-1.1,0.3-1.5-0.3c-0.2-0.4,0.1-0.6,0.3-0.8c0.6-0.7,1-0.1,1.5,0.1c0-0.5,0-1,0-1.5c0.4-0.2,0.7,0,1.1,0.2
				c1,0.8,1.2-0.2,1.7-0.7c0.2-0.2,0.3-0.3,0.6-0.3c1.2,0,2.5,0.6,3.6-0.5c0.5-0.2,1.1-0.4,1.6-0.7c1.5-1.1,3.2-0.7,4.9-0.7
				c0.8,0.2,1.5-0.5,2.3,0c0.1,0.7-0.6,0.8-1,1.1c-1.4,0.9-3,1.5-4.6,2.2c2,0.8,3.9,0.5,5.8,0.5c0.8,0,1.5-0.2,2.1,0.5
				c0,0.1,0,0.2,0,0.3c0.1,0.3,0.3,0.7-0.3,0.6c-0.5,0-0.9,0.1-1.4,0.3c-0.8-0.4-1.7-0.5-2.5,0c-1,0.6-1.8-0.2-2.8-0.2
				c-0.3,0-0.6,0-1,0c-0.2,0-0.3,0-0.5,0C38.4,392.5,37.8,392.5,37.3,392z"/>
			<path id="XMLID_1025_" class="st116" d="M40.6,392c1.2,0.5,2.4,0.7,3.5,0c0.9-0.6,1.3,0,1.7,0.7c0.1,0.2,0.2,0.4,0.3,0.6
				c-1.1-0.5-2.1-0.2-2.9,0.7c-0.6,0.1-1.2,0.2-1.7,0.3c-0.4,0.1-0.6,0.3-0.2,0.6c0,0.3-0.1,0.5-0.3,0.7c-0.5,0-0.8,0.2-1,0.6
				c-0.8-1.1-1,0.5-1.6,0.3c-0.6-0.3-1.2,0.9-1.8,0.1c-1.2-1.6-1.2-1.6,0.4-2.5c0.4-0.5,0.9-0.2,1.3,0c0.5,0.3,1,0.4,1.4-0.1
				c1.1-0.6,1.1-0.6,2.3-0.6C40.9,393.4,40,393.3,40.6,392z"/>
			<path id="XMLID_1024_" class="st121" d="M22,388.8c1-0.6,2.4-0.4,3.3-1.3c0,0,0,0,0,0c0.6-0.3,1-0.3,1.2,0.4
				c0.1,0.5-0.1,0.9-0.6,1.1c-0.4,0.1-0.8,0.3-1.2,0.4c-0.5,0-0.9,0.2-1.1,0.8c-0.2,0.5-0.6,0.6-0.9,0.9c-0.7,0.9-2.1,0.8-2.5,2.1
				c-0.1,0.3-1,0.2-0.9-0.2c0.5-2-1.2-0.6-1.6-1.1C18.9,390.5,20.2,389.4,22,388.8z"/>
			<path id="XMLID_1023_" class="st111" d="M23.3,390.1c0.2-0.4,0.1-1.2,1-1c0.7,0.8,1.6,0.5,2.4,0.4c0.2,0,0.5,0.1,0.4-0.3
				c-0.5-1.8,1.3-1.7,1.8-1.5c1.2,0.4,2.3,0.4,3.5,0.2c0.3,0.1,0.6,0.2,0.8,0.5c0.1,0.4-0.1,0.6-0.4,0.7c-0.1,0.1-0.2,0.2-0.3,0.3
				c-0.6,0.4-1.1,1-2,0.7c-0.3-0.1-0.7-0.2-1-0.3c-1.3,1.1-3.1,1-4.6,1.6c0.1-0.2,0.3-0.6,0.2-0.7c-0.4-0.4-0.7,0.2-1.1,0.1
				C23.6,390.6,23.5,390.3,23.3,390.1z"/>
			<path id="XMLID_1022_" class="st122" d="M23.3,390.1c0.4,0,0.6,0.2,0.7,0.7c-0.3,0.5-0.9,0.3-1.3,0.3
				C22.8,390.7,23,390.4,23.3,390.1z"/>
			<path id="XMLID_1021_" class="st96" d="M33.1,416.5c-0.5,0.1-0.9-0.1-1.3-0.3c-0.6-0.2-0.8-1-1.7-1.1c-0.4,0,0.1-0.4,0.4-0.5
				c0.2-0.2,0.3-0.4,0.2-0.7c-0.6-1.5-0.5-1.8,1.1-2.5c0.2-0.5,0.4-1.1,0.7-1.6c1.1,0,1.8,0.7,1.9,2.2c-0.8,1.3-1.9,2.6-1.3,4.3
				C33.1,416.3,33.1,416.4,33.1,416.5z"/>
			<path id="XMLID_1020_" class="st98" d="M31.7,411.3c-0.1,0.6-0.9,0.5-1.1,1.1c-0.1,0.4-0.6,0.6,0.2,1c1,0.5-0.1,0.8-0.4,1.2
				c-1.4-1.3-0.5-2.5,0.3-3.6C31.1,411.1,31.4,411.2,31.7,411.3z"/>
			<path id="XMLID_1019_" class="st98" d="M34,411.9c0-1.2-0.9-1.6-1.6-2.3c0.2-0.2,0.4-0.4,0.7-0.7c0.6-0.3,1.1-1,2-0.7
				c0.4,0.4,0.3,0.9,0,1.3c-0.9,1,0.4,1.1,0.7,1.6C35,411.3,34.8,412.3,34,411.9z"/>
			<path id="XMLID_1018_" class="st60" d="M34.7,408.4c-0.6,0.1-0.8,1.2-1.6,0.7c-0.3,0-0.5-0.1-0.6-0.3c0.5-0.5,0.1-0.6-0.3-0.7
				c0.1-0.1,0.2-0.2,0.3-0.3c0.8,0.2,1.6-0.5,2.3,0.3c0.1,0.1,0.1,0.1,0.1,0.2C34.7,408.3,34.7,408.4,34.7,408.4z"/>
			<path id="XMLID_1017_" class="st114" d="M32.4,388.1c-1.2,0.6-2.2,0.6-3.4-0.2c-0.4-0.3-1.1,0.8-1.9,0.4
				c-0.3,0.8,1.2,1.1,0.3,1.7c-0.9,0.7-2.9,0.1-3.2-0.9c0.4-0.2,0.7-0.4,1.1-0.5c0.3-0.1,0.8,0.1,0.8-0.5c0-0.7-0.5-0.7-1-0.7
				c0.3-0.2,0.7-0.4,1-0.7c0.4,0,0.9,0,1.3,0c0.1,0,0.2,0,0.3,0c0.5,0.5,1.1,0.3,1.6,0.3c1.2-0.6,2,0.2,2.9,0.7
				c0.1,0.1,0.1,0.1,0.1,0.2C32.5,388.1,32.4,388.1,32.4,388.1z"/>
			<path id="XMLID_1016_" class="st96" d="M39.3,414.9c-0.1-0.4-0.2-0.8-0.6-0.3c-0.4,0.5-0.8,0.6-1.3,0.6c-0.7-0.7-0.7-1.3,0.2-1.8
				c0.9,0.1,0.9-0.9,1.5-1.2c0.2,0,0.4,0,0.6,0c0.1,0.3-0.2,1.2,0.6,0.6c0.5-0.4,0.9,0.1,1.3,0c0,0.3-0.1,0.5-0.3,0.7
				C40.2,413.5,40.3,415,39.3,414.9z"/>
			<path id="XMLID_1015_" class="st77" d="M38.9,412.3c0.1,0.9-0.3,1.4-1.3,1.3c-0.4,0-0.8,0-1.1-0.5c0-0.1,0-0.3,0.1-0.4
				c0.3-0.3,0.5-0.6,0.8-1c0.2-0.2,0.4-0.7,0.8-0.5c0.1,0,0.2,0,0.3,0C38.2,411.8,38.7,412,38.9,412.3z"/>
			<path id="XMLID_1014_" class="st123" d="M47.4,391.4c-1.6-0.1-3.1-0.1-4.7,0.1c-1.2,0.2-2.4-0.6-3.6-0.5c-0.2,0-0.4-0.2-0.4-0.5
				c0-0.4,0.4-0.6,0.7-0.6c2.1-0.6,4-1.7,5.8-2.8c0.6-0.1,1.2-0.2,1.6-0.7c1.6-0.5,3.1-0.7,4.8-0.6c0.8,0,1.1,0.4,1.4,0.9
				c0.1,0,0.2,0,0.3,0c0.4,0.5,0.2,1.2,0.6,1.6c0,0,0,0,0,0C52.6,391.3,50.2,391.7,47.4,391.4z"/>
			<path id="XMLID_1013_" class="st78" d="M53.9,388.4c-0.8-0.3-0.9-0.9-0.6-1.6c0.2,0.1,0.4,0.2,0.7,0.3
				C54.3,387.6,54,388,53.9,388.4z"/>
			<path id="XMLID_1012_" class="st55" d="M29.8,386.5c-0.1,0.1-0.2,0.2-0.3,0.3c-0.3-0.1-0.8,0.2-0.8-0.5c0-0.6,0.5-0.6,0.8-0.8
				C29.6,385.9,28.9,386.4,29.8,386.5z"/>
			<path id="XMLID_1011_" class="st124" d="M32.7,389.1c0.1-0.2,0.2-0.4,0.3-0.7c-0.3-0.4-0.1-0.9,0.3-0.8c1.1,0.3,0.4-0.7,0.7-0.8
				c0.2,0,0.4,0,0.6,0c1,0.1,0.7,1.4,1.6,1.6C35.5,390.6,34,389.2,32.7,389.1z"/>
			<path id="XMLID_1010_" class="st63" d="M34,386.8c0.1,0.4,0.3,0.9,0.4,1.4c-0.5,0.2-1.2-1.2-1.4,0.2c-0.2-0.1-0.4-0.2-0.7-0.3
				c0-0.1,0-0.2,0-0.3C32.4,386.5,33.5,387.1,34,386.8z"/>
			<path id="XMLID_1009_" class="st125" d="M42.8,387.1c-1.6,0.2-3.3,0.4-4.9,0.7c0.2-0.5,0.3-1.2,1-1.3c0.2-0.1,0.4-0.2,0.6-0.3
				c1,0.5,2.1,0.8,3.3,0.7C42.8,386.9,42.8,387,42.8,387.1z"/>
			<path id="XMLID_1008_" class="st124" d="M36.5,387.5c0.1-0.1,0.3-0.2,0.4-0.2c0.2,0,0.3,0.2,0.2,0.3c-0.1,0.1-0.3,0.1-0.4,0.1
				C36.7,387.7,36.6,387.6,36.5,387.5z"/>
			<path id="XMLID_1007_" class="st22" d="M35.3,400.2c-0.3,0.5-1.1,0.3-1.3,1c-1.2,0.2-1.2,1.1-1.2,1.7c0.8-1-2.6,0.7-1.1-1.1
				c-0.1-0.2,0-0.3,0.1-0.5c-0.2-0.4-0.4,0.1-0.7,0c-0.2,0-0.3,0-0.4-0.1c-0.3,0-0.6,0-1.4,0c0.9-0.4,1.2-0.9,1.8-1
				c0.1-0.1,0.1-0.3,0.3-0.3c0.8,0.1,1.1-0.4,1.3-1c0.1,0,0.1,0,0.2-0.1c0.5,0.2,1.1,0.2,1.5,0.5C34.8,399.6,35.1,399.8,35.3,400.2z
				"/>
			<path id="XMLID_1006_" class="st126" d="M30.8,401.8c-0.1,0.6-0.2,1.2-0.7,1.6c-0.2,0.2-0.4,0.2-0.7,0c-0.2-0.3-0.8-0.4-0.7-0.1
				c0.1,0.8-0.7,0.7-0.9,1.1c-0.1,0.1-0.2,0.1-0.3,0c-0.1-0.6-0.6-0.9-1-1.3c0-0.1,0-0.2,0-0.3c0.3-0.3,0.5-0.5,1-0.3
				c1.1,0.3,1.5-1.2,2.6-1C30.3,401.7,30.6,401.6,30.8,401.8z"/>
			<path id="XMLID_1005_" class="st124" d="M30.8,396.9c0.9-0.3,1.7-0.7,2.6-1c0.5-0.3,0.8-0.1,0.8,0.4c-0.1,0.6-0.1,1.1,0.1,1.7
				c0.3,1-1,0.5-1.5,0.8c0,0,0,0,0,0C32.2,398.1,31.2,397.8,30.8,396.9z"/>
			<path id="XMLID_1004_" class="st117" d="M25.9,402.5c-0.2,0.2-0.5,0.4-0.7,0.6c-0.5,0.4-1,0.5-1.4,0.1c-0.5-0.6,0.6-0.5,0.5-1
				c0.4-0.1,0.9-0.2,1.3-0.3C25.8,402,26,402.1,25.9,402.5z"/>
			<path id="XMLID_1003_" class="st119" d="M25.9,402.5c-0.1-0.2-0.2-0.4-0.3-0.7c1.2-0.6,1.2-0.6,2,0.7c-0.3,0.1-0.7,0.2-1,0.3
				C26.5,402.2,26.2,402.3,25.9,402.5z"/>
			<path id="XMLID_1002_" class="st127" d="M30.8,401.8c-0.3,0-0.5-0.1-0.7-0.3c0.3,0,0.5-0.1,0.7-0.3c0.1,0,0.2,0,0.3,0
				c0.4-0.1,0.9-0.5,1,0.3c-0.1,0.1-0.2,0.2-0.3,0.3C31.4,401.8,31.1,401.8,30.8,401.8z"/>
			<path id="XMLID_1001_" class="st121" d="M25.9,399.9c0.4,0,0.9,0,1.4,0C26.1,400.6,26.1,400.6,25.9,399.9
				C25.9,399.9,25.9,399.9,25.9,399.9z"/>
			<path id="XMLID_1000_" class="st86" d="M31.4,399.9c-0.1,0.1-0.2,0.2-0.3,0.3c0-0.3-0.7-0.5-0.3-0.9
				C31,399.2,31.3,399.6,31.4,399.9z"/>
			<path id="XMLID_999_" class="st58" d="M21,403.8c0.8-0.3,0.2-0.7,0-1c0.4,0,0.9,0,1,0.6c0,0.3,0,0.7-0.4,0.8
				C21.3,404.3,21.1,404,21,403.8z"/>
			<path id="XMLID_998_" class="st127" d="M20.3,403.5c0.1,0.1,0.2,0.2,0.3,0.3c0,0.2,0,0.4,0,0.7C19.8,404.4,20.1,403.9,20.3,403.5
				z"/>
			<path id="XMLID_997_" class="st74" d="M27.5,404.4c0.1,0,0.2,0,0.3,0c0.5,0,0.9,0,1.4,0.5c-0.6,0.3-1.3,0.1-1.7,0.5
				c0-0.2,0-0.4,0-0.7C27.5,404.7,27.5,404.6,27.5,404.4z"/>
			<path id="XMLID_996_" class="st128" d="M36.3,404.4c-0.3,0.1-0.7,0.2-1,0.3c-0.4-0.1-0.6-0.1-0.3-0.7c0.3-0.6,0.9-0.7,1.3-0.9
				c0.3,0.3,0.5,0.6,0.3,1C36.5,404.2,36.4,404.3,36.3,404.4z"/>
			<path id="XMLID_995_" class="st84" d="M36.6,404.1c-0.1-0.3-0.2-0.7-0.3-1c0.4-0.2-0.2-0.9,0.4-0.8c0.5,0,0.5,0.5,0.6,0.8
				C37,403.4,37.2,404,36.6,404.1z"/>
			<path id="XMLID_994_" class="st85" d="M29.5,403.5c0.2,0,0.4,0,0.7,0c-0.1,0.4,0.5,0.8,0.1,1.1c0,0-0.3-0.2-0.5-0.3
				C28.8,404.2,29.4,403.8,29.5,403.5z"/>
			<path id="XMLID_993_" class="st75" d="M37,400.8c-0.2-1.6,1.1-0.7,1.6-1c0.2,0.5-0.3,0.5-0.5,0.7c-0.3,0.1-0.5,0.3-0.8,0.3
				C37.2,400.8,37.1,400.8,37,400.8z"/>
			<path id="XMLID_992_" class="st61" d="M37.3,400.8c0.1-0.3,0.4-0.3,0.7-0.3c0.1,0.1,0.1,0.1,0.1,0.2c0,0.1-0.1,0.1-0.1,0.1
				c0,0.1,0,0.2,0,0.3C37.4,401.7,37.4,401.3,37.3,400.8z"/>
			<path id="XMLID_991_" class="st22" d="M34,401.5c0.3-0.1,0.7-0.5,1,0C34.7,401.9,34.4,401.9,34,401.5z"/>
			<path id="XMLID_990_" class="st89" d="M37.9,400.8c0-0.1,0-0.2,0-0.3c0.2-0.2,0.4-0.4,0.7-0.7c0.1,0,0.2,0,0.3,0
				C38.9,400.5,38.6,400.8,37.9,400.8z"/>
			<path id="XMLID_989_" class="st94" d="M35.3,400.2c-0.5,0-0.8-0.2-1-0.7c0-0.7,0.3-1,1-0.7c0.1,0.3,0.4,0.3,0.7,0.3
				c0.1,0.1,0.3,0.1,0.3,0.3C36,399.8,35.7,400,35.3,400.2z"/>
			<path id="XMLID_988_" class="st33" d="M36.3,399.5c-0.1-0.1-0.2-0.2-0.3-0.3c0.5-0.1,1.1-0.2,1.6-0.3
				C37.4,399.5,36.9,399.6,36.3,399.5z"/>
			<path id="XMLID_987_" class="st112" d="M35.3,398.9c-0.5,0-0.8,0.2-1,0.7c-0.5-0.4-1.2,0-1.6-0.6c0.1-0.9,1.1-0.1,1.4-0.8
				c-0.9-0.2-1.2-0.7-0.5-1.4c0.5-0.5,0.2-0.6-0.3-0.7c0.3-0.3,0.7-0.7,1-1c0.6,0.6,1.4,0.9,2,1.6c-0.3,0.7-0.2,1.5-0.7,2
				C35.5,398.7,35.4,398.8,35.3,398.9z"/>
			<path id="XMLID_986_" class="st66" d="M35.7,398.6c-0.1-0.7-0.1-1.5,0.7-1.9c0.1-0.1,0.2-0.1,0.3,0c0.3,0.1,0.7,0.3,0.8-0.1
				c0.5-1.3,0.6-0.1,0.8,0.1c-0.2,1.1-1.7,0.9-2,2C36.1,398.6,35.9,398.6,35.7,398.6z"/>
			<path id="XMLID_985_" class="st129" d="M39.6,394.3c-0.2,0.9-0.8,0.7-1.4,0.4c-0.4-0.2-0.7-0.7-1.3-0.4c-0.8-0.1-0.6-0.5-0.3-1
				c0.2-0.5,0.7-0.7,0.7-1.3c0.7,0,1.3,0,2,0c0.2,0.4,0,0.6-0.1,1c-0.1,0.2-0.2,0.4-0.1,0.6C39.2,393.9,39.5,394,39.6,394.3z"/>
			<path id="XMLID_984_" class="st124" d="M36.6,393.3c0,0.4-0.1,0.7,0.3,1c0,0.1,0.1,0.3,0.1,0.3c-1,0.7-1,0.7-0.4,2
				c-0.1,0-0.2,0-0.3,0c-0.7-0.5-1.9-0.3-2-1.6c0.1-0.1,0.2-0.2,0.3-0.3c0.5-0.5,0.7-1.3,1.6-1.3C36.4,393.3,36.5,393.3,36.6,393.3z
				"/>
			<path id="XMLID_983_" class="st125" d="M36.3,393.3c-0.5,0.5-0.9,1.1-1.6,1.3c0-0.6-0.1-1.1-0.7-1.3c-0.4,0.3-0.6,0.2-0.8-0.2
				c0-0.2,0-0.3,0.1-0.5c0.5-0.2,1,0,1.6-0.3C35.6,392.2,36.4,392.2,36.3,393.3z"/>
			<path id="XMLID_982_" class="st66" d="M33.4,392.7c0,0.1,0,0.2,0,0.3c-0.4,0.5-0.9,0.9-1.6,0.7c0-0.2,0-0.4,0-0.6
				C32.2,392.7,32.8,392.6,33.4,392.7z"/>
			<path id="XMLID_981_" class="st59" d="M34.7,408.4c0-0.1,0-0.2,0-0.3c0.1-0.7,0.5-0.7,1-0.6c0.7,0.2,0.6-0.3,0.6-0.7
				c0.6-0.5,0.9-0.1,1.3,0.3c-0.1,0.1-0.2,0.2-0.3,0.3c-0.3,0.5-0.6,1.1-0.8,1.6c-0.3,0.7-0.7,1-1.4,0.7
				C35,409.2,35.2,408.7,34.7,408.4z"/>
			<path id="XMLID_980_" class="st104" d="M38.3,411.3c-0.2,0.2-0.4,0.4-0.6,0.7c-0.4,0.2-0.6,0.8-1,1h0c-0.2,0.3-0.5,0.5-0.7,0.8
				c-0.3,0.6-0.9,0.9-1.4,1.3c-0.5,0.2-0.6,0.7-0.8,1.1c-0.2,0-0.4,0-0.6,0c-0.5-0.8-1.5-1.5-0.2-2.4c0.1-0.1,0.2-0.2,0.2-0.2
				c-1.2-1.4,1.1-0.8,0.9-1.6c0.4-0.6,0.9-0.9,1.6-0.7c0.1,0,0.2,0,0.3,0c0.5-0.4,1.1-0.3,1.6-0.3C38,410.8,38.3,410.7,38.3,411.3z"
				/>
			<path id="XMLID_979_" class="st114" d="M33.7,416.2c-0.2-0.7,0-1.1,0.7-1.3c0.1,0,0.1,0,0.2,0c0.5,0.1,1,0.1,1.5,0.2
				c0.6,0.4,0.4,1.1,0.6,1.7c0.2,0.3,0.7,0.5,0.3,1C35.6,417.8,34.8,416.7,33.7,416.2z"/>
			<path id="XMLID_978_" class="st75" d="M36.6,416.8c-1.2-0.2,0.1-1.3-0.7-1.6c-0.1-0.1-0.2-0.2-0.2-0.4c0.1-0.4,0.2-0.9-0.2-1.2
				c0-0.7,0.5-0.7,1-0.7c0.3,0.2,0.7,0.4,1,0.7c-0.8,0.4-0.5,1-0.3,1.6c0.7,0.7,0.1,1.1-0.3,1.6C36.9,416.8,36.8,416.8,36.6,416.8z"
				/>
			<path id="XMLID_977_" class="st110" d="M37.6,411c-0.5,0.5-1.1,0.3-1.6,0.3C36.4,410.6,36.9,410.4,37.6,411z"/>
			<path id="XMLID_976_" class="st76" d="M31.7,393.7c0.5-0.2,1.1-0.4,1.6-0.7c0.1,0.3,0.4,0.3,0.7,0.3c-0.2,0.4-0.3,1-1,1
				c-0.5-0.4-0.7,0-1,0.3c-0.2,0-0.4,0-0.6,0c0-0.2,0-0.4,0-0.7C31.5,393.9,31.6,393.8,31.7,393.7z"/>
			<path id="XMLID_975_" class="st66" d="M32.1,394.6c0-0.3,0.1-0.7,0.4-0.8c0.3-0.1,0.4,0.2,0.6,0.5
				C32.7,394.4,32.4,394.5,32.1,394.6z"/>
			<path id="XMLID_974_" class="st96" d="M39.6,394.3c-0.5,0-0.8-0.2-1-0.7c0.2-0.5,0.9-0.2,1-0.7c-0.1-0.3-0.2-0.6,0-0.9
				c0.3,0,0.7,0,1,0c0,1.4,1.2,1.2,2.1,1.5C41.6,393.8,40.6,394,39.6,394.3z"/>
			<path id="XMLID_973_" class="st108" d="M30.4,390.1c0.7-0.2,1.3-0.4,2-0.7C31.5,391,31.3,391.1,30.4,390.1z"/>
			<path id="XMLID_972_" class="st116" d="M39.6,392c0.1,0.3,0.2,0.7,0.3,1c-0.3,0.2-0.7,0.2-1,0c0.1-0.3,0.2-0.7,0.3-1
				C39.4,392,39.5,392,39.6,392z"/>
			<path id="XMLID_971_" class="st75" d="M36.6,412.9c0.2-0.4,0.3-1,1-1C37.4,412.4,37.3,412.9,36.6,412.9z"/>
			<path id="XMLID_970_" class="st98" d="M32.1,401.5c-0.2-0.4-0.6-0.3-1-0.3c0.4-0.4,0.9-1,1.4-0.2
				C32.8,401.3,32.4,401.4,32.1,401.5z"/>
			<path id="XMLID_969_" class="st130" d="M38.9,393c0.3,0,0.7,0,1,0c0.2,0.8,0.2,0.9-0.3,0.7c-0.4-0.2-0.7,0-1.1,0
				C38.1,393.1,38.5,393.1,38.9,393z"/>
			<path id="XMLID_968_" class="st77" d="M35.7,413.6c1.2,0.2,1,0.7,0.3,1.3c-0.5,0.4-1.1,0.3-1.6,0c0,0,0,0,0,0
				C34.8,414.4,35.2,414,35.7,413.6z"/>
			<path id="XMLID_967_" class="st131" d="M34.4,414.9c0.5,0,1.1,0,1.6,0c0,0.1,0,0.2,0,0.3C35.3,415.6,34.8,415.4,34.4,414.9z"/>
		</g>
	</g>
	<g id="XMLID_4_">
		<path id="XMLID_37_" class="st132" d="M-85.5,362.2c10.3-2.1,21.2-3.2,32.7-3.2c26.4,0,39.6,12.3,39.6,36.9
			c0,27.2-12.3,40.7-36.8,40.7c-5.2,0-10.5-1.2-15.8-3.7v31.8h-19.6V362.2z M-65.9,416.4c4.9,2.7,10.1,4,15.8,4
			c11.7,0,17.5-8.2,17.5-24.6c0-14-6.5-20.9-19.4-20.9c-5.6,0-10.2,0.3-13.9,1V416.4z"/>
		<path id="XMLID_49_" class="st132" d="M101.5,330.9v105.7H81.9V330.9H101.5z"/>
		<path id="XMLID_71_" class="st132" d="M135.8,330.9v15.5h-19.6v-15.5H135.8z M135.8,359v77.6h-19.6V359H135.8z"/>
		<path id="XMLID_106_" class="st132" d="M149.4,346.4h14.5l3,12.6h19.5v15.5H169v35.7c0,7.2,3.1,10.9,9.4,10.9h8v15.5H169
			c-13,0-19.5-7-19.5-20.9V346.4z"/>
		<path id="XMLID_120_" class="st132" d="M215.5,330.9v15.5h-19.6v-15.5H215.5z M215.5,359v77.6h-19.6V359H215.5z"/>
		<path id="XMLID_128_" class="st132" d="M299.5,464.7h-19.6v-31.8c-5.3,2.5-11.3,3.7-18,3.7c-23.6,0-35.3-13.1-35.3-39.3
			c0-25.6,13.4-38.4,40.3-38.4c10,0,20.9,1.1,32.7,3.2V464.7z M279.9,376.6c-4.7-1.2-9-1.8-12.9-1.8c-14,0-21.1,7.5-21.1,22.4
			c0,15.4,6.1,23.1,18.3,23.1c6.1,0,11.4-1.3,15.8-4V376.6z"/>
	</g>
	<g id="XMLID_46_">
		<g>
			<path class="st133" d="M127.6,449"/>
		</g>
	</g>
</g>
</svg>
