<svg xmlns="http://www.w3.org/2000/svg" width="126.148" height="43.829" viewBox="0 0 126.148 43.829">
  <g id="XMLID_5_" transform="translate(85.5 -330.9)">
    <g id="XMLID_3_" transform="translate(-60.998 339.057)">
      <path id="XMLID_36_" d="M8.925,387.251a11.825,11.825,0,1,1,11.825-11.825A11.841,11.841,0,0,1,8.925,387.251Z" transform="translate(5.455 -361.045)"/>
      <path id="XMLID_9_" d="M3.68,360.943a9.27,9.27,0,1,1,0,18.541,9.27,9.27,0,1,1,0-18.541m0-5.143a14.38,14.38,0,1,0,14.38,14.38A14.378,14.378,0,0,0,3.68,355.8Z" transform="translate(10.7 -355.8)" fill="#34d3eb"/>
    </g>
    <g id="XMLID_2_" transform="translate(-53.659 345.705)">
      <g id="XMLID_966_" transform="translate(0 0)">
        <path id="XMLID_1269_" d="M15.285,402.3a6.846,6.846,0,0,1,1.605-1.147.1.1,0,0,1,.131,0,.6.6,0,0,1-.393.622,2.453,2.453,0,0,0-.655.491c-.1.1-.2.2-.1.36a.449.449,0,0,1,.033.491,2.119,2.119,0,0,1-.262.295c-.131.1-.229.229-.426.1C14.892,403.049,15.252,402.689,15.285,402.3Z" transform="translate(-13.976 -392.926)" fill="#ed6162"/>
        <path id="XMLID_1268_" d="M43.048,394.917l1.867-.295a1.713,1.713,0,0,1,1.212.164.457.457,0,0,1,.1.295.17.17,0,0,1-.066.131.249.249,0,0,1-.131.065.965.965,0,0,1-.426-.164.17.17,0,0,0-.131-.066.516.516,0,0,0-.557-.131c-.164.033-.36-.033-.524.066-.066.033-.1.1-.164.131a.17.17,0,0,1-.131.066,1.87,1.87,0,0,0-.95.033c-.066.033-.131.033-.2.065-.229.131-.426.295-.721.2-.033,0-.1-.033-.131-.033l-.1-.1c.033-.131.131-.2.262-.262C42.524,394.885,42.819,395.048,43.048,394.917Z" transform="translate(-32.076 -388.529)" fill="#ed6968"/>
        <path id="XMLID_1267_" d="M14.978,395.484a14.008,14.008,0,0,1-2.227.819.733.733,0,0,1-.917-.459,1,1,0,0,1,.229-1.245c.2.36-.1.819.262,1.114a.647.647,0,0,0,.393.2c.262.066.459-.1.688-.164.328-.066.59-.229.917-.295C14.519,395.419,14.749,395.288,14.978,395.484Z" transform="translate(-11.703 -388.539)" fill="#f0867f"/>
        <path id="XMLID_1266_" d="M37.16,421.31a1.287,1.287,0,0,1-1.441.557,1.138,1.138,0,0,1-.655-1.245.9.9,0,0,1,.262-.622c.229.164.066.426.164.622.1.229.2.426.295.655a.549.549,0,0,0,.852.164C36.8,421.376,36.931,421.179,37.16,421.31Z" transform="translate(-27.4 -405.619)" fill="#f3a096"/>
        <path id="XMLID_1265_" d="M18.338,395.552c-.59-.033-1.048.393-1.638.426.033-.36.328-.459.622-.524a1.75,1.75,0,0,0,.59-.164,3.411,3.411,0,0,1,.59-.328,4.4,4.4,0,0,0,.655-.033,1.373,1.373,0,0,0,.491-.131.747.747,0,0,1,.36-.1.487.487,0,0,1,.295.065c.033.033.066.1.033.131-.1.1-.262,0-.36.1C19.419,395.093,18.927,395.421,18.338,395.552Z" transform="translate(-15.063 -388.606)" fill="#ee726e"/>
        <path id="XMLID_1264_" d="M18.7,378.982c.426-.229.95-.229,1.376-.426a11.541,11.541,0,0,1,2.588-.426h.491a.4.4,0,0,1,.426-.033c.066.328-.2.229-.36.295a1.476,1.476,0,0,0-.36.1h-.131a1.051,1.051,0,0,0-.459.033c-.131.033-.295.033-.426.065a3.1,3.1,0,0,0-1.212.262,1.372,1.372,0,0,1-.491.131,2.28,2.28,0,0,0-1.048.164c-.131.033-.262.033-.328-.1A.07.07,0,0,1,18.7,378.982Z" transform="translate(-16.408 -377.408)" fill="#ee7672"/>
        <path id="XMLID_1263_" d="M24.088,408.273c-.786.328-1.54.655-2.326.983a.217.217,0,0,1-.2.033.17.17,0,0,1-.066-.131.788.788,0,0,1,.262-.2.576.576,0,0,0,.164-.131,1.869,1.869,0,0,0,.262-.229c.033-.033.066-.033.1-.065.131.033.164-.131.229-.164a11.23,11.23,0,0,0,1.474-.524c.131-.033.229-.1.36-.065a.248.248,0,0,1,.066.131C24.415,408.175,24.35,408.339,24.088,408.273Z" transform="translate(-18.291 -397.397)" fill="#ed6264"/>
        <path id="XMLID_1262_" d="M44.1,410.086c.983-.262,1.54-.033,1.769.721a1.115,1.115,0,0,1-.557,1.376c-.164-.164-.033-.295.033-.426.36-.917.033-1.409-.95-1.507a.473.473,0,0,1-.229-.066C44.133,410.119,44.133,410.086,44.1,410.086Z" transform="translate(-33.488 -398.882)" fill="#ed6d6a"/>
        <path id="XMLID_1261_" d="M44.8,410.343a1.021,1.021,0,0,1,1.146.459,1.2,1.2,0,0,1-.066,1.31.528.528,0,0,0-.1.295,1,1,0,0,1-.229.164c-.033.033-.066.033-.131,0,.131-.295-.1-.721.328-.983.1-.066-.066-.459-.295-.655S44.931,410.6,44.8,410.343Z" transform="translate(-33.958 -399.106)" fill="#ec5b5f"/>
        <path id="XMLID_1259_" d="M30.755,417.253a1.935,1.935,0,0,1-1.212.1c-.2-.033-.393-.164-.557-.131-.524.1-.655-.229-.786-.622a.283.283,0,0,1,.2-.1.352.352,0,0,1,.2.065c.131.1.2.262.36.295a1.332,1.332,0,0,0,.622,0c.393.1.753.164,1.146.229a.12.12,0,0,1,.033.1Z" transform="translate(-22.796 -403.265)" fill="#ef7f78"/>
        <path id="XMLID_1258_" d="M36.328,422.6c-.1-.229-.229-.426-.328-.655.229-.1.426.131.655,0,.1.131.131.295.295.36a.381.381,0,0,0,.328.066,1.556,1.556,0,0,0,.622-.295c.1-.033.164-.1.262-.033,0,.262-.295.295-.36.524a3.644,3.644,0,0,0-.524.229C36.95,422.8,36.59,422.964,36.328,422.6Z" transform="translate(-28.041 -406.912)" fill="#ef7c77"/>
        <path id="XMLID_1257_" d="M52.331,396.264v-.131c.36-.131.393.164.459.36a1.232,1.232,0,0,1-.557,1.376,2.03,2.03,0,0,1-.983.295.1.1,0,0,1,0-.131c.131-.2.393-.2.59-.328A1.341,1.341,0,0,0,52.331,396.264Z" transform="translate(-38.279 -389.548)" fill="#ee6e6a"/>
        <path id="XMLID_1256_" d="M25.588,378.083c-.852.2-1.736.295-2.588.426.426-.262.819-.688,1.409-.328h.1C24.8,377.657,25.227,378.116,25.588,378.083Z" transform="translate(-19.3 -377.328)"/>
        <path id="XMLID_1255_" d="M33.512,377.433c.066,0,.1-.033.164-.033.721.295.884.688.459,1.278-.066.033-.1,0-.131-.033-.1-.131-.1-.328-.2-.491-.131-.393-.426-.459-.786-.393H32.89a.248.248,0,0,1-.131-.066H32.3a.452.452,0,0,1,.131-.1.618.618,0,0,1,.524-.1C33.152,377.465,33.348,377.531,33.512,377.433Z" transform="translate(-25.553 -376.973)" fill="#f0817a"/>
        <path id="XMLID_1253_" d="M41.99,419.172c-.066.033-.164.065-.229.1a.17.17,0,0,1-.066-.131c-.033-.295.328-.426.262-.721a4.264,4.264,0,0,0,.491-.59.523.523,0,0,1,.295-.229.333.333,0,0,1,.328.164C42.613,418.19,42.384,418.747,41.99,419.172Z" transform="translate(-31.87 -404.005)" fill="#ec5d60"/>
        <path id="XMLID_1252_" d="M12.761,394.905c-.491-.328-.262-.786-.229-1.179.1-.164.131-.328.328-.426a.966.966,0,0,0,.164.426c.066.229-.164.426-.1.655-.033.2.229.393.033.59A.241.241,0,0,1,12.761,394.905Z" transform="translate(-12.205 -387.665)" fill="#ec5c5f"/>
        <path id="XMLID_1251_" d="M17.458,411.28h.229a1.567,1.567,0,0,1-.753.426,1.463,1.463,0,0,1-.917.1.17.17,0,0,1-.131-.066c-.131-.131-.164-.36-.36-.459a.17.17,0,0,1-.066-.131.357.357,0,0,1,.066-.36c.2,0,.36-.065.426.262.066.36.459.262.753.295C16.967,411.379,17.2,411.182,17.458,411.28Z" transform="translate(-14.216 -399.421)" fill="#f1867f"/>
        <path id="XMLID_1250_" d="M48.3,401.762v.1a.453.453,0,0,0-.1.131c-.295.131-.59.295-.884.393a.412.412,0,0,1-.426-.065.367.367,0,0,1,.1-.491,1.8,1.8,0,0,1,1.146-.262A.208.208,0,0,1,48.3,401.762Z" transform="translate(-35.324 -393.211)" fill="#ea4754"/>
        <path id="XMLID_1249_" d="M54.3,397.264c.295-.36.622-.753.459-1.278-.066-.2-.066-.426-.36-.459V395.2a.9.9,0,0,1,.622.983A1.038,1.038,0,0,1,54.3,397.264Z" transform="translate(-40.347 -388.942)" fill="#f29088"/>
        <path id="XMLID_1248_" d="M24.46,395.981c.262-.328.688-.426.983-.721a.482.482,0,0,1,.164-.2,1.327,1.327,0,0,1,.295-.164c.066,0,.1.033.1.065.033.2-.1.328-.2.459a1,1,0,0,1-.229.164,2.521,2.521,0,0,0-.917.753c-.131.229-.393.229-.557-.033C24.1,396.079,24.395,396.145,24.46,395.981Z" transform="translate(-20.039 -388.741)" fill="#eb595e"/>
        <path id="XMLID_1247_" d="M45.819,391.8a12.788,12.788,0,0,0-2.391,1.015c-.066.131-.164.1-.262.066a.17.17,0,0,1-.066-.131.44.44,0,0,1,.2-.229,6.438,6.438,0,0,0,.819-.426c.393-.2.819-.262,1.245-.426A.42.42,0,0,1,45.819,391.8Z" transform="translate(-32.815 -386.554)" fill="#ed6a69"/>
        <path id="XMLID_1246_" d="M16.1,412.286a1.045,1.045,0,0,1-1.7-.753c.033-.033.066-.033.131-.033a.4.4,0,0,1,.295.262h0c.164.1.2.295.328.426h0C15.481,412.319,15.809,412.155,16.1,412.286Z" transform="translate(-13.517 -399.903)" fill="#f7beb4"/>
        <path id="XMLID_1245_" d="M13.814,392.61a.319.319,0,0,1-.1-.426.315.315,0,0,1,.229-.328c.2,0,.229-.295.459-.262a.248.248,0,0,1,.131.066.935.935,0,0,1,0,.426c-.033.033-.033.1-.066.131-.066.164-.033.36-.229.459A.485.485,0,0,1,13.814,392.61Z" transform="translate(-13.029 -386.516)" fill="#eb595e"/>
        <path id="XMLID_1244_" d="M45.1,403.787h.426c.066.033.066.066,0,.131a2.915,2.915,0,0,1-1.147.753.557.557,0,0,1-.229.033c-.1-.262.131-.36.295-.459s.328-.1.426-.295C44.938,403.852,44.97,403.754,45.1,403.787Z" transform="translate(-33.506 -394.712)" fill="#ed6465"/>
        <path id="XMLID_1243_" d="M17.584,381c.066-.033.164-.066.229-.1l.033.033c.262.229.033.557.164.786.033.2.426.2.295.491a.613.613,0,0,1-.852-.459c-.033-.065-.033-.1-.066-.164A.807.807,0,0,1,17.584,381Z" transform="translate(-15.521 -379.327)" fill="#f28f86"/>
        <path id="XMLID_1242_" d="M29.292,407.91v-.1l.066-.065a.31.31,0,0,1,.36.1.489.489,0,0,1,.1.229.755.755,0,0,1-.36.655c-.229.033-.36.459-.688.262-.066-.164.1-.229.1-.36a1.827,1.827,0,0,1,.164-.262C29.161,408.27,29.423,408.2,29.292,407.91Z" transform="translate(-23.168 -397.361)" fill="#ed6263"/>
        <path id="XMLID_1241_" d="M19.866,385.517a5.222,5.222,0,0,1,1.081-.819l.1-.1h.131l.1.1a.219.219,0,0,1-.1.262.658.658,0,0,1-.262.131c-.1.033-.164.033-.2.131l-.1.1a.894.894,0,0,0-.393.295.589.589,0,0,1-.295.2.17.17,0,0,1-.131-.065A.276.276,0,0,1,19.866,385.517Z" transform="translate(-17.148 -381.815)" fill="#ed6565"/>
        <path id="XMLID_1240_" d="M27.217,410.5c.033.131-.033.229-.1.36a.81.81,0,0,1-.229.688,2.994,2.994,0,0,0-.262.426c-.066.066-.1.1-.2.066a.264.264,0,0,1-.1-.36A7.389,7.389,0,0,1,27.217,410.5Z" transform="translate(-21.519 -399.23)" fill="#ee7570"/>
        <path id="XMLID_1239_" d="M15,404.7c.1.393-.229.819,0,1.212a.889.889,0,0,1,.131.655.257.257,0,0,1-.36,0,1.315,1.315,0,0,1-.1-.491v-.164a1.87,1.87,0,0,1,.131-.95A.34.34,0,0,1,15,404.7Z" transform="translate(-13.694 -395.33)" fill="#ef7f79"/>
        <path id="XMLID_1238_" d="M39.855,410.233a9.2,9.2,0,0,0,.95-.033v.065c0,.295-.328.229-.426.426-.033.033-.1.033-.131.066h-.131c-.164-.033-.328-.131-.491-.164-.164-.065-.426.033-.426-.262C39.4,410.135,39.659,410.4,39.855,410.233Z" transform="translate(-30.193 -399.029)" fill="#eb565c"/>
        <path id="XMLID_1237_" d="M36.488,420.284c-.229.262-.426.066-.655,0-.1-.229.066-.459-.033-.655.033-.1.033-.2.131-.229l.1.1a.958.958,0,0,0,.229.393c.066.131.229.131.295.262A.248.248,0,0,1,36.488,420.284Z" transform="translate(-27.907 -405.215)" fill="#ed6967"/>
        <path id="XMLID_1236_" d="M21.718,383.483a1.6,1.6,0,0,1-.229.1.247.247,0,0,1-.033-.262,1.316,1.316,0,0,1,.917-.328c.295-.033.491.131.459.491a.282.282,0,0,1-.459.1v-.033a.23.23,0,0,0-.328-.131C21.914,383.45,21.816,383.385,21.718,383.483Z" transform="translate(-18.247 -380.73)" fill="#ee716d"/>
        <path id="XMLID_1235_" d="M22.107,398.2c0,.2-.229.2-.295.36a1.037,1.037,0,0,1-1.081.655.2.2,0,0,1-.131-.033A7.439,7.439,0,0,1,22.107,398.2Z" transform="translate(-17.686 -390.96)" fill="#ed6b69"/>
        <path id="XMLID_1234_" d="M53.238,389.389c0,.459-.426.557-.688.819a8.594,8.594,0,0,0-.917.033.12.12,0,0,1-.033-.1c0-.033,0-.033.033-.033a.469.469,0,0,1,.36-.1.969.969,0,0,0,.328-.065.781.781,0,0,0,.36-.2c.2-.066.2-.36.459-.393C53.172,389.323,53.205,389.323,53.238,389.389Z" transform="translate(-38.531 -384.998)" fill="#ef7f79"/>
        <path id="XMLID_1233_" d="M14.434,407.324v.1c-.2.295.131.655-.1.983H14.2c.033-.524-.229-1.081,0-1.605C14.369,406.931,14.27,407.16,14.434,407.324Z" transform="translate(-13.322 -396.742)" fill="#f7b8af"/>
        <path id="XMLID_1232_" d="M18.453,387.4v.229c.033.164-.1.262-.164.36a1,1,0,0,1-.229.164c-.131.033-.229.1-.36,0A1.533,1.533,0,0,1,18.453,387.4Z" transform="translate(-15.736 -383.697)" fill="#ee7672"/>
        <path id="XMLID_1231_" d="M19.834,383.393v.2c-.066,0-.131.033-.2.033-.066.033-.164.065-.229-.033a.687.687,0,0,1-.426-.426c-.033-.1.033-.131.1-.164A2.071,2.071,0,0,1,19.834,383.393Z" transform="translate(-16.592 -380.739)" fill="#ee6e6a"/>
        <path id="XMLID_1230_" d="M40.815,407.555c-.295.262-.59.491-.852.753a.1.1,0,0,1-.131,0c0-.033-.033-.033-.033-.065v-.066a1.542,1.542,0,0,1,.426-.491c.131-.1.262-.229.459-.2A.17.17,0,0,1,40.815,407.555Z" transform="translate(-30.596 -397.203)" fill="#ee726e"/>
        <path id="XMLID_1229_" d="M26.764,414.887l.1-.1a.154.154,0,0,1,.2-.033l.1.1c.033.164.164.229.262.295.131.1.131.2,0,.262H27.19a1.59,1.59,0,0,0-.229-.1C26.863,415.182,26.568,415.149,26.764,414.887Z" transform="translate(-21.786 -402.078)" fill="#ef7e78"/>
        <path id="XMLID_1228_" d="M18.273,383.724c.066,0,.131.033.229.033a.836.836,0,0,1-.983,0c-.066-.164-.426-.295-.1-.557C17.618,383.528,17.782,383.921,18.273,383.724Z" transform="translate(-15.457 -380.873)" fill="#f6b3aa"/>
        <path id="XMLID_1227_" d="M17.107,382.124c-.164.229.164.36.1.557a.67.67,0,0,1-.2-1.081c.131.164-.033.36.1.524Z" transform="translate(-15.142 -379.797)" fill="#f7bbb1"/>
        <path id="XMLID_1226_" d="M16.49,389.5c.131-.033.229-.065.36-.1-.033.36-.393.459-.557.721a.244.244,0,0,1-.295.033h0c-.066-.065-.066-.131,0-.229A5.691,5.691,0,0,0,16.49,389.5Z" transform="translate(-14.559 -385.042)" fill="#eb5159"/>
        <path id="XMLID_1225_" d="M42.46,395.333c.1,0,.2-.033.295-.033.066.164.229.131.36.131a2.016,2.016,0,0,1-.753.229.16.16,0,0,1-.262-.066.351.351,0,0,1,.066-.2A.334.334,0,0,1,42.46,395.333Z" transform="translate(-32.143 -389.009)"/>
        <path id="XMLID_1224_" d="M14.7,406.383c-.328-.1-.131-.36-.2-.557a.56.56,0,0,1,.229-.426C14.7,405.728,14.7,406.055,14.7,406.383Z" transform="translate(-13.584 -395.801)" fill="#f18a81"/>
        <path id="XMLID_1223_" d="M48.4,403.259v-.131a2.1,2.1,0,0,1,.852-.328A1.461,1.461,0,0,1,48.4,403.259Z" transform="translate(-36.379 -394.053)" fill="#ee7974"/>
        <path id="XMLID_1222_" d="M45.15,417.188a1.6,1.6,0,0,1-.36-.131c-.033-.164.1-.2.164-.295a.32.32,0,0,1,.459.066h.1A3.744,3.744,0,0,1,45.15,417.188Z" transform="translate(-33.948 -403.396)" fill="#ec5c5f"/>
        <path id="XMLID_1221_" d="M29.728,408.3c.131.033.229.066.164.229-.1.2-.229.328-.459.2,0-.033-.033-.065-.033-.131A.427.427,0,0,0,29.728,408.3Z" transform="translate(-23.603 -397.751)" fill="#ef817b"/>
        <path id="XMLID_1220_" d="M26.43,414.46c-.033.2.164.295.2.426-.491-.1-.491-.393-.328-.786A1.174,1.174,0,0,0,26.43,414.46Z" transform="translate(-21.452 -401.651)" fill="#f39b92"/>
        <path id="XMLID_1219_" d="M15.024,391v.229c-.229-.066-.229.459-.524.229A.909.909,0,0,1,15.024,391Z" transform="translate(-13.584 -386.118)" fill="#ef837d"/>
        <path id="XMLID_1218_" d="M42.631,406.816H42.5c.033-.328.229-.459.557-.426h.229A7.423,7.423,0,0,1,42.631,406.816Z" transform="translate(-32.412 -396.463)" fill="#ee716d"/>
        <path id="XMLID_1217_" d="M33.324,377.342a.759.759,0,0,1-.524.1C32.866,376.981,33.095,377.211,33.324,377.342Z" transform="translate(-25.889 -376.816)"/>
        <path id="XMLID_1216_" d="M17.65,413.7c-.328-.033-.655.1-.95-.1h1.081A.453.453,0,0,1,17.65,413.7Z" transform="translate(-15.063 -401.315)" fill="#f18c83"/>
        <path id="XMLID_1215_" d="M17.5,381.855c-.164-.164-.066-.36-.1-.524a.2.2,0,0,1,.2-.131C17.564,381.429,17.531,381.659,17.5,381.855Z" transform="translate(-15.534 -379.528)" fill="#f6b3aa"/>
        <path id="XMLID_1214_" d="M39.512,409.983h.131c.066.131.2.066.328.1-.2.164-.426.1-.622.1C39.283,410.016,39.348,409.95,39.512,409.983Z" transform="translate(-30.276 -398.877)" fill="#f39d94"/>
        <path id="XMLID_1213_" d="M27.522,395.281c-.066.033-.131.1-.2.131-.1-.164-.295-.065-.426-.1.066-.1.2-.1.295-.1C27.326,395.117,27.457,395.051,27.522,395.281Z" transform="translate(-21.922 -388.892)"/>
        <path id="XMLID_1212_" d="M50.422,391.448v.1H49.8v-.1A.455.455,0,0,1,50.422,391.448Z" transform="translate(-37.321 -386.337)" fill="#eb535a"/>
        <path id="XMLID_1211_" d="M22.3,384.2a.4.4,0,0,1,.328-.1c.066-.066.164-.066.2.033a.159.159,0,0,1-.1.2h-.1C22.562,384.2,22.4,384.237,22.3,384.2Z" transform="translate(-18.829 -381.452)" fill="#fac9bf"/>
        <path id="XMLID_1210_" d="M36,418.437c0-.033.033-.066.033-.1.1-.1.2-.1.262-.033.1.1.033.229-.033.328a.144.144,0,0,1-.164.033V418.6A.717.717,0,0,1,36,418.437Z" transform="translate(-28.041 -404.449)" fill="#f8c4bb"/>
        <path id="XMLID_1208_" d="M30.794,383.329c-.1.066-.2.164-.295.229a2.142,2.142,0,0,1-.753.426.487.487,0,0,1-.295-.066c-.1-.262.131-.295.229-.426a8.247,8.247,0,0,1,.95-.393C30.794,383.133,30.794,383.231,30.794,383.329Z" transform="translate(-23.621 -380.806)" fill="#ed6867"/>
        <path id="XMLID_1207_" d="M30.4,384.828a3.09,3.09,0,0,1,.753-.328c-.033.1-.066.229.1.229h.753l.033.033a.12.12,0,0,1-.066.164,9.916,9.916,0,0,1-1.048.2C30.728,385.057,30.466,385.155,30.4,384.828Z" transform="translate(-24.276 -381.747)"/>
        <path id="XMLID_1206_" d="M33.466,382.816c-.033-.065-.033-.131-.066-.2a.327.327,0,0,1,.131-.164c.2-.033.393-.229.622-.033,0,.262-.229.229-.36.295C33.695,382.751,33.564,382.783,33.466,382.816Z" transform="translate(-26.293 -380.293)" fill="#ef8079"/>
        <path id="XMLID_1205_" d="M34.6,382.559c.131-.1.229-.2.36-.295.033-.1.131-.131.229-.164a.416.416,0,0,1,.2.033A.749.749,0,0,1,34.6,382.559Z" transform="translate(-27.1 -380.133)"/>
        <path id="XMLID_1204_" d="M36.529,381.393h-.2c0-.033-.033-.033-.033-.065a.427.427,0,0,1,.295-.328c.066,0,.1,0,.131.033l.033.033-.1.2Z" transform="translate(-28.243 -379.394)" fill="#f0817a"/>
        <path id="XMLID_1203_" d="M42.5,384.727a27.323,27.323,0,0,1,3.276.033c0,.066,0,.1-.066.131a3.253,3.253,0,0,1-.983.164,5.059,5.059,0,0,0-1.015.164c-.164.033-.2-.262-.393-.2-.033,0-.1.033-.131.033-.295-.1-.622.033-.884-.164C42.333,384.792,42.333,384.661,42.5,384.727Z" transform="translate(-32.277 -381.876)" fill="#eb535a"/>
        <path id="XMLID_1202_" d="M54.528,385a1.069,1.069,0,0,1,.459,1.376l-.033-.033a1.352,1.352,0,0,1-.36-.229.17.17,0,0,1-.066-.131v-.066c.033-.033.033-.1.066-.131.131-.262-.066-.36-.229-.524-.1-.065-.164-.1-.164-.229a.17.17,0,0,1,.066-.131A.272.272,0,0,0,54.528,385Z" transform="translate(-40.279 -382.016)" fill="#ef7f79"/>
        <path id="XMLID_1201_" d="M37.722,384.666a.219.219,0,0,0-.131.229c-.262.229-.59,0-.852.033a5.736,5.736,0,0,0-1.048.131h-.164a.434.434,0,0,1-.328-.2.114.114,0,0,1,.033-.065c.622-.066,1.245-.1,1.834-.164A1.09,1.09,0,0,1,37.722,384.666Z" transform="translate(-27.503 -381.815)" fill="#ec5e61"/>
        <path id="XMLID_1200_" d="M53.426,384.9v.131c-.131.131-.262.033-.393-.066,0-.033-.033-.033-.033-.065v-.1A.682.682,0,0,1,53.426,384.9Z" transform="translate(-39.472 -381.949)" fill="#ed6967"/>
        <path id="XMLID_1199_" d="M18.844,398.107a2.672,2.672,0,0,0,1.081-.655c.164.065.393.2.426-.033.131-.524.655-.491.95-.819a.344.344,0,0,1,.164.295.2.2,0,0,1-.033.131c-.131.065-.1.2-.164.295-.164.295-.459.295-.688.393l-.1.1c-.1.426-.524.229-.721.393-.164.2-.262.426-.59.262-.164-.065-.2.131-.262.2a.571.571,0,0,1-.393.2c-.2.1-.262.459-.59.36-.066,0-.1-.033-.131-.1-.033-.295.295-.459.393-.491C18.549,398.631,18.647,398.336,18.844,398.107Z" transform="translate(-15.798 -389.884)" fill="#ea4553"/>
        <path id="XMLID_1198_" d="M16.683,407.246a1.422,1.422,0,0,1,.229-.2c.033-.033.066-.033.131,0,.131.688.2.721.95.688.2.066.426.1.393.328s-.295.229-.459.262a1.327,1.327,0,0,0-.36,0c-.033.033-.1.033-.131.065a.283.283,0,0,1-.328-.131c.033-.164-.033-.2-.164-.2-.033-.033-.1-.033-.131-.065A1.534,1.534,0,0,1,16.683,407.246Z" transform="translate(-15.046 -396.894)" fill="#e9324b"/>
        <path id="XMLID_1197_" d="M16.057,407.7c.2.229.164.491.229.753,0,.131,0,.328-.164.328-.2.033-.2-.2-.262-.328a.618.618,0,0,1-.1-.524A1.8,1.8,0,0,1,16.057,407.7Z" transform="translate(-14.421 -397.348)" fill="#ea4352"/>
        <path id="XMLID_1196_" d="M17.1,405.352H17a.332.332,0,0,0-.033-.426c-.328-.295-.1-.36.131-.426h.1a.9.9,0,0,0,.295.229c.2.1.164.229.066.36S17.391,405.483,17.1,405.352Z" transform="translate(-15.132 -395.196)" fill="#ea4453"/>
        <path id="XMLID_1195_" d="M42.8,397.631a6.838,6.838,0,0,0-1.179.229.241.241,0,0,1-.2.066.843.843,0,0,0-.786.065c-.033.033-.1.033-.131.066-.459.229-1.015.131-1.376.557a.1.1,0,0,1-.131,0,4,4,0,0,1-.2-.852c.033-.1.131-.164.2-.229.131-.164.262-.328.491-.295.066,0,.1.033.131.033.164.131.131.262,0,.393.262-.1.262-.328.262-.557.066-.131.2-.2.328-.295.328-.459.917-.524,1.31-.852.164-.131.393-.033.557-.131v-.1c.262-.131.524-.033.786-.131.164.164.426-.033.622.131h0c.328.426.1.917.164,1.376C43.648,397.369,43.189,397.6,42.8,397.631Z" transform="translate(-29.924 -389.211)" fill="#e82548"/>
        <path id="XMLID_1194_" d="M41.384,396.451c-.36.36-.95.426-1.278.852a.564.564,0,0,1-.393.066c-.328-.066-.393.1-.36.36-.229,0-.328.164-.426.328-.131.033-.295.164-.328-.1a.77.77,0,0,0,.164-.524,2.252,2.252,0,0,1,.1-.262c.164-.491.622-.524,1.015-.655h.1c.36.328.524.1.655-.229h.2C40.991,396.418,41.352,395.992,41.384,396.451Z" transform="translate(-29.789 -389.636)" fill="#e93b4f"/>
        <path id="XMLID_1193_" d="M51,397.833c.131-.131.328-.164.491-.295a.544.544,0,0,0,.2-.59,3.711,3.711,0,0,1-.033-1.048c.2,0,.262.164.426.229.295.622-.033,1.114-.328,1.605a5.206,5.206,0,0,0-.655.229A.453.453,0,0,0,51,397.833Z" transform="translate(-38.128 -389.413)" fill="#e93a4e"/>
        <path id="XMLID_1192_" d="M53.3,398.205a3.366,3.366,0,0,0,.328-1.605h.1C54.119,397.288,53.791,397.747,53.3,398.205Z" transform="translate(-39.674 -389.884)" fill="#ea4b56"/>
        <path id="XMLID_1191_" d="M39.138,396.758c-.262.328-.786.295-.983.721-.131.033-.295.033-.426.066a.246.246,0,0,1-.229-.164.2.2,0,0,1,.033-.131c.131-.1.295-.131.426-.229a2.706,2.706,0,0,0,.426-.229c.1-.033.229-.1.36-.131a.261.261,0,0,1,.295.066C39.072,396.725,39.105,396.758,39.138,396.758Z" transform="translate(-29.05 -389.911)" fill="#eb565c"/>
        <path id="XMLID_1190_" d="M45.957,396.177c-.1-.066-.164-.229-.36-.1-.131.1-.131.1-.2-.131a1.25,1.25,0,0,1,1.081,0A.773.773,0,0,1,45.957,396.177Z" transform="translate(-34.362 -389.363)" fill="#ea5059"/>
        <path id="XMLID_1189_" d="M43.455,396.3a.357.357,0,0,1-.295.459c-.262.066-.328-.066-.36-.262A.546.546,0,0,0,43.455,396.3Z" transform="translate(-32.614 -389.682)" fill="#ea5059"/>
        <path id="XMLID_1188_" d="M51.588,395.357c-.2-.1-.491.295-.655-.1,0-.033-.033-.033-.033-.066s.033-.033.033-.065C51.195,395.062,51.457,395.062,51.588,395.357Z" transform="translate(-38.06 -388.87)" fill="#e9394e"/>
        <path id="XMLID_1187_" d="M40.927,396.256a.907.907,0,0,0-.295.033c-.131.066-.2,0-.262-.1-.033-.065,0-.1,0-.131a.17.17,0,0,1,.131-.065c.131-.033.295-.1.426,0,.066.033.164.065.229.1C41.091,396.125,41.025,396.19,40.927,396.256Z" transform="translate(-30.97 -389.441)"/>
        <path id="XMLID_1186_" d="M49.453,395.5c-.2.393-.491.065-.753.1l.1-.1a1.114,1.114,0,0,1,.655,0Z" transform="translate(-36.581 -389.11)" fill="#e9394e"/>
        <path id="XMLID_1185_" d="M49.655,395.372H49c.2-.2.426-.066.655-.1Z" transform="translate(-36.783 -388.983)" fill="#ea5059"/>
        <path id="XMLID_1184_" d="M16.6,395.995a.428.428,0,0,1-.393.2,1.017,1.017,0,0,0-.884.426c-.2.065-.393.328-.655.131a.17.17,0,0,1-.066-.131c.131-.328.622-.262.655-.655.066-.131.131-.229.262-.262C15.878,395.831,16.238,395.864,16.6,395.995Z" transform="translate(-13.651 -389.278)" fill="#eb565c"/>
        <path id="XMLID_1183_" d="M13.926,398.331v.1c-.164-.033-.393.066-.426-.229h.229C13.795,398.2,13.86,398.266,13.926,398.331Z" transform="translate(-12.911 -390.96)" fill="#ed6162"/>
        <path id="XMLID_1182_" d="M37,424c.295.229.688-.033.95.2C37.557,424.524,37.229,424.459,37,424Z" transform="translate(-28.714 -408.308)" fill="#f29087"/>
        <path id="XMLID_1181_" d="M18.468,395.532a1.281,1.281,0,0,1-1.081-.229c-.033-.131.066-.164.164-.229a.551.551,0,0,1,.622.1c.262.131.524-.164.786-.033l.066.066C18.828,395.335,18.632,395.433,18.468,395.532Z" transform="translate(-15.521 -388.815)" fill="#e9394e"/>
        <path id="XMLID_1180_" d="M22.922,394.8c-.2.164-.426.033-.622,0h0c.229-.426.622-.426,1.048-.36C23.348,394.664,23.348,394.664,22.922,394.8Z" transform="translate(-18.829 -388.407)" fill="#ea4b56"/>
        <path id="XMLID_1179_" d="M27.15,394.26h-.36c-.033-.164.1-.229.164-.328.033-.033.066-.033.131-.033a1.078,1.078,0,0,1,.426.229.123.123,0,0,1,0,.2C27.379,394.293,27.281,394.326,27.15,394.26Z" transform="translate(-21.844 -388.068)" fill="#ee706d"/>
        <path id="XMLID_1178_" d="M26.29,393.925c.033.164-.164.2-.229.328l-.295.1a.312.312,0,0,1-.066-.229C25.831,393.86,26.06,393.86,26.29,393.925Z" transform="translate(-21.115 -388.061)" fill="#ea4b56"/>
        <path id="XMLID_1177_" d="M24.757,394.533v.2a.816.816,0,0,1-.557.1,3.706,3.706,0,0,0,.426-.328C24.691,394.5,24.724,394.5,24.757,394.533Z" transform="translate(-20.106 -388.472)" fill="#ed6968"/>
        <path id="XMLID_1176_" d="M27.766,394.9c.131,0,.262-.033.393-.033.033-.033.066,0,.1.033,0,.131-.131.164-.229.2-.1-.1-.229-.066-.328-.1C27.733,394.97,27.733,394.938,27.766,394.9Z" transform="translate(-22.46 -388.713)"/>
        <path id="XMLID_1175_" d="M21.672,380.362c.164-.033.36-.065.524-.1.2-.065.262.066.36.2.033.131-.1.295.1.393l.2.2c.229.1.524.1.753.2.033.033.1.033.131.066a.348.348,0,0,1-.033.262c.033.131-.262.033-.131.229a.522.522,0,0,1-.131.393.359.359,0,0,1-.36-.033l-.1-.1c0-.033,0-.033-.033-.066v-.065c.1-.295-.262-.164-.328-.328a.7.7,0,0,0-.328-.524c-.131-.131-.262-.262-.426.033a.5.5,0,0,1-.524.164c-.1,0-.229,0-.262-.131-.033-.1.033-.164.1-.229a2.473,2.473,0,0,0,.36-.459C21.541,380.428,21.606,380.4,21.672,380.362Z" transform="translate(-18.004 -378.887)" fill="#ec535a"/>
        <path id="XMLID_1174_" d="M26.788,379.224h.524c.131.033.295-.1.426,0h0c.066.066.2.033.229.1a.2.2,0,0,1-.033.131,1.371,1.371,0,0,1-.393.262,1.694,1.694,0,0,0-.426.2.4.4,0,0,1-.328.1.958.958,0,0,1-.295-.065.466.466,0,0,1-.2-.065.3.3,0,0,1-.2-.2C26.133,379.322,26.624,379.486,26.788,379.224Z" transform="translate(-21.384 -378.174)" fill="#eb565c"/>
        <path id="XMLID_1173_" d="M25.846,379.3c-.033.1.066.262-.164.229a.448.448,0,0,0-.459.295.123.123,0,0,1-.2,0,1.987,1.987,0,0,1-.328-.229C24.995,379.3,25.453,379.4,25.846,379.3Z" transform="translate(-20.443 -378.251)" fill="#ed6565"/>
        <path id="XMLID_1172_" d="M20.637,380.55l-.1.1a1.01,1.01,0,0,1-.95.262c-.066-.033-.066-.1-.033-.164A1.608,1.608,0,0,1,20.637,380.55Z" transform="translate(-16.969 -379.074)" fill="#ee6e6a"/>
        <path id="XMLID_1171_" d="M19.076,381.1v.1c0,.2.164.393-.1.524l-.1.1c-.295-.262.131-.557-.066-.819A2.262,2.262,0,0,0,19.076,381.1Z" transform="translate(-16.456 -379.394)" fill="#ee706d"/>
        <path id="XMLID_1170_" d="M31.663,378.924v-.1c-.066-.131.066-.229.1-.328.164-.033.393.066.524-.1h.1C32.384,378.859,32.023,378.891,31.663,378.924Z" transform="translate(-25.113 -377.646)" fill="#ea4d57"/>
        <path id="XMLID_1169_" d="M30.226,379.072c-.131-.033-.295.2-.426,0A.26.26,0,0,1,30.226,379.072Z" transform="translate(-23.872 -378.023)" fill="#ed6968"/>
        <path id="XMLID_1168_" d="M31.495,378.7c-.033.1-.066.2-.1.328a.2.2,0,0,1-.2-.1A1.021,1.021,0,0,1,31.495,378.7Z" transform="translate(-24.813 -377.847)" fill="#ed6968"/>
        <path id="XMLID_1167_" d="M26.756,405.694c-.1.033-.2.065-.328.1a.956.956,0,0,1-.295-.066,4.977,4.977,0,0,0-.917-.295c-.164-.033-.262-.065-.229-.262a.548.548,0,0,1,.36-.295,1.091,1.091,0,0,1,.459.033c.2.1.393,0,.59-.033a7.376,7.376,0,0,1,1.146-.295c.295-.033.524,0,.59.36a.283.283,0,0,1-.1.2.9.9,0,0,1-.59.328,5.652,5.652,0,0,1-.688.229Z" transform="translate(-20.632 -395.243)" fill="#ea4151"/>
        <path id="XMLID_1166_" d="M19,408.919c.262-.229.622.2.884-.229,0-.164-.295-.065-.36-.2a.12.12,0,0,1-.033-.1c0-.033,0-.033.033-.033.229-.164.524-.131.786-.262.524.065.262.459.295.721h0c-.131.1-.262.164-.328.328l-.1.1c-.164.065-.393-.033-.557.1a.843.843,0,0,1-.491.033C18.967,409.279,19.164,409.05,19,408.919Z" transform="translate(-16.61 -397.617)" fill="#e8364d"/>
        <path id="XMLID_1165_" d="M16.459,410.488c.164-.033.36-.066.524-.1.066.065.164.033.229.1v.1a1.345,1.345,0,0,1-.852.229c-.295-.033-.688.033-.753-.491,0-.131-.229-.1-.328-.2q-.246.049-.2-.2a.285.285,0,0,0,.295-.131c.131.2.295.328.426,0h0a1.515,1.515,0,0,1,.229.229c.1.033.229.066.328.1.1.1.033.2.033.328,0,.066.066.1.033.033C16.393,410.455,16.525,410.553,16.459,410.488Z" transform="translate(-13.971 -398.76)" fill="#ea4c56"/>
        <path id="XMLID_1164_" d="M25.6,407.565a.3.3,0,0,1,.229.1c-.524.2-.983.622-1.605.524-.229-.164-.262-.328,0-.491a.2.2,0,0,1,.131.033c.066.033.1.131.164.033.066-.328.2-.557.557-.295C25.237,407.663,25.433,407.466,25.6,407.565Z" transform="translate(-19.997 -397.114)" fill="#ea4352"/>
        <path id="XMLID_1163_" d="M23.555,407.691c-.36.065-.164.262-.1.426-.033.065-.033.164-.066.229a.575.575,0,0,1-.164-.131c.066-.131-.459-.131-.066-.393.131-.1-.1-.229-.229-.262a.2.2,0,0,1-.033-.131.523.523,0,0,1,.295-.229C23.391,407.3,23.588,407.4,23.555,407.691Z" transform="translate(-19.232 -397.011)" fill="#e93e50"/>
        <path id="XMLID_1162_" d="M22.888,410.617c-.033-.229.066-.36.328-.328C23.215,410.519,23.019,410.552,22.888,410.617Z" transform="translate(-19.22 -399.086)" fill="#ea4754"/>
        <path id="XMLID_1161_" d="M21.129,411.633a.3.3,0,0,1-.229-.1c.164-.164.36-.033.524,0C21.391,411.633,21.26,411.6,21.129,411.633Z" transform="translate(-17.887 -399.872)" fill="#ea4754"/>
        <path id="XMLID_1160_" d="M43.811,412.46c-.131,0-.262-.1-.426,0a.248.248,0,0,1-.066-.131c.2-.229.066-.557.262-.786.1-.1,0-.1-.066-.131-.1-.066-.229-.131-.229-.229,0-.59-.491-.426-.786-.557.033-.065-.295-.295.1-.229a.329.329,0,0,0,.36-.164.415.415,0,0,0,.2-.033c.459.229.983.426,1.015.983A1.782,1.782,0,0,1,43.811,412.46Z" transform="translate(-32.347 -399.029)" fill="#e9354d"/>
        <path id="XMLID_1159_" d="M33.776,417.517c.066-.164.131-.328-.164-.295a1.5,1.5,0,0,1-1.179-.229c-.033-.033-.033-.065-.033-.131a.327.327,0,0,1,.131-.164l.2-.1c.393.065.721.459,1.146.328a.487.487,0,0,1,.295.065.22.22,0,0,1,.066.36.647.647,0,0,1-.36.2A.063.063,0,0,1,33.776,417.517Z" transform="translate(-25.62 -403.332)" fill="#ed6968"/>
        <path id="XMLID_1158_" d="M28.1,415.368c.033-.1.033-.2-.131-.2-.262-.033-.295-.2-.229-.426.59-.164.655-.1.59.59l-.066.065A.246.246,0,0,0,28.1,415.368Z" transform="translate(-22.468 -402.035)" fill="#eb5c60"/>
        <path id="XMLID_1157_" d="M31,417.33v.1a.5.5,0,0,1-.655,0,.1.1,0,0,1,0-.131A.9.9,0,0,1,31,417.33Z" transform="translate(-24.225 -403.767)" fill="#ed6263"/>
        <path id="XMLID_1156_" d="M29.728,416.895v.1c-.229.033-.328-.066-.328-.328v-.033c.033-.033.066-.033.131-.033C29.629,416.7,29.728,416.764,29.728,416.895Z" transform="translate(-23.603 -403.332)" fill="#ef7e78"/>
        <path id="XMLID_1155_" d="M40.411,421.937v.1c-.2.164-.36.36-.622.328-.033-.033-.066-.066-.066-.1.033-.131-.1-.229,0-.36C39.953,421.675,40.182,421.61,40.411,421.937Z" transform="translate(-30.52 -406.77)" fill="#eb535a"/>
        <path id="XMLID_1154_" d="M38.457,421.929c.066.1.229.164.1.328a.249.249,0,0,1-.328,0c-.328.033-.328-.2-.328-.426v-.1c.033-.033.066-.033.131-.033a3.586,3.586,0,0,0,.36.2C38.424,421.9,38.424,421.9,38.457,421.929Z" transform="translate(-29.319 -406.762)" fill="#ed6364"/>
        <path id="XMLID_1153_" d="M38.9,423.4h.328v.1C39.1,423.564,38.933,423.662,38.9,423.4Z" transform="translate(-29.991 -407.905)" fill="#ed6967"/>
        <path id="XMLID_1152_" d="M28.422,378.8c.262-.164.557-.229.753-.524.033,0,.066-.033.1-.033.1-.065.2,0,.262.033.164.1.164.328.36.393l.1.1c.262.459-.229.557-.393.786a.416.416,0,0,1-.2.033,2.645,2.645,0,0,0-1.015.164c-.033,0-.1.033-.131.033a.95.95,0,0,0-.524,0c-.033,0-.1.033-.131.033a2.974,2.974,0,0,1-.753-.1.1.1,0,0,1,0-.131c.033-.033.033-.1.066-.131.1-.131.262-.1.36-.164.1-.033.2-.066.328-.1.131-.066.328-.033.426-.2C28.16,378.93,28.258,378.767,28.422,378.8Z" transform="translate(-21.872 -377.521)" fill="#e92e4a"/>
        <path id="XMLID_1151_" d="M34.6,378.319l-.2-.1a.623.623,0,0,1,.95.426.261.261,0,0,1-.295.065C34.891,378.548,34.826,378.319,34.6,378.319Z" transform="translate(-26.965 -377.466)" fill="#ea4d57"/>
        <path id="XMLID_1150_" d="M36.233,379.6h.328a.728.728,0,0,1,.1.524h-.131c-.2-.066-.1-.36-.295-.426h0c-.033-.033-.033-.033-.033-.066A.032.032,0,0,0,36.233,379.6Z" transform="translate(-28.176 -378.452)" fill="#ec6766"/>
        <path id="XMLID_1149_" d="M40.093,415.5v.1a1.425,1.425,0,0,1-.229.2l-.2.2a1.018,1.018,0,0,1-.819,0c.066.033-.033,0,0,0,.426.131.721.262.131.622a2.484,2.484,0,0,1-.852.033c-.295-.033-.59-.164-.328-.557.1-.295-.229-.164-.295-.262a.217.217,0,0,1-.033-.2c.066-.164.262-.262.262-.459,0-.164.066-.36.328-.295.164.753.164.753,1.212.524A1.038,1.038,0,0,1,40.093,415.5Z" transform="translate(-29.022 -402.163)" fill="#e9354c"/>
        <path id="XMLID_1148_" d="M37.788,418.484c-.459.36,0,.393.2.426a7.962,7.962,0,0,0,.884,0,.061.061,0,0,1,.1,0c.1.131.295.229,0,.36a.4.4,0,0,0-.229.36c-.262-.229-.491-.066-.753,0h0a2.25,2.25,0,0,0-.622-.622.34.34,0,0,1,.066-.557h0C37.592,418.353,37.69,418.222,37.788,418.484Z" transform="translate(-28.88 -404.496)" fill="#e93e50"/>
        <path id="XMLID_1147_" d="M41.088,418.553h-.1c.2-.164.295-.36-.066-.426a.638.638,0,0,1-.524-.328c.459.262.852.1,1.212.229A.766.766,0,0,1,41.088,418.553Z" transform="translate(-31 -404.139)" fill="#e93e50"/>
        <path id="XMLID_1146_" d="M14.9,394.087a.3.3,0,0,0-.229.1,1.425,1.425,0,0,0-.2.229,1.111,1.111,0,0,1-.2.2c-.459.36-.524.328-.786-.2-.295-.262.164-.426.1-.622h.426a.686.686,0,0,1,.2-.131c.262-.066.524-.229.786-.295.36-.066.491.065.426.426-.131.066-.262.033-.393.1A2.008,2.008,0,0,1,14.9,394.087Z" transform="translate(-12.841 -387.699)" fill="#e92c4a"/>
        <path id="XMLID_1145_" d="M13.7,396.6c.328.59.655.033.95,0,.066.164.131.262-.1.36a2.709,2.709,0,0,0-.524.295.3.3,0,0,1-.229-.1C13.829,396.928,13.534,396.829,13.7,396.6Z" transform="translate(-13.011 -389.884)" fill="#e93f50"/>
        <path id="XMLID_1144_" d="M14.9,409.19l.2.2v.426c-.1-.066-.2-.131-.328-.229.066-.328-.131-.655.1-.983A3.561,3.561,0,0,0,14.9,409.19Z" transform="translate(-13.752 -397.953)" fill="#f18c83"/>
        <path id="XMLID_1143_" d="M16.028,412.719c-.262,0-.328-.2-.328-.426C16.06,412.261,16.06,412.49,16.028,412.719Z" transform="translate(-14.391 -400.434)" fill="#f18c83"/>
        <path id="XMLID_1142_" d="M40.508,402.341h.229a.637.637,0,0,0-.1.426c-.1.033-.1.131-.1.229-.459.033-.819.393-1.245.491-.033.066-.295-.164-.2.131.131.426-.328.459-.459.688-.229.033-.229.262-.328.393h0a.382.382,0,0,1-.328,0c-.033-.033-.066-.033-.1-.065a1.241,1.241,0,0,1,0-.491c.066-.131.2-.2.262-.328.131-.2.328-.131.491-.1a.455.455,0,0,0-.557.131.348.348,0,0,1-.426-.066c-.131-.164-.393-.295-.033-.491.2-.1.426-.131.622-.229h0a4.4,4.4,0,0,0,1.507-.655h0C39.918,402.472,40.18,402.112,40.508,402.341Z" transform="translate(-29.011 -393.692)" fill="#e93a4e"/>
        <path id="XMLID_1141_" d="M28.6,396.629c-.033-.1-.066-.2-.1-.328a.3.3,0,0,0,.229-.1.274.274,0,0,1,.393.1C29.188,396.76,29.09,396.793,28.6,396.629Z" transform="translate(-22.998 -389.585)" fill="#ea4051"/>
        <path id="XMLID_1140_" d="M29.428,395.322c-.1-.033-.2-.065-.328-.1a2.445,2.445,0,0,1,.229-.393.3.3,0,0,1,.2-.131.557.557,0,0,1,.229.033.17.17,0,0,1,.066.131,1.024,1.024,0,0,1-.164.328C29.591,395.257,29.559,395.388,29.428,395.322Z" transform="translate(-23.401 -388.606)" fill="#ea4c57"/>
        <path id="XMLID_1139_" d="M29.257,394.139c-.066,0-.131.033-.2.033-.033,0-.066-.033-.131-.033a.12.12,0,0,1-.1-.033.451.451,0,0,0-.131-.1.245.245,0,0,1,.2-.229c.164-.033.328-.131.426.033C29.453,393.942,29.355,394.04,29.257,394.139Z" transform="translate(-23.132 -387.947)" fill="#f0857f"/>
        <path id="XMLID_1138_" d="M46.984,391.68c-.328.295-.786.262-1.179.426-.033,0-.033-.033-.066-.033-.066-.065-.1-.131-.066-.2.1-.229.459-.131.557-.328.295-.033.557-.066.753.131Z" transform="translate(-34.537 -386.471)" fill="#eb535a"/>
        <path id="XMLID_1137_" d="M44.015,392.837a1.734,1.734,0,0,1-.753.426c-.131-.033-.262-.066-.262-.229.459-.524.459-.524,1.015-.2Z" transform="translate(-32.748 -387.202)" fill="#ea5059"/>
        <path id="XMLID_1136_" d="M41.534,393.845l.2.2a.684.684,0,0,0-.2.131.668.668,0,0,1-.655.066c-.229-.164-.2-.295.033-.393A.693.693,0,0,1,41.534,393.845Z" transform="translate(-31.217 -387.98)" fill="#ea4754"/>
        <path id="XMLID_1135_" d="M40.931,395h.655v.131c-.033.1-.131.1-.2.1a2.727,2.727,0,0,1-.491.131c-.066-.033-.066-.065-.1-.1A.34.34,0,0,1,40.931,395Z" transform="translate(-31.269 -388.808)" fill="#ea5059"/>
        <path id="XMLID_1134_" d="M16.842,390.5c.1-.066.229-.1.1-.229a.4.4,0,0,0-.459-.065,2.78,2.78,0,0,1-.721.295.618.618,0,0,1-.1-.524h.1c.066-.164.066-.393.229-.524l.655-.655.2-.1a1.163,1.163,0,0,1,.295-.131c.2-.033.36-.131.557,0,.066.065.033.131,0,.2a.624.624,0,0,1-.328.164c-.622.262-.655.393-.328.917a2.859,2.859,0,0,1,.884-.557c.131-.066.295-.066.426-.131.295-.065.59-.164.393.328-.066.033.033.033-.033.033-.884.131-1.245.884-1.769,1.441-.164-.1-.328-.295-.524-.1,0-.131-.033-.229.1-.328C16.645,390.6,16.744,390.5,16.842,390.5Z" transform="translate(-14.353 -384.436)" fill="#e9334c"/>
        <path id="XMLID_1133_" d="M16.078,391.4c.033.131-.164.262,0,.426.066.066.131.164-.033.164a.466.466,0,0,1-.2-.065.344.344,0,0,1,0-.426A1.6,1.6,0,0,0,16.078,391.4Z" transform="translate(-14.441 -386.387)" fill="#ea4151"/>
        <path id="XMLID_1132_" d="M15.548,393a.759.759,0,0,1,.1.524h-.2C15.45,393.36,15.351,393.164,15.548,393Z" transform="translate(-14.206 -387.463)" fill="#ea4151"/>
        <path id="XMLID_1131_" d="M40.9,405.51c.1-.229.459-.295.426-.655a.346.346,0,0,1,.229-.2c.426-.131.721-.721,1.278-.426,0,.262-.229.229-.36.295a.787.787,0,0,0-.491.36,1.031,1.031,0,0,0-.557.426c-.2,0-.262.164-.426.229C40.966,405.576,40.933,405.576,40.9,405.51Z" transform="translate(-31.336 -394.961)" fill="#ea4754"/>
        <path id="XMLID_1130_" d="M28.437,412.54a.12.12,0,0,1-.1-.033c0-.36-.033-.688-.524-.622h0c-.131-.131.1-.295,0-.426a6.108,6.108,0,0,1,.328-.655c.328.131.328-.426.655-.328a.17.17,0,0,1,.066.131v.1a.8.8,0,0,0-.1,1.015c.066.262.426.328.459.655a.264.264,0,0,1-.1.295A.643.643,0,0,1,28.437,412.54Z" transform="translate(-22.509 -399.206)" fill="#ea4553"/>
        <path id="XMLID_1129_" d="M30.8,409.319v-.1c.1-.2.328-.36.328-.655a.241.241,0,0,1,.2-.065c.1.033.2.065.229.164.033.131-.066.229-.131.328a1.612,1.612,0,0,1-.328.491A.286.286,0,0,1,30.8,409.319Z" transform="translate(-24.544 -397.886)" fill="#ea4151"/>
        <path id="XMLID_1128_" d="M30.4,407.328c.229-.1.36-.328.655-.328a.241.241,0,0,1,.066.2l-.1.2c-.1.065-.164.1-.262.033A.469.469,0,0,0,30.4,407.328Z" transform="translate(-24.276 -396.877)" fill="#eb595e"/>
        <path id="XMLID_1127_" d="M31.4,408.11a.3.3,0,0,0,.229-.1c.1-.066.2-.066.229.066.033.1-.033.164-.131.164h-.2Z" transform="translate(-24.948 -397.528)" fill="#ec6968"/>
        <path id="XMLID_1126_" d="M20.874,386.648c-.164.033-.36.065-.524.1a.558.558,0,0,1,0-.328.44.44,0,0,1,.2-.229c.164-.131.393-.164.524-.328h0c.131-.1.2.2.328.065.066-.1,0-.262.164-.328.491,0,.491,0,.426.622A1.284,1.284,0,0,1,20.874,386.648Z" transform="translate(-17.501 -382.487)" fill="#ea4b56"/>
        <path id="XMLID_1125_" d="M24.259,385.617c-.066,0-.164-.033-.131-.1.262-.426.033-.426-.295-.426-.033-.033-.033-.033-.033-.065a.032.032,0,0,1,.033-.033c.1-.033.1-.131.1-.2a.906.906,0,0,0,.426-.1c.033,0,.033.033.066.033.131.066.426-.033.36.295h0c-.1.065-.1.2-.131.295a.154.154,0,0,0-.033.2c-.033.131-.164.164-.295.164C24.324,385.617,24.291,385.617,24.259,385.617Z" transform="translate(-19.837 -381.882)" fill="#ec535a"/>
        <path id="XMLID_1124_" d="M22.871,386.128c-.066.1-.066.262-.229.262-.2-.033-.033-.295-.229-.36-.131-.262.066-.2.229-.229A.394.394,0,0,1,22.871,386.128Z" transform="translate(-18.875 -382.621)" fill="#ec575c"/>
        <path id="XMLID_1123_" d="M21.524,386.49c-.066.295-.295.295-.524.328A.47.47,0,0,1,21.524,386.49Z" transform="translate(-17.955 -383.082)" fill="#ec575c"/>
        <path id="XMLID_1122_" d="M19.628,388.1a.3.3,0,0,1,0,.328H19.3c0-.164.164-.2.229-.295A.12.12,0,0,1,19.628,388.1Z" transform="translate(-16.812 -384.168)" fill="#eb525a"/>
        <path id="XMLID_1121_" d="M23.4,384.225c.066-.131.066-.229-.1-.229a.254.254,0,0,1,.328-.066c.131.066,0,.164,0,.262A.485.485,0,0,0,23.4,384.225Z" transform="translate(-19.501 -381.341)" fill="#f39c92"/>
        <path id="XMLID_1120_" d="M23.429,385.926a1.988,1.988,0,0,0-.229-.328,1.6,1.6,0,0,1,.229-.1v.1C23.4,385.729,23.56,385.828,23.429,385.926Z" transform="translate(-19.434 -382.42)" fill="#eb5f61"/>
        <path id="XMLID_1119_" d="M27.366,413.6c.2.131.066.295,0,.426h-.2C27.1,413.829,27.267,413.7,27.366,413.6Z" transform="translate(-22.093 -401.315)" fill="#eb595e"/>
        <path id="XMLID_1118_" d="M42.085,413.127h-.95c-.229.065-.491.131-.655-.1-.131-.229-.033-.426.2-.59.1-.066,0-.2,0-.295a.617.617,0,0,1,.066-.262l.1-.1c.164-.066.2-.262.295-.36h.1c.229-.2.459,0,.688.033.393.065.295.229.164.459,0,.033.164.164.262.229.066.033.131-.2.229-.065.066.131-.033.229-.131.295-.131.066-.229.1-.1.295C42.445,412.9,42.183,413,42.085,413.127Z" transform="translate(-31.014 -399.793)" fill="#e82548"/>
        <path id="XMLID_1117_" d="M39.757,411a2.711,2.711,0,0,1,.426.229c.066.2-.1.295-.229.426h0c-.59.229-.655.229-.753-.262C39.2,410.967,39.56,411.1,39.757,411Z" transform="translate(-30.193 -399.567)" fill="#e93e50"/>
        <path id="XMLID_1116_" d="M39.063,409.924c-.131.164-.524.065-.426.426a.241.241,0,0,1-.2.065.332.332,0,0,1-.262-.393.532.532,0,0,1,.262-.622c.1.033.2.065.328.1v.1l-.2.2C38.67,409.99,38.866,409.891,39.063,409.924Z" transform="translate(-29.499 -398.491)" fill="#ec545b"/>
        <path id="XMLID_1115_" d="M41.49,412.026c-.033-.2.1-.295.229-.426h.1C41.817,411.829,41.85,412.059,41.49,412.026Z" transform="translate(-31.729 -399.97)" fill="#e8314b"/>
        <path id="XMLID_1114_" d="M37.1,418.8a.4.4,0,0,0,0,.524c0,.164.393.2.1.426h-.1c-.1-.066-.2-.131-.328-.229a.59.59,0,0,1,0-.524A.36.36,0,0,1,37.1,418.8Z" transform="translate(-28.519 -404.812)" fill="#ea4d57"/>
        <path id="XMLID_1113_" d="M36.529,419.45c.164.164.033.36,0,.524a.589.589,0,0,1-.229-.491.12.12,0,0,1,.1-.033C36.431,419.417,36.464,419.417,36.529,419.45Z" transform="translate(-28.243 -405.232)" fill="#ed6264"/>
        <path id="XMLID_1112_" d="M19.3,381.653c.131-.164-.131-.393.1-.524.36.065.622-.229.95-.229.033.328-.229.491-.426.688.557.131.557.131.786-.524.229.36.753.524.721,1.048a.061.061,0,0,1-.1,0h0c-.066-.328-.2-.459-.557-.328a4.637,4.637,0,0,0-.721.229C19.726,382.047,19.562,381.784,19.3,381.653Z" transform="translate(-16.812 -379.327)" fill="#eb545b"/>
        <path id="XMLID_1111_" d="M48.109,389.512c-.262-.033-.491-.066-.753-.1-.033-.066-.033-.1.033-.164a2.7,2.7,0,0,0,2.129-.95c.295.131.2.328.1.524a3.4,3.4,0,0,1-.393.557c-.131,0-.262.033-.426.033C48.535,389.447,48.306,389.348,48.109,389.512Z" transform="translate(-35.663 -384.303)" fill="#e9354d"/>
        <path id="XMLID_1110_" d="M53,388.44a.5.5,0,0,1,.2-.459c.164-.131.36-.328.131-.59,0-.033-.033-.033-.033-.066,0-.164-.066-.328.131-.426.229.033.393.131.36.393h0c-.066.2,0,.393-.1.59-.033.033-.033.066-.066.131a.74.74,0,0,1-.262.36C53.2,388.407,53.1,388.407,53,388.44Z" transform="translate(-39.472 -383.361)" fill="#e9364d"/>
        <path id="XMLID_1109_" d="M54.891,388.4a.643.643,0,0,1,.295.295c-.262.033-.164.491-.491.459-.2,0-.164-.1-.1-.229h0C54.891,388.891,54.661,388.531,54.891,388.4Z" transform="translate(-40.511 -384.37)" fill="#ed6967"/>
        <path id="XMLID_1108_" d="M54.129,390.1a.3.3,0,0,0,.1.229.29.29,0,0,1-.328.2C54,390.362,54.064,390.231,54.129,390.1Z" transform="translate(-40.078 -385.513)" fill="#eb595e"/>
        <path id="XMLID_1107_" d="M40.228,408.3h.1l-.426.426C39.9,408.529,39.9,408.3,40.228,408.3Z" transform="translate(-30.664 -397.751)" fill="#ec545b"/>
        <path id="XMLID_1106_" d="M40.85,395.767c.2,0,.36-.164.557-.1a.452.452,0,0,1-.131.1c-.131.033-.262.131-.426.1Q40.8,395.767,40.85,395.767Z" transform="translate(-31.286 -389.247)" fill="#f18a82"/>
        <path id="XMLID_1105_" d="M31.379,382.609l-.1.1a2.429,2.429,0,0,1-.983.426c0-.033-.033-.033-.033-.066-.1-.328.262-.262.36-.426.229-.131.459-.262.721-.1A.114.114,0,0,0,31.379,382.609Z" transform="translate(-24.174 -380.38)" fill="#ed6565"/>
        <path id="XMLID_1104_" d="M27.864,384.981a.907.907,0,0,1,.1-.426c.2-.1.393-.262.622-.1h0a3.088,3.088,0,0,1-.328.328c0,.033,0,.033-.033.065-.164.164-.066.262.066.393a.17.17,0,0,1-.066.131c-.2.065-.36.1-.524-.1A.307.307,0,0,1,27.864,384.981Z" transform="translate(-22.46 -381.672)" fill="#ed6565"/>
        <path id="XMLID_1103_" d="M29.48,385.433c.131.2.36.033.524.1-.131.36-.459.229-.721.295-.328-.065-.295-.229-.131-.426h0A1.228,1.228,0,0,0,29.48,385.433Z" transform="translate(-23.355 -382.353)" fill="#f2948c"/>
        <path id="XMLID_1102_" d="M29.6,385.76c.229-.131.524-.066.753-.229.36-.033.688-.066,1.048-.131.131.033.262,0,.328.131a.893.893,0,0,1-.491.426,2.1,2.1,0,0,1-.229.065c-.229-.033-.393.131-.557.229-.328-.033-.622-.2-.95-.262v-.1C29.5,385.826,29.566,385.793,29.6,385.76Z" transform="translate(-23.67 -382.353)" fill="#ea4d57"/>
        <path id="XMLID_1101_" d="M34.028,382.073h.2c.1-.066.2-.1.295,0,.033,0,.033.033.066.033-.066.033-.164.066-.229.1-.229-.033-.393.262-.655.1h0C33.7,382.073,33.864,382.073,34.028,382.073Z" transform="translate(-26.495 -380.073)" fill="#ed6565"/>
        <path id="XMLID_1100_" d="M35.595,380.653H35.3c.033-.295.59-.328.328-.753.262,0,.2.262.295.426Z" transform="translate(-27.57 -378.654)" fill="#ea4754"/>
        <path id="XMLID_1099_" d="M39.4,385.172c.328-.066.622.131.95.1.328-.229.655,0,.95,0,.033.262-.2.262-.36.295a2.2,2.2,0,0,0-.59.229A1.052,1.052,0,0,1,39.3,385.5.43.43,0,0,1,39.4,385.172Z" transform="translate(-30.26 -382.19)" fill="#ea4754"/>
        <path id="XMLID_1098_" d="M46.131,385.528a5.275,5.275,0,0,1,2.129-.328h0c.131.2.229.36,0,.557a2.721,2.721,0,0,0-2.031,0,.354.354,0,0,1-.229-.1C46,385.56,46.033,385.495,46.131,385.528Z" transform="translate(-34.765 -382.218)" fill="#e9354d"/>
        <path id="XMLID_1097_" d="M43.9,385.828h.229c-.033.295-.295.262-.491.295-.262-.066-.524.1-.786-.066a.1.1,0,0,1,0-.131c0-.262.262-.2.393-.229.164-.066.36,0,.459-.2h.1C43.9,385.6,43.8,385.729,43.9,385.828Z" transform="translate(-32.63 -382.42)" fill="#e92c4a"/>
        <path id="XMLID_1096_" d="M45.787,385.8c-.295-.033-.066-.229-.1-.328.2-.066.131.131.229.229A.452.452,0,0,0,45.787,385.8Z" transform="translate(-34.52 -382.393)" fill="#ea4754"/>
        <path id="XMLID_1095_" d="M52.989,385.724c.1-.164-.033-.36,0-.524.131.033.295.065.426.1.033.1.131.1.229.1,0,.262.426.426.229.753h-.1c-.1-.164-.2-.328-.426-.328a.158.158,0,0,1-.229-.033C53.022,385.79,52.989,385.757,52.989,385.724Z" transform="translate(-39.461 -382.218)" fill="#eb5259"/>
        <path id="XMLID_1094_" d="M55.056,386.553c.066-.295-.393-.426-.229-.753C54.991,386.029,55.449,386.16,55.056,386.553Z" transform="translate(-40.677 -382.621)" fill="#ed6967"/>
        <path id="XMLID_1093_" d="M54.928,388.2c-.066.2.131.557-.328.524.1-.2,0-.459.229-.622Z" transform="translate(-40.548 -384.168)" fill="#eb5259"/>
        <path id="XMLID_1092_" d="M34.7,386.128c.164-.1.36-.229.524-.328h.1c.229.2.59-.131.786.2-.2.131-.229.36-.328.524a1.177,1.177,0,0,1-.59.229A.751.751,0,0,1,34.7,386.128Z" transform="translate(-27.167 -382.621)" fill="#e93b4f"/>
        <path id="XMLID_1091_" d="M37.353,385.693c-.2-.229-.622.229-.753-.2.295-.2.655-.1.95-.2v.328C37.55,385.693,37.484,385.726,37.353,385.693Z" transform="translate(-28.445 -382.285)" fill="#ea4d57"/>
        <path id="XMLID_1090_" d="M25.606,396.121c.1-.033.1-.131.1-.229.2-.033.2.131.229.229.1.328.557.36.557.786-.033.229-.131.36-.393.36q-.147-.1-.2.1l-.1.1c-.066.033-.1.066-.164.066.066.033.164,0,.2.1,0,.131-.1.164-.2.2-.295.033-.524.36-.852.295-.229-.131-.393-.459-.721-.2a.5.5,0,0,1-.426.1c-.2-.065-.131-.262-.2-.393a.124.124,0,0,1,.131-.2c.36.295.426-.131.622-.229.066.065.1.164.2.1s-.033-.033-.033-.033a.465.465,0,0,1-.2-.066c.2-.229.622-.1.753-.426.229.1.1-.2.229-.229v-.1C25.344,396.35,25.8,396.677,25.606,396.121Z" transform="translate(-19.58 -389.404)" fill="#e9364d"/>
        <path id="XMLID_1089_" d="M20.305,401.2a1.988,1.988,0,0,0,.229.328c.033.1-.1.36.2.2a2.88,2.88,0,0,1,.328-.2c.2-.065.295-.033.295.2,0,.065-.033.1-.066.164a5.737,5.737,0,0,1-1.441.655,1.762,1.762,0,0,0-.655.328.223.223,0,0,1-.393-.066c.066-.131.066-.229-.1-.229,0-.328.36-.229.491-.393a.575.575,0,0,1,.131-.164.2.2,0,0,1,.131-.033c.262-.033.1-.131.033-.2,0-.033-.033-.033-.033-.065.1-.36.1-.328.459-.229C20.109,401.56,20.141,401.266,20.305,401.2Z" transform="translate(-16.408 -392.977)" fill="#e8364d"/>
        <path id="XMLID_1088_" d="M18.784,403.526c-.229.1-.426.229-.655.328-.229,0-.229-.164-.229-.328.393.1.229-.426.524-.426.066.065.2.033.229.1C18.752,403.329,18.686,403.46,18.784,403.526Z" transform="translate(-15.87 -394.255)" fill="#e93f50"/>
        <path id="XMLID_1087_" d="M19.9,403.1a.2.2,0,0,1-.2-.1.907.907,0,0,0,.426-.1h0c.066.065.229.033.229.164a.151.151,0,0,1-.229.131h-.1C19.929,403.195,19.929,403.129,19.9,403.1Z" transform="translate(-17.081 -394.12)" fill="#e8314b"/>
        <path id="XMLID_1086_" d="M28.2,397.8c-.033.1.066.36-.229.229.131-.1-.2-.2,0-.262A.288.288,0,0,1,28.2,397.8Z" transform="translate(-22.596 -390.663)" fill="#ea4051"/>
        <path id="XMLID_1085_" d="M17.868,404.15c.066.033.164.1.2.065a8.715,8.715,0,0,1,2.26-1.015.372.372,0,0,1,.393.36c0,.066,0,.1-.033.131-.1.164-.328.229-.491.328a1.988,1.988,0,0,0-.328.229c-.1.229-.328.262-.524.328a.392.392,0,0,1-.229.229c-.262.1-.557.1-.753.328v.1a.69.69,0,0,1-.852-.1.463.463,0,0,1-.1-.655C17.672,404.478,17.672,404.183,17.868,404.15Z" transform="translate(-15.478 -394.322)" fill="#e82748"/>
        <path id="XMLID_1084_" d="M18.557,411.026c-.033.2-.131.262-.295.164-.2-.164.1-.131.131-.229,0-.1.033-.164.033-.262v-.1C18.819,410.666,18.623,410.862,18.557,411.026Z" transform="translate(-16.069 -399.298)" fill="#ea4754"/>
        <path id="XMLID_1083_" d="M17.529,410.129c-.131,0-.2-.065-.229-.229C17.464,409.933,17.66,409.867,17.529,410.129Z" transform="translate(-15.467 -398.827)" fill="#e94051"/>
        <path id="XMLID_1082_" d="M29.649,402.115c-.164-.328-.328-.459-.622-.1-.066.1-.131.2-.262.164-.164-.066.033-.229-.066-.328-.328.491-.884.262-1.31.36a.154.154,0,0,1-.033-.2.352.352,0,0,1,.459-.164c-.1-.065-.229-.033-.295-.131.131-.229.1-.688.59-.393.033.066-.033.2.066.2.033,0,.033-.131.033-.2a1,1,0,0,1,.262-.524.246.246,0,0,1,.295,0c.1.1.131.262.295.262.066-.229.131-.459.426-.491.033,0,.1.033.131.033a.246.246,0,0,0,.295,0c.2-.131.36-.328.622-.2a.248.248,0,0,1,.131.066.381.381,0,0,0,.328.066c.1.033.262,0,.229.2-.033.229.164.065.229.1-.033.1-.131.1-.229.1-.164.164-.131.622-.557.36-.1-.131-.164-.033-.262.033-.295.1-.426.262-.295.59C29.976,402.18,29.878,402.278,29.649,402.115Z" transform="translate(-22.214 -392.417)" fill="#e9334c"/>
        <path id="XMLID_1081_" d="M36.493,402.428c.36.2.295-.295.524-.328a1.945,1.945,0,0,1,.229.852c-.1.229-.328.262-.524.328-.229-.065-.557.033-.622-.36a.351.351,0,0,1,.066-.2C36.329,402.69,36.3,402.428,36.493,402.428Z" transform="translate(-28.108 -393.582)" fill="#e82949"/>
        <path id="XMLID_1080_" d="M41.107,402.8a1.578,1.578,0,0,1-1.507.655C39.928,402.833,40.583,403,41.107,402.8Z" transform="translate(-30.462 -394.053)" fill="#e82949"/>
        <path id="XMLID_1079_" d="M40.377,399.643c-.033-.131-.393-.164-.2-.328.1-.1.295-.328.524-.2a.731.731,0,0,0,.426.1,1.987,1.987,0,0,0-.328.229.414.414,0,0,1-.328.229A.12.12,0,0,0,40.377,399.643Z" transform="translate(-30.813 -391.551)" fill="#e9334c"/>
        <path id="XMLID_1078_" d="M40.861,400.329a1.984,1.984,0,0,0,.328-.229c.066.2.295.459-.131.524-.2.033-.164.295-.328.393C40.566,400.788,41.058,400.624,40.861,400.329Z" transform="translate(-31.199 -392.237)" fill="#e82949"/>
        <path id="XMLID_1077_" d="M45.052,402.132c-.164,0-.328-.033-.459.164-.164.262-.262.033-.393-.066C44.462,402.034,44.691,401.772,45.052,402.132Z" transform="translate(-33.555 -393.483)" fill="#e82949"/>
        <path id="XMLID_1076_" d="M38.16,400.29c-.066-.131-.2-.1-.328-.1-.033-.033-.033-.065-.033-.131a2.123,2.123,0,0,0,.262-.295c.033-.033.066-.033.131-.066.033,0,.033.033.066.033C38.291,399.962,38.39,400.159,38.16,400.29Z" transform="translate(-29.251 -391.968)" fill="#e8364d"/>
        <path id="XMLID_1075_" d="M38.294,398.972a.26.26,0,0,1,.426,0,.3.3,0,0,1-.1.229h0C38.524,399.071,38.261,399.267,38.294,398.972Z" transform="translate(-29.582 -391.404)" fill="#e8364d"/>
        <path id="XMLID_1074_" d="M35.469,399.066a1.991,1.991,0,0,1,.328.229h-.1l-.1.1c-.164.066-.426,0-.524.229-.295-.131-.426.131-.655.229-.1-.033-.229.065-.328,0v-.1c-.033-.262.2-.295.36-.393.131-.066.229-.131.36-.2s.262-.1.393-.164h.066A.68.68,0,0,1,35.469,399.066Z" transform="translate(-26.757 -391.498)" fill="#ea4453"/>
        <path id="XMLID_1073_" d="M38.888,396.9a.473.473,0,0,1-.459.2.28.28,0,0,1-.229,0c0-.36.229-.393.524-.393C38.822,396.766,38.888,396.831,38.888,396.9Z" transform="translate(-29.52 -389.951)"/>
        <path id="XMLID_1072_" d="M36.086,398.331v.1h0a1.029,1.029,0,0,1-.524.2c-.131,0-.229-.033-.262-.164a.2.2,0,0,1,.1-.2.607.607,0,0,1,.229-.065h.164A.4.4,0,0,1,36.086,398.331Z" transform="translate(-27.57 -390.96)" fill="#ee726e"/>
        <path id="XMLID_1071_" d="M37.028,398.046H36.7c.1-.295.295-.328.524-.2a.557.557,0,0,1,.229.033C37.388,398.112,37.191,398.013,37.028,398.046Z" transform="translate(-28.512 -390.675)" fill="#ee7671"/>
        <path id="XMLID_1070_" d="M40.031,396.745l-.131-.131c.033-.164.1-.164.229-.1a.819.819,0,0,1,.229.131C40.26,396.68,40.129,396.713,40.031,396.745Z" transform="translate(-30.664 -389.8)"/>
        <path id="XMLID_1069_" d="M37.749,395.9c-.066.033-.164.066-.229.1-.2.065-.426.1-.524.328a.929.929,0,0,0-.524.2h-.1c-.1-.459.393-.426.557-.655.2-.131.36-.459.655-.229a.327.327,0,0,1,.164.131Z" transform="translate(-28.284 -389.183)" fill="#eb565c"/>
        <path id="XMLID_1068_" d="M40.129,395.806H39.9c0-.229.1-.295.328-.2v.2Z" transform="translate(-30.664 -389.188)" fill="#ea4754"/>
        <path id="XMLID_1067_" d="M19.7,391.764a.647.647,0,0,1,.393-.59c.2-.065.066-.164.066-.229.1-.36.36-.459.688-.524a3.584,3.584,0,0,0,.557-.164,4.036,4.036,0,0,1,1.474-.557c.295.491.262.59-.36.622a.4.4,0,0,0,.491.033,4.065,4.065,0,0,1,1.638-.328c.328-.033.491.36.819.426.1.229-.033.36-.2.459a.146.146,0,0,1-.164,0c-.295-.393-.655-.065-.983-.131l-.491.1c-.033,0-.1.033-.131.033a7.994,7.994,0,0,1-1.278.2h0c-.164.131-.393.033-.524.2h-.1a2.092,2.092,0,0,0-1.081.328C20.224,391.5,19.995,391.96,19.7,391.764Z" transform="translate(-17.081 -385.244)" fill="#e92949"/>
        <path id="XMLID_1066_" d="M27.5,393.328A3.508,3.508,0,0,1,28.778,393c-.066.393-.524.131-.655.426-.066.033-.164.065-.229.1Z" transform="translate(-22.325 -387.463)" fill="#ea4c56"/>
        <path id="XMLID_1065_" d="M29.047,383.4c-.2.033-.426.164-.622.1-.131-.131.131-.131.1-.229.066-.065.2-.065.1-.2h0a.123.123,0,0,1,0-.2h.1c.164.033.36-.033.524,0h.1c.033.033.033.033.033.065a.032.032,0,0,1-.033.033C29.276,383.143,28.981,383.143,29.047,383.4Z" transform="translate(-22.922 -380.652)" fill="#ea4b56"/>
        <path id="XMLID_1064_" d="M25.089,380.9h.2a1.6,1.6,0,0,0,.229.1c.066.2-.131.2-.2.262-.033.033-.066.033-.131.065-.131,0-.262.033-.295-.131C24.86,381.064,25.056,381.031,25.089,380.9Z" transform="translate(-20.57 -379.327)" fill="#ea4453"/>
        <path id="XMLID_1063_" d="M27.15,382.644v.2a2.35,2.35,0,0,1-.95-.2c.033-.1.1-.164.229-.1A2.728,2.728,0,0,0,27.15,382.644Z" transform="translate(-21.451 -380.416)" fill="#e93b4f"/>
        <path id="XMLID_1062_" d="M25.6,384.366h.1c.164-.033.295-.033.459-.066.066.164-.033.295-.164.393C25.96,384.464,25.7,384.529,25.6,384.366Z" transform="translate(-21.048 -381.613)" fill="#ea4453"/>
        <path id="XMLID_1061_" d="M26.228,382a1.6,1.6,0,0,1-.229.1c-.1-.033-.1-.131-.1-.229v-.1c.2-.065.393-.164.328.229Z" transform="translate(-21.25 -379.874)" fill="#eb5c5f"/>
        <path id="XMLID_1060_" d="M26.1,386.195q-.1-.049,0-.1c.066-.065.1-.164.229-.2h.1c.033.131.229.2.066.36A.309.309,0,0,1,26.1,386.195Z" transform="translate(-21.35 -382.689)" fill="#eb595e"/>
        <path id="XMLID_1059_" d="M27.3,386.128c-.033-.1-.066-.2-.1-.328.1.033.2.066.328.1a.3.3,0,0,1-.1.229C27.364,386.16,27.331,386.16,27.3,386.128Z" transform="translate(-22.124 -382.621)" fill="#ed6867"/>
        <path id="XMLID_1058_" d="M26.429,385.531c0,.131-.066.2-.229.2,0-.164,0-.295.229-.328Z" transform="translate(-21.451 -382.353)" fill="#ea4654"/>
        <path id="XMLID_1057_" d="M28.9,383.6c.066.033.2,0,.164.131-.033.1-.164.066-.262.066Z" transform="translate(-23.2 -381.142)" fill="#eb595e"/>
        <path id="XMLID_1056_" d="M29.526,380.6c.033.426-.229.229-.426.2A.731.731,0,0,1,29.526,380.6Z" transform="translate(-23.401 -379.125)" fill="#e93b4f"/>
        <path id="XMLID_1055_" d="M26.128,381.726c0-.229-.164-.229-.328-.2.1-.066.2-.131.328-.229h.229c.066.131-.066.229-.1.328C26.226,381.628,26.193,381.693,26.128,381.726Z" transform="translate(-21.182 -379.596)" fill="#eb525a"/>
        <path id="XMLID_1054_" d="M27.2,381.528c.033-.1.066-.229.1-.328l.2.1A1.8,1.8,0,0,1,27.2,381.528Z" transform="translate(-22.124 -379.528)" fill="#e93b4f"/>
        <path id="XMLID_1053_" d="M23.6,406.728a1.76,1.76,0,0,1,.524-.328,2.884,2.884,0,0,0,.884.328c.131.033.262.033.295.229-.229.066-.36.229-.688,0-.393-.262-.2.262-.262.426-.262.164-.229-.131-.328-.2h0A.974.974,0,0,0,23.6,406.728Z" transform="translate(-19.703 -396.473)" fill="#e8354c"/>
        <path id="XMLID_1052_" d="M34.753,404.344c0,.393.393.229.524.426-.328.1.033.229,0,.328a.1.1,0,0,1,.033.065c0,.033,0,.033-.033.033a.2.2,0,0,1-.131.033,2.3,2.3,0,0,0-.459-.1c-.229-.131-.622.164-.688-.295l.1-.1a.263.263,0,0,0,.328-.328C34.524,404.344,34.622,404.279,34.753,404.344Z" transform="translate(-26.696 -395.073)" fill="#e92c4a"/>
        <path id="XMLID_1051_" d="M32.991,406.1c.164.328.557-.033.753.229.131.164.1.295-.1.36l-.393.1c-.262-.066-.524.033-.753-.131v-.229A1.612,1.612,0,0,0,32.991,406.1Z" transform="translate(-25.688 -396.272)" fill="#e9374d"/>
        <path id="XMLID_1050_" d="M26.626,405v.229c-.131-.033-.295-.065-.426-.1.1-.164.2-.328.426-.328A.123.123,0,0,1,26.626,405Z" transform="translate(-21.451 -395.398)" fill="#e9304b"/>
        <path id="XMLID_1049_" d="M20.6,408.243c.131-.36.393-.426.753-.328v.1C21.157,408.309,20.862,408.177,20.6,408.243Z" transform="translate(-17.686 -397.465)" fill="#e92e4a"/>
        <path id="XMLID_1048_" d="M24.9,408.7c.1.066.164.229.328.2C24.9,409.126,24.9,408.9,24.9,408.7Z" transform="translate(-20.577 -398.02)" fill="#e93e50"/>
        <path id="XMLID_1047_" d="M34.243,416.522c-.426.328-.721-.1-1.048-.229-.066-.033-.164-.066-.229-.1a.248.248,0,0,1-.066-.131.17.17,0,0,1,.066-.131.486.486,0,0,1,.229-.033,5.825,5.825,0,0,1,.983.557C34.21,416.49,34.21,416.522,34.243,416.522Z" transform="translate(-25.957 -402.862)" fill="#ea5059"/>
        <path id="XMLID_1046_" d="M37.959,418.178c-.1-.164-.229-.033-.328,0a.2.2,0,0,0-.1-.2c-.033-.033-.033-.033-.033-.065a.032.032,0,0,1,.033-.033,1.051,1.051,0,0,1,.459.033C38.253,417.981,38.221,418.112,37.959,418.178Z" transform="translate(-29.05 -404.19)" fill="#ea4d57"/>
        <path id="XMLID_1045_" d="M29.8,416.8a2.271,2.271,0,0,0,.655.1.219.219,0,0,1,.328,0l-.1.1c-.229.164-.426-.033-.655,0A.44.44,0,0,1,29.8,416.8Z" transform="translate(-23.872 -403.467)" fill="#ea5059"/>
        <path id="XMLID_1044_" d="M32.028,416.444H31.7v-.328c.164-.1.295,0,.426.1v.1A.453.453,0,0,1,32.028,416.444Z" transform="translate(-25.15 -402.98)" fill="#ea4252"/>
        <path id="XMLID_1043_" d="M36.953,416.993v.1l-.2-.1h0c.1-.164-.2-.2-.1-.36a.2.2,0,0,1,.131-.033c.1.033.2.033.164.2Q36.953,416.895,36.953,416.993Z" transform="translate(-28.47 -403.332)" fill="#ea5059"/>
        <path id="XMLID_1042_" d="M38.078,420.826c.131-.2-.164-.262-.1-.426.262.131.622.2.524.655C38.341,421.022,38.111,421.121,38.078,420.826Z" transform="translate(-29.366 -405.888)" fill="#ea4b56"/>
        <path id="XMLID_1041_" d="M31.4,382.519v-.1c.295-.36.688-.2,1.081-.2-.1.065-.229.131-.328.2C31.891,382.289,31.662,382.551,31.4,382.519Z" transform="translate(-24.948 -380.192)" fill="#e93b4f"/>
        <path id="XMLID_1040_" d="M35.426,378.928v.1c-.328.066-.295-.295-.426-.426C35.229,378.6,35.426,378.666,35.426,378.928Z" transform="translate(-27.369 -377.78)" fill="#ea4754"/>
        <path id="XMLID_1039_" d="M30.024,382.648c-.164.065-.36.2-.524,0A.341.341,0,0,1,30.024,382.648Z" transform="translate(-23.67 -380.419)" fill="#e93b4f"/>
        <path id="XMLID_1038_" d="M39.687,413.528c.1.2.59.459-.1.557-.131.033-.066.164-.066.262a.218.218,0,0,0,.164.229c.131.033.295,0,.426.033a1.154,1.154,0,0,1-.852.164c-.491-.066-.262-.491-.229-.786,0-.033.033-.033.033-.066C39.228,413.659,39.359,413.4,39.687,413.528Z" transform="translate(-30.025 -401.243)" fill="#e82a49"/>
        <path id="XMLID_1037_" d="M37.109,415.19c-.033-.1-.131-.1-.229-.1.066-.2-.131-.459.131-.622a2.438,2.438,0,0,1,.393-.229c.2-.066.328-.033.229.229h0C37.305,414.568,37.535,415.092,37.109,415.19Z" transform="translate(-28.626 -401.726)" fill="#e93c4f"/>
        <path id="XMLID_1036_" d="M40.4,420.762a.716.716,0,0,1-.1-.164c0-.1.066-.1.131-.1.1,0,.1.066.1.131C40.595,420.729,40.529,420.762,40.4,420.762Z" transform="translate(-30.933 -405.955)" fill="#e82e4a"/>
        <path id="XMLID_1035_" d="M18.628,394.451a.186.186,0,0,1-.328,0C18.431,394.451,18.529,394.287,18.628,394.451Z" transform="translate(-16.139 -388.389)" fill="#e93e50"/>
        <path id="XMLID_1034_" d="M35.868,407.955a.908.908,0,0,0-.1.655.12.12,0,0,1-.1.033c-.033-.164-.131-.131-.262-.1a.962.962,0,0,0-.524.131.3.3,0,0,1-.164-.033c-.262-.131-.459-.295-.229-.622.229-.033.393-.066.459-.328a.449.449,0,0,1,.36-.393c.295.229.426.459-.033.753a.7.7,0,0,1,.491-.1Z" transform="translate(-26.959 -397.079)" fill="#e93e50"/>
        <path id="XMLID_1033_" d="M37.414,407.753c-.066.1-.131.131-.229.1-.164-.065-.131.328-.295.131-.131-.164,0-.262.164-.36.295-.2-.066-.36-.066-.524,0-.065.066-.065.1-.1h.1c.164.065.262.131.229.328A.344.344,0,0,1,37.414,407.753Z" transform="translate(-28.604 -396.877)" fill="#e9334c"/>
        <path id="XMLID_1032_" d="M41.724,405.516a.287.287,0,0,1-.229.2l-.295-.2A.436.436,0,0,1,41.724,405.516Z" transform="translate(-31.538 -395.819)" fill="#e93e50"/>
        <path id="XMLID_1031_" d="M38.129,407.126a1.988,1.988,0,0,0-.229-.328v-.1c.131.033.295.066.426.1h0A.29.29,0,0,1,38.129,407.126Z" transform="translate(-29.319 -396.675)" fill="#e93a4f"/>
        <path id="XMLID_1030_" d="M39.3,406.654c.1-.36.328-.164.524-.164a2.45,2.45,0,0,0-.524.164Z" transform="translate(-30.26 -396.498)" fill="#e83c50"/>
        <path id="XMLID_1029_" d="M30.6,394.345c0-.131.033-.229-.1-.328a.44.44,0,0,1,.2-.229c.131-.033.033-.2.1-.262.066-.033.1-.066.164-.1.1-.033.229-.066.328-.1.164-.033.229-.229.426-.229a.345.345,0,0,1,.229.426l-.1.2a3.925,3.925,0,0,1-.36.393C31.188,394.148,30.926,394.476,30.6,394.345Z" transform="translate(-24.343 -387.53)" fill="#ea4051"/>
        <path id="XMLID_1028_" d="M29.4,393.426c.1-.328.491-.2.655-.426h.1c.066.033.066.1.066.2a.717.717,0,0,1-.1.164c-.1.066-.1.2-.164.262h-.229C29.891,393.2,29.564,393.459,29.4,393.426Z" transform="translate(-23.603 -387.463)" fill="#ee706d"/>
        <path id="XMLID_1027_" d="M31.033,394.328c0-.131-.033-.262.1-.328.066.065.066.131,0,.229.033.1.131.164.033.262-.066.065-.1,0-.164-.033A.248.248,0,0,0,31.033,394.328Z" transform="translate(-24.679 -388.135)" fill="#ea5059"/>
        <path id="XMLID_1026_" d="M30.733,388.581a.642.642,0,0,1-.622-.262c-.131-.2-.524.033-.819.033a4.115,4.115,0,0,0-1.245.328c-.164.033-.36.1-.491-.1-.066-.131.033-.2.1-.262.2-.229.328-.033.491.033v-.491c.131-.066.229,0,.36.066.328.262.393-.066.557-.229a.233.233,0,0,1,.2-.1c.393,0,.819.2,1.179-.164a3.631,3.631,0,0,0,.524-.229,2.463,2.463,0,0,1,1.605-.229c.262.066.491-.164.753,0,.033.229-.2.262-.328.36a10.657,10.657,0,0,1-1.507.721,4.739,4.739,0,0,0,1.9.164c.262,0,.491-.066.688.164v.1c.033.1.1.229-.1.2a1.156,1.156,0,0,0-.459.1.814.814,0,0,0-.819,0c-.328.2-.59-.066-.917-.066H31.29A.586.586,0,0,1,30.733,388.581Z" transform="translate(-22.348 -383.372)" fill="#e82648"/>
        <path id="XMLID_1025_" d="M37.335,391.835a1.188,1.188,0,0,0,1.146,0c.295-.2.426,0,.557.229l.1.2a.767.767,0,0,0-.95.229c-.2.033-.393.065-.557.1-.131.033-.2.1-.066.2a.3.3,0,0,1-.1.229.329.329,0,0,0-.328.2c-.262-.36-.328.164-.524.1-.2-.1-.393.295-.59.033-.393-.524-.393-.524.131-.819.131-.164.295-.065.426,0,.164.1.328.131.459-.033a1.055,1.055,0,0,1,.753-.2C37.433,392.293,37.139,392.26,37.335,391.835Z" transform="translate(-27.869 -386.625)" fill="#e93c4f"/>
        <path id="XMLID_1024_" d="M19.109,387.8c.328-.2.786-.131,1.081-.426h0c.2-.1.328-.1.393.131a.3.3,0,0,1-.2.36c-.131.033-.262.1-.393.131a.345.345,0,0,0-.36.262c-.066.164-.2.2-.295.295-.229.295-.688.262-.819.688-.033.1-.328.065-.295-.066.164-.655-.393-.2-.524-.36A3.13,3.13,0,0,1,19.109,387.8Z" transform="translate(-15.736 -383.637)" fill="#e92c49"/>
        <path id="XMLID_1023_" d="M23.3,388.416c.066-.131.033-.393.328-.328.229.262.524.164.786.131.066,0,.164.033.131-.1-.164-.59.426-.557.59-.491a2.277,2.277,0,0,0,1.146.066.45.45,0,0,1,.262.164.173.173,0,0,1-.131.229l-.1.1c-.2.131-.36.328-.655.229-.1-.033-.229-.066-.328-.1-.426.36-1.015.328-1.507.524.033-.065.1-.2.066-.229-.131-.131-.229.066-.36.033C23.4,388.579,23.366,388.481,23.3,388.416Z" transform="translate(-19.501 -383.828)" fill="#e8354c"/>
        <path id="XMLID_1022_" d="M22.9,390.1c.131,0,.2.065.229.229-.1.164-.295.1-.426.1A.68.68,0,0,1,22.9,390.1Z" transform="translate(-19.098 -385.513)" fill="#e83b4f"/>
        <path id="XMLID_1021_" d="M30.983,411.995a.637.637,0,0,1-.426-.1c-.2-.066-.262-.328-.557-.36-.131,0,.033-.131.131-.164a.2.2,0,0,0,.066-.229c-.2-.491-.164-.59.36-.819a3.641,3.641,0,0,1,.229-.524c.36,0,.59.229.622.721-.262.426-.622.852-.426,1.409Z" transform="translate(-23.974 -398.76)" fill="#e8314b"/>
        <path id="XMLID_1020_" d="M30.334,411.1c-.033.2-.295.164-.36.36-.033.131-.2.2.066.328.328.164-.033.262-.131.393-.459-.426-.164-.819.1-1.179C30.138,411.033,30.236,411.066,30.334,411.1Z" transform="translate(-23.784 -399.567)" fill="#e9364d"/>
        <path id="XMLID_1019_" d="M32.924,409.363c0-.393-.295-.524-.524-.753l.229-.229c.2-.1.36-.328.655-.229a.307.307,0,0,1,0,.426c-.295.328.131.36.229.524C33.252,409.166,33.186,409.494,32.924,409.363Z" transform="translate(-25.62 -397.635)" fill="#e9364d"/>
        <path id="XMLID_1018_" d="M33.019,407.933c-.2.033-.262.393-.524.229a.2.2,0,0,1-.2-.1c.164-.164.033-.2-.1-.229l.1-.1c.262.066.524-.164.753.1.033.033.033.033.033.065C33.019,407.9,33.019,407.933,33.019,407.933Z" transform="translate(-25.486 -397.352)" fill="#ea4352"/>
        <path id="XMLID_1017_" d="M26.886,387.159a.992.992,0,0,1-1.114-.065c-.131-.1-.36.262-.622.131-.1.262.393.36.1.557a.781.781,0,0,1-1.048-.295,1.753,1.753,0,0,1,.36-.164c.1-.033.262.033.262-.164,0-.229-.164-.229-.328-.229a1.988,1.988,0,0,0,.328-.229h.524c.164.164.36.1.524.1.393-.2.655.066.95.229.033.033.033.033.033.066C26.919,387.159,26.886,387.159,26.886,387.159Z" transform="translate(-20.106 -383.227)" fill="#ea4252"/>
        <path id="XMLID_1016_" d="M37.685,413.085c-.033-.131-.066-.262-.2-.1a.48.48,0,0,1-.426.2c-.229-.229-.229-.426.066-.59.295.033.295-.295.491-.393h.2c.033.1-.066.393.2.2.164-.131.295.033.426,0a.3.3,0,0,1-.1.229C37.979,412.626,38.012,413.117,37.685,413.085Z" transform="translate(-28.645 -400.374)" fill="#e8314b"/>
        <path id="XMLID_1015_" d="M37.286,411.529c.033.295-.1.459-.426.426a.35.35,0,0,1-.36-.164.2.2,0,0,1,.033-.131,2.862,2.862,0,0,0,.262-.328c.066-.066.131-.229.262-.164h.1C37.057,411.365,37.221,411.431,37.286,411.529Z" transform="translate(-28.377 -399.67)" fill="#e93e50"/>
        <path id="XMLID_1014_" d="M41.55,387.618a8.069,8.069,0,0,0-1.54.033c-.393.066-.786-.2-1.179-.164a.15.15,0,0,1-.131-.164.217.217,0,0,1,.229-.2,7.836,7.836,0,0,0,1.9-.917.773.773,0,0,0,.524-.229,4.241,4.241,0,0,1,1.572-.2.479.479,0,0,1,.459.295h.1c.131.164.066.393.2.524h0A1.785,1.785,0,0,1,41.55,387.618Z" transform="translate(-29.857 -382.605)" fill="#e82447"/>
        <path id="XMLID_1013_" d="M53.392,387.324c-.262-.1-.295-.295-.2-.524a1.6,1.6,0,0,0,.229.1C53.523,387.062,53.425,387.193,53.392,387.324Z" transform="translate(-39.57 -383.294)" fill="#e9354d"/>
        <path id="XMLID_1012_" d="M29.06,385.828l-.1.1c-.1-.033-.262.065-.262-.164,0-.2.164-.2.262-.262C28.995,385.631,28.766,385.795,29.06,385.828Z" transform="translate(-23.132 -382.42)" fill="#ed6867"/>
        <path id="XMLID_1011_" d="M32.7,387.553a1.6,1.6,0,0,0,.1-.229c-.1-.131-.033-.295.1-.262.36.1.131-.229.229-.262h.2c.328.033.229.459.524.524C33.617,388.045,33.126,387.586,32.7,387.553Z" transform="translate(-25.822 -383.294)" fill="#e82f4b"/>
        <path id="XMLID_1010_" d="M32.857,386.8c.033.131.1.295.131.459-.164.065-.393-.393-.459.065a1.6,1.6,0,0,0-.229-.1v-.1C32.333,386.7,32.693,386.9,32.857,386.8Z" transform="translate(-25.553 -383.294)" fill="#e93b4f"/>
        <path id="XMLID_1009_" d="M39.505,386.495c-.524.066-1.081.131-1.605.229.066-.164.1-.393.328-.426l.2-.1a2.015,2.015,0,0,0,1.081.229Z" transform="translate(-29.319 -382.89)" fill="#e8374e"/>
        <path id="XMLID_1008_" d="M36.5,387.366a.248.248,0,0,1,.131-.066c.066,0,.1.066.066.1a.2.2,0,0,1-.131.033Z" transform="translate(-28.377 -383.63)" fill="#e82f4b"/>
        <path id="XMLID_1007_" d="M31.265,399.259c-.1.164-.36.1-.426.328-.393.066-.393.36-.393.557.262-.328-.852.229-.36-.36-.033-.066,0-.1.033-.164-.066-.131-.131.033-.229,0-.066,0-.1,0-.131-.033H29.3c.295-.131.393-.295.59-.328.033-.033.033-.1.1-.1.262.033.36-.131.426-.328.033,0,.033,0,.066-.033a2.163,2.163,0,0,1,.491.164A.846.846,0,0,1,31.265,399.259Z" transform="translate(-23.536 -391.363)" fill="#ea4754"/>
        <path id="XMLID_1006_" d="M27.909,401.586a.773.773,0,0,1-.229.524c-.066.065-.131.065-.229,0-.066-.1-.262-.131-.229-.033.033.262-.229.229-.295.36a.061.061,0,0,1-.1,0c-.033-.2-.2-.295-.328-.426v-.1c.1-.1.164-.164.328-.1.36.1.491-.393.852-.328C27.745,401.553,27.843,401.52,27.909,401.586Z" transform="translate(-21.653 -393.166)" fill="#e82c4a"/>
        <path id="XMLID_1005_" d="M30.8,396.133c.295-.1.557-.229.852-.328.164-.1.262-.033.262.131a1.076,1.076,0,0,0,.033.557c.1.328-.328.164-.491.262h0C31.259,396.526,30.931,396.428,30.8,396.133Z" transform="translate(-24.544 -389.318)" fill="#e82f4b"/>
        <path id="XMLID_1004_" d="M24.4,402.1c-.066.066-.164.131-.229.2-.164.131-.328.164-.459.033-.164-.2.2-.164.164-.328.131-.033.295-.065.426-.1A.145.145,0,0,1,24.4,402.1Z" transform="translate(-19.749 -393.448)" fill="#e82e4a"/>
        <path id="XMLID_1003_" d="M25.7,401.769a1.6,1.6,0,0,1-.1-.229c.393-.2.393-.2.655.229-.1.033-.229.065-.328.1C25.895,401.671,25.8,401.7,25.7,401.769Z" transform="translate(-21.048 -393.12)" fill="#e83c50"/>
        <path id="XMLID_1002_" d="M30.329,401.27a.3.3,0,0,1-.229-.1.3.3,0,0,0,.229-.1h.1c.131-.033.295-.164.328.1l-.1.1Z" transform="translate(-24.074 -392.85)" fill="#e8334c"/>
        <path id="XMLID_1001_" d="M25.9,399.9h.459c-.393.229-.393.229-.459,0Z" transform="translate(-21.25 -392.103)" fill="#e92c49"/>
        <path id="XMLID_1000_" d="M30.914,399.486l-.1.1c0-.1-.229-.164-.1-.295C30.782,399.257,30.881,399.388,30.914,399.486Z" transform="translate(-24.461 -391.689)" fill="#ea4051"/>
        <path id="XMLID_999_" d="M21,403.128c.262-.1.066-.229,0-.328.131,0,.295,0,.328.2,0,.1,0,.229-.131.262C21.1,403.291,21.033,403.193,21,403.128Z" transform="translate(-17.955 -394.053)" fill="#ea4553"/>
        <path id="XMLID_998_" d="M20.149,403.5l.1.1v.229C19.985,403.795,20.083,403.631,20.149,403.5Z" transform="translate(-17.333 -394.523)" fill="#e8334c"/>
        <path id="XMLID_997_" d="M27.5,404.4h.1a.538.538,0,0,1,.459.164c-.2.1-.426.033-.557.164V404.4Z" transform="translate(-22.325 -395.129)" fill="#ea4151"/>
        <path id="XMLID_996_" d="M35.329,403.526c-.1.033-.229.066-.328.1-.131-.033-.2-.033-.1-.229s.295-.229.426-.295c.1.1.164.2.1.328Z" transform="translate(-27.272 -394.254)" fill="#e83a4f"/>
        <path id="XMLID_995_" d="M36.4,402.883c-.033-.1-.066-.229-.1-.328.131-.065-.066-.295.131-.262.164,0,.164.164.2.262C36.529,402.654,36.595,402.85,36.4,402.883Z" transform="translate(-28.243 -393.71)" fill="#e92c4a"/>
        <path id="XMLID_994_" d="M29.319,403.5h.229c-.033.131.164.262.033.36,0,0-.1-.065-.164-.1C29.089,403.729,29.286,403.6,29.319,403.5Z" transform="translate(-23.489 -394.523)" fill="#e93f50"/>
        <path id="XMLID_993_" d="M36.986,400.128c-.066-.524.36-.229.524-.328.066.164-.1.164-.164.229-.1.033-.164.1-.262.1Z" transform="translate(-28.7 -392.035)" fill="#e8364d"/>
        <path id="XMLID_992_" d="M37.3,400.6c.033-.1.131-.1.229-.1.033.033.033.033.033.066a.032.032,0,0,1-.033.033v.1C37.333,400.893,37.333,400.762,37.3,400.6Z" transform="translate(-28.915 -392.506)" fill="#ea4453"/>
        <path id="XMLID_991_" d="M34,401.334c.1-.033.229-.164.328,0C34.229,401.466,34.131,401.466,34,401.334Z" transform="translate(-26.696 -393.013)" fill="#ea4754"/>
        <path id="XMLID_990_" d="M37.9,400.128v-.1l.229-.229h.1C38.228,400.029,38.129,400.128,37.9,400.128Z" transform="translate(-29.319 -392.035)" fill="#e9334c"/>
        <path id="XMLID_989_" d="M34.628,399.181a.315.315,0,0,1-.328-.229c0-.229.1-.328.328-.229.033.1.131.1.229.1.033.033.1.033.1.1A.832.832,0,0,1,34.628,399.181Z" transform="translate(-26.898 -391.285)" fill="#eb5f61"/>
        <path id="XMLID_988_" d="M36.1,399.1,36,399c.164-.033.36-.065.524-.1C36.459,399.1,36.295,399.129,36.1,399.1Z" transform="translate(-28.041 -391.43)" fill="#eb565c"/>
        <path id="XMLID_987_" d="M33.552,396.345a.315.315,0,0,0-.328.229c-.164-.131-.393,0-.524-.2.033-.295.36-.033.459-.262-.295-.066-.393-.229-.164-.459.164-.164.066-.2-.1-.229l.328-.328c.2.2.459.295.655.524-.1.229-.066.491-.229.655C33.617,396.279,33.584,396.312,33.552,396.345Z" transform="translate(-25.822 -388.875)" fill="#e9374d"/>
        <path id="XMLID_986_" d="M35.669,396.854c-.033-.229-.033-.491.229-.622a.061.061,0,0,1,.1,0c.1.033.229.1.262-.033.164-.426.2-.033.262.033-.066.36-.557.295-.655.655A.415.415,0,0,0,35.669,396.854Z" transform="translate(-27.809 -389.483)" fill="#ea5059"/>
        <path id="XMLID_985_" d="M37.406,392.753c-.066.295-.262.229-.459.131-.131-.065-.229-.229-.426-.131-.262-.033-.2-.164-.1-.328.066-.164.229-.229.229-.426h.655c.066.131,0,.2-.033.328a.217.217,0,0,0-.033.2C37.275,392.622,37.373,392.655,37.406,392.753Z" transform="translate(-28.267 -386.79)" fill="#e8354d"/>
        <path id="XMLID_984_" d="M35.053,393.3c0,.131-.033.229.1.328a.33.33,0,0,0,.033.1c-.328.229-.328.229-.131.655h-.1c-.229-.164-.622-.1-.655-.524l.1-.1c.164-.164.229-.426.524-.426A.248.248,0,0,1,35.053,393.3Z" transform="translate(-26.898 -387.665)" fill="#e82f4b"/>
        <path id="XMLID_983_" d="M34.215,392.6c-.164.164-.295.36-.524.426,0-.2-.033-.36-.229-.426-.131.1-.2.065-.262-.066a.3.3,0,0,1,.033-.164c.164-.066.328,0,.524-.1C33.986,392.24,34.248,392.24,34.215,392.6Z" transform="translate(-26.158 -386.965)" fill="#e8374e"/>
        <path id="XMLID_982_" d="M32.324,392.676v.1A.484.484,0,0,1,31.8,393v-.2A.589.589,0,0,1,32.324,392.676Z" transform="translate(-25.217 -387.237)" fill="#ea5059"/>
        <path id="XMLID_981_" d="M34.7,407.167v-.1c.033-.229.164-.229.328-.2.229.065.2-.1.2-.229.2-.164.295-.033.426.1l-.1.1a3.908,3.908,0,0,0-.262.524c-.1.229-.229.328-.459.229C34.8,407.429,34.864,407.265,34.7,407.167Z" transform="translate(-27.167 -396.586)" fill="#e9324b"/>
        <path id="XMLID_980_" d="M34.305,410.994a1.424,1.424,0,0,0-.2.229c-.131.065-.2.262-.328.328h0c-.066.1-.164.164-.229.262a1.428,1.428,0,0,1-.459.426c-.164.065-.2.229-.262.36h-.2c-.164-.262-.491-.491-.066-.786l.066-.065c-.393-.459.36-.262.295-.524a.443.443,0,0,1,.524-.229h.1a.76.76,0,0,1,.524-.1C34.207,410.83,34.305,410.8,34.305,410.994Z" transform="translate(-25.593 -399.463)" fill="#e82949"/>
        <path id="XMLID_979_" d="M33.651,415.326a.294.294,0,0,1,.229-.426h.066c.164.033.328.033.491.066.2.131.131.36.2.557.066.1.229.164.1.328C34.273,415.85,34.011,415.49,33.651,415.326Z" transform="translate(-26.445 -402.189)" fill="#ea4252"/>
        <path id="XMLID_978_" d="M35.86,414.177c-.393-.065.033-.426-.229-.524a.17.17,0,0,1-.066-.131c.033-.131.066-.295-.066-.393,0-.229.164-.229.328-.229a1.991,1.991,0,0,1,.328.229c-.262.131-.164.328-.1.524.229.229.033.36-.1.524Z" transform="translate(-27.705 -400.844)" fill="#e8364d"/>
        <path id="XMLID_977_" d="M36.524,410.761c-.164.164-.36.1-.524.1C36.131,410.63,36.295,410.565,36.524,410.761Z" transform="translate(-28.041 -399.328)" fill="#ea4654"/>
        <path id="XMLID_976_" d="M31.5,393.229a3.641,3.641,0,0,0,.524-.229c.033.1.131.1.229.1-.066.131-.1.328-.328.328-.164-.131-.229,0-.328.1h-.2v-.229C31.433,393.295,31.466,393.262,31.5,393.229Z" transform="translate(-24.948 -387.463)" fill="#ea4c56"/>
        <path id="XMLID_975_" d="M32.1,394.049c0-.1.033-.229.131-.262s.131.066.2.164C32.3,393.983,32.2,394.016,32.1,394.049Z" transform="translate(-25.419 -387.988)" fill="#ea5059"/>
        <path id="XMLID_974_" d="M38.928,392.753a.315.315,0,0,1-.328-.229c.066-.164.295-.066.328-.229a.313.313,0,0,1,0-.295h.328c0,.459.393.393.688.491C39.583,392.59,39.255,392.655,38.928,392.753Z" transform="translate(-29.789 -386.79)" fill="#e8314b"/>
        <path id="XMLID_973_" d="M30.4,389.629a5.206,5.206,0,0,0,.655-.229C30.76,389.924,30.695,389.957,30.4,389.629Z" transform="translate(-24.276 -385.042)" fill="#e92949"/>
        <path id="XMLID_972_" d="M39.129,392c.033.1.066.229.1.328a.3.3,0,0,1-.328,0c.033-.1.066-.229.1-.328Z" transform="translate(-29.991 -386.79)" fill="#e93c4f"/>
        <path id="XMLID_971_" d="M36.6,412.228c.066-.131.1-.328.328-.328C36.862,412.064,36.829,412.228,36.6,412.228Z" transform="translate(-28.445 -400.172)" fill="#e8364d"/>
        <path id="XMLID_970_" d="M31.428,400.9c-.066-.131-.2-.1-.328-.1.131-.131.295-.328.459-.065C31.657,400.833,31.526,400.866,31.428,400.9Z" transform="translate(-24.746 -392.577)" fill="#e9364d"/>
        <path id="XMLID_969_" d="M38.52,393h.328c.066.262.066.295-.1.229-.131-.066-.229,0-.36,0C38.258,393.033,38.389,393.033,38.52,393Z" transform="translate(-29.611 -387.463)" fill="#e92f4b"/>
        <path id="XMLID_968_" d="M34.826,413.6c.393.065.328.229.1.426a.442.442,0,0,1-.524,0h0A2.617,2.617,0,0,1,34.826,413.6Z" transform="translate(-26.965 -401.315)" fill="#e93e50"/>
        <path id="XMLID_967_" d="M34.4,414.9h.524v.1A.365.365,0,0,1,34.4,414.9Z" transform="translate(-26.965 -402.189)" fill="#ea4a55"/>
      </g>
    </g>
    <g id="XMLID_4_" transform="translate(-85.5 330.9)">
      <path id="XMLID_37_" d="M-85.5,360.048A53.523,53.523,0,0,1-74.788,359q12.972,0,12.972,12.087c0,8.91-4.029,13.332-12.055,13.332a12.061,12.061,0,0,1-5.176-1.212v10.417h-6.42V360.048Zm6.42,17.754a10.481,10.481,0,0,0,5.176,1.31c3.833,0,5.732-2.686,5.732-8.058,0-4.586-2.129-6.846-6.355-6.846a25.217,25.217,0,0,0-4.553.328Z" transform="translate(85.5 -349.795)" fill="#fff"/>
      <path id="XMLID_49_" d="M88.32,330.9v34.624H81.9V330.9Z" transform="translate(-27.065 -330.9)" fill="#fff"/>
      <path id="XMLID_71_" d="M122.62,330.9v5.077H116.2V330.9Zm0,9.2v25.42H116.2V340.1Z" transform="translate(-50.129 -330.9)" fill="#fff"/>
      <path id="XMLID_106_" d="M149.4,346.4h4.75l.983,4.127h6.388V355.6h-5.7V367.3c0,2.359,1.016,3.571,3.079,3.571h2.621v5.077h-5.7c-4.258,0-6.388-2.293-6.388-6.846V346.4Z" transform="translate(-72.453 -341.323)" fill="#fff"/>
      <path id="XMLID_120_" d="M202.32,330.9v5.077H195.9V330.9Zm0,9.2v25.42H195.9V340.1Z" transform="translate(-103.721 -330.9)" fill="#fff"/>
      <path id="XMLID_128_" d="M250.48,393.557h-6.42V383.14a13.654,13.654,0,0,1-5.9,1.212c-7.731,0-11.563-4.291-11.563-12.874q0-12.579,13.2-12.579a61.556,61.556,0,0,1,10.712,1.048v33.609ZM244.06,364.7a17.2,17.2,0,0,0-4.226-.59c-4.586,0-6.912,2.457-6.912,7.338q0,7.567,5.995,7.567a9.725,9.725,0,0,0,5.176-1.31v-13Z" transform="translate(-124.365 -349.728)" fill="#fff"/>
    </g>
    <g id="XMLID_46_" transform="translate(-15.695 369.586)">
      <g id="Group_1" data-name="Group 1">
        <path id="Path_1" data-name="Path 1" d="M127.6,449" transform="translate(-127.6 -449)" fill="none" stroke="#000" stroke-width="1"/>
      </g>
    </g>
  </g>
</svg>
