<?xml version="1.0" encoding="utf-8"?>
<!-- Generator: Adobe Illustrator 19.0.0, SVG Export Plug-In . SVG Version: 6.00 Build 0)  -->
<svg version="1.1" id="Layer_1" xmlns="http://www.w3.org/2000/svg" xmlns:xlink="http://www.w3.org/1999/xlink" x="0px" y="0px"
	 viewBox="0 0 1024 1024" style="enable-background:new 0 0 1024 1024;" xml:space="preserve">
<style type="text/css">
	.st0{fill:#FFFFFF;}
	.st1{opacity:0.1;fill:#111D1D;}
	.st2{fill:url(#XMLID_36_);}
	.st3{fill:url(#XMLID_37_);}
	.st4{fill:#EAEAEA;}
	.st5{fill:#0BA5C2;}
	.st6{opacity:0.2;}
	.st7{fill:#14525B;}
	.st8{opacity:0.3;}
	.st9{fill:url(#XMLID_41_);}
	.st10{fill:url(#XMLID_42_);}
	.st11{opacity:0.2;fill:#14525B;}
	.st12{fill:url(#XMLID_43_);}
</style>
<g>
	<path class="st0" d="M382.4,772.2c21.5-0.1,38.6,3.8,51.4,11.9c15.2,9.7,22.9,21.2,23.1,34.5c0.1,13.8-6.9,25.2-21.3,34
		c-13.8,8.3-31.1,12.6-52,12.7l-53.9,0.3c-21.8,0.1-38.9-3.8-51.5-11.7c-15-9.5-22.6-20.9-22.7-34.3c-0.2-14.2,6.7-25.6,20.6-34.4
		c13.6-8.3,31.1-12.6,52.5-12.7L382.4,772.2z M383.8,841.1c12.3-0.1,21.4-1.5,27.3-4.4c8.6-3.9,12.9-10,12.8-18.2
		c-0.1-8.6-5.1-15-15-18.8c-5.6-2.2-14.2-3.4-25.7-3.2l-54.4,0.3c-27.1,0.1-40.7,7.7-40.5,22.5c0.1,8.5,5.2,14.8,15.3,18.9
		c5.6,2.2,14.1,3.3,25.7,3.3L383.8,841.1z"/>
	<path class="st0" d="M400.3,690.1l51.2-0.3l0.9,84.5l-31,0.1l-79.1-53.6c-7.6-5.2-15.8-7.6-24.8-7.7c-8.1,0-14.7,2-19.9,5.8
		c-5.1,3.8-7.7,8.5-7.6,13.8c0,6,3.3,10.8,9.6,14.5c6.4,3.7,14,5.3,22.9,5l0.3,23.3c-19.5,0.1-35.8-3.8-48.7-12
		c-13-8.1-19.6-18.7-19.7-31.8c-0.1-12,5.8-22,17.6-30c11.9-8,26.9-12,45.1-12.1c12.9,0,24.6,2.3,35,7.2c6.6,3,15.7,8.7,27.2,17
		l42.1,30.2l-0.6-33l-20.2,0.2L400.3,690.1z"/>
</g>
<polygon id="XMLID_31_" class="st1" points="1012.3,342.7 1012.3,342.7 1012.3,342.7 1007,339.2 507.9,11.3 15.6,343.1 11,346.2 
	11,346.2 11,346.2 11,346.2 11,346.2 11,346.2 11,346.2 11,346.2 11,346.2 11,346.2 11,346.2 11,346.2 11,346.3 11,346.3 11,346.3 
	11,346.3 11,346.3 11,346.3 11,346.3 11,346.3 11,346.3 11,346.3 11,346.3 11,346.3 11,346.3 11,346.3 11,346.3 11,346.3 11,346.3 
	11,346.3 11,346.3 11,346.3 11,346.3 11,346.3 11,346.3 11,346.3 11,346.4 11,346.4 11,346.4 11,346.4 11,346.4 11,346.4 11,346.4 
	11,346.4 11,346.4 11,346.4 11,346.4 11,346.4 11,346.4 11,346.4 11,346.4 11,346.4 11,346.4 11,346.4 11,346.4 11,346.4 11,346.4 
	11,346.4 11,346.4 11,346.4 11,346.4 11,346.4 11,346.4 11,346.4 11,346.4 11,346.4 11,346.5 11,346.5 11,346.5 11,346.5 11,346.5 
	11,346.5 11,346.5 11,346.5 11,346.5 11,346.5 11,346.5 11,346.5 11,346.5 11,346.5 11,346.5 11,346.5 11,346.5 11,346.5 11,346.5 
	11,346.5 11,346.5 11,346.5 11,346.5 11,346.5 11,346.6 983.7,342.8 1010.4,342.8 "/>
<linearGradient id="XMLID_36_" gradientUnits="userSpaceOnUse" x1="507.6236" y1="190.9615" x2="507.6236" y2="515.8535">
	<stop  offset="0" style="stop-color:#FFFFFF"/>
	<stop  offset="0.4785" style="stop-color:#E0E2E2"/>
</linearGradient>
<polygon id="XMLID_30_" class="st2" points="1008.4,359.2 498,74 6.9,363.1 "/>
<radialGradient id="XMLID_37_" cx="146.7205" cy="1114.6726" r="0" gradientTransform="matrix(-1.548469e-002 -0.7327 1.0953 -1.040000e-002 -202.7243 769.5222)" gradientUnits="userSpaceOnUse">
	<stop  offset="0" style="stop-color:#F58220"/>
	<stop  offset="1" style="stop-color:#EE2E2B"/>
</radialGradient>
<polygon id="XMLID_28_" class="st3" points="1015.9,650.4 1015.9,650.4 1015.9,650.4 "/>
<polygon id="XMLID_27_" class="st4" points="10.8,346 16.6,1016 1018.1,1012.1 1012.3,342.1 10.8,346 "/>
<polygon id="XMLID_26_" class="st5" points="948.6,806.7 165.9,956.8 49,516.7 778,333.3 "/>
<g id="XMLID_34_" class="st6">
	<g id="XMLID_74_">
		<polygon id="XMLID_77_" class="st7" points="291.9,592.5 16.6,1011.6 10.8,341.6 		"/>
		<polygon id="XMLID_76_" class="st7" points="238.1,592.7 16.6,1011.6 10.8,343.6 		"/>
		<polygon id="XMLID_75_" class="st7" points="184.3,593 16.6,1011.6 10.8,345.6 		"/>
	</g>
</g>
<g id="XMLID_29_" class="st8">
	<polygon id="XMLID_5_" class="st7" points="655.2,599.1 997.5,1018.2 1003.2,348.2 	"/>
	<polygon id="XMLID_6_" class="st7" points="742.5,599.4 997.5,1015.7 1003.2,348.2 	"/>
	<polygon id="XMLID_4_" class="st7" points="829.7,599.6 997.5,1013.2 1003.2,348.2 	"/>
</g>
<linearGradient id="XMLID_41_" gradientUnits="userSpaceOnUse" x1="112.1314" y1="665.2662" x2="-117.7912" y2="691.796">
	<stop  offset="0" style="stop-color:#FFFFFF"/>
	<stop  offset="0.4785" style="stop-color:#E0E2E2"/>
</linearGradient>
<polygon id="XMLID_21_" class="st9" points="185.7,704.7 16.7,1011.6 10.9,341.6 "/>
<linearGradient id="XMLID_42_" gradientUnits="userSpaceOnUse" x1="678.9047" y1="674.7684" x2="1018" y2="674.7684">
	<stop  offset="0" style="stop-color:#FFFFFF"/>
	<stop  offset="0.4785" style="stop-color:#E0E2E2"/>
</linearGradient>
<polygon id="XMLID_20_" class="st10" points="678.9,674 1012.2,341.7 1018,1007.8 "/>
<g>
	<path class="st0" d="M246.9,661.3l30.7-8.2l1,3.1l-6.2,1.7c-1.6,0.4-2.7,1-3.2,1.7c-0.5,0.7-0.6,1.5-0.3,2.6l10.8,34.8
		c1.1,3.7,2.3,6.3,3.6,8c1.9,2.5,4.4,4.2,7.6,5.1c3.2,0.9,7,0.8,11.4-0.4c6-1.6,10.2-4.3,12.5-8.1c2.3-3.8,2.6-8.1,1.1-12.9
		l-8.8-28.3c-0.8-2.5-1.6-4.4-2.3-5.5c-0.8-1.2-1.6-2.1-2.6-2.6c-0.9-0.5-2-0.8-3.2-0.9c-1.2,0-3,0.3-5.5,0.9l-1-3.1l25.1-6.7l1,3.1
		l-1.8,0.5c-2.8,0.7-4.7,2-5.6,3.8c-0.9,1.8-1,4-0.2,6.7l9.4,30.3c2,6.6,1.6,12.3-1.4,16.9c-3.3,5.2-8.8,8.8-16.4,10.9
		c-6.6,1.8-12,2.3-16.3,1.6c-4.3-0.7-7.8-2.5-10.5-5.3c-2-2.1-3.7-5.1-4.8-8.8l-11.6-37.3c-0.3-1-0.9-1.6-1.7-2
		c-0.9-0.4-2-0.4-3.4,0l-6.3,1.7L246.9,661.3z"/>
	<path class="st0" d="M323.7,640.7l34.6-9.3c6.8-1.8,12.4-1.8,16.9,0c4.5,1.8,7.4,4.8,8.7,9c1.1,3.5,0.8,6.8-1,9.9
		c-1.8,3.1-5,6.1-9.6,8.9c6.6-0.5,11.9,0.2,15.9,2c4,1.8,6.6,4.7,7.8,8.7c0.9,3.1,0.9,6-0.1,8.9c-1.1,2.9-3.4,5.6-7,8.4
		c-3.6,2.8-8.1,4.8-13.3,6.3l-33.6,9l-1-3.1l5.5-1.5c1.6-0.4,2.7-1,3.4-1.7c0.6-0.7,0.8-1.4,0.6-2L336,644.6c-0.4-1.2-1-2-2-2.4
		c-0.9-0.4-2.1-0.4-3.5,0l-5.8,1.6L323.7,640.7z M352.3,663.7l12.6-3.4c3.9-1,6.6-2.9,8.2-5.6c1.6-2.7,1.7-6.5,0.2-11.3
		c-0.9-3-2.2-5.1-3.8-6.5c-1.6-1.4-3.6-2.2-5.9-2.4c-2.3-0.2-6,0.4-11.1,1.7c-3.6,1-5.8,1.8-6.5,2.5c-0.7,0.7-0.9,1.7-0.5,2.9
		L352.3,663.7z M353.3,666.8l7.4,23.8c0.4,1.1,1,1.9,1.8,2.2c0.9,0.4,2.2,0.3,4.1-0.2l8-2.2c5.3-1.4,8.9-3.6,10.8-6.5
		c1.9-2.9,2.1-6.6,0.6-11.2c-1.3-4.2-3.7-7.2-7-8.9c-3.4-1.7-7.4-2-12.1-0.7L353.3,666.8z"/>
	<path class="st0" d="M396.8,624.1c3.1-0.1,6.4-0.6,9.9-1.5l27.9-7.5l0.6,1.9c-2,7.8-3.3,14.3-3.9,19.5c-0.6,5.2-0.8,10-0.5,14.5
		c0.3,4.5,1.1,9.6,2.5,15.3c1.1,4.7,1.8,7.7,1.8,8.9c0.1,1.2-0.2,2.2-0.8,3c-0.6,0.8-1.6,1.4-2.9,1.8c-1.5,0.4-2.8,0.2-3.9-0.5
		c-1.1-0.7-2-2.1-2.7-4.1c-0.5-1.8-0.9-4.1-1-7.1c-0.2-2.9,0.2-7.4,0.9-13.4c1-8.1,2.1-14.6,3.2-19.3l2.9-12.3l-24.3,6.5
		c-1.8,0.5-3,1.4-3.5,2.8c-0.5,1.4-0.5,5.2,0.1,11.3l-3.3,0.9L396.8,624.1z"/>
	<path class="st0" d="M488.9,599.3c5.8-1.6,11.4-0.8,16.6,2.4c6.4,3.9,11.3,11.1,14.6,21.7c3,9.8,3.3,17.9,0.7,24.1
		c-2.6,6.3-6.9,10.2-12.8,11.8c-5.7,1.5-11.2,0.7-16.3-2.6c-6.5-4.1-11.3-11.3-14.5-21.6c-3-9.7-3.2-18.1-0.4-25.1
		C478.9,604.5,482.9,600.9,488.9,599.3z M490.1,602.2c-4,1.1-6.5,3.7-7.6,7.8c-1.2,4.1,0,11.7,3.4,22.8c3.4,10.8,6.8,17.7,10.1,20.7
		c3.4,3,7.1,4,10.9,2.9c3.9-1,6.3-3.5,7.4-7.4c1.3-4.7,0.3-12.2-3-22.8c-3.4-10.9-6.8-17.9-10.3-21
		C497.6,602.2,494,601.2,490.1,602.2z"/>
	<path class="st0" d="M519.5,588.1l52.6-14.1l7.7,20.5l-3,0.8c-3.2-6.2-6.6-10.3-9.9-12.3c-3.4-1.9-7.2-2.3-11.3-1.2l-13,3.5
		c-1,0.3-1.8,0.7-2.1,1.4c-0.4,0.7-0.4,1.6,0,2.6l6.8,22l5.7-1.5c3-0.8,5.2-2.5,6.5-5c1.3-2.5,1.3-5.9,0.2-10.2l3.1-0.8l8.9,28.6
		l-3.1,0.8c-1.6-4.7-3.7-7.8-6.3-9.3c-2.6-1.5-5.5-1.8-8.8-1l-5.2,1.4l7.6,24.5c0.3,0.9,0.8,1.5,1.6,1.8c0.8,0.3,1.9,0.3,3.4-0.1
		l10.3-2.7c11.1-3,15.5-11.3,13.1-25l3.2-0.9l6,23.3l-54.7,14.7l-1-3.1l4.5-1.2c1.8-0.5,2.9-1.1,3.4-1.8s0.6-1.7,0.3-2.8L530.8,592
		c-0.3-1.1-0.9-1.8-1.7-2.2c-0.8-0.3-1.9-0.3-3.2,0l-5.5,1.4L519.5,588.1z"/>
	<path class="st0" d="M584.2,570.7l34.6-9.3c6.8-1.8,12.4-1.8,16.9,0c4.5,1.8,7.3,4.8,8.6,9c1.1,3.5,0.8,6.8-1,9.9
		c-1.7,3.1-4.9,6.1-9.6,8.8c6.6-0.4,11.9,0.2,15.9,2c4,1.8,6.6,4.7,7.8,8.7c1,3.1,0.9,6-0.2,8.9c-1,2.8-3.4,5.7-7,8.4
		c-3.6,2.8-8.1,4.8-13.4,6.3l-33.6,9l-1-3.1l5.5-1.5c1.7-0.4,2.8-1,3.4-1.7c0.6-0.7,0.8-1.4,0.6-2l-15.4-49.5c-0.3-1.2-1-2-1.9-2.4
		c-0.9-0.4-2.1-0.4-3.6,0l-5.8,1.6L584.2,570.7z M612.9,593.7l12.6-3.4c3.8-1,6.6-2.9,8.2-5.6c1.6-2.7,1.7-6.5,0.2-11.3
		c-0.9-3-2.2-5.1-3.8-6.5c-1.6-1.4-3.6-2.2-5.9-2.4c-2.3-0.2-6,0.4-11.2,1.7c-3.6,1-5.8,1.8-6.5,2.5c-0.7,0.7-0.9,1.7-0.5,2.9
		L612.9,593.7z M613.8,596.9l7.4,23.8c0.4,1.1,1,1.9,1.8,2.2c0.9,0.4,2.2,0.3,4.1-0.2l8-2.2c5.3-1.4,8.9-3.6,10.8-6.5
		c1.9-2.9,2.1-6.6,0.6-11.2c-1.3-4.2-3.7-7.2-7.1-8.9c-3.4-1.7-7.4-2-12-0.7L613.8,596.9z"/>
</g>
<polygon id="XMLID_7_" class="st11" points="28.8,1013.4 511,677.1 1005.5,1008.9 "/>
<linearGradient id="XMLID_43_" gradientUnits="userSpaceOnUse" x1="513.5176" y1="864.8216" x2="521.8781" y2="1190.881">
	<stop  offset="0" style="stop-color:#FFFFFF"/>
	<stop  offset="0.4785" style="stop-color:#E0E2E2"/>
</linearGradient>
<polygon id="XMLID_8_" class="st12" points="511.6,772.3 1018.1,1012.1 16.6,1016 "/>
</svg>
