<?xml version="1.0" encoding="utf-8"?>
<!-- Generator: Adobe Illustrator 19.0.0, SVG Export Plug-In . SVG Version: 6.00 Build 0)  -->
<svg version="1.1" id="Layer_1" xmlns="http://www.w3.org/2000/svg" xmlns:xlink="http://www.w3.org/1999/xlink" x="0px" y="0px"
	 viewBox="-293 432.8 411.1 137.2" style="enable-background:new -293 432.8 411.1 137.2;" xml:space="preserve">
<style type="text/css">
	.st0{fill:#46C5E4;}
	.st1{fill:#EC1D45;}
</style>
<g id="XMLID_180_">
	<path id="XMLID_191_" d="M-280.7,570H-293V463.3h12.3v7.5c5.9-5.6,14.3-9.2,23.4-9.2c21.8,0,33.2,16.1,33.2,39.6
		c0,23.6-11.4,39.6-33.2,39.6c-9.1,0-17.6-3.7-23.4-9.1C-280.7,531.7-280.7,570-280.7,570z M-259.2,472.3c-7.5,0-16.2,3.5-21.5,9.5
		v38.8c5.3,5.9,14,9.4,21.5,9.4c15.8,0,22.5-11.3,22.5-28.8C-236.7,483.6-243.4,472.3-259.2,472.3z"/>
	<path id="XMLID_189_" d="M-133.8,433.2h12.3V540h-12.3V433.2z"/>
	<path id="XMLID_186_" d="M-97.1,432.8c4.7,0,8.2,3.5,8.2,8.2c0,4.7-3.5,8.2-8.2,8.2s-8.2-3.5-8.2-8.2
		C-105.3,436.3-101.8,432.8-97.1,432.8z M-103.2,464.3h12.3v75.8h-12.3V464.3z"/>
	<path id="XMLID_184_" d="M-67.8,518.7v-43.9h-13.6v-10.5h13.6v-22.7h12.3v22.7h18.6v10.5h-18.6v43c0,8.3,2.8,13.2,12.1,13.2
		c2.3,0,4.5,0,6.4-0.1v10.7c-1.6,0.1-4.2,0.3-5.9,0.3C-59,541.8-67.8,534.9-67.8,518.7z"/>
	<path id="XMLID_181_" d="M-19.8,432.8c4.7,0,8.2,3.5,8.2,8.2c0,4.7-3.5,8.2-8.2,8.2s-8.2-3.5-8.2-8.2
		C-28,436.3-24.5,432.8-19.8,432.8z M-26,464.3h12.3v75.8H-26V464.3z"/>
</g>
<g id="XMLID_176_">
	<path id="XMLID_177_" class="st0" d="M5.8,472.4c7.1-7.2,17-11.7,27.9-11.7s20.8,4.5,28,11.7c7,7.2,11.5,17,11.5,28
		c0,10.9-4.5,20.8-11.5,28c-7.2,7.3-17,11.7-28,11.7c-10.8,0-20.8-4.4-27.9-11.7c-7-7.2-11.5-17-11.5-28
		C-5.7,489.5-1.2,479.6,5.8,472.4z M53.6,480.4c-5.2-5.2-12.3-8.4-20-8.4c-7.6,0-14.6,3.2-19.8,8.4c-5.1,5-8.3,12.1-8.3,20
		s3.2,15,8.3,20c5.2,5.2,12.2,8.4,19.8,8.4s14.7-3.2,20-8.4c5-5,8.2-12,8.2-20C61.8,492.4,58.6,485.4,53.6,480.4z"/>
</g>
<g id="XMLID_168_">
	<path id="XMLID_169_" class="st0" d="M-207.5,472.8c7.1-7.2,17-11.7,27.9-11.7c10.9,0,20.8,4.5,28,11.7c7,7.2,11.5,17,11.5,28
		c0,10.9-4.5,20.8-11.5,28c-7.2,7.3-17,11.7-28,11.7c-10.8,0-20.8-4.4-27.9-11.7c-7-7.2-11.5-17-11.5-28
		C-218.9,489.8-214.5,480-207.5,472.8z M-159.6,480.7c-5.2-5.2-12.3-8.4-20-8.4c-7.6,0-14.6,3.2-19.8,8.4c-5.1,5-8.3,12.1-8.3,20
		s3.2,15,8.3,20c5.1,5.2,12.1,8.4,19.8,8.4c7.6,0,14.7-3.2,20-8.4c5-5,8.2-12,8.2-20C-151.4,492.7-154.6,485.7-159.6,480.7z"/>
</g>
<polygon id="XMLID_14_" class="st1" points="118.1,475.5 63,547.7 26.9,511.6 44.7,511.6 62.6,530 "/>
</svg>
