<?xml version="1.0" encoding="utf-8"?>
<!-- Generator: Adobe Illustrator 19.0.0, SVG Export Plug-In . SVG Version: 6.00 Build 0)  -->
<svg version="1.1" xmlns="http://www.w3.org/2000/svg" xmlns:xlink="http://www.w3.org/1999/xlink" x="0px" y="0px"
	 width="52.303px" height="35.483px" viewBox="0 0 52.303 35.483" enable-background="new 0 0 52.303 35.483" xml:space="preserve">
<g id="Line_20">
</g>
<g id="Line_19">
	<path fill="#98A3A6" d="M23.444,29.635c-1.594-1.623-1.594-4.266,0.001-5.89c0.77-0.785,1.796-1.219,2.887-1.219
		c1.093,0,2.118,0.434,2.889,1.222l1.26,1.275c1.53-2.498,2.427-5.425,2.427-8.569C32.908,7.367,25.542,0,16.454,0S0,7.367,0,16.454
		s7.367,16.454,16.454,16.454c2.947,0,5.707-0.785,8.099-2.142L23.444,29.635z"/>
	<g>
		<path fill="#FFFFFF" d="M16.607,22.259c-0.918,0-1.694,0.776-1.694,1.694v0.438c0,0.935,0.76,1.694,1.694,1.694
			c0.966,0,1.694-0.729,1.694-1.694v-0.438C18.302,23.003,17.558,22.259,16.607,22.259z"/>
		<path fill="#FFFFFF" d="M16.607,8.028c-1.99,0-3.846,1.066-4.842,2.782c-0.473,0.808-0.215,1.823,0.594,2.316
			c0.265,0.154,0.564,0.236,0.866,0.236c0.61,0,1.162-0.319,1.477-0.857c0.387-0.672,1.117-1.09,1.905-1.09
			c1.277,0,2.278,0.979,2.278,2.229c0,1.229-1.022,2.229-2.278,2.229c-0.864,0-1.627,0.726-1.69,1.579l-0.004,0.005V20.2
			c0,0.935,0.76,1.694,1.694,1.694c0.966,0,1.694-0.729,1.694-1.694v-1.203c2.344-0.729,3.947-2.875,3.947-5.352
			C22.249,10.548,19.718,8.028,16.607,8.028z"/>
	</g>
	<path fill="#43C5E6" d="M51.677,14.102c-0.392-0.4-0.91-0.621-1.459-0.621s-1.067,0.221-1.46,0.621L32.894,30.247l-5.04-5.1
		c-0.392-0.4-0.91-0.62-1.459-0.62s-1.067,0.22-1.46,0.62c-0.836,0.852-0.836,2.236,0,3.088l6.497,6.627
		c0.393,0.4,0.911,0.621,1.46,0.621s1.067-0.221,1.46-0.621l17.325-17.669C52.512,16.34,52.512,14.954,51.677,14.102z"/>
</g>
</svg>
