<?xml version="1.0" encoding="utf-8"?>
<!-- Generator: Adobe Illustrator 19.0.0, SVG Export Plug-In . SVG Version: 6.00 Build 0)  -->
<svg version="1.1" xmlns="http://www.w3.org/2000/svg" xmlns:xlink="http://www.w3.org/1999/xlink" x="0px" y="0px"
	 width="52.304px" height="35.484px" viewBox="0 0 52.304 35.484" enable-background="new 0 0 52.304 35.484" xml:space="preserve">
<g id="Line_20">
	<path fill="#98A3A6" d="M14.902,0.078C5.847,0.96-0.803,9.045,0.078,18.099s8.966,15.705,18.021,14.824
		c1.272-0.124,2.571-0.415,3.861-0.867l0.516-0.181l-0.227-0.498c-0.251-0.552-0.429-1.153-0.529-1.79l-0.094-0.595l-0.568,0.202
		c-1.088,0.389-2.181,0.639-3.249,0.743c-7.409,0.721-14.023-4.719-14.744-12.129S7.784,3.786,15.193,3.064
		s14.023,4.719,14.744,12.129c0.223,2.291-0.15,4.618-1.079,6.73l-0.238,0.54l0.572,0.146c0.603,0.153,1.163,0.404,1.667,0.746
		l0.496,0.336l0.242-0.548c1.141-2.586,1.599-5.435,1.326-8.241C32.042,5.847,23.957-0.803,14.902,0.078z"/>
	<g>
		<path fill="#98A3A6" d="M16.654,22.305c-0.918,0-1.694,0.776-1.694,1.694v0.438c0,0.935,0.76,1.694,1.694,1.694
			c0.966,0,1.694-0.729,1.694-1.694V24C18.348,23.05,17.604,22.305,16.654,22.305z"/>
		<path fill="#98A3A6" d="M16.654,8.075c-1.99,0-3.846,1.066-4.842,2.782c-0.473,0.808-0.215,1.823,0.594,2.316
			c0.265,0.154,0.564,0.236,0.866,0.236c0.61,0,1.162-0.319,1.477-0.857c0.387-0.672,1.117-1.09,1.905-1.09
			c1.277,0,2.278,0.979,2.278,2.229c0,1.229-1.022,2.229-2.278,2.229c-0.864,0-1.627,0.726-1.69,1.579l-0.004,0.005v2.741
			c0,0.935,0.76,1.694,1.694,1.694c0.966,0,1.694-0.729,1.694-1.694v-1.203c2.344-0.729,3.947-2.875,3.947-5.352
			C22.296,10.595,19.764,8.075,16.654,8.075z"/>
	</g>
	<path fill="#98A3A6" d="M51.678,14.103c-0.392-0.4-0.91-0.621-1.459-0.621s-1.067,0.221-1.46,0.621L32.894,30.248l-5.04-5.1
		c-0.392-0.4-0.91-0.62-1.459-0.62s-1.067,0.22-1.46,0.62c-0.836,0.852-0.836,2.236,0,3.088l6.497,6.627
		c0.393,0.4,0.911,0.621,1.46,0.621s1.067-0.221,1.46-0.621l17.325-17.669C52.513,16.341,52.513,14.954,51.678,14.103z"/>
</g>
<g id="Line_19">
</g>
</svg>
