<?xml version="1.0" encoding="utf-8"?>
<!-- Generator: Adobe Illustrator 19.0.0, SVG Export Plug-In . SVG Version: 6.00 Build 0)  -->
<svg version="1.1" id="Isolation_Mode" xmlns="http://www.w3.org/2000/svg" xmlns:xlink="http://www.w3.org/1999/xlink" x="0px"
	 y="0px" viewBox="0 0 32.8 28.9" style="enable-background:new 0 0 32.8 28.9;" xml:space="preserve">
<g>
	<path d="M31.9,28.9h-31C0.4,28.9,0,28.5,0,28V0.9C0,0.4,0.4,0,0.9,0h31c0.5,0,0.9,0.4,0.9,0.9V28C32.8,28.5,32.4,28.9,31.9,28.9z
		 M1.5,27.4h29.8V1.5H1.5V27.4z"/>
</g>
<g>
	<path d="M15.1,23.6c-0.2,0-0.5-0.1-0.6-0.3l-6-6l-7.3,4.9L0.3,21l7.7-5.1c0.3-0.3,0.9-0.2,1.2,0.1l5.9,5.9l10-10l0.4,0
		c0.2,0,0.5,0.1,0.6,0.3l6.4,6.4l-1.1,1.1l-6-6l-9.8,9.8C15.6,23.5,15.3,23.6,15.1,23.6z"/>
</g>
<g>
	<path d="M12.5,13.2c-1.9,0-3.4-1.5-3.4-3.4c0-1.9,1.5-3.4,3.4-3.4c1.9,0,3.4,1.5,3.4,3.4C15.8,11.7,14.3,13.2,12.5,13.2z M12.5,8
		c-1,0-1.9,0.8-1.9,1.9c0,1,0.8,1.9,1.9,1.9c1,0,1.9-0.8,1.9-1.9C14.3,8.9,13.5,8,12.5,8z"/>
</g>
</svg>
