<?xml version="1.0" encoding="utf-8"?>
<!-- Generator: Adobe Illustrator 19.0.0, SVG Export Plug-In . SVG Version: 6.00 Build 0)  -->
<svg version="1.1" id="General" xmlns="http://www.w3.org/2000/svg" xmlns:xlink="http://www.w3.org/1999/xlink" x="0px" y="0px"
	 viewBox="0 0 44 44" style="enable-background:new 0 0 44 44;" xml:space="preserve">
<g id="Tags_x40_2x.png">
	<g>
		<path d="M21,28c0.3,0,0.5-0.1,0.7-0.3l2-2c0.2-0.2,0.3-0.4,0.3-0.7c0-0.6-0.4-1-1-1c-0.3,0-0.5,0.1-0.7,0.3l-2,2
			C20.1,26.5,20,26.7,20,27C20,27.6,20.4,28,21,28z M21,36c0.3,0,0.5-0.1,0.7-0.3l4-4c0.2-0.2,0.3-0.4,0.3-0.7c0-0.6-0.4-1-1-1
			c-0.3,0-0.5,0.1-0.7,0.3l-4,4C20.1,34.5,20,34.7,20,35C20,35.6,20.4,36,21,36z M9,12c-1.7,0-3,1.3-3,3c0,1.7,1.3,3,3,3
			c1.7,0,3-1.3,3-3C12,13.3,10.7,12,9,12z M9,16c-0.6,0-1-0.4-1-1c0-0.6,0.4-1,1-1s1,0.4,1,1C10,15.6,9.6,16,9,16z M16,31
			c0,0.6,0.4,1,1,1c0.3,0,0.5-0.1,0.7-0.3l1-1c0.2-0.2,0.3-0.4,0.3-0.7c0-0.6-0.4-1-1-1c-0.3,0-0.5,0.1-0.7,0.3l-1,1
			C16.1,30.5,16,30.7,16,31z M43.7,20.3l-20-20C23.5,0.1,23.3,0,23,0H9C7.3,0,6,1.3,6,3c0,0.6,0.4,1,1,1s1-0.4,1-1c0-0.6,0.4-1,1-1
			h13.6l19,19l-2.3,2.3C39.1,23.5,39,23.7,39,24c0,0.6,0.4,1,1,1c0.3,0,0.5-0.1,0.7-0.3l3-3c0.2-0.2,0.3-0.4,0.3-0.7
			C44,20.7,43.9,20.5,43.7,20.3z M17.7,6.3C17.5,6.1,17.3,6,17,6H3C1.3,6,0,7.3,0,9v14c0,0.3,0.1,0.5,0.3,0.7l20,20
			c0.2,0.2,0.4,0.3,0.7,0.3c0.3,0,0.5-0.1,0.7-0.3l16-16c0.2-0.2,0.3-0.4,0.3-0.7s-0.1-0.5-0.3-0.7L17.7,6.3z M21,41.6l-19-19V9
			c0-0.6,0.4-1,1-1h13.6l19,19L21,41.6z"/>
	</g>
</g>
</svg>
