<?xml version="1.0" encoding="utf-8"?>
<!-- Generator: Adobe Illustrator 23.0.1, SVG Export Plug-In . SVG Version: 6.00 Build 0)  -->
<svg version="1.1" id="Layer_1" xmlns="http://www.w3.org/2000/svg" xmlns:xlink="http://www.w3.org/1999/xlink" x="0px" y="0px"
	 viewBox="0 0 94.9 94.9" style="enable-background:new 0 0 94.9 94.9;" xml:space="preserve">
<style type="text/css">
	.st0{fill:#BFE7F5;}
	.st1{fill:#E4F4F9;}
	.st2{fill:#CFF5FF;}
	.st3{fill:#8E4351;}
</style>
<path class="st0" d="M92.6,94.9H2.3c-1.3,0-2.3-1-2.3-2.3V2.3C0,1,1,0,2.3,0h90.3c1.3,0,2.3,1,2.3,2.3v90.3
	C94.9,93.8,93.8,94.9,92.6,94.9z"/>
<g>
	<path id="XMLID_205_" class="st1" d="M73.8,85.1c0-9.6-11.6-17.5-25.9-17.5h-2.3c-14.2,0-25.9,7.9-25.9,17.5v9.8h54V85.1z"/>
	<path id="XMLID_520_" class="st2" d="M50.1,51.8h-6.6c-9.8,0-17.9-8-17.9-17.9v-5.6c0-9.8,8-17.9,17.9-17.9h6.6
		c9.8,0,17.9,8,17.9,17.9v5.6C67.9,43.8,59.9,51.8,50.1,51.8z"/>
	<path id="XMLID_472_" class="st2" d="M37.2,67.5v-8c0-4.3,3.5-7.8,7.8-7.8h3.6c4.3,0,7.8,3.5,7.8,7.8c0,0,0,8,0,8
		C56.4,79.6,37.2,79.6,37.2,67.5z"/>
	<path id="XMLID_165_" class="st1" d="M46.8,60.4L46.8,60.4c-3.9,0-14.4-6.2-14.4-14.1V39c0-7.9,6.5-14.4,14.4-14.4h0
		c7.9,0,14.4,6.5,14.4,14.4v7.3C61.2,54.1,50.7,60.4,46.8,60.4z"/>
	<path id="XMLID_504_" class="st2" d="M28.2,32.6c0.7-2.7,5.5-4,7.8-3.8c3.2,0.2,6,4.9,12.5,4.6c4.8-0.3,9-3.3,13.3-5.2
		c0.8-0.3,1.5-0.7,2.1-1c0.3-0.2,1.5-0.5,1.5-0.9c0.1-1-4.1-3-4.7-3.4c-3-1.9-6.2-3.8-9.4-5.5c-3.1-1.6-6.5-2.9-10-2.8
		c-3.6,0.1-6.4,2.1-8.3,5.2C30.6,23.7,29.3,28.1,28.2,32.6z"/>
	<path id="XMLID_522_" class="st2" d="M65,49.6c-1-0.3-2.3-2.5-2.4-3.4c0,0-0.8-20.4-0.8-20.4c0-0.4,0.9,0.7,2,0.7c1.1,0,2,1,2,2.2
		c0,3.1,0,6.3,0,9.4c0,2.2,0,4.3,0,6.5c0,1.2,0.6,3.8-0.2,4.8C65.4,49.6,65.2,49.7,65,49.6z"/>
	<path id="XMLID_1_" class="st2" d="M28.6,50.2c0.8-0.2,2-2.1,2.4-3l0.8-18.9c0-0.4-0.9,0.7-2,0.7c-1.1,0-2,0.9-2,2
		c0,0,0,17.3,0,17.6C27.8,49.9,28.1,50.3,28.6,50.2z"/>
</g>
<g>
	<g>
		<g>
			<path class="st3" d="M47.7,22.7c8.4,0,14.1,4.1,14.1,11.7c0,11.1-11.1,11.6-11.1,21.1h-6.2c0-11.3,9.8-11.4,9.8-19.9
				c0-4.1-2.9-6.1-7.2-6.1c-4.6,0-7.3,2.4-7.5,7.2l-6.3-0.1C33.4,27.7,39,22.7,47.7,22.7 M47.5,62.9c2.5,0,4.4,1.9,4.4,4.6
				c0,2.7-1.9,4.7-4.4,4.7c-2.5,0-4.4-2-4.4-4.7C43,64.8,44.9,62.9,47.5,62.9 M47.7,20.7c-9.9,0-16.3,6.1-16.6,15.9
				c0,0.5,0.2,1.1,0.6,1.4c0.4,0.4,0.9,0.6,1.4,0.6l6.3,0.1c0,0,0,0,0,0c1.1,0,2-0.8,2-1.9c0.2-3.6,1.9-5.3,5.5-5.3
				c5.2,0,5.2,3,5.2,4.1c0,3.1-1.7,4.8-3.8,7c-2.7,2.7-6,6.1-6,12.9c0,1.1,0.9,2,2,2h6.2c1.1,0,2-0.9,2-2c0-3.7,2-5.7,4.6-8.2
				c3-2.9,6.5-6.3,6.5-12.9C63.8,25.9,57.6,20.7,47.7,20.7L47.7,20.7z M47.5,60.9c-3.7,0-6.4,2.8-6.4,6.6c0,3.8,2.8,6.7,6.4,6.7
				c3.7,0,6.4-2.9,6.4-6.7C53.9,63.7,51.1,60.9,47.5,60.9L47.5,60.9z"/>
		</g>
	</g>
</g>
</svg>
