<?xml version="1.0" encoding="utf-8"?>
<!-- Generator: Adobe Illustrator 19.0.0, SVG Export Plug-In . SVG Version: 6.00 Build 0)  -->
<svg version="1.1" id="Capa_1" xmlns="http://www.w3.org/2000/svg" xmlns:xlink="http://www.w3.org/1999/xlink" x="0px" y="0px"
	 viewBox="-367 368 265 265" style="enable-background:new -367 368 265 265;" xml:space="preserve">
<style type="text/css">
	.st0{fill:#222220;}
</style>
<path class="st0" d="M-360.5,437.8c4.1,0,7.5-3.4,7.5-7.5v-47.5h47.5c4.1,0,7.5-3.4,7.5-7.5s-3.4-7.5-7.5-7.5h-55
	c-4.1,0-7.5,3.4-7.5,7.5v55C-368,434.5-364.6,437.8-360.5,437.8z"/>
<path class="st0" d="M-110.5,367.8h-55c-4.1,0-7.5,3.4-7.5,7.5s3.4,7.5,7.5,7.5h47.5v47.5c0,4.1,3.4,7.5,7.5,7.5s7.5-3.4,7.5-7.5
	v-55C-103,371.2-106.4,367.8-110.5,367.8z"/>
<path class="st0" d="M-110.5,561.2c-4.1,0-7.5,3.4-7.5,7.5v47.5h-47.5c-4.1,0-7.5,3.4-7.5,7.5c0,4.1,3.4,7.5,7.5,7.5h55
	c4.1,0,7.5-3.4,7.5-7.5v-55C-103,564.5-106.4,561.2-110.5,561.2z"/>
<path class="st0" d="M-305.5,616.2H-353v-47.5c0-4.1-3.4-7.5-7.5-7.5s-7.5,3.4-7.5,7.5v55c0,4.1,3.4,7.5,7.5,7.5h55
	c4.1,0,7.5-3.4,7.5-7.5C-298,619.5-301.4,616.2-305.5,616.2z"/>
<path class="st0" d="M-103.3,506.2c2.7-4.6,1.1-10.5-3.5-13.2c-4.6-2.7-10.5-1.1-13.2,3.5c-13,22.4-32,40.1-54.3,51.5l-16.4-16.4
	c6-8.6,9.5-19.1,9.5-30.3c0-29.4-23.9-53.3-53.3-53.3c-11.3,0-21.7,3.5-30.3,9.5l-10.9-10.9c13.1-4.3,27-6.6,41.2-6.6
	c28.3,0,55.2,8.8,77.9,25.4c4.3,3.2,10.4,2.2,13.5-2.1s2.2-10.4-2.1-13.5c-26.1-19.1-57-29.2-89.4-29.2c-19.5,0-38.6,3.8-56.2,10.9
	l-35.5-35.5c-3.7-3.7-9.7-3.7-13.4,0c-3.7,3.7-3.7,9.7,0,13.4l30.8,30.8c-23.2,13.1-43,32.3-56.8,56.1c-1.7,3-1.7,6.7,0,9.7
	c27,46.7,77.3,75.8,131.2,75.8c19.5,0,38.6-3.8,56.2-10.9l38.1,38.1c1.9,1.9,4.3,2.8,6.7,2.8s4.9-0.9,6.7-2.8
	c3.7-3.7,3.7-9.7,0-13.4l-33.4-33.4C-136.9,549.2-117.1,530-103.3,506.2z M-234.5,467.4c18.7,0,34,15.2,34,34
	c0,5.9-1.5,11.5-4.2,16.3l-46.1-46.1C-246,468.9-240.4,467.4-234.5,467.4z M-234.5,562.6c-45.1,0-87.3-23.3-111.5-61.3
	c12.8-20.1,30.7-36.1,51.4-46.7l16.4,16.4c-6,8.6-9.5,19.1-9.5,30.3c0,5.3,4.3,9.7,9.7,9.7c5.3,0,9.7-4.3,9.7-9.7
	c0-5.9,1.5-11.5,4.2-16.3l46.1,46.1c-4.8,2.7-10.4,4.2-16.3,4.2c-5.3,0-9.7,4.3-9.7,9.7s4.3,9.7,9.7,9.7c11.3,0,21.7-3.5,30.3-9.5
	l10.8,10.8C-206.4,560.3-220.3,562.6-234.5,562.6z"/>
</svg>
