<?xml version="1.0" encoding="utf-8"?>
<!-- Generator: Adobe Illustrator 19.0.0, SVG Export Plug-In . SVG Version: 6.00 Build 0)  -->
<svg version="1.1" id="Layer_1" xmlns="http://www.w3.org/2000/svg" xmlns:xlink="http://www.w3.org/1999/xlink" x="0px" y="0px"
	 width="96px" height="96px" viewBox="-463 465 96 96" enable-background="new -463 465 96 96" xml:space="preserve">
<path fill="none" stroke="#43C5E6" stroke-width="6" stroke-miterlimit="10" d="M-447.56,501.674h-4.968
	c-3.868,0-7.016,3.148-7.016,7.016v36.976c0,3.868,3.148,7.012,7.016,7.012h4.968c3.868,0,7.016-3.144,7.016-7.012V508.69
	C-440.544,504.826-443.692,501.674-447.56,501.674z"/>
<g>
	<path fill="#43C5E6" d="M-447.516,501.672h-4.968c-3.868,0-7.016,3.148-7.016,7.016v36.976c0,3.868,3.148,7.012,7.016,7.012h4.968
		c3.868,0,7.016-3.144,7.016-7.012v-36.976C-440.5,504.824-443.648,501.672-447.516,501.672z"/>
	<path fill="#43C5E6" d="M-447.516,555.676h-4.968c-5.523,0-10.016-4.491-10.016-10.012v-36.976c0-5.523,4.493-10.016,10.016-10.016
		h4.968c5.523,0,10.016,4.493,10.016,10.016v36.976C-437.5,551.185-441.993,555.676-447.516,555.676z M-452.484,504.672
		c-2.214,0-4.016,1.802-4.016,4.016v36.976c0,2.212,1.802,4.012,4.016,4.012h4.968c2.214,0,4.016-1.8,4.016-4.012v-36.976
		c0-2.214-1.802-4.016-4.016-4.016H-452.484z"/>
</g>
<path fill="#43C5E6" d="M-388.198,514.646h16.646c0.654-3.221,0.152-6.769-1.553-10.029c-2.646-5.06-7.465-8.204-12.574-8.204
	h-14.233c1.658-11.112-1.691-17.673-4.003-20.731c-2.897-3.824-7.085-6.108-11.203-6.108c-0.001,0-0.001,0-0.002,0
	c-4.268,0-7.37,2.231-8.734,6.282c-0.999,2.966-0.999,6.578-0.999,9.765c0,2.306,0,4.69-0.412,5.898
	c-1.429,4.197-3.944,8-6.728,10.172c-0.108,0.084-0.216,0.161-0.32,0.235c-0.798,0.571-2.459,1.76-2.459,4.351v42.819
	c0,2.938,2.391,5.329,5.33,5.329h36.935c1.997,0,6.914-0.907,9.372-3.72c1.737-1.999,3.01-4.591,3.621-7.212h-9.35
	c-1.657,0-3-1.343-3-3s1.343-3,3-3h11.848c0.249,0,0.487,0.039,0.718,0.096c0.676-1.596,1.101-3.412,1.27-5.444h-14.67
	c-1.657,0-3-1.343-3-3s1.343-3,3-3h15.848c0.278,0,0.542,0.05,0.797,0.121c0.172-0.502,0.323-1.011,0.436-1.523
	c0.289-1.322,0.359-2.711,0.26-4.098h-15.841c-1.657,0-3-1.343-3-3S-389.855,514.646-388.198,514.646z"/>
</svg>
