<?xml version="1.0" encoding="utf-8"?>
<!-- Generator: Adobe Illustrator 23.0.1, SVG Export Plug-In . SVG Version: 6.00 Build 0)  -->
<svg version="1.1" id="Layer_1" xmlns="http://www.w3.org/2000/svg" xmlns:xlink="http://www.w3.org/1999/xlink" x="0px" y="0px"
	 viewBox="0 0 45.9 49.75" style="enable-background:new 0 0 45.9 49.75;" xml:space="preserve">
<style type="text/css">
	.st0{fill:#FFFBF8;}
	.st1{fill:#FFFAF9;}
	.st2{fill:#ED6262;}
	.st3{fill:#EC6A68;}
	.st4{fill:#EF867F;}
	.st5{fill:#F3A096;}
	.st6{fill:#EE726E;}
	.st7{fill:#ED7672;}
	.st8{fill:#ED6365;}
	.st9{fill:#ED6C6A;}
	.st10{fill:#EC5C60;}
	.st11{fill:#FFF6F3;}
	.st12{fill:#EE7F78;}
	.st13{fill:#EF7D77;}
	.st14{fill:#EE6E6A;}
	.st15{fill:#FFF7F4;}
	.st16{fill:#EF817A;}
	.st17{fill:#EC5E60;}
	.st18{fill:#EC5D5F;}
	.st19{fill:#F0867F;}
	.st20{fill:#EA4855;}
	.st21{fill:#F39189;}
	.st22{fill:#EB5A5E;}
	.st23{fill:#EC6B69;}
	.st24{fill:#F6BDB4;}
	.st25{fill:#EC6565;}
	.st26{fill:#F39087;}
	.st27{fill:#ED6363;}
	.st28{fill:#EC6665;}
	.st29{fill:#EE7570;}
	.st30{fill:#EE7F7A;}
	.st31{fill:#EA575C;}
	.st32{fill:#EC6A67;}
	.st33{fill:#EE706D;}
	.st34{fill:#F6B8AF;}
	.st35{fill:#EE7E78;}
	.st36{fill:#F6B3AA;}
	.st37{fill:#F7BBB1;}
	.st38{fill:#EB535A;}
	.st39{fill:#FFF9F7;}
	.st40{fill:#F18B82;}
	.st41{fill:#EE7974;}
	.st42{fill:#EE817B;}
	.st43{fill:#F39B92;}
	.st44{fill:#EE837D;}
	.st45{fill:#F18D84;}
	.st46{fill:#F39D94;}
	.st47{fill:#FCE3DC;}
	.st48{fill:#EB555A;}
	.st49{fill:#FBCAC0;}
	.st50{fill:#F9C4BB;}
	.st51{fill:#FEECE5;}
	.st52{fill:#EC6968;}
	.st53{fill:#EE8079;}
	.st54{fill:#EC5F61;}
	.st55{fill:#EA4754;}
	.st56{fill:#E8354C;}
	.st57{fill:#EA4553;}
	.st58{fill:#EA4654;}
	.st59{fill:#E72949;}
	.st60{fill:#EA3C50;}
	.st61{fill:#E93B4F;}
	.st62{fill:#EA4C57;}
	.st63{fill:#EA525A;}
	.st64{fill:#FDDAD1;}
	.st65{fill:#F39188;}
	.st66{fill:#F9D6CF;}
	.st67{fill:#EC555B;}
	.st68{fill:#EA4E58;}
	.st69{fill:#EA4352;}
	.st70{fill:#E8394F;}
	.st71{fill:#EA4D57;}
	.st72{fill:#E94051;}
	.st73{fill:#E9394E;}
	.st74{fill:#EB5D60;}
	.st75{fill:#ED6464;}
	.st76{fill:#E9304B;}
	.st77{fill:#EB6866;}
	.st78{fill:#E9394D;}
	.st79{fill:#E92D4B;}
	.st80{fill:#E94151;}
	.st81{fill:#EA4252;}
	.st82{fill:#EF857F;}
	.st83{fill:#E8364D;}
	.st84{fill:#EB6A68;}
	.st85{fill:#EB585D;}
	.st86{fill:#EB545B;}
	.st87{fill:#F39C93;}
	.st88{fill:#EB6061;}
	.st89{fill:#EC565C;}
	.st90{fill:#E8334C;}
	.st91{fill:#EB565C;}
	.st92{fill:#F18B83;}
	.st93{fill:#F2958D;}
	.st94{fill:#EB545A;}
	.st95{fill:#E72B49;}
	.st96{fill:#E94252;}
	.st97{fill:#E72C4A;}
	.st98{fill:#F4B1A9;}
	.st99{fill:#ED7671;}
	.st100{fill:#F9D2CA;}
	.st101{fill:#E82C4A;}
	.st102{fill:#EB5D5F;}
	.st103{fill:#E8374D;}
	.st104{fill:#E93A4E;}
	.st105{fill:#EA4453;}
	.st106{fill:#EA3D50;}
	.st107{fill:#E7314B;}
	.st108{fill:#E93B50;}
	.st109{fill:#E83E51;}
	.st110{fill:#E92E4A;}
	.st111{fill:#E93C50;}
	.st112{fill:#E72848;}
	.st113{fill:#E7324C;}
	.st114{fill:#E72E4B;}
	.st115{fill:#E8374E;}
	.st116{fill:#E9324C;}
	.st117{fill:#EA4A56;}
</style>
<g id="XMLID_2_">
	<g id="XMLID_966_">
		<path id="XMLID_1271_" class="st0" d="M27.9,1.6C29.6,2.4,30.7,4,32.3,5c0.5,0.3,1.3,1.9,0.5,3.1c-0.4,0.5-1,0.4-1.5,0.4
			c-2.5,0-5,0.4-7.5,0.8c-0.7,0.2-1.4,0.2-2,0.1c-0.5-0.1-1.1-0.1-1-0.9c0.2-0.5,0.7-0.8,1.1-1c0.4-0.2,0.7-0.3,1.1-0.4
			C23.8,7,24.5,6.6,25.1,6c0.2-0.2,0.3-0.3,0.5-0.4c0.6-0.3,1-0.8,1.6-1.1C28,4.2,28,3.6,27.9,2.9C27.9,2.5,27.5,2,27.9,1.6z"/>
		<path id="XMLID_1270_" class="st1" d="M23.6,9.1c3-0.9,6.1-1,9.2-1S38.9,8,42,8.4c0.6,0.1,1.2,0.2,1.6,0.7
			c-0.1,0.1-0.1,0.1-0.2,0.2c-0.3,0.2-0.6,0.1-1,0.1c-0.5-0.1-1-0.1-1.5-0.1c-3.3,0-6.5-0.1-9.8-0.1c-1.7-0.2-3.4,0.1-5.2,0.3
			c-0.8,0.1-1.5,0.3-2.2-0.1C23.7,9.2,23.7,9.1,23.6,9.1z"/>
		<path id="XMLID_1269_" class="st2" d="M4,28.6c1.4-1.5,3.2-2.5,4.9-3.5C9,25,9.2,25,9.3,25.1C9.4,26,8.9,26.6,8.1,27
			c-0.8,0.4-1.4,0.9-2,1.5c-0.3,0.3-0.6,0.6-0.3,1.1c0.3,0.5,0.4,1,0.1,1.5c-0.2,0.3-0.5,0.6-0.8,0.9c-0.4,0.3-0.7,0.7-1.3,0.3
			C2.8,30.9,3.9,29.8,4,28.6z"/>
		<path id="XMLID_1268_" class="st3" d="M33.5,19.5c1.9-0.3,3.8-0.6,5.7-0.9c1.3-0.2,2.6-0.2,3.7,0.5c0.2,0.3,0.3,0.5,0.3,0.9
			c0,0.2-0.1,0.3-0.2,0.4c-0.1,0.1-0.3,0.2-0.4,0.2c-0.5,0-0.9-0.3-1.3-0.5c-0.1-0.1-0.2-0.2-0.4-0.2c-0.5-0.6-1.1-0.5-1.7-0.4
			c-0.5,0.1-1.1-0.1-1.6,0.2c-0.2,0.1-0.3,0.3-0.5,0.4c-0.1,0.1-0.2,0.2-0.4,0.2c-1-0.2-1.9-0.2-2.9,0.1c-0.2,0.1-0.4,0.1-0.6,0.2
			c-0.7,0.4-1.3,0.9-2.2,0.6c-0.1,0-0.3-0.1-0.4-0.1c-0.1-0.1-0.2-0.2-0.3-0.3c0.1-0.4,0.4-0.6,0.8-0.8
			C31.9,19.4,32.8,19.9,33.5,19.5z"/>
		<path id="XMLID_1267_" class="st4" d="M10,21.2c-2.2,1.1-4.5,1.8-6.8,2.5C2,24.1,1,23.5,0.4,22.3c-0.8-1.5-0.3-2.7,0.7-3.8
			c0.6,1.1-0.3,2.5,0.8,3.4c0.3,0.4,0.8,0.5,1.2,0.6c0.8,0.2,1.4-0.3,2.1-0.5c1-0.2,1.8-0.7,2.8-0.9C8.6,21,9.3,20.6,10,21.2z"/>
		<path id="XMLID_1266_" class="st5" d="M29.8,47.9c-0.8,1.4-2.7,2.2-4.4,1.7c-1.3-0.4-2.3-2.2-2-3.8c0.1-0.7,0.2-1.4,0.8-1.9
			c0.7,0.5,0.2,1.3,0.5,1.9c0.3,0.7,0.6,1.3,0.9,2c0.7,1.1,1.6,1.1,2.6,0.5C28.7,48.1,29.1,47.5,29.8,47.9z"/>
		<path id="XMLID_1265_" class="st6" d="M10,21.2c-1.8-0.1-3.2,1.2-5,1.3c0.1-1.1,1-1.4,1.9-1.6c0.6-0.1,1.3-0.2,1.8-0.5
			c0.6-0.3,1.1-0.8,1.8-1c0.7-0.1,1.3,0.1,2-0.1c0.5-0.1,1-0.1,1.5-0.4c0.4-0.2,0.7-0.3,1.1-0.3c0.3,0,0.6,0,0.9,0.2
			c0.1,0.1,0.2,0.3,0.1,0.4c-0.3,0.3-0.8,0-1.1,0.3C13.3,19.8,11.8,20.8,10,21.2z"/>
		<path id="XMLID_1264_" class="st7" d="M7,4.8c1.3-0.7,2.9-0.7,4.2-1.3c2.5-1,5.3-0.9,7.9-1.3c0.5,0,1,0,1.5,0
			C21,2,21.4,1.8,21.9,2.1c0.2,1-0.6,0.7-1.1,0.9c-0.4,0-0.7,0.2-1.1,0.3c-0.1,0-0.3,0-0.4,0c-0.5-0.1-1,0-1.4,0.1S17,3.5,16.6,3.6
			c-1.3,0.1-2.5,0.2-3.7,0.8c-0.5,0.2-1,0.4-1.5,0.4c-1.1-0.1-2.2,0.1-3.2,0.5C7.8,5.4,7.4,5.4,7.2,5C7.1,5,7,4.9,7,4.8z"/>
		<path id="XMLID_1263_" class="st8" d="M17.7,33.2c-2.4,1-4.7,2-7.1,3c-0.2,0.1-0.4,0.2-0.6,0.1c-0.1-0.1-0.2-0.2-0.2-0.4
			c0.2-0.3,0.5-0.4,0.8-0.6c0.2-0.1,0.3-0.2,0.5-0.4c0.3-0.2,0.6-0.5,0.8-0.7c0.1-0.1,0.2-0.1,0.3-0.2c0.4,0.1,0.5-0.4,0.7-0.5
			c1.6-0.2,3-1.2,4.5-1.6c0.4-0.1,0.7-0.3,1.1-0.2c0.1,0.1,0.2,0.3,0.2,0.4C18.7,32.9,18.5,33.4,17.7,33.2z"/>
		<path id="XMLID_1262_" class="st9" d="M32.4,34.2c3-0.8,4.7-0.1,5.4,2.2c0.5,1.8,0,3.1-1.7,4.2c-0.5-0.5-0.1-0.9,0.1-1.3
			c1.1-2.8,0.1-4.3-2.9-4.6c-0.3,0-0.5-0.1-0.7-0.2C32.5,34.3,32.5,34.2,32.4,34.2z"/>
		<path id="XMLID_1261_" class="st10" d="M33.1,34.3c1.5-0.3,2.8,0.2,3.5,1.4c0.7,1.2,0.7,2.7-0.2,4c-0.2,0.3-0.3,0.6-0.3,0.9
			c-0.2,0.2-0.5,0.4-0.7,0.5c-0.1,0.1-0.2,0.1-0.4,0c0.4-0.9-0.3-2.2,1-3c0.3-0.2-0.2-1.4-0.9-2C34.4,35.5,33.5,35.1,33.1,34.3z"/>
		<path id="XMLID_1260_" class="st11" d="M27.9,1.6c0.1,1.2,1.6,2.6-0.7,3.3c-0.3-0.2-0.3-0.5-0.3-0.9c0-1.4-0.6-2.2-2-2.3
			c-0.2,0-0.4-0.1-0.6-0.3c0.8-1.7,1.4-1.8,2.6-0.6C27.2,1.1,27.4,1.6,27.9,1.6z"/>
		<path id="XMLID_1259_" class="st12" d="M24.3,42.7c-1.2,0.6-2.5,0.5-3.7,0.3c-0.6-0.1-1.2-0.5-1.7-0.4c-1.6,0.3-2-0.7-2.4-1.9
			c0.2-0.2,0.4-0.3,0.6-0.3s0.5,0.1,0.6,0.2c0.4,0.3,0.6,0.8,1.1,0.9c0.6,0.2,1.3,0.1,1.9,0c1.2,0.3,2.3,0.5,3.5,0.7
			c0.1,0.1,0.1,0.2,0.1,0.3C24.3,42.6,24.3,42.7,24.3,42.7z"/>
		<path id="XMLID_1258_" class="st13" d="M25.3,47.9c-0.3-0.7-0.7-1.3-1-2c0.7-0.3,1.3,0.4,2,0c0.3,0.4,0.4,0.9,0.9,1.1
			c0.3,0.2,0.6,0.3,1,0.2c0.7-0.1,1.3-0.5,1.9-0.9c0.3-0.1,0.5-0.3,0.8-0.1c0,0.8-0.9,0.9-1.1,1.6c-0.5,0.2-1.1,0.4-1.6,0.7
			C27.2,48.5,26.1,49,25.3,47.9z"/>
		<path id="XMLID_1257_" class="st14" d="M42.9,20.5c0-0.1,0-0.2,0-0.4c1.1-0.4,1.2,0.5,1.4,1.1c0.5,1.8-0.3,3.1-1.7,4.2
			c-1,0.4-1.8,1-3,0.9c-0.1-0.1-0.1-0.3,0-0.4c0.4-0.6,1.2-0.6,1.8-1C43,23.9,43.1,22.2,42.9,20.5z"/>
		<path id="XMLID_1256_" class="st15" d="M19.2,2.3c-2.6,0.6-5.3,0.9-7.9,1.3c1.3-0.8,2.5-2.1,4.3-1c0.1,0,0.3,0,0.3,0
			C16.8,1,18.1,2.4,19.2,2.3z"/>
		<path id="XMLID_1255_" class="st16" d="M24.3,1.4c0.2,0,0.3-0.1,0.5-0.1c2.2,0.9,2.7,2.1,1.4,3.9c-0.2,0.1-0.3,0-0.4-0.1
			c-0.3-0.4-0.3-1-0.6-1.5c-0.4-1.2-1.3-1.4-2.4-1.2c-0.1,0-0.3,0-0.4,0c-0.1,0-0.3-0.1-0.4-0.2c-0.5,0-0.9,0-1.4,0
			C20.7,2.1,20.8,2,21,1.9c0.5-0.4,1.1-0.4,1.6-0.3C23.2,1.5,23.8,1.7,24.3,1.4z"/>
		<path id="XMLID_1254_" class="st0" d="M43.6,9.1c1.5,0.4,2.3,1.5,2.3,3.4c0,2.1-0.8,3-3,3.5c0.2-1.1,1.8-1.4,1.8-2.7
			C45.4,11.6,44.1,10.5,43.6,9.1L43.6,9.1z"/>
		<path id="XMLID_1253_" class="st17" d="M30.9,46.3c-0.2,0.1-0.5,0.2-0.7,0.3c-0.1-0.1-0.2-0.2-0.2-0.4c-0.1-0.9,1-1.3,0.8-2.2
			c0.5-0.6,1.1-1.1,1.5-1.8c0.2-0.3,0.5-0.6,0.9-0.7c0.4,0,0.8,0.1,1,0.5C32.8,43.3,32.1,45,30.9,46.3z"/>
		<path id="XMLID_1252_" class="st18" d="M1.7,22.1c-1.5-1-0.8-2.4-0.7-3.6c0.3-0.5,0.4-1,1-1.3c0.1,0.5,0.2,0.9,0.5,1.3
			c0.2,0.7-0.5,1.3-0.3,2c-0.1,0.6,0.7,1.2,0.1,1.8C2.1,22.3,1.9,22.3,1.7,22.1z"/>
		<path id="XMLID_1251_" class="st19" d="M9.9,36.2c0.2,0,0.5,0,0.7,0c-0.6,0.7-1.4,1-2.3,1.3c-0.9,0.4-1.8,0.5-2.8,0.3
			c-0.2,0-0.3-0.1-0.4-0.2c-0.4-0.4-0.5-1.1-1.1-1.4c-0.1-0.1-0.2-0.2-0.2-0.4C3.7,35.4,3.7,35,4,34.7c0.6,0,1.1-0.2,1.3,0.8
			c0.2,1.1,1.4,0.8,2.3,0.9C8.4,36.5,9.1,35.9,9.9,36.2z"/>
		<path id="XMLID_1250_" class="st20" d="M39.6,26.1c0,0.1,0,0.2,0,0.3c-0.1,0.1-0.2,0.2-0.3,0.4c-0.9,0.4-1.8,0.9-2.7,1.2
			c-0.4,0.2-0.9,0.1-1.3-0.2c-0.3-0.6-0.2-1,0.3-1.5c1.1-0.6,2.3-1,3.5-0.8C39.4,25.6,39.6,25.8,39.6,26.1z"/>
		<path id="XMLID_1249_" class="st21" d="M42.6,25.4c0.9-1.1,1.9-2.3,1.4-3.9c-0.2-0.6-0.2-1.3-1.1-1.4c0-0.3,0-0.7,0-1
			c1.4,0.5,2,1.6,1.9,3C44.8,23.7,44.1,24.9,42.6,25.4z"/>
		<path id="XMLID_1248_" class="st22" d="M13.5,22.1c0.8-1,2.1-1.3,3-2.2c0.1-0.2,0.3-0.5,0.5-0.6c0.3-0.2,0.6-0.4,0.9-0.5
			c0.2,0,0.3,0.1,0.3,0.2c0.1,0.6-0.3,1-0.6,1.4c-0.2,0.2-0.5,0.4-0.7,0.5c-1,0.7-2.1,1.1-2.8,2.3c-0.4,0.7-1.2,0.7-1.7-0.1
			C12.4,22.4,13.3,22.6,13.5,22.1z"/>
		<path id="XMLID_1247_" class="st23" d="M39.7,16c-2.5,0.9-5,1.7-7.3,3.1c-0.2,0.4-0.5,0.3-0.8,0.2c-0.1-0.1-0.2-0.2-0.2-0.4
			c0.1-0.3,0.3-0.5,0.6-0.7c0.9-0.4,1.7-0.8,2.5-1.3c1.2-0.6,2.5-0.8,3.8-1.3C38.8,15.5,39.3,15.5,39.7,16z"/>
		<path id="XMLID_1246_" class="st24" d="M7.9,37.8c-2.5,1.4-4.7,0.5-5.2-2.3c0.1-0.1,0.2-0.1,0.4-0.1c0.5,0.1,0.7,0.4,0.9,0.8l0,0
			c0.5,0.3,0.6,0.9,1,1.3l0,0C6,37.9,7,37.4,7.9,37.8z"/>
		<path id="XMLID_1245_" class="st22" d="M2.4,18.6c-0.5-0.4-0.5-0.8-0.3-1.3c0-0.5,0.2-0.8,0.7-1c0.6,0,0.7-0.9,1.4-0.8
			c0.1,0,0.3,0.1,0.4,0.2c0.1,0.4,0.1,0.9,0,1.3c-0.1,0.1-0.1,0.3-0.2,0.4c-0.2,0.5-0.1,1.1-0.7,1.4C3.2,18.9,2.8,18.9,2.4,18.6z"/>
		<path id="XMLID_1244_" class="st25" d="M35.4,27.7c0.4,0,0.9,0,1.3,0c0.2,0.1,0.2,0.2,0,0.4c-0.9,1.2-2.3,1.7-3.5,2.3
			c-0.2,0.1-0.5,0.1-0.7,0.1c-0.3-0.8,0.4-1.1,0.9-1.4s1-0.3,1.3-0.9C34.9,27.9,35,27.6,35.4,27.7z"/>
		<path id="XMLID_1243_" class="st26" d="M6.3,5.1C6.5,5,6.8,4.9,7,4.8l0.1,0.1c0.8,0.7,0.1,1.7,0.5,2.4c0.1,0.6,1.3,0.6,0.9,1.5
			C7.2,9.2,6.3,8.7,5.9,7.4C5.8,7.2,5.8,7.1,5.7,6.9C5.6,6.2,5.9,5.7,6.3,5.1z"/>
		<path id="XMLID_1242_" class="st27" d="M18.7,32.2c0-0.1,0-0.2,0-0.3c0.1-0.1,0.1-0.1,0.2-0.2c0.4-0.2,0.8,0,1.1,0.3
			c0.1,0.2,0.3,0.4,0.3,0.7c0.1,0.9-0.5,1.5-1.1,2c-0.7,0.1-1.1,1.4-2.1,0.8c-0.2-0.5,0.3-0.7,0.3-1.1c0.2-0.3,0.3-0.6,0.5-0.8
			C18.3,33.3,19.1,33.1,18.7,32.2z"/>
		<path id="XMLID_1241_" class="st28" d="M8.3,11.3c0.9-1.1,2.2-1.7,3.3-2.5c0.1-0.1,0.2-0.2,0.3-0.3c0.1,0,0.3,0,0.4,0
			c0.1,0.1,0.2,0.2,0.3,0.3c0.1,0.3,0,0.6-0.3,0.8c-0.2,0.2-0.5,0.3-0.8,0.4s-0.5,0.1-0.6,0.4c-0.1,0.1-0.2,0.2-0.3,0.3
			c-0.5,0.2-0.9,0.5-1.2,0.9c-0.3,0.3-0.5,0.5-0.9,0.6c-0.2,0-0.3-0.1-0.4-0.2C8.1,11.7,8.1,11.5,8.3,11.3z"/>
		<path id="XMLID_1240_" class="st29" d="M17.4,34.4c0.1,0.4-0.1,0.7-0.3,1.1c0.2,0.8-0.2,1.4-0.7,2.1c-0.3,0.4-0.6,0.9-0.8,1.3
			c-0.2,0.2-0.3,0.3-0.6,0.2c-0.4-0.3-0.5-0.6-0.3-1.1C15.5,36.8,16.3,35.5,17.4,34.4z"/>
		<path id="XMLID_1239_" class="st30" d="M4,28.6c0.3,1.2-0.7,2.5,0,3.7c0.3,0.6,0.6,1.2,0.4,2c-0.4,0.3-0.7,0.3-1.1,0
			c-0.3-0.5-0.2-1-0.3-1.5c0-0.2,0-0.3,0-0.5c-0.1-1,0-2,0.4-2.9C3.5,29,3.7,28.7,4,28.6z"/>
		<path id="XMLID_1238_" class="st31" d="M29.5,34.2c1,0,1.9,0,2.9-0.1c0,0.1,0,0.1,0,0.2c0,0.9-1,0.7-1.3,1.3
			c-0.1,0.1-0.3,0.1-0.4,0.2c-0.2,0-0.3,0-0.4,0c-0.5-0.1-1-0.4-1.5-0.5c-0.5-0.2-1.3,0.1-1.3-0.8C28.1,33.9,28.9,34.7,29.5,34.2z"
			/>
		<path id="XMLID_1237_" class="st32" d="M26.2,46c-0.7,0.8-1.3,0.2-2,0c-0.3-0.7,0.2-1.4-0.1-2c0.1-0.3,0.1-0.6,0.4-0.7
			c0.1,0.1,0.2,0.2,0.3,0.3c0.2,0.4,0.3,0.9,0.7,1.2c0.2,0.4,0.7,0.4,0.9,0.8C26.4,45.7,26.3,45.9,26.2,46z"/>
		<path id="XMLID_1236_" class="st33" d="M10.6,8.4c-0.2,0.1-0.4,0.2-0.7,0.3C9.7,8.5,9.7,8.2,9.8,7.9c0.7-0.8,1.8-0.9,2.8-1
			c0.9-0.1,1.5,0.4,1.4,1.5c-0.4,0.6-0.8,0.7-1.4,0.3V8.6c-0.2-0.4-0.5-0.6-1-0.4C11.2,8.3,10.9,8.1,10.6,8.4z"/>
		<path id="XMLID_1235_" class="st23" d="M13.5,22.1c0,0.6-0.7,0.6-0.9,1.1c-0.6,1.4-1.8,2.1-3.3,2c-0.1,0-0.3,0-0.4-0.1
			C10.4,24,11.8,22.8,13.5,22.1z"/>
		<path id="XMLID_1234_" class="st30" d="M44.9,13.4c0,1.4-1.3,1.7-2.1,2.5c-0.9,0-1.9,0-2.8,0.1c-0.1-0.1-0.1-0.2-0.1-0.3
			c0-0.1,0-0.1,0.1-0.1c0.3-0.3,0.7-0.3,1.1-0.3c0.4,0,0.7-0.1,1-0.2c0.4-0.1,0.8-0.3,1.1-0.6c0.6-0.2,0.6-1.1,1.4-1.2
			C44.7,13.2,44.8,13.2,44.9,13.4z"/>
		<path id="XMLID_1233_" class="st34" d="M3.4,32.3c0,0.1,0,0.2,0,0.3c-0.6,0.9,0.4,2-0.3,3c-0.1,0-0.2,0-0.4,0
			c0.1-1.6-0.7-3.3,0-4.9C3.2,31.1,2.9,31.8,3.4,32.3z"/>
		<path id="XMLID_1232_" class="st7" d="M8.3,11.3c0,0.2,0,0.5,0,0.7c0.1,0.5-0.3,0.8-0.5,1.1c-0.2,0.2-0.5,0.4-0.7,0.5
			c-0.4,0.1-0.7,0.3-1.1,0C6.5,12.6,7.2,11.8,8.3,11.3z"/>
		<path id="XMLID_1231_" class="st14" d="M9.9,8.1c0,0.2,0,0.4,0,0.6c-0.2,0-0.4,0.1-0.6,0.1C9.1,8.9,8.8,9,8.6,8.7
			C8,8.4,7.5,8.1,7.3,7.4C7.2,7.1,7.4,7,7.6,6.9C8.5,7.1,9.2,7.6,9.9,8.1z"/>
		<path id="XMLID_1230_" class="st6" d="M31.2,31.6c-0.9,0.8-1.8,1.5-2.6,2.3c-0.1,0.1-0.3,0.1-0.4,0c0-0.1-0.1-0.1-0.1-0.2
			s0-0.1,0-0.2c0.3-0.6,0.8-1.1,1.3-1.5c0.4-0.3,0.8-0.7,1.4-0.6C31,31.4,31.1,31.5,31.2,31.6z"/>
		<path id="XMLID_1229_" class="st35" d="M15.2,39.1c0.1-0.1,0.2-0.2,0.3-0.3c0.2-0.2,0.4-0.2,0.6-0.1c0.1,0.1,0.2,0.2,0.3,0.3
			c0.1,0.5,0.5,0.7,0.8,0.9c0.4,0.3,0.4,0.6,0,0.8c-0.2,0-0.5,0-0.7,0c-0.2-0.1-0.4-0.2-0.7-0.3C15.5,40,14.6,39.9,15.2,39.1z"/>
		<path id="XMLID_1228_" class="st36" d="M8.6,8.7c0.2,0,0.4,0.1,0.7,0.1c-1,0.5-2,0.8-3,0C6.1,8.3,5,7.9,6,7.1
			C6.6,8.1,7.1,9.3,8.6,8.7z"/>
		<path id="XMLID_1227_" class="st37" d="M6,7.1C5.5,7.8,6.5,8.2,6.3,8.8c-1.4-0.9-1.5-2-0.6-3.3C6.1,6,5.6,6.6,6,7.1L6,7.1z"/>
		<path id="XMLID_1226_" class="st38" d="M5.9,13.6c0.4-0.1,0.7-0.2,1.1-0.3c-0.1,1.1-1.2,1.4-1.7,2.2c-0.3,0.2-0.5,0.3-0.9,0.1l0,0
			c-0.2-0.2-0.2-0.4,0-0.7C4.9,14.5,5.4,14.1,5.9,13.6z"/>
		<path id="XMLID_1225_" class="st39" d="M31.5,19.3c0.3,0,0.6-0.1,0.9-0.1c0.2,0.5,0.7,0.4,1.1,0.4c-0.7,0.4-1.5,0.6-2.3,0.7
			c-0.3,0.2-0.6,0.2-0.8-0.2c0-0.3,0.1-0.4,0.2-0.6C30.9,19.3,31.2,19.2,31.5,19.3z"/>
		<path id="XMLID_1224_" class="st40" d="M3.4,32.3c-1-0.3-0.4-1.1-0.6-1.7c0.1-0.5,0.2-1,0.7-1.3C3.4,30.3,3.4,31.3,3.4,32.3z"/>
		<path id="XMLID_1223_" class="st41" d="M36.7,28.1c0-0.1,0-0.3,0-0.4c0.9-0.4,1.6-1,2.6-1C38.6,27.5,37.7,27.9,36.7,28.1z"/>
		<path id="XMLID_1222_" class="st18" d="M34.2,42.1c-0.4-0.1-0.7-0.2-1.1-0.4c-0.1-0.5,0.3-0.6,0.5-0.9c0.5-0.3,1-0.3,1.4,0.2
			c0.1,0,0.2,0,0.3,0C35,41.4,34.6,41.7,34.2,42.1z"/>
		<path id="XMLID_1221_" class="st42" d="M18.7,32.2c0.4,0.1,0.7,0.2,0.5,0.7c-0.3,0.6-0.7,1-1.4,0.6c0-0.1-0.1-0.2-0.1-0.4
			C18.2,33,18.5,32.7,18.7,32.2z"/>
		<path id="XMLID_1220_" class="st43" d="M15.2,39.1c-0.1,0.6,0.5,0.9,0.6,1.3c-1.5-0.3-1.5-1.2-1-2.4C14.9,38.4,15,38.8,15.2,39.1z
			"/>
		<path id="XMLID_1219_" class="st44" d="M4.4,14.9c0,0.2,0,0.4,0,0.7c-0.7-0.2-0.7,1.4-1.6,0.7C3.2,15.7,3.6,15.1,4.4,14.9z"/>
		<path id="XMLID_1218_" class="st33" d="M31.2,31.6c-0.1,0-0.3,0-0.4,0c0.1-1,0.7-1.4,1.7-1.3c0.2,0,0.5,0,0.7,0
			C32.5,30.8,31.9,31.2,31.2,31.6z"/>
		<path id="XMLID_1217_" class="st11" d="M22.7,1.6c-0.5,0.3-1.1,0.4-1.6,0.3C21.3,0.5,22,1.2,22.7,1.6z"/>
		<path id="XMLID_1216_" class="st45" d="M7.9,37.8c-1-0.1-2,0.3-2.9-0.3c1.1,0,2.2,0,3.3,0C8.2,37.6,8.1,37.7,7.9,37.8z"/>
		<path id="XMLID_1215_" class="st36" d="M6,7.1C5.5,6.6,5.8,6,5.7,5.5c0.1-0.3,0.4-0.4,0.6-0.4C6.2,5.8,6.1,6.5,6,7.1z"/>
		<path id="XMLID_1214_" class="st46" d="M28.2,33.9c0.1,0,0.2,0,0.4,0c0.2,0.4,0.6,0.2,1,0.3c-0.6,0.5-1.3,0.3-1.9,0.3
			C27.5,34,27.7,33.8,28.2,33.9z"/>
		<path id="XMLID_1213_" class="st47" d="M17.1,19.5c-0.2,0.1-0.4,0.3-0.6,0.4c-0.3-0.5-0.9-0.2-1.3-0.3c0.2-0.3,0.6-0.3,0.9-0.3
			C16.5,19,16.9,18.8,17.1,19.5z"/>
		<path id="XMLID_1212_" class="st48" d="M40,15.6c0,0.1,0,0.2,0,0.3h-0.1h-0.1c-0.6,0-1.1,0-1.7,0c0-0.1,0-0.2,0-0.3
			C38.7,15.1,39.3,15.1,40,15.6z"/>
		<path id="XMLID_1211_" class="st49" d="M10.6,8.4c0.3-0.3,0.6-0.3,1-0.3c0.2-0.2,0.5-0.2,0.6,0.1c0.1,0.3-0.1,0.5-0.3,0.6
			c-0.1,0-0.2,0-0.3,0C11.4,8.4,10.9,8.5,10.6,8.4z"/>
		<path id="XMLID_1210_" class="st50" d="M24.3,42.7c0-0.1,0.1-0.2,0.1-0.3c0.3-0.3,0.6-0.3,0.8-0.1c0.3,0.3,0.1,0.7-0.1,1
			c-0.1,0.1-0.3,0.2-0.5,0.1c0-0.1,0-0.1,0-0.2C24.5,43.1,24.4,42.9,24.3,42.7z"/>
		<path id="XMLID_1209_" class="st51" d="M26,5.2c1.1-1.8,0.9-2.4-1.1-3.9c2.1,0.2,2.7,1.1,2.4,3.5c-0.6,0.2-0.9,1-1.6,1
			C25.4,5.5,25.6,5.3,26,5.2z"/>
		<path id="XMLID_1208_" class="st52" d="M21.9,7.7c-0.3,0.2-0.6,0.5-0.9,0.7c-0.7,0.5-1.4,1.1-2.3,1.3c-0.3,0-0.6,0-0.9-0.2
			c-0.3-0.8,0.4-0.9,0.7-1.3c0.9-0.5,1.9-0.8,2.9-1.2C21.9,7.1,21.9,7.4,21.9,7.7z"/>
		<path id="XMLID_1207_" class="st1" d="M18.7,9.4c0.8-0.3,1.4-0.9,2.3-1c-0.1,0.3-0.2,0.7,0.3,0.7c0.8,0,1.5,0,2.3,0l0.1,0.1
			c0.1,0.2,0,0.4-0.2,0.5c-1,0.3-2.1,0.4-3.2,0.6C19.7,10.1,18.9,10.4,18.7,9.4z"/>
		<path id="XMLID_1206_" class="st53" d="M21.9,7.7c-0.1-0.2-0.1-0.4-0.2-0.6c0.1-0.2,0.2-0.4,0.4-0.5c0.6-0.1,1.2-0.7,1.9-0.1
			c0,0.8-0.7,0.7-1.1,0.9C22.6,7.5,22.2,7.6,21.9,7.7z"/>
		<path id="XMLID_1205_" class="st1" d="M22.9,7.4c0.4-0.3,0.7-0.6,1.1-0.9c0.1-0.3,0.4-0.4,0.7-0.5c0.2,0,0.4,0,0.6,0.1
			C24.7,7.1,24,7.5,22.9,7.4z"/>
		<path id="XMLID_1204_" class="st16" d="M25.3,6.1c-0.2,0-0.4,0-0.6,0c0-0.1-0.1-0.1-0.1-0.2c0.1-0.5,0.4-0.8,0.9-1
			c0.2,0,0.3,0,0.4,0.1L26,5.1c-0.1,0.2-0.2,0.4-0.3,0.6C25.5,5.9,25.4,6,25.3,6.1z"/>
		<path id="XMLID_1203_" class="st48" d="M31.2,8.7c3.3-0.2,6.7-0.1,10,0.1c0,0.2,0,0.3-0.2,0.4c-0.9,0.4-2,0.4-3,0.5
			c-1.1,0-2.1,0.3-3.1,0.5c-0.5,0.1-0.6-0.8-1.2-0.6c-0.1,0-0.3,0.1-0.4,0.1c-0.9-0.3-1.9,0.1-2.7-0.5C30.7,8.9,30.7,8.5,31.2,8.7z"
			/>
		<path id="XMLID_1202_" class="st30" d="M43.5,9.1c1.4,1.1,2.2,2.4,1.4,4.2l-0.1-0.1c-0.4-0.2-0.8-0.4-1.1-0.7
			c-0.1-0.1-0.2-0.2-0.2-0.4c0-0.1,0-0.1,0-0.2c0.1-0.1,0.1-0.3,0.2-0.4c0.4-0.8-0.2-1.1-0.7-1.6c-0.3-0.2-0.5-0.3-0.5-0.7
			c0-0.2,0.1-0.3,0.2-0.4C42.9,9.1,43.2,9.1,43.5,9.1z"/>
		<path id="XMLID_1201_" class="st54" d="M31.2,8.7c-0.3,0.1-0.4,0.4-0.4,0.7c-0.8,0.7-1.8,0-2.6,0.1c-1.1,0-2.1,0.2-3.2,0.4
			c-0.2,0-0.3,0-0.5,0c-0.4-0.1-0.8-0.2-1-0.6c0-0.1,0.1-0.2,0.1-0.2c1.9-0.2,3.8-0.3,5.6-0.5C30,8.5,30.6,8.4,31.2,8.7z"/>
		<path id="XMLID_1200_" class="st32" d="M42.6,9c0,0.1,0,0.3,0,0.4c-0.4,0.4-0.8,0.1-1.2-0.2c0-0.1-0.1-0.1-0.1-0.2s0-0.2,0-0.3
			C41.7,8.7,42.2,8.7,42.6,9z"/>
		<path id="XMLID_1199_" class="st55" d="M9.3,25.1c1.2-0.4,2.3-1,3.3-2c0.5,0.2,1.2,0.6,1.3-0.1c0.4-1.6,2-1.5,2.9-2.5
			c0.3,0.2,0.5,0.5,0.5,0.9c0,0.1,0,0.3-0.1,0.4c-0.4,0.2-0.3,0.6-0.5,0.9c-0.5,0.9-1.4,0.9-2.1,1.2c-0.1,0.1-0.2,0.2-0.3,0.3
			c-0.3,1.3-1.6,0.7-2.2,1.2c-0.5,0.6-0.8,1.3-1.8,0.8c-0.5-0.2-0.6,0.4-0.8,0.6c-0.3,0.4-0.7,0.5-1.2,0.6c-0.6,0.3-0.8,1.4-1.8,1.1
			c-0.2,0-0.3-0.1-0.4-0.3C6,27.3,7,26.8,7.3,26.7C8.4,26.7,8.7,25.8,9.3,25.1z"/>
		<path id="XMLID_1198_" class="st56" d="M5,31.6c0.2-0.2,0.4-0.4,0.7-0.6c0.1-0.1,0.2-0.1,0.4,0c0.4,2.1,0.6,2.2,2.9,2.1
			c0.6,0.2,1.3,0.3,1.2,1c-0.1,0.7-0.9,0.7-1.4,0.8c-0.4,0-0.7-0.1-1.1,0C7.6,35,7.4,35,7.3,35.1c-0.4,0.1-0.7,0-1-0.4
			c0.1-0.5-0.1-0.6-0.5-0.6C5.7,34,5.5,34,5.4,33.9C5.1,33.1,4.9,32.4,5,31.6z"/>
		<path id="XMLID_1197_" class="st57" d="M5,31.6c0.6,0.7,0.5,1.5,0.7,2.3c0,0.4,0,1-0.5,1c-0.6,0.1-0.6-0.6-0.8-1
			C4,33.4,4,32.8,4.1,32.3C4.4,32,4.7,31.8,5,31.6z"/>
		<path id="XMLID_1196_" class="st58" d="M6,31c-0.1,0-0.2,0-0.3,0c0.3-0.5,0.2-1.1-0.1-1.3c-1-0.9-0.3-1.1,0.4-1.3
			c0.1,0,0.2,0,0.3,0c0.3,0.3,0.6,0.6,0.9,0.7c0.6,0.3,0.5,0.7,0.2,1.1C7.1,30.6,6.9,31.4,6,31z"/>
		<path id="XMLID_1195_" class="st59" d="M39.3,25.7c-1.3-0.1-2.4,0.6-3.6,0.7c-0.2,0.2-0.4,0.2-0.6,0.2c-0.8-0.4-1.6-0.2-2.4,0.2
			c-0.1,0.1-0.3,0.1-0.4,0.2c-1.4,0.7-3.1,0.4-4.2,1.7c-0.1,0.1-0.3,0.1-0.4,0c-0.2-0.9-0.6-1.7-0.6-2.6c0.1-0.3,0.4-0.5,0.6-0.7
			c0.4-0.5,0.8-1,1.5-0.9c0.2,0,0.3,0.1,0.4,0.1c0.5,0.4,0.4,0.8,0,1.2c0.8-0.3,0.8-1,0.8-1.7c0.2-0.4,0.6-0.6,1-0.9
			c1-1.4,2.8-1.6,4-2.6c0.5-0.4,1.2-0.1,1.7-0.4c0-0.1,0-0.2,0-0.3c0.8-0.4,1.6-0.1,2.4-0.4c0.5,0.5,1.3-0.1,1.9,0.4l0,0
			c1,1.3,0.3,2.8,0.5,4.2C41.9,24.9,40.5,25.6,39.3,25.7z"/>
		<path id="XMLID_1194_" class="st60" d="M35.4,20.8c-1.1,1.1-2.9,1.3-3.9,2.6c-0.4,0.2-0.8,0.3-1.2,0.2c-1-0.2-1.2,0.3-1.1,1.1
			c-0.7,0-1,0.5-1.3,1c-0.4,0.1-0.9,0.5-1-0.3c0.4-0.5,0.5-1,0.5-1.6c0.1-0.3,0.2-0.6,0.3-0.8c0.5-1.5,1.9-1.6,3.1-2
			c0.1,0,0.2,0,0.3,0c1.1,1,1.6,0.3,2-0.7c0.2,0,0.4,0,0.6,0C34.2,20.7,35.3,19.4,35.4,20.8z"/>
		<path id="XMLID_1193_" class="st61" d="M39.3,25.7c0.4-0.4,1-0.5,1.5-0.9c0.5-0.5,0.8-0.9,0.6-1.8c-0.3-1-0.1-2.1-0.1-3.2
			c0.6,0,0.8,0.5,1.3,0.7c0.9,1.9-0.1,3.4-1,4.9c-0.7,0.2-1.3,0.4-2,0.7C39.5,25.9,39.4,25.8,39.3,25.7z"/>
		<path id="XMLID_1192_" class="st62" d="M41.6,25.4c0.8-1.5,1-3.2,1-4.9c0.1,0,0.2,0,0.3,0C44.1,22.6,43.1,24,41.6,25.4z"/>
		<path id="XMLID_1191_" class="st31" d="M30.8,20.9c-0.8,1-2.4,0.9-3,2.2c-0.4,0.1-0.9,0.1-1.3,0.2c-0.3,0-0.6-0.2-0.7-0.5
			c0-0.1,0-0.3,0.1-0.4c0.4-0.3,0.9-0.4,1.3-0.7c0.4-0.2,0.9-0.4,1.3-0.7c0.3-0.1,0.7-0.3,1.1-0.4c0.3-0.1,0.6-0.1,0.9,0.2
			C30.6,20.8,30.7,20.9,30.8,20.9z"/>
		<path id="XMLID_1190_" class="st63" d="M35.4,20.8c-0.3-0.2-0.5-0.7-1.1-0.3c-0.4,0.3-0.4,0.3-0.6-0.4c1.1-0.5,2.2-0.5,3.3,0
			C36.6,20.6,36,20.7,35.4,20.8z"/>
		<path id="XMLID_1189_" class="st63" d="M33.1,20.2c0.1,0.7-0.1,1.2-0.9,1.4c-0.8,0.2-1-0.2-1.1-0.8C32,21.1,32.6,20.8,33.1,20.2z"
			/>
		<path id="XMLID_1188_" class="st61" d="M41.3,19.8c-0.6-0.3-1.5,0.9-2-0.3c0-0.1-0.1-0.1-0.1-0.2s0.1-0.1,0.1-0.2
			C40.1,18.9,40.9,18.9,41.3,19.8z"/>
		<path id="XMLID_1187_" class="st64" d="M30.4,20.8c-0.3,0-0.6,0-0.9,0.1c-0.4,0.2-0.6,0-0.8-0.3c-0.1-0.2,0-0.3,0-0.4
			c0.1-0.1,0.2-0.2,0.4-0.2c0.4-0.1,0.9-0.3,1.3,0c0.2,0.1,0.5,0.2,0.7,0.3C30.9,20.4,30.7,20.6,30.4,20.8z"/>
		<path id="XMLID_1186_" class="st61" d="M39.3,19.5c-0.6,1.2-1.5,0.2-2.3,0.3c0.1-0.1,0.2-0.2,0.3-0.3C38,19.3,38.7,19.3,39.3,19.5
			L39.3,19.5z"/>
		<path id="XMLID_1185_" class="st63" d="M39.3,19.5c-0.7,0-1.3,0-2,0c0.6-0.6,1.3-0.2,2-0.3C39.3,19.3,39.3,19.4,39.3,19.5z"/>
		<path id="XMLID_1184_" class="st31" d="M9,20.5c-0.3,0.4-0.8,0.7-1.2,0.6c-1.2-0.1-2,0.5-2.7,1.3c-0.6,0.2-1.2,1-2,0.4
			c-0.1-0.1-0.2-0.2-0.2-0.4c0.4-1,1.9-0.8,2-2c0.2-0.4,0.4-0.7,0.8-0.8C6.8,20,7.9,20.1,9,20.5z"/>
		<path id="XMLID_1183_" class="st2" d="M3.1,22.5c0,0.1,0,0.2,0,0.3c-0.5-0.1-1.2,0.2-1.3-0.7c0.2,0,0.4,0,0.7,0
			C2.7,22.1,2.9,22.3,3.1,22.5z"/>
		<path id="XMLID_1182_" class="st65" d="M25.3,47.9c0.9,0.7,2.1-0.1,2.9,0.6C27,49.5,26,49.3,25.3,47.9z"/>
		<path id="XMLID_1181_" class="st61" d="M9,20.5c-1.2,0.4-2.3-0.1-3.3-0.7c-0.1-0.4,0.2-0.5,0.5-0.7c0.7-0.4,1.3-0.1,1.9,0.3
			c0.8,0.4,1.6-0.5,2.4-0.1c0.1,0.1,0.1,0.1,0.2,0.2C10.1,19.9,9.5,20.2,9,20.5z"/>
		<path id="XMLID_1180_" class="st62" d="M12.5,19.5c-0.6,0.5-1.3,0.1-1.9,0l0,0c0.7-1.3,1.9-1.3,3.2-1.1
			C13.8,19.1,13.8,19.1,12.5,19.5z"/>
		<path id="XMLID_1179_" class="st33" d="M16.2,18.9c-0.4,0-0.7,0-1.1,0c-0.1-0.5,0.3-0.7,0.5-1c0.1-0.1,0.2-0.1,0.4-0.1
			c0.5,0.1,0.9,0.4,1.3,0.7c0.2,0.2,0.2,0.4,0,0.6C16.9,19,16.6,19.1,16.2,18.9z"/>
		<path id="XMLID_1178_" class="st62" d="M15.8,17.9c0.1,0.5-0.5,0.6-0.7,1c-0.3,0.1-0.6,0.2-0.9,0.3C14,19,14,18.7,14,18.5
			C14.4,17.7,15.1,17.7,15.8,17.9z"/>
		<path id="XMLID_1177_" class="st3" d="M14.2,18.5c0,0.2,0,0.4,0,0.6c-0.5,0.3-1.1,0.4-1.7,0.3c0.4-0.3,0.9-0.6,1.3-1
			C14,18.4,14.1,18.4,14.2,18.5z"/>
		<path id="XMLID_1176_" class="st66" d="M16.2,18.9c0.4,0,0.8-0.1,1.2-0.1c0.1-0.1,0.2,0,0.3,0.1c0,0.4-0.4,0.5-0.7,0.6
			c-0.3-0.3-0.7-0.2-1-0.3C16.1,19.1,16.1,19,16.2,18.9z"/>
		<path id="XMLID_1175_" class="st67" d="M11.2,4.5c0.5-0.1,1.1-0.2,1.6-0.3c0.6-0.2,0.8,0.2,1.1,0.6C14,5.2,13.6,5.7,14.2,6
			c0.2,0.2,0.4,0.4,0.6,0.6c0.7,0.3,1.6,0.3,2.3,0.6c0.1,0.1,0.3,0.1,0.4,0.2c0.1,0.3,0,0.6-0.1,0.8c0.1,0.4-0.8,0.1-0.4,0.7
			c0,0.5-0.1,0.9-0.4,1.2c-0.4,0.2-0.7,0.1-1.1-0.1c-0.1-0.1-0.2-0.2-0.3-0.3c0-0.1,0-0.1-0.1-0.2c0-0.1,0-0.1,0-0.2
			c0.3-0.9-0.8-0.5-1-1c0-0.7-0.5-1.2-1-1.6c-0.4-0.4-0.8-0.8-1.3,0.1c-0.3,0.5-1,0.6-1.6,0.5c-0.3,0-0.7,0-0.8-0.4
			C9.3,6.6,9.5,6.4,9.7,6.2c0.4-0.4,0.8-0.9,1.1-1.4C10.8,4.7,11,4.6,11.2,4.5z"/>
		<path id="XMLID_1174_" class="st31" d="M16.5,3.2c0.5,0,1.1,0,1.6,0c0.4,0.1,0.9-0.3,1.3,0l0,0c0.2,0.2,0.6,0.1,0.7,0.3
			c0,0.1,0,0.3-0.1,0.4c-0.4,0.4-0.8,0.6-1.2,0.8c-0.5,0.2-0.9,0.3-1.3,0.6c-0.3,0.2-0.6,0.4-1,0.3c-0.3,0-0.6-0.1-0.9-0.2
			c-0.2,0-0.4-0.1-0.6-0.2c-0.3-0.1-0.5-0.3-0.6-0.6C14.5,3.5,16,4,16.5,3.2z"/>
		<path id="XMLID_1173_" class="st28" d="M16.5,3.2C16.4,3.5,16.7,4,16,3.9c-0.6-0.1-1.1,0.3-1.4,0.9C14.4,5,14.2,5,14,4.8
			c-0.3-0.2-0.7-0.4-1-0.7C13.9,3.2,15.3,3.5,16.5,3.2z"/>
		<path id="XMLID_1172_" class="st14" d="M11.2,4.5c-0.1,0.1-0.2,0.2-0.3,0.3C10,5.4,9.2,6,8,5.6C7.8,5.5,7.8,5.3,7.9,5.1
			C9,4.5,10.1,4.3,11.2,4.5z"/>
		<path id="XMLID_1171_" class="st33" d="M8,5.2c0,0.1,0,0.2,0,0.3c0,0.6,0.5,1.2-0.3,1.6C7.6,7.2,7.5,7.3,7.4,7.4
			C6.5,6.6,7.8,5.7,7.2,4.9C7.4,5,7.7,5.1,8,5.2z"/>
		<path id="XMLID_1170_" class="st68" d="M20,3.9c0-0.1,0-0.2,0-0.3c-0.2-0.4,0.2-0.7,0.3-1c0.5-0.1,1.2,0.2,1.6-0.3
			c0.1,0,0.2,0,0.3,0C22.2,3.7,21.1,3.8,20,3.9z"/>
		<path id="XMLID_1169_" class="st3" d="M19.4,3.2c-0.4-0.1-0.9,0.6-1.3,0C18.5,2.8,19,2.7,19.4,3.2z"/>
		<path id="XMLID_1168_" class="st3" d="M20.4,2.6c-0.1,0.3-0.2,0.6-0.3,1c-0.3,0-0.5-0.1-0.6-0.3C19.7,3,20.1,2.8,20.4,2.6z"/>
		<path id="XMLID_1167_" class="st69" d="M18.7,31.9c-0.3,0.1-0.6,0.2-1,0.3c-0.3,0-0.6-0.1-0.9-0.2c-0.9-0.4-1.9-0.7-2.8-0.9
			c-0.5-0.1-0.8-0.2-0.7-0.8c0.2-0.5,0.6-0.7,1.1-0.9c0.5-0.1,0.9,0,1.4,0.1c0.6,0.3,1.2,0,1.8-0.1c1.2-0.3,2.3-0.8,3.5-0.9
			c0.9-0.1,1.6,0,1.8,1.1c0,0.2-0.1,0.4-0.3,0.6c-0.5,0.6-1.1,0.9-1.8,1C20.1,31.5,19.4,31.7,18.7,31.9L18.7,31.9z"/>
		<path id="XMLID_1166_" class="st70" d="M7.3,34.5c0.8-0.7,1.9,0.6,2.7-0.7c0-0.5-0.9-0.2-1.1-0.6c-0.1-0.1-0.1-0.2-0.1-0.3
			c0-0.1,0-0.1,0.1-0.1c0.7-0.5,1.6-0.4,2.4-0.8c1.6,0.2,0.8,1.4,0.9,2.2l0,0c-0.4,0.3-0.8,0.5-1,1c-0.1,0.1-0.2,0.2-0.3,0.3
			c-0.5,0.2-1.2-0.1-1.7,0.3c-0.5,0.1-1,0.3-1.5,0.1C7.2,35.6,7.8,34.9,7.3,34.5z"/>
		<path id="XMLID_1165_" class="st71" d="M7.6,35.8c0.5-0.1,1.1-0.2,1.6-0.3c0.2,0.2,0.5,0.1,0.7,0.3c0,0.1,0,0.2,0,0.3
			c-0.8,0.5-1.7,0.8-2.6,0.7c-0.9-0.1-2.1,0.1-2.3-1.5c0-0.4-0.7-0.3-1-0.6c-0.5,0.1-0.7-0.1-0.6-0.6c0.3,0,0.7,0,0.9-0.4
			c0.4,0.6,0.9,1,1.3,0l0,0c0.2,0.2,0.5,0.4,0.7,0.7c0.3,0.1,0.7,0.2,1,0.3c0.3,0.3,0.1,0.6,0.1,1c0,0.2,0.2,0.3,0.1,0.1
			C7.4,35.7,7.8,36,7.6,35.8z"/>
		<path id="XMLID_1164_" class="st57" d="M17.1,31.9c0.3,0,0.5,0.1,0.7,0.3c-1.6,0.6-3,1.9-4.9,1.6c-0.7-0.5-0.8-1,0-1.5
			c0.1,0,0.3,0,0.4,0.1c0.2,0.1,0.3,0.4,0.5,0.1c0.2-1,0.6-1.7,1.7-0.9C16,32.2,16.6,31.6,17.1,31.9z"/>
		<path id="XMLID_1163_" class="st72" d="M13.2,32.6c-1.1,0.2-0.5,0.8-0.3,1.3c-0.1,0.2-0.1,0.5-0.2,0.7c-0.2-0.1-0.3-0.2-0.5-0.4
			c0.2-0.4-1.4-0.4-0.2-1.2c0.4-0.3-0.3-0.7-0.7-0.8c-0.1-0.1-0.1-0.3-0.1-0.4c0.2-0.3,0.5-0.6,0.9-0.7
			C12.7,31.4,13.3,31.7,13.2,32.6z"/>
		<path id="XMLID_1162_" class="st20" d="M11.2,35.2c-0.1-0.7,0.2-1.1,1-1C12.2,34.9,11.6,35,11.2,35.2z"/>
		<path id="XMLID_1161_" class="st20" d="M9.9,35.9c-0.3,0-0.5-0.1-0.7-0.3c0.5-0.5,1.1-0.1,1.6,0C10.7,35.9,10.3,35.8,9.9,35.9z"/>
		<path id="XMLID_1160_" class="st73" d="M35,41c-0.4,0-0.8-0.3-1.3,0c-0.1-0.1-0.2-0.3-0.2-0.4c0.6-0.7,0.2-1.7,0.8-2.4
			c0.3-0.3,0-0.3-0.2-0.4c-0.3-0.2-0.7-0.4-0.7-0.7c0-1.8-1.5-1.3-2.4-1.7c0.1-0.2-0.9-0.9,0.3-0.7c0.5,0.1,0.8-0.1,1.1-0.5
			c0.2,0,0.4,0,0.6-0.1c1.4,0.7,3,1.3,3.1,3C36.2,38.5,35.9,39.9,35,41z"/>
		<path id="XMLID_1159_" class="st3" d="M24.9,43.3c0.2-0.5,0.4-1-0.5-0.9c-1.3,0.4-2.5-0.1-3.6-0.7c-0.1-0.1-0.1-0.2-0.1-0.4
			c0.1-0.2,0.2-0.4,0.4-0.5s0.4-0.2,0.6-0.3c1.2,0.2,2.2,1.4,3.5,1c0.3,0,0.6,0,0.9,0.2c0.3,0.2,0.4,0.4,0.4,0.7
			c0,0.1-0.1,0.3-0.2,0.4c-0.3,0.3-0.6,0.5-1.1,0.6C25.1,43.5,24.9,43.4,24.9,43.3z"/>
		<path id="XMLID_1158_" class="st74" d="M17.2,40.7c0.1-0.3,0.1-0.6-0.4-0.6c-0.8-0.1-0.9-0.6-0.7-1.3c1.8-0.5,2-0.3,1.8,1.8
			c-0.1,0.1-0.1,0.1-0.2,0.2C17.6,40.7,17.4,40.7,17.2,40.7z"/>
		<path id="XMLID_1157_" class="st27" d="M20.7,41.4c0,0.1,0,0.2,0,0.3c-0.7,0.5-1.3,0.5-2,0c-0.1-0.1-0.1-0.3,0-0.4
			C19.4,41,20.1,41.2,20.7,41.4z"/>
		<path id="XMLID_1156_" class="st35" d="M18.7,41.4c0,0.1,0,0.2,0,0.3c-0.7,0.1-1-0.2-1-1v-0.1c0.1-0.1,0.2-0.1,0.4-0.1
			C18.4,40.8,18.7,41,18.7,41.4z"/>
		<path id="XMLID_1155_" class="st48" d="M30.2,46.3c0,0.1,0,0.2,0,0.3c-0.6,0.5-1.1,1.1-1.9,1c-0.1-0.1-0.2-0.2-0.2-0.3
			c0.1-0.4-0.3-0.7,0-1.1C28.8,45.5,29.5,45.3,30.2,46.3z"/>
		<path id="XMLID_1154_" class="st75" d="M27.9,46.3c0.2,0.3,0.7,0.5,0.3,1c-0.3,0.2-0.7,0.3-1,0c-1,0.1-1-0.6-1-1.3
			c0-0.1,0-0.2,0-0.3c0.1-0.1,0.2-0.1,0.4-0.1c0.3,0.2,0.7,0.4,1.1,0.6C27.8,46.2,27.8,46.2,27.9,46.3z"/>
		<path id="XMLID_1153_" class="st32" d="M27.2,47.3c0.3,0,0.7,0,1,0c0,0.1,0,0.2,0,0.3C27.8,47.8,27.3,48.1,27.2,47.3z"/>
		<path id="XMLID_1152_" class="st76" d="M20,3.9c0.8-0.5,1.7-0.7,2.3-1.6c0.1,0,0.2-0.1,0.3-0.1c0.3-0.2,0.6,0,0.8,0.1
			c0.5,0.3,0.5,1,1.1,1.2c0.1,0.1,0.2,0.2,0.3,0.3c0.8,1.4-0.7,1.7-1.2,2.4c-0.2,0.1-0.4,0.1-0.6,0.1c-1.1,0.1-2.1,0-3.1,0.5
			c-0.1,0-0.3,0.1-0.4,0.1c-0.5-0.1-1.1-0.2-1.6,0c-0.1,0-0.3,0.1-0.4,0.1c-0.8,0.1-1.5-0.2-2.3-0.3c-0.1-0.1-0.1-0.3,0-0.4
			s0.1-0.3,0.2-0.4c0.3-0.4,0.8-0.3,1.1-0.5c0.3-0.1,0.6-0.2,1-0.3c0.4-0.2,1-0.1,1.3-0.6C19.2,4.3,19.5,3.8,20,3.9z"/>
		<path id="XMLID_1151_" class="st68" d="M23.3,2.6c-0.2-0.1-0.4-0.2-0.6-0.3c1.4-0.6,2.4-0.2,2.9,1.3c-0.3,0.3-0.6,0.3-0.9,0.2
			C24.2,3.3,24,2.6,23.3,2.6z"/>
		<path id="XMLID_1150_" class="st77" d="M24.6,3.5c0.3,0,0.6,0,1,0c0.3,0.5,0.4,1,0.3,1.6h-0.2h-0.2c-0.6-0.2-0.3-1.1-0.9-1.3l0,0
			c-0.1-0.1-0.1-0.1-0.1-0.2C24.6,3.6,24.6,3.5,24.6,3.5z"/>
		<path id="XMLID_1149_" class="st78" d="M33.8,40.7c0,0.1,0,0.2,0,0.3c-0.2,0.2-0.4,0.4-0.7,0.6c-0.2,0.2-0.4,0.4-0.6,0.6
			c-0.8,0.4-1.7,0.3-2.5,0c0.2,0.1-0.1,0,0,0c1.3,0.4,2.2,0.8,0.4,1.9c-0.9,0.2-1.7,0.2-2.6,0.1c-0.9-0.1-1.8-0.5-1-1.7
			c0.3-0.9-0.7-0.5-0.9-0.8c-0.1-0.2-0.2-0.4-0.1-0.6c0.2-0.5,0.8-0.8,0.8-1.4c0-0.5,0.2-1.1,1-0.9c0.5,2.3,0.5,2.3,3.7,1.6
			C32.1,40.3,33,40.1,33.8,40.7z"/>
		<path id="XMLID_1148_" class="st72" d="M27.2,42.7c-1.4,1.1,0,1.2,0.6,1.3c0.9,0.1,1.8,0,2.7,0c0.1-0.1,0.2-0.1,0.3,0
			c0.3,0.4,0.9,0.7,0,1.1c-0.4,0.2-0.7,0.6-0.7,1.1c-0.8-0.7-1.5-0.2-2.3,0l0,0c-0.4-0.8-1.2-1.3-1.9-1.9c-0.5-0.6-0.5-1.2,0.2-1.7
			l0,0C26.6,42.3,26.9,41.9,27.2,42.7z"/>
		<path id="XMLID_1147_" class="st72" d="M30.8,44c-0.1,0-0.2,0-0.3,0c0.6-0.5,0.9-1.1-0.2-1.3c-0.5-0.1-1-0.1-1.6-1
			c1.4,0.8,2.6,0.3,3.7,0.7C32.1,43.1,31.7,43.8,30.8,44z"/>
		<path id="XMLID_1146_" class="st79" d="M6.3,19.5c-0.3,0-0.5,0.1-0.7,0.3C5.4,20,5.2,20.2,5,20.5c-0.2,0.2-0.3,0.4-0.6,0.6
			c-1.4,1.1-1.6,1-2.4-0.6c-0.9-0.8,0.5-1.3,0.3-1.9c0.4,0,0.9,0,1.3,0c0.2-0.2,0.4-0.3,0.6-0.4C5,18,5.8,17.5,6.6,17.3
			c1.1-0.2,1.5,0.2,1.3,1.3c-0.4,0.2-0.8,0.1-1.2,0.3C6.6,19,6.5,19.3,6.3,19.5z"/>
		<path id="XMLID_1145_" class="st80" d="M2.1,20.5c1,1.8,2,0.1,2.9,0c0.2,0.5,0.4,0.8-0.3,1.1c-0.6,0.2-1.1,0.6-1.6,0.9
			c-0.3,0-0.5-0.1-0.7-0.3C2.5,21.5,1.6,21.2,2.1,20.5z"/>
		<path id="XMLID_1144_" class="st45" d="M3.5,34.3c0.2,0.2,0.4,0.4,0.6,0.6c0,0.4,0,0.9,0,1.3c-0.3-0.2-0.6-0.4-1-0.7
			c0.2-1-0.4-2,0.3-3C3.4,33.1,3.4,33.7,3.5,34.3z"/>
		<path id="XMLID_1143_" class="st45" d="M5,37.5c-0.8,0-1-0.6-1-1.3C5.1,36.1,5.1,36.8,5,37.5z"/>
		<path id="XMLID_1142_" class="st61" d="M35.1,26.4c0.2,0,0.4,0,0.7,0c-0.2,0.4-0.4,0.8-0.3,1.3c-0.3,0.1-0.3,0.4-0.3,0.7
			c-1.4,0.1-2.5,1.2-3.8,1.5c-0.1,0.2-0.9-0.5-0.6,0.4c0.4,1.3-1,1.4-1.4,2.1c-0.7,0.1-0.7,0.8-1,1.2l0,0c-0.3,0.2-0.7,0.1-1,0
			c-0.1-0.1-0.2-0.1-0.3-0.2c-0.1-0.5-0.1-1,0-1.5c0.2-0.4,0.6-0.6,0.8-1c0.4-0.6,1-0.4,1.5-0.3c-0.7-0.2-1.2-0.2-1.7,0.4
			c-0.5,0.3-0.9,0.1-1.3-0.2c-0.4-0.5-1.2-0.9-0.1-1.5c0.6-0.3,1.3-0.4,1.9-0.7l0,0c1.6-0.5,3.2-0.9,4.6-2l0,0
			C33.3,26.8,34.1,25.7,35.1,26.4z"/>
		<path id="XMLID_1141_" class="st81" d="M17.1,21.5c-0.1-0.3-0.2-0.6-0.3-1c0.3,0,0.5-0.1,0.7-0.3c0.5-0.3,0.9-0.1,1.2,0.3
			C18.9,21.9,18.6,22,17.1,21.5z"/>
		<path id="XMLID_1140_" class="st71" d="M18.4,20.5c-0.3-0.1-0.6-0.2-1-0.3c0.2-0.4,0.4-0.8,0.7-1.2c0.1-0.2,0.3-0.3,0.6-0.4
			c0.2,0,0.5,0,0.7,0.1c0.1,0.1,0.2,0.2,0.2,0.4c-0.1,0.4-0.3,0.7-0.5,1C18.9,20.3,18.8,20.7,18.4,20.5z"/>
		<path id="XMLID_1139_" class="st82" d="M18.7,18.9c-0.2,0-0.4,0.1-0.6,0.1c-0.1,0-0.2-0.1-0.4-0.1c-0.1,0-0.2,0-0.3-0.1
			c-0.1-0.1-0.2-0.2-0.4-0.3c0-0.4,0.3-0.6,0.6-0.7c0.5-0.1,1-0.4,1.3,0.1C19.3,18.3,19,18.6,18.7,18.9z"/>
		<path id="XMLID_1138_" class="st48" d="M38,15.9c-1,0.9-2.4,0.8-3.6,1.3c-0.1,0-0.1-0.1-0.2-0.1c-0.2-0.2-0.3-0.4-0.2-0.6
			c0.3-0.7,1.4-0.4,1.7-1C36.6,15.4,37.4,15.3,38,15.9L38,15.9z"/>
		<path id="XMLID_1137_" class="st63" d="M34.4,17.2c-0.6,0.7-1.5,1-2.3,1.3c-0.4-0.1-0.8-0.2-0.8-0.7
			C32.7,16.2,32.7,16.2,34.4,17.2L34.4,17.2z"/>
		<path id="XMLID_1136_" class="st20" d="M31.5,17.9c0.2,0.2,0.4,0.4,0.6,0.6c-0.2,0.1-0.4,0.2-0.6,0.4c-0.6,0.4-1.3,0.5-2,0.2
			c-0.7-0.5-0.6-0.9,0.1-1.2C30.2,17.7,30.8,17.5,31.5,17.9z"/>
		<path id="XMLID_1135_" class="st63" d="M29.5,18.9c0.7,0,1.3,0,2,0c0,0.1,0,0.3,0,0.4c-0.1,0.3-0.4,0.3-0.6,0.3
			c-0.5,0.1-1,0.4-1.5,0.4c-0.2-0.1-0.2-0.2-0.3-0.3C29.1,19.3,29.3,19.1,29.5,18.9z"/>
		<path id="XMLID_1134_" class="st83" d="M7.6,18.5c0.3-0.2,0.7-0.3,0.3-0.7c-0.4-0.4-1-0.4-1.4-0.2c-0.7,0.4-1.4,0.7-2.2,0.9
			C3.9,18,3.9,17.4,4,16.9c0.1,0,0.2,0,0.3,0c0.2-0.5,0.2-1.2,0.7-1.6c0.7-0.7,1.3-1.3,2-2c0.2-0.1,0.4-0.2,0.6-0.3
			c0.3-0.2,0.6-0.3,0.9-0.4c0.6-0.1,1.1-0.4,1.7,0c0.2,0.2,0.1,0.4,0,0.6c-0.3,0.3-0.6,0.4-1,0.5c-1.9,0.8-2,1.2-1,2.8
			c0.8-0.8,1.8-1.3,2.7-1.7c0.4-0.2,0.9-0.2,1.3-0.4c0.9-0.2,1.8-0.5,1.2,1c-0.2,0.1,0.1,0.1-0.1,0.1c-2.7,0.4-3.8,2.7-5.4,4.4
			c-0.5-0.3-1-0.9-1.6-0.3c0-0.4-0.1-0.7,0.3-1C7,18.8,7.3,18.5,7.6,18.5z"/>
		<path id="XMLID_1133_" class="st69" d="M5,15.3c0.1,0.4-0.5,0.8,0,1.3c0.2,0.2,0.4,0.5-0.1,0.5c-0.2,0-0.4-0.1-0.6-0.2
			C4,16.5,4,16,4.3,15.6C4.6,15.5,4.8,15.4,5,15.3z"/>
		<path id="XMLID_1132_" class="st69" d="M4.1,16.9c0.3,0.5,0.4,1.1,0.3,1.6c-0.2,0-0.4,0-0.6,0C3.8,18,3.5,17.4,4.1,16.9z"/>
		<path id="XMLID_1131_" class="st20" d="M29.2,32.2c0.3-0.7,1.4-0.9,1.3-2c0.1-0.3,0.4-0.5,0.7-0.6c1.3-0.4,2.2-2.2,3.9-1.3
			c0,0.8-0.7,0.7-1.1,0.9c-0.6,0.2-1.2,0.5-1.5,1.1c-0.7,0.3-1.3,0.6-1.7,1.3c-0.6,0-0.8,0.5-1.3,0.7C29.4,32.4,29.3,32.4,29.2,32.2
			z"/>
		<path id="XMLID_1130_" class="st55" d="M18.1,40.7c-0.1,0-0.2,0-0.3-0.1c0-1.1-0.1-2.1-1.6-1.9l0,0c-0.4-0.4,0.3-0.9,0-1.3
			c0.3-0.7,0.6-1.3,1-2c1,0.4,1-1.3,2-1c0.1,0.1,0.2,0.2,0.2,0.4c0,0.1,0,0.2,0,0.3c-0.8,1-1,2-0.3,3.1c0.2,0.8,1.3,1,1.4,2
			c0.1,0.3,0,0.7-0.3,0.9C19.3,41.4,18.7,41.2,18.1,40.7z"/>
		<path id="XMLID_1129_" class="st69" d="M19.1,34.9c0-0.1,0-0.2,0-0.3c0.3-0.6,1-1.1,1-2c0.2-0.2,0.4-0.2,0.6-0.2
			c0.3,0.1,0.6,0.2,0.7,0.5c0.1,0.4-0.2,0.7-0.4,1c-0.3,0.5-0.5,1.1-1,1.5C19.6,35.5,19.3,35.2,19.1,34.9z"/>
		<path id="XMLID_1128_" class="st22" d="M18.7,31.9c0.7-0.3,1.1-1,2-1c0.2,0.2,0.2,0.4,0.2,0.6c-0.1,0.2-0.2,0.4-0.3,0.6
			c-0.3,0.2-0.5,0.3-0.8,0.1C19.5,31.9,19.1,31.9,18.7,31.9z"/>
		<path id="XMLID_1127_" class="st84" d="M19.7,32.3c0.3,0,0.5-0.1,0.7-0.3c0.3-0.2,0.6-0.2,0.7,0.2c0.1,0.3-0.1,0.5-0.4,0.5
			c-0.2,0-0.4,0-0.6,0C19.9,32.5,19.8,32.4,19.7,32.3z"/>
		<path id="XMLID_1126_" class="st62" d="M10.3,12.7c-0.5,0.1-1.1,0.2-1.6,0.3c-0.1-0.3-0.1-0.7,0-1s0.3-0.5,0.6-0.7
			c0.5-0.4,1.2-0.5,1.6-1l0,0c0.4-0.3,0.6,0.6,1,0.2c0.2-0.3,0-0.8,0.5-1c1.5,0,1.5,0,1.3,1.9C12.7,12.6,11.5,12.7,10.3,12.7z"/>
		<path id="XMLID_1125_" class="st67" d="M13.5,11.4c-0.2,0-0.5-0.1-0.4-0.3c0.8-1.3,0.1-1.3-0.9-1.3c-0.1-0.1-0.1-0.1-0.1-0.2
			s0.1-0.1,0.1-0.1c0.3-0.1,0.3-0.4,0.3-0.6c0.5,0,0.9-0.1,1.3-0.3c0.1,0,0.1,0.1,0.2,0.1c0.4,0.2,1.3-0.1,1.1,0.9l0,0
			c-0.3,0.2-0.3,0.6-0.4,0.9c-0.2,0.2-0.2,0.4-0.1,0.6c-0.1,0.4-0.5,0.5-0.9,0.5C13.7,11.4,13.6,11.4,13.5,11.4z"/>
		<path id="XMLID_1124_" class="st85" d="M12.2,10.7C12,11,12,11.5,11.5,11.5c-0.6-0.1-0.1-0.9-0.7-1.1c-0.4-0.8,0.2-0.6,0.7-0.7
			C12,9.9,12.1,10.3,12.2,10.7z"/>
		<path id="XMLID_1123_" class="st85" d="M10.9,10.4c-0.2,0.9-0.9,0.9-1.6,1C9.6,10.7,10.1,10.3,10.9,10.4z"/>
		<path id="XMLID_1122_" class="st86" d="M8.6,12c0.2,0.3,0.2,0.7,0,1c-0.3,0-0.7,0-1,0c0-0.5,0.5-0.6,0.7-0.9C8.4,12,8.5,12,8.6,12
			z"/>
		<path id="XMLID_1121_" class="st87" d="M11.9,8.8c0.2-0.4,0.2-0.7-0.3-0.7c0.3-0.3,0.6-0.4,1-0.2c0.4,0.2,0,0.5,0,0.8
			C12.3,8.7,12.1,8.7,11.9,8.8z"/>
		<path id="XMLID_1120_" class="st88" d="M12.2,10.7c-0.2-0.3-0.4-0.7-0.7-1c0.2-0.1,0.4-0.2,0.7-0.3c0,0.1,0,0.2,0,0.3
			C12.1,10.1,12.6,10.4,12.2,10.7z"/>
		<path id="XMLID_1119_" class="st22" d="M16.1,37.5c0.6,0.4,0.2,0.9,0,1.3c-0.2,0-0.4,0-0.6,0C15.3,38.2,15.8,37.8,16.1,37.5z"/>
		<path id="XMLID_1118_" class="st59" d="M33.8,40.7c-1,0-2,0-2.9,0c-0.7,0.2-1.5,0.4-2-0.3c-0.4-0.7-0.1-1.3,0.6-1.8
			c0.3-0.2,0-0.6,0-0.9s0.1-0.6,0.2-0.8c0.1-0.1,0.2-0.2,0.3-0.3c0.5-0.2,0.6-0.8,0.9-1.1c0.1,0,0.2,0,0.3,0c0.7-0.6,1.4,0,2.1,0.1
			c1.2,0.2,0.9,0.7,0.5,1.4c0,0.1,0.5,0.5,0.8,0.7c0.2,0.1,0.4-0.6,0.7-0.2c0.2,0.4-0.1,0.7-0.4,0.9c-0.4,0.2-0.7,0.3-0.3,0.9
			C34.9,40,34.1,40.3,33.8,40.7z"/>
		<path id="XMLID_1117_" class="st72" d="M29.2,34.9c0.4,0.2,0.9,0.4,1.3,0.7c0.2,0.6-0.3,0.9-0.7,1.3l0,0c-1.8,0.7-2,0.7-2.3-0.8
			C27.5,34.8,28.6,35.2,29.2,34.9z"/>
		<path id="XMLID_1116_" class="st89" d="M29.2,34.9c-0.4,0.5-1.6,0.2-1.3,1.3c-0.2,0.2-0.4,0.2-0.6,0.2c-0.6-0.2-0.9-0.6-0.8-1.2
			c-0.1-0.8,0-1.5,0.8-1.9c0.3,0.1,0.6,0.2,1,0.3c0,0.1,0,0.2,0,0.3c-0.2,0.2-0.4,0.4-0.6,0.6C28,35.1,28.6,34.8,29.2,34.9z"/>
		<path id="XMLID_1115_" class="st90" d="M29.8,36.8c-0.1-0.6,0.3-0.9,0.7-1.3c0.1,0,0.2,0,0.3,0C30.8,36.2,30.9,36.9,29.8,36.8z"/>
		<path id="XMLID_1114_" class="st68" d="M26.2,42.7c-0.4,0.5-0.4,1.1,0,1.6c0,0.5,1.2,0.6,0.3,1.3c-0.1,0-0.2,0-0.3,0
			c-0.3-0.2-0.6-0.4-1-0.7c-0.3-0.5-0.2-1.1,0-1.6C25.4,42.9,25.8,42.7,26.2,42.7z"/>
		<path id="XMLID_1113_" class="st8" d="M25.3,43.4c0.5,0.5,0.1,1.1,0,1.6c-0.5-0.4-0.7-0.9-0.7-1.5c0.1-0.1,0.2-0.1,0.3-0.1
			C25,43.3,25.1,43.3,25.3,43.4z"/>
		<path id="XMLID_1112_" class="st91" d="M7.6,7.1C8,6.6,7.2,5.9,7.9,5.5C9,5.7,9.8,4.8,10.8,4.8c0.1,1-0.7,1.5-1.3,2.1
			c1.7,0.4,1.7,0.4,2.4-1.6c0.7,1.1,2.3,1.6,2.2,3.2c-0.1,0.1-0.2,0.1-0.3,0l0,0c-0.2-1-0.6-1.4-1.7-1c-0.7,0.3-1.6,0.3-2.2,0.7
			C8.9,8.3,8.4,7.5,7.6,7.1z"/>
		<path id="XMLID_1111_" class="st73" d="M38,15.9c-0.8-0.1-1.5-0.2-2.3-0.3c-0.1-0.2-0.1-0.3,0.1-0.5c2.5-0.1,4.8-0.8,6.5-2.9
			c0.9,0.4,0.6,1,0.3,1.6s-0.8,1.2-1.2,1.7c-0.4,0-0.8,0.1-1.3,0.1C39.3,15.7,38.6,15.4,38,15.9z"/>
		<path id="XMLID_1110_" class="st73" d="M41.3,15.5c0-0.6,0.1-1,0.6-1.4s1.1-1,0.4-1.8c0-0.1-0.1-0.1-0.1-0.2c0-0.5-0.2-1,0.4-1.3
			c0.7,0.1,1.2,0.4,1.1,1.2l0,0c-0.2,0.6,0,1.2-0.3,1.8c-0.1,0.1-0.1,0.2-0.2,0.4c-0.2,0.4-0.4,0.9-0.8,1.1
			C41.9,15.4,41.6,15.4,41.3,15.5z"/>
		<path id="XMLID_1109_" class="st32" d="M43.9,12.3c0.4,0.2,0.7,0.5,0.9,0.9c-0.8,0.1-0.5,1.5-1.5,1.4c-0.6,0-0.5-0.3-0.3-0.7l0,0
			C43.9,13.8,43.2,12.7,43.9,12.3z"/>
		<path id="XMLID_1108_" class="st22" d="M42.9,14c0,0.3,0.1,0.5,0.3,0.7c-0.2,0.4-0.5,0.7-1,0.6C42.5,14.8,42.7,14.4,42.9,14z"/>
		<path id="XMLID_1107_" class="st89" d="M29.2,32.2c0.1,0,0.2,0,0.3,0c-0.4,0.4-0.9,0.9-1.3,1.3C28.2,32.9,28.2,32.2,29.2,32.2z"/>
		<path id="XMLID_1106_" class="st92" d="M29.2,19.9c0.6,0,1.1-0.5,1.7-0.3c-0.1,0.1-0.2,0.2-0.4,0.3c-0.4,0.1-0.8,0.4-1.3,0.3
			C29.1,20,29.1,19.9,29.2,19.9z"/>
		<path id="XMLID_1105_" class="st28" d="M22,6.8c-0.1,0.1-0.2,0.2-0.3,0.3c-0.8,0.8-1.9,0.9-3,1.3c0-0.1-0.1-0.1-0.1-0.2
			c-0.3-1,0.8-0.8,1.1-1.3c0.7-0.4,1.4-0.8,2.2-0.3C21.9,6.7,22,6.8,22,6.8z"/>
		<path id="XMLID_1104_" class="st28" d="M16.5,10.1c0-0.5,0.1-0.9,0.3-1.3C17.4,8.5,18,8,18.7,8.5l0,0c-0.3,0.3-0.6,0.7-1,1
			c0,0.1,0,0.1-0.1,0.2c-0.5,0.5-0.2,0.8,0.2,1.2c0,0.2-0.1,0.3-0.2,0.4C17,11.5,16.5,11.6,16,11C16,10.5,16.2,10.3,16.5,10.1z"/>
		<path id="XMLID_1103_" class="st93" d="M18.7,9.4c0.4,0.6,1.1,0.1,1.6,0.3c-0.4,1.1-1.4,0.7-2.2,0.9c-1-0.2-0.9-0.7-0.4-1.3l0,0
			C18.1,9.4,18.4,9.4,18.7,9.4z"/>
		<path id="XMLID_1102_" class="st68" d="M18.1,10.4c0.7-0.4,1.6-0.2,2.3-0.7c1.1-0.1,2.1-0.2,3.2-0.4c0.4,0.1,0.8,0,1,0.4
			c-0.3,0.7-0.9,1-1.5,1.3c-0.2,0.1-0.4,0.1-0.7,0.2c-0.7-0.1-1.2,0.4-1.7,0.7c-1-0.1-1.9-0.6-2.9-0.8c0-0.1,0-0.2,0-0.3
			C17.8,10.6,18,10.5,18.1,10.4z"/>
		<path id="XMLID_1101_" class="st28" d="M23,6.1c0.2,0,0.4,0,0.6,0c0.3-0.2,0.6-0.3,0.9,0c0.1,0,0.1,0.1,0.2,0.1
			c-0.2,0.1-0.5,0.2-0.7,0.3c-0.7-0.1-1.2,0.8-2,0.3l0,0C22,6.1,22.5,6.1,23,6.1z"/>
		<path id="XMLID_1100_" class="st20" d="M24.5,6.1c-0.3,0-0.6,0-0.9,0c0.1-0.9,1.8-1,1-2.3c0.8,0,0.6,0.8,0.9,1.3
			C25.2,5.4,24.8,5.8,24.5,6.1z"/>
		<path id="XMLID_1099_" class="st20" d="M27.9,9.1c1-0.2,1.9,0.4,2.9,0.3c1-0.7,2,0,2.9,0c0.1,0.8-0.6,0.8-1.1,0.9
			c-0.6,0.1-1.2,0.4-1.8,0.7c-1.2,0.2-2.3,0.1-3.2-0.9C27.6,9.8,27.6,9.4,27.9,9.1z"/>
		<path id="XMLID_1098_" class="st73" d="M34.7,10.1c2.1-1.1,4.3-0.8,6.5-1l0,0c0.4,0.6,0.7,1.1,0,1.7c-2.1-1.1-4.1-0.5-6.2,0
			c-0.2,0-0.5-0.1-0.7-0.3C34.3,10.2,34.4,10,34.7,10.1z"/>
		<path id="XMLID_1097_" class="st79" d="M34.4,10.4c0.2,0,0.4,0,0.7,0c-0.1,0.9-0.9,0.8-1.5,0.9c-0.8-0.2-1.6,0.3-2.4-0.2
			c-0.1-0.1-0.1-0.3,0-0.4c0-0.8,0.8-0.6,1.2-0.7c0.5-0.2,1.1,0,1.4-0.6c0.1,0,0.2,0,0.3,0C34.4,9.7,34.1,10.1,34.4,10.4z"/>
		<path id="XMLID_1096_" class="st20" d="M34.4,10.4c-0.9-0.1-0.2-0.7-0.3-1c0.6-0.2,0.4,0.4,0.7,0.7C34.6,10.2,34.5,10.3,34.4,10.4
			z"/>
		<path id="XMLID_1095_" class="st94" d="M41.3,10.7c0.3-0.5-0.1-1.1,0-1.6c0.4,0.1,0.9,0.2,1.3,0.3c0.1,0.3,0.4,0.3,0.7,0.3
			c0,0.8,1.3,1.3,0.7,2.3c-0.1,0-0.2,0-0.3,0c-0.3-0.5-0.6-1-1.3-1c-0.3,0.2-0.5,0.1-0.7-0.1C41.4,10.9,41.3,10.8,41.3,10.7z"/>
		<path id="XMLID_1094_" class="st32" d="M43.9,12c0.2-0.9-1.2-1.3-0.7-2.3C43.7,10.4,45.1,10.8,43.9,12z"/>
		<path id="XMLID_1093_" class="st94" d="M43.9,12.3c-0.2,0.6,0.4,1.7-1,1.6c0.3-0.6,0-1.4,0.7-1.9C43.7,12.1,43.8,12.2,43.9,12.3z"
			/>
		<path id="XMLID_1092_" class="st60" d="M23,10.7c0.5-0.3,1.1-0.7,1.6-1c0.1,0,0.2,0,0.3,0c0.7,0.6,1.8-0.4,2.4,0.6
			c-0.6,0.4-0.7,1.1-1,1.6c-0.5,0.4-1.1,0.6-1.8,0.7C23.6,12.3,23.2,11.6,23,10.7z"/>
		<path id="XMLID_1091_" class="st68" d="M27.2,10.4c-0.6-0.7-1.9,0.7-2.3-0.6c0.9-0.6,2-0.3,2.9-0.6c0,0.3,0,0.6,0,1
			C27.8,10.4,27.6,10.5,27.2,10.4z"/>
		<path id="XMLID_1090_" class="st73" d="M18.4,20.5c0.3-0.1,0.3-0.4,0.3-0.7c0.6-0.1,0.6,0.4,0.7,0.7c0.3,1,1.7,1.1,1.7,2.4
			C21,23.6,20.7,24,19.9,24c-0.3-0.2-0.5-0.1-0.6,0.3c-0.1,0.1-0.2,0.2-0.3,0.3c-0.2,0.1-0.3,0.2-0.5,0.2c0.2,0.1,0.5,0,0.6,0.3
			c0,0.4-0.3,0.5-0.6,0.6c-0.9,0.1-1.6,1.1-2.6,0.9c-0.7-0.4-1.2-1.4-2.2-0.6c-0.4,0.3-0.8,0.4-1.3,0.3c-0.6-0.2-0.4-0.8-0.6-1.2
			c-0.3-0.5,0.3-0.7,0.4-0.6c1.1,0.9,1.3-0.4,1.9-0.7c0.2,0.2,0.3,0.5,0.6,0.3c0.3-0.2-0.1-0.1-0.1-0.1c-0.2,0-0.4-0.1-0.6-0.2
			c0.6-0.7,1.9-0.3,2.3-1.3c0.7,0.3,0.3-0.6,0.7-0.7c0-0.1,0-0.2,0-0.3C17.6,21.2,19,22.2,18.4,20.5z"/>
		<path id="XMLID_1089_" class="st70" d="M11.9,25.1c0.2,0.3,0.4,0.7,0.7,1c0.1,0.3-0.3,1.1,0.6,0.6c0.3-0.2,0.6-0.4,1-0.6
			c0.6-0.2,0.9-0.1,0.9,0.6c0,0.2-0.1,0.3-0.2,0.5c-1.3,1.1-2.9,1.3-4.4,2c-0.7,0.3-1.4,0.4-2,1c-0.4,0.4-0.9,0.4-1.2-0.2
			c0.2-0.4,0.2-0.7-0.3-0.7c0-1,1.1-0.7,1.5-1.2c0.1-0.2,0.2-0.3,0.4-0.5c0.1-0.1,0.3-0.1,0.4-0.1c0.8-0.1,0.3-0.4,0.1-0.6
			c0-0.1-0.1-0.1-0.1-0.2c0.3-1.1,0.3-1,1.4-0.7C11.3,26.2,11.4,25.3,11.9,25.1z"/>
		<path id="XMLID_1088_" class="st80" d="M8.9,28.3c-0.7,0.3-1.3,0.7-2,1c-0.7,0-0.7-0.5-0.7-1C7.4,28.6,6.9,27,7.8,27
			c0.2,0.2,0.6,0.1,0.7,0.3C8.8,27.7,8.6,28.1,8.9,28.3z"/>
		<path id="XMLID_1087_" class="st90" d="M8.6,27.4c-0.3,0-0.5-0.1-0.6-0.3c0.5,0,0.9-0.1,1.3-0.3l0,0C9.5,27,10,26.9,10,27.3
			c0,0.3-0.3,0.6-0.7,0.4c-0.1,0-0.2,0-0.3,0C8.7,27.7,8.7,27.5,8.6,27.4z"/>
		<path id="XMLID_1086_" class="st81" d="M17.1,21.8c-0.1,0.3,0.2,1.1-0.7,0.7c0.4-0.3-0.6-0.6,0-0.8C16.6,21.6,16.9,21.7,17.1,21.8
			z"/>
		<path id="XMLID_1085_" class="st95" d="M7.3,30c0.2,0.1,0.5,0.3,0.6,0.2c2-1.8,4.7-2,6.9-3.1c0.8,0,1.1,0.5,1.2,1.1
			c0,0.2,0,0.3-0.1,0.4c-0.3,0.5-1,0.7-1.5,1c-0.3,0.2-0.7,0.4-1,0.7c-0.3,0.7-1,0.8-1.6,1c-0.1,0.3-0.3,0.5-0.7,0.7
			c-0.8,0.3-1.7,0.3-2.3,1c0,0.1,0,0.2,0,0.3c-0.9,0.5-1.9,0.4-2.6-0.3c-0.6-0.5-0.8-1.2-0.3-2C6.7,31,6.7,30.1,7.3,30z"/>
		<path id="XMLID_1084_" class="st20" d="M7.6,35.8c-0.1,0.6-0.4,0.8-0.9,0.5c-0.6-0.5,0.3-0.4,0.4-0.7c0-0.3,0.1-0.5,0.1-0.8
			c0-0.1,0-0.2,0-0.3C8.4,34.7,7.8,35.3,7.6,35.8z"/>
		<path id="XMLID_1083_" class="st96" d="M6.3,34.5c-0.4,0-0.6-0.2-0.7-0.7C6.1,33.9,6.7,33.7,6.3,34.5z"/>
		<path id="XMLID_1082_" class="st83" d="M22.7,29.6c-0.5-1-1-1.4-1.9-0.3c-0.2,0.3-0.4,0.6-0.8,0.5c-0.5-0.2,0.1-0.7-0.2-1
			c-1,1.5-2.7,0.8-4,1.1c-0.2-0.2-0.2-0.4-0.1-0.6c0.3-0.5,0.7-0.7,1.4-0.5c-0.3-0.2-0.7-0.1-0.9-0.4c0.4-0.7,0.3-2.1,1.8-1.2
			c0.1,0.2-0.1,0.6,0.2,0.6c0.1,0,0.1-0.4,0.1-0.6c0.2-0.6,0.3-1.2,0.8-1.6c0.3-0.2,0.6-0.2,0.9,0c0.3,0.3,0.4,0.8,0.9,0.8
			c0.2-0.7,0.4-1.4,1.3-1.5c0.1,0,0.3,0.1,0.4,0.1c0.3,0.2,0.6,0.2,0.9,0c0.6-0.4,1.1-1,1.9-0.6c0.1,0,0.3,0.1,0.4,0.2
			c0.3,0.2,0.6,0.3,1,0.2c0.3,0.1,0.8,0,0.7,0.6c-0.1,0.7,0.5,0.2,0.7,0.3C28.1,26,27.8,26,27.5,26c-0.5,0.5-0.4,1.9-1.7,1.1
			c-0.3-0.4-0.5-0.1-0.8,0.1c-0.9,0.3-1.3,0.8-0.9,1.8C23.7,29.8,23.4,30.1,22.7,29.6z"/>
		<path id="XMLID_1081_" class="st97" d="M25.6,27c1.1,0.6,0.9-0.9,1.6-1c0.4,0.8,0.7,1.7,0.7,2.6c-0.3,0.7-1,0.8-1.6,1
			c-0.7-0.2-1.7,0.1-1.9-1.1c0-0.2,0.1-0.5,0.2-0.6C25.1,27.8,25,27,25.6,27z"/>
		<path id="XMLID_1080_" class="st97" d="M32.5,26.7c-1.1,1.5-2.7,2.2-4.6,2C28.9,26.8,30.9,27.3,32.5,26.7z"/>
		<path id="XMLID_1079_" class="st83" d="M29.2,24.7c-0.1-0.4-1.2-0.5-0.6-1c0.3-0.3,0.9-1,1.6-0.6c0.5,0.3,0.9,0.3,1.3,0.3
			c-0.3,0.2-0.7,0.4-1,0.7c-0.2,0.3-0.5,0.7-1,0.7C29.4,24.7,29.3,24.7,29.2,24.7z"/>
		<path id="XMLID_1078_" class="st97" d="M29.5,24.7c0.3-0.2,0.7-0.4,1-0.7c0.2,0.6,0.9,1.4-0.4,1.6c-0.6,0.1-0.5,0.9-1,1.2
			C28.6,26.1,30.1,25.6,29.5,24.7z"/>
		<path id="XMLID_1077_" class="st97" d="M35.1,26.4c-0.5,0-1-0.1-1.4,0.5c-0.5,0.8-0.8,0.1-1.2-0.2C33.3,26.1,34,25.3,35.1,26.4z"
			/>
		<path id="XMLID_1076_" class="st70" d="M27.2,25.4c-0.2-0.4-0.6-0.3-1-0.3c-0.1-0.1-0.1-0.2-0.1-0.4c0.3-0.3,0.6-0.6,0.8-0.9
			c0.1-0.1,0.2-0.1,0.4-0.2c0.1,0,0.1,0.1,0.2,0.1C27.6,24.4,27.9,25,27.2,25.4z"/>
		<path id="XMLID_1075_" class="st70" d="M26.6,23.1c0.4-0.4,0.9-0.5,1.3,0c0,0.3-0.1,0.5-0.3,0.7l0,0C27.3,23.4,26.5,24,26.6,23.1z
			"/>
		<path id="XMLID_1074_" class="st58" d="M26.6,23.1c0.3,0.2,0.7,0.4,1,0.7c-0.1,0-0.2,0-0.3,0c-0.1,0.1-0.2,0.2-0.3,0.3
			c-0.5,0.2-1.3,0-1.6,0.7c-0.9-0.4-1.3,0.4-2,0.7c-0.3-0.1-0.7,0.2-1,0c0-0.1,0-0.2,0-0.3c-0.1-0.8,0.6-0.9,1.1-1.2
			c0.4-0.2,0.7-0.4,1.1-0.6c0.4-0.2,0.8-0.3,1.2-0.5c0.1,0,0.1,0,0.2,0C26.1,22.9,26.4,23,26.6,23.1z"/>
		<path id="XMLID_1073_" class="st98" d="M28.6,21.2c-0.3,0.5-0.8,0.6-1.4,0.6c-0.2,0.1-0.5,0.1-0.7,0c0-1.1,0.7-1.2,1.6-1.2
			C28.4,20.8,28.6,21,28.6,21.2z"/>
		<path id="XMLID_1072_" class="st6" d="M26,22.5c0,0.1,0,0.2,0,0.3l0,0c-0.5,0.4-1,0.5-1.6,0.6c-0.4,0-0.7-0.1-0.8-0.5
			c0-0.3,0.1-0.5,0.3-0.6s0.5-0.2,0.7-0.2s0.3,0,0.5,0C25.4,22.1,25.7,22.2,26,22.5z"/>
		<path id="XMLID_1071_" class="st99" d="M26,22.5c-0.3,0-0.7,0-1,0c0.3-0.9,0.9-1,1.6-0.6c0.2,0,0.5,0,0.7,0.1
			C27.1,22.7,26.5,22.4,26,22.5z"/>
		<path id="XMLID_1070_" class="st100" d="M28.6,21.2c-0.1-0.1-0.3-0.3-0.4-0.4c0.1-0.5,0.3-0.5,0.7-0.3c0.2,0.1,0.5,0.2,0.7,0.4
			C29.3,21,28.9,21.1,28.6,21.2z"/>
		<path id="XMLID_1069_" class="st31" d="M28.9,20.5c-0.2,0.1-0.5,0.2-0.7,0.3c-0.6,0.2-1.3,0.3-1.6,1C26,21.9,25.4,22,25,22.4
			c-0.1,0-0.2,0-0.3,0c-0.3-1.4,1.2-1.3,1.7-2c0.6-0.4,1.1-1.4,2-0.7c0.2,0.1,0.4,0.2,0.5,0.4C28.9,20.3,28.9,20.4,28.9,20.5z"/>
		<path id="XMLID_1068_" class="st20" d="M28.9,20.2c-0.2,0-0.5,0-0.7,0c0-0.7,0.3-0.9,1-0.6c0,0.1,0,0.2,0,0.3c0,0.1,0,0.2,0,0.3
			C29.1,20.2,29,20.2,28.9,20.2z"/>
		<path id="XMLID_1067_" class="st101" d="M8,19.9c0.1-0.8,0.4-1.5,1.2-1.8c0.6-0.2,0.2-0.5,0.2-0.7c0.3-1.1,1.1-1.4,2.1-1.6
			c0.6-0.1,1.1-0.3,1.7-0.5c1.3-1.1,3-1.2,4.5-1.7c0.9,1.5,0.8,1.8-1.1,1.9c0.6,0.4,1.1,0.4,1.5,0.1c1.6-1,3.3-0.7,5-1
			c1-0.1,1.5,1.1,2.5,1.3c0.3,0.7-0.1,1.1-0.6,1.4c-0.1,0.1-0.3,0.1-0.5,0c-0.9-1.2-2-0.2-3-0.4c-0.5,0.1-1,0.2-1.5,0.3
			c-0.1,0-0.3,0.1-0.4,0.1c-1.3,0.1-2.5,0.7-3.9,0.6l0,0c-0.5,0.4-1.2,0.1-1.6,0.6c-0.1,0-0.2,0-0.3,0c-1.2,0-2.3,0.4-3.3,1
			C9.6,19.1,8.9,20.5,8,19.9z"/>
		<path id="XMLID_1066_" class="st71" d="M15.8,17.9c1.3-0.5,2.5-1,3.9-1c-0.2,1.2-1.6,0.4-2,1.3c-0.2,0.1-0.5,0.2-0.7,0.3
			C16.6,18.3,16.2,18.1,15.8,17.9z"/>
		<path id="XMLID_1065_" class="st62" d="M18.7,8.4c-0.6,0.1-1.3,0.5-1.9,0.3c-0.4-0.4,0.4-0.4,0.3-0.7c0.2-0.2,0.6-0.2,0.3-0.6l0,0
			c-0.2-0.2-0.2-0.4,0-0.6c0.1,0,0.2,0,0.3,0c0.5,0.1,1.1-0.1,1.6,0c0.1,0,0.2,0,0.3,0c0.1,0.1,0.1,0.1,0.1,0.2s-0.1,0.1-0.1,0.1
			C19.4,7.6,18.5,7.6,18.7,8.4z"/>
		<path id="XMLID_1064_" class="st58" d="M13.8,4.8c0.2,0,0.4,0,0.6,0c0.2,0.1,0.4,0.2,0.7,0.3c0.2,0.6-0.4,0.6-0.6,0.8
			C14.4,6,14.3,6,14.1,6.1c-0.4,0-0.8,0.1-0.9-0.4C13.1,5.3,13.7,5.2,13.8,4.8z"/>
		<path id="XMLID_1063_" class="st60" d="M17.4,6.8c0,0.2,0,0.4,0,0.6c-1,0-2-0.2-2.9-0.6c0.1-0.3,0.3-0.5,0.7-0.3
			C15.9,6.7,16.7,6.8,17.4,6.8z"/>
		<path id="XMLID_1062_" class="st58" d="M13.9,8.4c0.1,0,0.2,0,0.3,0c0.5-0.1,0.9-0.1,1.4-0.2c0.2,0.5-0.1,0.9-0.5,1.2
			C15,8.7,14.2,8.9,13.9,8.4z"/>
		<path id="XMLID_1061_" class="st102" d="M15.2,6.5c-0.2,0.1-0.4,0.2-0.7,0.3c-0.3-0.1-0.3-0.4-0.3-0.7c0-0.1,0-0.2,0-0.3
			C14.8,5.6,15.4,5.3,15.2,6.5C15.1,6.5,15.2,6.5,15.2,6.5z"/>
		<path id="XMLID_1060_" class="st22" d="M14.5,10.7c-0.2-0.1-0.2-0.2,0-0.3c0.2-0.2,0.3-0.5,0.7-0.6c0.1,0,0.2,0,0.3,0
			c0.1,0.4,0.7,0.6,0.2,1.1C15.3,11.1,14.9,11.1,14.5,10.7z"/>
		<path id="XMLID_1059_" class="st52" d="M15.8,10.7c-0.1-0.3-0.2-0.6-0.3-1c0.3,0.1,0.6,0.2,1,0.3c0,0.3-0.1,0.5-0.3,0.7
			C16,10.8,15.9,10.8,15.8,10.7z"/>
		<path id="XMLID_1058_" class="st20" d="M15.2,9.7c0,0.4-0.2,0.6-0.7,0.6c0-0.5,0-0.9,0.7-1C15.2,9.5,15.2,9.6,15.2,9.7z"/>
		<path id="XMLID_1057_" class="st22" d="M17.4,7.5c0.2,0.1,0.6,0,0.5,0.4c-0.1,0.3-0.5,0.2-0.8,0.2C17.2,7.9,17.3,7.7,17.4,7.5z"/>
		<path id="XMLID_1056_" class="st60" d="M18.7,4.5c0.1,1.3-0.7,0.7-1.3,0.6C17.8,4.7,18.2,4.6,18.7,4.5z"/>
		<path id="XMLID_1055_" class="st86" d="M15.1,6.5c0-0.7-0.5-0.7-1-0.6c0.3-0.2,0.6-0.4,1-0.7c0.2,0,0.4,0,0.7,0
			c0.2,0.4-0.2,0.7-0.3,1C15.4,6.2,15.3,6.4,15.1,6.5z"/>
		<path id="XMLID_1054_" class="st60" d="M15.5,6.1c0.1-0.3,0.2-0.7,0.3-1c0.2,0.1,0.4,0.2,0.6,0.3C16.1,5.7,15.8,5.9,15.5,6.1z"/>
		<path id="XMLID_1053_" class="st103" d="M11.9,31.3c0.4-0.5,1.1-0.7,1.6-1c0.8,0.6,1.8,0.7,2.7,1c0.4,0.1,0.8,0.1,0.9,0.7
			c-0.7,0.2-1.1,0.7-2.1,0c-1.2-0.8-0.6,0.8-0.8,1.3c-0.8,0.5-0.7-0.4-1-0.6l0,0C12.9,32,12.4,31.6,11.9,31.3z"/>
		<path id="XMLID_1052_" class="st79" d="M24.6,28.3c0,1.2,1.2,0.7,1.6,1.3c-1,0.3,0.1,0.7,0,1c0.1,0.1,0.1,0.2,0.1,0.2
			c0,0.1,0,0.1-0.1,0.1C26.1,31,25.9,31,25.8,31c-0.5-0.1-0.9-0.3-1.4-0.3c-0.7-0.4-1.9,0.5-2.1-0.9c0.1-0.1,0.2-0.2,0.3-0.3
			c0.7,0.1,1.1-0.3,1-1C23.9,28.3,24.2,28.1,24.6,28.3z"/>
		<path id="XMLID_1051_" class="st104" d="M22.3,30c0.5,1,1.7-0.1,2.3,0.7c0.4,0.5,0.3,0.9-0.3,1.1c-0.4,0.1-0.8,0.2-1.2,0.3
			c-0.8-0.2-1.6,0.1-2.3-0.4c0-0.2,0-0.4,0-0.7C21.3,30.7,21.9,30.5,22.3,30z"/>
		<path id="XMLID_1050_" class="st90" d="M15.8,29.3c0,0.2,0,0.4,0,0.7c-0.4-0.1-0.9-0.2-1.3-0.3c0.3-0.5,0.6-1,1.3-1
			C16,28.9,16,29.1,15.8,29.3z"/>
		<path id="XMLID_1049_" class="st76" d="M8.9,32.9c0.4-1.1,1.2-1.3,2.3-1c0,0.1,0,0.2,0,0.3C10.6,33.1,9.7,32.7,8.9,32.9z"/>
		<path id="XMLID_1048_" class="st72" d="M13.2,32.6c0.3,0.2,0.5,0.7,1,0.6C13.2,33.9,13.2,33.2,13.2,32.6z"/>
		<path id="XMLID_1047_" class="st63" d="M25.3,41.7c-1.3,1-2.2-0.3-3.2-0.7c-0.2-0.1-0.5-0.2-0.7-0.3c-0.1-0.1-0.2-0.3-0.2-0.4
			c0-0.2,0.1-0.3,0.2-0.4c0.2-0.1,0.4-0.1,0.7-0.1c1.1,0.4,2,1.1,3,1.7C25.2,41.6,25.2,41.7,25.3,41.7z"/>
		<path id="XMLID_1046_" class="st68" d="M27.2,42.7c-0.3-0.5-0.7-0.1-1,0c0-0.3-0.1-0.5-0.3-0.6c-0.1-0.1-0.1-0.1-0.1-0.2
			s0.1-0.1,0.1-0.1c0.5,0,1-0.1,1.4,0.1C28.1,42.1,28,42.5,27.2,42.7z"/>
		<path id="XMLID_1045_" class="st63" d="M18.1,40.7c0.7,0.1,1.3,0.4,2,0.3c0.3-0.3,0.7-0.3,1,0c-0.1,0.1-0.2,0.2-0.3,0.3
			c-0.7,0.5-1.3-0.1-2,0C18.5,41.2,18.3,41,18.1,40.7z"/>
		<path id="XMLID_1044_" class="st105" d="M21,41.1c-0.3,0-0.7,0-1,0c0-0.3,0-0.7,0-1c0.5-0.3,0.9,0,1.3,0.3c0,0.1,0,0.2,0,0.3
			C21.2,40.9,21.1,41,21,41.1z"/>
		<path id="XMLID_1043_" class="st63" d="M25.9,41.7c0,0.1,0,0.2,0,0.3c-0.2-0.1-0.4-0.2-0.6-0.3l0,0c0.3-0.5-0.6-0.6-0.3-1.1
			c0.1-0.1,0.3-0.1,0.4-0.1c0.3,0.1,0.6,0.1,0.5,0.6C25.9,41.3,25.9,41.5,25.9,41.7z"/>
		<path id="XMLID_1042_" class="st62" d="M26.6,45.6c0.4-0.6-0.5-0.8-0.3-1.3c0.8,0.4,1.9,0.6,1.6,2C27.4,46.2,26.7,46.5,26.6,45.6z
			"/>
		<path id="XMLID_1041_" class="st60" d="M19.7,7.1c0-0.1,0-0.2,0-0.3c0.9-1.1,2.1-0.6,3.3-0.6c-0.3,0.2-0.7,0.4-1,0.6
			C21.2,6.4,20.5,7.2,19.7,7.1z"/>
		<path id="XMLID_1040_" class="st20" d="M24.6,3.5c0,0.1,0,0.2,0,0.3c-1,0.2-0.9-0.9-1.3-1.3C24,2.5,24.6,2.7,24.6,3.5z"/>
		<path id="XMLID_1039_" class="st60" d="M19.4,6.8c-0.5,0.2-1.1,0.6-1.6,0C18.3,6.3,18.8,6.3,19.4,6.8z"/>
		<path id="XMLID_1038_" class="st97" d="M29.5,37.5c0.3,0.6,1.8,1.4-0.3,1.7C28.8,39.3,29,39.7,29,40c0,0.4,0.2,0.6,0.5,0.7
			c0.4,0.1,0.9,0,1.3,0.1c-0.8,0.7-1.8,0.5-2.6,0.5c-1.5-0.2-0.8-1.5-0.7-2.4c0-0.1,0.1-0.1,0.1-0.2C28.1,37.9,28.5,37.1,29.5,37.5z
			"/>
		<path id="XMLID_1037_" class="st106" d="M25.9,41.1c-0.1-0.3-0.4-0.3-0.7-0.3c0.2-0.6-0.4-1.4,0.4-1.9c0.4-0.2,0.8-0.6,1.2-0.7
			c0.6-0.2,1-0.1,0.7,0.7l0,0C26.5,39.2,27.2,40.8,25.9,41.1z"/>
		<path id="XMLID_1036_" class="st107" d="M28.9,45.2c-0.1-0.1-0.2-0.3-0.3-0.5c0-0.3,0.2-0.3,0.4-0.3c0.3,0,0.3,0.2,0.3,0.4
			C29.5,45.1,29.3,45.2,28.9,45.2z"/>
		<path id="XMLID_1035_" class="st72" d="M7.6,18.5c-0.3,0.4-0.7,0.4-1,0C7,18.5,7.3,18,7.6,18.5z"/>
		<path id="XMLID_1034_" class="st72" d="M27.2,33.2c-0.3,0.6-0.5,1.3-0.3,2c-0.1,0.1-0.2,0.1-0.3,0.1c-0.1-0.5-0.4-0.4-0.8-0.3
			c-0.6-0.1-1.1,0.2-1.6,0.4c-0.2,0-0.3,0-0.5-0.1c-0.8-0.4-1.4-0.9-0.7-1.9c0.7-0.1,1.2-0.2,1.4-1c0.1-0.5,0.4-1.1,1.1-1.2
			c0.9,0.7,1.3,1.4-0.1,2.3c0.6-0.3,1-0.4,1.5-0.3C27,33.2,27.1,33.2,27.2,33.2z"/>
		<path id="XMLID_1033_" class="st83" d="M26.9,33.2c-0.2,0.3-0.4,0.4-0.7,0.3c-0.5-0.2-0.4,1-0.9,0.4c-0.4-0.5,0-0.8,0.5-1.1
			c0.9-0.6-0.2-1.1-0.2-1.6c0-0.2,0.2-0.2,0.3-0.3c0.1,0,0.2,0,0.3,0c0.5,0.2,0.8,0.4,0.7,1C27.2,32.4,27.2,32.8,26.9,33.2z"/>
		<path id="XMLID_1032_" class="st72" d="M31.1,29.6c-0.1,0.3-0.3,0.5-0.7,0.6c-0.3-0.2-0.6-0.4-0.9-0.6
			C30.2,29.1,30.7,29.4,31.1,29.6z"/>
		<path id="XMLID_1031_" class="st108" d="M26.9,31.9c-0.2-0.3-0.4-0.7-0.7-1c0-0.1,0-0.2,0-0.3c0.4,0.1,0.9,0.2,1.3,0.3l0,0
			C27.6,31.4,27.3,31.7,26.9,31.9z"/>
		<path id="XMLID_1030_" class="st109" d="M27.6,31c0.3-1.1,1-0.5,1.6-0.5C28.6,30.6,28.1,30.8,27.6,31L27.6,31z"/>
		<path id="XMLID_1029_" class="st81" d="M19.1,20.8c0-0.4,0.1-0.7-0.3-1c0.1-0.3,0.3-0.5,0.6-0.7c0.4-0.1,0.1-0.6,0.3-0.8
			c0.2-0.1,0.3-0.2,0.5-0.3c0.3-0.1,0.7-0.2,1-0.3c0.5-0.1,0.7-0.7,1.3-0.7c0.6,0.2,0.8,0.7,0.7,1.3c-0.1,0.2-0.2,0.4-0.3,0.6
			c-0.3,0.4-0.7,0.8-1.1,1.2C20.9,20.2,20.1,21.2,19.1,20.8z"/>
		<path id="XMLID_1028_" class="st33" d="M17.7,18.2c0.3-1,1.5-0.6,2-1.3c0.1,0,0.2,0,0.3,0c0.2,0.1,0.2,0.3,0.2,0.6
			c-0.1,0.2-0.2,0.4-0.3,0.5c-0.3,0.2-0.3,0.6-0.5,0.8c-0.2,0-0.4,0-0.7,0C19.2,17.5,18.2,18.3,17.7,18.2z"/>
		<path id="XMLID_1027_" class="st63" d="M19.4,18.9c0-0.4-0.1-0.8,0.3-1c0.2,0.2,0.2,0.4,0,0.7c0.1,0.3,0.4,0.5,0.1,0.8
			c-0.2,0.2-0.3,0-0.5-0.1C19.4,19.1,19.4,19,19.4,18.9z"/>
		<path id="XMLID_1026_" class="st59" d="M25.6,15.9c-0.7,0-1.3,0-1.9-0.8c-0.4-0.6-1.6,0.1-2.5,0.1c-1.4-0.1-2.5,0.7-3.8,1
			c-0.5,0.1-1.1,0.3-1.5-0.3c-0.2-0.4,0.1-0.6,0.3-0.8c0.6-0.7,1-0.1,1.5,0.1c0-0.5,0-1,0-1.5c0.4-0.2,0.7,0,1.1,0.2
			c1,0.8,1.2-0.2,1.7-0.7c0.2-0.2,0.3-0.3,0.6-0.3c1.2,0,2.5,0.6,3.6-0.5c0.5-0.2,1.1-0.4,1.6-0.7c1.5-1.1,3.2-0.7,4.9-0.7
			c0.8,0.2,1.5-0.5,2.3,0c0.1,0.7-0.6,0.8-1,1.1c-1.4,0.9-3,1.5-4.6,2.2c2,0.8,3.9,0.5,5.8,0.5c0.8,0,1.5-0.2,2.1,0.5
			c0,0.1,0,0.2,0,0.3c0.1,0.3,0.3,0.7-0.3,0.6c-0.5,0-0.9,0.1-1.4,0.3c-0.8-0.4-1.7-0.5-2.5,0c-1,0.6-1.8-0.2-2.8-0.2
			c-0.3,0-0.6,0-1,0c-0.2,0-0.3,0-0.5,0C26.7,16.4,26.1,16.4,25.6,15.9z"/>
		<path id="XMLID_1025_" class="st106" d="M28.9,15.9c1.2,0.5,2.4,0.7,3.5,0c0.9-0.6,1.3,0,1.7,0.7c0.1,0.2,0.2,0.4,0.3,0.6
			c-1.1-0.5-2.1-0.2-2.9,0.7c-0.6,0.1-1.2,0.2-1.7,0.3c-0.4,0.1-0.6,0.3-0.2,0.6c0,0.3-0.1,0.5-0.3,0.7c-0.5,0-0.8,0.2-1,0.6
			c-0.8-1.1-1,0.5-1.6,0.3c-0.6-0.3-1.2,0.9-1.8,0.1c-1.2-1.6-1.2-1.6,0.4-2.5c0.4-0.5,0.9-0.2,1.3,0c0.5,0.3,1,0.4,1.4-0.1
			c1.1-0.6,1.1-0.6,2.3-0.6C29.2,17.3,28.3,17.2,28.9,15.9z"/>
		<path id="XMLID_1024_" class="st110" d="M10.3,12.7c1-0.6,2.4-0.4,3.3-1.3l0,0c0.6-0.3,1-0.3,1.2,0.4c0.1,0.5-0.1,0.9-0.6,1.1
			c-0.4,0.1-0.8,0.3-1.2,0.4c-0.5,0-0.9,0.2-1.1,0.8c-0.2,0.5-0.6,0.6-0.9,0.9c-0.7,0.9-2.1,0.8-2.5,2.1c-0.1,0.3-1,0.2-0.9-0.2
			c0.5-2-1.2-0.6-1.6-1.1C7.2,14.4,8.5,13.3,10.3,12.7z"/>
		<path id="XMLID_1023_" class="st103" d="M11.6,14c0.2-0.4,0.1-1.2,1-1c0.7,0.8,1.6,0.5,2.4,0.4c0.2,0,0.5,0.1,0.4-0.3
			c-0.5-1.8,1.3-1.7,1.8-1.5c1.2,0.4,2.3,0.4,3.5,0.2c0.3,0.1,0.6,0.2,0.8,0.5c0.1,0.4-0.1,0.6-0.4,0.7c-0.1,0.1-0.2,0.2-0.3,0.3
			c-0.6,0.4-1.1,1-2,0.7c-0.3-0.1-0.7-0.2-1-0.3c-1.3,1.1-3.1,1-4.6,1.6c0.1-0.2,0.3-0.6,0.2-0.7c-0.4-0.4-0.7,0.2-1.1,0.1
			C11.9,14.5,11.8,14.2,11.6,14z"/>
		<path id="XMLID_1022_" class="st111" d="M11.6,14c0.4,0,0.6,0.2,0.7,0.7C12,15.2,11.4,15,11,15C11.1,14.6,11.3,14.3,11.6,14z"/>
		<path id="XMLID_1021_" class="st90" d="M21.4,40.4c-0.5,0.1-0.9-0.1-1.3-0.3c-0.6-0.2-0.8-1-1.7-1.1c-0.4,0,0.1-0.4,0.4-0.5
			c0.2-0.2,0.3-0.4,0.2-0.7c-0.6-1.5-0.5-1.8,1.1-2.5c0.2-0.5,0.4-1.1,0.7-1.6c1.1,0,1.8,0.7,1.9,2.2c-0.8,1.3-1.9,2.6-1.3,4.3
			C21.4,40.2,21.4,40.3,21.4,40.4z"/>
		<path id="XMLID_1020_" class="st73" d="M20,35.2c-0.1,0.6-0.9,0.5-1.1,1.1c-0.1,0.4-0.6,0.6,0.2,1c1,0.5-0.1,0.8-0.4,1.2
			c-1.4-1.3-0.5-2.5,0.3-3.6C19.4,35,19.7,35.1,20,35.2z"/>
		<path id="XMLID_1019_" class="st73" d="M22.3,35.8c0-1.2-0.9-1.6-1.6-2.3c0.2-0.2,0.4-0.4,0.7-0.7c0.6-0.3,1.1-1,2-0.7
			c0.4,0.4,0.3,0.9,0,1.3c-0.9,1,0.4,1.1,0.7,1.6C23.3,35.2,23.1,36.2,22.3,35.8z"/>
		<path id="XMLID_1018_" class="st57" d="M23,32.3c-0.6,0.1-0.8,1.2-1.6,0.7c-0.3,0-0.5-0.1-0.6-0.3c0.5-0.5,0.1-0.6-0.3-0.7
			c0.1-0.1,0.2-0.2,0.3-0.3c0.8,0.2,1.6-0.5,2.3,0.3c0.1,0.1,0.1,0.1,0.1,0.2C23,32.2,23,32.3,23,32.3z"/>
		<path id="XMLID_1017_" class="st105" d="M20.7,12c-1.2,0.6-2.2,0.6-3.4-0.2c-0.4-0.3-1.1,0.8-1.9,0.4c-0.3,0.8,1.2,1.1,0.3,1.7
			c-0.9,0.7-2.9,0.1-3.2-0.9c0.4-0.2,0.7-0.4,1.1-0.5c0.3-0.1,0.8,0.1,0.8-0.5c0-0.7-0.5-0.7-1-0.7c0.3-0.2,0.7-0.4,1-0.7
			c0.4,0,0.9,0,1.3,0c0.1,0,0.2,0,0.3,0c0.5,0.5,1.1,0.3,1.6,0.3c1.2-0.6,2,0.2,2.9,0.7c0.1,0.1,0.1,0.1,0.1,0.2
			C20.8,12,20.7,12,20.7,12z"/>
		<path id="XMLID_1016_" class="st90" d="M27.6,38.8c-0.1-0.4-0.2-0.8-0.6-0.3c-0.4,0.5-0.8,0.6-1.3,0.6c-0.7-0.7-0.7-1.3,0.2-1.8
			c0.9,0.1,0.9-0.9,1.5-1.2c0.2,0,0.4,0,0.6,0c0.1,0.3-0.2,1.2,0.6,0.6c0.5-0.4,0.9,0.1,1.3,0c0,0.3-0.1,0.5-0.3,0.7
			C28.5,37.4,28.6,38.9,27.6,38.8z"/>
		<path id="XMLID_1015_" class="st72" d="M27.2,36.2c0.1,0.9-0.3,1.4-1.3,1.3c-0.4,0-0.8,0-1.1-0.5c0-0.1,0-0.3,0.1-0.4
			c0.3-0.3,0.5-0.6,0.8-1c0.2-0.2,0.4-0.7,0.8-0.5c0.1,0,0.2,0,0.3,0C26.5,35.7,27,35.9,27.2,36.2z"/>
		<path id="XMLID_1014_" class="st112" d="M35.7,15.3c-1.6-0.1-3.1-0.1-4.7,0.1c-1.2,0.2-2.4-0.6-3.6-0.5c-0.2,0-0.4-0.2-0.4-0.5
			c0-0.4,0.4-0.6,0.7-0.6c2.1-0.6,4-1.7,5.8-2.8c0.6-0.1,1.2-0.2,1.6-0.7c1.6-0.5,3.1-0.7,4.8-0.6c0.8,0,1.1,0.4,1.4,0.9
			c0.1,0,0.2,0,0.3,0c0.4,0.5,0.2,1.2,0.6,1.6l0,0C40.9,15.2,38.5,15.6,35.7,15.3z"/>
		<path id="XMLID_1013_" class="st73" d="M42.2,12.3c-0.8-0.3-0.9-0.9-0.6-1.6c0.2,0.1,0.4,0.2,0.7,0.3
			C42.6,11.5,42.3,11.9,42.2,12.3z"/>
		<path id="XMLID_1012_" class="st52" d="M18.1,10.4c-0.1,0.1-0.2,0.2-0.3,0.3c-0.3-0.1-0.8,0.2-0.8-0.5c0-0.6,0.5-0.6,0.8-0.8
			C17.9,9.8,17.2,10.3,18.1,10.4z"/>
		<path id="XMLID_1011_" class="st113" d="M21,13c0.1-0.2,0.2-0.4,0.3-0.7c-0.3-0.4-0.1-0.9,0.3-0.8c1.1,0.3,0.4-0.7,0.7-0.8
			c0.2,0,0.4,0,0.6,0c1,0.1,0.7,1.4,1.6,1.6C23.8,14.5,22.3,13.1,21,13z"/>
		<path id="XMLID_1010_" class="st60" d="M22.3,10.7c0.1,0.4,0.3,0.9,0.4,1.4c-0.5,0.2-1.2-1.2-1.4,0.2c-0.2-0.1-0.4-0.2-0.7-0.3
			c0-0.1,0-0.2,0-0.3C20.7,10.4,21.8,11,22.3,10.7z"/>
		<path id="XMLID_1009_" class="st70" d="M31.1,11c-1.6,0.2-3.3,0.4-4.9,0.7c0.2-0.5,0.3-1.2,1-1.3c0.2-0.1,0.4-0.2,0.6-0.3
			c1,0.5,2.1,0.8,3.3,0.7C31.1,10.8,31.1,10.9,31.1,11z"/>
		<path id="XMLID_1008_" class="st113" d="M24.8,11.4c0.1-0.1,0.3-0.2,0.4-0.2c0.2,0,0.3,0.2,0.2,0.3c-0.1,0.1-0.3,0.1-0.4,0.1
			C25,11.6,24.9,11.5,24.8,11.4z"/>
		<path id="XMLID_1007_" class="st20" d="M23.6,24.1c-0.3,0.5-1.1,0.3-1.3,1c-1.2,0.2-1.2,1.1-1.2,1.7c0.8-1-2.6,0.7-1.1-1.1
			c-0.1-0.2,0-0.3,0.1-0.5c-0.2-0.4-0.4,0.1-0.7,0c-0.2,0-0.3,0-0.4-0.1c-0.3,0-0.6,0-1.4,0c0.9-0.4,1.2-0.9,1.8-1
			c0.1-0.1,0.1-0.3,0.3-0.3c0.8,0.1,1.1-0.4,1.3-1c0.1,0,0.1,0,0.2-0.1c0.5,0.2,1.1,0.2,1.5,0.5S23.4,23.7,23.6,24.1z"/>
		<path id="XMLID_1006_" class="st114" d="M19.1,25.7c-0.1,0.6-0.2,1.2-0.7,1.6c-0.2,0.2-0.4,0.2-0.7,0c-0.2-0.3-0.8-0.4-0.7-0.1
			c0.1,0.8-0.7,0.7-0.9,1.1c-0.1,0.1-0.2,0.1-0.3,0c-0.1-0.6-0.6-0.9-1-1.3c0-0.1,0-0.2,0-0.3c0.3-0.3,0.5-0.5,1-0.3
			c1.1,0.3,1.5-1.2,2.6-1C18.6,25.6,18.9,25.5,19.1,25.7z"/>
		<path id="XMLID_1005_" class="st113" d="M19.1,20.8c0.9-0.3,1.7-0.7,2.6-1c0.5-0.3,0.8-0.1,0.8,0.4c-0.1,0.6-0.1,1.1,0.1,1.7
			c0.3,1-1,0.5-1.5,0.8l0,0C20.5,22,19.5,21.7,19.1,20.8z"/>
		<path id="XMLID_1004_" class="st107" d="M14.2,26.4c-0.2,0.2-0.5,0.4-0.7,0.6c-0.5,0.4-1,0.5-1.4,0.1c-0.5-0.6,0.6-0.5,0.5-1
			c0.4-0.1,0.9-0.2,1.3-0.3C14.1,25.9,14.3,26,14.2,26.4z"/>
		<path id="XMLID_1003_" class="st109" d="M14.2,26.4c-0.1-0.2-0.2-0.4-0.3-0.7c1.2-0.6,1.2-0.6,2,0.7c-0.3,0.1-0.7,0.2-1,0.3
			C14.8,26.1,14.5,26.2,14.2,26.4z"/>
		<path id="XMLID_1002_" class="st83" d="M19.1,25.7c-0.3,0-0.5-0.1-0.7-0.3c0.3,0,0.5-0.1,0.7-0.3c0.1,0,0.2,0,0.3,0
			c0.4-0.1,0.9-0.5,1,0.3c-0.1,0.1-0.2,0.2-0.3,0.3C19.7,25.7,19.4,25.7,19.1,25.7z"/>
		<path id="XMLID_1001_" class="st110" d="M14.2,23.8c0.4,0,0.9,0,1.4,0C14.4,24.5,14.4,24.5,14.2,23.8L14.2,23.8z"/>
		<path id="XMLID_1000_" class="st81" d="M19.7,23.8c-0.1,0.1-0.2,0.2-0.3,0.3c0-0.3-0.7-0.5-0.3-0.9C19.3,23.1,19.6,23.5,19.7,23.8
			z"/>
		<path id="XMLID_999_" class="st55" d="M9.3,27.7c0.8-0.3,0.2-0.7,0-1c0.4,0,0.9,0,1,0.6c0,0.3,0,0.7-0.4,0.8
			C9.6,28.2,9.4,27.9,9.3,27.7z"/>
		<path id="XMLID_998_" class="st83" d="M8.6,27.4c0.1,0.1,0.2,0.2,0.3,0.3c0,0.2,0,0.4,0,0.7C8.1,28.3,8.4,27.8,8.6,27.4z"/>
		<path id="XMLID_997_" class="st69" d="M15.8,28.3c0.1,0,0.2,0,0.3,0c0.5,0,0.9,0,1.4,0.5c-0.6,0.3-1.3,0.1-1.7,0.5
			c0-0.2,0-0.4,0-0.7C15.8,28.6,15.8,28.5,15.8,28.3z"/>
		<path id="XMLID_996_" class="st108" d="M24.6,28.3c-0.3,0.1-0.7,0.2-1,0.3c-0.4-0.1-0.6-0.1-0.3-0.7s0.9-0.7,1.3-0.9
			c0.3,0.3,0.5,0.6,0.3,1C24.8,28.1,24.7,28.2,24.6,28.3z"/>
		<path id="XMLID_995_" class="st79" d="M24.9,28c-0.1-0.3-0.2-0.7-0.3-1c0.4-0.2-0.2-0.9,0.4-0.8c0.5,0,0.5,0.5,0.6,0.8
			C25.3,27.3,25.5,27.9,24.9,28z"/>
		<path id="XMLID_994_" class="st80" d="M17.8,27.4c0.2,0,0.4,0,0.7,0c-0.1,0.4,0.5,0.8,0.1,1.1c0,0-0.3-0.2-0.5-0.3
			C17.1,28.1,17.7,27.7,17.8,27.4z"/>
		<path id="XMLID_993_" class="st70" d="M25.3,24.7c-0.2-1.6,1.1-0.7,1.6-1c0.2,0.5-0.3,0.5-0.5,0.7c-0.3,0.1-0.5,0.3-0.8,0.3
			C25.5,24.7,25.4,24.7,25.3,24.7z"/>
		<path id="XMLID_992_" class="st58" d="M25.6,24.7c0.1-0.3,0.4-0.3,0.7-0.3c0.1,0.1,0.1,0.1,0.1,0.2s-0.1,0.1-0.1,0.1
			c0,0.1,0,0.2,0,0.3C25.7,25.6,25.7,25.2,25.6,24.7z"/>
		<path id="XMLID_991_" class="st20" d="M22.3,25.4c0.3-0.1,0.7-0.5,1,0C23,25.8,22.7,25.8,22.3,25.4z"/>
		<path id="XMLID_990_" class="st83" d="M26.2,24.7c0-0.1,0-0.2,0-0.3c0.2-0.2,0.4-0.4,0.7-0.7c0.1,0,0.2,0,0.3,0
			C27.2,24.4,26.9,24.7,26.2,24.7z"/>
		<path id="XMLID_989_" class="st88" d="M23.6,24.1c-0.5,0-0.8-0.2-1-0.7c0-0.7,0.3-1,1-0.7C23.7,23,24,23,24.3,23
			c0.1,0.1,0.3,0.1,0.3,0.3C24.3,23.7,24,23.9,23.6,24.1z"/>
		<path id="XMLID_988_" class="st31" d="M24.6,23.4c-0.1-0.1-0.2-0.2-0.3-0.3c0.5-0.1,1.1-0.2,1.6-0.3
			C25.7,23.4,25.2,23.5,24.6,23.4z"/>
		<path id="XMLID_987_" class="st104" d="M23.6,22.8c-0.5,0-0.8,0.2-1,0.7c-0.5-0.4-1.2,0-1.6-0.6c0.1-0.9,1.1-0.1,1.4-0.8
			c-0.9-0.2-1.2-0.7-0.5-1.4c0.5-0.5,0.2-0.6-0.3-0.7c0.3-0.3,0.7-0.7,1-1c0.6,0.6,1.4,0.9,2,1.6c-0.3,0.7-0.2,1.5-0.7,2
			C23.8,22.6,23.7,22.7,23.6,22.8z"/>
		<path id="XMLID_986_" class="st63" d="M24,22.5c-0.1-0.7-0.1-1.5,0.7-1.9c0.1-0.1,0.2-0.1,0.3,0c0.3,0.1,0.7,0.3,0.8-0.1
			c0.5-1.3,0.6-0.1,0.8,0.1c-0.2,1.1-1.7,0.9-2,2C24.4,22.5,24.2,22.5,24,22.5z"/>
		<path id="XMLID_985_" class="st115" d="M27.9,18.2c-0.2,0.9-0.8,0.7-1.4,0.4c-0.4-0.2-0.7-0.7-1.3-0.4c-0.8-0.1-0.6-0.5-0.3-1
			c0.2-0.5,0.7-0.7,0.7-1.3c0.7,0,1.3,0,2,0c0.2,0.4,0,0.6-0.1,1c-0.1,0.2-0.2,0.4-0.1,0.6C27.5,17.8,27.8,17.9,27.9,18.2z"/>
		<path id="XMLID_984_" class="st113" d="M24.9,17.2c0,0.4-0.1,0.7,0.3,1c0,0.1,0.1,0.3,0.1,0.3c-1,0.7-1,0.7-0.4,2
			c-0.1,0-0.2,0-0.3,0c-0.7-0.5-1.9-0.3-2-1.6c0.1-0.1,0.2-0.2,0.3-0.3c0.5-0.5,0.7-1.3,1.6-1.3C24.7,17.2,24.8,17.2,24.9,17.2z"/>
		<path id="XMLID_983_" class="st70" d="M24.6,17.2c-0.5,0.5-0.9,1.1-1.6,1.3c0-0.6-0.1-1.1-0.7-1.3c-0.4,0.3-0.6,0.2-0.8-0.2
			c0-0.2,0-0.3,0.1-0.5c0.5-0.2,1,0,1.6-0.3C23.9,16.1,24.7,16.1,24.6,17.2z"/>
		<path id="XMLID_982_" class="st63" d="M21.7,16.6c0,0.1,0,0.2,0,0.3c-0.4,0.5-0.9,0.9-1.6,0.7c0-0.2,0-0.4,0-0.6
			C20.5,16.6,21.1,16.5,21.7,16.6z"/>
		<path id="XMLID_981_" class="st56" d="M23,32.3c0-0.1,0-0.2,0-0.3c0.1-0.7,0.5-0.7,1-0.6c0.7,0.2,0.6-0.3,0.6-0.7
			c0.6-0.5,0.9-0.1,1.3,0.3c-0.1,0.1-0.2,0.2-0.3,0.3c-0.3,0.5-0.6,1.1-0.8,1.6c-0.3,0.7-0.7,1-1.4,0.7C23.3,33.1,23.5,32.6,23,32.3
			z"/>
		<path id="XMLID_980_" class="st97" d="M26.6,35.2c-0.2,0.2-0.4,0.4-0.6,0.7c-0.4,0.2-0.6,0.8-1,1l0,0c-0.2,0.3-0.5,0.5-0.7,0.8
			c-0.3,0.6-0.9,0.9-1.4,1.3c-0.5,0.2-0.6,0.7-0.8,1.1c-0.2,0-0.4,0-0.6,0c-0.5-0.8-1.5-1.5-0.2-2.4c0.1-0.1,0.2-0.2,0.2-0.2
			c-1.2-1.4,1.1-0.8,0.9-1.6c0.4-0.6,0.9-0.9,1.6-0.7c0.1,0,0.2,0,0.3,0c0.5-0.4,1.1-0.3,1.6-0.3C26.3,34.7,26.6,34.6,26.6,35.2z"/>
		<path id="XMLID_979_" class="st105" d="M22,40.1c-0.2-0.7,0-1.1,0.7-1.3c0.1,0,0.1,0,0.2,0c0.5,0.1,1,0.1,1.5,0.2
			c0.6,0.4,0.4,1.1,0.6,1.7c0.2,0.3,0.7,0.5,0.3,1C23.9,41.7,23.1,40.6,22,40.1z"/>
		<path id="XMLID_978_" class="st70" d="M24.9,40.7c-1.2-0.2,0.1-1.3-0.7-1.6C24.1,39,24,38.9,24,38.7c0.1-0.4,0.2-0.9-0.2-1.2
			c0-0.7,0.5-0.7,1-0.7c0.3,0.2,0.7,0.4,1,0.7c-0.8,0.4-0.5,1-0.3,1.6c0.7,0.7,0.1,1.1-0.3,1.6C25.2,40.7,25.1,40.7,24.9,40.7z"/>
		<path id="XMLID_977_" class="st20" d="M25.9,34.9c-0.5,0.5-1.1,0.3-1.6,0.3C24.7,34.5,25.2,34.3,25.9,34.9z"/>
		<path id="XMLID_976_" class="st71" d="M20,17.6c0.5-0.2,1.1-0.4,1.6-0.7c0.1,0.3,0.4,0.3,0.7,0.3c-0.2,0.4-0.3,1-1,1
			c-0.5-0.4-0.7,0-1,0.3c-0.2,0-0.4,0-0.6,0c0-0.2,0-0.4,0-0.7C19.8,17.8,19.9,17.7,20,17.6z"/>
		<path id="XMLID_975_" class="st63" d="M20.4,18.5c0-0.3,0.1-0.7,0.4-0.8c0.3-0.1,0.4,0.2,0.6,0.5C21,18.3,20.7,18.4,20.4,18.5z"/>
		<path id="XMLID_974_" class="st90" d="M27.9,18.2c-0.5,0-0.8-0.2-1-0.7c0.2-0.5,0.9-0.2,1-0.7c-0.1-0.3-0.2-0.6,0-0.9
			c0.3,0,0.7,0,1,0c0,1.4,1.2,1.2,2.1,1.5C29.9,17.7,28.9,17.9,27.9,18.2z"/>
		<path id="XMLID_973_" class="st101" d="M18.7,14c0.7-0.2,1.3-0.4,2-0.7C19.8,14.9,19.6,15,18.7,14z"/>
		<path id="XMLID_972_" class="st106" d="M27.9,15.9c0.1,0.3,0.2,0.7,0.3,1c-0.3,0.2-0.7,0.2-1,0c0.1-0.3,0.2-0.7,0.3-1
			C27.7,15.9,27.8,15.9,27.9,15.9z"/>
		<path id="XMLID_971_" class="st70" d="M24.9,36.8c0.2-0.4,0.3-1,1-1C25.7,36.3,25.6,36.8,24.9,36.8z"/>
		<path id="XMLID_970_" class="st73" d="M20.4,25.4c-0.2-0.4-0.6-0.3-1-0.3c0.4-0.4,0.9-1,1.4-0.2C21.1,25.2,20.7,25.3,20.4,25.4z"
			/>
		<path id="XMLID_969_" class="st116" d="M27.2,16.9c0.3,0,0.7,0,1,0c0.2,0.8,0.2,0.9-0.3,0.7c-0.4-0.2-0.7,0-1.1,0
			C26.4,17,26.8,17,27.2,16.9z"/>
		<path id="XMLID_968_" class="st72" d="M24,37.5c1.2,0.2,1,0.7,0.3,1.3c-0.5,0.4-1.1,0.3-1.6,0l0,0C23.1,38.3,23.5,37.9,24,37.5z"
			/>
		<path id="XMLID_967_" class="st117" d="M22.7,38.8c0.5,0,1.1,0,1.6,0c0,0.1,0,0.2,0,0.3C23.6,39.5,23.1,39.3,22.7,38.8z"/>
	</g>
</g>
</svg>
