<?xml version="1.0" encoding="utf-8"?>
<!-- Generator: Adobe Illustrator 23.0.1, SVG Export Plug-In . SVG Version: 6.00 Build 0)  -->
<svg version="1.1" id="Layer_1" xmlns="http://www.w3.org/2000/svg" xmlns:xlink="http://www.w3.org/1999/xlink" x="0px" y="0px"
	 viewBox="0 0 20.02 22.53" style="enable-background:new 0 0 20.02 22.53;" xml:space="preserve">
<g>
	<path id="XMLID_6_" d="M9.73,17.9c0-0.11,0-0.11,0-0.22c-0.22-0.11-0.44-0.22-0.66-0.33H8.96v-1.77l0,0
		c0.22-0.33,0.44-0.66,0.44-1.1v-2.32c0-1.44-1.1-2.54-2.54-2.54H6.42c-1.44-0.11-2.54,0.99-2.54,2.43v2.32
		c0,0.44,0.11,0.77,0.44,1.1l0,0v1.77H4.21c-0.66,0.33-1.88,1.1-3.09,1.99c-0.33,0.44-0.55,0.88-0.55,1.32v1.55
		c0,0.33,0.22,0.44,0.44,0.44s0.44-0.22,0.44-0.44v-1.55c0-0.22,0.11-0.33,0.22-0.55c1.32-1.1,2.65-1.77,3.2-2.1
		c0.22-0.11,0.33-0.33,0.33-0.55v-2.21c0-0.11-0.11-0.33-0.22-0.33c-0.22-0.11-0.22-0.33-0.22-0.44v-2.32
		c0-0.88,0.77-1.66,1.66-1.66h0.55c0.88,0,1.66,0.77,1.66,1.66v2.32c0,0.22-0.11,0.33-0.22,0.44c-0.11,0.11-0.22,0.22-0.22,0.33
		v2.21c0,0.22,0.11,0.44,0.33,0.55c0.22,0.11,0.66,0.33,1.32,0.77V17.9H9.73z"/>
	<path id="XMLID_4_" d="M9.16,8.29c0-0.11,0-0.11,0-0.22C8.94,7.96,8.72,7.85,8.5,7.73H8.39V5.97l0,0c0.22-0.33,0.44-0.66,0.44-1.1
		V2.55c0-1.44-1.1-2.54-2.54-2.54H5.85C4.42-0.1,3.31,1,3.31,2.44v2.32c0,0.44,0.11,0.77,0.44,1.1l0,0v1.77H3.64
		c-0.66,0.33-1.88,1.1-3.09,1.99C0.22,10.05,0,10.49,0,10.94v1.55c0,0.33,0.22,0.44,0.44,0.44s0.44-0.22,0.44-0.44v-1.55
		c0-0.22,0.11-0.33,0.22-0.55c1.32-1.1,2.65-1.77,3.2-2.1c0.22-0.11,0.33-0.33,0.33-0.55V5.53c0-0.11-0.11-0.33-0.22-0.33
		C4.19,5.09,4.19,4.86,4.19,4.75V2.44c0-0.88,0.77-1.66,1.66-1.66H6.4c0.88,0,1.66,0.77,1.66,1.66v2.32c0,0.22-0.11,0.33-0.22,0.44
		C7.73,5.31,7.62,5.42,7.62,5.53v2.21c0,0.22,0.11,0.44,0.33,0.55C8.17,8.4,8.61,8.62,9.27,9.06V8.29H9.16z"/>
	<path id="XMLID_5_" d="M10.75,11.43c0-0.11,0-0.11,0-0.22c0.22-0.11,0.44-0.22,0.66-0.33h0.11V9.12l0,0
		c-0.22-0.33-0.44-0.66-0.44-1.1V5.69c0-1.44,1.1-2.54,2.54-2.54h0.55c1.44,0,2.54,1.1,2.54,2.54v2.32c0,0.44-0.11,0.77-0.44,1.1
		l0,0v1.77h0.11c0.66,0.33,1.88,1.1,3.09,1.99c0.33,0.33,0.55,0.77,0.55,1.21v1.55c0,0.22-0.22,0.44-0.44,0.44
		c-0.22,0-0.44-0.22-0.44-0.44v-1.55c0-0.22-0.11-0.33-0.22-0.55c-1.32-1.1-2.65-1.77-3.2-2.1c-0.22-0.11-0.33-0.33-0.33-0.55V8.67
		c0-0.11,0.11-0.33,0.22-0.33c0.22-0.11,0.22-0.33,0.22-0.44V5.58c0-0.88-0.77-1.66-1.66-1.66h-0.55c-0.88,0-1.66,0.77-1.66,1.66
		V7.9c0,0.22,0.11,0.33,0.22,0.44c0.11,0.11,0.22,0.22,0.22,0.33v2.21c0,0.22-0.11,0.44-0.33,0.55c-0.22,0.11-0.66,0.33-1.32,0.77
		L10.75,11.43z"/>
</g>
</svg>
