<?xml version="1.0" encoding="utf-8"?>
<!-- Generator: Adobe Illustrator 19.0.0, SVG Export Plug-In . SVG Version: 6.00 Build 0)  -->
<svg version="1.1" id="Isolation_Mode" xmlns="http://www.w3.org/2000/svg" xmlns:xlink="http://www.w3.org/1999/xlink" x="0px"
	 y="0px" width="87.8px" height="87.8px" viewBox="-109.7 684.6 87.8 87.8" style="enable-background:new -109.7 684.6 87.8 87.8;"
	 xml:space="preserve">
<style type="text/css">
	.st0{fill:#FFFFFF;}
	.st1{fill:#45C4E4;}
	.st2{fill:#FFFBF9;}
	.st3{fill:#FFFAF9;}
	.st4{fill:#ED6162;}
	.st5{fill:#ED6968;}
	.st6{fill:#F0867F;}
	.st7{fill:#F3A096;}
	.st8{fill:#EE726E;}
	.st9{fill:#EE7672;}
	.st10{fill:#ED6264;}
	.st11{fill:#ED6D6A;}
	.st12{fill:#EC5B5F;}
	.st13{fill:#FFF6F3;}
	.st14{fill:#EF7F78;}
	.st15{fill:#EF7C77;}
	.st16{fill:#EE6E6A;}
	.st17{fill:#FFF7F4;}
	.st18{fill:#F0817A;}
	.st19{fill:#EC5D60;}
	.st20{fill:#EC5C5F;}
	.st21{fill:#F1867F;}
	.st22{fill:#EA4754;}
	.st23{fill:#F29088;}
	.st24{fill:#EB595E;}
	.st25{fill:#ED6A69;}
	.st26{fill:#F7BEB4;}
	.st27{fill:#ED6465;}
	.st28{fill:#F28F86;}
	.st29{fill:#ED6263;}
	.st30{fill:#ED6565;}
	.st31{fill:#EE7570;}
	.st32{fill:#EF7F79;}
	.st33{fill:#EB565C;}
	.st34{fill:#ED6967;}
	.st35{fill:#EE716D;}
	.st36{fill:#ED6B69;}
	.st37{fill:#F7B8AF;}
	.st38{fill:#EF7E78;}
	.st39{fill:#F6B3AA;}
	.st40{fill:#F7BBB1;}
	.st41{fill:#EB5159;}
	.st42{fill:#FFF9F8;}
	.st43{fill:#F18A81;}
	.st44{fill:#EE7974;}
	.st45{fill:#EF817B;}
	.st46{fill:#F39B92;}
	.st47{fill:#EF837D;}
	.st48{fill:#F18C83;}
	.st49{fill:#F39D94;}
	.st50{fill:#FCE3DC;}
	.st51{fill:#EB535A;}
	.st52{fill:#FAC9BF;}
	.st53{fill:#F8C4BB;}
	.st54{fill:#FDEBE5;}
	.st55{fill:#ED6867;}
	.st56{fill:#EF8079;}
	.st57{fill:#EC5E61;}
	.st58{fill:#EA4553;}
	.st59{fill:#E9324B;}
	.st60{fill:#EA4352;}
	.st61{fill:#EA4453;}
	.st62{fill:#E82548;}
	.st63{fill:#E93B4F;}
	.st64{fill:#E93A4E;}
	.st65{fill:#EA4B56;}
	.st66{fill:#EA5059;}
	.st67{fill:#E9394E;}
	.st68{fill:#FCD9D1;}
	.st69{fill:#F29087;}
	.st70{fill:#EE706D;}
	.st71{fill:#FAD6CF;}
	.st72{fill:#EC535A;}
	.st73{fill:#EA4D57;}
	.st74{fill:#EA4151;}
	.st75{fill:#E8364D;}
	.st76{fill:#EA4C56;}
	.st77{fill:#E93E50;}
	.st78{fill:#E9354D;}
	.st79{fill:#EB5C60;}
	.st80{fill:#ED6364;}
	.st81{fill:#E92E4A;}
	.st82{fill:#EC6766;}
	.st83{fill:#E9354C;}
	.st84{fill:#E92C4A;}
	.st85{fill:#E93F50;}
	.st86{fill:#EA4051;}
	.st87{fill:#EA4C57;}
	.st88{fill:#F0857F;}
	.st89{fill:#E9334C;}
	.st90{fill:#EC6968;}
	.st91{fill:#EC575C;}
	.st92{fill:#EB525A;}
	.st93{fill:#F39C92;}
	.st94{fill:#EB5F61;}
	.st95{fill:#EC545B;}
	.st96{fill:#E8314B;}
	.st97{fill:#EB545B;}
	.st98{fill:#E9364D;}
	.st99{fill:#F18A82;}
	.st100{fill:#F2948C;}
	.st101{fill:#EB5259;}
	.st102{fill:#E82748;}
	.st103{fill:#E94051;}
	.st104{fill:#E82949;}
	.st105{fill:#F5B1A8;}
	.st106{fill:#EE7671;}
	.st107{fill:#F9D2CA;}
	.st108{fill:#E92949;}
	.st109{fill:#EB5C5F;}
	.st110{fill:#EA4654;}
	.st111{fill:#E8354C;}
	.st112{fill:#E9374D;}
	.st113{fill:#E9304B;}
	.st114{fill:#EA4252;}
	.st115{fill:#E82A49;}
	.st116{fill:#E93C4F;}
	.st117{fill:#E82E4A;}
	.st118{fill:#E93A4F;}
	.st119{fill:#E83C50;}
	.st120{fill:#E82648;}
	.st121{fill:#E92C49;}
	.st122{fill:#E83B4F;}
	.st123{fill:#E82447;}
	.st124{fill:#E82F4B;}
	.st125{fill:#E8374E;}
	.st126{fill:#E82C4A;}
	.st127{fill:#E8334C;}
	.st128{fill:#E83A4F;}
	.st129{fill:#E8354D;}
	.st130{fill:#E92F4B;}
	.st131{fill:#EA4A55;}
</style>
<g id="XMLID_3_">
	<path id="XMLID_36_" class="st0" d="M-65.8,764.6c-19.9,0-36.1-16.2-36.1-36.1c0-19.9,16.2-36.1,36.1-36.1s36.1,16.2,36.1,36.1
		S-45.9,764.6-65.8,764.6z"/>
	<path id="XMLID_9_" class="st1" d="M-65.8,700.3c15.6,0,28.3,12.7,28.3,28.3s-12.7,28.3-28.3,28.3s-28.3-12.8-28.3-28.4
		C-94.1,713-81.4,700.3-65.8,700.3 M-65.8,684.6c-24.3,0-43.9,19.7-43.9,43.9c0,24.3,19.7,43.9,43.9,43.9s43.9-19.7,43.9-43.9
		C-21.9,704.3-41.5,684.6-65.8,684.6L-65.8,684.6z"/>
</g>
<g id="XMLID_2_">
	<g id="XMLID_966_">
		<path id="XMLID_1271_" class="st2" d="M-59.4,706.5c1.7,0.8,2.8,2.4,4.4,3.4c0.5,0.3,1.3,1.9,0.5,3.1c-0.4,0.5-1,0.4-1.5,0.4
			c-2.5,0-5,0.4-7.5,0.8c-0.7,0.2-1.4,0.2-2,0.1c-0.5-0.1-1.1-0.1-1-0.9c0.2-0.5,0.7-0.8,1.1-1c0.4-0.2,0.7-0.3,1.1-0.4
			c0.8-0.1,1.5-0.5,2.1-1.1c0.2-0.2,0.3-0.3,0.5-0.4c0.6-0.3,1-0.8,1.6-1.1c0.8-0.3,0.8-0.9,0.7-1.6
			C-59.4,707.4-59.8,706.9-59.4,706.5z"/>
		<path id="XMLID_1270_" class="st3" d="M-63.7,714c3-0.9,6.1-1,9.2-1c3.1,0,6.1-0.1,9.2,0.3c0.6,0.1,1.2,0.2,1.6,0.7
			c-0.1,0.1-0.1,0.1-0.2,0.2c-0.3,0.2-0.6,0.1-1,0.1c-0.5-0.1-1-0.1-1.5-0.1c-3.3,0-6.5-0.1-9.8-0.1c-1.7-0.2-3.4,0.1-5.2,0.3
			c-0.8,0.1-1.5,0.3-2.2-0.1C-63.6,714.1-63.6,714-63.7,714z"/>
		<path id="XMLID_1269_" class="st4" d="M-83.3,733.5c1.4-1.5,3.2-2.5,4.9-3.5c0.1-0.1,0.3-0.1,0.4,0c0.1,0.9-0.4,1.5-1.2,1.9
			c-0.8,0.4-1.4,0.9-2,1.5c-0.3,0.3-0.6,0.6-0.3,1.1c0.3,0.5,0.4,1,0.1,1.5c-0.2,0.3-0.5,0.6-0.8,0.9c-0.4,0.3-0.7,0.7-1.3,0.3
			C-84.5,735.8-83.4,734.7-83.3,733.5z"/>
		<path id="XMLID_1268_" class="st5" d="M-53.8,724.4c1.9-0.3,3.8-0.6,5.7-0.9c1.3-0.2,2.6-0.2,3.7,0.5c0.2,0.3,0.3,0.5,0.3,0.9
			c0,0.2-0.1,0.3-0.2,0.4c-0.1,0.1-0.3,0.2-0.4,0.2c-0.5,0-0.9-0.3-1.3-0.5c-0.1-0.1-0.2-0.2-0.4-0.2c-0.5-0.6-1.1-0.5-1.7-0.4
			c-0.5,0.1-1.1-0.1-1.6,0.2c-0.2,0.1-0.3,0.3-0.5,0.4c-0.1,0.1-0.2,0.2-0.4,0.2c-1-0.2-1.9-0.2-2.9,0.1c-0.2,0.1-0.4,0.1-0.6,0.2
			c-0.7,0.4-1.3,0.9-2.2,0.6c-0.1,0-0.3-0.1-0.4-0.1c-0.1-0.1-0.2-0.2-0.3-0.3c0.1-0.4,0.4-0.6,0.8-0.8
			C-55.4,724.3-54.5,724.8-53.8,724.4z"/>
		<path id="XMLID_1267_" class="st6" d="M-77.3,726.1c-2.2,1.1-4.5,1.8-6.8,2.5c-1.2,0.4-2.2-0.2-2.8-1.4c-0.8-1.5-0.3-2.7,0.7-3.8
			c0.6,1.1-0.3,2.5,0.8,3.4c0.3,0.4,0.8,0.5,1.2,0.6c0.8,0.2,1.4-0.3,2.1-0.5c1-0.2,1.8-0.7,2.8-0.9
			C-78.7,725.9-78,725.5-77.3,726.1z"/>
		<path id="XMLID_1266_" class="st7" d="M-57.5,752.8c-0.8,1.4-2.7,2.2-4.4,1.7c-1.3-0.4-2.3-2.2-2-3.8c0.1-0.7,0.2-1.4,0.8-1.9
			c0.7,0.5,0.2,1.3,0.5,1.9c0.3,0.7,0.6,1.3,0.9,2c0.7,1.1,1.6,1.1,2.6,0.5C-58.6,753-58.2,752.4-57.5,752.8z"/>
		<path id="XMLID_1265_" class="st8" d="M-77.3,726.1c-1.8-0.1-3.2,1.2-5,1.3c0.1-1.1,1-1.4,1.9-1.6c0.6-0.1,1.3-0.2,1.8-0.5
			c0.6-0.3,1.1-0.8,1.8-1c0.7-0.1,1.3,0.1,2-0.1c0.5-0.1,1-0.1,1.5-0.4c0.4-0.2,0.7-0.3,1.1-0.3c0.3,0,0.6,0,0.9,0.2
			c0.1,0.1,0.2,0.3,0.1,0.4c-0.3,0.3-0.8,0-1.1,0.3C-74,724.7-75.5,725.7-77.3,726.1z"/>
		<path id="XMLID_1264_" class="st9" d="M-80.3,709.7c1.3-0.7,2.9-0.7,4.2-1.3c2.5-1,5.3-0.9,7.9-1.3c0.5,0,1,0,1.5,0
			c0.4-0.2,0.8-0.4,1.3-0.1c0.2,1-0.6,0.7-1.1,0.9c-0.4,0-0.7,0.2-1.1,0.3c-0.1,0-0.3,0-0.4,0c-0.5-0.1-1,0-1.4,0.1
			c-0.4,0.1-0.9,0.1-1.3,0.2c-1.3,0.1-2.5,0.2-3.7,0.8c-0.5,0.2-1,0.4-1.5,0.4c-1.1-0.1-2.2,0.1-3.2,0.5c-0.4,0.1-0.8,0.1-1-0.3
			C-80.2,709.9-80.3,709.8-80.3,709.7z"/>
		<path id="XMLID_1263_" class="st10" d="M-69.6,738.1c-2.4,1-4.7,2-7.1,3c-0.2,0.1-0.4,0.2-0.6,0.1c-0.1-0.1-0.2-0.2-0.2-0.4
			c0.2-0.3,0.5-0.4,0.8-0.6c0.2-0.1,0.3-0.2,0.5-0.4c0.3-0.2,0.6-0.5,0.8-0.7c0.1-0.1,0.2-0.1,0.3-0.2c0.4,0.1,0.5-0.4,0.7-0.5
			c1.6-0.2,3-1.2,4.5-1.6c0.4-0.1,0.7-0.3,1.1-0.2c0.1,0.1,0.2,0.3,0.2,0.4C-68.6,737.8-68.8,738.3-69.6,738.1z"/>
		<path id="XMLID_1262_" class="st11" d="M-54.9,739.1c3-0.8,4.7-0.1,5.4,2.2c0.5,1.8,0,3.1-1.7,4.2c-0.5-0.5-0.1-0.9,0.1-1.3
			c1.1-2.8,0.1-4.3-2.9-4.6c-0.3,0-0.5-0.1-0.7-0.2C-54.8,739.2-54.8,739.1-54.9,739.1z"/>
		<path id="XMLID_1261_" class="st12" d="M-54.2,739.2c1.5-0.3,2.8,0.2,3.5,1.4c0.7,1.2,0.7,2.7-0.2,4c-0.2,0.3-0.3,0.6-0.3,0.9
			c-0.2,0.2-0.5,0.4-0.7,0.5c-0.1,0.1-0.2,0.1-0.4,0c0.4-0.9-0.3-2.2,1-3c0.3-0.2-0.2-1.4-0.9-2C-52.9,740.4-53.8,740-54.2,739.2z"
			/>
		<path id="XMLID_1260_" class="st13" d="M-59.4,706.5c0.1,1.2,1.6,2.6-0.7,3.3c-0.3-0.2-0.3-0.5-0.3-0.9c0-1.4-0.6-2.2-2-2.3
			c-0.2,0-0.4-0.1-0.6-0.3c0.8-1.7,1.4-1.8,2.6-0.6C-60.1,706-59.9,706.5-59.4,706.5z"/>
		<path id="XMLID_1259_" class="st14" d="M-63,747.6c-1.2,0.6-2.5,0.5-3.7,0.3c-0.6-0.1-1.2-0.5-1.7-0.4c-1.6,0.3-2-0.7-2.4-1.9
			c0.2-0.2,0.4-0.3,0.6-0.3s0.5,0.1,0.6,0.2c0.4,0.3,0.6,0.8,1.1,0.9c0.6,0.2,1.3,0.1,1.9,0c1.2,0.3,2.3,0.5,3.5,0.7
			c0.1,0.1,0.1,0.2,0.1,0.3S-63,747.6-63,747.6z"/>
		<path id="XMLID_1258_" class="st15" d="M-62,752.8c-0.3-0.7-0.7-1.3-1-2c0.7-0.3,1.3,0.4,2,0c0.3,0.4,0.4,0.9,0.9,1.1
			c0.3,0.2,0.6,0.3,1,0.2c0.7-0.1,1.3-0.5,1.9-0.9c0.3-0.1,0.5-0.3,0.8-0.1c0,0.8-0.9,0.9-1.1,1.6c-0.5,0.2-1.1,0.4-1.6,0.7
			C-60.1,753.4-61.2,753.9-62,752.8z"/>
		<path id="XMLID_1257_" class="st16" d="M-44.4,725.4c0-0.1,0-0.2,0-0.4c1.1-0.4,1.2,0.5,1.4,1.1c0.5,1.8-0.3,3.1-1.7,4.2
			c-1,0.4-1.8,1-3,0.9c-0.1-0.1-0.1-0.3,0-0.4c0.4-0.6,1.2-0.6,1.8-1C-44.3,728.8-44.2,727.1-44.4,725.4z"/>
		<path id="XMLID_1256_" class="st17" d="M-68.1,707.2c-2.6,0.6-5.3,0.9-7.9,1.3c1.3-0.8,2.5-2.1,4.3-1c0.1,0,0.3,0,0.3,0
			C-70.5,705.9-69.2,707.3-68.1,707.2z"/>
		<path id="XMLID_1255_" class="st18" d="M-63,706.3c0.2,0,0.3-0.1,0.5-0.1c2.2,0.9,2.7,2.1,1.4,3.9c-0.2,0.1-0.3,0-0.4-0.1
			c-0.3-0.4-0.3-1-0.6-1.5c-0.4-1.2-1.3-1.4-2.4-1.2c-0.1,0-0.3,0-0.4,0c-0.1,0-0.3-0.1-0.4-0.2c-0.5,0-0.9,0-1.4,0
			c0.1-0.1,0.2-0.2,0.4-0.3c0.5-0.4,1.1-0.4,1.6-0.3C-64.1,706.4-63.5,706.6-63,706.3z"/>
		<path id="XMLID_1254_" class="st2" d="M-43.7,714c1.5,0.4,2.3,1.5,2.3,3.4c0,2.1-0.8,3-3,3.5c0.2-1.1,1.8-1.4,1.8-2.7
			C-41.9,716.5-43.2,715.4-43.7,714L-43.7,714z"/>
		<path id="XMLID_1253_" class="st19" d="M-56.4,751.2c-0.2,0.1-0.5,0.2-0.7,0.3c-0.1-0.1-0.2-0.2-0.2-0.4c-0.1-0.9,1-1.3,0.8-2.2
			c0.5-0.6,1.1-1.1,1.5-1.8c0.2-0.3,0.5-0.6,0.9-0.7c0.4,0,0.8,0.1,1,0.5C-54.5,748.2-55.2,749.9-56.4,751.2z"/>
		<path id="XMLID_1252_" class="st20" d="M-85.6,727c-1.5-1-0.8-2.4-0.7-3.6c0.3-0.5,0.4-1,1-1.3c0.1,0.5,0.2,0.9,0.5,1.3
			c0.2,0.7-0.5,1.3-0.3,2c-0.1,0.6,0.7,1.2,0.1,1.8C-85.2,727.2-85.4,727.2-85.6,727z"/>
		<path id="XMLID_1251_" class="st21" d="M-77.4,741.1c0.2,0,0.5,0,0.7,0c-0.6,0.7-1.4,1-2.3,1.3c-0.9,0.4-1.8,0.5-2.8,0.3
			c-0.2,0-0.3-0.1-0.4-0.2c-0.4-0.4-0.5-1.1-1.1-1.4c-0.1-0.1-0.2-0.2-0.2-0.4c-0.1-0.4-0.1-0.8,0.2-1.1c0.6,0,1.1-0.2,1.3,0.8
			c0.2,1.1,1.4,0.8,2.3,0.9C-78.9,741.4-78.2,740.8-77.4,741.1z"/>
		<path id="XMLID_1250_" class="st22" d="M-47.7,731c0,0.1,0,0.2,0,0.3c-0.1,0.1-0.2,0.2-0.3,0.4c-0.9,0.4-1.8,0.9-2.7,1.2
			c-0.4,0.2-0.9,0.1-1.3-0.2c-0.3-0.6-0.2-1,0.3-1.5c1.1-0.6,2.3-1,3.5-0.8C-47.9,730.5-47.7,730.7-47.7,731z"/>
		<path id="XMLID_1249_" class="st23" d="M-44.7,730.3c0.9-1.1,1.9-2.3,1.4-3.9c-0.2-0.6-0.2-1.3-1.1-1.4c0-0.3,0-0.7,0-1
			c1.4,0.5,2,1.6,1.9,3C-42.5,728.6-43.2,729.8-44.7,730.3z"/>
		<path id="XMLID_1248_" class="st24" d="M-73.8,727c0.8-1,2.1-1.3,3-2.2c0.1-0.2,0.3-0.5,0.5-0.6c0.3-0.2,0.6-0.4,0.9-0.5
			c0.2,0,0.3,0.1,0.3,0.2c0.1,0.6-0.3,1-0.6,1.4c-0.2,0.2-0.5,0.4-0.7,0.5c-1,0.7-2.1,1.1-2.8,2.3c-0.4,0.7-1.2,0.7-1.7-0.1
			C-74.9,727.3-74,727.5-73.8,727z"/>
		<path id="XMLID_1247_" class="st25" d="M-47.6,720.9c-2.5,0.9-5,1.7-7.3,3.1c-0.2,0.4-0.5,0.3-0.8,0.2c-0.1-0.1-0.2-0.2-0.2-0.4
			c0.1-0.3,0.3-0.5,0.6-0.7c0.9-0.4,1.7-0.8,2.5-1.3c1.2-0.6,2.5-0.8,3.8-1.3C-48.5,720.4-48,720.4-47.6,720.9z"/>
		<path id="XMLID_1246_" class="st26" d="M-79.4,742.7c-2.5,1.4-4.7,0.5-5.2-2.3c0.1-0.1,0.2-0.1,0.4-0.1c0.5,0.1,0.7,0.4,0.9,0.8
			l0,0c0.5,0.3,0.6,0.9,1,1.3l0,0C-81.3,742.8-80.3,742.3-79.4,742.7z"/>
		<path id="XMLID_1245_" class="st24" d="M-84.9,723.5c-0.5-0.4-0.5-0.8-0.3-1.3c0-0.5,0.2-0.8,0.7-1c0.6,0,0.7-0.9,1.4-0.8
			c0.1,0,0.3,0.1,0.4,0.2c0.1,0.4,0.1,0.9,0,1.3c-0.1,0.1-0.1,0.3-0.2,0.4c-0.2,0.5-0.1,1.1-0.7,1.4
			C-84.1,723.8-84.5,723.8-84.9,723.5z"/>
		<path id="XMLID_1244_" class="st27" d="M-51.9,732.6c0.4,0,0.9,0,1.3,0c0.2,0.1,0.2,0.2,0,0.4c-0.9,1.2-2.3,1.7-3.5,2.3
			c-0.2,0.1-0.5,0.1-0.7,0.1c-0.3-0.8,0.4-1.1,0.9-1.4c0.5-0.3,1-0.3,1.3-0.9C-52.4,732.8-52.3,732.5-51.9,732.6z"/>
		<path id="XMLID_1243_" class="st28" d="M-81,710c0.2-0.1,0.5-0.2,0.7-0.3l0.1,0.1c0.8,0.7,0.1,1.7,0.5,2.4
			c0.1,0.6,1.3,0.6,0.9,1.5c-1.3,0.4-2.2-0.1-2.6-1.4c-0.1-0.2-0.1-0.3-0.2-0.5C-81.7,711.1-81.4,710.6-81,710z"/>
		<path id="XMLID_1242_" class="st29" d="M-68.6,737.1c0-0.1,0-0.2,0-0.3c0.1-0.1,0.1-0.1,0.2-0.2c0.4-0.2,0.8,0,1.1,0.3
			c0.1,0.2,0.3,0.4,0.3,0.7c0.1,0.9-0.5,1.5-1.1,2c-0.7,0.1-1.1,1.4-2.1,0.8c-0.2-0.5,0.3-0.7,0.3-1.1c0.2-0.3,0.3-0.6,0.5-0.8
			C-69,738.2-68.2,738-68.6,737.1z"/>
		<path id="XMLID_1241_" class="st30" d="M-79,716.2c0.9-1.1,2.2-1.7,3.3-2.5c0.1-0.1,0.2-0.2,0.3-0.3c0.1,0,0.3,0,0.4,0
			c0.1,0.1,0.2,0.2,0.3,0.3c0.1,0.3,0,0.6-0.3,0.8c-0.2,0.2-0.5,0.3-0.8,0.4c-0.3,0.1-0.5,0.1-0.6,0.4c-0.1,0.1-0.2,0.2-0.3,0.3
			c-0.5,0.2-0.9,0.5-1.2,0.9c-0.3,0.3-0.5,0.5-0.9,0.6c-0.2,0-0.3-0.1-0.4-0.2C-79.2,716.6-79.2,716.4-79,716.2z"/>
		<path id="XMLID_1240_" class="st31" d="M-69.9,739.3c0.1,0.4-0.1,0.7-0.3,1.1c0.2,0.8-0.2,1.4-0.7,2.1c-0.3,0.4-0.6,0.9-0.8,1.3
			c-0.2,0.2-0.3,0.3-0.6,0.2c-0.4-0.3-0.5-0.6-0.3-1.1C-71.8,741.7-71,740.4-69.9,739.3z"/>
		<path id="XMLID_1239_" class="st32" d="M-83.3,733.5c0.3,1.2-0.7,2.5,0,3.7c0.3,0.6,0.6,1.2,0.4,2c-0.4,0.3-0.7,0.3-1.1,0
			c-0.3-0.5-0.2-1-0.3-1.5c0-0.2,0-0.3,0-0.5c-0.1-1,0-2,0.4-2.9C-83.8,733.9-83.6,733.6-83.3,733.5z"/>
		<path id="XMLID_1238_" class="st33" d="M-57.8,739.1c1,0,1.9,0,2.9-0.1c0,0.1,0,0.1,0,0.2c0,0.9-1,0.7-1.3,1.3
			c-0.1,0.1-0.3,0.1-0.4,0.2c-0.2,0-0.3,0-0.4,0c-0.5-0.1-1-0.4-1.5-0.5c-0.5-0.2-1.3,0.1-1.3-0.8
			C-59.2,738.8-58.4,739.6-57.8,739.1z"/>
		<path id="XMLID_1237_" class="st34" d="M-61.1,750.9c-0.7,0.8-1.3,0.2-2,0c-0.3-0.7,0.2-1.4-0.1-2c0.1-0.3,0.1-0.6,0.4-0.7
			c0.1,0.1,0.2,0.2,0.3,0.3c0.2,0.4,0.3,0.9,0.7,1.2c0.2,0.4,0.7,0.4,0.9,0.8C-60.9,750.6-61,750.8-61.1,750.9z"/>
		<path id="XMLID_1236_" class="st35" d="M-76.7,713.3c-0.2,0.1-0.4,0.2-0.7,0.3c-0.2-0.2-0.2-0.5-0.1-0.8c0.7-0.8,1.8-0.9,2.8-1
			c0.9-0.1,1.5,0.4,1.4,1.5c-0.4,0.6-0.8,0.7-1.4,0.3v-0.1c-0.2-0.4-0.5-0.6-1-0.4C-76.1,713.2-76.4,713-76.7,713.3z"/>
		<path id="XMLID_1235_" class="st36" d="M-73.8,727c0,0.6-0.7,0.6-0.9,1.1c-0.6,1.4-1.8,2.1-3.3,2c-0.1,0-0.3,0-0.4-0.1
			C-76.9,728.9-75.5,727.7-73.8,727z"/>
		<path id="XMLID_1234_" class="st32" d="M-42.4,718.3c0,1.4-1.3,1.7-2.1,2.5c-0.9,0-1.9,0-2.8,0.1c-0.1-0.1-0.1-0.2-0.1-0.3
			s0-0.1,0.1-0.1c0.3-0.3,0.7-0.3,1.1-0.3c0.4,0,0.7-0.1,1-0.2c0.4-0.1,0.8-0.3,1.1-0.6c0.6-0.2,0.6-1.1,1.4-1.2
			C-42.6,718.1-42.5,718.1-42.4,718.3z"/>
		<path id="XMLID_1233_" class="st37" d="M-83.9,737.2c0,0.1,0,0.2,0,0.3c-0.6,0.9,0.4,2-0.3,3c-0.1,0-0.2,0-0.4,0
			c0.1-1.6-0.7-3.3,0-4.9C-84.1,736-84.4,736.7-83.9,737.2z"/>
		<path id="XMLID_1232_" class="st9" d="M-79,716.2c0,0.2,0,0.5,0,0.7c0.1,0.5-0.3,0.8-0.5,1.1c-0.2,0.2-0.5,0.4-0.7,0.5
			c-0.4,0.1-0.7,0.3-1.1,0C-80.8,717.5-80.1,716.7-79,716.2z"/>
		<path id="XMLID_1231_" class="st16" d="M-77.4,713c0,0.2,0,0.4,0,0.6c-0.2,0-0.4,0.1-0.6,0.1c-0.2,0.1-0.5,0.2-0.7-0.1
			c-0.6-0.3-1.1-0.6-1.3-1.3c-0.1-0.3,0.1-0.4,0.3-0.5C-78.8,712-78.1,712.5-77.4,713z"/>
		<path id="XMLID_1230_" class="st8" d="M-56.1,736.5c-0.9,0.8-1.8,1.5-2.6,2.3c-0.1,0.1-0.3,0.1-0.4,0c0-0.1-0.1-0.1-0.1-0.2
			s0-0.1,0-0.2c0.3-0.6,0.8-1.1,1.3-1.5c0.4-0.3,0.8-0.7,1.4-0.6C-56.3,736.3-56.2,736.4-56.1,736.5z"/>
		<path id="XMLID_1229_" class="st38" d="M-72.1,744c0.1-0.1,0.2-0.2,0.3-0.3c0.2-0.2,0.4-0.2,0.6-0.1c0.1,0.1,0.2,0.2,0.3,0.3
			c0.1,0.5,0.5,0.7,0.8,0.9c0.4,0.3,0.4,0.6,0,0.8c-0.2,0-0.5,0-0.7,0c-0.2-0.1-0.4-0.2-0.7-0.3C-71.8,744.9-72.7,744.8-72.1,744z"
			/>
		<path id="XMLID_1228_" class="st39" d="M-78.7,713.6c0.2,0,0.4,0.1,0.7,0.1c-1,0.5-2,0.8-3,0c-0.2-0.5-1.3-0.9-0.3-1.7
			C-80.7,713-80.2,714.2-78.7,713.6z"/>
		<path id="XMLID_1227_" class="st40" d="M-81.3,712c-0.5,0.7,0.5,1.1,0.3,1.7c-1.4-0.9-1.5-2-0.6-3.3
			C-81.2,710.9-81.7,711.5-81.3,712L-81.3,712z"/>
		<path id="XMLID_1226_" class="st41" d="M-81.4,718.5c0.4-0.1,0.7-0.2,1.1-0.3c-0.1,1.1-1.2,1.4-1.7,2.2c-0.3,0.2-0.5,0.3-0.9,0.1
			l0,0c-0.2-0.2-0.2-0.4,0-0.7C-82.4,719.4-81.9,719-81.4,718.5z"/>
		<path id="XMLID_1225_" class="st42" d="M-55.8,724.2c0.3,0,0.6-0.1,0.9-0.1c0.2,0.5,0.7,0.4,1.1,0.4c-0.7,0.4-1.5,0.6-2.3,0.7
			c-0.3,0.2-0.6,0.2-0.8-0.2c0-0.3,0.1-0.4,0.2-0.6C-56.4,724.2-56.1,724.1-55.8,724.2z"/>
		<path id="XMLID_1224_" class="st43" d="M-83.9,737.2c-1-0.3-0.4-1.1-0.6-1.7c0.1-0.5,0.2-1,0.7-1.3
			C-83.9,735.2-83.9,736.2-83.9,737.2z"/>
		<path id="XMLID_1223_" class="st44" d="M-50.6,733c0-0.1,0-0.3,0-0.4c0.9-0.4,1.6-1,2.6-1C-48.7,732.4-49.6,732.8-50.6,733z"/>
		<path id="XMLID_1222_" class="st20" d="M-53.1,747c-0.4-0.1-0.7-0.2-1.1-0.4c-0.1-0.5,0.3-0.6,0.5-0.9c0.5-0.3,1-0.3,1.4,0.2
			c0.1,0,0.2,0,0.3,0C-52.3,746.3-52.7,746.6-53.1,747z"/>
		<path id="XMLID_1221_" class="st45" d="M-68.6,737.1c0.4,0.1,0.7,0.2,0.5,0.7c-0.3,0.6-0.7,1-1.4,0.6c0-0.1-0.1-0.2-0.1-0.4
			C-69.1,737.9-68.8,737.6-68.6,737.1z"/>
		<path id="XMLID_1220_" class="st46" d="M-72.1,744c-0.1,0.6,0.5,0.9,0.6,1.3c-1.5-0.3-1.5-1.2-1-2.4
			C-72.4,743.3-72.3,743.7-72.1,744z"/>
		<path id="XMLID_1219_" class="st47" d="M-82.9,719.8c0,0.2,0,0.4,0,0.7c-0.7-0.2-0.7,1.4-1.6,0.7C-84.1,720.6-83.7,720-82.9,719.8
			z"/>
		<path id="XMLID_1218_" class="st35" d="M-56.1,736.5c-0.1,0-0.3,0-0.4,0c0.1-1,0.7-1.4,1.7-1.3c0.2,0,0.5,0,0.7,0
			C-54.8,735.7-55.4,736.1-56.1,736.5z"/>
		<path id="XMLID_1217_" class="st13" d="M-64.6,706.5c-0.5,0.3-1.1,0.4-1.6,0.3C-66,705.4-65.3,706.1-64.6,706.5z"/>
		<path id="XMLID_1216_" class="st48" d="M-79.4,742.7c-1-0.1-2,0.3-2.9-0.3c1.1,0,2.2,0,3.3,0C-79.1,742.5-79.2,742.6-79.4,742.7z"
			/>
		<path id="XMLID_1215_" class="st39" d="M-81.3,712c-0.5-0.5-0.2-1.1-0.3-1.6c0.1-0.3,0.4-0.4,0.6-0.4
			C-81.1,710.7-81.2,711.4-81.3,712z"/>
		<path id="XMLID_1214_" class="st49" d="M-59.1,738.8c0.1,0,0.2,0,0.4,0c0.2,0.4,0.6,0.2,1,0.3c-0.6,0.5-1.3,0.3-1.9,0.3
			C-59.8,738.9-59.6,738.7-59.1,738.8z"/>
		<path id="XMLID_1213_" class="st50" d="M-70.2,724.4c-0.2,0.1-0.4,0.3-0.6,0.4c-0.3-0.5-0.9-0.2-1.3-0.3c0.2-0.3,0.6-0.3,0.9-0.3
			C-70.8,723.9-70.4,723.7-70.2,724.4z"/>
		<path id="XMLID_1212_" class="st51" d="M-47.3,720.5c0,0.1,0,0.2,0,0.3h-0.1h-0.1c-0.6,0-1.1,0-1.7,0c0-0.1,0-0.2,0-0.3
			C-48.6,720-48,720-47.3,720.5z"/>
		<path id="XMLID_1211_" class="st52" d="M-76.7,713.3c0.3-0.3,0.6-0.3,1-0.3c0.2-0.2,0.5-0.2,0.6,0.1c0.1,0.3-0.1,0.5-0.3,0.6
			c-0.1,0-0.2,0-0.3,0C-75.9,713.3-76.4,713.4-76.7,713.3z"/>
		<path id="XMLID_1210_" class="st53" d="M-63,747.6c0-0.1,0.1-0.2,0.1-0.3c0.3-0.3,0.6-0.3,0.8-0.1c0.3,0.3,0.1,0.7-0.1,1
			c-0.1,0.1-0.3,0.2-0.5,0.1c0-0.1,0-0.1,0-0.2C-62.8,748-62.9,747.8-63,747.6z"/>
		<path id="XMLID_1209_" class="st54" d="M-61.3,710.1c1.1-1.8,0.9-2.4-1.1-3.9c2.1,0.2,2.7,1.1,2.4,3.5c-0.6,0.2-0.9,1-1.6,1
			C-61.9,710.4-61.7,710.2-61.3,710.1z"/>
		<path id="XMLID_1208_" class="st55" d="M-65.4,712.6c-0.3,0.2-0.6,0.5-0.9,0.7c-0.7,0.5-1.4,1.1-2.3,1.3c-0.3,0-0.6,0-0.9-0.2
			c-0.3-0.8,0.4-0.9,0.7-1.3c0.9-0.5,1.9-0.8,2.9-1.2C-65.4,712-65.4,712.3-65.4,712.6z"/>
		<path id="XMLID_1207_" class="st3" d="M-68.6,714.3c0.8-0.3,1.4-0.9,2.3-1c-0.1,0.3-0.2,0.7,0.3,0.7c0.8,0,1.5,0,2.3,0l0.1,0.1
			c0.1,0.2,0,0.4-0.2,0.5c-1,0.3-2.1,0.4-3.2,0.6C-67.6,715-68.4,715.3-68.6,714.3z"/>
		<path id="XMLID_1206_" class="st56" d="M-65.4,712.6c-0.1-0.2-0.1-0.4-0.2-0.6c0.1-0.2,0.2-0.4,0.4-0.5c0.6-0.1,1.2-0.7,1.9-0.1
			c0,0.8-0.7,0.7-1.1,0.9C-64.7,712.4-65.1,712.5-65.4,712.6z"/>
		<path id="XMLID_1205_" class="st3" d="M-64.4,712.3c0.4-0.3,0.7-0.6,1.1-0.9c0.1-0.3,0.4-0.4,0.7-0.5c0.2,0,0.4,0,0.6,0.1
			C-62.6,712-63.3,712.4-64.4,712.3z"/>
		<path id="XMLID_1204_" class="st18" d="M-62,711c-0.2,0-0.4,0-0.6,0c0-0.1-0.1-0.1-0.1-0.2c0.1-0.5,0.4-0.8,0.9-1
			c0.2,0,0.3,0,0.4,0.1l0.1,0.1c-0.1,0.2-0.2,0.4-0.3,0.6C-61.8,710.8-61.9,710.9-62,711z"/>
		<path id="XMLID_1203_" class="st51" d="M-56.1,713.6c3.3-0.2,6.7-0.1,10,0.1c0,0.2,0,0.3-0.2,0.4c-0.9,0.4-2,0.4-3,0.5
			c-1.1,0-2.1,0.3-3.1,0.5c-0.5,0.1-0.6-0.8-1.2-0.6c-0.1,0-0.3,0.1-0.4,0.1c-0.9-0.3-1.9,0.1-2.7-0.5
			C-56.6,713.8-56.6,713.4-56.1,713.6z"/>
		<path id="XMLID_1202_" class="st32" d="M-43.8,714c1.4,1.1,2.2,2.4,1.4,4.2l-0.1-0.1c-0.4-0.2-0.8-0.4-1.1-0.7
			c-0.1-0.1-0.2-0.2-0.2-0.4c0-0.1,0-0.1,0-0.2c0.1-0.1,0.1-0.3,0.2-0.4c0.4-0.8-0.2-1.1-0.7-1.6c-0.3-0.2-0.5-0.3-0.5-0.7
			c0-0.2,0.1-0.3,0.2-0.4C-44.4,714-44.1,714-43.8,714z"/>
		<path id="XMLID_1201_" class="st57" d="M-56.1,713.6c-0.3,0.1-0.4,0.4-0.4,0.7c-0.8,0.7-1.8,0-2.6,0.1c-1.1,0-2.1,0.2-3.2,0.4
			c-0.2,0-0.3,0-0.5,0c-0.4-0.1-0.8-0.2-1-0.6c0-0.1,0.1-0.2,0.1-0.2c1.9-0.2,3.8-0.3,5.6-0.5C-57.3,713.4-56.7,713.3-56.1,713.6z"
			/>
		<path id="XMLID_1200_" class="st34" d="M-44.7,713.9c0,0.1,0,0.3,0,0.4c-0.4,0.4-0.8,0.1-1.2-0.2c0-0.1-0.1-0.1-0.1-0.2
			s0-0.2,0-0.3C-45.6,713.6-45.1,713.6-44.7,713.9z"/>
		<path id="XMLID_1199_" class="st58" d="M-78,730c1.2-0.4,2.3-1,3.3-2c0.5,0.2,1.2,0.6,1.3-0.1c0.4-1.6,2-1.5,2.9-2.5
			c0.3,0.2,0.5,0.5,0.5,0.9c0,0.1,0,0.3-0.1,0.4c-0.4,0.2-0.3,0.6-0.5,0.9c-0.5,0.9-1.4,0.9-2.1,1.2c-0.1,0.1-0.2,0.2-0.3,0.3
			c-0.3,1.3-1.6,0.7-2.2,1.2c-0.5,0.6-0.8,1.3-1.8,0.8c-0.5-0.2-0.6,0.4-0.8,0.6c-0.3,0.4-0.7,0.5-1.2,0.6c-0.6,0.3-0.8,1.4-1.8,1.1
			c-0.2,0-0.3-0.1-0.4-0.3c-0.1-0.9,0.9-1.4,1.2-1.5C-78.9,731.6-78.6,730.7-78,730z"/>
		<path id="XMLID_1198_" class="st59" d="M-82.3,736.5c0.2-0.2,0.4-0.4,0.7-0.6c0.1-0.1,0.2-0.1,0.4,0c0.4,2.1,0.6,2.2,2.9,2.1
			c0.6,0.2,1.3,0.3,1.2,1c-0.1,0.7-0.9,0.7-1.4,0.8c-0.4,0-0.7-0.1-1.1,0c-0.1,0.1-0.3,0.1-0.4,0.2c-0.4,0.1-0.7,0-1-0.4
			c0.1-0.5-0.1-0.6-0.5-0.6c-0.1-0.1-0.3-0.1-0.4-0.2C-82.2,738-82.4,737.3-82.3,736.5z"/>
		<path id="XMLID_1197_" class="st60" d="M-82.3,736.5c0.6,0.7,0.5,1.5,0.7,2.3c0,0.4,0,1-0.5,1c-0.6,0.1-0.6-0.6-0.8-1
			c-0.4-0.5-0.4-1.1-0.3-1.6C-82.9,736.9-82.6,736.7-82.3,736.5z"/>
		<path id="XMLID_1196_" class="st61" d="M-81.3,735.9c-0.1,0-0.2,0-0.3,0c0.3-0.5,0.2-1.1-0.1-1.3c-1-0.9-0.3-1.1,0.4-1.3
			c0.1,0,0.2,0,0.3,0c0.3,0.3,0.6,0.6,0.9,0.7c0.6,0.3,0.5,0.7,0.2,1.1C-80.2,735.5-80.4,736.3-81.3,735.9z"/>
		<path id="XMLID_1195_" class="st62" d="M-48,730.6c-1.3-0.1-2.4,0.6-3.6,0.7c-0.2,0.2-0.4,0.2-0.6,0.2c-0.8-0.4-1.6-0.2-2.4,0.2
			c-0.1,0.1-0.3,0.1-0.4,0.2c-1.4,0.7-3.1,0.4-4.2,1.7c-0.1,0.1-0.3,0.1-0.4,0c-0.2-0.9-0.6-1.7-0.6-2.6c0.1-0.3,0.4-0.5,0.6-0.7
			c0.4-0.5,0.8-1,1.5-0.9c0.2,0,0.3,0.1,0.4,0.1c0.5,0.4,0.4,0.8,0,1.2c0.8-0.3,0.8-1,0.8-1.7c0.2-0.4,0.6-0.6,1-0.9
			c1-1.4,2.8-1.6,4-2.6c0.5-0.4,1.2-0.1,1.7-0.4c0-0.1,0-0.2,0-0.3c0.8-0.4,1.6-0.1,2.4-0.4c0.5,0.5,1.3-0.1,1.9,0.4l0,0
			c1,1.3,0.3,2.8,0.5,4.2C-45.4,729.8-46.8,730.5-48,730.6z"/>
		<path id="XMLID_1194_" class="st63" d="M-51.9,725.7c-1.1,1.1-2.9,1.3-3.9,2.6c-0.4,0.2-0.8,0.3-1.2,0.2c-1-0.2-1.2,0.3-1.1,1.1
			c-0.7,0-1,0.5-1.3,1c-0.4,0.1-0.9,0.5-1-0.3c0.4-0.5,0.5-1,0.5-1.6c0.1-0.3,0.2-0.6,0.3-0.8c0.5-1.5,1.9-1.6,3.1-2
			c0.1,0,0.2,0,0.3,0c1.1,1,1.6,0.3,2-0.7c0.2,0,0.4,0,0.6,0C-53.1,725.6-52,724.3-51.9,725.7z"/>
		<path id="XMLID_1193_" class="st64" d="M-48,730.6c0.4-0.4,1-0.5,1.5-0.9c0.5-0.5,0.8-0.9,0.6-1.8c-0.3-1-0.1-2.1-0.1-3.2
			c0.6,0,0.8,0.5,1.3,0.7c0.9,1.9-0.1,3.4-1,4.9c-0.7,0.2-1.3,0.4-2,0.7C-47.8,730.8-47.9,730.7-48,730.6z"/>
		<path id="XMLID_1192_" class="st65" d="M-45.7,730.3c0.8-1.5,1-3.2,1-4.9c0.1,0,0.2,0,0.3,0C-43.2,727.5-44.2,728.9-45.7,730.3z"
			/>
		<path id="XMLID_1191_" class="st33" d="M-56.5,725.8c-0.8,1-2.4,0.9-3,2.2c-0.4,0.1-0.9,0.1-1.3,0.2c-0.3,0-0.6-0.2-0.7-0.5
			c0-0.1,0-0.3,0.1-0.4c0.4-0.3,0.9-0.4,1.3-0.7c0.4-0.2,0.9-0.4,1.3-0.7c0.3-0.1,0.7-0.3,1.1-0.4c0.3-0.1,0.6-0.1,0.9,0.2
			C-56.7,725.7-56.6,725.8-56.5,725.8z"/>
		<path id="XMLID_1190_" class="st66" d="M-51.9,725.7c-0.3-0.2-0.5-0.7-1.1-0.3c-0.4,0.3-0.4,0.3-0.6-0.4c1.1-0.5,2.2-0.5,3.3,0
			C-50.7,725.5-51.3,725.6-51.9,725.7z"/>
		<path id="XMLID_1189_" class="st66" d="M-54.2,725.1c0.1,0.7-0.1,1.2-0.9,1.4c-0.8,0.2-1-0.2-1.1-0.8
			C-55.3,726-54.7,725.7-54.2,725.1z"/>
		<path id="XMLID_1188_" class="st67" d="M-46,724.7c-0.6-0.3-1.5,0.9-2-0.3c0-0.1-0.1-0.1-0.1-0.2c0-0.1,0.1-0.1,0.1-0.2
			C-47.2,723.8-46.4,723.8-46,724.7z"/>
		<path id="XMLID_1187_" class="st68" d="M-56.9,725.7c-0.3,0-0.6,0-0.9,0.1c-0.4,0.2-0.6,0-0.8-0.3c-0.1-0.2,0-0.3,0-0.4
			c0.1-0.1,0.2-0.2,0.4-0.2c0.4-0.1,0.9-0.3,1.3,0c0.2,0.1,0.5,0.2,0.7,0.3C-56.4,725.3-56.6,725.5-56.9,725.7z"/>
		<path id="XMLID_1186_" class="st67" d="M-48,724.4c-0.6,1.2-1.5,0.2-2.3,0.3c0.1-0.1,0.2-0.2,0.3-0.3
			C-49.3,724.2-48.6,724.2-48,724.4L-48,724.4z"/>
		<path id="XMLID_1185_" class="st66" d="M-48,724.4c-0.7,0-1.3,0-2,0c0.6-0.6,1.3-0.2,2-0.3C-48,724.2-48,724.3-48,724.4z"/>
		<path id="XMLID_1184_" class="st33" d="M-78.3,725.4c-0.3,0.4-0.8,0.7-1.2,0.6c-1.2-0.1-2,0.5-2.7,1.3c-0.6,0.2-1.2,1-2,0.4
			c-0.1-0.1-0.2-0.2-0.2-0.4c0.4-1,1.9-0.8,2-2c0.2-0.4,0.4-0.7,0.8-0.8C-80.5,724.9-79.4,725-78.3,725.4z"/>
		<path id="XMLID_1183_" class="st4" d="M-84.2,727.4c0,0.1,0,0.2,0,0.3c-0.5-0.1-1.2,0.2-1.3-0.7c0.2,0,0.4,0,0.7,0
			C-84.6,727-84.4,727.2-84.2,727.4z"/>
		<path id="XMLID_1182_" class="st69" d="M-62,752.8c0.9,0.7,2.1-0.1,2.9,0.6C-60.3,754.4-61.3,754.2-62,752.8z"/>
		<path id="XMLID_1181_" class="st67" d="M-78.3,725.4c-1.2,0.4-2.3-0.1-3.3-0.7c-0.1-0.4,0.2-0.5,0.5-0.7c0.7-0.4,1.3-0.1,1.9,0.3
			c0.8,0.4,1.6-0.5,2.4-0.1c0.1,0.1,0.1,0.1,0.2,0.2C-77.2,724.8-77.8,725.1-78.3,725.4z"/>
		<path id="XMLID_1180_" class="st65" d="M-74.8,724.4c-0.6,0.5-1.3,0.1-1.9,0l0,0c0.7-1.3,1.9-1.3,3.2-1.1
			C-73.5,724-73.5,724-74.8,724.4z"/>
		<path id="XMLID_1179_" class="st70" d="M-71.1,723.8c-0.4,0-0.7,0-1.1,0c-0.1-0.5,0.3-0.7,0.5-1c0.1-0.1,0.2-0.1,0.4-0.1
			c0.5,0.1,0.9,0.4,1.3,0.7c0.2,0.2,0.2,0.4,0,0.6C-70.4,723.9-70.7,724-71.1,723.8z"/>
		<path id="XMLID_1178_" class="st65" d="M-71.5,722.8c0.1,0.5-0.5,0.6-0.7,1c-0.3,0.1-0.6,0.2-0.9,0.3c-0.2-0.2-0.2-0.5-0.2-0.7
			C-72.9,722.6-72.2,722.6-71.5,722.8z"/>
		<path id="XMLID_1177_" class="st5" d="M-73.1,723.4c0,0.2,0,0.4,0,0.6c-0.5,0.3-1.1,0.4-1.7,0.3c0.4-0.3,0.9-0.6,1.3-1
			C-73.3,723.3-73.2,723.3-73.1,723.4z"/>
		<path id="XMLID_1176_" class="st71" d="M-71.1,723.8c0.4,0,0.8-0.1,1.2-0.1c0.1-0.1,0.2,0,0.3,0.1c0,0.4-0.4,0.5-0.7,0.6
			c-0.3-0.3-0.7-0.2-1-0.3C-71.2,724-71.2,723.9-71.1,723.8z"/>
		<path id="XMLID_1175_" class="st72" d="M-76.1,709.4c0.5-0.1,1.1-0.2,1.6-0.3c0.6-0.2,0.8,0.2,1.1,0.6c0.1,0.4-0.3,0.9,0.3,1.2
			c0.2,0.2,0.4,0.4,0.6,0.6c0.7,0.3,1.6,0.3,2.3,0.6c0.1,0.1,0.3,0.1,0.4,0.2c0.1,0.3,0,0.6-0.1,0.8c0.1,0.4-0.8,0.1-0.4,0.7
			c0,0.5-0.1,0.9-0.4,1.2c-0.4,0.2-0.7,0.1-1.1-0.1c-0.1-0.1-0.2-0.2-0.3-0.3c0-0.1,0-0.1-0.1-0.2c0-0.1,0-0.1,0-0.2
			c0.3-0.9-0.8-0.5-1-1c0-0.7-0.5-1.2-1-1.6c-0.4-0.4-0.8-0.8-1.3,0.1c-0.3,0.5-1,0.6-1.6,0.5c-0.3,0-0.7,0-0.8-0.4
			c-0.1-0.3,0.1-0.5,0.3-0.7c0.4-0.4,0.8-0.9,1.1-1.4C-76.5,709.6-76.3,709.5-76.1,709.4z"/>
		<path id="XMLID_1174_" class="st33" d="M-70.8,708.1c0.5,0,1.1,0,1.6,0c0.4,0.1,0.9-0.3,1.3,0l0,0c0.2,0.2,0.6,0.1,0.7,0.3
			c0,0.1,0,0.3-0.1,0.4c-0.4,0.4-0.8,0.6-1.2,0.8c-0.5,0.2-0.9,0.3-1.3,0.6c-0.3,0.2-0.6,0.4-1,0.3c-0.3,0-0.6-0.1-0.9-0.2
			c-0.2,0-0.4-0.1-0.6-0.2c-0.3-0.1-0.5-0.3-0.6-0.6C-72.8,708.4-71.3,708.9-70.8,708.1z"/>
		<path id="XMLID_1173_" class="st30" d="M-70.8,708.1c-0.1,0.3,0.2,0.8-0.5,0.7c-0.6-0.1-1.1,0.3-1.4,0.9c-0.2,0.2-0.4,0.2-0.6,0
			c-0.3-0.2-0.7-0.4-1-0.7C-73.4,708.1-72,708.4-70.8,708.1z"/>
		<path id="XMLID_1172_" class="st16" d="M-76.1,709.4c-0.1,0.1-0.2,0.2-0.3,0.3c-0.9,0.6-1.7,1.2-2.9,0.8c-0.2-0.1-0.2-0.3-0.1-0.5
			C-78.3,709.4-77.2,709.2-76.1,709.4z"/>
		<path id="XMLID_1171_" class="st70" d="M-79.3,710.1c0,0.1,0,0.2,0,0.3c0,0.6,0.5,1.2-0.3,1.6c-0.1,0.1-0.2,0.2-0.3,0.3
			c-0.9-0.8,0.4-1.7-0.2-2.5C-79.9,709.9-79.6,710-79.3,710.1z"/>
		<path id="XMLID_1170_" class="st73" d="M-67.3,708.8c0-0.1,0-0.2,0-0.3c-0.2-0.4,0.2-0.7,0.3-1c0.5-0.1,1.2,0.2,1.6-0.3
			c0.1,0,0.2,0,0.3,0C-65.1,708.6-66.2,708.7-67.3,708.8z"/>
		<path id="XMLID_1169_" class="st5" d="M-67.9,708.1c-0.4-0.1-0.9,0.6-1.3,0C-68.8,707.7-68.3,707.6-67.9,708.1z"/>
		<path id="XMLID_1168_" class="st5" d="M-66.9,707.5c-0.1,0.3-0.2,0.6-0.3,1c-0.3,0-0.5-0.1-0.6-0.3
			C-67.6,707.9-67.2,707.7-66.9,707.5z"/>
		<path id="XMLID_1167_" class="st74" d="M-68.6,736.8c-0.3,0.1-0.6,0.2-1,0.3c-0.3,0-0.6-0.1-0.9-0.2c-0.9-0.4-1.9-0.7-2.8-0.9
			c-0.5-0.1-0.8-0.2-0.7-0.8c0.2-0.5,0.6-0.7,1.1-0.9c0.5-0.1,0.9,0,1.4,0.1c0.6,0.3,1.2,0,1.8-0.1c1.2-0.3,2.3-0.8,3.5-0.9
			c0.9-0.1,1.6,0,1.8,1.1c0,0.2-0.1,0.4-0.3,0.6c-0.5,0.6-1.1,0.9-1.8,1C-67.2,736.4-67.9,736.6-68.6,736.8L-68.6,736.8z"/>
		<path id="XMLID_1166_" class="st75" d="M-80,739.4c0.8-0.7,1.9,0.6,2.7-0.7c0-0.5-0.9-0.2-1.1-0.6c-0.1-0.1-0.1-0.2-0.1-0.3
			c0-0.1,0-0.1,0.1-0.1c0.7-0.5,1.6-0.4,2.4-0.8c1.6,0.2,0.8,1.4,0.9,2.2l0,0c-0.4,0.3-0.8,0.5-1,1c-0.1,0.1-0.2,0.2-0.3,0.3
			c-0.5,0.2-1.2-0.1-1.7,0.3c-0.5,0.1-1,0.3-1.5,0.1C-80.1,740.5-79.5,739.8-80,739.4z"/>
		<path id="XMLID_1165_" class="st76" d="M-79.7,740.7c0.5-0.1,1.1-0.2,1.6-0.3c0.2,0.2,0.5,0.1,0.7,0.3c0,0.1,0,0.2,0,0.3
			c-0.8,0.5-1.7,0.8-2.6,0.7c-0.9-0.1-2.1,0.1-2.3-1.5c0-0.4-0.7-0.3-1-0.6c-0.5,0.1-0.7-0.1-0.6-0.6c0.3,0,0.7,0,0.9-0.4
			c0.4,0.6,0.9,1,1.3,0l0,0c0.2,0.2,0.5,0.4,0.7,0.7c0.3,0.1,0.7,0.2,1,0.3c0.3,0.3,0.1,0.6,0.1,1
			C-79.9,740.8-79.7,740.9-79.7,740.7C-79.9,740.6-79.5,740.9-79.7,740.7z"/>
		<path id="XMLID_1164_" class="st60" d="M-70.2,736.8c0.3,0,0.5,0.1,0.7,0.3c-1.6,0.6-3,1.9-4.9,1.6c-0.7-0.5-0.8-1,0-1.5
			c0.1,0,0.3,0,0.4,0.1c0.2,0.1,0.3,0.4,0.5,0.1c0.2-1,0.6-1.7,1.7-0.9C-71.3,737.1-70.7,736.5-70.2,736.8z"/>
		<path id="XMLID_1163_" class="st77" d="M-74.1,737.5c-1.1,0.2-0.5,0.8-0.3,1.3c-0.1,0.2-0.1,0.5-0.2,0.7c-0.2-0.1-0.3-0.2-0.5-0.4
			c0.2-0.4-1.4-0.4-0.2-1.2c0.4-0.3-0.3-0.7-0.7-0.8c-0.1-0.1-0.1-0.3-0.1-0.4c0.2-0.3,0.5-0.6,0.9-0.7
			C-74.6,736.3-74,736.6-74.1,737.5z"/>
		<path id="XMLID_1162_" class="st22" d="M-76.1,740.1c-0.1-0.7,0.2-1.1,1-1C-75.1,739.8-75.7,739.9-76.1,740.1z"/>
		<path id="XMLID_1161_" class="st22" d="M-77.4,740.8c-0.3,0-0.5-0.1-0.7-0.3c0.5-0.5,1.1-0.1,1.6,0
			C-76.6,740.8-77,740.7-77.4,740.8z"/>
		<path id="XMLID_1160_" class="st78" d="M-52.3,745.9c-0.4,0-0.8-0.3-1.3,0c-0.1-0.1-0.2-0.3-0.2-0.4c0.6-0.7,0.2-1.7,0.8-2.4
			c0.3-0.3,0-0.3-0.2-0.4c-0.3-0.2-0.7-0.4-0.7-0.7c0-1.8-1.5-1.3-2.4-1.7c0.1-0.2-0.9-0.9,0.3-0.7c0.5,0.1,0.8-0.1,1.1-0.5
			c0.2,0,0.4,0,0.6-0.1c1.4,0.7,3,1.3,3.1,3C-51.1,743.4-51.4,744.8-52.3,745.9z"/>
		<path id="XMLID_1159_" class="st5" d="M-62.4,748.2c0.2-0.5,0.4-1-0.5-0.9c-1.3,0.4-2.5-0.1-3.6-0.7c-0.1-0.1-0.1-0.2-0.1-0.4
			c0.1-0.2,0.2-0.4,0.4-0.5c0.2-0.1,0.4-0.2,0.6-0.3c1.2,0.2,2.2,1.4,3.5,1c0.3,0,0.6,0,0.9,0.2c0.3,0.2,0.4,0.4,0.4,0.7
			c0,0.1-0.1,0.3-0.2,0.4c-0.3,0.3-0.6,0.5-1.1,0.6C-62.2,748.4-62.4,748.3-62.4,748.2z"/>
		<path id="XMLID_1158_" class="st79" d="M-70.1,745.6c0.1-0.3,0.1-0.6-0.4-0.6c-0.8-0.1-0.9-0.6-0.7-1.3c1.8-0.5,2-0.3,1.8,1.8
			c-0.1,0.1-0.1,0.1-0.2,0.2C-69.7,745.6-69.9,745.6-70.1,745.6z"/>
		<path id="XMLID_1157_" class="st29" d="M-66.6,746.3c0,0.1,0,0.2,0,0.3c-0.7,0.5-1.3,0.5-2,0c-0.1-0.1-0.1-0.3,0-0.4
			C-67.9,745.9-67.2,746.1-66.6,746.3z"/>
		<path id="XMLID_1156_" class="st38" d="M-68.6,746.3c0,0.1,0,0.2,0,0.3c-0.7,0.1-1-0.2-1-1v-0.1c0.1-0.1,0.2-0.1,0.4-0.1
			C-68.9,745.7-68.6,745.9-68.6,746.3z"/>
		<path id="XMLID_1155_" class="st51" d="M-57.1,751.2c0,0.1,0,0.2,0,0.3c-0.6,0.5-1.1,1.1-1.9,1c-0.1-0.1-0.2-0.2-0.2-0.3
			c0.1-0.4-0.3-0.7,0-1.1C-58.5,750.4-57.8,750.2-57.1,751.2z"/>
		<path id="XMLID_1154_" class="st80" d="M-59.4,751.2c0.2,0.3,0.7,0.5,0.3,1c-0.3,0.2-0.7,0.3-1,0c-1,0.1-1-0.6-1-1.3
			c0-0.1,0-0.2,0-0.3c0.1-0.1,0.2-0.1,0.4-0.1c0.3,0.2,0.7,0.4,1.1,0.6C-59.5,751.1-59.5,751.1-59.4,751.2z"/>
		<path id="XMLID_1153_" class="st34" d="M-60.1,752.2c0.3,0,0.7,0,1,0c0,0.1,0,0.2,0,0.3C-59.5,752.7-60,753-60.1,752.2z"/>
		<path id="XMLID_1152_" class="st81" d="M-67.3,708.8c0.8-0.5,1.7-0.7,2.3-1.6c0.1,0,0.2-0.1,0.3-0.1c0.3-0.2,0.6,0,0.8,0.1
			c0.5,0.3,0.5,1,1.1,1.2c0.1,0.1,0.2,0.2,0.3,0.3c0.8,1.4-0.7,1.7-1.2,2.4c-0.2,0.1-0.4,0.1-0.6,0.1c-1.1,0.1-2.1,0-3.1,0.5
			c-0.1,0-0.3,0.1-0.4,0.1c-0.5-0.1-1.1-0.2-1.6,0c-0.1,0-0.3,0.1-0.4,0.1c-0.8,0.1-1.5-0.2-2.3-0.3c-0.1-0.1-0.1-0.3,0-0.4
			s0.1-0.3,0.2-0.4c0.3-0.4,0.8-0.3,1.1-0.5c0.3-0.1,0.6-0.2,1-0.3c0.4-0.2,1-0.1,1.3-0.6C-68.1,709.2-67.8,708.7-67.3,708.8z"/>
		<path id="XMLID_1151_" class="st73" d="M-64,707.5c-0.2-0.1-0.4-0.2-0.6-0.3c1.4-0.6,2.4-0.2,2.9,1.3c-0.3,0.3-0.6,0.3-0.9,0.2
			C-63.1,708.2-63.3,707.5-64,707.5z"/>
		<path id="XMLID_1150_" class="st82" d="M-62.7,708.4c0.3,0,0.6,0,1,0c0.3,0.5,0.4,1,0.3,1.6h-0.2h-0.2c-0.6-0.2-0.3-1.1-0.9-1.3
			l0,0c-0.1-0.1-0.1-0.1-0.1-0.2C-62.7,708.5-62.7,708.4-62.7,708.4z"/>
		<path id="XMLID_1149_" class="st83" d="M-53.5,745.6c0,0.1,0,0.2,0,0.3c-0.2,0.2-0.4,0.4-0.7,0.6c-0.2,0.2-0.4,0.4-0.6,0.6
			c-0.8,0.4-1.7,0.3-2.5,0c0.2,0.1-0.1,0,0,0c1.3,0.4,2.2,0.8,0.4,1.9c-0.9,0.2-1.7,0.2-2.6,0.1c-0.9-0.1-1.8-0.5-1-1.7
			c0.3-0.9-0.7-0.5-0.9-0.8c-0.1-0.2-0.2-0.4-0.1-0.6c0.2-0.5,0.8-0.8,0.8-1.4c0-0.5,0.2-1.1,1-0.9c0.5,2.3,0.5,2.3,3.7,1.6
			C-55.2,745.2-54.3,745-53.5,745.6z"/>
		<path id="XMLID_1148_" class="st77" d="M-60.1,747.6c-1.4,1.1,0,1.2,0.6,1.3c0.9,0.1,1.8,0,2.7,0c0.1-0.1,0.2-0.1,0.3,0
			c0.3,0.4,0.9,0.7,0,1.1c-0.4,0.2-0.7,0.6-0.7,1.1c-0.8-0.7-1.5-0.2-2.3,0l0,0c-0.4-0.8-1.2-1.3-1.9-1.9c-0.5-0.6-0.5-1.2,0.2-1.7
			l0,0C-60.7,747.2-60.4,746.8-60.1,747.6z"/>
		<path id="XMLID_1147_" class="st77" d="M-56.5,748.9c-0.1,0-0.2,0-0.3,0c0.6-0.5,0.9-1.1-0.2-1.3c-0.5-0.1-1-0.1-1.6-1
			c1.4,0.8,2.6,0.3,3.7,0.7C-55.2,748-55.6,748.7-56.5,748.9z"/>
		<path id="XMLID_1146_" class="st84" d="M-81,724.4c-0.3,0-0.5,0.1-0.7,0.3c-0.2,0.2-0.4,0.4-0.6,0.7c-0.2,0.2-0.3,0.4-0.6,0.6
			c-1.4,1.1-1.6,1-2.4-0.6c-0.9-0.8,0.5-1.3,0.3-1.9c0.4,0,0.9,0,1.3,0c0.2-0.2,0.4-0.3,0.6-0.4c0.8-0.2,1.6-0.7,2.4-0.9
			c1.1-0.2,1.5,0.2,1.3,1.3c-0.4,0.2-0.8,0.1-1.2,0.3C-80.7,723.9-80.8,724.2-81,724.4z"/>
		<path id="XMLID_1145_" class="st85" d="M-85.2,725.4c1,1.8,2,0.1,2.9,0c0.2,0.5,0.4,0.8-0.3,1.1c-0.6,0.2-1.1,0.6-1.6,0.9
			c-0.3,0-0.5-0.1-0.7-0.3C-84.8,726.4-85.7,726.1-85.2,725.4z"/>
		<path id="XMLID_1144_" class="st48" d="M-83.8,739.2c0.2,0.2,0.4,0.4,0.6,0.6c0,0.4,0,0.9,0,1.3c-0.3-0.2-0.6-0.4-1-0.7
			c0.2-1-0.4-2,0.3-3C-83.9,738-83.9,738.6-83.8,739.2z"/>
		<path id="XMLID_1143_" class="st48" d="M-82.3,742.4c-0.8,0-1-0.6-1-1.3C-82.2,741-82.2,741.7-82.3,742.4z"/>
		<path id="XMLID_1142_" class="st64" d="M-52.2,731.3c0.2,0,0.4,0,0.7,0c-0.2,0.4-0.4,0.8-0.3,1.3c-0.3,0.1-0.3,0.4-0.3,0.7
			c-1.4,0.1-2.5,1.2-3.8,1.5c-0.1,0.2-0.9-0.5-0.6,0.4c0.4,1.3-1,1.4-1.4,2.1c-0.7,0.1-0.7,0.8-1,1.2l0,0c-0.3,0.2-0.7,0.1-1,0
			c-0.1-0.1-0.2-0.1-0.3-0.2c-0.1-0.5-0.1-1,0-1.5c0.2-0.4,0.6-0.6,0.8-1c0.4-0.6,1-0.4,1.5-0.3c-0.7-0.2-1.2-0.2-1.7,0.4
			c-0.5,0.3-0.9,0.1-1.3-0.2c-0.4-0.5-1.2-0.9-0.1-1.5c0.6-0.3,1.3-0.4,1.9-0.7l0,0c1.6-0.5,3.2-0.9,4.6-2l0,0
			C-54,731.7-53.2,730.6-52.2,731.3z"/>
		<path id="XMLID_1141_" class="st86" d="M-70.2,726.4c-0.1-0.3-0.2-0.6-0.3-1c0.3,0,0.5-0.1,0.7-0.3c0.5-0.3,0.9-0.1,1.2,0.3
			C-68.4,726.8-68.7,726.9-70.2,726.4z"/>
		<path id="XMLID_1140_" class="st87" d="M-68.9,725.4c-0.3-0.1-0.6-0.2-1-0.3c0.2-0.4,0.4-0.8,0.7-1.2c0.1-0.2,0.3-0.3,0.6-0.4
			c0.2,0,0.5,0,0.7,0.1c0.1,0.1,0.2,0.2,0.2,0.4c-0.1,0.4-0.3,0.7-0.5,1C-68.4,725.2-68.5,725.6-68.9,725.4z"/>
		<path id="XMLID_1139_" class="st88" d="M-68.6,723.8c-0.2,0-0.4,0.1-0.6,0.1c-0.1,0-0.2-0.1-0.4-0.1c-0.1,0-0.2,0-0.3-0.1
			c-0.1-0.1-0.2-0.2-0.4-0.3c0-0.4,0.3-0.6,0.6-0.7c0.5-0.1,1-0.4,1.3,0.1C-68,723.2-68.3,723.5-68.6,723.8z"/>
		<path id="XMLID_1138_" class="st51" d="M-49.3,720.8c-1,0.9-2.4,0.8-3.6,1.3c-0.1,0-0.1-0.1-0.2-0.1c-0.2-0.2-0.3-0.4-0.2-0.6
			c0.3-0.7,1.4-0.4,1.7-1C-50.7,720.3-49.9,720.2-49.3,720.8L-49.3,720.8z"/>
		<path id="XMLID_1137_" class="st66" d="M-52.9,722.1c-0.6,0.7-1.5,1-2.3,1.3c-0.4-0.1-0.8-0.2-0.8-0.7
			C-54.6,721.1-54.6,721.1-52.9,722.1L-52.9,722.1z"/>
		<path id="XMLID_1136_" class="st22" d="M-55.8,722.8c0.2,0.2,0.4,0.4,0.6,0.6c-0.2,0.1-0.4,0.2-0.6,0.4c-0.6,0.4-1.3,0.5-2,0.2
			c-0.7-0.5-0.6-0.9,0.1-1.2C-57.1,722.6-56.5,722.4-55.8,722.8z"/>
		<path id="XMLID_1135_" class="st66" d="M-57.8,723.8c0.7,0,1.3,0,2,0c0,0.1,0,0.3,0,0.4c-0.1,0.3-0.4,0.3-0.6,0.3
			c-0.5,0.1-1,0.4-1.5,0.4c-0.2-0.1-0.2-0.2-0.3-0.3C-58.2,724.2-58,724-57.8,723.8z"/>
		<path id="XMLID_1134_" class="st89" d="M-79.7,723.4c0.3-0.2,0.7-0.3,0.3-0.7c-0.4-0.4-1-0.4-1.4-0.2c-0.7,0.4-1.4,0.7-2.2,0.9
			c-0.4-0.5-0.4-1.1-0.3-1.6c0.1,0,0.2,0,0.3,0c0.2-0.5,0.2-1.2,0.7-1.6c0.7-0.7,1.3-1.3,2-2c0.2-0.1,0.4-0.2,0.6-0.3
			c0.3-0.2,0.6-0.3,0.9-0.4c0.6-0.1,1.1-0.4,1.7,0c0.2,0.2,0.1,0.4,0,0.6c-0.3,0.3-0.6,0.4-1,0.5c-1.9,0.8-2,1.2-1,2.8
			c0.8-0.8,1.8-1.3,2.7-1.7c0.4-0.2,0.9-0.2,1.3-0.4c0.9-0.2,1.8-0.5,1.2,1c-0.2,0.1,0.1,0.1-0.1,0.1c-2.7,0.4-3.8,2.7-5.4,4.4
			c-0.5-0.3-1-0.9-1.6-0.3c0-0.4-0.1-0.7,0.3-1C-80.3,723.7-80,723.4-79.7,723.4z"/>
		<path id="XMLID_1133_" class="st74" d="M-82.3,720.2c0.1,0.4-0.5,0.8,0,1.3c0.2,0.2,0.4,0.5-0.1,0.5c-0.2,0-0.4-0.1-0.6-0.2
			c-0.3-0.4-0.3-0.9,0-1.3C-82.7,720.4-82.5,720.3-82.3,720.2z"/>
		<path id="XMLID_1132_" class="st74" d="M-83.2,721.8c0.3,0.5,0.4,1.1,0.3,1.6c-0.2,0-0.4,0-0.6,0
			C-83.5,722.9-83.8,722.3-83.2,721.8z"/>
		<path id="XMLID_1131_" class="st22" d="M-58.1,737.1c0.3-0.7,1.4-0.9,1.3-2c0.1-0.3,0.4-0.5,0.7-0.6c1.3-0.4,2.2-2.2,3.9-1.3
			c0,0.8-0.7,0.7-1.1,0.9c-0.6,0.2-1.2,0.5-1.5,1.1c-0.7,0.3-1.3,0.6-1.7,1.3c-0.6,0-0.8,0.5-1.3,0.7
			C-57.9,737.3-58,737.3-58.1,737.1z"/>
		<path id="XMLID_1130_" class="st58" d="M-69.2,745.6c-0.1,0-0.2,0-0.3-0.1c0-1.1-0.1-2.1-1.6-1.9l0,0c-0.4-0.4,0.3-0.9,0-1.3
			c0.3-0.7,0.6-1.3,1-2c1,0.4,1-1.3,2-1c0.1,0.1,0.2,0.2,0.2,0.4c0,0.1,0,0.2,0,0.3c-0.8,1-1,2-0.3,3.1c0.2,0.8,1.3,1,1.4,2
			c0.1,0.3,0,0.7-0.3,0.9C-68,746.3-68.6,746.1-69.2,745.6z"/>
		<path id="XMLID_1129_" class="st74" d="M-68.2,739.8c0-0.1,0-0.2,0-0.3c0.3-0.6,1-1.1,1-2c0.2-0.2,0.4-0.2,0.6-0.2
			c0.3,0.1,0.6,0.2,0.7,0.5c0.1,0.4-0.2,0.7-0.4,1c-0.3,0.5-0.5,1.1-1,1.5C-67.7,740.4-68,740.1-68.2,739.8z"/>
		<path id="XMLID_1128_" class="st24" d="M-68.6,736.8c0.7-0.3,1.1-1,2-1c0.2,0.2,0.2,0.4,0.2,0.6c-0.1,0.2-0.2,0.4-0.3,0.6
			c-0.3,0.2-0.5,0.3-0.8,0.1C-67.8,736.8-68.2,736.8-68.6,736.8z"/>
		<path id="XMLID_1127_" class="st90" d="M-67.6,737.2c0.3,0,0.5-0.1,0.7-0.3c0.3-0.2,0.6-0.2,0.7,0.2c0.1,0.3-0.1,0.5-0.4,0.5
			c-0.2,0-0.4,0-0.6,0C-67.4,737.4-67.5,737.3-67.6,737.2z"/>
		<path id="XMLID_1126_" class="st65" d="M-77,717.6c-0.5,0.1-1.1,0.2-1.6,0.3c-0.1-0.3-0.1-0.7,0-1s0.3-0.5,0.6-0.7
			c0.5-0.4,1.2-0.5,1.6-1l0,0c0.4-0.3,0.6,0.6,1,0.2c0.2-0.3,0-0.8,0.5-1c1.5,0,1.5,0,1.3,1.9C-74.6,717.5-75.8,717.6-77,717.6z"/>
		<path id="XMLID_1125_" class="st72" d="M-73.8,716.3c-0.2,0-0.5-0.1-0.4-0.3c0.8-1.3,0.1-1.3-0.9-1.3c-0.1-0.1-0.1-0.1-0.1-0.2
			s0.1-0.1,0.1-0.1c0.3-0.1,0.3-0.4,0.3-0.6c0.5,0,0.9-0.1,1.3-0.3c0.1,0,0.1,0.1,0.2,0.1c0.4,0.2,1.3-0.1,1.1,0.9l0,0
			c-0.3,0.2-0.3,0.6-0.4,0.9c-0.2,0.2-0.2,0.4-0.1,0.6c-0.1,0.4-0.5,0.5-0.9,0.5C-73.6,716.3-73.7,716.3-73.8,716.3z"/>
		<path id="XMLID_1124_" class="st91" d="M-75.1,715.6c-0.2,0.3-0.2,0.8-0.7,0.8c-0.6-0.1-0.1-0.9-0.7-1.1c-0.4-0.8,0.2-0.6,0.7-0.7
			C-75.3,714.8-75.2,715.2-75.1,715.6z"/>
		<path id="XMLID_1123_" class="st91" d="M-76.4,715.3c-0.2,0.9-0.9,0.9-1.6,1C-77.7,715.6-77.2,715.2-76.4,715.3z"/>
		<path id="XMLID_1122_" class="st92" d="M-78.7,716.9c0.2,0.3,0.2,0.7,0,1c-0.3,0-0.7,0-1,0c0-0.5,0.5-0.6,0.7-0.9
			C-78.9,716.9-78.8,716.9-78.7,716.9z"/>
		<path id="XMLID_1121_" class="st93" d="M-75.4,713.7c0.2-0.4,0.2-0.7-0.3-0.7c0.3-0.3,0.6-0.4,1-0.2c0.4,0.2,0,0.5,0,0.8
			C-75,713.6-75.2,713.6-75.4,713.7z"/>
		<path id="XMLID_1120_" class="st94" d="M-75.1,715.6c-0.2-0.3-0.4-0.7-0.7-1c0.2-0.1,0.4-0.2,0.7-0.3c0,0.1,0,0.2,0,0.3
			C-75.2,715-74.7,715.3-75.1,715.6z"/>
		<path id="XMLID_1119_" class="st24" d="M-71.2,742.4c0.6,0.4,0.2,0.9,0,1.3c-0.2,0-0.4,0-0.6,0C-72,743.1-71.5,742.7-71.2,742.4z"
			/>
		<path id="XMLID_1118_" class="st62" d="M-53.5,745.6c-1,0-2,0-2.9,0c-0.7,0.2-1.5,0.4-2-0.3c-0.4-0.7-0.1-1.3,0.6-1.8
			c0.3-0.2,0-0.6,0-0.9c0-0.3,0.1-0.6,0.2-0.8c0.1-0.1,0.2-0.2,0.3-0.3c0.5-0.2,0.6-0.8,0.9-1.1c0.1,0,0.2,0,0.3,0
			c0.7-0.6,1.4,0,2.1,0.1c1.2,0.2,0.9,0.7,0.5,1.4c0,0.1,0.5,0.5,0.8,0.7c0.2,0.1,0.4-0.6,0.7-0.2c0.2,0.4-0.1,0.7-0.4,0.9
			c-0.4,0.2-0.7,0.3-0.3,0.9C-52.4,744.9-53.2,745.2-53.5,745.6z"/>
		<path id="XMLID_1117_" class="st77" d="M-58.1,739.8c0.4,0.2,0.9,0.4,1.3,0.7c0.2,0.6-0.3,0.9-0.7,1.3l0,0c-1.8,0.7-2,0.7-2.3-0.8
			C-59.8,739.7-58.7,740.1-58.1,739.8z"/>
		<path id="XMLID_1116_" class="st95" d="M-58.1,739.8c-0.4,0.5-1.6,0.2-1.3,1.3c-0.2,0.2-0.4,0.2-0.6,0.2c-0.6-0.2-0.9-0.6-0.8-1.2
			c-0.1-0.8,0-1.5,0.8-1.9c0.3,0.1,0.6,0.2,1,0.3c0,0.1,0,0.2,0,0.3c-0.2,0.2-0.4,0.4-0.6,0.6C-59.3,740-58.7,739.7-58.1,739.8z"/>
		<path id="XMLID_1115_" class="st96" d="M-57.5,741.7c-0.1-0.6,0.3-0.9,0.7-1.3c0.1,0,0.2,0,0.3,0
			C-56.5,741.1-56.4,741.8-57.5,741.7z"/>
		<path id="XMLID_1114_" class="st73" d="M-61.1,747.6c-0.4,0.5-0.4,1.1,0,1.6c0,0.5,1.2,0.6,0.3,1.3c-0.1,0-0.2,0-0.3,0
			c-0.3-0.2-0.6-0.4-1-0.7c-0.3-0.5-0.2-1.1,0-1.6C-61.9,747.8-61.5,747.6-61.1,747.6z"/>
		<path id="XMLID_1113_" class="st10" d="M-62,748.3c0.5,0.5,0.1,1.1,0,1.6c-0.5-0.4-0.7-0.9-0.7-1.5c0.1-0.1,0.2-0.1,0.3-0.1
			C-62.3,748.2-62.2,748.2-62,748.3z"/>
		<path id="XMLID_1112_" class="st97" d="M-79.7,712c0.4-0.5-0.4-1.2,0.3-1.6c1.1,0.2,1.9-0.7,2.9-0.7c0.1,1-0.7,1.5-1.3,2.1
			c1.7,0.4,1.7,0.4,2.4-1.6c0.7,1.1,2.3,1.6,2.2,3.2c-0.1,0.1-0.2,0.1-0.3,0l0,0c-0.2-1-0.6-1.4-1.7-1c-0.7,0.3-1.6,0.3-2.2,0.7
			C-78.4,713.2-78.9,712.4-79.7,712z"/>
		<path id="XMLID_1111_" class="st78" d="M-49.3,720.8c-0.8-0.1-1.5-0.2-2.3-0.3c-0.1-0.2-0.1-0.3,0.1-0.5c2.5-0.1,4.8-0.8,6.5-2.9
			c0.9,0.4,0.6,1,0.3,1.6s-0.8,1.2-1.2,1.7c-0.4,0-0.8,0.1-1.3,0.1C-48,720.6-48.7,720.3-49.3,720.8z"/>
		<path id="XMLID_1110_" class="st98" d="M-46,720.4c0-0.6,0.1-1,0.6-1.4s1.1-1,0.4-1.8c0-0.1-0.1-0.1-0.1-0.2c0-0.5-0.2-1,0.4-1.3
			c0.7,0.1,1.2,0.4,1.1,1.2l0,0c-0.2,0.6,0,1.2-0.3,1.8c-0.1,0.1-0.1,0.2-0.2,0.4c-0.2,0.4-0.4,0.9-0.8,1.1
			C-45.4,720.3-45.7,720.3-46,720.4z"/>
		<path id="XMLID_1109_" class="st34" d="M-43.4,717.2c0.4,0.2,0.7,0.5,0.9,0.9c-0.8,0.1-0.5,1.5-1.5,1.4c-0.6,0-0.5-0.3-0.3-0.7
			l0,0C-43.4,718.7-44.1,717.6-43.4,717.2z"/>
		<path id="XMLID_1108_" class="st24" d="M-44.4,718.9c0,0.3,0.1,0.5,0.3,0.7c-0.2,0.4-0.5,0.7-1,0.6
			C-44.8,719.7-44.6,719.3-44.4,718.9z"/>
		<path id="XMLID_1107_" class="st95" d="M-58.1,737.1c0.1,0,0.2,0,0.3,0c-0.4,0.4-0.9,0.9-1.3,1.3
			C-59.1,737.8-59.1,737.1-58.1,737.1z"/>
		<path id="XMLID_1106_" class="st99" d="M-58.1,724.8c0.6,0,1.1-0.5,1.7-0.3c-0.1,0.1-0.2,0.2-0.4,0.3c-0.4,0.1-0.8,0.4-1.3,0.3
			C-58.2,724.9-58.2,724.8-58.1,724.8z"/>
		<path id="XMLID_1105_" class="st30" d="M-65.3,711.7c-0.1,0.1-0.2,0.2-0.3,0.3c-0.8,0.8-1.9,0.9-3,1.3c0-0.1-0.1-0.1-0.1-0.2
			c-0.3-1,0.8-0.8,1.1-1.3c0.7-0.4,1.4-0.8,2.2-0.3C-65.4,711.6-65.3,711.7-65.3,711.7z"/>
		<path id="XMLID_1104_" class="st30" d="M-70.8,715c0-0.5,0.1-0.9,0.3-1.3c0.6-0.3,1.2-0.8,1.9-0.3l0,0c-0.3,0.3-0.6,0.7-1,1
			c0,0.1,0,0.1-0.1,0.2c-0.5,0.5-0.2,0.8,0.2,1.2c0,0.2-0.1,0.3-0.2,0.4c-0.6,0.2-1.1,0.3-1.6-0.3C-71.3,715.4-71.1,715.2-70.8,715z
			"/>
		<path id="XMLID_1103_" class="st100" d="M-68.6,714.3c0.4,0.6,1.1,0.1,1.6,0.3c-0.4,1.1-1.4,0.7-2.2,0.9c-1-0.2-0.9-0.7-0.4-1.3
			l0,0C-69.2,714.3-68.9,714.3-68.6,714.3z"/>
		<path id="XMLID_1102_" class="st73" d="M-69.2,715.3c0.7-0.4,1.6-0.2,2.3-0.7c1.1-0.1,2.1-0.2,3.2-0.4c0.4,0.1,0.8,0,1,0.4
			c-0.3,0.7-0.9,1-1.5,1.3c-0.2,0.1-0.4,0.1-0.7,0.2c-0.7-0.1-1.2,0.4-1.7,0.7c-1-0.1-1.9-0.6-2.9-0.8c0-0.1,0-0.2,0-0.3
			C-69.5,715.5-69.3,715.4-69.2,715.3z"/>
		<path id="XMLID_1101_" class="st30" d="M-64.3,711c0.2,0,0.4,0,0.6,0c0.3-0.2,0.6-0.3,0.9,0c0.1,0,0.1,0.1,0.2,0.1
			c-0.2,0.1-0.5,0.2-0.7,0.3c-0.7-0.1-1.2,0.8-2,0.3l0,0C-65.3,711-64.8,711-64.3,711z"/>
		<path id="XMLID_1100_" class="st22" d="M-62.8,711c-0.3,0-0.6,0-0.9,0c0.1-0.9,1.8-1,1-2.3c0.8,0,0.6,0.8,0.9,1.3
			C-62.1,710.3-62.5,710.7-62.8,711z"/>
		<path id="XMLID_1099_" class="st22" d="M-59.4,714c1-0.2,1.9,0.4,2.9,0.3c1-0.7,2,0,2.9,0c0.1,0.8-0.6,0.8-1.1,0.9
			c-0.6,0.1-1.2,0.4-1.8,0.7c-1.2,0.2-2.3,0.1-3.2-0.9C-59.7,714.7-59.7,714.3-59.4,714z"/>
		<path id="XMLID_1098_" class="st78" d="M-52.6,715c2.1-1.1,4.3-0.8,6.5-1l0,0c0.4,0.6,0.7,1.1,0,1.7c-2.1-1.1-4.1-0.5-6.2,0
			c-0.2,0-0.5-0.1-0.7-0.3C-53,715.1-52.9,714.9-52.6,715z"/>
		<path id="XMLID_1097_" class="st84" d="M-52.9,715.3c0.2,0,0.4,0,0.7,0c-0.1,0.9-0.9,0.8-1.5,0.9c-0.8-0.2-1.6,0.3-2.4-0.2
			c-0.1-0.1-0.1-0.3,0-0.4c0-0.8,0.8-0.6,1.2-0.7c0.5-0.2,1.1,0,1.4-0.6c0.1,0,0.2,0,0.3,0C-52.9,714.6-53.2,715-52.9,715.3z"/>
		<path id="XMLID_1096_" class="st22" d="M-52.9,715.3c-0.9-0.1-0.2-0.7-0.3-1c0.6-0.2,0.4,0.4,0.7,0.7
			C-52.7,715.1-52.8,715.2-52.9,715.3z"/>
		<path id="XMLID_1095_" class="st101" d="M-46,715.6c0.3-0.5-0.1-1.1,0-1.6c0.4,0.1,0.9,0.2,1.3,0.3c0.1,0.3,0.4,0.3,0.7,0.3
			c0,0.8,1.3,1.3,0.7,2.3c-0.1,0-0.2,0-0.3,0c-0.3-0.5-0.6-1-1.3-1c-0.3,0.2-0.5,0.1-0.7-0.1C-45.9,715.8-46,715.7-46,715.6z"/>
		<path id="XMLID_1094_" class="st34" d="M-43.4,716.9c0.2-0.9-1.2-1.3-0.7-2.3C-43.6,715.3-42.2,715.7-43.4,716.9z"/>
		<path id="XMLID_1093_" class="st101" d="M-43.4,717.2c-0.2,0.6,0.4,1.7-1,1.6c0.3-0.6,0-1.4,0.7-1.9
			C-43.6,717-43.5,717.1-43.4,717.2z"/>
		<path id="XMLID_1092_" class="st63" d="M-64.3,715.6c0.5-0.3,1.1-0.7,1.6-1c0.1,0,0.2,0,0.3,0c0.7,0.6,1.8-0.4,2.4,0.6
			c-0.6,0.4-0.7,1.1-1,1.6c-0.5,0.4-1.1,0.6-1.8,0.7C-63.7,717.2-64.1,716.5-64.3,715.6z"/>
		<path id="XMLID_1091_" class="st73" d="M-60.1,715.3c-0.6-0.7-1.9,0.7-2.3-0.6c0.9-0.6,2-0.3,2.9-0.6c0,0.3,0,0.6,0,1
			C-59.5,715.3-59.7,715.4-60.1,715.3z"/>
		<path id="XMLID_1090_" class="st98" d="M-68.9,725.4c0.3-0.1,0.3-0.4,0.3-0.7c0.6-0.1,0.6,0.4,0.7,0.7c0.3,1,1.7,1.1,1.7,2.4
			c-0.1,0.7-0.4,1.1-1.2,1.1c-0.3-0.2-0.5-0.1-0.6,0.3c-0.1,0.1-0.2,0.2-0.3,0.3c-0.2,0.1-0.3,0.2-0.5,0.2c0.2,0.1,0.5,0,0.6,0.3
			c0,0.4-0.3,0.5-0.6,0.6c-0.9,0.1-1.6,1.1-2.6,0.9c-0.7-0.4-1.2-1.4-2.2-0.6c-0.4,0.3-0.8,0.4-1.3,0.3c-0.6-0.2-0.4-0.8-0.6-1.2
			c-0.3-0.5,0.3-0.7,0.4-0.6c1.1,0.9,1.3-0.4,1.9-0.7c0.2,0.2,0.3,0.5,0.6,0.3c0.3-0.2-0.1-0.1-0.1-0.1c-0.2,0-0.4-0.1-0.6-0.2
			c0.6-0.7,1.9-0.3,2.3-1.3c0.7,0.3,0.3-0.6,0.7-0.7c0-0.1,0-0.2,0-0.3C-69.7,726.1-68.3,727.1-68.9,725.4z"/>
		<path id="XMLID_1089_" class="st75" d="M-75.4,730c0.2,0.3,0.4,0.7,0.7,1c0.1,0.3-0.3,1.1,0.6,0.6c0.3-0.2,0.6-0.4,1-0.6
			c0.6-0.2,0.9-0.1,0.9,0.6c0,0.2-0.1,0.3-0.2,0.5c-1.3,1.1-2.9,1.3-4.4,2c-0.7,0.3-1.4,0.4-2,1c-0.4,0.4-0.9,0.4-1.2-0.2
			c0.2-0.4,0.2-0.7-0.3-0.7c0-1,1.1-0.7,1.5-1.2c0.1-0.2,0.2-0.3,0.4-0.5c0.1-0.1,0.3-0.1,0.4-0.1c0.8-0.1,0.3-0.4,0.1-0.6
			c0-0.1-0.1-0.1-0.1-0.2c0.3-1.1,0.3-1,1.4-0.7C-76,731.1-75.9,730.2-75.4,730z"/>
		<path id="XMLID_1088_" class="st85" d="M-78.4,733.2c-0.7,0.3-1.3,0.7-2,1c-0.7,0-0.7-0.5-0.7-1c1.2,0.3,0.7-1.3,1.6-1.3
			c0.2,0.2,0.6,0.1,0.7,0.3C-78.5,732.6-78.7,733-78.4,733.2z"/>
		<path id="XMLID_1087_" class="st96" d="M-78.7,732.3c-0.3,0-0.5-0.1-0.6-0.3c0.5,0,0.9-0.1,1.3-0.3l0,0c0.2,0.2,0.7,0.1,0.7,0.5
			c0,0.3-0.3,0.6-0.7,0.4c-0.1,0-0.2,0-0.3,0C-78.6,732.6-78.6,732.4-78.7,732.3z"/>
		<path id="XMLID_1086_" class="st86" d="M-70.2,726.7c-0.1,0.3,0.2,1.1-0.7,0.7c0.4-0.3-0.6-0.6,0-0.8
			C-70.7,726.5-70.4,726.6-70.2,726.7z"/>
		<path id="XMLID_1085_" class="st102" d="M-80,734.9c0.2,0.1,0.5,0.3,0.6,0.2c2-1.8,4.7-2,6.9-3.1c0.8,0,1.1,0.5,1.2,1.1
			c0,0.2,0,0.3-0.1,0.4c-0.3,0.5-1,0.7-1.5,1c-0.3,0.2-0.7,0.4-1,0.7c-0.3,0.7-1,0.8-1.6,1c-0.1,0.3-0.3,0.5-0.7,0.7
			c-0.8,0.3-1.7,0.3-2.3,1c0,0.1,0,0.2,0,0.3c-0.9,0.5-1.9,0.4-2.6-0.3c-0.6-0.5-0.8-1.2-0.3-2C-80.6,735.9-80.6,735-80,734.9z"/>
		<path id="XMLID_1084_" class="st22" d="M-79.7,740.7c-0.1,0.6-0.4,0.8-0.9,0.5c-0.6-0.5,0.3-0.4,0.4-0.7c0-0.3,0.1-0.5,0.1-0.8
			c0-0.1,0-0.2,0-0.3C-78.9,739.6-79.5,740.2-79.7,740.7z"/>
		<path id="XMLID_1083_" class="st103" d="M-81,739.4c-0.4,0-0.6-0.2-0.7-0.7C-81.2,738.8-80.6,738.6-81,739.4z"/>
		<path id="XMLID_1082_" class="st89" d="M-64.6,734.5c-0.5-1-1-1.4-1.9-0.3c-0.2,0.3-0.4,0.6-0.8,0.5c-0.5-0.2,0.1-0.7-0.2-1
			c-1,1.5-2.7,0.8-4,1.1c-0.2-0.2-0.2-0.4-0.1-0.6c0.3-0.5,0.7-0.7,1.4-0.5c-0.3-0.2-0.7-0.1-0.9-0.4c0.4-0.7,0.3-2.1,1.8-1.2
			c0.1,0.2-0.1,0.6,0.2,0.6c0.1,0,0.1-0.4,0.1-0.6c0.2-0.6,0.3-1.2,0.8-1.6c0.3-0.2,0.6-0.2,0.9,0c0.3,0.3,0.4,0.8,0.9,0.8
			c0.2-0.7,0.4-1.4,1.3-1.5c0.1,0,0.3,0.1,0.4,0.1c0.3,0.2,0.6,0.2,0.9,0c0.6-0.4,1.1-1,1.9-0.6c0.1,0,0.3,0.1,0.4,0.2
			c0.3,0.2,0.6,0.3,1,0.2c0.3,0.1,0.8,0,0.7,0.6c-0.1,0.7,0.5,0.2,0.7,0.3c-0.1,0.3-0.4,0.3-0.7,0.3c-0.5,0.5-0.4,1.9-1.7,1.1
			c-0.3-0.4-0.5-0.1-0.8,0.1c-0.9,0.3-1.3,0.8-0.9,1.8C-63.6,734.7-63.9,735-64.6,734.5z"/>
		<path id="XMLID_1081_" class="st104" d="M-61.7,731.9c1.1,0.6,0.9-0.9,1.6-1c0.4,0.8,0.7,1.7,0.7,2.6c-0.3,0.7-1,0.8-1.6,1
			c-0.7-0.2-1.7,0.1-1.9-1.1c0-0.2,0.1-0.5,0.2-0.6C-62.2,732.7-62.3,731.9-61.7,731.9z"/>
		<path id="XMLID_1080_" class="st104" d="M-54.8,731.6c-1.1,1.5-2.7,2.2-4.6,2C-58.4,731.7-56.4,732.2-54.8,731.6z"/>
		<path id="XMLID_1079_" class="st89" d="M-58.1,729.6c-0.1-0.4-1.2-0.5-0.6-1c0.3-0.3,0.9-1,1.6-0.6c0.5,0.3,0.9,0.3,1.3,0.3
			c-0.3,0.2-0.7,0.4-1,0.7c-0.2,0.3-0.5,0.7-1,0.7C-57.9,729.6-58,729.6-58.1,729.6z"/>
		<path id="XMLID_1078_" class="st104" d="M-57.8,729.6c0.3-0.2,0.7-0.4,1-0.7c0.2,0.6,0.9,1.4-0.4,1.6c-0.6,0.1-0.5,0.9-1,1.2
			C-58.7,731-57.2,730.5-57.8,729.6z"/>
		<path id="XMLID_1077_" class="st104" d="M-52.2,731.3c-0.5,0-1-0.1-1.4,0.5c-0.5,0.8-0.8,0.1-1.2-0.2
			C-54,731-53.3,730.2-52.2,731.3z"/>
		<path id="XMLID_1076_" class="st75" d="M-60.1,730.3c-0.2-0.4-0.6-0.3-1-0.3c-0.1-0.1-0.1-0.2-0.1-0.4c0.3-0.3,0.6-0.6,0.8-0.9
			c0.1-0.1,0.2-0.1,0.4-0.2c0.1,0,0.1,0.1,0.2,0.1C-59.7,729.3-59.4,729.9-60.1,730.3z"/>
		<path id="XMLID_1075_" class="st75" d="M-60.7,728c0.4-0.4,0.9-0.5,1.3,0c0,0.3-0.1,0.5-0.3,0.7l0,0
			C-60,728.3-60.8,728.9-60.7,728z"/>
		<path id="XMLID_1074_" class="st61" d="M-60.7,728c0.3,0.2,0.7,0.4,1,0.7c-0.1,0-0.2,0-0.3,0c-0.1,0.1-0.2,0.2-0.3,0.3
			c-0.5,0.2-1.3,0-1.6,0.7c-0.9-0.4-1.3,0.4-2,0.7c-0.3-0.1-0.7,0.2-1,0c0-0.1,0-0.2,0-0.3c-0.1-0.8,0.6-0.9,1.1-1.2
			c0.4-0.2,0.7-0.4,1.1-0.6c0.4-0.2,0.8-0.3,1.2-0.5c0.1,0,0.1,0,0.2,0C-61.2,727.8-60.9,727.9-60.7,728z"/>
		<path id="XMLID_1073_" class="st105" d="M-58.7,726.1c-0.3,0.5-0.8,0.6-1.4,0.6c-0.2,0.1-0.5,0.1-0.7,0c0-1.1,0.7-1.2,1.6-1.2
			C-58.9,725.7-58.7,725.9-58.7,726.1z"/>
		<path id="XMLID_1072_" class="st8" d="M-61.3,727.4c0,0.1,0,0.2,0,0.3l0,0c-0.5,0.4-1,0.5-1.6,0.6c-0.4,0-0.7-0.1-0.8-0.5
			c0-0.3,0.1-0.5,0.3-0.6c0.2-0.1,0.5-0.2,0.7-0.2s0.3,0,0.5,0C-61.9,727-61.6,727.1-61.3,727.4z"/>
		<path id="XMLID_1071_" class="st106" d="M-61.3,727.4c-0.3,0-0.7,0-1,0c0.3-0.9,0.9-1,1.6-0.6c0.2,0,0.5,0,0.7,0.1
			C-60.2,727.6-60.8,727.3-61.3,727.4z"/>
		<path id="XMLID_1070_" class="st107" d="M-58.7,726.1c-0.1-0.1-0.3-0.3-0.4-0.4c0.1-0.5,0.3-0.5,0.7-0.3c0.2,0.1,0.5,0.2,0.7,0.4
			C-58,725.9-58.4,726-58.7,726.1z"/>
		<path id="XMLID_1069_" class="st33" d="M-58.4,725.4c-0.2,0.1-0.5,0.2-0.7,0.3c-0.6,0.2-1.3,0.3-1.6,1c-0.6,0.1-1.2,0.2-1.6,0.6
			c-0.1,0-0.2,0-0.3,0c-0.3-1.4,1.2-1.3,1.7-2c0.6-0.4,1.1-1.4,2-0.7c0.2,0.1,0.4,0.2,0.5,0.4C-58.4,725.2-58.4,725.3-58.4,725.4z"
			/>
		<path id="XMLID_1068_" class="st22" d="M-58.4,725.1c-0.2,0-0.5,0-0.7,0c0-0.7,0.3-0.9,1-0.6c0,0.1,0,0.2,0,0.3c0,0.1,0,0.2,0,0.3
			C-58.2,725.1-58.3,725.1-58.4,725.1z"/>
		<path id="XMLID_1067_" class="st108" d="M-79.3,724.8c0.1-0.8,0.4-1.5,1.2-1.8c0.6-0.2,0.2-0.5,0.2-0.7c0.3-1.1,1.1-1.4,2.1-1.6
			c0.6-0.1,1.1-0.3,1.7-0.5c1.3-1.1,3-1.2,4.5-1.7c0.9,1.5,0.8,1.8-1.1,1.9c0.6,0.4,1.1,0.4,1.5,0.1c1.6-1,3.3-0.7,5-1
			c1-0.1,1.5,1.1,2.5,1.3c0.3,0.7-0.1,1.1-0.6,1.4c-0.1,0.1-0.3,0.1-0.5,0c-0.9-1.2-2-0.2-3-0.4c-0.5,0.1-1,0.2-1.5,0.3
			c-0.1,0-0.3,0.1-0.4,0.1c-1.3,0.1-2.5,0.7-3.9,0.6l0,0c-0.5,0.4-1.2,0.1-1.6,0.6c-0.1,0-0.2,0-0.3,0c-1.2,0-2.3,0.4-3.3,1
			C-77.7,724-78.4,725.4-79.3,724.8z"/>
		<path id="XMLID_1066_" class="st76" d="M-71.5,722.8c1.3-0.5,2.5-1,3.9-1c-0.2,1.2-1.6,0.4-2,1.3c-0.2,0.1-0.5,0.2-0.7,0.3
			C-70.7,723.2-71.1,723-71.5,722.8z"/>
		<path id="XMLID_1065_" class="st65" d="M-68.6,713.3c-0.6,0.1-1.3,0.5-1.9,0.3c-0.4-0.4,0.4-0.4,0.3-0.7c0.2-0.2,0.6-0.2,0.3-0.6
			l0,0c-0.2-0.2-0.2-0.4,0-0.6c0.1,0,0.2,0,0.3,0c0.5,0.1,1.1-0.1,1.6,0c0.1,0,0.2,0,0.3,0c0.1,0.1,0.1,0.1,0.1,0.2
			s-0.1,0.1-0.1,0.1C-67.9,712.5-68.8,712.5-68.6,713.3z"/>
		<path id="XMLID_1064_" class="st61" d="M-73.5,709.7c0.2,0,0.4,0,0.6,0c0.2,0.1,0.4,0.2,0.7,0.3c0.2,0.6-0.4,0.6-0.6,0.8
			c-0.1,0.1-0.2,0.1-0.4,0.2c-0.4,0-0.8,0.1-0.9-0.4C-74.2,710.2-73.6,710.1-73.5,709.7z"/>
		<path id="XMLID_1063_" class="st63" d="M-69.9,711.7c0,0.2,0,0.4,0,0.6c-1,0-2-0.2-2.9-0.6c0.1-0.3,0.3-0.5,0.7-0.3
			C-71.4,711.6-70.6,711.7-69.9,711.7z"/>
		<path id="XMLID_1062_" class="st61" d="M-73.4,713.3c0.1,0,0.2,0,0.3,0c0.5-0.1,0.9-0.1,1.4-0.2c0.2,0.5-0.1,0.9-0.5,1.2
			C-72.3,713.6-73.1,713.8-73.4,713.3z"/>
		<path id="XMLID_1061_" class="st109" d="M-72.1,711.4c-0.2,0.1-0.4,0.2-0.7,0.3c-0.3-0.1-0.3-0.4-0.3-0.7c0-0.1,0-0.2,0-0.3
			C-72.5,710.5-71.9,710.2-72.1,711.4C-72.2,711.4-72.1,711.4-72.1,711.4z"/>
		<path id="XMLID_1060_" class="st24" d="M-72.8,715.6c-0.2-0.1-0.2-0.2,0-0.3c0.2-0.2,0.3-0.5,0.7-0.6c0.1,0,0.2,0,0.3,0
			c0.1,0.4,0.7,0.6,0.2,1.1C-72,716-72.4,716-72.8,715.6z"/>
		<path id="XMLID_1059_" class="st55" d="M-71.5,715.6c-0.1-0.3-0.2-0.6-0.3-1c0.3,0.1,0.6,0.2,1,0.3c0,0.3-0.1,0.5-0.3,0.7
			C-71.3,715.7-71.4,715.7-71.5,715.6z"/>
		<path id="XMLID_1058_" class="st110" d="M-72.1,714.6c0,0.4-0.2,0.6-0.7,0.6c0-0.5,0-0.9,0.7-1C-72.1,714.4-72.1,714.5-72.1,714.6
			z"/>
		<path id="XMLID_1057_" class="st24" d="M-69.9,712.4c0.2,0.1,0.6,0,0.5,0.4c-0.1,0.3-0.5,0.2-0.8,0.2
			C-70.1,712.8-70,712.6-69.9,712.4z"/>
		<path id="XMLID_1056_" class="st63" d="M-68.6,709.4c0.1,1.3-0.7,0.7-1.3,0.6C-69.5,709.6-69.1,709.5-68.6,709.4z"/>
		<path id="XMLID_1055_" class="st92" d="M-72.2,711.4c0-0.7-0.5-0.7-1-0.6c0.3-0.2,0.6-0.4,1-0.7c0.2,0,0.4,0,0.7,0
			c0.2,0.4-0.2,0.7-0.3,1C-71.9,711.1-72,711.3-72.2,711.4z"/>
		<path id="XMLID_1054_" class="st63" d="M-71.8,711c0.1-0.3,0.2-0.7,0.3-1c0.2,0.1,0.4,0.2,0.6,0.3
			C-71.2,710.6-71.5,710.8-71.8,711z"/>
		<path id="XMLID_1053_" class="st111" d="M-75.4,736.2c0.4-0.5,1.1-0.7,1.6-1c0.8,0.6,1.8,0.7,2.7,1c0.4,0.1,0.8,0.1,0.9,0.7
			c-0.7,0.2-1.1,0.7-2.1,0c-1.2-0.8-0.6,0.8-0.8,1.3c-0.8,0.5-0.7-0.4-1-0.6l0,0C-74.4,736.9-74.9,736.5-75.4,736.2z"/>
		<path id="XMLID_1052_" class="st84" d="M-62.7,733.2c0,1.2,1.2,0.7,1.6,1.3c-1,0.3,0.1,0.7,0,1c0.1,0.1,0.1,0.2,0.1,0.2
			c0,0.1,0,0.1-0.1,0.1c-0.1,0.1-0.3,0.1-0.4,0.1c-0.5-0.1-0.9-0.3-1.4-0.3c-0.7-0.4-1.9,0.5-2.1-0.9c0.1-0.1,0.2-0.2,0.3-0.3
			c0.7,0.1,1.1-0.3,1-1C-63.4,733.2-63.1,733-62.7,733.2z"/>
		<path id="XMLID_1051_" class="st112" d="M-65,734.9c0.5,1,1.7-0.1,2.3,0.7c0.4,0.5,0.3,0.9-0.3,1.1c-0.4,0.1-0.8,0.2-1.2,0.3
			c-0.8-0.2-1.6,0.1-2.3-0.4c0-0.2,0-0.4,0-0.7C-66,735.6-65.4,735.4-65,734.9z"/>
		<path id="XMLID_1050_" class="st113" d="M-71.5,734.2c0,0.2,0,0.4,0,0.7c-0.4-0.1-0.9-0.2-1.3-0.3c0.3-0.5,0.6-1,1.3-1
			C-71.3,733.8-71.3,734-71.5,734.2z"/>
		<path id="XMLID_1049_" class="st81" d="M-78.4,737.8c0.4-1.1,1.2-1.3,2.3-1c0,0.1,0,0.2,0,0.3C-76.7,738-77.6,737.6-78.4,737.8z"
			/>
		<path id="XMLID_1048_" class="st77" d="M-74.1,737.5c0.3,0.2,0.5,0.7,1,0.6C-74.1,738.8-74.1,738.1-74.1,737.5z"/>
		<path id="XMLID_1047_" class="st66" d="M-62,746.6c-1.3,1-2.2-0.3-3.2-0.7c-0.2-0.1-0.5-0.2-0.7-0.3c-0.1-0.1-0.2-0.3-0.2-0.4
			c0-0.2,0.1-0.3,0.2-0.4c0.2-0.1,0.4-0.1,0.7-0.1c1.1,0.4,2,1.1,3,1.7C-62.1,746.5-62.1,746.6-62,746.6z"/>
		<path id="XMLID_1046_" class="st73" d="M-60.1,747.6c-0.3-0.5-0.7-0.1-1,0c0-0.3-0.1-0.5-0.3-0.6c-0.1-0.1-0.1-0.1-0.1-0.2
			c0-0.1,0.1-0.1,0.1-0.1c0.5,0,1-0.1,1.4,0.1C-59.2,747-59.3,747.4-60.1,747.6z"/>
		<path id="XMLID_1045_" class="st66" d="M-69.2,745.6c0.7,0.1,1.3,0.4,2,0.3c0.3-0.3,0.7-0.3,1,0c-0.1,0.1-0.2,0.2-0.3,0.3
			c-0.7,0.5-1.3-0.1-2,0C-68.8,746.1-69,745.9-69.2,745.6z"/>
		<path id="XMLID_1044_" class="st114" d="M-66.3,746c-0.3,0-0.7,0-1,0c0-0.3,0-0.7,0-1c0.5-0.3,0.9,0,1.3,0.3c0,0.1,0,0.2,0,0.3
			C-66.1,745.8-66.2,745.9-66.3,746z"/>
		<path id="XMLID_1043_" class="st66" d="M-61.4,746.6c0,0.1,0,0.2,0,0.3c-0.2-0.1-0.4-0.2-0.6-0.3l0,0c0.3-0.5-0.6-0.6-0.3-1.1
			c0.1-0.1,0.3-0.1,0.4-0.1c0.3,0.1,0.6,0.1,0.5,0.6C-61.4,746.2-61.4,746.4-61.4,746.6z"/>
		<path id="XMLID_1042_" class="st65" d="M-60.7,750.5c0.4-0.6-0.5-0.8-0.3-1.3c0.8,0.4,1.9,0.6,1.6,2
			C-59.9,751.1-60.6,751.4-60.7,750.5z"/>
		<path id="XMLID_1041_" class="st63" d="M-67.6,712c0-0.1,0-0.2,0-0.3c0.9-1.1,2.1-0.6,3.3-0.6c-0.3,0.2-0.7,0.4-1,0.6
			C-66.1,711.3-66.8,712.1-67.6,712z"/>
		<path id="XMLID_1040_" class="st22" d="M-62.7,708.4c0,0.1,0,0.2,0,0.3c-1,0.2-0.9-0.9-1.3-1.3C-63.3,707.4-62.7,707.6-62.7,708.4
			z"/>
		<path id="XMLID_1039_" class="st63" d="M-67.9,711.7c-0.5,0.2-1.1,0.6-1.6,0C-69,711.2-68.5,711.2-67.9,711.7z"/>
		<path id="XMLID_1038_" class="st115" d="M-57.8,742.4c0.3,0.6,1.8,1.4-0.3,1.7c-0.4,0.1-0.2,0.5-0.2,0.8c0,0.4,0.2,0.6,0.5,0.7
			c0.4,0.1,0.9,0,1.3,0.1c-0.8,0.7-1.8,0.5-2.6,0.5c-1.5-0.2-0.8-1.5-0.7-2.4c0-0.1,0.1-0.1,0.1-0.2
			C-59.2,742.8-58.8,742-57.8,742.4z"/>
		<path id="XMLID_1037_" class="st116" d="M-61.4,746c-0.1-0.3-0.4-0.3-0.7-0.3c0.2-0.6-0.4-1.4,0.4-1.9c0.4-0.2,0.8-0.6,1.2-0.7
			c0.6-0.2,1-0.1,0.7,0.7l0,0C-60.8,744.1-60.1,745.7-61.4,746z"/>
		<path id="XMLID_1036_" class="st117" d="M-58.4,750.1c-0.1-0.1-0.2-0.3-0.3-0.5c0-0.3,0.2-0.3,0.4-0.3c0.3,0,0.3,0.2,0.3,0.4
			C-57.8,750-58,750.1-58.4,750.1z"/>
		<path id="XMLID_1035_" class="st77" d="M-79.7,723.4c-0.3,0.4-0.7,0.4-1,0C-80.3,723.4-80,722.9-79.7,723.4z"/>
		<path id="XMLID_1034_" class="st77" d="M-60.1,738.1c-0.3,0.6-0.5,1.3-0.3,2c-0.1,0.1-0.2,0.1-0.3,0.1c-0.1-0.5-0.4-0.4-0.8-0.3
			c-0.6-0.1-1.1,0.2-1.6,0.4c-0.2,0-0.3,0-0.5-0.1c-0.8-0.4-1.4-0.9-0.7-1.9c0.7-0.1,1.2-0.2,1.4-1c0.1-0.5,0.4-1.1,1.1-1.2
			c0.9,0.7,1.3,1.4-0.1,2.3c0.6-0.3,1-0.4,1.5-0.3C-60.3,738.1-60.2,738.1-60.1,738.1z"/>
		<path id="XMLID_1033_" class="st89" d="M-60.4,738.1c-0.2,0.3-0.4,0.4-0.7,0.3c-0.5-0.2-0.4,1-0.9,0.4c-0.4-0.5,0-0.8,0.5-1.1
			c0.9-0.6-0.2-1.1-0.2-1.6c0-0.2,0.2-0.2,0.3-0.3c0.1,0,0.2,0,0.3,0c0.5,0.2,0.8,0.4,0.7,1C-60.1,737.3-60.1,737.7-60.4,738.1z"/>
		<path id="XMLID_1032_" class="st77" d="M-56.2,734.5c-0.1,0.3-0.3,0.5-0.7,0.6c-0.3-0.2-0.6-0.4-0.9-0.6
			C-57.1,734-56.6,734.3-56.2,734.5z"/>
		<path id="XMLID_1031_" class="st118" d="M-60.4,736.8c-0.2-0.3-0.4-0.7-0.7-1c0-0.1,0-0.2,0-0.3c0.4,0.1,0.9,0.2,1.3,0.3l0,0
			C-59.7,736.3-60,736.6-60.4,736.8z"/>
		<path id="XMLID_1030_" class="st119" d="M-59.7,735.9c0.3-1.1,1-0.5,1.6-0.5C-58.7,735.5-59.2,735.7-59.7,735.9L-59.7,735.9z"/>
		<path id="XMLID_1029_" class="st86" d="M-68.2,725.7c0-0.4,0.1-0.7-0.3-1c0.1-0.3,0.3-0.5,0.6-0.7c0.4-0.1,0.1-0.6,0.3-0.8
			c0.2-0.1,0.3-0.2,0.5-0.3c0.3-0.1,0.7-0.2,1-0.3c0.5-0.1,0.7-0.7,1.3-0.7c0.6,0.2,0.8,0.7,0.7,1.3c-0.1,0.2-0.2,0.4-0.3,0.6
			c-0.3,0.4-0.7,0.8-1.1,1.2C-66.4,725.1-67.2,726.1-68.2,725.7z"/>
		<path id="XMLID_1028_" class="st70" d="M-69.6,723.1c0.3-1,1.5-0.6,2-1.3c0.1,0,0.2,0,0.3,0c0.2,0.1,0.2,0.3,0.2,0.6
			c-0.1,0.2-0.2,0.4-0.3,0.5c-0.3,0.2-0.3,0.6-0.5,0.8c-0.2,0-0.4,0-0.7,0C-68.1,722.4-69.1,723.2-69.6,723.1z"/>
		<path id="XMLID_1027_" class="st66" d="M-67.9,723.8c0-0.4-0.1-0.8,0.3-1c0.2,0.2,0.2,0.4,0,0.7c0.1,0.3,0.4,0.5,0.1,0.8
			c-0.2,0.2-0.3,0-0.5-0.1C-67.9,724-67.9,723.9-67.9,723.8z"/>
		<path id="XMLID_1026_" class="st120" d="M-61.7,720.8c-0.7,0-1.3,0-1.9-0.8c-0.4-0.6-1.6,0.1-2.5,0.1c-1.4-0.1-2.5,0.7-3.8,1
			c-0.5,0.1-1.1,0.3-1.5-0.3c-0.2-0.4,0.1-0.6,0.3-0.8c0.6-0.7,1-0.1,1.5,0.1c0-0.5,0-1,0-1.5c0.4-0.2,0.7,0,1.1,0.2
			c1,0.8,1.2-0.2,1.7-0.7c0.2-0.2,0.3-0.3,0.6-0.3c1.2,0,2.5,0.6,3.6-0.5c0.5-0.2,1.1-0.4,1.6-0.7c1.5-1.1,3.2-0.7,4.9-0.7
			c0.8,0.2,1.5-0.5,2.3,0c0.1,0.7-0.6,0.8-1,1.1c-1.4,0.9-3,1.5-4.6,2.2c2,0.8,3.9,0.5,5.8,0.5c0.8,0,1.5-0.2,2.1,0.5
			c0,0.1,0,0.2,0,0.3c0.1,0.3,0.3,0.7-0.3,0.6c-0.5,0-0.9,0.1-1.4,0.3c-0.8-0.4-1.7-0.5-2.5,0c-1,0.6-1.8-0.2-2.8-0.2
			c-0.3,0-0.6,0-1,0c-0.2,0-0.3,0-0.5,0C-60.6,721.3-61.2,721.3-61.7,720.8z"/>
		<path id="XMLID_1025_" class="st116" d="M-58.4,720.8c1.2,0.5,2.4,0.7,3.5,0c0.9-0.6,1.3,0,1.7,0.7c0.1,0.2,0.2,0.4,0.3,0.6
			c-1.1-0.5-2.1-0.2-2.9,0.7c-0.6,0.1-1.2,0.2-1.7,0.3c-0.4,0.1-0.6,0.3-0.2,0.6c0,0.3-0.1,0.5-0.3,0.7c-0.5,0-0.8,0.2-1,0.6
			c-0.8-1.1-1,0.5-1.6,0.3c-0.6-0.3-1.2,0.9-1.8,0.1c-1.2-1.6-1.2-1.6,0.4-2.5c0.4-0.5,0.9-0.2,1.3,0c0.5,0.3,1,0.4,1.4-0.1
			c1.1-0.6,1.1-0.6,2.3-0.6C-58.1,722.2-59,722.1-58.4,720.8z"/>
		<path id="XMLID_1024_" class="st121" d="M-77,717.6c1-0.6,2.4-0.4,3.3-1.3l0,0c0.6-0.3,1-0.3,1.2,0.4c0.1,0.5-0.1,0.9-0.6,1.1
			c-0.4,0.1-0.8,0.3-1.2,0.4c-0.5,0-0.9,0.2-1.1,0.8c-0.2,0.5-0.6,0.6-0.9,0.9c-0.7,0.9-2.1,0.8-2.5,2.1c-0.1,0.3-1,0.2-0.9-0.2
			c0.5-2-1.2-0.6-1.6-1.1C-80.1,719.3-78.8,718.2-77,717.6z"/>
		<path id="XMLID_1023_" class="st111" d="M-75.7,718.9c0.2-0.4,0.1-1.2,1-1c0.7,0.8,1.6,0.5,2.4,0.4c0.2,0,0.5,0.1,0.4-0.3
			c-0.5-1.8,1.3-1.7,1.8-1.5c1.2,0.4,2.3,0.4,3.5,0.2c0.3,0.1,0.6,0.2,0.8,0.5c0.1,0.4-0.1,0.6-0.4,0.7c-0.1,0.1-0.2,0.2-0.3,0.3
			c-0.6,0.4-1.1,1-2,0.7c-0.3-0.1-0.7-0.2-1-0.3c-1.3,1.1-3.1,1-4.6,1.6c0.1-0.2,0.3-0.6,0.2-0.7c-0.4-0.4-0.7,0.2-1.1,0.1
			C-75.4,719.4-75.5,719.1-75.7,718.9z"/>
		<path id="XMLID_1022_" class="st122" d="M-75.7,718.9c0.4,0,0.6,0.2,0.7,0.7c-0.3,0.5-0.9,0.3-1.3,0.3
			C-76.2,719.5-76,719.2-75.7,718.9z"/>
		<path id="XMLID_1021_" class="st96" d="M-65.9,745.3c-0.5,0.1-0.9-0.1-1.3-0.3c-0.6-0.2-0.8-1-1.7-1.1c-0.4,0,0.1-0.4,0.4-0.5
			c0.2-0.2,0.3-0.4,0.2-0.7c-0.6-1.5-0.5-1.8,1.1-2.5c0.2-0.5,0.4-1.1,0.7-1.6c1.1,0,1.8,0.7,1.9,2.2c-0.8,1.3-1.9,2.6-1.3,4.3
			C-65.9,745.1-65.9,745.2-65.9,745.3z"/>
		<path id="XMLID_1020_" class="st98" d="M-67.3,740.1c-0.1,0.6-0.9,0.5-1.1,1.1c-0.1,0.4-0.6,0.6,0.2,1c1,0.5-0.1,0.8-0.4,1.2
			c-1.4-1.3-0.5-2.5,0.3-3.6C-67.9,739.9-67.6,740-67.3,740.1z"/>
		<path id="XMLID_1019_" class="st98" d="M-65,740.7c0-1.2-0.9-1.6-1.6-2.3c0.2-0.2,0.4-0.4,0.7-0.7c0.6-0.3,1.1-1,2-0.7
			c0.4,0.4,0.3,0.9,0,1.3c-0.9,1,0.4,1.1,0.7,1.6C-64,740.1-64.2,741.1-65,740.7z"/>
		<path id="XMLID_1018_" class="st60" d="M-64.3,737.2c-0.6,0.1-0.8,1.2-1.6,0.7c-0.3,0-0.5-0.1-0.6-0.3c0.5-0.5,0.1-0.6-0.3-0.7
			c0.1-0.1,0.2-0.2,0.3-0.3c0.8,0.2,1.6-0.5,2.3,0.3c0.1,0.1,0.1,0.1,0.1,0.2C-64.3,737.1-64.3,737.2-64.3,737.2z"/>
		<path id="XMLID_1017_" class="st114" d="M-66.6,716.9c-1.2,0.6-2.2,0.6-3.4-0.2c-0.4-0.3-1.1,0.8-1.9,0.4
			c-0.3,0.8,1.2,1.1,0.3,1.7c-0.9,0.7-2.9,0.1-3.2-0.9c0.4-0.2,0.7-0.4,1.1-0.5c0.3-0.1,0.8,0.1,0.8-0.5c0-0.7-0.5-0.7-1-0.7
			c0.3-0.2,0.7-0.4,1-0.7c0.4,0,0.9,0,1.3,0c0.1,0,0.2,0,0.3,0c0.5,0.5,1.1,0.3,1.6,0.3c1.2-0.6,2,0.2,2.9,0.7
			c0.1,0.1,0.1,0.1,0.1,0.2C-66.5,716.9-66.6,716.9-66.6,716.9z"/>
		<path id="XMLID_1016_" class="st96" d="M-59.7,743.7c-0.1-0.4-0.2-0.8-0.6-0.3c-0.4,0.5-0.8,0.6-1.3,0.6c-0.7-0.7-0.7-1.3,0.2-1.8
			c0.9,0.1,0.9-0.9,1.5-1.2c0.2,0,0.4,0,0.6,0c0.1,0.3-0.2,1.2,0.6,0.6c0.5-0.4,0.9,0.1,1.3,0c0,0.3-0.1,0.5-0.3,0.7
			C-58.8,742.3-58.7,743.8-59.7,743.7z"/>
		<path id="XMLID_1015_" class="st77" d="M-60.1,741.1c0.1,0.9-0.3,1.4-1.3,1.3c-0.4,0-0.8,0-1.1-0.5c0-0.1,0-0.3,0.1-0.4
			c0.3-0.3,0.5-0.6,0.8-1c0.2-0.2,0.4-0.7,0.8-0.5c0.1,0,0.2,0,0.3,0C-60.8,740.6-60.3,740.8-60.1,741.1z"/>
		<path id="XMLID_1014_" class="st123" d="M-51.6,720.2c-1.6-0.1-3.1-0.1-4.7,0.1c-1.2,0.2-2.4-0.6-3.6-0.5c-0.2,0-0.4-0.2-0.4-0.5
			c0-0.4,0.4-0.6,0.7-0.6c2.1-0.6,4-1.7,5.8-2.8c0.6-0.1,1.2-0.2,1.6-0.7c1.6-0.5,3.1-0.7,4.8-0.6c0.8,0,1.1,0.4,1.4,0.9
			c0.1,0,0.2,0,0.3,0c0.4,0.5,0.2,1.2,0.6,1.6l0,0C-46.4,720.1-48.8,720.5-51.6,720.2z"/>
		<path id="XMLID_1013_" class="st78" d="M-45.1,717.2c-0.8-0.3-0.9-0.9-0.6-1.6c0.2,0.1,0.4,0.2,0.7,0.3
			C-44.7,716.4-45,716.8-45.1,717.2z"/>
		<path id="XMLID_1012_" class="st55" d="M-69.2,715.3c-0.1,0.1-0.2,0.2-0.3,0.3c-0.3-0.1-0.8,0.2-0.8-0.5c0-0.6,0.5-0.6,0.8-0.8
			C-69.4,714.7-70.1,715.2-69.2,715.3z"/>
		<path id="XMLID_1011_" class="st124" d="M-66.3,717.9c0.1-0.2,0.2-0.4,0.3-0.7c-0.3-0.4-0.1-0.9,0.3-0.8c1.1,0.3,0.4-0.7,0.7-0.8
			c0.2,0,0.4,0,0.6,0c1,0.1,0.7,1.4,1.6,1.6C-63.5,719.4-65,718-66.3,717.9z"/>
		<path id="XMLID_1010_" class="st63" d="M-65,715.6c0.1,0.4,0.3,0.9,0.4,1.4c-0.5,0.2-1.2-1.2-1.4,0.2c-0.2-0.1-0.4-0.2-0.7-0.3
			c0-0.1,0-0.2,0-0.3C-66.6,715.3-65.5,715.9-65,715.6z"/>
		<path id="XMLID_1009_" class="st125" d="M-56.2,715.9c-1.6,0.2-3.3,0.4-4.9,0.7c0.2-0.5,0.3-1.2,1-1.3c0.2-0.1,0.4-0.2,0.6-0.3
			c1,0.5,2.1,0.8,3.3,0.7C-56.2,715.7-56.2,715.8-56.2,715.9z"/>
		<path id="XMLID_1008_" class="st124" d="M-62.5,716.3c0.1-0.1,0.3-0.2,0.4-0.2c0.2,0,0.3,0.2,0.2,0.3c-0.1,0.1-0.3,0.1-0.4,0.1
			C-62.3,716.5-62.4,716.4-62.5,716.3z"/>
		<path id="XMLID_1007_" class="st22" d="M-63.7,729c-0.3,0.5-1.1,0.3-1.3,1c-1.2,0.2-1.2,1.1-1.2,1.7c0.8-1-2.6,0.7-1.1-1.1
			c-0.1-0.2,0-0.3,0.1-0.5c-0.2-0.4-0.4,0.1-0.7,0c-0.2,0-0.3,0-0.4-0.1c-0.3,0-0.6,0-1.4,0c0.9-0.4,1.2-0.9,1.8-1
			c0.1-0.1,0.1-0.3,0.3-0.3c0.8,0.1,1.1-0.4,1.3-1c0.1,0,0.1,0,0.2-0.1c0.5,0.2,1.1,0.2,1.5,0.5C-64.2,728.4-63.9,728.6-63.7,729z"
			/>
		<path id="XMLID_1006_" class="st126" d="M-68.2,730.6c-0.1,0.6-0.2,1.2-0.7,1.6c-0.2,0.2-0.4,0.2-0.7,0c-0.2-0.3-0.8-0.4-0.7-0.1
			c0.1,0.8-0.7,0.7-0.9,1.1c-0.1,0.1-0.2,0.1-0.3,0c-0.1-0.6-0.6-0.9-1-1.3c0-0.1,0-0.2,0-0.3c0.3-0.3,0.5-0.5,1-0.3
			c1.1,0.3,1.5-1.2,2.6-1C-68.7,730.5-68.4,730.4-68.2,730.6z"/>
		<path id="XMLID_1005_" class="st124" d="M-68.2,725.7c0.9-0.3,1.7-0.7,2.6-1c0.5-0.3,0.8-0.1,0.8,0.4c-0.1,0.6-0.1,1.1,0.1,1.7
			c0.3,1-1,0.5-1.5,0.8l0,0C-66.8,726.9-67.8,726.6-68.2,725.7z"/>
		<path id="XMLID_1004_" class="st117" d="M-73.1,731.3c-0.2,0.2-0.5,0.4-0.7,0.6c-0.5,0.4-1,0.5-1.4,0.1c-0.5-0.6,0.6-0.5,0.5-1
			c0.4-0.1,0.9-0.2,1.3-0.3C-73.2,730.8-73,730.9-73.1,731.3z"/>
		<path id="XMLID_1003_" class="st119" d="M-73.1,731.3c-0.1-0.2-0.2-0.4-0.3-0.7c1.2-0.6,1.2-0.6,2,0.7c-0.3,0.1-0.7,0.2-1,0.3
			C-72.5,731-72.8,731.1-73.1,731.3z"/>
		<path id="XMLID_1002_" class="st127" d="M-68.2,730.6c-0.3,0-0.5-0.1-0.7-0.3c0.3,0,0.5-0.1,0.7-0.3c0.1,0,0.2,0,0.3,0
			c0.4-0.1,0.9-0.5,1,0.3c-0.1,0.1-0.2,0.2-0.3,0.3C-67.6,730.6-67.9,730.6-68.2,730.6z"/>
		<path id="XMLID_1001_" class="st121" d="M-73.1,728.7c0.4,0,0.9,0,1.4,0C-72.9,729.4-72.9,729.4-73.1,728.7L-73.1,728.7z"/>
		<path id="XMLID_1000_" class="st86" d="M-67.6,728.7c-0.1,0.1-0.2,0.2-0.3,0.3c0-0.3-0.7-0.5-0.3-0.9
			C-68,728-67.7,728.4-67.6,728.7z"/>
		<path id="XMLID_999_" class="st58" d="M-78,732.6c0.8-0.3,0.2-0.7,0-1c0.4,0,0.9,0,1,0.6c0,0.3,0,0.7-0.4,0.8
			C-77.7,733.1-77.9,732.8-78,732.6z"/>
		<path id="XMLID_998_" class="st127" d="M-78.7,732.3c0.1,0.1,0.2,0.2,0.3,0.3c0,0.2,0,0.4,0,0.7
			C-79.2,733.2-78.9,732.7-78.7,732.3z"/>
		<path id="XMLID_997_" class="st74" d="M-71.5,733.2c0.1,0,0.2,0,0.3,0c0.5,0,0.9,0,1.4,0.5c-0.6,0.3-1.3,0.1-1.7,0.5
			c0-0.2,0-0.4,0-0.7C-71.5,733.5-71.5,733.4-71.5,733.2z"/>
		<path id="XMLID_996_" class="st128" d="M-62.7,733.2c-0.3,0.1-0.7,0.2-1,0.3c-0.4-0.1-0.6-0.1-0.3-0.7c0.3-0.6,0.9-0.7,1.3-0.9
			c0.3,0.3,0.5,0.6,0.3,1C-62.5,733-62.6,733.1-62.7,733.2z"/>
		<path id="XMLID_995_" class="st84" d="M-62.4,732.9c-0.1-0.3-0.2-0.7-0.3-1c0.4-0.2-0.2-0.9,0.4-0.8c0.5,0,0.5,0.5,0.6,0.8
			C-62,732.2-61.8,732.8-62.4,732.9z"/>
		<path id="XMLID_994_" class="st85" d="M-69.5,732.3c0.2,0,0.4,0,0.7,0c-0.1,0.4,0.5,0.8,0.1,1.1c0,0-0.3-0.2-0.5-0.3
			C-70.2,733-69.6,732.6-69.5,732.3z"/>
		<path id="XMLID_993_" class="st75" d="M-62,729.6c-0.2-1.6,1.1-0.7,1.6-1c0.2,0.5-0.3,0.5-0.5,0.7c-0.3,0.1-0.5,0.3-0.8,0.3
			C-61.8,729.6-61.9,729.6-62,729.6z"/>
		<path id="XMLID_992_" class="st61" d="M-61.7,729.6c0.1-0.3,0.4-0.3,0.7-0.3c0.1,0.1,0.1,0.1,0.1,0.2s-0.1,0.1-0.1,0.1
			c0,0.1,0,0.2,0,0.3C-61.6,730.5-61.6,730.1-61.7,729.6z"/>
		<path id="XMLID_991_" class="st22" d="M-65,730.3c0.3-0.1,0.7-0.5,1,0C-64.3,730.7-64.6,730.7-65,730.3z"/>
		<path id="XMLID_990_" class="st89" d="M-61.1,729.6c0-0.1,0-0.2,0-0.3c0.2-0.2,0.4-0.4,0.7-0.7c0.1,0,0.2,0,0.3,0
			C-60.1,729.3-60.4,729.6-61.1,729.6z"/>
		<path id="XMLID_989_" class="st94" d="M-63.7,729c-0.5,0-0.8-0.2-1-0.7c0-0.7,0.3-1,1-0.7c0.1,0.3,0.4,0.3,0.7,0.3
			c0.1,0.1,0.3,0.1,0.3,0.3C-63,728.6-63.3,728.8-63.7,729z"/>
		<path id="XMLID_988_" class="st33" d="M-62.7,728.3c-0.1-0.1-0.2-0.2-0.3-0.3c0.5-0.1,1.1-0.2,1.6-0.3
			C-61.6,728.3-62.1,728.4-62.7,728.3z"/>
		<path id="XMLID_987_" class="st112" d="M-63.7,727.7c-0.5,0-0.8,0.2-1,0.7c-0.5-0.4-1.2,0-1.6-0.6c0.1-0.9,1.1-0.1,1.4-0.8
			c-0.9-0.2-1.2-0.7-0.5-1.4c0.5-0.5,0.2-0.6-0.3-0.7c0.3-0.3,0.7-0.7,1-1c0.6,0.6,1.4,0.9,2,1.6c-0.3,0.7-0.2,1.5-0.7,2
			C-63.5,727.5-63.6,727.6-63.7,727.7z"/>
		<path id="XMLID_986_" class="st66" d="M-63.3,727.4c-0.1-0.7-0.1-1.5,0.7-1.9c0.1-0.1,0.2-0.1,0.3,0c0.3,0.1,0.7,0.3,0.8-0.1
			c0.5-1.3,0.6-0.1,0.8,0.1c-0.2,1.1-1.7,0.9-2,2C-62.9,727.4-63.1,727.4-63.3,727.4z"/>
		<path id="XMLID_985_" class="st129" d="M-59.4,723.1c-0.2,0.9-0.8,0.7-1.4,0.4c-0.4-0.2-0.7-0.7-1.3-0.4c-0.8-0.1-0.6-0.5-0.3-1
			c0.2-0.5,0.7-0.7,0.7-1.3c0.7,0,1.3,0,2,0c0.2,0.4,0,0.6-0.1,1c-0.1,0.2-0.2,0.4-0.1,0.6C-59.8,722.7-59.5,722.8-59.4,723.1z"/>
		<path id="XMLID_984_" class="st124" d="M-62.4,722.1c0,0.4-0.1,0.7,0.3,1c0,0.1,0.1,0.3,0.1,0.3c-1,0.7-1,0.7-0.4,2
			c-0.1,0-0.2,0-0.3,0c-0.7-0.5-1.9-0.3-2-1.6c0.1-0.1,0.2-0.2,0.3-0.3c0.5-0.5,0.7-1.3,1.6-1.3C-62.6,722.1-62.5,722.1-62.4,722.1z
			"/>
		<path id="XMLID_983_" class="st125" d="M-62.7,722.1c-0.5,0.5-0.9,1.1-1.6,1.3c0-0.6-0.1-1.1-0.7-1.3c-0.4,0.3-0.6,0.2-0.8-0.2
			c0-0.2,0-0.3,0.1-0.5c0.5-0.2,1,0,1.6-0.3C-63.4,721-62.6,721-62.7,722.1z"/>
		<path id="XMLID_982_" class="st66" d="M-65.6,721.5c0,0.1,0,0.2,0,0.3c-0.4,0.5-0.9,0.9-1.6,0.7c0-0.2,0-0.4,0-0.6
			C-66.8,721.5-66.2,721.4-65.6,721.5z"/>
		<path id="XMLID_981_" class="st59" d="M-64.3,737.2c0-0.1,0-0.2,0-0.3c0.1-0.7,0.5-0.7,1-0.6c0.7,0.2,0.6-0.3,0.6-0.7
			c0.6-0.5,0.9-0.1,1.3,0.3c-0.1,0.1-0.2,0.2-0.3,0.3c-0.3,0.5-0.6,1.1-0.8,1.6c-0.3,0.7-0.7,1-1.4,0.7
			C-64,738-63.8,737.5-64.3,737.2z"/>
		<path id="XMLID_980_" class="st104" d="M-60.7,740.1c-0.2,0.2-0.4,0.4-0.6,0.7c-0.4,0.2-0.6,0.8-1,1l0,0c-0.2,0.3-0.5,0.5-0.7,0.8
			c-0.3,0.6-0.9,0.9-1.4,1.3c-0.5,0.2-0.6,0.7-0.8,1.1c-0.2,0-0.4,0-0.6,0c-0.5-0.8-1.5-1.5-0.2-2.4c0.1-0.1,0.2-0.2,0.2-0.2
			c-1.2-1.4,1.1-0.8,0.9-1.6c0.4-0.6,0.9-0.9,1.6-0.7c0.1,0,0.2,0,0.3,0c0.5-0.4,1.1-0.3,1.6-0.3C-61,739.6-60.7,739.5-60.7,740.1z"
			/>
		<path id="XMLID_979_" class="st114" d="M-65.3,745c-0.2-0.7,0-1.1,0.7-1.3c0.1,0,0.1,0,0.2,0c0.5,0.1,1,0.1,1.5,0.2
			c0.6,0.4,0.4,1.1,0.6,1.7c0.2,0.3,0.7,0.5,0.3,1C-63.4,746.6-64.2,745.5-65.3,745z"/>
		<path id="XMLID_978_" class="st75" d="M-62.4,745.6c-1.2-0.2,0.1-1.3-0.7-1.6c-0.1-0.1-0.2-0.2-0.2-0.4c0.1-0.4,0.2-0.9-0.2-1.2
			c0-0.7,0.5-0.7,1-0.7c0.3,0.2,0.7,0.4,1,0.7c-0.8,0.4-0.5,1-0.3,1.6c0.7,0.7,0.1,1.1-0.3,1.6C-62.1,745.6-62.2,745.6-62.4,745.6z"
			/>
		<path id="XMLID_977_" class="st110" d="M-61.4,739.8c-0.5,0.5-1.1,0.3-1.6,0.3C-62.6,739.4-62.1,739.2-61.4,739.8z"/>
		<path id="XMLID_976_" class="st76" d="M-67.3,722.5c0.5-0.2,1.1-0.4,1.6-0.7c0.1,0.3,0.4,0.3,0.7,0.3c-0.2,0.4-0.3,1-1,1
			c-0.5-0.4-0.7,0-1,0.3c-0.2,0-0.4,0-0.6,0c0-0.2,0-0.4,0-0.7C-67.5,722.7-67.4,722.6-67.3,722.5z"/>
		<path id="XMLID_975_" class="st66" d="M-66.9,723.4c0-0.3,0.1-0.7,0.4-0.8s0.4,0.2,0.6,0.5C-66.3,723.2-66.6,723.3-66.9,723.4z"/>
		<path id="XMLID_974_" class="st96" d="M-59.4,723.1c-0.5,0-0.8-0.2-1-0.7c0.2-0.5,0.9-0.2,1-0.7c-0.1-0.3-0.2-0.6,0-0.9
			c0.3,0,0.7,0,1,0c0,1.4,1.2,1.2,2.1,1.5C-57.4,722.6-58.4,722.8-59.4,723.1z"/>
		<path id="XMLID_973_" class="st108" d="M-68.6,718.9c0.7-0.2,1.3-0.4,2-0.7C-67.5,719.8-67.7,719.9-68.6,718.9z"/>
		<path id="XMLID_972_" class="st116" d="M-59.4,720.8c0.1,0.3,0.2,0.7,0.3,1c-0.3,0.2-0.7,0.2-1,0c0.1-0.3,0.2-0.7,0.3-1
			C-59.6,720.8-59.5,720.8-59.4,720.8z"/>
		<path id="XMLID_971_" class="st75" d="M-62.4,741.7c0.2-0.4,0.3-1,1-1C-61.6,741.2-61.7,741.7-62.4,741.7z"/>
		<path id="XMLID_970_" class="st98" d="M-66.9,730.3c-0.2-0.4-0.6-0.3-1-0.3c0.4-0.4,0.9-1,1.4-0.2
			C-66.2,730.1-66.6,730.2-66.9,730.3z"/>
		<path id="XMLID_969_" class="st130" d="M-60.1,721.8c0.3,0,0.7,0,1,0c0.2,0.8,0.2,0.9-0.3,0.7c-0.4-0.2-0.7,0-1.1,0
			C-60.9,721.9-60.5,721.9-60.1,721.8z"/>
		<path id="XMLID_968_" class="st77" d="M-63.3,742.4c1.2,0.2,1,0.7,0.3,1.3c-0.5,0.4-1.1,0.3-1.6,0l0,0
			C-64.2,743.2-63.8,742.8-63.3,742.4z"/>
		<path id="XMLID_967_" class="st131" d="M-64.6,743.7c0.5,0,1.1,0,1.6,0c0,0.1,0,0.2,0,0.3C-63.7,744.4-64.2,744.2-64.6,743.7z"/>
	</g>
</g>
</svg>
