<?xml version="1.0" encoding="utf-8"?>
<!-- Generator: Adobe Illustrator 19.0.0, SVG Export Plug-In . SVG Version: 6.00 Build 0)  -->
<svg version="1.1" id="Capa_1" xmlns="http://www.w3.org/2000/svg" xmlns:xlink="http://www.w3.org/1999/xlink" x="0px" y="0px"
	 viewBox="-367 368 265 265" style="enable-background:new -367 368 265 265;" xml:space="preserve">
<style type="text/css">
	.st0{fill:#222220;}
</style>
<g>
	<path class="st0" d="M-103.3,506.2c2.7-4.6,1.1-10.5-3.5-13.2c-4.6-2.7-10.5-1.1-13.2,3.5c-23.6,40.8-67.5,66.1-114.5,66.1
		c-45.1,0-87.3-23.3-111.5-61.3c24.2-37.9,66.4-61.3,111.5-61.3c28.3,0,55.2,8.8,77.9,25.4c4.3,3.2,10.4,2.2,13.5-2.1
		s2.2-10.4-2.1-13.5c-26.1-19.1-57-29.2-89.4-29.2c-53.9,0-104.2,29-131.2,75.8c-1.7,3-1.7,6.7,0,9.7c27,46.7,77.3,75.8,131.2,75.8
		C-180.6,581.9-130.3,552.9-103.3,506.2z"/>
	<path class="st0" d="M-234.5,535.3c-5.3,0-9.7,4.3-9.7,9.7s4.3,9.7,9.7,9.7c29.4,0,53.3-23.9,53.3-53.3c0-29.4-23.9-53.3-53.3-53.3
		s-53.3,23.9-53.3,53.3c0,5.3,4.3,9.7,9.7,9.7s9.7-4.3,9.7-9.7c0-18.7,15.2-34,34-34s34,15.2,34,34
		C-200.5,520.1-215.8,535.3-234.5,535.3z"/>
</g>
</svg>
