<svg xmlns="http://www.w3.org/2000/svg" width="106" height="36.829" viewBox="0 0 106 36.829">
  <g id="XMLID_5_" transform="translate(85.5 -330.9)">
    <g id="XMLID_3_" transform="translate(-64.911 337.754)">
      <path id="XMLID_9_" d="M1.384,360.122a7.79,7.79,0,1,1,0,15.579,7.824,7.824,0,0,1-7.79-7.817,7.794,7.794,0,0,1,7.79-7.762m0-4.321a12.084,12.084,0,1,0,0,24.167,12.1,12.1,0,0,0,12.084-12.084A12.082,12.082,0,0,0,1.384,355.8Z" transform="translate(10.7 -355.8)" fill="#25c3ff"/>
    </g>
    <g id="XMLID_2_" transform="translate(-58.744 343.635)">
      <g id="XMLID_966_" transform="translate(0 0)">
        <path id="XMLID_1269_" d="M15.253,402.109a5.752,5.752,0,0,1,1.349-.963.084.084,0,0,1,.11,0,.5.5,0,0,1-.33.523,2.06,2.06,0,0,0-.551.413c-.083.083-.165.165-.083.3a.377.377,0,0,1,.028.413,1.781,1.781,0,0,1-.22.248c-.11.083-.193.193-.358.083C14.923,402.742,15.225,402.439,15.253,402.109Z" transform="translate(-14.153 -394.53)" fill="#ed6162"/>
        <path id="XMLID_1268_" d="M42.881,394.864l1.569-.248a1.439,1.439,0,0,1,1.018.138.385.385,0,0,1,.083.248.143.143,0,0,1-.055.11.209.209,0,0,1-.11.055.811.811,0,0,1-.358-.138.143.143,0,0,0-.11-.055.433.433,0,0,0-.468-.11c-.138.028-.3-.028-.44.055-.055.028-.083.083-.138.11a.143.143,0,0,1-.11.055,1.571,1.571,0,0,0-.8.028c-.055.028-.11.028-.165.055-.193.11-.358.248-.606.165-.028,0-.083-.028-.11-.028L42,395.222c.028-.11.11-.165.22-.22C42.44,394.837,42.688,394.974,42.881,394.864Z" transform="translate(-33.661 -389.791)" fill="#ed6968"/>
        <path id="XMLID_1267_" d="M14.455,395.343a11.768,11.768,0,0,1-1.872.688.616.616,0,0,1-.771-.385.838.838,0,0,1,.193-1.046c.165.3-.083.688.22.936a.543.543,0,0,0,.33.165c.22.055.385-.083.578-.138.275-.055.5-.193.771-.248C14.07,395.288,14.262,395.178,14.455,395.343Z" transform="translate(-11.703 -389.802)" fill="#f0867f"/>
        <path id="XMLID_1266_" d="M36.823,421.1a1.081,1.081,0,0,1-1.211.468.957.957,0,0,1-.551-1.046.752.752,0,0,1,.22-.523c.193.138.055.358.138.523.083.193.165.358.248.551a.462.462,0,0,0,.716.138C36.52,421.156,36.63,420.991,36.823,421.1Z" transform="translate(-28.621 -408.21)" fill="#f3a096"/>
        <path id="XMLID_1265_" d="M18.076,395.416c-.5-.028-.881.33-1.376.358.028-.3.275-.385.523-.44a1.47,1.47,0,0,0,.5-.138,2.867,2.867,0,0,1,.5-.275,3.693,3.693,0,0,0,.551-.028,1.154,1.154,0,0,0,.413-.11.628.628,0,0,1,.3-.083.409.409,0,0,1,.248.055c.028.028.055.083.028.11-.083.083-.22,0-.3.083C18.985,395.03,18.572,395.306,18.076,395.416Z" transform="translate(-15.325 -389.874)" fill="#ee726e"/>
        <path id="XMLID_1264_" d="M18.7,378.832c.358-.193.8-.193,1.156-.358a9.7,9.7,0,0,1,2.175-.358h.413a.334.334,0,0,1,.358-.028c.055.275-.165.193-.3.248a1.242,1.242,0,0,0-.3.083h-.11a.883.883,0,0,0-.385.028c-.11.027-.248.027-.358.055a2.606,2.606,0,0,0-1.018.22,1.152,1.152,0,0,1-.413.11,1.915,1.915,0,0,0-.881.138c-.11.028-.22.028-.275-.083A.059.059,0,0,1,18.7,378.832Z" transform="translate(-16.774 -377.805)" fill="#ee7672"/>
        <path id="XMLID_1263_" d="M23.675,408.193c-.661.275-1.294.551-1.954.826a.182.182,0,0,1-.165.028.143.143,0,0,1-.055-.11.663.663,0,0,1,.22-.165.484.484,0,0,0,.138-.11,1.569,1.569,0,0,0,.22-.193c.028-.028.055-.028.083-.055.11.027.138-.11.193-.138a9.445,9.445,0,0,0,1.239-.44c.11-.028.193-.083.3-.055a.208.208,0,0,1,.055.11C23.95,408.111,23.895,408.248,23.675,408.193Z" transform="translate(-18.803 -399.348)" fill="#ed6264"/>
        <path id="XMLID_1262_" d="M44.1,410.069c.826-.22,1.294-.028,1.486.606a.937.937,0,0,1-.468,1.156c-.138-.138-.028-.248.028-.358.3-.771.028-1.184-.8-1.266a.4.4,0,0,1-.193-.055C44.128,410.1,44.128,410.069,44.1,410.069Z" transform="translate(-35.183 -400.949)" fill="#ed6d6a"/>
        <path id="XMLID_1261_" d="M44.8,410.338a.858.858,0,0,1,.963.385,1,1,0,0,1-.055,1.1.444.444,0,0,0-.083.248.836.836,0,0,1-.193.138c-.028.027-.055.027-.11,0,.11-.248-.083-.606.275-.826.083-.055-.055-.385-.248-.55S44.91,410.559,44.8,410.338Z" transform="translate(-35.69 -401.191)" fill="#ec5b5f"/>
        <path id="XMLID_1259_" d="M30.347,417.133a1.626,1.626,0,0,1-1.018.083c-.165-.028-.33-.138-.468-.11-.44.083-.551-.193-.661-.523a.238.238,0,0,1,.165-.083.3.3,0,0,1,.165.055c.11.083.165.22.3.248a1.12,1.12,0,0,0,.523,0c.33.083.633.138.963.193a.1.1,0,0,1,.028.083Z" transform="translate(-23.659 -405.674)" fill="#ef7f78"/>
        <path id="XMLID_1258_" d="M36.275,422.495c-.083-.193-.193-.358-.275-.551.193-.083.358.11.551,0,.083.11.11.248.248.3a.32.32,0,0,0,.275.055,1.309,1.309,0,0,0,.523-.248c.083-.028.138-.083.22-.028,0,.22-.248.248-.3.44a3.065,3.065,0,0,0-.44.193C36.8,422.66,36.5,422.8,36.275,422.495Z" transform="translate(-29.312 -409.604)" fill="#ef7c77"/>
        <path id="XMLID_1257_" d="M52.154,396.238v-.11c.3-.11.33.138.385.3a1.035,1.035,0,0,1-.468,1.156,1.706,1.706,0,0,1-.826.248.084.084,0,0,1,0-.11c.11-.165.33-.165.5-.275A1.127,1.127,0,0,0,52.154,396.238Z" transform="translate(-40.347 -390.889)" fill="#ee6e6a"/>
        <path id="XMLID_1256_" d="M25.175,378.058c-.716.165-1.459.248-2.175.358.358-.22.688-.578,1.184-.275h.083C24.514,377.7,24.872,378.086,25.175,378.058Z" transform="translate(-19.891 -377.719)"/>
        <path id="XMLID_1255_" d="M33.318,377.428c.055,0,.083-.028.138-.028.606.248.743.578.385,1.074-.055.028-.083,0-.11-.028-.083-.11-.083-.275-.165-.413-.11-.33-.358-.385-.661-.33H32.8a.209.209,0,0,1-.11-.055H32.3a.378.378,0,0,1,.11-.083.519.519,0,0,1,.44-.083C33.016,377.455,33.181,377.51,33.318,377.428Z" transform="translate(-26.631 -377.336)" fill="#f0817a"/>
        <path id="XMLID_1253_" d="M41.943,418.921c-.055.027-.138.055-.193.083a.143.143,0,0,1-.055-.11c-.028-.248.275-.358.22-.606a3.584,3.584,0,0,0,.413-.5.439.439,0,0,1,.248-.193.28.28,0,0,1,.275.138C42.466,418.1,42.273,418.563,41.943,418.921Z" transform="translate(-33.439 -406.471)" fill="#ec5d60"/>
        <path id="XMLID_1252_" d="M12.711,394.649c-.413-.275-.22-.661-.193-.991.083-.138.11-.275.275-.358a.811.811,0,0,0,.138.358c.055.193-.138.358-.083.55-.028.165.193.33.028.5A.2.2,0,0,1,12.711,394.649Z" transform="translate(-12.244 -388.859)" fill="#ec5c5f"/>
        <path id="XMLID_1251_" d="M17.136,411.2h.193a1.317,1.317,0,0,1-.633.358,1.23,1.23,0,0,1-.771.083.143.143,0,0,1-.11-.055c-.11-.11-.138-.3-.3-.385a.143.143,0,0,1-.055-.11.3.3,0,0,1,.055-.3c.165,0,.3-.055.358.22.055.3.385.22.633.248C16.723,411.284,16.915,411.118,17.136,411.2Z" transform="translate(-14.412 -401.53)" fill="#f1867f"/>
        <path id="XMLID_1250_" d="M48.061,401.727v.083a.38.38,0,0,0-.083.11c-.248.11-.5.248-.743.33a.346.346,0,0,1-.358-.055.308.308,0,0,1,.083-.413,1.515,1.515,0,0,1,.963-.22A.174.174,0,0,1,48.061,401.727Z" transform="translate(-37.162 -394.837)" fill="#ea4754"/>
        <path id="XMLID_1249_" d="M54.3,396.934c.248-.3.523-.633.385-1.073-.055-.165-.055-.358-.3-.385V395.2a.752.752,0,0,1,.523.826A.872.872,0,0,1,54.3,396.934Z" transform="translate(-42.575 -390.236)" fill="#f29088"/>
        <path id="XMLID_1248_" d="M24.4,395.808c.22-.275.578-.358.826-.606a.4.4,0,0,1,.138-.165,1.117,1.117,0,0,1,.248-.138c.055,0,.083.028.083.055.028.165-.083.275-.165.385a.837.837,0,0,1-.193.138,2.118,2.118,0,0,0-.771.633c-.11.193-.33.193-.468-.028C24.1,395.891,24.348,395.946,24.4,395.808Z" transform="translate(-20.688 -390.019)" fill="#eb595e"/>
        <path id="XMLID_1247_" d="M45.385,391.772a10.744,10.744,0,0,0-2.009.853c-.055.11-.138.083-.22.055a.143.143,0,0,1-.055-.11.37.37,0,0,1,.165-.193,5.416,5.416,0,0,0,.688-.358c.33-.165.688-.22,1.046-.358A.353.353,0,0,1,45.385,391.772Z" transform="translate(-34.458 -387.662)" fill="#ed6a69"/>
        <path id="XMLID_1246_" d="M15.831,412.161a.878.878,0,0,1-1.431-.633c.028-.028.055-.028.11-.028a.336.336,0,0,1,.248.22h0c.138.083.165.248.275.358h0C15.308,412.188,15.584,412.051,15.831,412.161Z" transform="translate(-13.658 -402.05)" fill="#f7beb4"/>
        <path id="XMLID_1245_" d="M13.792,392.448a.268.268,0,0,1-.083-.358.265.265,0,0,1,.193-.275c.165,0,.193-.248.385-.22a.209.209,0,0,1,.11.055.786.786,0,0,1,0,.358c-.028.027-.028.083-.055.11-.055.138-.028.3-.193.385A.408.408,0,0,1,13.792,392.448Z" transform="translate(-13.132 -387.622)" fill="#eb595e"/>
        <path id="XMLID_1244_" d="M44.946,403.786H45.3c.055.028.055.055,0,.11a2.45,2.45,0,0,1-.963.633.468.468,0,0,1-.193.028c-.083-.22.11-.3.248-.385s.275-.083.358-.248C44.808,403.841,44.836,403.758,44.946,403.786Z" transform="translate(-35.203 -396.455)" fill="#ed6465"/>
        <path id="XMLID_1243_" d="M17.551,380.983c.055-.028.138-.055.193-.083l.028.028c.22.193.028.468.138.661.028.165.358.165.248.413a.515.515,0,0,1-.716-.385c-.028-.055-.028-.083-.055-.138A.679.679,0,0,1,17.551,380.983Z" transform="translate(-15.818 -379.872)" fill="#f28f86"/>
        <path id="XMLID_1242_" d="M29.206,407.879V407.8l.055-.055a.261.261,0,0,1,.3.083.41.41,0,0,1,.083.193.635.635,0,0,1-.3.55c-.193.028-.3.385-.578.22-.055-.138.083-.193.083-.3a1.537,1.537,0,0,1,.138-.22C29.1,408.182,29.316,408.127,29.206,407.879Z" transform="translate(-24.06 -399.31)" fill="#ed6263"/>
        <path id="XMLID_1241_" d="M19.855,385.371a4.391,4.391,0,0,1,.908-.688l.083-.083h.11l.083.083a.184.184,0,0,1-.083.22.554.554,0,0,1-.22.11c-.083.027-.138.027-.165.11l-.083.083a.751.751,0,0,0-.33.248.5.5,0,0,1-.248.165.143.143,0,0,1-.11-.055A.232.232,0,0,1,19.855,385.371Z" transform="translate(-17.571 -382.554)" fill="#ed6565"/>
        <path id="XMLID_1240_" d="M27.071,410.5c.028.11-.028.193-.083.3a.681.681,0,0,1-.193.578,2.515,2.515,0,0,0-.22.358c-.055.055-.083.083-.165.055a.221.221,0,0,1-.083-.3A6.208,6.208,0,0,1,27.071,410.5Z" transform="translate(-22.282 -401.325)" fill="#ee7570"/>
        <path id="XMLID_1239_" d="M14.949,404.7c.083.33-.193.688,0,1.018a.747.747,0,0,1,.11.551.216.216,0,0,1-.3,0,1.1,1.1,0,0,1-.083-.413v-.138a1.571,1.571,0,0,1,.11-.8A.286.286,0,0,1,14.949,404.7Z" transform="translate(-13.849 -397.121)" fill="#ef7f79"/>
        <path id="XMLID_1238_" d="M39.751,410.228a7.718,7.718,0,0,0,.8-.028v.055c0,.248-.275.193-.358.358-.028.027-.083.027-.11.055h-.11c-.138-.028-.275-.11-.413-.138-.138-.055-.358.028-.358-.22C39.365,410.145,39.585,410.365,39.751,410.228Z" transform="translate(-31.631 -401.108)" fill="#eb565c"/>
        <path id="XMLID_1237_" d="M36.378,420.143c-.193.22-.358.055-.551,0-.083-.193.055-.385-.028-.55.028-.083.028-.165.11-.193l.083.083a.805.805,0,0,0,.193.33c.055.11.193.11.248.22A.209.209,0,0,1,36.378,420.143Z" transform="translate(-29.167 -407.775)" fill="#ed6967"/>
        <path id="XMLID_1236_" d="M21.673,383.4a1.335,1.335,0,0,1-.193.083.208.208,0,0,1-.028-.22,1.106,1.106,0,0,1,.771-.275c.248-.028.413.11.385.413a.237.237,0,0,1-.385.083v-.027a.194.194,0,0,0-.275-.11C21.838,383.376,21.755,383.321,21.673,383.4Z" transform="translate(-18.756 -381.385)" fill="#ee716d"/>
        <path id="XMLID_1235_" d="M21.866,398.2c0,.165-.193.165-.248.3a.871.871,0,0,1-.908.55.166.166,0,0,1-.11-.027A6.252,6.252,0,0,1,21.866,398.2Z" transform="translate(-18.151 -392.411)" fill="#ed6b69"/>
        <path id="XMLID_1234_" d="M52.976,389.38c0,.385-.358.468-.578.688a7.228,7.228,0,0,0-.771.027.1.1,0,0,1-.028-.083c0-.027,0-.027.028-.027a.394.394,0,0,1,.3-.083.814.814,0,0,0,.275-.055.656.656,0,0,0,.3-.165c.165-.055.165-.3.385-.33C52.921,389.325,52.949,389.325,52.976,389.38Z" transform="translate(-40.618 -385.985)" fill="#ef7f79"/>
        <path id="XMLID_1233_" d="M14.382,407.24v.083c-.165.248.11.551-.083.826h-.11c.028-.44-.193-.908,0-1.349C14.327,406.91,14.245,407.1,14.382,407.24Z" transform="translate(-13.448 -398.643)" fill="#f7b8af"/>
        <path id="XMLID_1232_" d="M18.333,387.4v.193c.028.138-.083.22-.138.3a.839.839,0,0,1-.193.138c-.11.028-.193.083-.3,0A1.288,1.288,0,0,1,18.333,387.4Z" transform="translate(-16.049 -384.583)" fill="#ee7672"/>
        <path id="XMLID_1231_" d="M19.7,383.33v.165c-.055,0-.11.028-.165.028-.055.028-.138.055-.193-.028a.577.577,0,0,1-.358-.358c-.028-.083.028-.11.083-.138A1.74,1.74,0,0,1,19.7,383.33Z" transform="translate(-16.972 -381.395)" fill="#ee6e6a"/>
        <path id="XMLID_1230_" d="M40.653,407.544c-.248.22-.5.413-.716.633a.084.084,0,0,1-.11,0c0-.028-.028-.028-.028-.055v-.055a1.3,1.3,0,0,1,.358-.413c.11-.083.22-.193.385-.165A.143.143,0,0,1,40.653,407.544Z" transform="translate(-32.066 -399.139)" fill="#ee726e"/>
        <path id="XMLID_1229_" d="M26.754,414.862l.083-.083a.13.13,0,0,1,.165-.028l.083.083c.028.138.138.193.22.248.11.083.11.165,0,.22h-.193a1.342,1.342,0,0,0-.193-.083C26.836,415.11,26.589,415.083,26.754,414.862Z" transform="translate(-22.571 -404.394)" fill="#ef7e78"/>
        <path id="XMLID_1228_" d="M18.116,383.64c.055,0,.11.027.193.027a.7.7,0,0,1-.826,0c-.055-.138-.358-.248-.083-.468C17.565,383.475,17.7,383.806,18.116,383.64Z" transform="translate(-15.749 -381.539)" fill="#f6b3aa"/>
        <path id="XMLID_1227_" d="M17.06,382.04c-.138.193.138.3.083.468a.563.563,0,0,1-.165-.908c.11.138-.028.3.083.44Z" transform="translate(-15.41 -380.38)" fill="#f7bbb1"/>
        <path id="XMLID_1226_" d="M16.4,389.483c.11-.028.193-.055.3-.083-.028.3-.33.385-.468.606a.2.2,0,0,1-.248.028h0c-.055-.055-.055-.11,0-.193A4.789,4.789,0,0,0,16.4,389.483Z" transform="translate(-14.781 -386.033)" fill="#eb5159"/>
        <path id="XMLID_1225_" d="M42.4,395.328c.083,0,.165-.028.248-.028.055.138.193.11.3.11a1.694,1.694,0,0,1-.633.193.134.134,0,0,1-.22-.055.3.3,0,0,1,.055-.165A.281.281,0,0,1,42.4,395.328Z" transform="translate(-33.733 -390.309)"/>
        <path id="XMLID_1224_" d="M14.665,406.226c-.275-.083-.11-.3-.165-.468a.47.47,0,0,1,.193-.358C14.665,405.675,14.665,405.951,14.665,406.226Z" transform="translate(-13.73 -397.629)" fill="#f18a81"/>
        <path id="XMLID_1223_" d="M48.4,403.185v-.11a1.761,1.761,0,0,1,.716-.275A1.228,1.228,0,0,1,48.4,403.185Z" transform="translate(-38.299 -395.745)" fill="#ee7974"/>
        <path id="XMLID_1222_" d="M45.091,417.109a1.34,1.34,0,0,1-.3-.11c-.028-.138.083-.165.138-.248a.269.269,0,0,1,.385.055h.083A3.139,3.139,0,0,1,45.091,417.109Z" transform="translate(-35.679 -405.815)" fill="#ec5c5f"/>
        <path id="XMLID_1221_" d="M29.675,408.3c.11.028.193.055.138.193-.083.165-.193.275-.385.165,0-.028-.028-.055-.028-.11A.359.359,0,0,0,29.675,408.3Z" transform="translate(-24.529 -399.731)" fill="#ef817b"/>
        <path id="XMLID_1220_" d="M26.393,414.4c-.028.165.138.248.165.358-.413-.083-.413-.33-.275-.661A.987.987,0,0,0,26.393,414.4Z" transform="translate(-22.21 -403.934)" fill="#f39b92"/>
        <path id="XMLID_1219_" d="M14.94,391v.193c-.193-.055-.193.385-.44.193A.764.764,0,0,1,14.94,391Z" transform="translate(-13.73 -387.192)" fill="#ef837d"/>
        <path id="XMLID_1218_" d="M42.61,406.747H42.5c.028-.275.193-.385.468-.358h.193A6.23,6.23,0,0,1,42.61,406.747Z" transform="translate(-34.023 -398.343)" fill="#ee716d"/>
        <path id="XMLID_1217_" d="M33.24,377.314a.638.638,0,0,1-.44.083C32.855,377.011,33.048,377.2,33.24,377.314Z" transform="translate(-26.993 -377.167)"/>
        <path id="XMLID_1216_" d="M17.5,413.683c-.275-.027-.551.083-.8-.083h.908A.38.38,0,0,1,17.5,413.683Z" transform="translate(-15.325 -403.572)" fill="#f18c83"/>
        <path id="XMLID_1215_" d="M17.483,381.75c-.138-.138-.055-.3-.083-.44a.171.171,0,0,1,.165-.11C17.538,381.393,17.51,381.585,17.483,381.75Z" transform="translate(-15.832 -380.09)" fill="#f6b3aa"/>
        <path id="XMLID_1214_" d="M39.482,409.982h.11c.055.11.165.055.275.083-.165.138-.358.083-.523.083C39.289,410.009,39.344,409.954,39.482,409.982Z" transform="translate(-31.721 -400.945)" fill="#f39d94"/>
        <path id="XMLID_1213_" d="M27.423,395.256c-.055.028-.11.083-.165.11-.083-.138-.248-.055-.358-.083.055-.083.165-.083.248-.083C27.258,395.118,27.368,395.063,27.423,395.256Z" transform="translate(-22.717 -390.182)"/>
        <path id="XMLID_1212_" d="M50.323,391.428v.083H49.8v-.083A.382.382,0,0,1,50.323,391.428Z" transform="translate(-39.314 -387.428)" fill="#eb535a"/>
        <path id="XMLID_1211_" d="M22.3,384.182a.333.333,0,0,1,.275-.083c.055-.055.138-.055.165.028a.134.134,0,0,1-.083.165h-.083C22.52,384.182,22.383,384.209,22.3,384.182Z" transform="translate(-19.383 -382.163)" fill="#fac9bf"/>
        <path id="XMLID_1210_" d="M36,418.409c0-.027.028-.055.028-.083.083-.083.165-.083.22-.027.083.083.028.193-.028.275a.121.121,0,0,1-.138.027v-.055A.6.6,0,0,1,36,418.409Z" transform="translate(-29.312 -406.95)" fill="#f8c4bb"/>
        <path id="XMLID_1208_" d="M30.576,383.293c-.083.055-.165.138-.248.193a1.8,1.8,0,0,1-.633.358.409.409,0,0,1-.248-.055c-.083-.22.11-.248.193-.358a6.923,6.923,0,0,1,.8-.33C30.576,383.128,30.576,383.21,30.576,383.293Z" transform="translate(-24.548 -381.467)" fill="#ed6867"/>
        <path id="XMLID_1207_" d="M30.4,384.775a2.6,2.6,0,0,1,.633-.275c-.028.083-.055.193.083.193h.633l.028.028a.1.1,0,0,1-.055.138,8.343,8.343,0,0,1-.881.165C30.675,384.968,30.455,385.051,30.4,384.775Z" transform="translate(-25.254 -382.482)"/>
        <path id="XMLID_1206_" d="M33.455,382.74c-.028-.055-.028-.11-.055-.165a.275.275,0,0,1,.11-.138c.165-.027.33-.193.523-.027,0,.22-.193.193-.3.248C33.648,382.685,33.538,382.712,33.455,382.74Z" transform="translate(-27.428 -380.914)" fill="#ef8079"/>
        <path id="XMLID_1205_" d="M34.6,382.485c.11-.083.193-.165.3-.248.028-.083.11-.11.193-.138a.349.349,0,0,1,.165.028A.629.629,0,0,1,34.6,382.485Z" transform="translate(-28.298 -380.742)"/>
        <path id="XMLID_1204_" d="M36.493,381.33h-.165c0-.028-.028-.028-.028-.055a.359.359,0,0,1,.248-.275c.055,0,.083,0,.11.028l.028.028-.083.165Z" transform="translate(-29.53 -379.945)" fill="#f0817a"/>
        <path id="XMLID_1203_" d="M42.465,384.721a22.954,22.954,0,0,1,2.753.027c0,.055,0,.083-.055.11a2.736,2.736,0,0,1-.826.138,4.252,4.252,0,0,0-.853.138c-.138.028-.165-.22-.33-.165-.028,0-.083.028-.11.028-.248-.083-.523.028-.743-.138C42.328,384.776,42.328,384.666,42.465,384.721Z" transform="translate(-33.878 -382.62)" fill="#eb535a"/>
        <path id="XMLID_1202_" d="M54.475,384.983a.9.9,0,0,1,.385,1.156l-.028-.028a1.135,1.135,0,0,1-.3-.193.143.143,0,0,1-.055-.11v-.055c.028-.027.028-.083.055-.11.11-.22-.055-.3-.193-.44-.083-.055-.138-.083-.138-.193a.143.143,0,0,1,.055-.11A.228.228,0,0,0,54.475,384.983Z" transform="translate(-42.503 -382.771)" fill="#ef7f79"/>
        <path id="XMLID_1201_" d="M37.319,384.655a.184.184,0,0,0-.11.193c-.22.193-.5,0-.716.027a4.821,4.821,0,0,0-.881.11h-.138a.365.365,0,0,1-.275-.165.1.1,0,0,1,.028-.055c.523-.055,1.046-.083,1.541-.138A.916.916,0,0,1,37.319,384.655Z" transform="translate(-28.732 -382.554)" fill="#ec5e61"/>
        <path id="XMLID_1200_" d="M53.358,384.883v.11c-.11.11-.22.028-.33-.055,0-.028-.028-.028-.028-.055V384.8A.573.573,0,0,1,53.358,384.883Z" transform="translate(-41.633 -382.699)" fill="#ed6967"/>
        <path id="XMLID_1199_" d="M18.676,397.866a2.245,2.245,0,0,0,.908-.551c.138.055.33.165.358-.028.11-.44.551-.413.8-.688a.289.289,0,0,1,.138.248.165.165,0,0,1-.028.11c-.11.055-.083.165-.138.248-.138.248-.385.248-.578.33l-.083.083c-.083.358-.44.193-.606.33-.138.165-.22.358-.5.22-.138-.055-.165.11-.22.165a.48.48,0,0,1-.33.165c-.165.083-.22.385-.5.3-.055,0-.083-.027-.11-.083-.028-.248.248-.385.33-.413C18.428,398.307,18.511,398.059,18.676,397.866Z" transform="translate(-16.117 -391.251)" fill="#ea4553"/>
        <path id="XMLID_1198_" d="M16.681,407.211a1.192,1.192,0,0,1,.193-.165c.028-.027.055-.027.11,0,.11.578.165.606.8.578.165.055.358.083.33.275s-.248.193-.385.22a1.113,1.113,0,0,0-.3,0c-.028.028-.083.028-.11.055a.237.237,0,0,1-.275-.11c.028-.138-.028-.165-.138-.165-.028-.028-.083-.028-.11-.055A1.289,1.289,0,0,1,16.681,407.211Z" transform="translate(-15.306 -398.807)" fill="#e9324b"/>
        <path id="XMLID_1197_" d="M16.007,407.7c.165.193.138.413.193.633,0,.11,0,.275-.138.275-.165.028-.165-.165-.22-.275a.519.519,0,0,1-.083-.44A1.513,1.513,0,0,1,16.007,407.7Z" transform="translate(-14.632 -399.296)" fill="#ea4352"/>
        <path id="XMLID_1196_" d="M17.049,405.216h-.083a.279.279,0,0,0-.028-.358c-.275-.248-.083-.3.11-.358h.083a.758.758,0,0,0,.248.193c.165.083.138.193.055.3S17.3,405.326,17.049,405.216Z" transform="translate(-15.398 -396.977)" fill="#ea4453"/>
        <path id="XMLID_1195_" d="M42.158,397.307a5.745,5.745,0,0,0-.991.193.2.2,0,0,1-.165.055.708.708,0,0,0-.661.055c-.028.028-.083.028-.11.055-.385.193-.853.11-1.156.468a.084.084,0,0,1-.11,0,3.36,3.36,0,0,1-.165-.716c.028-.083.11-.138.165-.193.11-.138.22-.275.413-.248.055,0,.083.028.11.028.138.11.11.22,0,.33.22-.083.22-.275.22-.468.055-.11.165-.165.275-.248.275-.385.771-.44,1.1-.716.138-.11.33-.028.468-.11v-.083c.22-.11.44-.028.661-.11.138.138.358-.028.523.11h0c.275.358.083.771.138,1.156C42.874,397.086,42.488,397.279,42.158,397.307Z" transform="translate(-31.342 -390.526)" fill="#e82548"/>
        <path id="XMLID_1194_" d="M40.94,396.416c-.3.3-.8.358-1.073.716a.474.474,0,0,1-.33.055c-.275-.055-.33.083-.3.3-.193,0-.275.138-.358.275-.11.027-.248.138-.275-.083a.648.648,0,0,0,.138-.44,1.893,1.893,0,0,1,.083-.22c.138-.413.523-.44.853-.55h.083c.3.275.44.083.551-.193h.165C40.609,396.388,40.912,396.031,40.94,396.416Z" transform="translate(-31.197 -390.984)" fill="#e93b4f"/>
        <path id="XMLID_1193_" d="M51,397.524c.11-.11.275-.138.413-.248a.457.457,0,0,0,.165-.5,3.118,3.118,0,0,1-.028-.881c.165,0,.22.138.358.193.248.523-.028.936-.275,1.349a4.378,4.378,0,0,0-.551.193A.38.38,0,0,0,51,397.524Z" transform="translate(-40.183 -390.744)" fill="#e93a4e"/>
        <path id="XMLID_1192_" d="M53.3,397.949a2.828,2.828,0,0,0,.275-1.349h.083C53.988,397.178,53.713,397.563,53.3,397.949Z" transform="translate(-41.85 -391.251)" fill="#ea4b56"/>
        <path id="XMLID_1191_" d="M38.876,396.739c-.22.275-.661.248-.826.606-.11.027-.248.027-.358.055a.207.207,0,0,1-.193-.138.165.165,0,0,1,.028-.11c.11-.083.248-.11.358-.193a2.275,2.275,0,0,0,.358-.193c.083-.028.193-.083.3-.11a.219.219,0,0,1,.248.055C38.821,396.712,38.849,396.739,38.876,396.739Z" transform="translate(-30.399 -391.28)" fill="#eb565c"/>
        <path id="XMLID_1190_" d="M45.868,396.121c-.083-.055-.138-.193-.3-.083-.11.083-.11.083-.165-.11a1.051,1.051,0,0,1,.908,0A.649.649,0,0,1,45.868,396.121Z" transform="translate(-36.125 -390.689)" fill="#ea5059"/>
        <path id="XMLID_1189_" d="M43.351,396.3a.3.3,0,0,1-.248.385c-.22.055-.275-.055-.3-.22A.459.459,0,0,0,43.351,396.3Z" transform="translate(-34.241 -391.034)" fill="#ea5059"/>
        <path id="XMLID_1188_" d="M51.478,395.315c-.165-.083-.413.248-.551-.083,0-.028-.028-.028-.028-.055s.028-.028.028-.055C51.148,395.067,51.368,395.067,51.478,395.315Z" transform="translate(-40.111 -390.158)" fill="#e9394e"/>
        <path id="XMLID_1187_" d="M40.836,396.205a.763.763,0,0,0-.248.027c-.11.055-.165,0-.22-.083-.028-.055,0-.083,0-.11a.143.143,0,0,1,.11-.055c.11-.027.248-.083.358,0,.055.028.138.055.193.083C40.973,396.1,40.918,396.15,40.836,396.205Z" transform="translate(-32.469 -390.774)"/>
        <path id="XMLID_1186_" d="M49.333,395.491c-.165.33-.413.055-.633.083l.083-.083a.936.936,0,0,1,.55,0Z" transform="translate(-38.517 -390.418)" fill="#e9394e"/>
        <path id="XMLID_1185_" d="M49.551,395.354H49c.165-.165.358-.055.551-.083Z" transform="translate(-38.734 -390.28)" fill="#ea5059"/>
        <path id="XMLID_1184_" d="M16.279,395.948a.359.359,0,0,1-.33.165.854.854,0,0,0-.743.358c-.165.055-.33.275-.551.11a.143.143,0,0,1-.055-.11c.11-.275.523-.22.551-.551.055-.11.11-.193.22-.22C15.673,395.81,15.976,395.838,16.279,395.948Z" transform="translate(-13.803 -390.599)" fill="#eb565c"/>
        <path id="XMLID_1183_" d="M13.858,398.31v.083c-.138-.027-.33.055-.358-.193h.193C13.748,398.2,13.8,398.255,13.858,398.31Z" transform="translate(-13.005 -392.411)" fill="#ed6162"/>
        <path id="XMLID_1182_" d="M37,424c.248.193.578-.027.8.165C37.468,424.44,37.193,424.385,37,424Z" transform="translate(-30.037 -411.109)" fill="#f29087"/>
        <path id="XMLID_1181_" d="M18.294,395.448a1.076,1.076,0,0,1-.908-.193c-.028-.11.055-.138.138-.193a.463.463,0,0,1,.523.083c.22.11.44-.138.661-.027l.055.055C18.6,395.283,18.432,395.366,18.294,395.448Z" transform="translate(-15.818 -390.099)" fill="#e9394e"/>
        <path id="XMLID_1180_" d="M22.823,394.733c-.165.138-.358.028-.523,0h0c.193-.358.523-.358.881-.3C23.181,394.623,23.181,394.623,22.823,394.733Z" transform="translate(-19.383 -389.659)" fill="#ea4b56"/>
        <path id="XMLID_1179_" d="M27.091,394.2h-.3c-.028-.138.083-.193.138-.275.028-.028.055-.028.11-.028a.906.906,0,0,1,.358.193.1.1,0,0,1,0,.165C27.284,394.23,27.2,394.258,27.091,394.2Z" transform="translate(-22.633 -389.294)" fill="#ee706d"/>
        <path id="XMLID_1178_" d="M26.2,393.919c.028.138-.138.165-.193.275l-.248.083a.262.262,0,0,1-.055-.193C25.81,393.864,26,393.864,26.2,393.919Z" transform="translate(-21.847 -389.286)" fill="#ea4b56"/>
        <path id="XMLID_1177_" d="M24.668,394.528v.165a.686.686,0,0,1-.468.083,3.123,3.123,0,0,0,.358-.275C24.613,394.5,24.64,394.5,24.668,394.528Z" transform="translate(-20.76 -389.729)" fill="#ed6968"/>
        <path id="XMLID_1176_" d="M27.755,394.9c.11,0,.22-.028.33-.028.028-.028.055,0,.083.028,0,.11-.11.138-.193.165-.083-.083-.193-.055-.275-.083C27.728,394.953,27.728,394.925,27.755,394.9Z" transform="translate(-23.297 -389.989)"/>
        <path id="XMLID_1175_" d="M21.576,380.344c.138-.027.3-.055.44-.083.165-.055.22.055.3.165.028.11-.083.248.083.33l.165.165c.193.083.44.083.633.165.028.027.083.027.11.055a.293.293,0,0,1-.028.22c.028.11-.22.027-.11.193a.439.439,0,0,1-.11.33.3.3,0,0,1-.3-.027l-.083-.083c0-.028,0-.028-.028-.055v-.055c.083-.248-.22-.138-.275-.275a.59.59,0,0,0-.275-.44c-.11-.11-.22-.22-.358.028a.423.423,0,0,1-.44.138c-.083,0-.193,0-.22-.11-.028-.083.028-.138.083-.193a2.079,2.079,0,0,0,.3-.385C21.466,380.4,21.521,380.372,21.576,380.344Z" transform="translate(-18.494 -379.399)" fill="#ec535a"/>
        <path id="XMLID_1174_" d="M26.678,379.218h.44c.11.028.248-.083.358,0h0c.055.055.165.028.193.083a.166.166,0,0,1-.028.11,1.151,1.151,0,0,1-.33.22,1.423,1.423,0,0,0-.358.165.333.333,0,0,1-.275.083.805.805,0,0,1-.248-.055.392.392,0,0,1-.165-.055.248.248,0,0,1-.165-.165C26.128,379.3,26.54,379.438,26.678,379.218Z" transform="translate(-22.137 -378.63)" fill="#eb565c"/>
        <path id="XMLID_1173_" d="M25.663,379.3c-.028.083.055.22-.138.193a.376.376,0,0,0-.385.248.1.1,0,0,1-.165,0,1.671,1.671,0,0,1-.275-.193C24.948,379.3,25.333,379.383,25.663,379.3Z" transform="translate(-21.123 -378.713)" fill="#ed6565"/>
        <path id="XMLID_1172_" d="M20.461,380.546l-.083.083a.849.849,0,0,1-.8.22c-.055-.028-.055-.083-.028-.138A1.351,1.351,0,0,1,20.461,380.546Z" transform="translate(-17.379 -379.601)" fill="#ee6e6a"/>
        <path id="XMLID_1171_" d="M19.027,381.083v.083c0,.165.138.33-.083.44l-.083.083c-.248-.22.11-.468-.055-.688A1.9,1.9,0,0,0,19.027,381.083Z" transform="translate(-16.826 -379.945)" fill="#ee706d"/>
        <path id="XMLID_1170_" d="M31.66,378.841v-.083c-.055-.11.055-.193.083-.275.138-.027.33.055.44-.083h.083C32.266,378.785,31.963,378.813,31.66,378.841Z" transform="translate(-26.156 -378.061)" fill="#ea4d57"/>
        <path id="XMLID_1169_" d="M30.158,379.055c-.11-.028-.248.165-.358,0A.219.219,0,0,1,30.158,379.055Z" transform="translate(-24.819 -378.468)" fill="#ed6968"/>
        <path id="XMLID_1168_" d="M31.448,378.7c-.028.083-.055.165-.083.275a.166.166,0,0,1-.165-.083A.858.858,0,0,1,31.448,378.7Z" transform="translate(-25.833 -378.278)" fill="#ed6968"/>
        <path id="XMLID_1167_" d="M26.472,405.514c-.083.027-.165.055-.275.083a.8.8,0,0,1-.248-.055,4.181,4.181,0,0,0-.771-.248c-.138-.028-.22-.055-.193-.22a.461.461,0,0,1,.3-.248.917.917,0,0,1,.385.028c.165.083.33,0,.5-.028a6.2,6.2,0,0,1,.963-.248c.248-.028.44,0,.5.3a.238.238,0,0,1-.083.165.756.756,0,0,1-.5.275,4.759,4.759,0,0,1-.578.193Z" transform="translate(-21.326 -397.027)" fill="#ea4151"/>
        <path id="XMLID_1166_" d="M19,408.788c.22-.193.523.165.743-.193,0-.138-.248-.055-.3-.165a.1.1,0,0,1-.028-.083c0-.028,0-.028.028-.028.193-.138.44-.11.661-.22.44.055.22.385.248.606h0c-.11.083-.22.138-.275.275l-.083.083c-.138.055-.33-.028-.468.083a.708.708,0,0,1-.413.028C18.972,409.091,19.138,408.9,19,408.788Z" transform="translate(-16.992 -399.586)" fill="#e8364d"/>
        <path id="XMLID_1165_" d="M16.238,410.378c.138-.028.3-.055.44-.083.055.055.138.028.193.083v.083a1.13,1.13,0,0,1-.716.193c-.248-.028-.578.028-.633-.413,0-.11-.193-.083-.275-.165q-.206.041-.165-.165a.24.24,0,0,0,.248-.11c.11.165.248.275.358,0h0a1.274,1.274,0,0,1,.193.193c.083.028.193.055.275.083.083.083.028.165.028.275,0,.055.055.083.028.028C16.183,410.351,16.293,410.433,16.238,410.378Z" transform="translate(-14.147 -400.818)" fill="#ea4c56"/>
        <path id="XMLID_1164_" d="M25.348,407.531a.25.25,0,0,1,.193.083c-.44.165-.826.523-1.349.44-.193-.138-.22-.275,0-.413a.166.166,0,0,1,.11.028c.055.027.083.11.138.027.055-.275.165-.468.468-.248C25.045,407.613,25.21,407.448,25.348,407.531Z" transform="translate(-20.642 -399.044)" fill="#ea4352"/>
        <path id="XMLID_1163_" d="M23.451,407.613c-.3.055-.138.22-.083.358-.028.055-.028.138-.055.193a.483.483,0,0,1-.138-.11c.055-.11-.385-.11-.055-.33.11-.083-.083-.193-.193-.22a.165.165,0,0,1-.028-.11.439.439,0,0,1,.248-.193C23.313,407.283,23.478,407.365,23.451,407.613Z" transform="translate(-19.818 -398.933)" fill="#e93e50"/>
        <path id="XMLID_1162_" d="M22.887,410.564c-.028-.193.055-.3.275-.275C23.162,410.482,23,410.509,22.887,410.564Z" transform="translate(-19.805 -401.169)" fill="#ea4754"/>
        <path id="XMLID_1161_" d="M21.093,411.6a.25.25,0,0,1-.193-.083c.138-.138.3-.027.44,0C21.313,411.6,21.2,411.577,21.093,411.6Z" transform="translate(-18.369 -402.016)" fill="#ea4754"/>
        <path id="XMLID_1160_" d="M43.586,412.1c-.11,0-.22-.083-.358,0a.209.209,0,0,1-.055-.11c.165-.193.055-.468.22-.661.083-.083,0-.083-.055-.11-.083-.055-.193-.11-.193-.193,0-.5-.413-.358-.661-.468.028-.055-.248-.248.083-.193a.277.277,0,0,0,.3-.138.348.348,0,0,0,.165-.028c.385.193.826.358.853.826A1.5,1.5,0,0,1,43.586,412.1Z" transform="translate(-33.954 -401.108)" fill="#e9354d"/>
        <path id="XMLID_1159_" d="M33.556,417.371c.055-.138.11-.275-.138-.248a1.263,1.263,0,0,1-.991-.193c-.028-.028-.028-.055-.028-.11a.275.275,0,0,1,.11-.138l.165-.083c.33.055.606.385.963.275a.409.409,0,0,1,.248.055.185.185,0,0,1,.055.3.544.544,0,0,1-.3.165A.053.053,0,0,1,33.556,417.371Z" transform="translate(-26.703 -405.746)" fill="#ed6968"/>
        <path id="XMLID_1158_" d="M28.039,415.257c.028-.083.028-.165-.11-.165-.22-.027-.248-.165-.193-.358.5-.138.551-.083.5.5l-.055.055A.206.206,0,0,0,28.039,415.257Z" transform="translate(-23.305 -404.348)" fill="#eb5c60"/>
        <path id="XMLID_1157_" d="M30.9,417.317v.083a.419.419,0,0,1-.551,0,.084.084,0,0,1,0-.11A.755.755,0,0,1,30.9,417.317Z" transform="translate(-25.199 -406.215)" fill="#ed6263"/>
        <path id="XMLID_1156_" d="M29.675,416.848v.083c-.193.028-.275-.055-.275-.275v-.028c.028-.028.055-.028.11-.028C29.593,416.683,29.675,416.738,29.675,416.848Z" transform="translate(-24.529 -405.746)" fill="#ef7e78"/>
        <path id="XMLID_1155_" d="M40.3,421.9v.083c-.165.138-.3.3-.523.275-.028-.028-.055-.055-.055-.083.028-.11-.083-.193,0-.3C39.91,421.681,40.1,421.626,40.3,421.9Z" transform="translate(-31.984 -409.451)" fill="#eb535a"/>
        <path id="XMLID_1154_" d="M38.368,421.893c.055.083.193.138.083.275a.209.209,0,0,1-.275,0c-.275.028-.275-.165-.275-.358v-.083c.028-.028.055-.028.11-.028a3.021,3.021,0,0,0,.3.165C38.34,421.865,38.34,421.865,38.368,421.893Z" transform="translate(-30.689 -409.442)" fill="#ed6364"/>
        <path id="XMLID_1153_" d="M38.9,423.4h.275v.083C39.065,423.538,38.928,423.62,38.9,423.4Z" transform="translate(-31.414 -410.674)" fill="#ed6967"/>
        <path id="XMLID_1152_" d="M28.167,378.706c.22-.138.468-.193.633-.44.028,0,.055-.028.083-.028.083-.055.165,0,.22.028.138.083.138.275.3.33l.083.083c.22.385-.193.468-.33.661a.349.349,0,0,1-.165.028,2.223,2.223,0,0,0-.853.138c-.028,0-.083.028-.11.028a.8.8,0,0,0-.44,0c-.028,0-.083.028-.11.028a2.5,2.5,0,0,1-.633-.083.084.084,0,0,1,0-.11c.028-.028.028-.083.055-.11.083-.11.22-.083.3-.138.083-.028.165-.055.275-.083.11-.055.275-.028.358-.165C27.947,378.816,28.029,378.678,28.167,378.706Z" transform="translate(-22.663 -377.926)" fill="#e92e4a"/>
        <path id="XMLID_1151_" d="M34.565,378.289l-.165-.083a.524.524,0,0,1,.8.358.219.219,0,0,1-.248.055C34.813,378.482,34.758,378.289,34.565,378.289Z" transform="translate(-28.153 -377.867)" fill="#ea4d57"/>
        <path id="XMLID_1150_" d="M36.228,379.6H36.5a.612.612,0,0,1,.083.44h-.11c-.165-.055-.083-.3-.248-.358h0c-.028-.027-.028-.027-.028-.055A.027.027,0,0,0,36.228,379.6Z" transform="translate(-29.457 -378.93)" fill="#ec6766"/>
        <path id="XMLID_1149_" d="M39.672,415.394v.083a1.2,1.2,0,0,1-.193.165l-.165.165a.855.855,0,0,1-.688,0c.055.028-.028,0,0,0,.358.11.606.22.11.523a2.087,2.087,0,0,1-.716.028c-.248-.028-.5-.138-.275-.468.083-.248-.193-.138-.248-.22a.182.182,0,0,1-.028-.165c.055-.138.22-.22.22-.385,0-.138.055-.3.275-.248.138.633.138.633,1.018.44A.872.872,0,0,1,39.672,415.394Z" transform="translate(-30.369 -404.485)" fill="#e9354c"/>
        <path id="XMLID_1148_" d="M37.7,418.46c-.385.3,0,.33.165.358a6.686,6.686,0,0,0,.743,0,.052.052,0,0,1,.083,0c.083.11.248.193,0,.3a.338.338,0,0,0-.193.3c-.22-.193-.413-.055-.633,0h0a1.891,1.891,0,0,0-.523-.523.285.285,0,0,1,.055-.468h0C37.537,418.35,37.619,418.239,37.7,418.46Z" transform="translate(-30.216 -407)" fill="#e93e50"/>
        <path id="XMLID_1147_" d="M40.978,418.433H40.9c.165-.138.248-.3-.055-.358a.536.536,0,0,1-.44-.275c.385.22.716.083,1.018.193A.644.644,0,0,1,40.978,418.433Z" transform="translate(-32.501 -406.616)" fill="#e93e50"/>
        <path id="XMLID_1146_" d="M14.663,393.97a.25.25,0,0,0-.193.083,1.2,1.2,0,0,0-.165.193.934.934,0,0,1-.165.165c-.385.3-.44.275-.661-.165-.248-.22.138-.358.083-.523h.358a.578.578,0,0,1,.165-.11c.22-.055.44-.193.661-.248.3-.055.413.055.358.358-.11.055-.22.028-.33.083A1.693,1.693,0,0,1,14.663,393.97Z" transform="translate(-12.93 -388.896)" fill="#e92c4a"/>
        <path id="XMLID_1145_" d="M13.69,396.6c.275.5.551.028.8,0,.055.138.11.22-.083.3a2.275,2.275,0,0,0-.44.248.25.25,0,0,1-.193-.083C13.8,396.875,13.552,396.793,13.69,396.6Z" transform="translate(-13.113 -391.251)" fill="#e93f50"/>
        <path id="XMLID_1144_" d="M14.874,409.1l.165.165v.358c-.083-.055-.165-.11-.275-.193.055-.275-.11-.551.083-.826A2.992,2.992,0,0,0,14.874,409.1Z" transform="translate(-13.911 -399.948)" fill="#f18c83"/>
        <path id="XMLID_1143_" d="M15.975,412.651c-.22,0-.275-.165-.275-.358C16,412.266,16,412.458,15.975,412.651Z" transform="translate(-14.6 -402.623)" fill="#f18c83"/>
        <path id="XMLID_1142_" d="M40.018,402.329h.193a.535.535,0,0,0-.083.358c-.083.028-.083.11-.083.193-.385.028-.688.33-1.046.413-.028.055-.248-.138-.165.11.11.358-.275.385-.385.578-.193.028-.193.22-.275.33h0a.321.321,0,0,1-.275,0c-.028-.028-.055-.028-.083-.055a1.042,1.042,0,0,1,0-.413c.055-.11.165-.165.22-.275.11-.165.275-.11.413-.083a.382.382,0,0,0-.468.11.292.292,0,0,1-.358-.055c-.11-.138-.33-.248-.028-.413.165-.083.358-.11.523-.193h0a3.7,3.7,0,0,0,1.266-.55h0C39.523,402.439,39.743,402.136,40.018,402.329Z" transform="translate(-30.358 -395.356)" fill="#e93a4e"/>
        <path id="XMLID_1141_" d="M28.583,396.553c-.028-.083-.055-.165-.083-.275a.25.25,0,0,0,.193-.083.23.23,0,0,1,.33.083C29.078,396.663,29,396.691,28.583,396.553Z" transform="translate(-23.877 -390.929)" fill="#ea4051"/>
        <path id="XMLID_1140_" d="M29.375,395.223c-.083-.027-.165-.055-.275-.083a2.053,2.053,0,0,1,.193-.33.253.253,0,0,1,.165-.11.469.469,0,0,1,.193.027.143.143,0,0,1,.055.11.861.861,0,0,1-.138.275C29.513,395.168,29.485,395.278,29.375,395.223Z" transform="translate(-24.312 -389.874)" fill="#ea4c57"/>
        <path id="XMLID_1139_" d="M29.168,394.072c-.055,0-.11.027-.165.027-.028,0-.055-.027-.11-.027a.1.1,0,0,1-.083-.028.379.379,0,0,0-.11-.083.206.206,0,0,1,.165-.193c.138-.028.275-.11.358.027C29.333,393.907,29.251,393.989,29.168,394.072Z" transform="translate(-24.022 -389.163)" fill="#f0857f"/>
        <path id="XMLID_1138_" d="M46.773,391.655c-.275.248-.661.22-.991.358-.028,0-.028-.028-.055-.028-.055-.055-.083-.11-.055-.165.083-.193.385-.11.468-.275.248-.027.468-.055.633.11Z" transform="translate(-36.314 -387.572)" fill="#eb535a"/>
        <path id="XMLID_1137_" d="M43.853,392.8a1.456,1.456,0,0,1-.633.358c-.11-.028-.22-.055-.22-.193.385-.44.385-.44.853-.165Z" transform="translate(-34.385 -388.361)" fill="#ea5059"/>
        <path id="XMLID_1136_" d="M41.4,393.833l.165.165a.576.576,0,0,0-.165.11.561.561,0,0,1-.551.055c-.193-.138-.165-.248.028-.33A.583.583,0,0,1,41.4,393.833Z" transform="translate(-32.735 -389.199)" fill="#ea4754"/>
        <path id="XMLID_1135_" d="M40.91,395h.551v.11c-.028.083-.11.083-.165.083a2.3,2.3,0,0,1-.413.11c-.055-.028-.055-.055-.083-.083A.286.286,0,0,1,40.91,395Z" transform="translate(-32.791 -390.091)" fill="#ea5059"/>
        <path id="XMLID_1134_" d="M16.651,390.178c.083-.055.193-.083.083-.193a.339.339,0,0,0-.385-.055,2.337,2.337,0,0,1-.606.248.519.519,0,0,1-.083-.44h.083c.055-.138.055-.33.193-.44l.551-.551.165-.083a.974.974,0,0,1,.248-.11c.165-.028.3-.11.468,0,.055.055.028.11,0,.165a.524.524,0,0,1-.275.138c-.523.22-.551.33-.275.771a2.4,2.4,0,0,1,.743-.468c.11-.055.248-.055.358-.11.248-.055.5-.138.33.275-.055.028.028.028-.028.028-.743.11-1.046.743-1.486,1.211-.138-.083-.275-.248-.44-.083,0-.11-.028-.193.083-.275C16.485,390.26,16.568,390.178,16.651,390.178Z" transform="translate(-14.56 -385.379)" fill="#e9334c"/>
        <path id="XMLID_1133_" d="M16.03,391.4c.028.11-.138.22,0,.358.055.055.11.138-.028.138a.392.392,0,0,1-.165-.055.289.289,0,0,1,0-.358A1.334,1.334,0,0,0,16.03,391.4Z" transform="translate(-14.654 -387.482)" fill="#ea4151"/>
        <path id="XMLID_1132_" d="M15.528,393a.638.638,0,0,1,.083.44h-.165C15.446,393.3,15.363,393.138,15.528,393Z" transform="translate(-14.401 -388.642)" fill="#ea4151"/>
        <path id="XMLID_1131_" d="M40.9,405.293c.083-.193.385-.248.358-.55a.291.291,0,0,1,.193-.165c.358-.11.606-.606,1.073-.358,0,.22-.193.193-.3.248a.661.661,0,0,0-.413.3.866.866,0,0,0-.468.358c-.165,0-.22.138-.358.193C40.955,405.348,40.928,405.348,40.9,405.293Z" transform="translate(-32.864 -396.724)" fill="#ea4754"/>
        <path id="XMLID_1130_" d="M28.331,412.208a.1.1,0,0,1-.083-.028c0-.3-.028-.578-.44-.523h0c-.11-.11.083-.248,0-.358a5.132,5.132,0,0,1,.275-.551c.275.11.275-.358.551-.275a.143.143,0,0,1,.055.11v.083a.67.67,0,0,0-.083.853c.055.22.358.275.385.55a.222.222,0,0,1-.083.248A.541.541,0,0,1,28.331,412.208Z" transform="translate(-23.35 -401.299)" fill="#ea4553"/>
        <path id="XMLID_1129_" d="M30.8,409.188v-.083c.083-.165.275-.3.275-.551a.2.2,0,0,1,.165-.055c.083.028.165.055.193.138.028.11-.055.193-.11.275a1.355,1.355,0,0,1-.275.413A.241.241,0,0,1,30.8,409.188Z" transform="translate(-25.544 -399.875)" fill="#ea4151"/>
        <path id="XMLID_1128_" d="M30.4,407.275c.193-.083.3-.275.551-.275a.2.2,0,0,1,.055.165l-.083.165c-.083.055-.138.083-.22.027A.394.394,0,0,0,30.4,407.275Z" transform="translate(-25.254 -398.788)" fill="#eb595e"/>
        <path id="XMLID_1127_" d="M31.4,408.087a.25.25,0,0,0,.193-.083c.083-.055.165-.055.193.055.028.083-.028.138-.11.138H31.51Z" transform="translate(-25.978 -399.49)" fill="#ec6968"/>
        <path id="XMLID_1126_" d="M20.786,386.481c-.138.027-.3.055-.44.083a.469.469,0,0,1,0-.275.37.37,0,0,1,.165-.193c.138-.11.33-.138.44-.275h0c.11-.083.165.165.275.055.055-.083,0-.22.138-.275.413,0,.413,0,.358.523A1.079,1.079,0,0,1,20.786,386.481Z" transform="translate(-17.952 -383.279)" fill="#ea4b56"/>
        <path id="XMLID_1125_" d="M24.185,385.471c-.055,0-.138-.027-.11-.083.22-.358.028-.358-.248-.358C23.8,385,23.8,385,23.8,384.975a.027.027,0,0,1,.028-.028c.083-.028.083-.11.083-.165a.761.761,0,0,0,.358-.083c.028,0,.028.028.055.028.11.055.358-.028.3.248h0c-.083.055-.083.165-.11.248a.13.13,0,0,0-.028.165c-.028.11-.138.138-.248.138C24.24,385.471,24.213,385.471,24.185,385.471Z" transform="translate(-20.47 -382.626)" fill="#ec535a"/>
        <path id="XMLID_1124_" d="M22.791,386.075c-.055.083-.055.22-.193.22-.165-.028-.028-.248-.193-.3-.11-.22.055-.165.193-.193A.331.331,0,0,1,22.791,386.075Z" transform="translate(-19.433 -383.424)" fill="#ec575c"/>
        <path id="XMLID_1123_" d="M21.44,386.489c-.055.248-.248.248-.44.275A.4.4,0,0,1,21.44,386.489Z" transform="translate(-18.441 -383.92)" fill="#ec575c"/>
        <path id="XMLID_1122_" d="M19.575,388.1a.25.25,0,0,1,0,.275H19.3c0-.138.138-.165.193-.248A.1.1,0,0,1,19.575,388.1Z" transform="translate(-17.209 -385.091)" fill="#eb525a"/>
        <path id="XMLID_1121_" d="M23.383,384.172c.055-.11.055-.193-.083-.193a.213.213,0,0,1,.275-.055c.11.055,0,.138,0,.22A.408.408,0,0,0,23.383,384.172Z" transform="translate(-20.108 -382.044)" fill="#f39c92"/>
        <path id="XMLID_1120_" d="M23.393,385.858a1.669,1.669,0,0,0-.193-.275,1.332,1.332,0,0,1,.193-.083v.083C23.365,385.693,23.5,385.775,23.393,385.858Z" transform="translate(-20.036 -383.206)" fill="#eb5f61"/>
        <path id="XMLID_1119_" d="M27.332,413.6c.165.11.055.248,0,.358h-.165C27.112,413.793,27.249,413.683,27.332,413.6Z" transform="translate(-22.901 -403.572)" fill="#eb595e"/>
        <path id="XMLID_1118_" d="M41.819,412.841h-.8c-.193.055-.413.11-.551-.083-.11-.193-.028-.358.165-.5.083-.055,0-.165,0-.248a.518.518,0,0,1,.055-.22l.083-.083c.138-.055.165-.22.248-.3H41.1c.193-.165.385,0,.578.028.33.055.248.193.138.385,0,.027.138.138.22.193.055.028.11-.165.193-.055.055.11-.028.193-.11.248-.11.055-.193.083-.083.248C42.122,412.648,41.9,412.731,41.819,412.841Z" transform="translate(-32.516 -401.932)" fill="#e82548"/>
        <path id="XMLID_1117_" d="M39.668,411a2.276,2.276,0,0,1,.358.193c.055.165-.083.248-.193.358h0c-.5.193-.551.193-.633-.22C39.2,410.972,39.5,411.083,39.668,411Z" transform="translate(-31.631 -401.687)" fill="#e93e50"/>
        <path id="XMLID_1116_" d="M38.92,409.84c-.11.138-.44.055-.358.358a.2.2,0,0,1-.165.055.279.279,0,0,1-.22-.33.447.447,0,0,1,.22-.523c.083.028.165.055.275.083v.083l-.165.165C38.59,409.9,38.755,409.813,38.92,409.84Z" transform="translate(-30.884 -400.528)" fill="#ec545b"/>
        <path id="XMLID_1115_" d="M41.489,411.958c-.028-.165.083-.248.193-.358h.083C41.764,411.793,41.792,411.985,41.489,411.958Z" transform="translate(-33.287 -402.122)" fill="#e8314b"/>
        <path id="XMLID_1114_" d="M37.038,418.8a.335.335,0,0,0,0,.44c0,.138.33.165.083.358h-.083c-.083-.055-.165-.11-.275-.193a.5.5,0,0,1,0-.44A.3.3,0,0,1,37.038,418.8Z" transform="translate(-29.827 -407.34)" fill="#ea4d57"/>
        <path id="XMLID_1113_" d="M36.493,419.446c.138.138.028.3,0,.44a.5.5,0,0,1-.193-.413.1.1,0,0,1,.083-.028C36.41,419.418,36.438,419.418,36.493,419.446Z" transform="translate(-29.53 -407.793)" fill="#ed6264"/>
        <path id="XMLID_1112_" d="M19.3,381.533c.11-.138-.11-.33.083-.44.3.055.523-.193.8-.193.028.275-.193.413-.358.578.468.11.468.11.661-.44.193.3.633.44.606.881a.052.052,0,0,1-.083,0h0c-.055-.275-.165-.385-.468-.275a3.9,3.9,0,0,0-.606.193C19.658,381.863,19.52,381.643,19.3,381.533Z" transform="translate(-17.209 -379.873)" fill="#eb545b"/>
        <path id="XMLID_1111_" d="M47.985,389.318c-.22-.028-.413-.055-.633-.083-.028-.055-.028-.083.028-.138a2.27,2.27,0,0,0,1.789-.8c.248.11.165.275.083.44a2.855,2.855,0,0,1-.33.468c-.11,0-.22.028-.358.028C48.343,389.263,48.151,389.181,47.985,389.318Z" transform="translate(-37.527 -385.236)" fill="#e9354d"/>
        <path id="XMLID_1110_" d="M53,388.194a.423.423,0,0,1,.165-.385c.138-.11.3-.275.11-.5,0-.028-.028-.028-.028-.055,0-.138-.055-.275.11-.358.193.028.33.11.3.33h0c-.055.165,0,.33-.083.5-.028.028-.028.055-.055.11a.622.622,0,0,1-.22.3C53.165,388.166,53.083,388.166,53,388.194Z" transform="translate(-41.633 -384.221)" fill="#e9364d"/>
        <path id="XMLID_1109_" d="M54.836,388.4a.54.54,0,0,1,.248.248c-.22.027-.138.413-.413.385-.165,0-.138-.083-.083-.193h0C54.836,388.813,54.643,388.51,54.836,388.4Z" transform="translate(-42.753 -385.308)" fill="#ed6967"/>
        <path id="XMLID_1108_" d="M54.093,390.1a.25.25,0,0,0,.083.193.244.244,0,0,1-.275.165C53.983,390.32,54.038,390.21,54.093,390.1Z" transform="translate(-42.285 -386.54)" fill="#eb595e"/>
        <path id="XMLID_1107_" d="M40.175,408.3h.083l-.358.358C39.9,408.493,39.9,408.3,40.175,408.3Z" transform="translate(-32.139 -399.731)" fill="#ec545b"/>
        <path id="XMLID_1106_" d="M40.846,395.748c.165,0,.3-.138.468-.083a.38.38,0,0,1-.11.083c-.11.027-.22.11-.358.083Q40.8,395.748,40.846,395.748Z" transform="translate(-32.809 -390.564)" fill="#f18a82"/>
        <path id="XMLID_1105_" d="M31.2,382.586l-.083.083a2.041,2.041,0,0,1-.826.358c0-.027-.028-.027-.028-.055-.083-.275.22-.22.3-.358.193-.11.385-.22.606-.083A.1.1,0,0,0,31.2,382.586Z" transform="translate(-25.144 -381.008)" fill="#ed6565"/>
        <path id="XMLID_1104_" d="M27.838,384.886a.762.762,0,0,1,.083-.358c.165-.083.33-.22.523-.083h0a2.6,2.6,0,0,1-.275.275c0,.028,0,.028-.028.055-.138.138-.055.22.055.33a.143.143,0,0,1-.055.11c-.165.055-.3.082-.44-.083A.258.258,0,0,1,27.838,384.886Z" transform="translate(-23.297 -382.4)" fill="#ed6565"/>
        <path id="XMLID_1103_" d="M29.408,385.428c.11.165.3.027.44.083-.11.3-.385.193-.606.248-.275-.055-.248-.193-.11-.358h0A1.033,1.033,0,0,0,29.408,385.428Z" transform="translate(-24.262 -383.134)" fill="#f2948c"/>
        <path id="XMLID_1102_" d="M29.583,385.7c.193-.11.44-.055.633-.193.3-.027.578-.055.881-.11.11.028.22,0,.275.11a.75.75,0,0,1-.413.358,1.775,1.775,0,0,1-.193.055c-.193-.028-.33.11-.468.193-.275-.028-.523-.165-.8-.22v-.083C29.5,385.758,29.555,385.73,29.583,385.7Z" transform="translate(-24.601 -383.134)" fill="#ea4d57"/>
        <path id="XMLID_1101_" d="M33.975,382.063h.165c.083-.055.165-.083.248,0,.028,0,.028.027.055.027-.055.028-.138.055-.193.083-.193-.028-.33.22-.551.083h0C33.7,382.063,33.838,382.063,33.975,382.063Z" transform="translate(-27.645 -380.677)" fill="#ed6565"/>
        <path id="XMLID_1100_" d="M35.548,380.533H35.3c.028-.248.5-.275.275-.633.22,0,.165.22.248.358Z" transform="translate(-28.805 -379.148)" fill="#ea4754"/>
        <path id="XMLID_1099_" d="M39.383,385.17c.275-.055.523.11.8.083.275-.193.55,0,.8,0,.028.22-.165.22-.3.248a1.846,1.846,0,0,0-.5.193.884.884,0,0,1-.881-.248A.362.362,0,0,1,39.383,385.17Z" transform="translate(-31.704 -382.959)" fill="#ea4754"/>
        <path id="XMLID_1098_" d="M46.11,385.475A4.432,4.432,0,0,1,47.9,385.2h0c.11.165.193.3,0,.468a2.287,2.287,0,0,0-1.707,0,.3.3,0,0,1-.193-.083C46,385.5,46.028,385.448,46.11,385.475Z" transform="translate(-36.56 -382.989)" fill="#e9354d"/>
        <path id="XMLID_1097_" d="M43.726,385.775h.193c-.028.248-.248.22-.413.248-.22-.055-.44.083-.661-.055a.084.084,0,0,1,0-.11c0-.22.22-.165.33-.193.138-.055.3,0,.385-.165h.083C43.726,385.583,43.644,385.693,43.726,385.775Z" transform="translate(-34.259 -383.206)" fill="#e92c4a"/>
        <path id="XMLID_1096_" d="M45.763,385.746c-.248-.027-.055-.193-.083-.275.165-.055.11.11.193.193A.381.381,0,0,0,45.763,385.746Z" transform="translate(-36.295 -383.177)" fill="#ea4754"/>
        <path id="XMLID_1095_" d="M52.988,385.64c.083-.138-.028-.3,0-.44.11.027.248.055.358.083.028.083.11.083.193.083,0,.22.358.358.193.633h-.083c-.083-.138-.165-.275-.358-.275a.133.133,0,0,1-.193-.028C53.016,385.7,52.988,385.668,52.988,385.64Z" transform="translate(-41.621 -382.989)" fill="#eb5259"/>
        <path id="XMLID_1094_" d="M55.014,386.433c.055-.248-.33-.358-.193-.633C54.959,385.993,55.344,386.1,55.014,386.433Z" transform="translate(-42.931 -383.424)" fill="#ed6967"/>
        <path id="XMLID_1093_" d="M54.875,388.183c-.055.165.11.468-.275.44.083-.165,0-.385.193-.523Z" transform="translate(-42.793 -385.091)" fill="#eb5259"/>
        <path id="XMLID_1092_" d="M34.7,386.075c.138-.083.3-.193.44-.275h.083c.193.165.5-.11.661.165-.165.11-.193.3-.275.44a.989.989,0,0,1-.5.193A.631.631,0,0,1,34.7,386.075Z" transform="translate(-28.37 -383.424)" fill="#e93b4f"/>
        <path id="XMLID_1091_" d="M37.233,385.63c-.165-.193-.523.193-.633-.165.248-.165.551-.083.8-.165v.275C37.4,385.63,37.343,385.658,37.233,385.63Z" transform="translate(-29.747 -383.061)" fill="#ea4d57"/>
        <path id="XMLID_1090_" d="M25.256,396.083c.083-.028.083-.11.083-.193.165-.028.165.11.193.193.083.275.468.3.468.661-.028.193-.11.3-.33.3q-.124-.083-.165.083l-.083.083c-.055.028-.083.055-.138.055.055.028.138,0,.165.083,0,.11-.083.138-.165.165-.248.028-.44.3-.716.248-.193-.11-.33-.385-.606-.165a.417.417,0,0,1-.358.083c-.165-.055-.11-.22-.165-.33a.1.1,0,0,1,.11-.165c.3.248.358-.11.523-.193.055.055.083.138.165.083s-.028-.028-.028-.028a.391.391,0,0,1-.165-.055c.165-.193.523-.083.633-.358.193.083.083-.165.193-.193v-.083C25.036,396.276,25.422,396.551,25.256,396.083Z" transform="translate(-20.193 -390.734)" fill="#e9364d"/>
        <path id="XMLID_1089_" d="M20.049,401.2a1.669,1.669,0,0,0,.193.275c.028.083-.083.3.165.165a2.425,2.425,0,0,1,.275-.165c.165-.055.248-.027.248.165,0,.055-.028.083-.055.138a4.821,4.821,0,0,1-1.211.551,1.479,1.479,0,0,0-.551.275.187.187,0,0,1-.33-.055c.055-.11.055-.193-.083-.193,0-.275.3-.193.413-.33a.484.484,0,0,1,.11-.138.165.165,0,0,1,.11-.028c.22-.027.083-.11.028-.165,0-.027-.028-.027-.028-.055.083-.3.083-.275.385-.193C19.884,401.5,19.911,401.255,20.049,401.2Z" transform="translate(-16.774 -394.585)" fill="#e8364d"/>
        <path id="XMLID_1088_" d="M18.643,403.458c-.193.083-.358.193-.551.275-.193,0-.193-.138-.193-.275.33.083.193-.358.44-.358.055.055.165.027.193.083C18.616,403.293,18.561,403.4,18.643,403.458Z" transform="translate(-16.194 -395.962)" fill="#e93f50"/>
        <path id="XMLID_1087_" d="M19.865,403.065a.166.166,0,0,1-.165-.083.762.762,0,0,0,.358-.083h0c.055.055.193.027.193.138a.127.127,0,0,1-.193.11h-.083C19.893,403.148,19.893,403.093,19.865,403.065Z" transform="translate(-17.499 -395.817)" fill="#e8314b"/>
        <path id="XMLID_1086_" d="M28.15,397.8c-.028.083.055.3-.193.193.11-.083-.165-.165,0-.22A.242.242,0,0,1,28.15,397.8Z" transform="translate(-23.444 -392.091)" fill="#ea4051"/>
        <path id="XMLID_1085_" d="M17.78,404c.055.028.138.083.165.055a7.323,7.323,0,0,1,1.9-.853.312.312,0,0,1,.33.3c0,.055,0,.083-.028.11-.083.138-.275.193-.413.275a1.667,1.667,0,0,0-.275.193c-.083.193-.275.22-.44.275a.329.329,0,0,1-.193.193c-.22.083-.468.083-.633.275v.083a.58.58,0,0,1-.716-.083.389.389,0,0,1-.083-.55C17.615,404.274,17.615,404.026,17.78,404Z" transform="translate(-15.772 -396.034)" fill="#e82748"/>
        <path id="XMLID_1084_" d="M18.5,410.958c-.028.165-.11.22-.248.138-.165-.138.083-.11.11-.193,0-.083.028-.138.028-.22V410.6C18.72,410.655,18.554,410.82,18.5,410.958Z" transform="translate(-16.408 -401.397)" fill="#ea4754"/>
        <path id="XMLID_1083_" d="M17.493,410.093c-.11,0-.165-.055-.193-.193C17.438,409.928,17.6,409.872,17.493,410.093Z" transform="translate(-15.76 -400.89)" fill="#e94051"/>
        <path id="XMLID_1082_" d="M29.279,401.836c-.138-.275-.275-.385-.523-.083-.055.083-.11.165-.22.138-.138-.055.028-.193-.055-.275-.275.413-.743.22-1.1.3a.13.13,0,0,1-.028-.165.3.3,0,0,1,.385-.138c-.083-.055-.193-.028-.248-.11.11-.193.083-.578.5-.33.028.055-.028.165.055.165.028,0,.028-.11.028-.165a.839.839,0,0,1,.22-.44.206.206,0,0,1,.248,0c.083.083.11.22.248.22.055-.193.11-.385.358-.413.028,0,.083.028.11.028a.206.206,0,0,0,.248,0c.165-.11.3-.275.523-.165a.209.209,0,0,1,.11.055.32.32,0,0,0,.275.055c.083.027.22,0,.193.165-.028.193.138.055.193.083-.028.083-.11.083-.193.083-.138.138-.11.523-.468.3-.083-.11-.138-.027-.22.028-.248.083-.358.22-.248.5C29.554,401.891,29.472,401.973,29.279,401.836Z" transform="translate(-23.032 -393.982)" fill="#e9334c"/>
        <path id="XMLID_1081_" d="M36.43,402.375c.3.165.248-.248.44-.275a1.635,1.635,0,0,1,.193.716c-.083.193-.275.22-.44.275-.193-.055-.468.028-.523-.3a.3.3,0,0,1,.055-.165C36.293,402.6,36.265,402.375,36.43,402.375Z" transform="translate(-29.385 -395.237)" fill="#e82949"/>
        <path id="XMLID_1080_" d="M40.866,402.8a1.326,1.326,0,0,1-1.266.551C39.875,402.828,40.426,402.965,40.866,402.8Z" transform="translate(-31.921 -395.744)" fill="#e82949"/>
        <path id="XMLID_1079_" d="M40.336,399.553c-.028-.11-.33-.138-.165-.275.083-.083.248-.275.44-.165a.614.614,0,0,0,.358.083,1.669,1.669,0,0,0-.275.193.348.348,0,0,1-.275.193A.1.1,0,0,0,40.336,399.553Z" transform="translate(-32.3 -393.048)" fill="#e9334c"/>
        <path id="XMLID_1078_" d="M40.835,400.293a1.667,1.667,0,0,0,.275-.193c.055.165.248.385-.11.44-.165.028-.138.248-.275.33C40.587,400.678,41,400.54,40.835,400.293Z" transform="translate(-32.716 -393.788)" fill="#e82949"/>
        <path id="XMLID_1077_" d="M44.916,402.1c-.138,0-.275-.028-.385.138-.138.22-.22.027-.33-.055C44.42,402.021,44.613,401.8,44.916,402.1Z" transform="translate(-35.255 -395.13)" fill="#e82949"/>
        <path id="XMLID_1076_" d="M38.1,400.2c-.055-.11-.165-.083-.275-.083-.028-.027-.028-.055-.028-.11a1.787,1.787,0,0,0,.22-.248c.028-.028.055-.028.11-.055.028,0,.028.028.055.028C38.213,399.92,38.3,400.085,38.1,400.2Z" transform="translate(-30.617 -393.498)" fill="#e8364d"/>
        <path id="XMLID_1075_" d="M38.294,398.955a.219.219,0,0,1,.358,0,.25.25,0,0,1-.083.193h0C38.486,399.037,38.266,399.2,38.294,398.955Z" transform="translate(-30.973 -392.89)" fill="#e8364d"/>
        <path id="XMLID_1074_" d="M35.249,399.055a1.671,1.671,0,0,1,.275.193h-.083l-.083.083c-.138.055-.358,0-.44.193-.248-.11-.358.11-.551.193-.083-.028-.193.055-.275,0v-.083c-.028-.22.165-.248.3-.33.11-.055.193-.11.3-.165s.22-.083.33-.138h.055A.572.572,0,0,1,35.249,399.055Z" transform="translate(-27.928 -392.99)" fill="#ea4453"/>
        <path id="XMLID_1073_" d="M38.778,396.865a.4.4,0,0,1-.385.165.235.235,0,0,1-.193,0c0-.3.193-.33.44-.33C38.723,396.755,38.778,396.81,38.778,396.865Z" transform="translate(-30.907 -391.323)"/>
        <path id="XMLID_1072_" d="M35.961,398.31v.083h0a.865.865,0,0,1-.44.165c-.11,0-.193-.028-.22-.138a.166.166,0,0,1,.083-.165.51.51,0,0,1,.193-.055h.138A.336.336,0,0,1,35.961,398.31Z" transform="translate(-28.805 -392.411)" fill="#ee726e"/>
        <path id="XMLID_1071_" d="M36.975,398H36.7c.083-.248.248-.275.44-.165a.468.468,0,0,1,.193.028C37.278,398.058,37.113,397.976,36.975,398Z" transform="translate(-29.82 -392.104)" fill="#ee7671"/>
        <path id="XMLID_1070_" d="M40.01,396.7l-.11-.11c.028-.138.083-.138.193-.083a.688.688,0,0,1,.193.11C40.2,396.647,40.093,396.675,40.01,396.7Z" transform="translate(-32.139 -391.16)"/>
        <path id="XMLID_1069_" d="M37.528,395.845c-.055.028-.138.055-.193.083-.165.055-.358.083-.44.275a.78.78,0,0,0-.44.165h-.083c-.083-.385.33-.358.468-.55.165-.11.3-.385.551-.193a.275.275,0,0,1,.138.11Z" transform="translate(-29.574 -390.496)" fill="#eb565c"/>
        <path id="XMLID_1068_" d="M40.093,395.767H39.9c0-.193.083-.248.275-.165v.165Z" transform="translate(-32.139 -390.501)" fill="#ea4754"/>
        <path id="XMLID_1067_" d="M19.7,391.434a.544.544,0,0,1,.33-.5c.165-.055.055-.138.055-.193.083-.3.3-.385.578-.44a3,3,0,0,0,.468-.138,3.392,3.392,0,0,1,1.239-.468c.248.413.22.5-.3.523a.334.334,0,0,0,.413.027,3.416,3.416,0,0,1,1.376-.275c.275-.028.413.3.688.358.083.193-.028.3-.165.385a.123.123,0,0,1-.138,0c-.248-.33-.551-.055-.826-.11l-.413.083c-.028,0-.083.028-.11.028a6.727,6.727,0,0,1-1.073.165h0c-.138.11-.33.027-.44.165H21.3a1.759,1.759,0,0,0-.908.275C20.14,391.214,19.948,391.6,19.7,391.434Z" transform="translate(-17.499 -386.25)" fill="#e92949"/>
        <path id="XMLID_1066_" d="M27.5,393.275A2.948,2.948,0,0,1,28.573,393c-.055.33-.44.11-.551.358-.055.027-.138.055-.193.082Z" transform="translate(-23.152 -388.642)" fill="#ea4c56"/>
        <path id="XMLID_1065_" d="M28.941,383.32c-.165.028-.358.138-.523.083-.11-.11.11-.11.083-.193.055-.055.165-.055.083-.165h0a.1.1,0,0,1,0-.165h.083c.138.028.3-.028.44,0h.083c.028.028.028.028.028.055a.027.027,0,0,1-.028.028C29.134,383.1,28.886,383.1,28.941,383.32Z" transform="translate(-23.795 -381.301)" fill="#ea4b56"/>
        <path id="XMLID_1064_" d="M25.057,380.9h.165a1.338,1.338,0,0,0,.193.083c.055.165-.11.165-.165.22-.028.027-.055.027-.11.055-.11,0-.22.028-.248-.11C24.864,381.038,25.03,381.01,25.057,380.9Z" transform="translate(-21.259 -379.873)" fill="#ea4453"/>
        <path id="XMLID_1063_" d="M27,382.624v.165a1.974,1.974,0,0,1-.8-.165c.028-.083.083-.138.193-.083A2.293,2.293,0,0,0,27,382.624Z" transform="translate(-22.21 -381.046)" fill="#e93b4f"/>
        <path id="XMLID_1062_" d="M25.6,384.355h.083c.138-.028.248-.028.385-.055.055.138-.028.248-.138.33C25.9,384.438,25.683,384.493,25.6,384.355Z" transform="translate(-21.775 -382.337)" fill="#ea4453"/>
        <path id="XMLID_1061_" d="M26.175,381.958a1.348,1.348,0,0,1-.193.083c-.083-.028-.083-.11-.083-.193v-.083c.165-.055.33-.138.275.193Z" transform="translate(-21.992 -380.462)" fill="#eb5c5f"/>
        <path id="XMLID_1060_" d="M26.091,386.148q-.083-.041,0-.083c.055-.055.083-.138.193-.165h.083c.028.11.193.165.055.3A.259.259,0,0,1,26.091,386.148Z" transform="translate(-22.101 -383.496)" fill="#eb595e"/>
        <path id="XMLID_1059_" d="M27.283,386.075c-.028-.083-.055-.165-.083-.275.083.028.165.055.275.083a.25.25,0,0,1-.083.193C27.338,386.1,27.31,386.1,27.283,386.075Z" transform="translate(-22.934 -383.424)" fill="#ed6867"/>
        <path id="XMLID_1058_" d="M26.393,385.51c0,.11-.055.165-.193.165,0-.138,0-.248.193-.275Z" transform="translate(-22.21 -383.134)" fill="#ea4654"/>
        <path id="XMLID_1057_" d="M28.883,383.6c.055.028.165,0,.138.11-.028.083-.138.055-.22.055Z" transform="translate(-24.094 -381.829)" fill="#eb595e"/>
        <path id="XMLID_1056_" d="M29.458,380.6c.028.358-.193.193-.358.165A.615.615,0,0,1,29.458,380.6Z" transform="translate(-24.312 -379.655)" fill="#e93b4f"/>
        <path id="XMLID_1055_" d="M26.075,381.658c0-.193-.138-.193-.275-.165.083-.055.165-.11.275-.193h.193c.055.11-.055.193-.083.275C26.158,381.575,26.13,381.63,26.075,381.658Z" transform="translate(-21.92 -380.162)" fill="#eb525a"/>
        <path id="XMLID_1054_" d="M27.2,381.475c.028-.083.055-.193.083-.275l.165.083A1.506,1.506,0,0,1,27.2,381.475Z" transform="translate(-22.934 -380.09)" fill="#e93b4f"/>
        <path id="XMLID_1053_" d="M23.6,406.675a1.479,1.479,0,0,1,.44-.275,2.424,2.424,0,0,0,.743.275c.11.028.22.028.248.193-.193.055-.3.193-.578,0-.33-.22-.165.22-.22.358-.22.138-.193-.11-.275-.165h0A.818.818,0,0,0,23.6,406.675Z" transform="translate(-20.325 -398.354)" fill="#e8354c"/>
        <path id="XMLID_1052_" d="M34.633,404.34c0,.33.33.193.44.358-.275.083.028.193,0,.275a.085.085,0,0,1,.028.055c0,.028,0,.028-.028.028a.166.166,0,0,1-.11.027,1.935,1.935,0,0,0-.385-.083c-.193-.11-.523.138-.578-.248l.083-.083a.221.221,0,0,0,.275-.275C34.44,404.34,34.523,404.285,34.633,404.34Z" transform="translate(-27.863 -396.844)" fill="#e92c4a"/>
        <path id="XMLID_1051_" d="M32.913,406.1c.138.275.468-.027.633.193.11.138.083.248-.083.3l-.33.083c-.22-.055-.44.027-.633-.11v-.193A1.354,1.354,0,0,0,32.913,406.1Z" transform="translate(-26.776 -398.136)" fill="#e9374d"/>
        <path id="XMLID_1050_" d="M26.558,404.965v.193c-.11-.027-.248-.055-.358-.083.083-.138.165-.275.358-.275A.1.1,0,0,1,26.558,404.965Z" transform="translate(-22.21 -397.194)" fill="#e9304b"/>
        <path id="XMLID_1049_" d="M20.6,408.184c.11-.3.33-.358.633-.275v.083C21.068,408.239,20.82,408.129,20.6,408.184Z" transform="translate(-18.151 -399.422)" fill="#e92e4a"/>
        <path id="XMLID_1048_" d="M24.9,408.7c.083.055.138.193.275.165C24.9,409.058,24.9,408.865,24.9,408.7Z" transform="translate(-21.268 -400.02)" fill="#e93e50"/>
        <path id="XMLID_1047_" d="M34.029,416.423c-.358.275-.606-.083-.881-.193-.055-.027-.138-.055-.193-.083a.209.209,0,0,1-.055-.11.143.143,0,0,1,.055-.11.408.408,0,0,1,.193-.028,4.9,4.9,0,0,1,.826.468C34,416.4,34,416.423,34.029,416.423Z" transform="translate(-27.066 -405.239)" fill="#ea5059"/>
        <path id="XMLID_1046_" d="M37.885,418.13c-.083-.138-.193-.027-.275,0a.167.167,0,0,0-.083-.165c-.028-.027-.028-.027-.028-.055a.027.027,0,0,1,.028-.028.883.883,0,0,1,.385.028C38.133,417.964,38.106,418.075,37.885,418.13Z" transform="translate(-30.399 -406.67)" fill="#ea4d57"/>
        <path id="XMLID_1045_" d="M29.8,416.8a1.908,1.908,0,0,0,.551.083.184.184,0,0,1,.275,0l-.083.083c-.193.138-.358-.028-.551,0A.37.37,0,0,1,29.8,416.8Z" transform="translate(-24.819 -405.891)" fill="#ea5059"/>
        <path id="XMLID_1044_" d="M31.975,416.385H31.7v-.275c.138-.083.248,0,.358.083v.083A.381.381,0,0,1,31.975,416.385Z" transform="translate(-26.196 -405.366)" fill="#ea4252"/>
        <path id="XMLID_1043_" d="M36.9,416.93v.083l-.165-.083h0c.083-.138-.165-.165-.083-.3a.165.165,0,0,1,.11-.028c.083.028.165.028.138.165Z" transform="translate(-29.775 -405.746)" fill="#ea5059"/>
        <path id="XMLID_1042_" d="M38.061,420.758c.11-.165-.138-.22-.083-.358.22.11.523.165.44.551C38.281,420.923,38.089,421.006,38.061,420.758Z" transform="translate(-30.74 -408.5)" fill="#ea4b56"/>
        <path id="XMLID_1041_" d="M31.4,382.466v-.083c.248-.3.578-.165.908-.165-.083.055-.193.11-.275.165C31.813,382.273,31.62,382.493,31.4,382.466Z" transform="translate(-25.978 -380.805)" fill="#e93b4f"/>
        <path id="XMLID_1040_" d="M35.358,378.875v.083c-.275.055-.248-.248-.358-.358C35.193,378.6,35.358,378.655,35.358,378.875Z" transform="translate(-28.588 -378.206)" fill="#ea4754"/>
        <path id="XMLID_1039_" d="M29.94,382.628c-.138.055-.3.165-.44,0A.286.286,0,0,1,29.94,382.628Z" transform="translate(-24.601 -381.05)" fill="#e93b4f"/>
        <path id="XMLID_1038_" d="M39.569,413.523c.083.165.5.385-.083.468-.11.028-.055.138-.055.22a.183.183,0,0,0,.138.193c.11.028.248,0,.358.028a.97.97,0,0,1-.716.138c-.413-.055-.22-.413-.193-.661,0-.028.028-.028.028-.055C39.184,413.633,39.294,413.413,39.569,413.523Z" transform="translate(-31.45 -403.495)" fill="#e82a49"/>
        <path id="XMLID_1037_" d="M37.071,415.034c-.028-.083-.11-.083-.193-.083.055-.165-.11-.385.11-.523a2.049,2.049,0,0,1,.33-.193c.165-.055.275-.027.193.193h0C37.236,414.511,37.429,414.951,37.071,415.034Z" transform="translate(-29.943 -404.015)" fill="#e93c4f"/>
        <path id="XMLID_1036_" d="M40.383,420.72a.6.6,0,0,1-.083-.138c0-.083.055-.083.11-.083.083,0,.083.055.083.11C40.548,420.693,40.493,420.72,40.383,420.72Z" transform="translate(-32.429 -408.572)" fill="#e82e4a"/>
        <path id="XMLID_1035_" d="M18.575,394.439a.156.156,0,0,1-.275,0C18.41,394.439,18.493,394.3,18.575,394.439Z" transform="translate(-16.484 -389.64)" fill="#e93e50"/>
        <path id="XMLID_1034_" d="M35.632,407.851a.763.763,0,0,0-.083.551.1.1,0,0,1-.083.028c-.028-.138-.11-.11-.22-.083a.809.809,0,0,0-.44.11.249.249,0,0,1-.138-.027c-.22-.11-.385-.248-.193-.523.193-.027.33-.055.385-.275a.377.377,0,0,1,.3-.33c.248.193.358.385-.028.633a.591.591,0,0,1,.413-.083Z" transform="translate(-28.146 -399.006)" fill="#e93e50"/>
        <path id="XMLID_1033_" d="M37.322,407.633c-.055.083-.11.11-.193.083-.138-.055-.11.275-.248.11-.11-.138,0-.22.138-.3.248-.165-.055-.3-.055-.44,0-.055.055-.055.083-.083h.083c.138.055.22.11.193.275A.289.289,0,0,1,37.322,407.633Z" transform="translate(-29.919 -398.788)" fill="#e9334c"/>
        <path id="XMLID_1032_" d="M41.64,405.5a.241.241,0,0,1-.193.165L41.2,405.5A.366.366,0,0,1,41.64,405.5Z" transform="translate(-33.081 -397.648)" fill="#e93e50"/>
        <path id="XMLID_1031_" d="M38.093,407.058a1.671,1.671,0,0,0-.193-.275V406.7c.11.028.248.055.358.083h0A.244.244,0,0,1,38.093,407.058Z" transform="translate(-30.689 -398.571)" fill="#e93a4f"/>
        <path id="XMLID_1030_" d="M39.3,406.619c.083-.3.275-.138.44-.138a2.059,2.059,0,0,0-.44.138Z" transform="translate(-31.704 -398.38)" fill="#e83c50"/>
        <path id="XMLID_1029_" d="M30.583,394.146c0-.11.028-.193-.083-.275a.371.371,0,0,1,.165-.193c.11-.027.028-.165.083-.22.055-.028.083-.055.138-.083.083-.028.193-.055.275-.083.138-.028.193-.193.358-.193a.29.29,0,0,1,.193.358l-.083.165a3.3,3.3,0,0,1-.3.33C31.078,393.981,30.858,394.256,30.583,394.146Z" transform="translate(-25.326 -388.714)" fill="#ea4051"/>
        <path id="XMLID_1028_" d="M29.4,393.358c.083-.275.413-.165.551-.358h.083c.055.027.055.083.055.165a.6.6,0,0,1-.083.138c-.083.055-.083.165-.138.22h-.193C29.813,393.165,29.538,393.385,29.4,393.358Z" transform="translate(-24.529 -388.642)" fill="#ee706d"/>
        <path id="XMLID_1027_" d="M31.028,394.275c0-.11-.028-.22.083-.275.055.055.055.11,0,.193.028.083.11.138.028.22-.055.055-.083,0-.138-.028A.208.208,0,0,0,31.028,394.275Z" transform="translate(-25.689 -389.367)" fill="#ea5059"/>
        <path id="XMLID_1026_" d="M30.222,388.316a.54.54,0,0,1-.523-.22c-.11-.165-.44.027-.688.027a3.461,3.461,0,0,0-1.046.275c-.138.028-.3.083-.413-.083-.055-.11.028-.165.083-.22.165-.193.275-.028.413.028v-.413c.11-.055.193,0,.3.055.275.22.33-.055.468-.193a.2.2,0,0,1,.165-.083c.33,0,.688.165.991-.138a3.052,3.052,0,0,0,.44-.193,2.07,2.07,0,0,1,1.349-.193c.22.055.413-.138.633,0,.028.193-.165.22-.275.3a8.969,8.969,0,0,1-1.266.605,3.981,3.981,0,0,0,1.6.138c.22,0,.413-.055.578.138v.083c.028.083.083.193-.083.165a.971.971,0,0,0-.385.083.684.684,0,0,0-.688,0c-.275.165-.5-.055-.771-.055H30.69A.492.492,0,0,1,30.222,388.316Z" transform="translate(-23.177 -384.233)" fill="#e82648"/>
        <path id="XMLID_1025_" d="M37.081,391.822a1,1,0,0,0,.963,0c.248-.165.358,0,.468.193l.083.165a.644.644,0,0,0-.8.193c-.165.027-.33.055-.468.083-.11.027-.165.083-.055.165a.25.25,0,0,1-.083.193.276.276,0,0,0-.275.165c-.22-.3-.275.138-.44.083-.165-.083-.33.248-.5.028-.33-.44-.33-.44.11-.688.11-.138.248-.055.358,0,.138.083.275.11.385-.027a.887.887,0,0,1,.633-.165C37.164,392.207,36.916,392.18,37.081,391.822Z" transform="translate(-29.127 -387.739)" fill="#e93c4f"/>
        <path id="XMLID_1024_" d="M18.884,387.72c.275-.165.661-.11.908-.358h0c.165-.083.275-.083.33.11a.25.25,0,0,1-.165.3c-.11.027-.22.083-.33.11a.29.29,0,0,0-.3.22c-.055.138-.165.165-.248.248-.193.248-.578.22-.688.578-.028.083-.275.055-.248-.055.138-.55-.33-.165-.44-.3A2.63,2.63,0,0,1,18.884,387.72Z" transform="translate(-16.049 -384.518)" fill="#e92c49"/>
        <path id="XMLID_1023_" d="M23.3,388.285c.055-.11.028-.33.275-.275.193.22.44.138.661.11.055,0,.138.028.11-.083-.138-.5.358-.468.5-.413a1.914,1.914,0,0,0,.963.055.378.378,0,0,1,.22.138.146.146,0,0,1-.11.193l-.083.083c-.165.11-.3.275-.551.193-.083-.027-.193-.055-.275-.083-.358.3-.853.275-1.266.44.028-.055.083-.165.055-.193-.11-.11-.193.055-.3.027C23.383,388.422,23.355,388.34,23.3,388.285Z" transform="translate(-20.108 -384.725)" fill="#e8354c"/>
        <path id="XMLID_1022_" d="M22.865,390.1c.11,0,.165.055.193.193-.083.138-.248.083-.358.083A.571.571,0,0,1,22.865,390.1Z" transform="translate(-19.673 -386.54)" fill="#e83b4f"/>
        <path id="XMLID_1021_" d="M30.818,411.644a.535.535,0,0,1-.358-.083c-.165-.055-.22-.275-.468-.3-.11,0,.028-.11.11-.138a.17.17,0,0,0,.055-.193c-.165-.413-.138-.5.3-.688a3.065,3.065,0,0,1,.193-.44c.3,0,.5.193.523.606-.22.358-.523.716-.358,1.184Z" transform="translate(-24.928 -400.818)" fill="#e8314b"/>
        <path id="XMLID_1020_" d="M30.228,411.083c-.028.165-.248.138-.3.3-.028.11-.165.165.055.275.275.138-.028.22-.11.33-.385-.358-.138-.688.083-.991C30.063,411.028,30.145,411.055,30.228,411.083Z" transform="translate(-24.724 -401.687)" fill="#e9364d"/>
        <path id="XMLID_1019_" d="M32.84,409.165c0-.33-.248-.44-.44-.633l.193-.193c.165-.083.3-.275.551-.193a.258.258,0,0,1,0,.358c-.248.275.11.3.193.44C33.116,409,33.061,409.276,32.84,409.165Z" transform="translate(-26.703 -399.605)" fill="#e9364d"/>
        <path id="XMLID_1018_" d="M32.888,407.9c-.165.028-.22.33-.44.193a.166.166,0,0,1-.165-.083c.138-.138.028-.165-.083-.193l.083-.083c.22.055.44-.138.633.083.028.028.028.028.028.055C32.888,407.87,32.888,407.9,32.888,407.9Z" transform="translate(-26.558 -399.3)" fill="#ea4352"/>
        <path id="XMLID_1017_" d="M26.457,387.085a.833.833,0,0,1-.936-.055c-.11-.083-.3.22-.523.11-.083.22.33.3.083.468a.656.656,0,0,1-.881-.248,1.474,1.474,0,0,1,.3-.138c.083-.028.22.028.22-.138,0-.193-.138-.193-.275-.193a1.669,1.669,0,0,0,.275-.193h.44c.138.138.3.083.44.083.33-.165.551.055.8.193.028.028.028.028.028.055C26.485,387.085,26.457,387.085,26.457,387.085Z" transform="translate(-20.76 -384.076)" fill="#ea4252"/>
        <path id="XMLID_1016_" d="M37.559,412.943c-.028-.11-.055-.22-.165-.083a.4.4,0,0,1-.358.165c-.193-.193-.193-.358.055-.5.248.028.248-.248.413-.33h.165c.028.083-.055.33.165.165.138-.11.248.028.358,0a.25.25,0,0,1-.083.193C37.807,412.558,37.834,412.971,37.559,412.943Z" transform="translate(-29.963 -402.557)" fill="#e8314b"/>
        <path id="XMLID_1015_" d="M37.161,411.469c.028.248-.083.385-.358.358a.294.294,0,0,1-.3-.138.166.166,0,0,1,.028-.11,2.4,2.4,0,0,0,.22-.275c.055-.055.11-.193.22-.138h.083C36.968,411.332,37.106,411.387,37.161,411.469Z" transform="translate(-29.675 -401.799)" fill="#e93e50"/>
        <path id="XMLID_1014_" d="M41.095,387.323a6.786,6.786,0,0,0-1.294.028c-.33.055-.661-.165-.991-.138a.126.126,0,0,1-.11-.138.182.182,0,0,1,.193-.165,6.585,6.585,0,0,0,1.6-.771.65.65,0,0,0,.44-.193,3.562,3.562,0,0,1,1.321-.165.4.4,0,0,1,.385.248h.083c.11.138.055.33.165.44h0A1.5,1.5,0,0,1,41.095,387.323Z" transform="translate(-31.269 -383.406)" fill="#e82447"/>
        <path id="XMLID_1013_" d="M53.352,387.24c-.22-.083-.248-.248-.165-.44a1.342,1.342,0,0,0,.193.083C53.463,387.02,53.38,387.13,53.352,387.24Z" transform="translate(-41.738 -384.148)" fill="#e9354d"/>
        <path id="XMLID_1012_" d="M29,385.775l-.083.083c-.083-.028-.22.055-.22-.138,0-.165.138-.165.22-.22C28.948,385.61,28.755,385.748,29,385.775Z" transform="translate(-24.022 -383.206)" fill="#ed6867"/>
        <path id="XMLID_1011_" d="M32.7,387.433a1.344,1.344,0,0,0,.083-.193c-.083-.11-.028-.248.083-.22.3.083.11-.193.193-.22h.165c.275.028.193.385.44.44C33.471,387.846,33.058,387.461,32.7,387.433Z" transform="translate(-26.921 -384.148)" fill="#e82f4b"/>
        <path id="XMLID_1010_" d="M32.768,386.8c.028.11.083.248.11.385-.138.055-.33-.33-.385.055a1.339,1.339,0,0,0-.193-.083v-.083C32.328,386.717,32.63,386.883,32.768,386.8Z" transform="translate(-26.631 -384.148)" fill="#e93b4f"/>
        <path id="XMLID_1009_" d="M39.249,386.448c-.44.055-.908.11-1.349.193.055-.138.083-.33.275-.358l.165-.083a1.694,1.694,0,0,0,.908.193Z" transform="translate(-30.689 -383.714)" fill="#e8374e"/>
        <path id="XMLID_1008_" d="M36.5,387.355a.209.209,0,0,1,.11-.055c.055,0,.083.055.055.083a.165.165,0,0,1-.11.028Z" transform="translate(-29.675 -384.511)" fill="#e82f4b"/>
        <path id="XMLID_1007_" d="M30.952,399.185c-.083.138-.3.083-.358.275-.33.055-.33.3-.33.468.22-.275-.716.193-.3-.3-.028-.055,0-.083.028-.138-.055-.11-.11.028-.193,0-.055,0-.083,0-.11-.028H29.3c.248-.11.33-.248.5-.275.028-.028.028-.083.083-.083.22.028.3-.11.358-.275.028,0,.028,0,.055-.028a1.818,1.818,0,0,1,.413.138A.71.71,0,0,1,30.952,399.185Z" transform="translate(-24.456 -392.845)" fill="#ea4754"/>
        <path id="XMLID_1006_" d="M27.684,401.569a.65.65,0,0,1-.193.44c-.055.055-.11.055-.193,0-.055-.083-.22-.11-.193-.027.028.22-.193.193-.248.3a.052.052,0,0,1-.083,0c-.028-.165-.165-.248-.275-.358v-.083c.083-.083.138-.138.275-.083.3.083.413-.33.716-.275C27.546,401.542,27.629,401.514,27.684,401.569Z" transform="translate(-22.427 -394.789)" fill="#e82c4a"/>
        <path id="XMLID_1005_" d="M30.8,396.073c.248-.083.468-.193.716-.275.138-.083.22-.028.22.11a.9.9,0,0,0,.028.468c.083.275-.275.138-.413.22h0C31.185,396.4,30.91,396.321,30.8,396.073Z" transform="translate(-25.544 -390.642)" fill="#e82f4b"/>
        <path id="XMLID_1004_" d="M24.283,402.065c-.055.055-.138.11-.193.165-.138.11-.275.138-.385.027-.138-.165.165-.138.138-.275.11-.027.248-.055.358-.083A.122.122,0,0,1,24.283,402.065Z" transform="translate(-20.375 -395.092)" fill="#e82e4a"/>
        <path id="XMLID_1003_" d="M25.683,401.712a1.339,1.339,0,0,1-.083-.193c.33-.165.33-.165.551.193-.083.028-.193.055-.275.083C25.848,401.629,25.765,401.657,25.683,401.712Z" transform="translate(-21.775 -394.739)" fill="#e83c50"/>
        <path id="XMLID_1002_" d="M30.293,401.229a.25.25,0,0,1-.193-.083.25.25,0,0,0,.193-.083h.083c.11-.028.248-.138.275.083l-.083.083Z" transform="translate(-25.036 -394.448)" fill="#e8334c"/>
        <path id="XMLID_1001_" d="M25.9,399.9h.385c-.33.193-.33.193-.385,0Z" transform="translate(-21.992 -393.643)" fill="#e92c49"/>
        <path id="XMLID_1000_" d="M30.876,399.454l-.083.083c0-.083-.193-.138-.083-.248C30.766,399.261,30.848,399.371,30.876,399.454Z" transform="translate(-25.454 -393.196)" fill="#ea4051"/>
        <path id="XMLID_999_" d="M21,403.075c.22-.083.055-.193,0-.275.11,0,.248,0,.275.165,0,.083,0,.193-.11.22C21.083,403.213,21.028,403.13,21,403.075Z" transform="translate(-18.441 -395.744)" fill="#ea4553"/>
        <path id="XMLID_998_" d="M20.137,403.5l.083.083v.193C20,403.748,20.082,403.61,20.137,403.5Z" transform="translate(-17.771 -396.252)" fill="#e8334c"/>
        <path id="XMLID_997_" d="M27.5,404.4h.083a.452.452,0,0,1,.385.138c-.165.083-.358.027-.468.138V404.4Z" transform="translate(-23.152 -396.904)" fill="#ea4151"/>
        <path id="XMLID_996_" d="M35.253,403.458c-.083.028-.193.055-.275.083-.11-.028-.165-.028-.083-.193s.248-.193.358-.248c.083.083.138.165.083.275Z" transform="translate(-28.483 -395.962)" fill="#e83a4f"/>
        <path id="XMLID_995_" d="M36.383,402.788c-.028-.083-.055-.193-.083-.275.11-.055-.055-.248.11-.22.138,0,.138.138.165.22C36.493,402.6,36.548,402.761,36.383,402.788Z" transform="translate(-29.53 -395.375)" fill="#e92c4a"/>
        <path id="XMLID_994_" d="M29.3,403.5H29.5c-.028.11.138.22.028.3,0,0-.083-.055-.138-.083C29.112,403.693,29.277,403.583,29.3,403.5Z" transform="translate(-24.406 -396.252)" fill="#e93f50"/>
        <path id="XMLID_993_" d="M36.985,400.075c-.055-.44.3-.193.44-.275.055.138-.083.138-.138.193-.083.028-.138.083-.22.083Z" transform="translate(-30.022 -393.57)" fill="#e8364d"/>
        <path id="XMLID_992_" d="M37.3,400.583c.028-.083.11-.083.193-.083.028.028.028.028.028.055a.027.027,0,0,1-.028.028v.083C37.328,400.83,37.328,400.72,37.3,400.583Z" transform="translate(-30.254 -394.077)" fill="#ea4453"/>
        <path id="XMLID_991_" d="M34,401.322c.083-.028.193-.138.275,0C34.193,401.432,34.11,401.432,34,401.322Z" transform="translate(-27.863 -394.624)" fill="#ea4754"/>
        <path id="XMLID_990_" d="M37.9,400.075v-.083l.193-.193h.083C38.175,399.993,38.093,400.075,37.9,400.075Z" transform="translate(-30.689 -393.57)" fill="#e9334c"/>
        <path id="XMLID_989_" d="M34.575,399.1a.265.265,0,0,1-.275-.193c0-.193.083-.275.275-.193.028.083.11.083.193.083.028.028.083.028.083.083A.7.7,0,0,1,34.575,399.1Z" transform="translate(-28.08 -392.762)" fill="#eb5f61"/>
        <path id="XMLID_988_" d="M36.083,399.065,36,398.983c.138-.027.3-.055.44-.083C36.385,399.065,36.248,399.093,36.083,399.065Z" transform="translate(-29.312 -392.918)" fill="#eb565c"/>
        <path id="XMLID_987_" d="M33.416,396.146a.265.265,0,0,0-.275.193c-.138-.11-.33,0-.44-.165.028-.248.3-.027.385-.22-.248-.055-.33-.193-.138-.385.138-.138.055-.165-.083-.193l.275-.275c.165.165.385.248.551.44-.083.193-.055.413-.193.55C33.471,396.091,33.443,396.118,33.416,396.146Z" transform="translate(-26.921 -390.164)" fill="#e9374d"/>
        <path id="XMLID_986_" d="M35.667,396.718c-.028-.193-.028-.413.193-.523a.052.052,0,0,1,.083,0c.083.028.193.083.22-.028.138-.358.165-.027.22.028-.055.3-.468.248-.551.55A.35.35,0,0,0,35.667,396.718Z" transform="translate(-29.062 -390.819)" fill="#ea5059"/>
        <path id="XMLID_985_" d="M37.235,392.633c-.055.248-.22.193-.385.11-.11-.055-.193-.193-.358-.11-.22-.027-.165-.138-.083-.275.055-.138.193-.193.193-.358h.551c.055.11,0,.165-.028.275a.182.182,0,0,0-.028.165C37.125,392.523,37.207,392.551,37.235,392.633Z" transform="translate(-29.556 -387.917)" fill="#e8354d"/>
        <path id="XMLID_984_" d="M34.933,393.3c0,.11-.028.193.083.275a.278.278,0,0,0,.028.083c-.275.193-.275.193-.11.55h-.083c-.193-.138-.523-.083-.551-.44l.083-.083c.138-.138.193-.358.44-.358A.208.208,0,0,1,34.933,393.3Z" transform="translate(-28.08 -388.859)" fill="#e82f4b"/>
        <path id="XMLID_983_" d="M34.053,392.546c-.138.138-.248.3-.44.358,0-.165-.028-.3-.193-.358-.11.083-.165.055-.22-.055a.248.248,0,0,1,.028-.138c.138-.055.275,0,.44-.083C33.861,392.243,34.081,392.243,34.053,392.546Z" transform="translate(-27.283 -388.105)" fill="#e8374e"/>
        <path id="XMLID_982_" d="M32.24,392.674v.083a.407.407,0,0,1-.44.193v-.165A.5.5,0,0,1,32.24,392.674Z" transform="translate(-26.268 -388.398)" fill="#ea5059"/>
        <path id="XMLID_981_" d="M34.7,407.071v-.083c.028-.193.138-.193.275-.165.193.055.165-.083.165-.193.165-.138.248-.028.358.083l-.083.083a3.281,3.281,0,0,0-.22.44c-.083.193-.193.275-.385.193C34.783,407.292,34.838,407.154,34.7,407.071Z" transform="translate(-28.37 -398.474)" fill="#e9324b"/>
        <path id="XMLID_980_" d="M33.995,410.97a1.2,1.2,0,0,0-.165.193c-.11.055-.165.22-.275.275h0c-.055.082-.138.138-.193.22a1.2,1.2,0,0,1-.385.358c-.138.055-.165.193-.22.3h-.165c-.138-.22-.413-.413-.055-.661l.055-.055c-.33-.385.3-.22.248-.44a.372.372,0,0,1,.44-.193h.083a.638.638,0,0,1,.44-.083C33.912,410.833,33.995,410.805,33.995,410.97Z" transform="translate(-26.674 -401.575)" fill="#e82949"/>
        <path id="XMLID_979_" d="M33.647,415.258a.247.247,0,0,1,.193-.358h.055c.138.027.275.027.413.055.165.11.11.3.165.468.055.083.193.138.083.275C34.17,415.7,33.95,415.4,33.647,415.258Z" transform="translate(-27.592 -404.514)" fill="#ea4252"/>
        <path id="XMLID_978_" d="M35.8,413.974c-.33-.055.028-.358-.193-.44a.143.143,0,0,1-.055-.11c.028-.11.055-.248-.055-.33,0-.193.138-.193.275-.193a1.675,1.675,0,0,1,.275.193c-.22.11-.138.275-.083.44.193.193.028.3-.083.44Z" transform="translate(-28.95 -403.064)" fill="#e8364d"/>
        <path id="XMLID_977_" d="M36.44,410.742c-.138.138-.3.083-.44.083C36.11,410.632,36.248,410.577,36.44,410.742Z" transform="translate(-29.312 -401.43)" fill="#ea4654"/>
        <path id="XMLID_976_" d="M31.483,393.193a3.054,3.054,0,0,0,.44-.193c.028.083.11.083.193.083-.055.11-.083.275-.275.275-.138-.11-.193,0-.275.082H31.4v-.193C31.428,393.248,31.455,393.22,31.483,393.193Z" transform="translate(-25.978 -388.642)" fill="#ea4c56"/>
        <path id="XMLID_975_" d="M32.1,394.006c0-.083.028-.193.11-.22s.11.055.165.138C32.265,393.951,32.183,393.978,32.1,394.006Z" transform="translate(-26.486 -389.207)" fill="#ea5059"/>
        <path id="XMLID_974_" d="M38.875,392.633a.265.265,0,0,1-.275-.193c.055-.138.248-.055.275-.193a.263.263,0,0,1,0-.248h.275c0,.385.33.33.578.413C39.426,392.5,39.151,392.551,38.875,392.633Z" transform="translate(-31.197 -387.917)" fill="#e8314b"/>
        <path id="XMLID_973_" d="M30.4,389.593a4.369,4.369,0,0,0,.551-.193C30.7,389.84,30.648,389.868,30.4,389.593Z" transform="translate(-25.254 -386.033)" fill="#e92949"/>
        <path id="XMLID_972_" d="M39.093,392c.028.083.055.193.083.275a.25.25,0,0,1-.275,0c.028-.083.055-.193.083-.275Z" transform="translate(-31.414 -387.917)" fill="#e93c4f"/>
        <path id="XMLID_971_" d="M36.6,412.175c.055-.11.083-.275.275-.275C36.82,412.038,36.793,412.175,36.6,412.175Z" transform="translate(-29.747 -402.34)" fill="#e8364d"/>
        <path id="XMLID_970_" d="M31.375,400.852c-.055-.11-.165-.083-.275-.083.11-.11.248-.275.385-.055C31.568,400.8,31.458,400.824,31.375,400.852Z" transform="translate(-25.761 -394.154)" fill="#e9364d"/>
        <path id="XMLID_969_" d="M38.49,393h.275c.055.22.055.248-.083.193-.11-.055-.193,0-.3,0C38.27,393.028,38.38,393.028,38.49,393Z" transform="translate(-31.004 -388.642)" fill="#e92f4b"/>
        <path id="XMLID_968_" d="M34.758,413.6c.33.055.275.193.083.358a.372.372,0,0,1-.44,0h0A2.2,2.2,0,0,1,34.758,413.6Z" transform="translate(-28.153 -403.572)" fill="#e93e50"/>
        <path id="XMLID_967_" d="M34.4,414.9h.44v.083A.307.307,0,0,1,34.4,414.9Z" transform="translate(-28.153 -404.514)" fill="#ea4a55"/>
      </g>
    </g>
    <g id="XMLID_4_" transform="translate(-85.5 330.9)">
      <path id="XMLID_37_" d="M-85.5,359.881a44.977,44.977,0,0,1,9-.881q10.9,0,10.9,10.157c0,7.487-3.386,11.2-10.129,11.2a10.135,10.135,0,0,1-4.349-1.018v8.753h-5.395V359.881Zm5.395,14.919a8.806,8.806,0,0,0,4.349,1.1c3.22,0,4.817-2.257,4.817-6.771,0-3.854-1.789-5.753-5.34-5.753a21.19,21.19,0,0,0-3.826.275Z" transform="translate(85.5 -351.265)" fill="#fff"/>
      <path id="XMLID_49_" d="M87.295,330.9v29.094H81.9V330.9Z" transform="translate(-35.823 -330.9)" fill="#fff"/>
      <path id="XMLID_71_" d="M121.595,330.9v4.266H116.2V330.9Zm0,7.735v21.36H116.2v-21.36Z" transform="translate(-60.681 -330.9)" fill="#fff"/>
      <path id="XMLID_106_" d="M149.4,346.4h3.991l.826,3.468h5.367v4.266h-4.789v9.827c0,1.982.853,3,2.587,3h2.2v4.266h-4.789c-3.578,0-5.367-1.927-5.367-5.753V346.4Z" transform="translate(-84.743 -342.134)" fill="#fff"/>
      <path id="XMLID_120_" d="M201.295,330.9v4.266H195.9V330.9Zm0,7.735v21.36H195.9v-21.36Z" transform="translate(-118.444 -330.9)" fill="#fff"/>
      <path id="XMLID_128_" d="M246.666,388.022h-5.395v-8.753a11.474,11.474,0,0,1-4.955,1.018c-6.5,0-9.716-3.606-9.716-10.817q0-10.57,11.093-10.57a51.73,51.73,0,0,1,9,.881v28.241Zm-5.395-24.25a14.451,14.451,0,0,0-3.551-.5c-3.854,0-5.808,2.064-5.808,6.166q0,6.358,5.037,6.358a8.172,8.172,0,0,0,4.349-1.1V363.772Z" transform="translate(-140.693 -351.193)" fill="#fff"/>
    </g>
    <g id="XMLID_46_" transform="translate(-26.844 363.407)">
      <g id="Group_1" data-name="Group 1">
        <path id="Path_1" data-name="Path 1" d="M127.6,449" transform="translate(-127.6 -449)" fill="none" stroke="#000" stroke-width="1"/>
      </g>
    </g>
  </g>
</svg>
