<?xml version="1.0" encoding="utf-8"?>
<!-- Generator: Adobe Illustrator 19.0.0, SVG Export Plug-In . SVG Version: 6.00 Build 0)  -->
<svg version="1.1" id="Layer_2" xmlns="http://www.w3.org/2000/svg" xmlns:xlink="http://www.w3.org/1999/xlink" x="0px" y="0px"
	 viewBox="0 0 8000.3 3771.3" style="enable-background:new 0 0 8000.3 3771.3;" xml:space="preserve">
<style type="text/css">
	.st0{opacity:0.4;fill:#55ADB7;}
</style>
<path class="st0" d="M8000.3,2707.6v1063.7H0V2617.1h11.2v590.6h25.5v-584.2h38.4l52.1-125.4h36.1l0.6-58.7l78.9,0.4v58.4h28
	l52.7,127l40.7,0.5v613.9h20.8v-60.3H404V2021.8h54.3v-52.3l78.3-90.7v-77.7h57.5v-101.6l36.1,0.3l0.1-167h25.8l-0.1,167l35.5-0.1
	l-0.5,101.4h56.4v75.4l94.2,108.9v38h44.7v331.8h129.4v200h51.1v271.5h111.8v-596.9h35.1v-241.3h54.3v-808.3l44.7,0.8v-24.3h68
	l0.5-143.9l20.5,0.5l-0.3,143.4h112.5v-54h36.7v54h92.6v29.6l46.3,0.8v707.8l37.9,42.9h97.8v-421.7l137.3-159.3h76.7v-46h99v46h51.1
	v123.8h54.3v460.4h67.1v-195.3h153.3v239.7h38.3v-831.9h25.5V1120h95.8v-82.6h92.6v82.6h95.8v33.3h28.7v962.1h71.9V494.5h46.3V383.4
	h52.7v-88.9h75.6l31.4-196.9l31.4,196.9h75.6v88.9h44.7v111.1h55.9V2587h57.5V1266.1h28.7v-47.6h38.3v47.6h38.3v-12.7h30.3v12.7
	h33.5v-12.7h43.1v12.7h46.3v-34.9h31.9v34.9h14.4v-12.7h30.3v12.7h40.1l1.4,1219.7v99.8l9.4-0.2l51.2-1V1142.2h134.2v-81.1l62.3-0.3
	v81.4h44.7v-12.7h46.3v12.7h44.7v-12.7h22.4v12.7h28.8v1358l45.1,0.5l84,160.4l11.5,21.7V1440.7h23.9v-50.8h24v23.8h16v27h135.7
	v-15.9h39.9v15.9h31.9v-119.1l16-0.3v119.3h119.8v-23.8h17.6v23.8h12.8v1282.8h180.5V847.1l204.6-54.4l6.3-217.8
	c-20.5-11.4-34.5-33-34.5-58c0-26.8,16-49.8,39-60.4l16.8-435.9l0.8-20.7h24.9l0.4,20.8l14.5,436.5c22.3,10.9,37.8,33.4,37.8,59.7
	c0,24.8-13.7,46.1-33.9,57.6l8.5,219.8l187.3,48.1V2679h138.9V1584.3l126,0l0.5-118.2l42.6,0.2l0.3-86.7l76.5-0.4v87.5l30.4,0.1
	v117.6l247.4-0.2l0.1,71h70.2v296.9h22.7l125.8,130.2v422.3h94.2v-33.9l66.8,20.5l47.1,13.4h127.2v-114.3h57.5v-87.3h71.9v87.3h24
	V2733h63.9v150.8h63l0.6-301.6h69v-81h134.1v128.6h40.8l-0.5,263.4l117.8,1v-45.3h12.8v-44.4h57.2l-0.5-54.4l24.8-0.1v-34.4h44.7
	v34.5l35.3,0.1l-0.1,54.3h60.7v44.4h87.8v52.4h60.7v-66.7h36.7v-49.2h76.6v84.1h62.3v-161.9H8000.3z"/>
</svg>
