<?xml version="1.0" encoding="utf-8"?>
<!-- Generator: Adobe Illustrator 19.0.0, SVG Export Plug-In . SVG Version: 6.00 Build 0)  -->
<svg version="1.1" id="Layer_1" xmlns="http://www.w3.org/2000/svg" xmlns:xlink="http://www.w3.org/1999/xlink" x="0px" y="0px"
	 viewBox="0 0 250 250" style="enable-background:new 0 0 250 250;" xml:space="preserve">
<style type="text/css">
	.st0{fill:#FFFFFF;}
</style>
<g id="XMLID_3_">
	<path id="XMLID_95_" class="st0" d="M250.2,130.1c0.1,0.6,0.1,0.4,0.1,0.5C250.2,129.6,250.2,130.2,250.2,130.1z"/>
	<path id="XMLID_94_" class="st0" d="M244.5,121.8l0.2,0.1c0,0-0.3-0.2-0.6-0.4c-0.3-0.2-0.6-0.4-0.6-0.4S244.5,121.8,244.5,121.8z"
		/>
	<path id="XMLID_93_" class="st0" d="M236.2,117c0.4,0.3,1.2,0.6,2.1,1c0.9,0.4,1.8,0.9,2.6,1.3l0.2,0.2l0.7,0.3
		C239.9,118.8,237.5,117.7,236.2,117z"/>
	<path id="XMLID_92_" class="st0" d="M231.6,114.7c0.3,0.2-1.1-0.4,1.1,0.5c-0.1-0.1-0.1-0.1-0.2-0.1
		C232.3,115,232,114.9,231.6,114.7z"/>
	<path id="XMLID_91_" class="st0" d="M232.5,115.1C233.4,115.5,231.9,114.8,232.5,115.1L232.5,115.1z"/>
	<path id="XMLID_90_" class="st0" d="M228.1,113.4l1.3,0.4c-0.2-0.1-1.4-0.6-0.9-0.5C227.1,112.9,227.4,113.1,228.1,113.4z"/>
	<path id="XMLID_89_" class="st0" d="M226.8,113.1l0.7,0.2C227.4,113.3,227.2,113.2,226.8,113.1z"/>
	<path id="XMLID_88_" class="st0" d="M228.9,113.8c0,0-0.3-0.1-0.7-0.2c-0.4-0.1-0.7-0.2-0.7-0.2c0.2,0.1,0.2,0.2,0.6,0.2
		C228,113.6,228.3,113.6,228.9,113.8z"/>
	<path id="XMLID_87_" class="st0" d="M229.7,114.1c0.7,0.3,1.6,0.7,0.3,0.3c1.2,0.4,1.7,0.6,1.6,0.5
		C231.5,114.8,230.9,114.5,229.7,114.1z"/>
	<path id="XMLID_86_" class="st0" d="M235.6,117c0,0,0.2,0.1,0.4,0.2c0.2,0.1,0.4,0.2,0.4,0.2l0.8,0.3
		C236.9,117.6,235.6,116.9,235.6,117z"/>
	<path id="XMLID_85_" class="st0" d="M220.2,110.6c-0.1,0,0.4,0.3,0.5,0.4l1,0.2C221.2,111.1,220.2,110.8,220.2,110.6z"/>
	<path id="XMLID_84_" class="st0" d="M220.7,111.1l-1.4-0.3C220.5,111.1,220.7,111.1,220.7,111.1z"/>
	<path id="XMLID_83_" class="st0" d="M226.5,113.3c0,0,0.6,0.1,1.2,0.3c0.6,0.2,1.2,0.3,1.2,0.3s-0.7-0.2-1.4-0.4
		c-0.7-0.2-1.4-0.4-1.4-0.4L226.5,113.3z"/>
	<path id="XMLID_82_" class="st0" d="M214.8,109.1l0.8,0.1C215.6,109.1,215.2,109.1,214.8,109.1c-0.3,0-0.7-0.1-0.7-0.1L214.8,109.1
		z"/>
	<path id="XMLID_81_" class="st0" d="M211.1,108.1c0.6,0-0.8-0.5-0.1-0.4c-1-0.2-1.9-0.3-2.7-0.3C209.2,107.5,210,107.7,211.1,108.1
		z"/>
	<path id="XMLID_80_" class="st0" d="M207,107.3c0.4,0,0.8,0.1,1.3,0.1C207.9,107.3,207.5,107.3,207,107.3z"/>
	<path id="XMLID_79_" class="st0" d="M216.8,110c-0.1-0.1-0.3-0.2-1.1-0.5l0.5,0.4C216.4,109.9,216.6,110,216.8,110z"/>
	<path id="XMLID_78_" class="st0" d="M216.3,109.9L216.3,109.9c-0.6-0.2-1-0.3-1.2-0.4C215.2,109.6,215.6,109.7,216.3,109.9z"/>
	<path id="XMLID_77_" class="st0" d="M216.9,110.1c-0.1,0-0.1,0-0.1,0C216.9,110.1,216.9,110.1,216.9,110.1z"/>
	<path id="XMLID_76_" class="st0" d="M222.9,112c-0.8-0.2-2.6-0.6-1,0.1C222.5,112.1,221.6,111.8,222.9,112z"/>
	<path id="XMLID_75_" class="st0" d="M217.6,110.5c0,0,0.4,0.1,0.8,0.2c0.4,0.1,0.7,0.2,0.7,0.2c0-0.1-0.3-0.2,0.2-0.1
		c0,0-0.4-0.1-0.8-0.2C218,110.6,217.6,110.5,217.6,110.5z"/>
	<polygon id="XMLID_74_" class="st0" points="216.8,110.4 217.6,110.5 217,110.3 	"/>
	<path id="XMLID_73_" class="st0" d="M209.6,108.1c-0.7,0-1.4-0.2-2.2-0.4c0.9,0.3,1.8,0.5,2.6,0.7
		C210.2,108.4,210.6,108.3,209.6,108.1z"/>
	<path id="XMLID_72_" class="st0" d="M212.9,109c0,0-0.1,0-0.1,0C212.8,109,212.9,109,212.9,109z"/>
	<path id="XMLID_71_" class="st0" d="M199.3,106.2l0.1,0.1c0,0,0,0,0,0L199.3,106.2z"/>
	<path id="XMLID_70_" class="st0" d="M210.2,108.5c0.6,0.2,1.1,0.2,1.4,0.2c-0.5-0.1-1-0.2-1.6-0.3
		C210,108.5,209.9,108.5,210.2,108.5z"/>
	<path id="XMLID_69_" class="st0" d="M204.8,106.9c0.3,0.1,0.7,0.3,1.1,0.4C205.6,107.2,204.9,106.9,204.8,106.9z"/>
	<path id="XMLID_68_" class="st0" d="M212.5,108.8c0,0,0.1,0,0.1,0C212.4,108.8,212.4,108.8,212.5,108.8z"/>
	<path id="XMLID_67_" class="st0" d="M212.5,108.8c-0.3-0.1-0.6-0.1-0.9-0.1c0.4,0.1,0.8,0.1,1.1,0.2
		C212.6,108.9,212.6,108.9,212.5,108.8z"/>
	<path id="XMLID_66_" class="st0" d="M196.6,107.9c0.2-0.3,1.9-0.3,3.4,0.2c1.5,0,0.7-1.1-0.5-1.9c-0.1,0.1-0.1,0.2-1.6,0.2
		c0.5,0.2,3.3,0.9,2,1c-2-0.2-1.6-0.4-2.6-0.7c0.8,0.5-2.6,0.2-2.3,0.8l1.8,0C196.7,107.7,196.1,107.8,196.6,107.9z"/>
	<path id="XMLID_65_" class="st0" d="M202.3,106.8l0.6,0.1c-0.7-0.2-1.2-0.4-2.1-0.8c-1.1-0.1-1.3,0-1.4,0.1l3.1,0.6L202.3,106.8z"
		/>
	<path id="XMLID_64_" class="st0" d="M205.8,107.5c-0.5,0.2-2.1,0-1.2,0.5c1.8,0.3,1.3,0,2.4,0.1
		C204.1,107.6,207.9,108.1,205.8,107.5c0.6,0.1,1.1,0.2,1.6,0.3c-0.5-0.1-1-0.3-1.5-0.4c0,0,0,0,0.1,0l0,0l0,0c0.1,0.1,0.2,0.1,0,0
		c0,0,0,0-0.1,0C205.9,107.4,205.8,107.5,205.8,107.5c-0.8-0.2-0.1-0.1,0.2-0.1c0,0,0,0,0,0l0,0c0,0-0.7-0.1-1.5-0.2
		c-0.7-0.1-1.5-0.2-1.5-0.2C203.6,107.1,204.4,107.2,205.8,107.5z"/>
	<path id="XMLID_63_" class="st0" d="M220.3,112C220.2,112,220.2,112,220.3,112C220,111.9,219.9,111.9,220.3,112z"/>
	<path id="XMLID_62_" class="st0" d="M219.1,111.6c0.2,0,0.4,0,1.1,0.2c0.6,0.2,0,0.1,0,0.1c0.4,0.1,1.5,0.3,0.2-0.2l-0.2,0
		c-1.2-0.4-2.6-1-2.4-1C218.1,111,218.4,111.2,219.1,111.6z"/>
	<path id="XMLID_61_" class="st0" d="M212.4,109.6c0,0-0.6-0.1-1.2-0.2c-0.6-0.1-1.2-0.2-1.2-0.2l1.2,0.5l0-0.1
		C212.4,109.8,212.2,109.6,212.4,109.6z"/>
	<polygon id="XMLID_60_" class="st0" points="199,106 199.4,105.7 197.9,105.9 	"/>
	<polygon id="XMLID_59_" class="st0" points="195.8,105.4 196,105.2 195.1,105.2 	"/>
	<path id="XMLID_58_" class="st0" d="M84.4,148.2l0.7,0.1C84.8,148.3,84.6,148.2,84.4,148.2z"/>
	<path id="XMLID_57_" class="st0" d="M79.3,146.7l-0.1,0C79.4,146.7,79.5,146.8,79.3,146.7z"/>
	<path id="XMLID_56_" class="st0" d="M115.6,104.3c-1.1-0.3-2.4-0.7-2.2-0.2l0.4,0.4C114.5,104.3,115.1,104.2,115.6,104.3z"/>
	<path id="XMLID_55_" class="st0" d="M63.4,120.6c0.1,0,0.2-0.1,0.3-0.1c0.2-0.2,0.3-0.4,0.5-0.6C63.9,120.1,63.7,120.4,63.4,120.6z
		"/>
	<path id="XMLID_54_" class="st0" d="M63.4,122l-1.2,0.6C62.5,122.5,62.9,122.3,63.4,122z"/>
	<path id="XMLID_53_" class="st0" d="M112.9,153l0.9-0.1C112.5,152.8,113,152.9,112.9,153z"/>
	<path id="XMLID_52_" class="st0" d="M162.4,102.5c-0.9-0.2-1.7-0.3-2.3-0.3C161.2,102.4,162.1,102.9,162.4,102.5z"/>
	<path id="XMLID_51_" class="st0" d="M82,149c0.4,0.1,0.6,0.1,0.6,0.1C82.2,149,81.9,148.9,82,149z"/>
	<path id="XMLID_50_" class="st0" d="M157.4,102.1c0.2,0,0.3,0.1,0.5,0.1c0.7-0.1,1.4-0.1,2.2-0.1
		C159.3,101.9,158.3,101.8,157.4,102.1z"/>
	<path id="XMLID_49_" class="st0" d="M217.4,148.8c0.1,0,0.2,0,0.2,0C217.6,148.7,217.5,148.7,217.4,148.8z"/>
	<path id="XMLID_48_" class="st0" d="M245.9,138.3c-0.2,0.2-0.6,0.5-1,0.8C245.1,139,245.4,138.8,245.9,138.3z"/>
	<path id="XMLID_47_" class="st0" d="M182.8,103.5C183.5,103.6,182.9,103.5,182.8,103.5L182.8,103.5z"/>
	<path id="XMLID_46_" class="st0" d="M186,105.5c-0.2,0-0.3,0.1-0.3,0.2C185.7,105.5,185.8,105.5,186,105.5z"/>
	<path id="XMLID_45_" class="st0" d="M150.5,104.9C150.5,104.9,150.5,104.9,150.5,104.9C150.7,105,150.6,105,150.5,104.9z"/>
	<path id="XMLID_44_" class="st0" d="M183.8,103.8c-0.3-0.1-0.5-0.2-0.9-0.2C183.1,103.6,183.3,103.7,183.8,103.8z"/>
	<path id="XMLID_43_" class="st0" d="M183.7,103.6c0.2,0,0.4,0.1,0.6,0.1C184.4,103.7,184.3,103.6,183.7,103.6z"/>
	<path id="XMLID_42_" class="st0" d="M181.8,103.4c0.4,0,0.8,0.1,1.1,0.2c-0.1,0-0.2-0.1-0.2-0.1
		C182.6,103.5,182.3,103.5,181.8,103.4z"/>
	<path id="XMLID_41_" class="st0" d="M161.6,155.1c0,0,0.1,0,0.1,0C162.4,155,162.1,155,161.6,155.1z"/>
	<path id="XMLID_40_" class="st0" d="M98.5,111.2C98.5,111.2,98.5,111.1,98.5,111.2C98.5,111.1,98.5,111.1,98.5,111.2L98.5,111.2z"
		/>
	<path id="XMLID_39_" class="st0" d="M96.1,111.9c0.9-0.7,1.5-0.7,2.3-0.8l-1-1L96.1,111.9z"/>
	<path id="XMLID_32_" class="st0" d="M96.8,150.9l-1.7-0.4c2.1,0.2,3.6,0.5,2,0.1c-0.3,0.4-6.6-1.2-6.9-0.9l-1.1-0.3
		c0.3,0.1,0.4,0.1,0.7,0.1c-2.1-0.7-1.7-0.1-4.4-0.8c-1-0.3-1.6-0.5-0.9-0.4l-2.2-0.5c-0.6-0.2-0.4-0.2,0.2,0c0,0-0.8-0.2-1.6-0.5
		c-0.8-0.2-1.6-0.5-1.6-0.5l0,0c-0.5-0.1-1.6-0.3-2.1-0.4c-0.8-0.3,0.4,0.1,0.2,0l-1.8-0.5c-0.7-0.4,0.8,0,2,0.5
		c-1.5-1-1.5-0.4-4.9-2l1.7,0.6c-1-0.6-2.3-1.1-4-2.1c0.4,0.3,3.5,2,1.6,1.3c-0.5-0.3-1.2-0.6-2.2-0.9c0.1-0.2-0.9-0.6-2.1-1.2
		l0.2-0.2c-1.3-0.6-1.2-0.5-2-0.7c-1.3-0.8-1.5-1.2-1.7-1.5c-2-1.5,1.2,1.3-1.2-0.4c-0.4-0.3-0.8-0.6-1.1-0.9
		c-0.4-0.3-0.7-0.6-1.1-0.9c-0.3-0.3-0.7-0.6-1.1-0.9c-0.3-0.4-0.7-0.7-1.1-1.2c-0.7-1.2,0.3,0.1,0.1-0.4c0,0-0.2-0.2-0.4-0.4
		c-0.2-0.2-0.4-0.5-0.4-0.5c-0.1-0.3,0-0.2,0.1-0.2c-0.2-0.4-0.3-0.4-0.4-0.5c-0.1-0.1-0.3-0.2-0.5-0.9c-0.3-0.2-0.3-1-0.1-2
		c0.1-0.2,0.1-0.5,0.2-0.7c0.1-0.2,0.2-0.5,0.3-0.7c0.1-0.5,0.4-1,0.5-1.5c0.3-0.4,0.1,0.3,0.3,0.3c0.3-0.6,0.5-1,0.7-1.3
		c0.2-0.3,0.4-0.5,0.5-0.8c0.3-0.5,0.6-0.8,1.3-1.8c0,0,0.1-0.1,0.3-0.2c0.2-0.1,0.4-0.2,0.6-0.4c0.4-0.3,0.9-0.5,0.9-0.5
		c-0.7,0.3-0.7,0.1-0.4-0.3c0.3-0.4,1-1.1,1.6-1.7c-0.5,0.2-1,0.3-1.3,0.4c0,0,0.5-0.4,1.1-0.9c0.6-0.4,1.1-0.8,1.1-0.8
		c0.3-0.1,0.2,0.2-0.1,0.6c0.1-0.1,0.3-0.3,0.4-0.4c0.9-0.4,0.6,0.1,0.1,0.7c-0.3,0.1-0.7,0.2-1,0.3c-0.5,0.6-0.8,1.2-0.5,1.3
		c0.1-0.1,0.4-0.4,0.7-0.6c-0.1,0.1-0.2,0.3-0.1,0.3c0.1,0,0.3-0.2,0.6-0.5l0.8,0.1l0-0.2c0,0,0.8-0.4,1.6-0.7
		c0.4-0.2,0.8-0.3,1.1-0.4c0.3-0.1,0.5-0.2,0.5-0.2c2.1-1.5,3.8-3.1,7.7-4.7c-0.8,0.7,0,0.7,0.1,1.2c-0.6-0.1-1.3,0.2-2.2,0.6
		c-0.8,0.4-1.7,0.9-2.7,1.3c1-0.4,0.9-0.1,0.7,0.1c0,0,0.8-0.5,1.7-0.9c0.8-0.4,1.7-0.9,1.7-0.9c0.1,0.4,0.9,0,1.8-0.1
		c-0.5-0.3,0.1-0.6,1.1-1c0.9-0.3,2.1-0.7,2.8-1c0.2,0.2-0.1,0.6-1.9,1.1c2.2,0,2.3-1.7,4.4-1.7c-0.4,0.1-0.7,0.1-0.8,0.3
		c1-0.5,3.6-1,3-0.6l-0.4,0.1c3-0.7,9-2,9.3-2.8c0,0.1-0.2,1-0.4,1.2c0,0,1.2-0.9,2.4-1.8c1.2-0.9,2.4-1.8,2.4-1.8
		c-0.4,0.8,1.7,2.1-0.7,2.9c0.7,0,1.6,0,3.1-0.5c-0.5,0-1.4-0.8-0.7-1c2,0.5,1.3,0.2,3.7,0.5c-0.8,0-0.1-1.2,1.1-1.4
		c-0.2,0.2,0.3,1.1-0.1,1.2l2.7-1.5c-0.7,0.3,0,0.9,0.7,1.2c-0.3-0.2,2.5-0.3,3.3-0.5l-1.3-0.1c3.3-0.2,3-2,6.3-2.2
		c-0.4,0.3-0.8,1.5,0.8,1.5c0.7-0.7,3.1-3.1,6-3.9l0.6,0.3l2.2-0.6c-1.3,1-5.1,3.2-7.1,4.1c1.3,0.2,0.4,0.4,2.2,0.2
		c0.7,0.3-1,0.6-1.5,0.6l4.3-0.1c-0.2-0.7,3.2-0.9,3-1.5l-4.6,1.1c-0.3-0.7,2.5-2.2,5.6-2.3c0.8,0.2-0.5,1.3-0.4,1.5
		c0.4-0.3,2.9-0.6,3.1-0.5l-1.3,0.5c1.7,0.2,2.7-1.1,4.8-0.5c0.7,0,2.1,0.8,2.2,0.4c-1.2-0.8-1.5-3.3-0.8-3.9c0.3,0,3.8,0.6,4.6,1
		c1.2,0.6-1.7,1.6-0.7,2.1c0-0.2,0.7-0.5,0.9-0.5c0.7,0.1-0.3,0.6,1.3,0.5c0.2-0.7,3.3,0,0.7-0.6c1.6-0.2,1.7,0.1,3.5,0
		c-0.6-0.5,1.6-1.6,3.2-1.9c-0.1,0.2,0.3,0.4,0.4,0.5c3.2,0,5,0.4,8,0.4c0.3,0.2,1.7,0.4,1.1,0.7c0.4-0.1,0.8-0.4,1.8-0.4
		c1.8,0.6-2.1,0.1-0.7,0.8c0.1-0.4,2.4-0.5,3.7-0.7c-0.4-0.7-3.1-0.2-4.4,0c0-0.9,2.3-1.8,5.5-2.1c2.5-0.1,1.1,0.6,1.5,0.5
		c4.7,0.4,4.1-1.3,8-0.4c1.5,0.6,0,1.1,0.3,1.5c-2,0.1-3.1-0.5-4.5-0.6l1.7,0.3c-0.7,0.1-2,0.2-2.8,0c1.3,0.5,7.9,0.5,11.5,1.3
		c0.7-0.1,1.8-0.2,1.3-0.4l-1.2,0c-1-0.5,2.2-0.4,0.8-0.7c1.6-0.1,3.3-0.4,5.5,0.1l0.4,0.6c0-0.2-1.4-0.5-2-0.4
		c0.9-0.1,3.2,1.1,4.3,0.5l-1.5-0.5c1.6-0.1,3.5-0.4,5.4,0.1c-0.8-0.6-0.4,0-1.7-0.8c1.1,0.9-4.9-0.7-3.1,0.3
		c-1.3-0.9-2.4-0.6-4.2-1.5c0,0.2,0.6,0.4-1,0.2c-0.1,0-0.3,0.1-0.4,0.1c0,0-0.1,0-0.1,0c0,0,0.1,0,0.1,0c-0.1,0-0.1,0,0,0
		c0.4,0.1,0.7,0.3,0.8,0.4c-0.8,0.3-3.4,0.1-4.3,0.2c-1-0.2,0.4-0.2-0.1-0.4l-1.3,0.2c-0.1-0.4-2.5-1-0.2-1l-2-0.2
		c-1.2-0.3-2.8-0.6-3.9-0.5c-1-0.2-2.5,0.4-1.6,0l-3.2,0.1l0-0.1c-3.2-0.2-6.5,0.5-10.1-0.4c-1.1,0.1-2.2,0.2-3.9,0.1l-0.3-0.4
		c-1.4,0.1-4.1-0.4-4.7,0c-1.5-1.1-6.7-0.1-9.1-0.2l-0.1,0.5c-1.7,0-3.2,0.3-5.3,0.6l0.2,0.5c-1.7,0.5-4.6-0.1-7.4,0.2
		c0.2-0.2,0.9-0.2,1.4-0.1c-3.4-0.8-7,1.3-10.1,0.9c-0.7,0.3-1.3,0.3-1.8,0.2c0.1,0,0.1,0,0.2,0c-0.1,0-0.2,0-0.3,0
		c-0.3,0-0.7-0.1-1.1-0.1c0.3,0.1,0.6,0.1,0.9,0.1c-0.6,0.1-1.5,0.2-2.3,0.4l-0.4-0.4c-0.1,0-0.1,0-0.2,0c-0.9-0.1-0.7,0.3-0.2,0.6
		c-0.4,0.1-0.8,0.3-1.1,0.4c-0.8-0.7-2.2,0.5-3.3-0.1c-0.5,0.5-4.3,0.9-4.6,1.8c0-0.1-0.3-0.1,0.2-0.2c-1,0.1-1.9,0.1-2.8,0.5
		l-0.5-0.5l-1.9,1.1c-1.3-0.1-1.9-0.2-0.7-0.9c-2.9,1.2-2.4,0.7-4.8,1.9l0.1-0.4c-0.9,0.2-2.3,1-2.9,0.8c-2.2-0.2-10.1,2.3-15.3,3.6
		c0.6,0.3,0,0.4-0.8,0.5c-0.8,0.1-1.7,0.4-1.7,0.7c-0.4-0.1-1.1,0.1-0.4-0.4c-2.5,1.2-4,1.3-5.5,2.7c-0.4,0,0.4-0.5,0.1-0.5
		c-0.2,0.1-0.7,0.5-1,0.6c-0.3,0,0.3-0.3,0.7-0.6c-2.5,1.4-2.5,2.1-2.4,2.7c-1.4,0.5-2,0.9-2.6,1.8c-0.5,0.1-1.3,0.5,0.1-0.6
		c-0.2,0.1-0.6,0.4-1.2,0.8c-0.5,0.4-1.1,0.8-1.7,1.3c-0.5,0.5-1,1-1.4,1.4c-0.3,0.4-0.5,0.7-0.4,0.8c-0.1,0.1-0.4,0.4-0.6,0.6
		c-0.2,0.3-0.4,0.6-0.4,0.7c-0.2,0.2-0.3,0.5-0.4,0.7c-0.1,0.2-0.2,0.4-0.3,0.6c-0.2,0.4-0.3,0.6-0.4,0.9c-0.2,0.6-0.4,1.2-0.4,2.4
		l0.1-0.6c0.2,0.5,0.1,0.9,0.2,1.5c0,0.3,0,0.6,0.1,1c0.1,0.4,0.2,0.7,0.3,1.2l-0.1,0c0.7,2,1.1,2.3,1.4,2.6
		c0.1,0.2,0.3,0.3,0.5,0.7c0.3,0.3,0.6,0.8,1.3,1.5l0-0.3c0.3-0.1,0.9,0.6,1.7,1.4c0.8,0.8,1.9,1.6,2.9,2.2c0,0-0.2-0.1-0.3-0.3
		c-0.2-0.1-0.3-0.3-0.3-0.3c0.6,0.3,1.2,0.8,1.9,1.4c0.7,0.6,1.4,1.1,2,1.4c0.2,0.2-0.4-0.1-0.8-0.3c2.9,1.6,0.5,0,2.7,1
		c0.4,0.3-0.7,0.1,0.8,0.7c0.7,0.4,4.6,1.4,6.7,2.3c-0.4-0.2-0.9-0.5,0.2-0.2c1.6,0.5,4.4,1.7,6,1.8c0.2,0.1,0.3,0.1,0.3,0.1
		c1.3,0.3,4.2,1,5,1c1.1,0.8,8.1,1.5,8,1.9l4,0.7l-0.1,0c2.6,0.5,3.5,0.5,4.4,0.5c0.6,0.1,0.1,0.1,0.1,0.1c3.7,0.7,4.1,0.7,7.3,0.9
		l0.3,0.2c0.9,0,5.4,1.1,9.1,1.2c0,0-0.1,0.1-0.4,0.1c2.1,0.1,4.6,0.5,6.7,0.9c2.2,0.3,4,0.5,4.8,0c0,0,0.7,0,1.4,0
		c0.7,0,1.4-0.1,1.4-0.1c-3.6-0.3,0.6-0.5-0.9-0.7c1.4,0,3.6,0.5,1.9,0.5l-0.3-0.1c-0.7,0.6,4.4,0.5,4.3,0.9
		c7,0.3,13.9,0.9,20.5,0.9l-0.8-0.6l2.3,0c0.6,0.1,0.8,0.5-0.8,0.5c0.9,0.4,2.8-0.3,2.8-0.5c3.2,0.2-1.2,0.8-0.2,0.8l1.3-0.1
		l-0.3-0.1c1.1-0.3,1.2-0.6,3.1-0.6c1.3,0.1,0.7,0.4,1.2,0.4c0,0,0.2,0.1,0.8,0l2.9-0.1l-1.2-0.5c1.3-0.3,2.7-0.1,1.4-0.6
		c2,0.8,10.8-0.4,12-0.3c1.8-0.5,3.5-0.7,5.7-0.9c-0.6,0-0.9-0.5,1-0.7c-0.6,1.2,3.5,0,5.1,0.5c-1.4-0.3,5.3-1,3.1-1.3
		c1.6-0.2,0.1,0.3,1.4,0.4c3.7-1,8.2-1.3,12.8-2.6c0.1-0.1-0.7-0.1,0.2-0.4c0,0,0.6,0,1.2-0.1c0.6-0.1,1.2-0.1,1.2-0.1
		c0.9-0.3,0.7-0.6,2.4-0.8c-0.2,0-0.6,0,0-0.2c4.5-1,8.9-2.5,13.3-4.2c4.4-1.7,8.7-3.7,12.5-6.4c-1,0.7-0.3,0.2,0.4-0.4
		c-0.5,0.4,0-0.1-0.1,0c0,0,0.2-0.1,0.5-0.4c0.3-0.2,0.7-0.5,1-0.9c0.7-0.6,1.4-1.4,1.4-1.4c0.1-0.2,0.3-0.4,0.6-0.8
		c0.2-0.4,0.5-0.8,0.8-1.2c0.2-0.5,0.4-0.9,0.6-1.3c0.1-0.4,0.2-0.7,0.2-0.8c0,0-0.1,0.3-0.2,0.6c-0.1,0.3-0.2,0.6-0.2,0.6
		c0.3-0.8,0-0.2-0.3,0.4c-0.1,0.2-0.2,0.3-0.3,0.5c-0.1,0.1-0.2,0.3-0.3,0.4c-0.2,0.2-0.3,0.4-0.3,0.3c-0.2,0.4-0.6,0.8-1,1.2
		c-0.4,0.5-0.9,0.8-1.4,1.3c-1,0.9-2.2,1.7-3.5,2.6c-0.6,0.3,0.4-0.3,0.1-0.2c-0.3,0.2-0.7,0.5-1.1,0.7c-0.5,0.3-1,0.6-1.8,1
		l0.2-0.1c-1.1,0.5-2,1-2.8,1.4c-0.9,0.4-1.7,0.7-2.5,1c-0.8,0.3-1.7,0.6-2.6,0.9c-1,0.3-2,0.7-3.3,1l0.4,0
		c-1.1,0.3-1.3,0.4-1.9,0.5c-1.2,0.6,3.1-0.9,2-0.4c-1.5,0.3-7.8,2.2-8.9,2c-1.7,0.4,0.6,0.1-1.2,0.5l-0.5,0l-0.4,0.3
		c-1.1,0.2-1.8,0.2-1.8,0.1c0.3,0,0.8-0.2,1.1-0.2c-1.5,0.1-4.1,0.8-4.7,0.9l1.7-0.2c-4.7,1-10.6,1.6-15.1,2.5l0.4,0.1
		c-3.5,0.7-2.8,0.2-6.7,0.7l0.1-0.1c-0.8,0.3-1.8,0.5-2.8,0.5c1-0.3-1.9-0.2-0.6-0.6c-3.8,0.7-1.9,0.5-4.3,1.4l-0.6-0.3
		c-0.8,0.4-0.9,0.5-2.8,0.8c1.6-0.4-1.3-0.4,0.5-0.9c-4.1-0.4-6,1.2-7.9,0.2c-1.8,1,3.6,0.3,2.5,0.6c0.9,0.2-1.5,0.8-2.8,0.8
		c-1.3,0.1-2.3-1.1-5.6-0.9c0.3,0,0.3-0.1,0.7-0.1c-1.2-0.2-2.4,0.4-3.9,0.1c-0.8,0.6-2,0-2.2,0.8l3-0.3c-1.7,0.2-3.3,1.1-6.1,0.8
		c0.2-0.1,1.1-0.4,1.6-0.5c-0.8-0.2-1.6,0.2-2.4,0c0.2-0.7,3.7-0.2,5.5-0.9c-0.9-0.3-3.4,0.6-2.5-0.2c-1.3,1-3.2,0-5.4,0.8l0.1-0.4
		c-0.4,0.1-1.1,0.3-1.7,0.3l1.2-0.6c-1.8,0.5-3.5-0.3-5.2,0c3.6-0.1,0.8,0.5,2.3,0.7c-4.5,0.6-2.6-1-7.6-0.7
		c0.7-0.1,2.5,0.2,1.5,0.4c-0.9-0.1-2.2-0.2-2.8-0.4c-3.3,0.1,0.5,0.4-0.9,0.6c-1.1-0.4-1.6,0.2-3.1,0.3l0-0.3
		c-3.8-0.3-1,0.7-4.4,0.4l1.5-0.4l-1.8,0.1l0.4-0.4c-1.9,0.2-2.5,0.2-4.4,0c0.4,0.2-0.3,0.5-2,0.5c-1.1-0.2,0.7-0.2-1.7-0.3
		c0.5-0.1,1.1-0.3,2.2-0.1c0.1-0.1,0.5-0.2,0.7-0.3c-1.2-0.2-3.1-0.1-3.9-0.2c0.3,0,0.7,0.1,0.9,0.1l-3.5,0.2
		c-0.5-0.1-0.1-0.2,0.3-0.2c-0.7,0-1.2,0.1-2.2,0c0.3-0.2,0.2-0.4,1.7-0.4l-3.3,0c-0.2-0.1-1.7-0.3-1.2-0.4c-1.8-0.2-4.5,0-6.9-0.3
		c-0.1,0-0.4,0-0.9,0c-2.2-0.3-4.2-0.7-6.9-0.8l-1.5-0.4c-2.1-0.2,2,0.6-1.5,0.2c-2.5-0.3-0.9-0.3-1.7-0.5c-1.2-0.1-3.4-0.2-5.6-0.8
		C95.5,150.7,96.1,150.8,96.8,150.9z M71.9,144.1c0.5,0.2,1.4,0.4,1.7,0.7C73.1,144.7,72.7,144.5,71.9,144.1z M67,119.4
		c-0.3,0.3-0.8,0.5-1.4,0.7C66,119.8,66.5,119.5,67,119.4z M175.2,103.2C175.1,103.2,175.1,103.2,175.2,103.2
		C174,103,174.4,103.1,175.2,103.2z M177.5,103.6c0.2,0,0.2-0.1,0.1-0.2c-0.2,0.1-0.7,0.1-1.3,0
		C176.5,103.5,176.8,103.6,177.5,103.6z M169.1,157.8l-0.5-0.1C169.6,157.5,169.3,157.7,169.1,157.8z"/>
	<path id="XMLID_31_" class="st0" d="M63.4,121.9c-0.1,0-0.2,0-0.3,0C63,122,63.1,122,63.4,121.9z"/>
	<path id="XMLID_30_" class="st0" d="M112.8,153L112.8,153c0.1,0,0.1,0,0.2,0L112.8,153z"/>
	<path id="XMLID_29_" class="st0" d="M141.3,107.2c-0.5-0.1-0.7-0.1-0.9-0.2C140.3,107,140.6,107.1,141.3,107.2z"/>
	<path id="XMLID_28_" class="st0" d="M189.9,104.2l-1.5-0.1c0.7,0.1,1,0.2,1.3,0.3C189.7,104.3,189.5,104.2,189.9,104.2z"/>
	<path id="XMLID_27_" class="st0" d="M202.5,108.5c0.2,0,0.5,0.1,0.7,0.1l0-0.2C202.2,108.3,201.6,108.3,202.5,108.5z"/>
	<path id="XMLID_26_" class="st0" d="M191.2,105.8c0.1,0.4,1,0.4,2.1,0.4c-0.1,0-0.1,0-0.2,0C193.4,105.8,192.3,105.8,191.2,105.8z"
		/>
	<path id="XMLID_21_" class="st0" d="M193.5,106.2c0.3,0,0.7,0.1,1,0.1C194.6,106.2,194,106.3,193.5,106.2z"/>
	<path id="XMLID_20_" class="st0" d="M180.5,103.6c0.5,0.1,0.4-0.5,0.6-0.3C181.7,102.9,177.7,103.6,180.5,103.6z"/>
	<polygon id="XMLID_19_" class="st0" points="191.9,107 191.5,106.5 190.9,106.8 	"/>
	<path id="XMLID_18_" class="st0" d="M183.7,105.8l1.7,0.3c0-0.1,0.2-0.1,0.5-0.1C184.8,105.9,183.6,105.7,183.7,105.8z"/>
	<path id="XMLID_17_" class="st0" d="M185.8,106c0.5,0.1,1,0.1,1.3,0.1C186.9,106,186.2,106,185.8,106z"/>
	<polygon id="XMLID_16_" class="st0" points="189.6,106.9 189.1,106.7 187.9,106.6 	"/>
	<path id="XMLID_15_" class="st0" d="M165.7,104.6l-1.8,0.1c-0.2,0.2,0.3,0.3,1,0.3C165.3,104.8,166,104.8,165.7,104.6z"/>
	<path id="XMLID_14_" class="st0" d="M171.2,106.2c-0.5-0.1-0.5-0.2-0.8-0.4l-0.1,0.6L171.2,106.2z"/>
	<path id="XMLID_13_" class="st0" d="M165.9,106.2c-0.2,0.2-2.7,0.4-0.4,0.5C165.7,106.5,167.5,106.4,165.9,106.2z"/>
	<polygon id="XMLID_12_" class="st0" points="138.4,105.4 138.9,105.4 138.8,104.3 	"/>
	<path id="XMLID_11_" class="st0" d="M114.6,109.7c2.2,0,0.4-0.7,2.4-0.6c0.5-0.3-1.6-0.1-1.1-0.4
		C114.6,109.1,113.9,109.1,114.6,109.7z"/>
	<path id="XMLID_10_" class="st0" d="M115.8,108.7c0.2-0.1,0.4-0.1,0.6-0.2C116.1,108.6,115.9,108.7,115.8,108.7z"/>
	<path id="XMLID_9_" class="st0" d="M249.2,134.4c0,0,0.2-0.3,0.3-0.6c0.1-0.2,0.2-0.3,0.2-0.4c0-0.1,0.1-0.2,0.1-0.2
		s-0.1,0.2-0.2,0.4c-0.1,0.2-0.2,0.4-0.2,0.4L249.2,134.4z"/>
	<path id="XMLID_8_" class="st0" d="M250.1,131.8l0.1-0.3l0-0.9C250.1,131,250.1,131.6,250.1,131.8z"/>
	<path id="XMLID_7_" class="st0" d="M68.7,142l-0.1,0c0.2,0.2,0.4,0.3,1,0.6L68.7,142z"/>
	<polygon id="XMLID_6_" class="st0" points="86.1,148.4 85.8,148.3 86.4,148.7 	"/>
	<path id="XMLID_5_" class="st0" d="M101.6,151.3c-0.6-0.1-1.4-0.2-2-0.3C101,151.2,101.7,151.6,101.6,151.3z"/>
</g>
</svg>
