<?xml version="1.0" encoding="utf-8"?>
<!-- Generator: Adobe Illustrator 19.0.0, SVG Export Plug-In . SVG Version: 6.00 Build 0)  -->
<svg version="1.1" id="Layer_1" xmlns="http://www.w3.org/2000/svg" xmlns:xlink="http://www.w3.org/1999/xlink" x="0px" y="0px"
	 viewBox="0 0 86.8 59.5" style="enable-background:new 0 0 86.8 59.5;" xml:space="preserve">
<style type="text/css">
	.st0{fill:#FFFFFF;}
	.st1{fill:#010101;}
</style>
<g>
	<path class="st0" d="M36,8.8c-0.8-0.6-1.5-1.1-2.1-1.4c0,0,0,0,0-0.1c-0.2-0.1-0.4-0.2-0.6-0.3h-0.1h0V5.4c0.2-0.3,0.4-0.6,0.4-1
		V2.3c0-1.3-1-2.3-2.3-2.3h-0.1h-0.4h-0.1c-1.3,0-2.3,1-2.3,2.3v2.1c0,0.4,0.2,0.7,0.4,1V7h0h-0.1c-0.2,0.1-0.4,0.2-0.6,0.3
		c0,0,0,0.1,0,0.1c-0.6,0.4-1.4,0.9-2.1,1.4c-0.3,0.3-0.5,0.7-0.5,1.1v1.4c0,0.2,0.2,0.4,0.4,0.4c0.2,0,0.4-0.2,0.4-0.4V9.9
		c0-0.2,0.1-0.3,0.2-0.5c1.2-1,2.4-1.6,2.9-1.9c0.2-0.1,0.3-0.3,0.3-0.5V5c0-0.1-0.1-0.3-0.2-0.3c-0.2-0.1-0.2-0.3-0.2-0.4V2.2
		c0-0.8,0.7-1.5,1.5-1.5h0.4c0.8,0,1.5,0.7,1.5,1.5v2.1c0,0.1,0,0.3-0.2,0.4c-0.1,0-0.2,0.2-0.2,0.3v2c0,0.2,0.1,0.4,0.3,0.5
		c0.5,0.3,1.7,0.9,2.9,1.9c0.1,0.2,0.2,0.3,0.2,0.5v1.4c0,0.2,0.2,0.4,0.4,0.4c0.2,0,0.4-0.2,0.4-0.4V9.9C36.5,9.5,36.3,9.1,36,8.8z
		"/>
</g>
<g>
	<path class="st0" d="M64.1,18.8c-0.6-0.4-1.2-0.8-1.7-1.1c0,0,0,0,0-0.1c-0.2-0.1-0.3-0.2-0.5-0.2h0h0v-1.2
		c0.2-0.2,0.3-0.5,0.3-0.8v-1.6c0-1-0.8-1.8-1.8-1.8h0H60h0c-1,0-1.8,0.8-1.8,1.8v1.6c0,0.3,0.2,0.5,0.3,0.8v1.2h0h0
		c-0.2,0.1-0.3,0.2-0.5,0.2c0,0,0,0,0,0.1c-0.5,0.3-1.1,0.7-1.7,1.1c-0.2,0.2-0.4,0.5-0.4,0.9v1.1c0,0.2,0.2,0.3,0.3,0.3
		c0.2,0,0.3-0.2,0.3-0.3v-1.1c0-0.2,0.1-0.2,0.2-0.4c0.9-0.8,1.9-1.2,2.3-1.5c0.2-0.1,0.2-0.2,0.2-0.4v-1.6c0-0.1-0.1-0.2-0.2-0.2
		c-0.2-0.1-0.2-0.2-0.2-0.3v-1.6c0-0.6,0.5-1.2,1.2-1.2h0.3c0.6,0,1.2,0.5,1.2,1.2v1.6c0,0.1,0,0.2-0.2,0.3c-0.1,0-0.2,0.2-0.2,0.2
		v1.6c0,0.2,0.1,0.3,0.2,0.4c0.4,0.2,1.3,0.7,2.3,1.5c0.1,0.2,0.2,0.2,0.2,0.4v1.1c0,0.2,0.2,0.3,0.3,0.3c0.2,0,0.3-0.2,0.3-0.3
		v-1.1C64.5,19.3,64.4,19,64.1,18.8z"/>
</g>
<g>
	<path class="st0" d="M86.3,48.1c-0.8-0.6-1.5-1.1-2.1-1.4c0,0,0,0,0-0.1c-0.2-0.1-0.4-0.2-0.6-0.3h-0.1h0v-1.6
		c0.2-0.3,0.4-0.6,0.4-1v-2.1c0-1.3-1-2.3-2.3-2.3h-0.1h-0.4H81c-1.3,0-2.3,1-2.3,2.3v2.1c0,0.4,0.2,0.7,0.4,1v1.6h0H79
		c-0.2,0.1-0.4,0.2-0.6,0.3c0,0,0,0.1,0,0.1c-0.6,0.4-1.4,0.9-2.1,1.4c-0.3,0.3-0.5,0.7-0.5,1.1v1.4c0,0.2,0.2,0.4,0.4,0.4
		c0.2,0,0.4-0.2,0.4-0.4v-1.4c0-0.2,0.1-0.3,0.2-0.5c1.2-1,2.4-1.6,2.9-1.9c0.2-0.1,0.3-0.3,0.3-0.5v-2c0-0.1-0.1-0.3-0.2-0.3
		c-0.2-0.1-0.2-0.3-0.2-0.4v-2.1c0-0.8,0.7-1.5,1.5-1.5h0.4c0.8,0,1.5,0.7,1.5,1.5v2.1c0,0.1,0,0.3-0.2,0.4c-0.1,0-0.2,0.2-0.2,0.3
		v2c0,0.2,0.1,0.4,0.3,0.5c0.5,0.3,1.7,0.9,2.9,1.9c0.1,0.2,0.2,0.3,0.2,0.5v1.4c0,0.2,0.2,0.4,0.4,0.4c0.2,0,0.4-0.2,0.4-0.4v-1.4
		C86.8,48.8,86.6,48.4,86.3,48.1z"/>
</g>
<g>
	<path class="st0" d="M30.6,57.1c-0.6-0.5-1.2-0.9-1.7-1.1c0,0,0,0,0-0.1c-0.2-0.1-0.3-0.2-0.5-0.2h0h0v-1.3
		c0.2-0.2,0.3-0.5,0.3-0.8v-1.7c0-1-0.8-1.8-1.8-1.8h0h-0.4h0c-1,0-1.8,0.8-1.8,1.8v1.7c0,0.3,0.2,0.6,0.3,0.8v1.3h0h0
		c-0.2,0.1-0.3,0.2-0.5,0.2c0,0,0,0,0,0.1c-0.5,0.3-1.1,0.7-1.7,1.1c-0.2,0.2-0.4,0.6-0.4,0.9v1.1c0,0.2,0.2,0.3,0.3,0.3
		c0.2,0,0.3-0.2,0.3-0.3V58c0-0.2,0.1-0.2,0.2-0.4c1-0.8,1.9-1.3,2.3-1.5c0.2-0.1,0.2-0.2,0.2-0.4v-1.6c0-0.1-0.1-0.2-0.2-0.2
		c-0.2-0.1-0.2-0.2-0.2-0.3v-1.7c0-0.6,0.6-1.2,1.2-1.2h0.4c0.6,0,1.2,0.6,1.2,1.2v1.7c0,0.1,0,0.2-0.2,0.3c-0.1,0-0.2,0.2-0.2,0.2
		v1.6c0,0.2,0.1,0.3,0.2,0.4c0.4,0.2,1.4,0.7,2.3,1.5c0.1,0.2,0.2,0.2,0.2,0.4v1.1c0,0.2,0.2,0.3,0.3,0.3c0.2,0,0.3-0.2,0.3-0.3V58
		C31,57.7,30.9,57.4,30.6,57.1z"/>
</g>
<g id="XMLID_29_">
	<path class="st1" d="M28.9,41.1c-0.1,0-0.1,0-0.2,0h-0.1h-0.2c-0.1,0-0.2,0-0.3,0c-0.1,0-0.1,0-0.2,0s-0.1,0-0.2,0s-0.1,0-0.1,0
		h-0.1h-0.1c-0.9-0.1-1.6-0.2-2.5-0.4v-2.3c0.7,0.9,1.6,1.4,2.6,1.7l0.2,0.1v-5.8h-0.9c0.2-0.2,0.3-0.5,0.4-0.9h0.4v-7h-1.4l-0.2-1
		h1.6v-5.3l-0.2,0.1c-0.2,0.1-0.4,0.1-0.5,0.2c-0.7,0.2-1.4,0.4-2,1.1c0-0.2-0.1-0.3-0.1-0.5l0,0l-0.2-0.3l0,0
		c-0.1-0.2-0.3-0.5-0.6-0.6c1.1-0.4,2.2-0.7,3.3-0.7c0.1,0,0.1,0,0.2,0h0.1h0.1c0.1,0,0.1,0,0.2,0s0.1,0,0.2,0c0.1,0,0.2,0,0.3,0
		h0.2h0.1c0.1,0,0.1,0,0.2,0s0.1,0,0.2,0c3.9,0.4,7.5,2.9,9.1,6.5c0.6,1.4,1,2.9,1,4.4c0,1.3-0.2,2.6-0.6,3.7v0.1
		c-1.5,3.8-5.1,6.6-9.2,7C29.1,41.1,28.9,41.1,28.9,41.1z M28.5,40.2l0.2-0.1c2.1-0.6,3.9-2.7,4.8-5.5l0.1-0.2h-5.1V40.2z
		 M34.5,34.4C34,36.3,33,38,31.7,39.2l0.2,0.3c2.3-1,4.2-2.7,5.2-4.9l0.1-0.2H34.5L34.5,34.4z M34.7,26.6c0.3,1.2,0.4,2.3,0.4,3.6
		c0,1.1-0.1,2-0.3,3.1v0.2h2.9v-0.1c0.3-1.1,0.5-2.1,0.5-3.2c0-1.3-0.2-2.5-0.7-3.6v-0.1h-2.9L34.7,26.6z M28.5,33.5h5.3v-0.1
		c0.2-1.1,0.3-2,0.3-3.1c0-1.3-0.1-2.5-0.4-3.6v-0.1h-5.2V33.5z M31.7,21.2c1.1,1.1,2,2.6,2.6,4.3v0.1h2.7l-0.1-0.2
		c-1.1-2-2.9-3.5-5-4.5L31.7,21.2z M28.5,25.6h4.9l-0.1-0.2c-1-2.7-2.7-4.5-4.7-5l-0.1-0.1V25.6z"/>
</g>
<g id="Megaphone_3_3_">
	<g id="XMLID_27_">
		<g id="XMLID_28_">
			<path class="st0" d="M23.1,27.7v-6.4c0-1-0.7-1.7-1.7-1.7c-1,0-1.7,0.7-1.7,1.7v0.4L2.9,27.3c-0.1-0.1-0.3-0.1-0.6-0.1H1.1
				c-0.6,0-1.1,0.4-1.1,1.1V34c0,0.6,0.6,1.1,1.1,1.1h1.1c0.1,0,0.4,0,0.6-0.1l2.7,0.9l-0.3,0.7c-0.4,1.3,0.3,2.6,1.6,2.9l6,2
				c1.3,0.4,2.6-0.3,2.9-1.6l0.1-0.7l3.7,1.1v0.4c0,1,0.7,1.7,1.7,1.7c1,0,1.7-0.7,1.7-1.7v-6.4c1.3,0,2.3-1,2.3-2.3v-2.3
				C25.4,28.7,24.4,27.7,23.1,27.7z M2.3,34H1.1v-5.7h1.1V34z M14.7,39.5c-0.1,0.6-0.9,1-1.4,0.7l-6.1-1.9c-0.6-0.1-1-0.9-0.7-1.4
				l0.3-0.7L15,39L14.7,39.5z M19.7,39.2L3.4,34l0,0v-5.7l0,0L19.5,23v16.2H19.7z M21.9,41c0,0.3-0.3,0.6-0.6,0.6s-0.6-0.3-0.6-0.6
				V21.3c0-0.3,0.3-0.6,0.6-0.6s0.6,0.3,0.6,0.6V41z M24.2,32.3c0,0.6-0.6,1.1-1.1,1.1v-4.6c0.6,0,1.1,0.6,1.1,1.1V32.3z"/>
		</g>
	</g>
</g>
<g>
	<circle class="st0" cx="53.5" cy="14.7" r="3"/>
</g>
<g>
	<g>
		<rect x="27.3" y="34.4" transform="matrix(0.3457 0.9384 -0.9384 0.3457 50.9556 -3.2907)" class="st0" width="1" height="1"/>
	</g>
	<g>
		<path class="st0" d="M33.1,50.6l-0.7-1.9l0.9-0.3l0.7,1.9L33.1,50.6z M31.7,46.8L31,44.9l0.9-0.3l0.7,1.9L31.7,46.8z M30.3,43
			l-0.7-1.9l0.9-0.3l0.7,1.9L30.3,43z M28.9,39.3l-0.7-1.9l0.9-0.3l0.7,1.9L28.9,39.3z"/>
	</g>
	<g>
		<rect x="33.9" y="52.2" transform="matrix(0.3468 0.9379 -0.9379 0.3468 71.9487 2.1623)" class="st0" width="1" height="1"/>
	</g>
</g>
<g>
	<path class="st0" d="M34.3,26.4l-0.5-0.9l1.7-1l0.5,0.9L34.3,26.4z M39.4,23.4l-0.5-0.9l1.7-1l0.5,0.9L39.4,23.4z M44.6,20.4
		l-0.5-0.9l1.7-1l0.5,0.9L44.6,20.4z M49.8,17.4l-0.5-0.9l1.7-1l0.5,0.9L49.8,17.4z"/>
</g>
<g>
	<path class="st0" d="M27.1,25.6l-0.9-1.8l0.9-0.4l0.9,1.8L27.1,25.6z M24.5,20.2l-0.9-1.8l0.9-0.4l0.9,1.8L24.5,20.2z M21.9,14.8
		L21,13l0.9-0.4l0.9,1.8L21.9,14.8z M19.2,9.4l-0.9-1.8l0.9-0.4L20.1,9L19.2,9.4z"/>
</g>
<g>
	<path class="st0" d="M71,42.6l-1.9-0.5l0.3-1l1.9,0.5L71,42.6z M65.2,41.1l-1.9-0.5l0.3-1l1.9,0.5L65.2,41.1z M59.4,39.6l-1.9-0.5
		l0.3-1l1.9,0.5L59.4,39.6z M53.6,38.1l-1.9-0.5l0.3-1l1.9,0.5L53.6,38.1z M47.8,36.6l-1.9-0.5l0.3-1l1.9,0.5L47.8,36.6z M41.9,35.1
		L40,34.6l0.3-1l1.9,0.5L41.9,35.1z M36.1,33.6l-1.9-0.5l0.3-1l1.9,0.5L36.1,33.6z M30.3,32.1l-1.9-0.5l0.3-1l1.9,0.5L30.3,32.1z"/>
</g>
<g>
	<circle class="st0" cx="72" cy="43.1" r="3.8"/>
</g>
<g>
	<circle class="st0" cx="34.6" cy="53.2" r="2"/>
</g>
<g>
	<circle class="st0" cx="18.8" cy="7.4" r="3.8"/>
</g>
</svg>
