<?xml version="1.0" encoding="utf-8"?>
<!-- Generator: Adobe Illustrator 19.0.0, SVG Export Plug-In . SVG Version: 6.00 Build 0)  -->
<svg version="1.1" id="Isolation_Mode" xmlns="http://www.w3.org/2000/svg" xmlns:xlink="http://www.w3.org/1999/xlink" x="0px"
	 y="0px" viewBox="0 0 442.7 295.6" style="enable-background:new 0 0 442.7 295.6;" xml:space="preserve">
<style type="text/css">
	.st0{fill:#FBF9FA;}
	.st1{fill:#FFFFFF;}
	.st2{fill:#32C5F9;}
</style>
<g>
	<path d="M273.4,53.8v184c0,6.4-5.2,11.5-11.5,11.5H87c-2.7,0-5.2-0.9-7.2-2.5c-2.6-2.1-4.3-5.3-4.3-9v-184
		c0-6.4,5.2-11.5,11.5-11.5h174.9C268.3,42.3,273.4,47.5,273.4,53.8z"/>
</g>
<g>
	<g>
		<path class="st0" d="M386.7,2l-4.2,7.3L378.2,2L374,9.3L369.8,2l-4.2,7.3L361.3,2l-4.2,7.3L352.8,2l-4.2,7.3L344.4,2l-4.2,7.3
			L335.9,2l-4.2,7.3L327.4,2l-4.2,7.3L319,2l-4.2,7.3L310.5,2l-4.2,7.3L302,2l-4.2,7.3L293.6,2l-4.2,7.3L285.1,2l-4.2,7.3L276.6,2
			l-4.2,7.3L268.2,2l-4.2,7.3L259.7,2l-4.2,7.3L251.3,2L247,9.3L242.8,2l-4.2,7.3L234.3,2l-4.2,7.3L225.9,2l-4.2,7.3L217.4,2
			l-4.2,7.3L208.9,2l-4.2,7.3L200.5,2l-4.2,7.3L192,2l-4.2,7.3L183.5,2l-4.2,7.3L175.1,2l-4.2,7.3L166.6,2l-4.2,7.3L158.1,2
			l-4.2,7.3L149.7,2l-4.2,7.3L141.2,2L137,9.3L132.8,2l-4.2,7.3L124.3,2l-4.2,7.3L115.8,2l-4.2,7.3L107.4,2l-4.2,7.3l-3.9-6.7v227.3
			c0,9.1-6.3,16.8-14.8,18.9c1.7,0.4,3.5,0.6,5.3,0.6h272.4c13.8,0,25-11.2,25-25v-74.9v-22.1V16.7v-3V2.8L386.7,2z"/>
	</g>
	<g>
		<path d="M362.2,250H89.8c-1.8,0-3.6-0.2-5.4-0.6l-3-0.6l3-0.7c8.4-2.1,14.2-9.5,14.2-18.2V0l4.6,7.9l4.2-7.3l4.2,7.3l4.2-7.3
			l4.2,7.3l4.2-7.3l4.2,7.3l4.2-7.3l4.2,7.3l4.2-7.3l4.2,7.3l4.2-7.3l4.2,7.3l4.2-7.3l4.2,7.3l4.2-7.3l4.2,7.3l4.2-7.3l4.2,7.3
			l4.2-7.3l4.2,7.3l4.2-7.3l4.2,7.3l4.2-7.3l4.2,7.3l4.2-7.3l4.2,7.3l4.2-7.3l4.2,7.3l4.2-7.3l4.2,7.3l4.2-7.3l4.2,7.3l4.2-7.3
			l4.2,7.3l4.2-7.3l4.2,7.3l4.2-7.3l4.2,7.3l4.2-7.3l4.2,7.3l4.2-7.3l4.2,7.3l4.2-7.3l4.2,7.3l4.2-7.3l4.2,7.3l4.2-7.3l4.2,7.3
			l4.2-7.3l4.2,7.3l4.2-7.3l4.2,7.3l4.2-7.3l4.2,7.3l4.2-7.3l4.2,7.3l4.2-7.3l4.2,7.3l4.2-7.3l4.2,7.3l4.2-7.3l4.2,7.3l4.2-7.3
			l4.2,7.3l4.2-7.3l4.2,7.3l4.2-7.3l1.2,2v221.8C387.8,238.5,376.3,250,362.2,250z M87.5,248.5c0.8,0.1,1.5,0.1,2.3,0.1h272.4
			c13.4,0,24.2-10.9,24.2-24.2V3.9l-4,6.9l-4.2-7.3l-4.2,7.3l-4.2-7.3l-4.2,7.3l-4.2-7.3l-4.2,7.3l-4.2-7.3l-4.2,7.3l-4.2-7.3
			l-4.2,7.3l-4.2-7.3l-4.2,7.3l-4.2-7.3l-4.2,7.3L319,3.4l-4.2,7.3l-4.2-7.3l-4.2,7.3L302,3.4l-4.2,7.3l-4.2-7.3l-4.2,7.3l-4.2-7.3
			l-4.2,7.3l-4.2-7.3l-4.2,7.3l-4.2-7.3l-4.2,7.3l-4.2-7.3l-4.2,7.3l-4.2-7.3l-4.2,7.3l-4.2-7.3l-4.2,7.3l-4.2-7.3l-4.2,7.3
			l-4.2-7.3l-4.2,7.3l-4.2-7.3l-4.2,7.3l-4.2-7.3l-4.2,7.3l-4.2-7.3l-4.2,7.3L192,3.4l-4.2,7.3l-4.2-7.3l-4.2,7.3l-4.2-7.3l-4.2,7.3
			l-4.2-7.3l-4.2,7.3l-4.2-7.3l-4.2,7.3l-4.2-7.3l-4.2,7.3l-4.2-7.3l-4.2,7.3l-4.2-7.3l-4.2,7.3l-4.2-7.3l-4.2,7.3l-4.2-7.3
			l-4.2,7.3l-4.2-7.3l-4.2,7.3L100,5.3v224.6C100,238.2,95,245.4,87.5,248.5z"/>
	</g>
</g>
<g>
	<rect x="127" y="190.9" width="250.7" height="15.8"/>
</g>
<g>
	<rect x="127.4" y="212.5" width="249.7" height="4.7"/>
</g>
<g>
	<rect x="127.4" y="222.9" width="249.7" height="4.7"/>
</g>
<g>
	<rect x="259.4" y="182.8" width="55.8" height="4.7"/>
</g>
<g>
	<rect x="127" y="81.7" width="250" height="8.7"/>
</g>
<g>
	<path d="M250.9,184.8c0,1.5-1.2,2.7-2.7,2.7H129.8c-1.5,0-2.7-1.2-2.7-2.7V98.5c0-1.5,1.2-2.7,2.7-2.7h118.4c1.5,0,2.7,1.2,2.7,2.7
		V184.8z"/>
</g>
<g>
	<rect x="259.4" y="97" width="89.2" height="9.4"/>
</g>
<g>
	<rect x="259.4" y="111.3" width="89.2" height="9.4"/>
</g>
<g>
	<rect x="259.4" y="125.7" width="54.2" height="9.4"/>
</g>
<g>
	<rect x="272.2" y="24.8" width="77.3" height="38.2"/>
</g>
<g>
	<rect x="259.4" y="169" width="54.2" height="9.4"/>
</g>
<g>
	<rect x="259.4" y="140.9" width="89.2" height="9.4"/>
</g>
<g>
	<rect x="259.4" y="155.3" width="89.2" height="9.4"/>
</g>
<g>
	<rect x="127" y="24.8" width="132.4" height="52.3"/>
</g>
<g>
	<g>
		<circle class="st1" cx="399.9" cy="68.7" r="28.8"/>
	</g>
	<g>
		<path class="st2" d="M442.1,55.9c-0.2-1.5-1.2-2.7-2.6-3.2l-7.3-2.6c-0.4-1.2-0.9-2.4-1.5-3.6l3.3-7c0.6-1.3,0.5-2.9-0.4-4.1
			c-2.8-3.8-6.2-7.2-10-10c-1.2-0.9-2.7-1-4.1-0.4l-7,3.3c-1.2-0.5-2.4-1-3.6-1.5l-2.6-7.3c-0.5-1.4-1.7-2.4-3.2-2.6
			c-5.2-0.8-9-0.8-14.1,0c-1.5,0.2-2.7,1.2-3.2,2.6l-2.6,7.3c-1.2,0.4-2.4,0.9-3.6,1.5l-7-3.3c-1.3-0.6-2.9-0.5-4.1,0.4
			c-3.8,2.8-7.2,6.2-10,10c-0.9,1.2-1,2.8-0.4,4.1l3.3,7c-0.5,1.2-1,2.4-1.5,3.6l-7.3,2.6c-1.4,0.5-2.4,1.7-2.6,3.2
			c-0.4,2.6-0.6,4.9-0.6,7.1c0,2.2,0.2,4.4,0.6,7.1c0.2,1.5,1.2,2.7,2.6,3.2l7.3,2.6c0.4,1.2,0.9,2.4,1.5,3.6l-3.3,7
			c-0.6,1.3-0.5,2.9,0.4,4.1c2.8,3.8,6.2,7.2,10,10c1.2,0.9,2.7,1,4.1,0.4l7-3.3c1.2,0.5,2.4,1,3.6,1.5l2.6,7.3
			c0.5,1.4,1.7,2.4,3.2,2.6c2.6,0.4,4.9,0.6,7.1,0.6s4.5-0.2,7.1-0.6c1.5-0.2,2.7-1.2,3.2-2.6l2.6-7.3c1.2-0.4,2.4-0.9,3.6-1.5
			l7,3.3c1.3,0.6,2.9,0.5,4.1-0.4c3.8-2.8,7.2-6.2,10-10c0.9-1.2,1-2.8,0.4-4.1l-3.3-7c0.5-1.2,1-2.4,1.5-3.6l7.3-2.6
			c1.4-0.5,2.4-1.7,2.6-3.2c0.4-2.6,0.6-4.9,0.6-7.1C442.7,60.8,442.5,58.6,442.1,55.9z M414.6,62.1c0,10.2-8.3,18.5-18.5,18.5
			s-18.5-8.3-18.5-18.5c0-10.2,8.3-18.5,18.5-18.5S414.6,51.9,414.6,62.1z"/>
	</g>
</g>
<g>
	<g>
		<circle class="st1" cx="332.4" cy="129.5" r="18.9"/>
	</g>
	<g>
		<path class="st2" d="M359.9,121.1c-0.1-1-0.8-1.7-1.7-2.1l-4.8-1.7c-0.3-0.8-0.6-1.6-1-2.3l2.2-4.6c0.4-0.9,0.3-1.9-0.3-2.7
			c-1.8-2.5-4-4.7-6.5-6.5c-0.8-0.6-1.8-0.7-2.7-0.3l-4.6,2.2c-0.8-0.4-1.5-0.7-2.3-1l-1.7-4.8c-0.3-0.9-1.1-1.6-2.1-1.7
			c-3.4-0.5-5.9-0.5-9.3,0c-0.9,0.1-1.7,0.8-2.1,1.7l-1.7,4.8c-0.8,0.3-1.6,0.6-2.3,1l-4.6-2.2c-0.9-0.4-1.9-0.3-2.7,0.3
			c-2.5,1.8-4.7,4-6.5,6.5c-0.6,0.8-0.7,1.8-0.3,2.7l2.2,4.6c-0.4,0.8-0.7,1.5-1,2.3l-4.8,1.7c-0.9,0.3-1.6,1.1-1.7,2.1
			c-0.3,1.7-0.4,3.2-0.4,4.6c0,1.4,0.1,2.9,0.4,4.6c0.1,1,0.8,1.7,1.7,2.1l4.8,1.7c0.3,0.8,0.6,1.6,1,2.3l-2.2,4.6
			c-0.4,0.9-0.3,1.9,0.3,2.7c1.8,2.5,4,4.7,6.5,6.5c0.8,0.6,1.8,0.7,2.7,0.3l4.6-2.2c0.8,0.4,1.5,0.7,2.3,1l1.7,4.8
			c0.3,0.9,1.1,1.6,2.1,1.7c1.7,0.3,3.2,0.4,4.6,0.4c1.4,0,2.9-0.1,4.6-0.4c0.9-0.1,1.7-0.8,2.1-1.7l1.7-4.8c0.8-0.3,1.6-0.6,2.3-1
			l4.6,2.2c0.9,0.4,1.9,0.3,2.7-0.3c2.5-1.8,4.7-4,6.5-6.5c0.6-0.8,0.7-1.8,0.3-2.7l-2.2-4.6c0.4-0.8,0.7-1.5,1-2.3l4.8-1.7
			c0.9-0.3,1.6-1.1,1.7-2.1c0.3-1.7,0.4-3.2,0.4-4.6C360.3,124.3,360.2,122.8,359.9,121.1z M341.9,125.1c0,6.7-5.4,12.1-12.1,12.1
			c-6.7,0-12.1-5.4-12.1-12.1c0-6.7,5.4-12.1,12.1-12.1C336.5,113,341.9,118.5,341.9,125.1z"/>
	</g>
</g>
<g>
	<g>
		<path class="st0" d="M118.5,236.1c0,2.9-0.2,5.8-0.6,8.6c-4.1,28.5-28.6,50.3-58.3,50.3c-0.9,0-1.7,0-2.5-0.1
			c-31.3-1.3-56.3-27.2-56.3-58.8c0-32.5,26.4-58.9,58.9-58.9C92.1,177.2,118.5,203.5,118.5,236.1z"/>
	</g>
	<g>
		<path d="M59.6,295.6c-0.8,0-1.6,0-2.6-0.1c-15.4-0.7-29.7-7.1-40.4-18.2C5.9,266.2,0,251.5,0,236.1c0-15.9,6.2-30.9,17.5-42.1
			c11.3-11.3,26.2-17.4,42.1-17.4c15.9,0,30.9,6.2,42.1,17.4c11.3,11.3,17.5,26.2,17.5,42.1c0,2.9-0.2,5.8-0.6,8.7
			c-2,14-9.1,26.9-19.8,36.3C87.9,290.4,74,295.6,59.6,295.6z M59.6,177.9c-32.1,0-58.2,26.1-58.2,58.2c0,31.3,24.5,56.8,55.7,58.1
			c0.9,0,1.7,0.1,2.5,0.1c28.7,0,53.4-21.4,57.6-49.7c0.4-2.8,0.6-5.6,0.6-8.5C117.8,204,91.7,177.9,59.6,177.9z"/>
	</g>
</g>
<g>
	<path d="M5.4,240.8h20.4c0,0,0.1,0,0.1-0.1v-8.3c0-0.4-0.4-0.8-0.8-0.8H5.5c-2.6,0-4.6,2.1-4.6,4.6v0
		C0.9,238.7,2.9,240.8,5.4,240.8z"/>
</g>
<g>
	<g>
		<circle class="st0" cx="59.6" cy="236.1" r="35.3"/>
	</g>
	<g>
		<path d="M59.6,272c-19.8,0-36-16.1-36-36s16.1-36,36-36s36,16.1,36,36S79.4,272,59.6,272z M59.6,201.5C40.5,201.5,25,217,25,236.1
			s15.5,34.6,34.6,34.6s34.6-15.5,34.6-34.6S78.6,201.5,59.6,201.5z"/>
	</g>
</g>
<g>
	<path d="M88.7,236.1c0,16.1-13,29.1-29.1,29.1c-9.1,0-17.3-4.2-22.6-10.8c-4.1-5-6.5-11.4-6.5-18.3c0-16.1,13-29.1,29.1-29.1
		c11.3,0,21.1,6.5,25.9,15.9C87.6,226.8,88.7,231.3,88.7,236.1z"/>
</g>
<g>
	<path d="M88.7,236.1c0,16.1-13,29.1-29.1,29.1c-9.1,0-17.3-4.2-22.6-10.8c-2-4-3.2-8.4-3.2-13.2c0-16.1,13-29.1,29.1-29.1
		c9.1,0,17.3,4.2,22.6,10.8C87.6,226.8,88.7,231.3,88.7,236.1z"/>
</g>
</svg>
