<?xml version="1.0" encoding="utf-8"?>
<!-- Generator: Adobe Illustrator 19.0.0, SVG Export Plug-In . SVG Version: 6.00 Build 0)  -->
<svg version="1.1" id="Isolation_Mode" xmlns="http://www.w3.org/2000/svg" xmlns:xlink="http://www.w3.org/1999/xlink" x="0px"
	 y="0px" viewBox="0 0 153.7 141.3" style="enable-background:new 0 0 153.7 141.3;" xml:space="preserve">
<style type="text/css">
	.st0{fill:#2CB4D4;}
	.st1{fill:#FFFFFF;}
	.st2{clip-path:url(#XMLID_15_);}
	.st3{fill:#323232;}
</style>
<g id="XMLID_2_">
	<ellipse id="XMLID_66_" class="st0" cx="15.9" cy="55.5" rx="15.9" ry="14"/>
</g>
<g id="XMLID_5_">
	
		<ellipse id="XMLID_64_" transform="matrix(0.9672 0.2539 -0.2539 0.9672 15.8005 -33.5489)" class="st0" cx="137.9" cy="44.4" rx="15.9" ry="14"/>
</g>
<g id="XMLID_3_">
	<circle id="XMLID_62_" class="st1" cx="73.3" cy="69.7" r="66.9"/>
</g>
<g id="XMLID_12_">
	<g id="XMLID_14_">
		<defs>
			<circle id="XMLID_37_" cx="74.4" cy="70.3" r="68"/>
		</defs>
		<clipPath id="XMLID_15_">
			<use xlink:href="#XMLID_37_"  style="overflow:visible;"/>
		</clipPath>
		<g id="XMLID_16_" class="st2">
			<g id="XMLID_8_">
				<path id="XMLID_60_" class="st3" d="M28.8,16c-2.8,4.6-2,6.1-3.8,8.3s-4.6,6.5-1.4,5s4.2-4.4,7.3-4.2s9.1,3.2,6.9,6.9
					c-2.2,3.6-3.4,3.8-2.4,7.3s-0.4,7.7-0.8,9.9C34,51.3,32.2,57,33.8,61s5.2,12.9,7.3,14.7c2,1.8-1.6-7.3-1.2-8.7
					c0.4-1.4,4.4,3.6,5.2,7.7c0.8,4-2.6,5.6,3.4,8.3s6.9,0.2,9.5,2.6c2.6,2.4,7.3,4.8,8.9,5.4s1,3.6,4.6,2.8c3.6-0.8,5.2,0.6,3,4.2
					c-2.2,3.6-4.4,6.3-2.4,9.7c2,3.4,4,8.7,7.1,9.5c3,0.8,5.4,3.2,4.2,7.5c-1.2,4.2-4.8,10.9-2.6,13.7c2.2,2.8,3.8,5.6,4.4,6.1
					c0.6,0.4,1-8.5,2-9.3c1-0.8,6.1-3.6,6.9-5.2c0.8-1.6,5.9-3,6.5-5.9c0.6-2.8,2.6-3.8,5.4-4.8c2.8-1,4.8-1.8,6.5-6.7
					c1.6-4.8,5.6-5,2.8-7.7c-2.8-2.6-9.7-4.4-11.1-4.2c-1.4,0.2,0-3.6-4.8-5.2c-4.8-1.6-8.3-3.4-9.9-4.6c-1.6-1.2-5.9-2.2-8.3-2
					c-2.4,0.2-3.8,2.2-6.5,2.4c-2.6,0.2-5.9,0-5.9-2s0-6.1-2.8-5c-2.8,1-2.4-3.2-1.8-4.8c0.6-1.6-3.2-0.6-4.6,0.9
					c-1.4,1.5-4.8,1.9-5.4-1.5c-0.6-3.4-0.8-8.7,3.4-9.7s8.1-0.8,9.5-1.2s2.2,5,3.8,5.9c1.6,0.8,1.2-3.8,2-6.1
					c0.8-2.2,6.3-4,6.7-7.1c0.4-3-1-4.2,1.4-5.2c2.4-1,5.4-0.4,6.5-2.6c1-2.2,1.2-3.2,4-3c2.8,0.2,6.7,0.4,5-1.4s-4.4-2.8-3.6-4.4
					s5-5.6,5-1.8s2.4,8.1,3.8,6.1c1.4-2-0.2-4.4-0.2-7.3s-1.6-3.4-3.6-5.4c-2-2-2.2-7.9-3.4-6.3c-1.2,1.6-2.2,2.4-4.2-1.4
					s-6.3-6.9-6.5-3.6c-0.2,3.2,1.4,3.8-0.4,6.5c-1.8,2.6-3.6,5.4-3.6,7.9S78.4,37,77,34.6c-1.4-2.4-3.2-3.6-5.6-5
					c-2.4-1.4-1.8-4.2,1.2-5.6s4.4-5,5.9-2.8s4,2.6,4.2,0.6c0.2-2-1-2.8,0.8-4.2c1.8-1.4,2.2-5.9-0.4-3.8s-4.4,3.8-4.6,1.2
					s1.2-7.1-1.2-5c-2.4,2-2,4.4-4.4,4.2c-2.4-0.2-4-0.2-8.9-1.2s-5.9-2.4-10.7-2.2c-4.8,0.2-4.4-0.8-12.3-0.2
					C33,11,28.8,16,28.8,16z"/>
			</g>
			<g id="XMLID_26_">
				<path id="XMLID_58_" class="st3" d="M85.2,94.7c-2.2,1.2-0.5,2.1,2.3,2.3s7.8,3,8.8,1.5S91.2,91.4,85.2,94.7z"/>
			</g>
			<g id="XMLID_25_">
				<path id="XMLID_56_" class="st3" d="M97.7,100.3c-2.3,1-10.3,1.5-6.3,2s8.8-0.3,11.5,0S101.7,98.5,97.7,100.3z"/>
			</g>
			<g id="XMLID_24_">
				<path id="XMLID_54_" class="st3" d="M177.4,83.8c0,0-2.3-7.8-4.8-5.5s-5.5,1-6.5,2s-1.8,6.3-2.5,8.8s-4.3,0.3-4.3,7
					s-0.8,12.5,2,14.3s4,5.3,6,2.5s6,0.5,6,0.5L177.4,83.8z"/>
			</g>
			<g id="XMLID_23_">
				<path id="XMLID_52_" class="st3" d="M166.4,44.3c0,0,1,11.3,2.8,12.8s1.2,5-0.8,5.5c-2,0.5-1.7,2.3-0.7,4.3s-2.3,1.3-2.8,2
					s0,6.5,1,7.8s3.8,2,4.3,0.5c0.5-1.5,1-7.8,1.7-7.5s0.8,9,5,7.8l-1-18.8l-9-15.3"/>
			</g>
			<g id="XMLID_22_">
				<path id="XMLID_50_" class="st3" d="M150.7,35.3c-1.8-0.1,2,4.8,3.5,4.8S157.9,35.8,150.7,35.3z"/>
			</g>
			<g id="XMLID_21_">
				<path id="XMLID_48_" class="st3" d="M148.2,19c0,3,2.6,9,2,10.5c-0.5,1.5-3.3,0.5-6.5,2.5s-5.3,3.8-5.3,6s-3.5-0.5-6-2.8
					c-2.5-2.2-3-10-4-14.2s-0.3-6.5-2.8-8.3s-7.3,0.3-7-2.5s0.8-6.2,0.8-6.2L148.2,19z"/>
			</g>
			<g id="XMLID_20_">
				<path id="XMLID_46_" class="st3" d="M76.4,6.8c-3.4,1.8-2.8,5.2-0.5,5.5s4.5,2.5,6.3,2s4.5,2.6,5.3,0.1s3.5-5.6,0.8-5.3
					s-4.9-1-6.4-1.5S79.2,5.3,76.4,6.8z"/>
			</g>
			<g id="XMLID_19_">
				<path id="XMLID_44_" class="st3" d="M110.9,23.5c-1.2,1.6-7.8,0.8-5.5,1.8s2.8,1.5,5.5,4.3s6.3,4.2,5.8,1.5s-1.5-8,0.5-5.8
					s4,0.8,4.3-0.5s-3.5-5.3-4.3-6.8s-3.3-4.8-5-5s-2.5-1.8-5.5-2.1c-3-0.4-9.5-0.4-7,0.9s3.8,2.3,7,4S112.4,21.5,110.9,23.5z"/>
			</g>
			<g id="XMLID_18_">
				<path id="XMLID_42_" class="st3" d="M86.2,4c-0.8,1-1.3,3.5,2.3,3.5s5.8-0.3,6.5-2.5s-0.8-3.6-3.5-1.9S87.7,2.3,86.2,4z"/>
			</g>
			<g id="XMLID_17_">
				<path id="XMLID_40_" class="st3" d="M97.1,6.5c-1.1,2-0.7,3.5,2.6,2s5.8-3.7,7.5-1.5s3.3,2.8,5,2c1.8-0.8,5.8-3.3,4-5
					s-6.3-4.5-8-2.3S98.7,3.5,97.1,6.5z"/>
			</g>
		</g>
	</g>
	<g id="XMLID_6_">
		<path id="XMLID_10_" class="st3" d="M74.7,141.3c-38.9,0-70.6-31.7-70.6-70.6C4.1,31.7,35.7,0,74.7,0s70.6,31.7,70.6,70.6
			C145.3,109.6,113.6,141.3,74.7,141.3z M74.7,6C39,6,10.1,35,10.1,70.6c0,35.6,29,64.6,64.6,64.6s64.6-29,64.6-64.6
			C139.3,35,110.3,6,74.7,6z"/>
	</g>
</g>
<g id="XMLID_9_">
	<path id="XMLID_29_" class="st0" d="M85.8,104.5c-0.4-0.6-1.1-1.1-1.7-1.5c-5.3-3.3-10.5-6.8-15.4-10.6c-0.7-0.5-1.4-1.1-1.9-1.8
		c-0.5-0.7-0.8-1.6-0.6-2.4c0.3-1.3,1.7-2.1,3-2.4c1.3-0.3,2.5-0.8,3.8-1.2c1.1-0.3,2.3-0.5,3.3-1.1c1-0.5,1.9-1.4,2.3-2.5
		c0.4-1.1-0.2-2.5-1.1-3.1c-2.3,1.3-4.7,2.5-7.3,2.7c-2.7,0.2-5.3-0.9-8-1c-2.9-0.2-5.8,0.8-8.6,0.2c-2.9-0.5-5.3-2.4-7.6-4.1
		c-4-3.1-24.4-16.6-39.6-26.5c-0.9,0.1-1.7,0.3-2.5,0.5c1-0.3-1.5,0.3-1.2,0c-1,0.6-0.6,1.6-1.6,2.9c2.9,2.6,3,7.3,2.1,11.1
		c17.3,10.4,37.8,24,42.3,29c2.8,3.2,4.2,7.3,6.3,11c2.1,3.7,3.9,7.6,4.6,11.7c0.1,0.8,0.2,1.7,0.7,2.4c0.6,0.9,2.1,1.4,2.8,0
		c0.2-0.4,0.2-0.9,0.1-1.3l-1.9-9.8c-0.1-0.6,0.6-1,1-0.6c3.5,3.4,5.5,8.2,8.6,12.1c0.4,0.5,0.7,0.9,1.3,1.2c0.8,0.4,2,0.3,2.1-1.1
		c0-0.5-0.1-0.9-0.3-1.3l-6.9-12.8c-0.2-0.3,0.3-0.7,0.5-0.4c3.5,3.6,7.8,8.7,10.8,12.7c0.4,0.5,0.7,1,1.2,1.3
		c0.5,0.3,1.1,0.5,1.7,0.3c0.7-0.3,1-1.1,0.9-1.9c-0.1-0.7-0.5-1.4-0.9-2c-2.7-4.3-5.7-8.4-9-12.2c-0.4-0.5-0.9-1-0.9-1.7
		c-0.1-0.8,0.8-1.4,1.5-1l13,7.1c0.5,0.3,1,0.5,1.6,0.6c0.6,0.1,1.2,0,1.6-0.4C86.3,106.1,86.2,105.1,85.8,104.5z"/>
</g>
<g id="XMLID_1_">
	<path id="XMLID_27_" class="st0" d="M151.9,42.7c-7.6-0.8-33.3,6.5-40.9,6.6c-2.9,0-5.9,0.1-8.5-1.2c-2.6-1.3-4.4-3.8-6.8-5.3
		c-2.2-1.5-5-2.2-7-3.9c-2-1.7-3.1-4.1-4.2-6.5c-1.2-0.1-2.4,0.7-2.8,1.8s-0.2,2.3,0.3,3.4c0.5,1,1.3,2,2,2.8c0.9,1,1.5,2.1,2.4,3.2
		c0.8,1.1,1.5,2.5,0.9,3.7c-0.3,0.8-1.1,1.3-1.9,1.6c-0.8,0.3-1.7,0.3-2.6,0.3c-6.2,0.1-12.5-0.2-18.7-0.7c-0.8-0.1-1.5-0.1-2.2,0.1
		c-0.7,0.3-1.3,1-1.2,1.7c0.1,0.6,0.5,1,1,1.3c0.5,0.3,1.1,0.3,1.6,0.4l14.7,2.1c0.8,0.1,1.2,1.1,0.6,1.7c-0.4,0.5-1.1,0.7-1.7,0.8
		c-4.9,1.2-9.8,2.7-14.5,4.5c-0.7,0.3-1.4,0.6-1.9,1.1c-0.5,0.5-0.8,1.4-0.4,2c0.3,0.5,0.9,0.8,1.5,0.8c0.6,0,1.2-0.2,1.7-0.3
		c4.8-1.4,11.3-3,16.2-3.8c0.4-0.1,0.6,0.5,0.2,0.6l-13.2,6.2c-0.4,0.2-0.8,0.5-1,0.9c-0.7,1.2,0.2,2,1.1,2.1c0.6,0.1,1.2,0,1.7-0.2
		c4.8-1.3,9.3-4,14.1-4.6c0.6-0.1,0.9,0.7,0.5,1.1l-7.4,6.8c-0.3,0.3-0.6,0.7-0.7,1.2c-0.3,1.5,1.2,2,2.2,1.6c0.8-0.3,1.4-0.9,2-1.5
		c3-3,6.8-5,10.7-6.7c3.9-1.7,7.5-4.2,11.6-5.1c8.3-1.7,30.7-4.8,43.9-5.9c3-0.3,4.6-6.6,6.5-6.2C150,45.8,149.8,47.8,151.9,42.7z"
		/>
</g>
</svg>
