<?xml version="1.0" encoding="utf-8"?>
<!-- Generator: Adobe Illustrator 19.0.0, SVG Export Plug-In . SVG Version: 6.00 Build 0)  -->
<svg version="1.1" id="Isolation_Mode" xmlns="http://www.w3.org/2000/svg" xmlns:xlink="http://www.w3.org/1999/xlink" x="0px"
	 y="0px" viewBox="0 0 81.8 107.2" style="enable-background:new 0 0 81.8 107.2;" xml:space="preserve">
<style type="text/css">
	.st0{fill-rule:evenodd;clip-rule:evenodd;fill:#FFFFFF;}
	.st1{fill:#050505;}
	.st2{fill:#47AAD6;}
	.st3{fill:#FFFFFF;}
</style>
<g>
	<path class="st0" d="M79.1,53c-0.6-1.4-1.8-3-2.7-4.2c-6.9-9.5-4.9-11.3-4.7-12.1c0,0,0,0,0,0c0,0,0,0,0,0c0.6-1.3,0.2-2.6-0.5-3.7
		c-1.7-2.5-4.3-9.3-4.6-9.9l0-9.3c0,0,2.5-3.1,10.3-2.9c0,0-4.7-4.2-13.8-3.5l5.2-3.1c0,0-5.9,0.4-14.6-0.7
		c-2.2-0.3-33.3-4.6-41.2,5C-7.8,38.4,8.9,58.4,8.9,58.4c1.6,2,6.7,8.4,6.7,11.4l-0.2,6.3c0,0,0.6,8.4-1.9,13.1s-9.8,15.5-9.8,15.5
		h54.5c0,0-4.8-0.5-6.8-4.7c-2.1-4.2,0-9.7,0-9.7s2.6-5,4.3-7.3c1.5-1.8,6.2-1,8.6-0.8c9,0.8,8.5-3.9,7.3-5.9
		c-1.4-2.3-1.6-4.3-0.1-6.6c1.1-1.8,0.3-3.4-1.7-4.3c0,0,3-0.3,2.8-3.5c-0.1-0.8-0.3-2.7-0.2-3.5c0.1-1.4,4.1-1.5,5.3-2.1
		C78.9,55.8,79.6,54.3,79.1,53z"/>
	<path class="st1" d="M58.2,107.2H3.7c-0.9,0-1.8-0.5-2.2-1.3s-0.4-1.8,0.1-2.6c0.1-0.1,7.2-10.8,9.6-15.3c1.8-3.3,1.8-9.6,1.6-11.7
		c0-0.1,0-0.2,0-0.3l0.2-6.3c0-0.3-0.4-2.7-6.1-9.8c-0.1-0.2-17.7-21.7,3.4-52.6c0-0.1,0.1-0.1,0.1-0.2c7.7-9.4,32.8-7.3,43.2-6
		l0.2,0c8.3,1,14.1,0.7,14.1,0.7c1.1-0.1,2.2,0.7,2.6,1.8c0.2,0.6,0.1,1.2-0.1,1.8c5.1,1.1,7.8,3.5,8,3.7c0.8,0.7,1,1.8,0.7,2.8
		c-0.4,1-1.4,1.6-2.4,1.6C72.4,13.4,70,14.4,69,15l0,7.6c0.1,0.2,0.2,0.4,0.3,0.7c0.8,2,2.7,6.6,3.9,8.4c1.3,1.9,1.5,4.1,0.7,6
		c0,0.1-0.1,0.2-0.1,0.4c-0.4,1,0.6,3.9,4.5,9.3l0.4,0.5c0.9,1.2,2,2.7,2.6,4.2l0,0c1.1,2.5-0.1,5.4-2.6,6.7
		c-0.7,0.4-1.5,0.5-2.5,0.7c-0.4,0.1-0.9,0.2-1.4,0.3c0,0.6,0.1,1.3,0.2,2c0,0.1,0,0.1,0,0.2c0.1,1.9-0.5,3.2-1.2,4
		c0.2,0.3,0.3,0.6,0.4,1c0.4,1.4,0.2,2.9-0.7,4.3c-0.8,1.2-1,2.1,0.1,3.9c1,1.6,1.6,4.3,0.2,6.6c-1.6,2.5-4.9,3.5-9.8,3.1l-0.8-0.1
		c-1.2-0.1-4.7-0.6-5.6,0c-1.3,1.7-3.2,5.3-4,6.7c-0.5,1.4-1.3,5.1,0,7.6c1.4,2.9,4.7,3.3,4.8,3.3c1.3,0.2,2.3,1.3,2.2,2.6
		C60.6,106.2,59.5,107.2,58.2,107.2z M8.4,102.2h41.4c-0.2-0.3-0.4-0.7-0.6-1.1C46.7,96,49,89.7,49.1,89.4c0-0.1,0.1-0.2,0.1-0.3
		c0.1-0.2,2.7-5.2,4.6-7.7c2.3-2.8,7-2.2,10.2-1.8l0.7,0.1c3.4,0.3,4.8-0.4,5.1-0.8c0.2-0.3,0-0.9-0.2-1.3c-2-3.3-2-6.2-0.1-9.3
		c0.1-0.1,0.1-0.1,0.1-0.2c-0.1-0.1-0.3-0.3-0.7-0.5c-1.1-0.5-1.7-1.7-1.4-2.9c0.3-1,1.1-1.8,2.2-1.9c0.5-0.1,0.6-0.3,0.5-0.7
		c-0.1-0.6-0.4-2.8-0.2-4c0.3-2.8,3.3-3.4,5.4-3.8c0.4-0.1,1.1-0.2,1.3-0.3c0.1-0.1,0.2-0.2,0.2-0.2l2.3-1l-2.3,1
		c-0.4-0.9-1.3-2.2-2-3.2l-0.4-0.6c-6.2-8.5-6.1-11.9-5.1-14.3c0,0,0,0.1,0,0.1c0-0.2,0.1-0.3,0.1-0.4c0.2-0.4,0-0.9-0.3-1.3
		c-1.3-1.9-2.9-5.6-4.4-9.2c-0.2-0.5-0.3-0.8-0.4-1c-0.2-0.3-0.3-0.7-0.3-1.1l0-9.3c0-0.6,0.2-1.1,0.6-1.6c0.2-0.2,1.1-1.3,3.2-2.2
		c-1.3-0.2-2.9-0.2-4.6-0.1C62,10,61,9.3,60.6,8.2c-0.1-0.5-0.1-0.9,0-1.4c-2.1-0.1-4.5-0.3-7.2-0.7l-0.3,0
		c-14.6-1.9-33.5-1.9-38.6,4.1C-4.4,37.8,10.2,56,10.9,56.8c6.5,8.1,7.2,11.2,7.3,12.9c0,0,0,0.1,0,0.1l-0.2,6.2
		c0.1,1.4,0.4,9.4-2.2,14.3C14.1,93.3,10.7,98.6,8.4,102.2z"/>
</g>
<g>
	<g>
		<circle class="st2" cx="32.2" cy="30.8" r="19.8"/>
	</g>
	<g>
		<path class="st3" d="M30.3,39.8l-9-8.5c0,0,0,0,0,0l3.3-3.5c0,0,0,0,0,0l5.3,5l9.5-11c0,0,0,0,0,0l3.7,3.2c0,0,0,0,0,0L30.3,39.8z
			"/>
	</g>
</g>
</svg>
