<?xml version="1.0" encoding="utf-8"?>
<!-- Generator: Adobe Illustrator 19.0.0, SVG Export Plug-In . SVG Version: 6.00 Build 0)  -->
<svg version="1.1" id="Isolation_Mode" xmlns="http://www.w3.org/2000/svg" xmlns:xlink="http://www.w3.org/1999/xlink" x="0px"
	 y="0px" viewBox="-4.5 388.7 385.1 133.8" style="enable-background:new -4.5 388.7 385.1 133.8;" xml:space="preserve">
<style type="text/css">
	.st0{fill:#45C4E4;}
	.st1{fill:#FFFAF9;}
	.st2{fill:#ED6162;}
	.st3{fill:#ED6968;}
	.st4{fill:#F0867F;}
	.st5{fill:#F3A096;}
	.st6{fill:#EE726E;}
	.st7{fill:#EE7672;}
	.st8{fill:#ED6264;}
	.st9{fill:#ED6D6A;}
	.st10{fill:#EC5B5F;}
	.st11{fill:#EF7F78;}
	.st12{fill:#EF7C77;}
	.st13{fill:#EE6E6A;}
	.st14{fill:#FFF7F4;}
	.st15{fill:#F0817A;}
	.st16{fill:#EC5D60;}
	.st17{fill:#EC5C5F;}
	.st18{fill:#F1867F;}
	.st19{fill:#EA4754;}
	.st20{fill:#F29088;}
	.st21{fill:#EB595E;}
	.st22{fill:#ED6A69;}
	.st23{fill:#F7BEB4;}
	.st24{fill:#ED6465;}
	.st25{fill:#F28F86;}
	.st26{fill:#ED6263;}
	.st27{fill:#ED6565;}
	.st28{fill:#EE7570;}
	.st29{fill:#EF7F79;}
	.st30{fill:#EB565C;}
	.st31{fill:#ED6967;}
	.st32{fill:#EE716D;}
	.st33{fill:#ED6B69;}
	.st34{fill:#F7B8AF;}
	.st35{fill:#EF7E78;}
	.st36{fill:#F6B3AA;}
	.st37{fill:#F7BBB1;}
	.st38{fill:#EB5159;}
	.st39{fill:#FFF9F8;}
	.st40{fill:#F18A81;}
	.st41{fill:#EE7974;}
	.st42{fill:#EF817B;}
	.st43{fill:#F39B92;}
	.st44{fill:#EF837D;}
	.st45{fill:#FFF6F3;}
	.st46{fill:#F18C83;}
	.st47{fill:#F39D94;}
	.st48{fill:#FCE3DC;}
	.st49{fill:#EB535A;}
	.st50{fill:#FAC9BF;}
	.st51{fill:#F8C4BB;}
	.st52{fill:#ED6867;}
	.st53{fill:#EF8079;}
	.st54{fill:#EC5E61;}
	.st55{fill:#EA4553;}
	.st56{fill:#E9324B;}
	.st57{fill:#EA4352;}
	.st58{fill:#EA4453;}
	.st59{fill:#E82548;}
	.st60{fill:#E93B4F;}
	.st61{fill:#E93A4E;}
	.st62{fill:#EA4B56;}
	.st63{fill:#EA5059;}
	.st64{fill:#E9394E;}
	.st65{fill:#FCD9D1;}
	.st66{fill:#F29087;}
	.st67{fill:#EE706D;}
	.st68{fill:#FAD6CF;}
	.st69{fill:#EC535A;}
	.st70{fill:#EA4D57;}
	.st71{fill:#EA4151;}
	.st72{fill:#E8364D;}
	.st73{fill:#EA4C56;}
	.st74{fill:#E93E50;}
	.st75{fill:#E9354D;}
	.st76{fill:#EB5C60;}
	.st77{fill:#ED6364;}
	.st78{fill:#E92E4A;}
	.st79{fill:#EC6766;}
	.st80{fill:#E9354C;}
	.st81{fill:#E92C4A;}
	.st82{fill:#E93F50;}
	.st83{fill:#EA4051;}
	.st84{fill:#EA4C57;}
	.st85{fill:#F0857F;}
	.st86{fill:#E9334C;}
	.st87{fill:#EC6968;}
	.st88{fill:#EC575C;}
	.st89{fill:#EB525A;}
	.st90{fill:#F39C92;}
	.st91{fill:#EB5F61;}
	.st92{fill:#EC545B;}
	.st93{fill:#E8314B;}
	.st94{fill:#EB545B;}
	.st95{fill:#E9364D;}
	.st96{fill:#F18A82;}
	.st97{fill:#F2948C;}
	.st98{fill:#EB5259;}
	.st99{fill:#E82748;}
	.st100{fill:#E94051;}
	.st101{fill:#E82949;}
	.st102{fill:#F5B1A8;}
	.st103{fill:#EE7671;}
	.st104{fill:#F9D2CA;}
	.st105{fill:#E92949;}
	.st106{fill:#EB5C5F;}
	.st107{fill:#EA4654;}
	.st108{fill:#E8354C;}
	.st109{fill:#E9374D;}
	.st110{fill:#E9304B;}
	.st111{fill:#EA4252;}
	.st112{fill:#E82A49;}
	.st113{fill:#E93C4F;}
	.st114{fill:#E82E4A;}
	.st115{fill:#E93A4F;}
	.st116{fill:#E83C50;}
	.st117{fill:#E82648;}
	.st118{fill:#E92C49;}
	.st119{fill:#E83B4F;}
	.st120{fill:#E82447;}
	.st121{fill:#E82F4B;}
	.st122{fill:#E8374E;}
	.st123{fill:#E82C4A;}
	.st124{fill:#E8334C;}
	.st125{fill:#E83A4F;}
	.st126{fill:#E8354D;}
	.st127{fill:#E92F4B;}
	.st128{fill:#EA4A55;}
	.st129{fill:#FFFFFF;}
	.st130{fill:none;stroke:#000000;}
</style>
<g id="XMLID_5_">
	<g id="XMLID_3_">
		<path id="XMLID_9_" class="st0" d="M114.2,429.3c15.6,0,28.3,12.7,28.3,28.3c0,15.6-12.7,28.3-28.3,28.3s-28.3-12.8-28.3-28.4
			C85.9,442,98.6,429.3,114.2,429.3 M114.2,413.6c-24.3,0-43.9,19.7-43.9,43.9c0,24.3,19.7,43.9,43.9,43.9s43.9-19.7,43.9-43.9
			S138.5,413.6,114.2,413.6L114.2,413.6z"/>
	</g>
	<g id="XMLID_2_">
		<g id="XMLID_966_">
			<path id="XMLID_1270_" class="st1" d="M116.3,443c3-0.9,6.1-1,9.2-1s6.1-0.1,9.2,0.3c0.6,0.1,1.2,0.2,1.6,0.7
				c-0.1,0.1-0.1,0.1-0.2,0.2c-0.3,0.2-0.6,0.1-1,0.1c-0.5-0.1-1-0.1-1.5-0.1c-3.3,0-6.5-0.1-9.8-0.1c-1.7-0.2-3.4,0.1-5.2,0.3
				c-0.8,0.1-1.5,0.3-2.2-0.1C116.4,443.1,116.4,443,116.3,443z"/>
			<path id="XMLID_1269_" class="st2" d="M96.7,462.5c1.4-1.5,3.2-2.5,4.9-3.5c0.1-0.1,0.3-0.1,0.4,0c0.1,0.9-0.4,1.5-1.2,1.9
				c-0.8,0.4-1.4,0.9-2,1.5c-0.3,0.3-0.6,0.6-0.3,1.1s0.4,1,0.1,1.5c-0.2,0.3-0.5,0.6-0.8,0.9c-0.4,0.3-0.7,0.7-1.3,0.3
				C95.5,464.8,96.6,463.7,96.7,462.5z"/>
			<path id="XMLID_1268_" class="st3" d="M126.2,453.4c1.9-0.3,3.8-0.6,5.7-0.9c1.3-0.2,2.6-0.2,3.7,0.5c0.2,0.3,0.3,0.5,0.3,0.9
				c0,0.2-0.1,0.3-0.2,0.4c-0.1,0.1-0.3,0.2-0.4,0.2c-0.5,0-0.9-0.3-1.3-0.5c-0.1-0.1-0.2-0.2-0.4-0.2c-0.5-0.6-1.1-0.5-1.7-0.4
				c-0.5,0.1-1.1-0.1-1.6,0.2c-0.2,0.1-0.3,0.3-0.5,0.4c-0.1,0.1-0.2,0.2-0.4,0.2c-1-0.2-1.9-0.2-2.9,0.1c-0.2,0.1-0.4,0.1-0.6,0.2
				c-0.7,0.4-1.3,0.9-2.2,0.6c-0.1,0-0.3-0.1-0.4-0.1c-0.1-0.1-0.2-0.2-0.3-0.3c0.1-0.4,0.4-0.6,0.8-0.8
				C124.6,453.3,125.5,453.8,126.2,453.4z"/>
			<path id="XMLID_1267_" class="st4" d="M102.7,455.1c-2.2,1.1-4.5,1.8-6.8,2.5c-1.2,0.4-2.2-0.2-2.8-1.4c-0.8-1.5-0.3-2.7,0.7-3.8
				c0.6,1.1-0.3,2.5,0.8,3.4c0.3,0.4,0.8,0.5,1.2,0.6c0.8,0.2,1.4-0.3,2.1-0.5c1-0.2,1.8-0.7,2.8-0.9
				C101.3,454.9,102,454.5,102.7,455.1z"/>
			<path id="XMLID_1266_" class="st5" d="M122.5,481.8c-0.8,1.4-2.7,2.2-4.4,1.7c-1.3-0.4-2.3-2.2-2-3.8c0.1-0.7,0.2-1.4,0.8-1.9
				c0.7,0.5,0.2,1.3,0.5,1.9c0.3,0.7,0.6,1.3,0.9,2c0.7,1.1,1.6,1.1,2.6,0.5C121.4,482,121.8,481.4,122.5,481.8z"/>
			<path id="XMLID_1265_" class="st6" d="M102.7,455.1c-1.8-0.1-3.2,1.2-5,1.3c0.1-1.1,1-1.4,1.9-1.6c0.6-0.1,1.3-0.2,1.8-0.5
				c0.6-0.3,1.1-0.8,1.8-1c0.7-0.1,1.3,0.1,2-0.1c0.5-0.1,1-0.1,1.5-0.4c0.4-0.2,0.7-0.3,1.1-0.3c0.3,0,0.6,0,0.9,0.2
				c0.1,0.1,0.2,0.3,0.1,0.4c-0.3,0.3-0.8,0-1.1,0.3C106,453.7,104.5,454.7,102.7,455.1z"/>
			<path id="XMLID_1264_" class="st7" d="M99.7,438.7c1.3-0.7,2.9-0.7,4.2-1.3c2.5-1,5.3-0.9,7.9-1.3c0.5,0,1,0,1.5,0
				c0.4-0.2,0.8-0.4,1.3-0.1c0.2,1-0.6,0.7-1.1,0.9c-0.4,0-0.7,0.2-1.1,0.3c-0.1,0-0.3,0-0.4,0c-0.5-0.1-1,0-1.4,0.1
				c-0.4,0.1-0.9,0.1-1.3,0.2c-1.3,0.1-2.5,0.2-3.7,0.8c-0.5,0.2-1,0.4-1.5,0.4c-1.1-0.1-2.2,0.1-3.2,0.5c-0.4,0.1-0.8,0.1-1-0.3
				C99.8,438.9,99.7,438.8,99.7,438.7z"/>
			<path id="XMLID_1263_" class="st8" d="M110.4,467.1c-2.4,1-4.7,2-7.1,3c-0.2,0.1-0.4,0.2-0.6,0.1c-0.1-0.1-0.2-0.2-0.2-0.4
				c0.2-0.3,0.5-0.4,0.8-0.6c0.2-0.1,0.3-0.2,0.5-0.4c0.3-0.2,0.6-0.5,0.8-0.7c0.1-0.1,0.2-0.1,0.3-0.2c0.4,0.1,0.5-0.4,0.7-0.5
				c1.6-0.2,3-1.2,4.5-1.6c0.4-0.1,0.7-0.3,1.1-0.2c0.1,0.1,0.2,0.3,0.2,0.4C111.4,466.8,111.2,467.3,110.4,467.1z"/>
			<path id="XMLID_1262_" class="st9" d="M125.1,468.1c3-0.8,4.7-0.1,5.4,2.2c0.5,1.8,0,3.1-1.7,4.2c-0.5-0.5-0.1-0.9,0.1-1.3
				c1.1-2.8,0.1-4.3-2.9-4.6c-0.3,0-0.5-0.1-0.7-0.2C125.2,468.2,125.2,468.1,125.1,468.1z"/>
			<path id="XMLID_1261_" class="st10" d="M125.8,468.2c1.5-0.3,2.8,0.2,3.5,1.4c0.7,1.2,0.7,2.7-0.2,4c-0.2,0.3-0.3,0.6-0.3,0.9
				c-0.2,0.2-0.5,0.4-0.7,0.5c-0.1,0.1-0.2,0.1-0.4,0c0.4-0.9-0.3-2.2,1-3c0.3-0.2-0.2-1.4-0.9-2C127.1,469.4,126.2,469,125.8,468.2
				z"/>
			<path id="XMLID_1259_" class="st11" d="M117,476.6c-1.2,0.6-2.5,0.5-3.7,0.3c-0.6-0.1-1.2-0.5-1.7-0.4c-1.6,0.3-2-0.7-2.4-1.9
				c0.2-0.2,0.4-0.3,0.6-0.3c0.2,0,0.5,0.1,0.6,0.2c0.4,0.3,0.6,0.8,1.1,0.9c0.6,0.2,1.3,0.1,1.9,0c1.2,0.3,2.3,0.5,3.5,0.7
				c0.1,0.1,0.1,0.2,0.1,0.3C117,476.5,117,476.6,117,476.6z"/>
			<path id="XMLID_1258_" class="st12" d="M118,481.8c-0.3-0.7-0.7-1.3-1-2c0.7-0.3,1.3,0.4,2,0c0.3,0.4,0.4,0.9,0.9,1.1
				c0.3,0.2,0.6,0.3,1,0.2c0.7-0.1,1.3-0.5,1.9-0.9c0.3-0.1,0.5-0.3,0.8-0.1c0,0.8-0.9,0.9-1.1,1.6c-0.5,0.2-1.1,0.4-1.6,0.7
				C119.9,482.4,118.8,482.9,118,481.8z"/>
			<path id="XMLID_1257_" class="st13" d="M135.6,454.4c0-0.1,0-0.2,0-0.4c1.1-0.4,1.2,0.5,1.4,1.1c0.5,1.8-0.3,3.1-1.7,4.2
				c-1,0.4-1.8,1-3,0.9c-0.1-0.1-0.1-0.3,0-0.4c0.4-0.6,1.2-0.6,1.8-1C135.7,457.8,135.8,456.1,135.6,454.4z"/>
			<path id="XMLID_1256_" class="st14" d="M111.9,436.2c-2.6,0.6-5.3,0.9-7.9,1.3c1.3-0.8,2.5-2.1,4.3-1c0.1,0,0.3,0,0.3,0
				C109.5,434.9,110.8,436.3,111.9,436.2z"/>
			<path id="XMLID_1255_" class="st15" d="M117,435.3c0.2,0,0.3-0.1,0.5-0.1c2.2,0.9,2.7,2.1,1.4,3.9c-0.2,0.1-0.3,0-0.4-0.1
				c-0.3-0.4-0.3-1-0.6-1.5c-0.4-1.2-1.3-1.4-2.4-1.2c-0.1,0-0.3,0-0.4,0s-0.3-0.1-0.4-0.2c-0.5,0-0.9,0-1.4,0
				c0.1-0.1,0.2-0.2,0.4-0.3c0.5-0.4,1.1-0.4,1.6-0.3C115.9,435.4,116.5,435.6,117,435.3z"/>
			<path id="XMLID_1253_" class="st16" d="M123.6,480.2c-0.2,0.1-0.5,0.2-0.7,0.3c-0.1-0.1-0.2-0.2-0.2-0.4c-0.1-0.9,1-1.3,0.8-2.2
				c0.5-0.6,1.1-1.1,1.5-1.8c0.2-0.3,0.5-0.6,0.9-0.7c0.4,0,0.8,0.1,1,0.5C125.5,477.2,124.8,478.9,123.6,480.2z"/>
			<path id="XMLID_1252_" class="st17" d="M94.4,456c-1.5-1-0.8-2.4-0.7-3.6c0.3-0.5,0.4-1,1-1.3c0.1,0.5,0.2,0.9,0.5,1.3
				c0.2,0.7-0.5,1.3-0.3,2c-0.1,0.6,0.7,1.2,0.1,1.8C94.8,456.2,94.6,456.2,94.4,456z"/>
			<path id="XMLID_1251_" class="st18" d="M102.6,470.1c0.2,0,0.5,0,0.7,0c-0.6,0.7-1.4,1-2.3,1.3c-0.9,0.4-1.8,0.5-2.8,0.3
				c-0.2,0-0.3-0.1-0.4-0.2c-0.4-0.4-0.5-1.1-1.1-1.4c-0.1-0.1-0.2-0.2-0.2-0.4c-0.1-0.4-0.1-0.8,0.2-1.1c0.6,0,1.1-0.2,1.3,0.8
				c0.2,1.1,1.4,0.8,2.3,0.9C101.1,470.4,101.8,469.8,102.6,470.1z"/>
			<path id="XMLID_1250_" class="st19" d="M132.3,460c0,0.1,0,0.2,0,0.3c-0.1,0.1-0.2,0.2-0.3,0.4c-0.9,0.4-1.8,0.9-2.7,1.2
				c-0.4,0.2-0.9,0.1-1.3-0.2c-0.3-0.6-0.2-1,0.3-1.5c1.1-0.6,2.3-1,3.5-0.8C132.1,459.5,132.3,459.7,132.3,460z"/>
			<path id="XMLID_1249_" class="st20" d="M135.3,459.3c0.9-1.1,1.9-2.3,1.4-3.9c-0.2-0.6-0.2-1.3-1.1-1.4c0-0.3,0-0.7,0-1
				c1.4,0.5,2,1.6,1.9,3C137.5,457.6,136.8,458.8,135.3,459.3z"/>
			<path id="XMLID_1248_" class="st21" d="M106.2,456c0.8-1,2.1-1.3,3-2.2c0.1-0.2,0.3-0.5,0.5-0.6c0.3-0.2,0.6-0.4,0.9-0.5
				c0.2,0,0.3,0.1,0.3,0.2c0.1,0.6-0.3,1-0.6,1.4c-0.2,0.2-0.5,0.4-0.7,0.5c-1,0.7-2.1,1.1-2.8,2.3c-0.4,0.7-1.2,0.7-1.7-0.1
				C105.1,456.3,106,456.5,106.2,456z"/>
			<path id="XMLID_1247_" class="st22" d="M132.4,449.9c-2.5,0.9-5,1.7-7.3,3.1c-0.2,0.4-0.5,0.3-0.8,0.2c-0.1-0.1-0.2-0.2-0.2-0.4
				c0.1-0.3,0.3-0.5,0.6-0.7c0.9-0.4,1.7-0.8,2.5-1.3c1.2-0.6,2.5-0.8,3.8-1.3C131.5,449.4,132,449.4,132.4,449.9z"/>
			<path id="XMLID_1246_" class="st23" d="M100.6,471.7c-2.5,1.4-4.7,0.5-5.2-2.3c0.1-0.1,0.2-0.1,0.4-0.1c0.5,0.1,0.7,0.4,0.9,0.8
				l0,0c0.5,0.3,0.6,0.9,1,1.3l0,0C98.7,471.8,99.7,471.3,100.6,471.7z"/>
			<path id="XMLID_1245_" class="st21" d="M95.1,452.5c-0.5-0.4-0.5-0.8-0.3-1.3c0-0.5,0.2-0.8,0.7-1c0.6,0,0.7-0.9,1.4-0.8
				c0.1,0,0.3,0.1,0.4,0.2c0.1,0.4,0.1,0.9,0,1.3c-0.1,0.1-0.1,0.3-0.2,0.4c-0.2,0.5-0.1,1.1-0.7,1.4
				C95.9,452.8,95.5,452.8,95.1,452.5z"/>
			<path id="XMLID_1244_" class="st24" d="M128.1,461.6c0.4,0,0.9,0,1.3,0c0.2,0.1,0.2,0.2,0,0.4c-0.9,1.2-2.3,1.7-3.5,2.3
				c-0.2,0.1-0.5,0.1-0.7,0.1c-0.3-0.8,0.4-1.1,0.9-1.4s1-0.3,1.3-0.9C127.6,461.8,127.7,461.5,128.1,461.6z"/>
			<path id="XMLID_1243_" class="st25" d="M99,439c0.2-0.1,0.5-0.2,0.7-0.3l0.1,0.1c0.8,0.7,0.1,1.7,0.5,2.4
				c0.1,0.6,1.3,0.6,0.9,1.5c-1.3,0.4-2.2-0.1-2.6-1.4c-0.1-0.2-0.1-0.3-0.2-0.5C98.3,440.1,98.6,439.6,99,439z"/>
			<path id="XMLID_1242_" class="st26" d="M111.4,466.1c0-0.1,0-0.2,0-0.3c0.1-0.1,0.1-0.1,0.2-0.2c0.4-0.2,0.8,0,1.1,0.3
				c0.1,0.2,0.3,0.4,0.3,0.7c0.1,0.9-0.5,1.5-1.1,2c-0.7,0.1-1.1,1.4-2.1,0.8c-0.2-0.5,0.3-0.7,0.3-1.1c0.2-0.3,0.3-0.6,0.5-0.8
				C111,467.2,111.8,467,111.4,466.1z"/>
			<path id="XMLID_1241_" class="st27" d="M101,445.2c0.9-1.1,2.2-1.7,3.3-2.5c0.1-0.1,0.2-0.2,0.3-0.3c0.1,0,0.3,0,0.4,0
				c0.1,0.1,0.2,0.2,0.3,0.3c0.1,0.3,0,0.6-0.3,0.8c-0.2,0.2-0.5,0.3-0.8,0.4c-0.3,0.1-0.5,0.1-0.6,0.4c-0.1,0.1-0.2,0.2-0.3,0.3
				c-0.5,0.2-0.9,0.5-1.2,0.9c-0.3,0.3-0.5,0.5-0.9,0.6c-0.2,0-0.3-0.1-0.4-0.2C100.8,445.6,100.8,445.4,101,445.2z"/>
			<path id="XMLID_1240_" class="st28" d="M110.1,468.3c0.1,0.4-0.1,0.7-0.3,1.1c0.2,0.8-0.2,1.4-0.7,2.1c-0.3,0.4-0.6,0.9-0.8,1.3
				c-0.2,0.2-0.3,0.3-0.6,0.2c-0.4-0.3-0.5-0.6-0.3-1.1C108.2,470.7,109,469.4,110.1,468.3z"/>
			<path id="XMLID_1239_" class="st29" d="M96.7,462.5c0.3,1.2-0.7,2.5,0,3.7c0.3,0.6,0.6,1.2,0.4,2c-0.4,0.3-0.7,0.3-1.1,0
				c-0.3-0.5-0.2-1-0.3-1.5c0-0.2,0-0.3,0-0.5c-0.1-1,0-2,0.4-2.9C96.2,462.9,96.4,462.6,96.7,462.5z"/>
			<path id="XMLID_1238_" class="st30" d="M122.2,468.1c1,0,1.9,0,2.9-0.1c0,0.1,0,0.1,0,0.2c0,0.9-1,0.7-1.3,1.3
				c-0.1,0.1-0.3,0.1-0.4,0.2c-0.2,0-0.3,0-0.4,0c-0.5-0.1-1-0.4-1.5-0.5c-0.5-0.2-1.3,0.1-1.3-0.8
				C120.8,467.8,121.6,468.6,122.2,468.1z"/>
			<path id="XMLID_1237_" class="st31" d="M118.9,479.9c-0.7,0.8-1.3,0.2-2,0c-0.3-0.7,0.2-1.4-0.1-2c0.1-0.3,0.1-0.6,0.4-0.7
				c0.1,0.1,0.2,0.2,0.3,0.3c0.2,0.4,0.3,0.9,0.7,1.2c0.2,0.4,0.7,0.4,0.9,0.8C119.1,479.6,119,479.8,118.9,479.9z"/>
			<path id="XMLID_1236_" class="st32" d="M103.3,442.3c-0.2,0.1-0.4,0.2-0.7,0.3c-0.2-0.2-0.2-0.5-0.1-0.8c0.7-0.8,1.8-0.9,2.8-1
				c0.9-0.1,1.5,0.4,1.4,1.5c-0.4,0.6-0.8,0.7-1.4,0.3v-0.1c-0.2-0.4-0.5-0.6-1-0.4C103.9,442.2,103.6,442,103.3,442.3z"/>
			<path id="XMLID_1235_" class="st33" d="M106.2,456c0,0.6-0.7,0.6-0.9,1.1c-0.6,1.4-1.8,2.1-3.3,2c-0.1,0-0.3,0-0.4-0.1
				C103.1,457.9,104.5,456.7,106.2,456z"/>
			<path id="XMLID_1234_" class="st29" d="M137.6,447.3c0,1.4-1.3,1.7-2.1,2.5c-0.9,0-1.9,0-2.8,0.1c-0.1-0.1-0.1-0.2-0.1-0.3
				c0-0.1,0-0.1,0.1-0.1c0.3-0.3,0.7-0.3,1.1-0.3c0.4,0,0.7-0.1,1-0.2c0.4-0.1,0.8-0.3,1.1-0.6c0.6-0.2,0.6-1.1,1.4-1.2
				C137.4,447.1,137.5,447.1,137.6,447.3z"/>
			<path id="XMLID_1233_" class="st34" d="M96.1,466.2c0,0.1,0,0.2,0,0.3c-0.6,0.9,0.4,2-0.3,3c-0.1,0-0.2,0-0.4,0
				c0.1-1.6-0.7-3.3,0-4.9C95.9,465,95.6,465.7,96.1,466.2z"/>
			<path id="XMLID_1232_" class="st7" d="M101,445.2c0,0.2,0,0.5,0,0.7c0.1,0.5-0.3,0.8-0.5,1.1c-0.2,0.2-0.5,0.4-0.7,0.5
				c-0.4,0.1-0.7,0.3-1.1,0C99.2,446.5,99.9,445.7,101,445.2z"/>
			<path id="XMLID_1231_" class="st13" d="M102.6,442c0,0.2,0,0.4,0,0.6c-0.2,0-0.4,0.1-0.6,0.1c-0.2,0.1-0.5,0.2-0.7-0.1
				c-0.6-0.3-1.1-0.6-1.3-1.3c-0.1-0.3,0.1-0.4,0.3-0.5C101.2,441,101.9,441.5,102.6,442z"/>
			<path id="XMLID_1230_" class="st6" d="M123.9,465.5c-0.9,0.8-1.8,1.5-2.6,2.3c-0.1,0.1-0.3,0.1-0.4,0c0-0.1-0.1-0.1-0.1-0.2
				s0-0.1,0-0.2c0.3-0.6,0.8-1.1,1.3-1.5c0.4-0.3,0.8-0.7,1.4-0.6C123.7,465.3,123.8,465.4,123.9,465.5z"/>
			<path id="XMLID_1229_" class="st35" d="M107.9,473c0.1-0.1,0.2-0.2,0.3-0.3c0.2-0.2,0.4-0.2,0.6-0.1c0.1,0.1,0.2,0.2,0.3,0.3
				c0.1,0.5,0.5,0.7,0.8,0.9c0.4,0.3,0.4,0.6,0,0.8c-0.2,0-0.5,0-0.7,0c-0.2-0.1-0.4-0.2-0.7-0.3C108.2,473.9,107.3,473.8,107.9,473
				z"/>
			<path id="XMLID_1228_" class="st36" d="M101.3,442.6c0.2,0,0.4,0.1,0.7,0.1c-1,0.5-2,0.8-3,0c-0.2-0.5-1.3-0.9-0.3-1.7
				C99.3,442,99.8,443.2,101.3,442.6z"/>
			<path id="XMLID_1227_" class="st37" d="M98.7,441c-0.5,0.7,0.5,1.1,0.3,1.7c-1.4-0.9-1.5-2-0.6-3.3
				C98.8,439.9,98.3,440.5,98.7,441L98.7,441z"/>
			<path id="XMLID_1226_" class="st38" d="M98.6,447.5c0.4-0.1,0.7-0.2,1.1-0.3c-0.1,1.1-1.2,1.4-1.7,2.2c-0.3,0.2-0.5,0.3-0.9,0.1
				l0,0c-0.2-0.2-0.2-0.4,0-0.7C97.6,448.4,98.1,448,98.6,447.5z"/>
			<path id="XMLID_1225_" class="st39" d="M124.2,453.2c0.3,0,0.6-0.1,0.9-0.1c0.2,0.5,0.7,0.4,1.1,0.4c-0.7,0.4-1.5,0.6-2.3,0.7
				c-0.3,0.2-0.6,0.2-0.8-0.2c0-0.3,0.1-0.4,0.2-0.6C123.6,453.2,123.9,453.1,124.2,453.2z"/>
			<path id="XMLID_1224_" class="st40" d="M96.1,466.2c-1-0.3-0.4-1.1-0.6-1.7c0.1-0.5,0.2-1,0.7-1.3
				C96.1,464.2,96.1,465.2,96.1,466.2z"/>
			<path id="XMLID_1223_" class="st41" d="M129.4,462c0-0.1,0-0.3,0-0.4c0.9-0.4,1.6-1,2.6-1C131.3,461.4,130.4,461.8,129.4,462z"/>
			<path id="XMLID_1222_" class="st17" d="M126.9,476c-0.4-0.1-0.7-0.2-1.1-0.4c-0.1-0.5,0.3-0.6,0.5-0.9c0.5-0.3,1-0.3,1.4,0.2
				c0.1,0,0.2,0,0.3,0C127.7,475.3,127.3,475.6,126.9,476z"/>
			<path id="XMLID_1221_" class="st42" d="M111.4,466.1c0.4,0.1,0.7,0.2,0.5,0.7c-0.3,0.6-0.7,1-1.4,0.6c0-0.1-0.1-0.2-0.1-0.4
				C110.9,466.9,111.2,466.6,111.4,466.1z"/>
			<path id="XMLID_1220_" class="st43" d="M107.9,473c-0.1,0.6,0.5,0.9,0.6,1.3c-1.5-0.3-1.5-1.2-1-2.4
				C107.6,472.3,107.7,472.7,107.9,473z"/>
			<path id="XMLID_1219_" class="st44" d="M97.1,448.8c0,0.2,0,0.4,0,0.7c-0.7-0.2-0.7,1.4-1.6,0.7C95.9,449.6,96.3,449,97.1,448.8z
				"/>
			<path id="XMLID_1218_" class="st32" d="M123.9,465.5c-0.1,0-0.3,0-0.4,0c0.1-1,0.7-1.4,1.7-1.3c0.2,0,0.5,0,0.7,0
				C125.2,464.7,124.6,465.1,123.9,465.5z"/>
			<path id="XMLID_1217_" class="st45" d="M115.4,435.5c-0.5,0.3-1.1,0.4-1.6,0.3C114,434.4,114.7,435.1,115.4,435.5z"/>
			<path id="XMLID_1216_" class="st46" d="M100.6,471.7c-1-0.1-2,0.3-2.9-0.3c1.1,0,2.2,0,3.3,0
				C100.9,471.5,100.8,471.6,100.6,471.7z"/>
			<path id="XMLID_1215_" class="st36" d="M98.7,441c-0.5-0.5-0.2-1.1-0.3-1.6c0.1-0.3,0.4-0.4,0.6-0.4
				C98.9,439.7,98.8,440.4,98.7,441z"/>
			<path id="XMLID_1214_" class="st47" d="M120.9,467.8c0.1,0,0.2,0,0.4,0c0.2,0.4,0.6,0.2,1,0.3c-0.6,0.5-1.3,0.3-1.9,0.3
				C120.2,467.9,120.4,467.7,120.9,467.8z"/>
			<path id="XMLID_1213_" class="st48" d="M109.8,453.4c-0.2,0.1-0.4,0.3-0.6,0.4c-0.3-0.5-0.9-0.2-1.3-0.3c0.2-0.3,0.6-0.3,0.9-0.3
				C109.2,452.9,109.6,452.7,109.8,453.4z"/>
			<path id="XMLID_1212_" class="st49" d="M132.7,449.5c0,0.1,0,0.2,0,0.3h-0.1h-0.1c-0.6,0-1.1,0-1.7,0c0-0.1,0-0.2,0-0.3
				C131.4,449,132,449,132.7,449.5z"/>
			<path id="XMLID_1211_" class="st50" d="M103.3,442.3c0.3-0.3,0.6-0.3,1-0.3c0.2-0.2,0.5-0.2,0.6,0.1c0.1,0.3-0.1,0.5-0.3,0.6
				c-0.1,0-0.2,0-0.3,0C104.1,442.3,103.6,442.4,103.3,442.3z"/>
			<path id="XMLID_1210_" class="st51" d="M117,476.6c0-0.1,0.1-0.2,0.1-0.3c0.3-0.3,0.6-0.3,0.8-0.1c0.3,0.3,0.1,0.7-0.1,1
				c-0.1,0.1-0.3,0.2-0.5,0.1c0-0.1,0-0.1,0-0.2C117.2,477,117.1,476.8,117,476.6z"/>
			<path id="XMLID_1208_" class="st52" d="M114.6,441.6c-0.3,0.2-0.6,0.5-0.9,0.7c-0.7,0.5-1.4,1.1-2.3,1.3c-0.3,0-0.6,0-0.9-0.2
				c-0.3-0.8,0.4-0.9,0.7-1.3c0.9-0.5,1.9-0.8,2.9-1.2C114.6,441,114.6,441.3,114.6,441.6z"/>
			<path id="XMLID_1207_" class="st1" d="M111.4,443.3c0.8-0.3,1.4-0.9,2.3-1c-0.1,0.3-0.2,0.7,0.3,0.7c0.8,0,1.5,0,2.3,0l0.1,0.1
				c0.1,0.2,0,0.4-0.2,0.5c-1,0.3-2.1,0.4-3.2,0.6C112.4,444,111.6,444.3,111.4,443.3z"/>
			<path id="XMLID_1206_" class="st53" d="M114.6,441.6c-0.1-0.2-0.1-0.4-0.2-0.6c0.1-0.2,0.2-0.4,0.4-0.5c0.6-0.1,1.2-0.7,1.9-0.1
				c0,0.8-0.7,0.7-1.1,0.9C115.3,441.4,114.9,441.5,114.6,441.6z"/>
			<path id="XMLID_1205_" class="st1" d="M115.6,441.3c0.4-0.3,0.7-0.6,1.1-0.9c0.1-0.3,0.4-0.4,0.7-0.5c0.2,0,0.4,0,0.6,0.1
				C117.4,441,116.7,441.4,115.6,441.3z"/>
			<path id="XMLID_1204_" class="st15" d="M118,440c-0.2,0-0.4,0-0.6,0c0-0.1-0.1-0.1-0.1-0.2c0.1-0.5,0.4-0.8,0.9-1
				c0.2,0,0.3,0,0.4,0.1l0.1,0.1c-0.1,0.2-0.2,0.4-0.3,0.6C118.2,439.8,118.1,439.9,118,440z"/>
			<path id="XMLID_1203_" class="st49" d="M123.9,442.6c3.3-0.2,6.7-0.1,10,0.1c0,0.2,0,0.3-0.2,0.4c-0.9,0.4-2,0.4-3,0.5
				c-1.1,0-2.1,0.3-3.1,0.5c-0.5,0.1-0.6-0.8-1.2-0.6c-0.1,0-0.3,0.1-0.4,0.1c-0.9-0.3-1.9,0.1-2.7-0.5
				C123.4,442.8,123.4,442.4,123.9,442.6z"/>
			<path id="XMLID_1202_" class="st29" d="M136.2,443c1.4,1.1,2.2,2.4,1.4,4.2l-0.1-0.1c-0.4-0.2-0.8-0.4-1.1-0.7
				c-0.1-0.1-0.2-0.2-0.2-0.4c0-0.1,0-0.1,0-0.2c0.1-0.1,0.1-0.3,0.2-0.4c0.4-0.8-0.2-1.1-0.7-1.6c-0.3-0.2-0.5-0.3-0.5-0.7
				c0-0.2,0.1-0.3,0.2-0.4C135.6,443,135.9,443,136.2,443z"/>
			<path id="XMLID_1201_" class="st54" d="M123.9,442.6c-0.3,0.1-0.4,0.4-0.4,0.7c-0.8,0.7-1.8,0-2.6,0.1c-1.1,0-2.1,0.2-3.2,0.4
				c-0.2,0-0.3,0-0.5,0c-0.4-0.1-0.8-0.2-1-0.6c0-0.1,0.1-0.2,0.1-0.2c1.9-0.2,3.8-0.3,5.6-0.5C122.7,442.4,123.3,442.3,123.9,442.6
				z"/>
			<path id="XMLID_1200_" class="st31" d="M135.3,442.9c0,0.1,0,0.3,0,0.4c-0.4,0.4-0.8,0.1-1.2-0.2c0-0.1-0.1-0.1-0.1-0.2
				s0-0.2,0-0.3C134.4,442.6,134.9,442.6,135.3,442.9z"/>
			<path id="XMLID_1199_" class="st55" d="M102,459c1.2-0.4,2.3-1,3.3-2c0.5,0.2,1.2,0.6,1.3-0.1c0.4-1.6,2-1.5,2.9-2.5
				c0.3,0.2,0.5,0.5,0.5,0.9c0,0.1,0,0.3-0.1,0.4c-0.4,0.2-0.3,0.6-0.5,0.9c-0.5,0.9-1.4,0.9-2.1,1.2c-0.1,0.1-0.2,0.2-0.3,0.3
				c-0.3,1.3-1.6,0.7-2.2,1.2c-0.5,0.6-0.8,1.3-1.8,0.8c-0.5-0.2-0.6,0.4-0.8,0.6c-0.3,0.4-0.7,0.5-1.2,0.6
				c-0.6,0.3-0.8,1.4-1.8,1.1c-0.2,0-0.3-0.1-0.4-0.3c-0.1-0.9,0.9-1.4,1.2-1.5C101.1,460.6,101.4,459.7,102,459z"/>
			<path id="XMLID_1198_" class="st56" d="M97.7,465.5c0.2-0.2,0.4-0.4,0.7-0.6c0.1-0.1,0.2-0.1,0.4,0c0.4,2.1,0.6,2.2,2.9,2.1
				c0.6,0.2,1.3,0.3,1.2,1s-0.9,0.7-1.4,0.8c-0.4,0-0.7-0.1-1.1,0c-0.1,0.1-0.3,0.1-0.4,0.2c-0.4,0.1-0.7,0-1-0.4
				c0.1-0.5-0.1-0.6-0.5-0.6c-0.1-0.1-0.3-0.1-0.4-0.2C97.8,467,97.6,466.3,97.7,465.5z"/>
			<path id="XMLID_1197_" class="st57" d="M97.7,465.5c0.6,0.7,0.5,1.5,0.7,2.3c0,0.4,0,1-0.5,1c-0.6,0.1-0.6-0.6-0.8-1
				c-0.4-0.5-0.4-1.1-0.3-1.6C97.1,465.9,97.4,465.7,97.7,465.5z"/>
			<path id="XMLID_1196_" class="st58" d="M98.7,464.9c-0.1,0-0.2,0-0.3,0c0.3-0.5,0.2-1.1-0.1-1.3c-1-0.9-0.3-1.1,0.4-1.3
				c0.1,0,0.2,0,0.3,0c0.3,0.3,0.6,0.6,0.9,0.7c0.6,0.3,0.5,0.7,0.2,1.1C99.8,464.5,99.6,465.3,98.7,464.9z"/>
			<path id="XMLID_1195_" class="st59" d="M132,459.6c-1.3-0.1-2.4,0.6-3.6,0.7c-0.2,0.2-0.4,0.2-0.6,0.2c-0.8-0.4-1.6-0.2-2.4,0.2
				c-0.1,0.1-0.3,0.1-0.4,0.2c-1.4,0.7-3.1,0.4-4.2,1.7c-0.1,0.1-0.3,0.1-0.4,0c-0.2-0.9-0.6-1.7-0.6-2.6c0.1-0.3,0.4-0.5,0.6-0.7
				c0.4-0.5,0.8-1,1.5-0.9c0.2,0,0.3,0.1,0.4,0.1c0.5,0.4,0.4,0.8,0,1.2c0.8-0.3,0.8-1,0.8-1.7c0.2-0.4,0.6-0.6,1-0.9
				c1-1.4,2.8-1.6,4-2.6c0.5-0.4,1.2-0.1,1.7-0.4c0-0.1,0-0.2,0-0.3c0.8-0.4,1.6-0.1,2.4-0.4c0.5,0.5,1.3-0.1,1.9,0.4l0,0
				c1,1.3,0.3,2.8,0.5,4.2C134.6,458.8,133.2,459.5,132,459.6z"/>
			<path id="XMLID_1194_" class="st60" d="M128.1,454.7c-1.1,1.1-2.9,1.3-3.9,2.6c-0.4,0.2-0.8,0.3-1.2,0.2c-1-0.2-1.2,0.3-1.1,1.1
				c-0.7,0-1,0.5-1.3,1c-0.4,0.1-0.9,0.5-1-0.3c0.4-0.5,0.5-1,0.5-1.6c0.1-0.3,0.2-0.6,0.3-0.8c0.5-1.5,1.9-1.6,3.1-2
				c0.1,0,0.2,0,0.3,0c1.1,1,1.6,0.3,2-0.7c0.2,0,0.4,0,0.6,0C126.9,454.6,128,453.3,128.1,454.7z"/>
			<path id="XMLID_1193_" class="st61" d="M132,459.6c0.4-0.4,1-0.5,1.5-0.9c0.5-0.5,0.8-0.9,0.6-1.8c-0.3-1-0.1-2.1-0.1-3.2
				c0.6,0,0.8,0.5,1.3,0.7c0.9,1.9-0.1,3.4-1,4.9c-0.7,0.2-1.3,0.4-2,0.7C132.2,459.8,132.1,459.7,132,459.6z"/>
			<path id="XMLID_1192_" class="st62" d="M134.3,459.3c0.8-1.5,1-3.2,1-4.9c0.1,0,0.2,0,0.3,0C136.8,456.5,135.8,457.9,134.3,459.3
				z"/>
			<path id="XMLID_1191_" class="st30" d="M123.5,454.8c-0.8,1-2.4,0.9-3,2.2c-0.4,0.1-0.9,0.1-1.3,0.2c-0.3,0-0.6-0.2-0.7-0.5
				c0-0.1,0-0.3,0.1-0.4c0.4-0.3,0.9-0.4,1.3-0.7c0.4-0.2,0.9-0.4,1.3-0.7c0.3-0.1,0.7-0.3,1.1-0.4c0.3-0.1,0.6-0.1,0.9,0.2
				C123.3,454.7,123.4,454.8,123.5,454.8z"/>
			<path id="XMLID_1190_" class="st63" d="M128.1,454.7c-0.3-0.2-0.5-0.7-1.1-0.3c-0.4,0.3-0.4,0.3-0.6-0.4c1.1-0.5,2.2-0.5,3.3,0
				C129.3,454.5,128.7,454.6,128.1,454.7z"/>
			<path id="XMLID_1189_" class="st63" d="M125.8,454.1c0.1,0.7-0.1,1.2-0.9,1.4c-0.8,0.2-1-0.2-1.1-0.8
				C124.7,455,125.3,454.7,125.8,454.1z"/>
			<path id="XMLID_1188_" class="st64" d="M134,453.7c-0.6-0.3-1.5,0.9-2-0.3c0-0.1-0.1-0.1-0.1-0.2s0.1-0.1,0.1-0.2
				C132.8,452.8,133.6,452.8,134,453.7z"/>
			<path id="XMLID_1187_" class="st65" d="M123.1,454.7c-0.3,0-0.6,0-0.9,0.1c-0.4,0.2-0.6,0-0.8-0.3c-0.1-0.2,0-0.3,0-0.4
				c0.1-0.1,0.2-0.2,0.4-0.2c0.4-0.1,0.9-0.3,1.3,0c0.2,0.1,0.5,0.2,0.7,0.3C123.6,454.3,123.4,454.5,123.1,454.7z"/>
			<path id="XMLID_1186_" class="st64" d="M132,453.4c-0.6,1.2-1.5,0.2-2.3,0.3c0.1-0.1,0.2-0.2,0.3-0.3
				C130.7,453.2,131.4,453.2,132,453.4L132,453.4z"/>
			<path id="XMLID_1185_" class="st63" d="M132,453.4c-0.7,0-1.3,0-2,0c0.6-0.6,1.3-0.2,2-0.3C132,453.2,132,453.3,132,453.4z"/>
			<path id="XMLID_1184_" class="st30" d="M101.7,454.4c-0.3,0.4-0.8,0.7-1.2,0.6c-1.2-0.1-2,0.5-2.7,1.3c-0.6,0.2-1.2,1-2,0.4
				c-0.1-0.1-0.2-0.2-0.2-0.4c0.4-1,1.9-0.8,2-2c0.2-0.4,0.4-0.7,0.8-0.8C99.5,453.9,100.6,454,101.7,454.4z"/>
			<path id="XMLID_1183_" class="st2" d="M95.8,456.4c0,0.1,0,0.2,0,0.3c-0.5-0.1-1.2,0.2-1.3-0.7c0.2,0,0.4,0,0.7,0
				C95.4,456,95.6,456.2,95.8,456.4z"/>
			<path id="XMLID_1182_" class="st66" d="M118,481.8c0.9,0.7,2.1-0.1,2.9,0.6C119.7,483.4,118.7,483.2,118,481.8z"/>
			<path id="XMLID_1181_" class="st64" d="M101.7,454.4c-1.2,0.4-2.3-0.1-3.3-0.7c-0.1-0.4,0.2-0.5,0.5-0.7c0.7-0.4,1.3-0.1,1.9,0.3
				c0.8,0.4,1.6-0.5,2.4-0.1c0.1,0.1,0.1,0.1,0.2,0.2C102.8,453.8,102.2,454.1,101.7,454.4z"/>
			<path id="XMLID_1180_" class="st62" d="M105.2,453.4c-0.6,0.5-1.3,0.1-1.9,0l0,0c0.7-1.3,1.9-1.3,3.2-1.1
				C106.5,453,106.5,453,105.2,453.4z"/>
			<path id="XMLID_1179_" class="st67" d="M108.9,452.8c-0.4,0-0.7,0-1.1,0c-0.1-0.5,0.3-0.7,0.5-1c0.1-0.1,0.2-0.1,0.4-0.1
				c0.5,0.1,0.9,0.4,1.3,0.7c0.2,0.2,0.2,0.4,0,0.6C109.6,452.9,109.3,453,108.9,452.8z"/>
			<path id="XMLID_1178_" class="st62" d="M108.5,451.8c0.1,0.5-0.5,0.6-0.7,1c-0.3,0.1-0.6,0.2-0.9,0.3c-0.2-0.2-0.2-0.5-0.2-0.7
				C107.1,451.6,107.8,451.6,108.5,451.8z"/>
			<path id="XMLID_1177_" class="st3" d="M106.9,452.4c0,0.2,0,0.4,0,0.6c-0.5,0.3-1.1,0.4-1.7,0.3c0.4-0.3,0.9-0.6,1.3-1
				C106.7,452.3,106.8,452.3,106.9,452.4z"/>
			<path id="XMLID_1176_" class="st68" d="M108.9,452.8c0.4,0,0.8-0.1,1.2-0.1c0.1-0.1,0.2,0,0.3,0.1c0,0.4-0.4,0.5-0.7,0.6
				c-0.3-0.3-0.7-0.2-1-0.3C108.8,453,108.8,452.9,108.9,452.8z"/>
			<path id="XMLID_1175_" class="st69" d="M103.9,438.4c0.5-0.1,1.1-0.2,1.6-0.3c0.6-0.2,0.8,0.2,1.1,0.6c0.1,0.4-0.3,0.9,0.3,1.2
				c0.2,0.2,0.4,0.4,0.6,0.6c0.7,0.3,1.6,0.3,2.3,0.6c0.1,0.1,0.3,0.1,0.4,0.2c0.1,0.3,0,0.6-0.1,0.8c0.1,0.4-0.8,0.1-0.4,0.7
				c0,0.5-0.1,0.9-0.4,1.2c-0.4,0.2-0.7,0.1-1.1-0.1c-0.1-0.1-0.2-0.2-0.3-0.3c0-0.1,0-0.1-0.1-0.2c0-0.1,0-0.1,0-0.2
				c0.3-0.9-0.8-0.5-1-1c0-0.7-0.5-1.2-1-1.6c-0.4-0.4-0.8-0.8-1.3,0.1c-0.3,0.5-1,0.6-1.6,0.5c-0.3,0-0.7,0-0.8-0.4
				c-0.1-0.3,0.1-0.5,0.3-0.7c0.4-0.4,0.8-0.9,1.1-1.4C103.5,438.6,103.7,438.5,103.9,438.4z"/>
			<path id="XMLID_1174_" class="st30" d="M109.2,437.1c0.5,0,1.1,0,1.6,0c0.4,0.1,0.9-0.3,1.3,0l0,0c0.2,0.2,0.6,0.1,0.7,0.3
				c0,0.1,0,0.3-0.1,0.4c-0.4,0.4-0.8,0.6-1.2,0.8c-0.5,0.2-0.9,0.3-1.3,0.6c-0.3,0.2-0.6,0.4-1,0.3c-0.3,0-0.6-0.1-0.9-0.2
				c-0.2,0-0.4-0.1-0.6-0.2c-0.3-0.1-0.5-0.3-0.6-0.6C107.2,437.4,108.7,437.9,109.2,437.1z"/>
			<path id="XMLID_1173_" class="st27" d="M109.2,437.1c-0.1,0.3,0.2,0.8-0.5,0.7c-0.6-0.1-1.1,0.3-1.4,0.9c-0.2,0.2-0.4,0.2-0.6,0
				c-0.3-0.2-0.7-0.4-1-0.7C106.6,437.1,108,437.4,109.2,437.1z"/>
			<path id="XMLID_1172_" class="st13" d="M103.9,438.4c-0.1,0.1-0.2,0.2-0.3,0.3c-0.9,0.6-1.7,1.2-2.9,0.8
				c-0.2-0.1-0.2-0.3-0.1-0.5C101.7,438.4,102.8,438.2,103.9,438.4z"/>
			<path id="XMLID_1171_" class="st67" d="M100.7,439.1c0,0.1,0,0.2,0,0.3c0,0.6,0.5,1.2-0.3,1.6c-0.1,0.1-0.2,0.2-0.3,0.3
				c-0.9-0.8,0.4-1.7-0.2-2.5C100.1,438.9,100.4,439,100.7,439.1z"/>
			<path id="XMLID_1170_" class="st70" d="M112.7,437.8c0-0.1,0-0.2,0-0.3c-0.2-0.4,0.2-0.7,0.3-1c0.5-0.1,1.2,0.2,1.6-0.3
				c0.1,0,0.2,0,0.3,0C114.9,437.6,113.8,437.7,112.7,437.8z"/>
			<path id="XMLID_1169_" class="st3" d="M112.1,437.1c-0.4-0.1-0.9,0.6-1.3,0C111.2,436.7,111.7,436.6,112.1,437.1z"/>
			<path id="XMLID_1168_" class="st3" d="M113.1,436.5c-0.1,0.3-0.2,0.6-0.3,1c-0.3,0-0.5-0.1-0.6-0.3
				C112.4,436.9,112.8,436.7,113.1,436.5z"/>
			<path id="XMLID_1167_" class="st71" d="M111.4,465.8c-0.3,0.1-0.6,0.2-1,0.3c-0.3,0-0.6-0.1-0.9-0.2c-0.9-0.4-1.9-0.7-2.8-0.9
				c-0.5-0.1-0.8-0.2-0.7-0.8c0.2-0.5,0.6-0.7,1.1-0.9c0.5-0.1,0.9,0,1.4,0.1c0.6,0.3,1.2,0,1.8-0.1c1.2-0.3,2.3-0.8,3.5-0.9
				c0.9-0.1,1.6,0,1.8,1.1c0,0.2-0.1,0.4-0.3,0.6c-0.5,0.6-1.1,0.9-1.8,1C112.8,465.4,112.1,465.6,111.4,465.8L111.4,465.8z"/>
			<path id="XMLID_1166_" class="st72" d="M100,468.4c0.8-0.7,1.9,0.6,2.7-0.7c0-0.5-0.9-0.2-1.1-0.6c-0.1-0.1-0.1-0.2-0.1-0.3
				c0-0.1,0-0.1,0.1-0.1c0.7-0.5,1.6-0.4,2.4-0.8c1.6,0.2,0.8,1.4,0.9,2.2l0,0c-0.4,0.3-0.8,0.5-1,1c-0.1,0.1-0.2,0.2-0.3,0.3
				c-0.5,0.2-1.2-0.1-1.7,0.3c-0.5,0.1-1,0.3-1.5,0.1C99.9,469.5,100.5,468.8,100,468.4z"/>
			<path id="XMLID_1165_" class="st73" d="M100.3,469.7c0.5-0.1,1.1-0.2,1.6-0.3c0.2,0.2,0.5,0.1,0.7,0.3c0,0.1,0,0.2,0,0.3
				c-0.8,0.5-1.7,0.8-2.6,0.7c-0.9-0.1-2.1,0.1-2.3-1.5c0-0.4-0.7-0.3-1-0.6c-0.5,0.1-0.7-0.1-0.6-0.6c0.3,0,0.7,0,0.9-0.4
				c0.4,0.6,0.9,1,1.3,0l0,0c0.2,0.2,0.5,0.4,0.7,0.7c0.3,0.1,0.7,0.2,1,0.3c0.3,0.3,0.1,0.6,0.1,1c0,0.2,0.2,0.3,0.1,0.1
				C100.1,469.6,100.5,469.9,100.3,469.7z"/>
			<path id="XMLID_1164_" class="st57" d="M109.8,465.8c0.3,0,0.5,0.1,0.7,0.3c-1.6,0.6-3,1.9-4.9,1.6c-0.7-0.5-0.8-1,0-1.5
				c0.1,0,0.3,0,0.4,0.1c0.2,0.1,0.3,0.4,0.5,0.1c0.2-1,0.6-1.7,1.7-0.9C108.7,466.1,109.3,465.5,109.8,465.8z"/>
			<path id="XMLID_1163_" class="st74" d="M105.9,466.5c-1.1,0.2-0.5,0.8-0.3,1.3c-0.1,0.2-0.1,0.5-0.2,0.7
				c-0.2-0.1-0.3-0.2-0.5-0.4c0.2-0.4-1.4-0.4-0.2-1.2c0.4-0.3-0.3-0.7-0.7-0.8c-0.1-0.1-0.1-0.3-0.1-0.4c0.2-0.3,0.5-0.6,0.9-0.7
				C105.4,465.3,106,465.6,105.9,466.5z"/>
			<path id="XMLID_1162_" class="st19" d="M103.9,469.1c-0.1-0.7,0.2-1.1,1-1C104.9,468.8,104.3,468.9,103.9,469.1z"/>
			<path id="XMLID_1161_" class="st19" d="M102.6,469.8c-0.3,0-0.5-0.1-0.7-0.3c0.5-0.5,1.1-0.1,1.6,0
				C103.4,469.8,103,469.7,102.6,469.8z"/>
			<path id="XMLID_1160_" class="st75" d="M127.7,474.9c-0.4,0-0.8-0.3-1.3,0c-0.1-0.1-0.2-0.3-0.2-0.4c0.6-0.7,0.2-1.7,0.8-2.4
				c0.3-0.3,0-0.3-0.2-0.4c-0.3-0.2-0.7-0.4-0.7-0.7c0-1.8-1.5-1.3-2.4-1.7c0.1-0.2-0.9-0.9,0.3-0.7c0.5,0.1,0.8-0.1,1.1-0.5
				c0.2,0,0.4,0,0.6-0.1c1.4,0.7,3,1.3,3.1,3C128.9,472.4,128.6,473.8,127.7,474.9z"/>
			<path id="XMLID_1159_" class="st3" d="M117.6,477.2c0.2-0.5,0.4-1-0.5-0.9c-1.3,0.4-2.5-0.1-3.6-0.7c-0.1-0.1-0.1-0.2-0.1-0.4
				c0.1-0.2,0.2-0.4,0.4-0.5s0.4-0.2,0.6-0.3c1.2,0.2,2.2,1.4,3.5,1c0.3,0,0.6,0,0.9,0.2s0.4,0.4,0.4,0.7c0,0.1-0.1,0.3-0.2,0.4
				c-0.3,0.3-0.6,0.5-1.1,0.6C117.8,477.4,117.6,477.3,117.6,477.2z"/>
			<path id="XMLID_1158_" class="st76" d="M109.9,474.6c0.1-0.3,0.1-0.6-0.4-0.6c-0.8-0.1-0.9-0.6-0.7-1.3c1.8-0.5,2-0.3,1.8,1.8
				c-0.1,0.1-0.1,0.1-0.2,0.2C110.3,474.6,110.1,474.6,109.9,474.6z"/>
			<path id="XMLID_1157_" class="st26" d="M113.4,475.3c0,0.1,0,0.2,0,0.3c-0.7,0.5-1.3,0.5-2,0c-0.1-0.1-0.1-0.3,0-0.4
				C112.1,474.9,112.8,475.1,113.4,475.3z"/>
			<path id="XMLID_1156_" class="st35" d="M111.4,475.3c0,0.1,0,0.2,0,0.3c-0.7,0.1-1-0.2-1-1v-0.1c0.1-0.1,0.2-0.1,0.4-0.1
				C111.1,474.7,111.4,474.9,111.4,475.3z"/>
			<path id="XMLID_1155_" class="st49" d="M122.9,480.2c0,0.1,0,0.2,0,0.3c-0.6,0.5-1.1,1.1-1.9,1c-0.1-0.1-0.2-0.2-0.2-0.3
				c0.1-0.4-0.3-0.7,0-1.1C121.5,479.4,122.2,479.2,122.9,480.2z"/>
			<path id="XMLID_1154_" class="st77" d="M120.6,480.2c0.2,0.3,0.7,0.5,0.3,1c-0.3,0.2-0.7,0.3-1,0c-1,0.1-1-0.6-1-1.3
				c0-0.1,0-0.2,0-0.3c0.1-0.1,0.2-0.1,0.4-0.1c0.3,0.2,0.7,0.4,1.1,0.6C120.5,480.1,120.5,480.1,120.6,480.2z"/>
			<path id="XMLID_1153_" class="st31" d="M119.9,481.2c0.3,0,0.7,0,1,0c0,0.1,0,0.2,0,0.3C120.5,481.7,120,482,119.9,481.2z"/>
			<path id="XMLID_1152_" class="st78" d="M112.7,437.8c0.8-0.5,1.7-0.7,2.3-1.6c0.1,0,0.2-0.1,0.3-0.1c0.3-0.2,0.6,0,0.8,0.1
				c0.5,0.3,0.5,1,1.1,1.2c0.1,0.1,0.2,0.2,0.3,0.3c0.8,1.4-0.7,1.7-1.2,2.4c-0.2,0.1-0.4,0.1-0.6,0.1c-1.1,0.1-2.1,0-3.1,0.5
				c-0.1,0-0.3,0.1-0.4,0.1c-0.5-0.1-1.1-0.2-1.6,0c-0.1,0-0.3,0.1-0.4,0.1c-0.8,0.1-1.5-0.2-2.3-0.3c-0.1-0.1-0.1-0.3,0-0.4
				c0.1-0.1,0.1-0.3,0.2-0.4c0.3-0.4,0.8-0.3,1.1-0.5c0.3-0.1,0.6-0.2,1-0.3c0.4-0.2,1-0.1,1.3-0.6
				C111.9,438.2,112.2,437.7,112.7,437.8z"/>
			<path id="XMLID_1151_" class="st70" d="M116,436.5c-0.2-0.1-0.4-0.2-0.6-0.3c1.4-0.6,2.4-0.2,2.9,1.3c-0.3,0.3-0.6,0.3-0.9,0.2
				C116.9,437.2,116.7,436.5,116,436.5z"/>
			<path id="XMLID_1150_" class="st79" d="M117.3,437.4c0.3,0,0.6,0,1,0c0.3,0.5,0.4,1,0.3,1.6h-0.2h-0.2c-0.6-0.2-0.3-1.1-0.9-1.3
				l0,0c-0.1-0.1-0.1-0.1-0.1-0.2C117.3,437.5,117.3,437.4,117.3,437.4z"/>
			<path id="XMLID_1149_" class="st80" d="M126.5,474.6c0,0.1,0,0.2,0,0.3c-0.2,0.2-0.4,0.4-0.7,0.6c-0.2,0.2-0.4,0.4-0.6,0.6
				c-0.8,0.4-1.7,0.3-2.5,0c0.2,0.1-0.1,0,0,0c1.3,0.4,2.2,0.8,0.4,1.9c-0.9,0.2-1.7,0.2-2.6,0.1c-0.9-0.1-1.8-0.5-1-1.7
				c0.3-0.9-0.7-0.5-0.9-0.8c-0.1-0.2-0.2-0.4-0.1-0.6c0.2-0.5,0.8-0.8,0.8-1.4c0-0.5,0.2-1.1,1-0.9c0.5,2.3,0.5,2.3,3.7,1.6
				C124.8,474.2,125.7,474,126.5,474.6z"/>
			<path id="XMLID_1148_" class="st74" d="M119.9,476.6c-1.4,1.1,0,1.2,0.6,1.3c0.9,0.1,1.8,0,2.7,0c0.1-0.1,0.2-0.1,0.3,0
				c0.3,0.4,0.9,0.7,0,1.1c-0.4,0.2-0.7,0.6-0.7,1.1c-0.8-0.7-1.5-0.2-2.3,0l0,0c-0.4-0.8-1.2-1.3-1.9-1.9c-0.5-0.6-0.5-1.2,0.2-1.7
				l0,0C119.3,476.2,119.6,475.8,119.9,476.6z"/>
			<path id="XMLID_1147_" class="st74" d="M123.5,477.9c-0.1,0-0.2,0-0.3,0c0.6-0.5,0.9-1.1-0.2-1.3c-0.5-0.1-1-0.1-1.6-1
				c1.4,0.8,2.6,0.3,3.7,0.7C124.8,477,124.4,477.7,123.5,477.9z"/>
			<path id="XMLID_1146_" class="st81" d="M99,453.4c-0.3,0-0.5,0.1-0.7,0.3c-0.2,0.2-0.4,0.4-0.6,0.7c-0.2,0.2-0.3,0.4-0.6,0.6
				c-1.4,1.1-1.6,1-2.4-0.6c-0.9-0.8,0.5-1.3,0.3-1.9c0.4,0,0.9,0,1.3,0c0.2-0.2,0.4-0.3,0.6-0.4c0.8-0.2,1.6-0.7,2.4-0.9
				c1.1-0.2,1.5,0.2,1.3,1.3c-0.4,0.2-0.8,0.1-1.2,0.3C99.3,452.9,99.2,453.2,99,453.4z"/>
			<path id="XMLID_1145_" class="st82" d="M94.8,454.4c1,1.8,2,0.1,2.9,0c0.2,0.5,0.4,0.8-0.3,1.1c-0.6,0.2-1.1,0.6-1.6,0.9
				c-0.3,0-0.5-0.1-0.7-0.3C95.2,455.4,94.3,455.1,94.8,454.4z"/>
			<path id="XMLID_1144_" class="st46" d="M96.2,468.2c0.2,0.2,0.4,0.4,0.6,0.6c0,0.4,0,0.9,0,1.3c-0.3-0.2-0.6-0.4-1-0.7
				c0.2-1-0.4-2,0.3-3C96.1,467,96.1,467.6,96.2,468.2z"/>
			<path id="XMLID_1143_" class="st46" d="M97.7,471.4c-0.8,0-1-0.6-1-1.3C97.8,470,97.8,470.7,97.7,471.4z"/>
			<path id="XMLID_1142_" class="st61" d="M127.8,460.3c0.2,0,0.4,0,0.7,0c-0.2,0.4-0.4,0.8-0.3,1.3c-0.3,0.1-0.3,0.4-0.3,0.7
				c-1.4,0.1-2.5,1.2-3.8,1.5c-0.1,0.2-0.9-0.5-0.6,0.4c0.4,1.3-1,1.4-1.4,2.1c-0.7,0.1-0.7,0.8-1,1.2l0,0c-0.3,0.2-0.7,0.1-1,0
				c-0.1-0.1-0.2-0.1-0.3-0.2c-0.1-0.5-0.1-1,0-1.5c0.2-0.4,0.6-0.6,0.8-1c0.4-0.6,1-0.4,1.5-0.3c-0.7-0.2-1.2-0.2-1.7,0.4
				c-0.5,0.3-0.9,0.1-1.3-0.2c-0.4-0.5-1.2-0.9-0.1-1.5c0.6-0.3,1.3-0.4,1.9-0.7l0,0c1.6-0.5,3.2-0.9,4.6-2l0,0
				C126,460.7,126.8,459.6,127.8,460.3z"/>
			<path id="XMLID_1141_" class="st83" d="M109.8,455.4c-0.1-0.3-0.2-0.6-0.3-1c0.3,0,0.5-0.1,0.7-0.3c0.5-0.3,0.9-0.1,1.2,0.3
				C111.6,455.8,111.3,455.9,109.8,455.4z"/>
			<path id="XMLID_1140_" class="st84" d="M111.1,454.4c-0.3-0.1-0.6-0.2-1-0.3c0.2-0.4,0.4-0.8,0.7-1.2c0.1-0.2,0.3-0.3,0.6-0.4
				c0.2,0,0.5,0,0.7,0.1c0.1,0.1,0.2,0.2,0.2,0.4c-0.1,0.4-0.3,0.7-0.5,1C111.6,454.2,111.5,454.6,111.1,454.4z"/>
			<path id="XMLID_1139_" class="st85" d="M111.4,452.8c-0.2,0-0.4,0.1-0.6,0.1c-0.1,0-0.2-0.1-0.4-0.1c-0.1,0-0.2,0-0.3-0.1
				s-0.2-0.2-0.4-0.3c0-0.4,0.3-0.6,0.6-0.7c0.5-0.1,1-0.4,1.3,0.1C112,452.2,111.7,452.5,111.4,452.8z"/>
			<path id="XMLID_1138_" class="st49" d="M130.7,449.8c-1,0.9-2.4,0.8-3.6,1.3c-0.1,0-0.1-0.1-0.2-0.1c-0.2-0.2-0.3-0.4-0.2-0.6
				c0.3-0.7,1.4-0.4,1.7-1C129.3,449.3,130.1,449.2,130.7,449.8L130.7,449.8z"/>
			<path id="XMLID_1137_" class="st63" d="M127.1,451.1c-0.6,0.7-1.5,1-2.3,1.3c-0.4-0.1-0.8-0.2-0.8-0.7
				C125.4,450.1,125.4,450.1,127.1,451.1L127.1,451.1z"/>
			<path id="XMLID_1136_" class="st19" d="M124.2,451.8c0.2,0.2,0.4,0.4,0.6,0.6c-0.2,0.1-0.4,0.2-0.6,0.4c-0.6,0.4-1.3,0.5-2,0.2
				c-0.7-0.5-0.6-0.9,0.1-1.2C122.9,451.6,123.5,451.4,124.2,451.8z"/>
			<path id="XMLID_1135_" class="st63" d="M122.2,452.8c0.7,0,1.3,0,2,0c0,0.1,0,0.3,0,0.4c-0.1,0.3-0.4,0.3-0.6,0.3
				c-0.5,0.1-1,0.4-1.5,0.4c-0.2-0.1-0.2-0.2-0.3-0.3C121.8,453.2,122,453,122.2,452.8z"/>
			<path id="XMLID_1134_" class="st86" d="M100.3,452.4c0.3-0.2,0.7-0.3,0.3-0.7c-0.4-0.4-1-0.4-1.4-0.2c-0.7,0.4-1.4,0.7-2.2,0.9
				c-0.4-0.5-0.4-1.1-0.3-1.6c0.1,0,0.2,0,0.3,0c0.2-0.5,0.2-1.2,0.7-1.6c0.7-0.7,1.3-1.3,2-2c0.2-0.1,0.4-0.2,0.6-0.3
				c0.3-0.2,0.6-0.3,0.9-0.4c0.6-0.1,1.1-0.4,1.7,0c0.2,0.2,0.1,0.4,0,0.6c-0.3,0.3-0.6,0.4-1,0.5c-1.9,0.8-2,1.2-1,2.8
				c0.8-0.8,1.8-1.3,2.7-1.7c0.4-0.2,0.9-0.2,1.3-0.4c0.9-0.2,1.8-0.5,1.2,1c-0.2,0.1,0.1,0.1-0.1,0.1c-2.7,0.4-3.8,2.7-5.4,4.4
				c-0.5-0.3-1-0.9-1.6-0.3c0-0.4-0.1-0.7,0.3-1C99.7,452.7,100,452.4,100.3,452.4z"/>
			<path id="XMLID_1133_" class="st71" d="M97.7,449.2c0.1,0.4-0.5,0.8,0,1.3c0.2,0.2,0.4,0.5-0.1,0.5c-0.2,0-0.4-0.1-0.6-0.2
				c-0.3-0.4-0.3-0.9,0-1.3C97.3,449.4,97.5,449.3,97.7,449.2z"/>
			<path id="XMLID_1132_" class="st71" d="M96.8,450.8c0.3,0.5,0.4,1.1,0.3,1.6c-0.2,0-0.4,0-0.6,0
				C96.5,451.9,96.2,451.3,96.8,450.8z"/>
			<path id="XMLID_1131_" class="st19" d="M121.9,466.1c0.3-0.7,1.4-0.9,1.3-2c0.1-0.3,0.4-0.5,0.7-0.6c1.3-0.4,2.2-2.2,3.9-1.3
				c0,0.8-0.7,0.7-1.1,0.9c-0.6,0.2-1.2,0.5-1.5,1.1c-0.7,0.3-1.3,0.6-1.7,1.3c-0.6,0-0.8,0.5-1.3,0.7
				C122.1,466.3,122,466.3,121.9,466.1z"/>
			<path id="XMLID_1130_" class="st55" d="M110.8,474.6c-0.1,0-0.2,0-0.3-0.1c0-1.1-0.1-2.1-1.6-1.9l0,0c-0.4-0.4,0.3-0.9,0-1.3
				c0.3-0.7,0.6-1.3,1-2c1,0.4,1-1.3,2-1c0.1,0.1,0.2,0.2,0.2,0.4c0,0.1,0,0.2,0,0.3c-0.8,1-1,2-0.3,3.1c0.2,0.8,1.3,1,1.4,2
				c0.1,0.3,0,0.7-0.3,0.9C112,475.3,111.4,475.1,110.8,474.6z"/>
			<path id="XMLID_1129_" class="st71" d="M111.8,468.8c0-0.1,0-0.2,0-0.3c0.3-0.6,1-1.1,1-2c0.2-0.2,0.4-0.2,0.6-0.2
				c0.3,0.1,0.6,0.2,0.7,0.5c0.1,0.4-0.2,0.7-0.4,1c-0.3,0.5-0.5,1.1-1,1.5C112.3,469.4,112,469.1,111.8,468.8z"/>
			<path id="XMLID_1128_" class="st21" d="M111.4,465.8c0.7-0.3,1.1-1,2-1c0.2,0.2,0.2,0.4,0.2,0.6c-0.1,0.2-0.2,0.4-0.3,0.6
				c-0.3,0.2-0.5,0.3-0.8,0.1C112.2,465.8,111.8,465.8,111.4,465.8z"/>
			<path id="XMLID_1127_" class="st87" d="M112.4,466.2c0.3,0,0.5-0.1,0.7-0.3c0.3-0.2,0.6-0.2,0.7,0.2c0.1,0.3-0.1,0.5-0.4,0.5
				c-0.2,0-0.4,0-0.6,0C112.6,466.4,112.5,466.3,112.4,466.2z"/>
			<path id="XMLID_1126_" class="st62" d="M103,446.6c-0.5,0.1-1.1,0.2-1.6,0.3c-0.1-0.3-0.1-0.7,0-1s0.3-0.5,0.6-0.7
				c0.5-0.4,1.2-0.5,1.6-1l0,0c0.4-0.3,0.6,0.6,1,0.2c0.2-0.3,0-0.8,0.5-1c1.5,0,1.5,0,1.3,1.9C105.4,446.5,104.2,446.6,103,446.6z"
				/>
			<path id="XMLID_1125_" class="st69" d="M106.2,445.3c-0.2,0-0.5-0.1-0.4-0.3c0.8-1.3,0.1-1.3-0.9-1.3c-0.1-0.1-0.1-0.1-0.1-0.2
				s0.1-0.1,0.1-0.1c0.3-0.1,0.3-0.4,0.3-0.6c0.5,0,0.9-0.1,1.3-0.3c0.1,0,0.1,0.1,0.2,0.1c0.4,0.2,1.3-0.1,1.1,0.9l0,0
				c-0.3,0.2-0.3,0.6-0.4,0.9c-0.2,0.2-0.2,0.4-0.1,0.6c-0.1,0.4-0.5,0.5-0.9,0.5C106.4,445.3,106.3,445.3,106.2,445.3z"/>
			<path id="XMLID_1124_" class="st88" d="M104.9,444.6c-0.2,0.3-0.2,0.8-0.7,0.8c-0.6-0.1-0.1-0.9-0.7-1.1
				c-0.4-0.8,0.2-0.6,0.7-0.7C104.7,443.8,104.8,444.2,104.9,444.6z"/>
			<path id="XMLID_1123_" class="st88" d="M103.6,444.3c-0.2,0.9-0.9,0.9-1.6,1C102.3,444.6,102.8,444.2,103.6,444.3z"/>
			<path id="XMLID_1122_" class="st89" d="M101.3,445.9c0.2,0.3,0.2,0.7,0,1c-0.3,0-0.7,0-1,0c0-0.5,0.5-0.6,0.7-0.9
				C101.1,445.9,101.2,445.9,101.3,445.9z"/>
			<path id="XMLID_1121_" class="st90" d="M104.6,442.7c0.2-0.4,0.2-0.7-0.3-0.7c0.3-0.3,0.6-0.4,1-0.2c0.4,0.2,0,0.5,0,0.8
				C105,442.6,104.8,442.6,104.6,442.7z"/>
			<path id="XMLID_1120_" class="st91" d="M104.9,444.6c-0.2-0.3-0.4-0.7-0.7-1c0.2-0.1,0.4-0.2,0.7-0.3c0,0.1,0,0.2,0,0.3
				C104.8,444,105.3,444.3,104.9,444.6z"/>
			<path id="XMLID_1119_" class="st21" d="M108.8,471.4c0.6,0.4,0.2,0.9,0,1.3c-0.2,0-0.4,0-0.6,0
				C108,472.1,108.5,471.7,108.8,471.4z"/>
			<path id="XMLID_1118_" class="st59" d="M126.5,474.6c-1,0-2,0-2.9,0c-0.7,0.2-1.5,0.4-2-0.3c-0.4-0.7-0.1-1.3,0.6-1.8
				c0.3-0.2,0-0.6,0-0.9s0.1-0.6,0.2-0.8c0.1-0.1,0.2-0.2,0.3-0.3c0.5-0.2,0.6-0.8,0.9-1.1c0.1,0,0.2,0,0.3,0c0.7-0.6,1.4,0,2.1,0.1
				c1.2,0.2,0.9,0.7,0.5,1.4c0,0.1,0.5,0.5,0.8,0.7c0.2,0.1,0.4-0.6,0.7-0.2c0.2,0.4-0.1,0.7-0.4,0.9c-0.4,0.2-0.7,0.3-0.3,0.9
				C127.6,473.9,126.8,474.2,126.5,474.6z"/>
			<path id="XMLID_1117_" class="st74" d="M121.9,468.8c0.4,0.2,0.9,0.4,1.3,0.7c0.2,0.6-0.3,0.9-0.7,1.3l0,0
				c-1.8,0.7-2,0.7-2.3-0.8C120.2,468.7,121.3,469.1,121.9,468.8z"/>
			<path id="XMLID_1116_" class="st92" d="M121.9,468.8c-0.4,0.5-1.6,0.2-1.3,1.3c-0.2,0.2-0.4,0.2-0.6,0.2
				c-0.6-0.2-0.9-0.6-0.8-1.2c-0.1-0.8,0-1.5,0.8-1.9c0.3,0.1,0.6,0.2,1,0.3c0,0.1,0,0.2,0,0.3c-0.2,0.2-0.4,0.4-0.6,0.6
				C120.7,469,121.3,468.7,121.9,468.8z"/>
			<path id="XMLID_1115_" class="st93" d="M122.5,470.7c-0.1-0.6,0.3-0.9,0.7-1.3c0.1,0,0.2,0,0.3,0
				C123.5,470.1,123.6,470.8,122.5,470.7z"/>
			<path id="XMLID_1114_" class="st70" d="M118.9,476.6c-0.4,0.5-0.4,1.1,0,1.6c0,0.5,1.2,0.6,0.3,1.3c-0.1,0-0.2,0-0.3,0
				c-0.3-0.2-0.6-0.4-1-0.7c-0.3-0.5-0.2-1.1,0-1.6C118.1,476.8,118.5,476.6,118.9,476.6z"/>
			<path id="XMLID_1113_" class="st8" d="M118,477.3c0.5,0.5,0.1,1.1,0,1.6c-0.5-0.4-0.7-0.9-0.7-1.5c0.1-0.1,0.2-0.1,0.3-0.1
				C117.7,477.2,117.8,477.2,118,477.3z"/>
			<path id="XMLID_1112_" class="st94" d="M100.3,441c0.4-0.5-0.4-1.2,0.3-1.6c1.1,0.2,1.9-0.7,2.9-0.7c0.1,1-0.7,1.5-1.3,2.1
				c1.7,0.4,1.7,0.4,2.4-1.6c0.7,1.1,2.3,1.6,2.2,3.2c-0.1,0.1-0.2,0.1-0.3,0l0,0c-0.2-1-0.6-1.4-1.7-1c-0.7,0.3-1.6,0.3-2.2,0.7
				C101.6,442.2,101.1,441.4,100.3,441z"/>
			<path id="XMLID_1111_" class="st75" d="M130.7,449.8c-0.8-0.1-1.5-0.2-2.3-0.3c-0.1-0.2-0.1-0.3,0.1-0.5c2.5-0.1,4.8-0.8,6.5-2.9
				c0.9,0.4,0.6,1,0.3,1.6s-0.8,1.2-1.2,1.7c-0.4,0-0.8,0.1-1.3,0.1C132,449.6,131.3,449.3,130.7,449.8z"/>
			<path id="XMLID_1110_" class="st95" d="M134,449.4c0-0.6,0.1-1,0.6-1.4s1.1-1,0.4-1.8c0-0.1-0.1-0.1-0.1-0.2c0-0.5-0.2-1,0.4-1.3
				c0.7,0.1,1.2,0.4,1.1,1.2l0,0c-0.2,0.6,0,1.2-0.3,1.8c-0.1,0.1-0.1,0.2-0.2,0.4c-0.2,0.4-0.4,0.9-0.8,1.1
				C134.6,449.3,134.3,449.3,134,449.4z"/>
			<path id="XMLID_1109_" class="st31" d="M136.6,446.2c0.4,0.2,0.7,0.5,0.9,0.9c-0.8,0.1-0.5,1.5-1.5,1.4c-0.6,0-0.5-0.3-0.3-0.7
				l0,0C136.6,447.7,135.9,446.6,136.6,446.2z"/>
			<path id="XMLID_1108_" class="st21" d="M135.6,447.9c0,0.3,0.1,0.5,0.3,0.7c-0.2,0.4-0.5,0.7-1,0.6
				C135.2,448.7,135.4,448.3,135.6,447.9z"/>
			<path id="XMLID_1107_" class="st92" d="M121.9,466.1c0.1,0,0.2,0,0.3,0c-0.4,0.4-0.9,0.9-1.3,1.3
				C120.9,466.8,120.9,466.1,121.9,466.1z"/>
			<path id="XMLID_1106_" class="st96" d="M121.9,453.8c0.6,0,1.1-0.5,1.7-0.3c-0.1,0.1-0.2,0.2-0.4,0.3c-0.4,0.1-0.8,0.4-1.3,0.3
				C121.8,453.9,121.8,453.8,121.9,453.8z"/>
			<path id="XMLID_1105_" class="st27" d="M114.7,440.7c-0.1,0.1-0.2,0.2-0.3,0.3c-0.8,0.8-1.9,0.9-3,1.3c0-0.1-0.1-0.1-0.1-0.2
				c-0.3-1,0.8-0.8,1.1-1.3c0.7-0.4,1.4-0.8,2.2-0.3C114.6,440.6,114.7,440.7,114.7,440.7z"/>
			<path id="XMLID_1104_" class="st27" d="M109.2,444c0-0.5,0.1-0.9,0.3-1.3c0.6-0.3,1.2-0.8,1.9-0.3l0,0c-0.3,0.3-0.6,0.7-1,1
				c0,0.1,0,0.1-0.1,0.2c-0.5,0.5-0.2,0.8,0.2,1.2c0,0.2-0.1,0.3-0.2,0.4c-0.6,0.2-1.1,0.3-1.6-0.3
				C108.7,444.4,108.9,444.2,109.2,444z"/>
			<path id="XMLID_1103_" class="st97" d="M111.4,443.3c0.4,0.6,1.1,0.1,1.6,0.3c-0.4,1.1-1.4,0.7-2.2,0.9c-1-0.2-0.9-0.7-0.4-1.3
				l0,0C110.8,443.3,111.1,443.3,111.4,443.3z"/>
			<path id="XMLID_1102_" class="st70" d="M110.8,444.3c0.7-0.4,1.6-0.2,2.3-0.7c1.1-0.1,2.1-0.2,3.2-0.4c0.4,0.1,0.8,0,1,0.4
				c-0.3,0.7-0.9,1-1.5,1.3c-0.2,0.1-0.4,0.1-0.7,0.2c-0.7-0.1-1.2,0.4-1.7,0.7c-1-0.1-1.9-0.6-2.9-0.8c0-0.1,0-0.2,0-0.3
				C110.5,444.5,110.7,444.4,110.8,444.3z"/>
			<path id="XMLID_1101_" class="st27" d="M115.7,440c0.2,0,0.4,0,0.6,0c0.3-0.2,0.6-0.3,0.9,0c0.1,0,0.1,0.1,0.2,0.1
				c-0.2,0.1-0.5,0.2-0.7,0.3c-0.7-0.1-1.2,0.8-2,0.3l0,0C114.7,440,115.2,440,115.7,440z"/>
			<path id="XMLID_1100_" class="st19" d="M117.2,440c-0.3,0-0.6,0-0.9,0c0.1-0.9,1.8-1,1-2.3c0.8,0,0.6,0.8,0.9,1.3
				C117.9,439.3,117.5,439.7,117.2,440z"/>
			<path id="XMLID_1099_" class="st19" d="M120.6,443c1-0.2,1.9,0.4,2.9,0.3c1-0.7,2,0,2.9,0c0.1,0.8-0.6,0.8-1.1,0.9
				c-0.6,0.1-1.2,0.4-1.8,0.7c-1.2,0.2-2.3,0.1-3.2-0.9C120.3,443.7,120.3,443.3,120.6,443z"/>
			<path id="XMLID_1098_" class="st75" d="M127.4,444c2.1-1.1,4.3-0.8,6.5-1l0,0c0.4,0.6,0.7,1.1,0,1.7c-2.1-1.1-4.1-0.5-6.2,0
				c-0.2,0-0.5-0.1-0.7-0.3C127,444.1,127.1,443.9,127.4,444z"/>
			<path id="XMLID_1097_" class="st81" d="M127.1,444.3c0.2,0,0.4,0,0.7,0c-0.1,0.9-0.9,0.8-1.5,0.9c-0.8-0.2-1.6,0.3-2.4-0.2
				c-0.1-0.1-0.1-0.3,0-0.4c0-0.8,0.8-0.6,1.2-0.7c0.5-0.2,1.1,0,1.4-0.6c0.1,0,0.2,0,0.3,0C127.1,443.6,126.8,444,127.1,444.3z"/>
			<path id="XMLID_1096_" class="st19" d="M127.1,444.3c-0.9-0.1-0.2-0.7-0.3-1c0.6-0.2,0.4,0.4,0.7,0.7
				C127.3,444.1,127.2,444.2,127.1,444.3z"/>
			<path id="XMLID_1095_" class="st98" d="M134,444.6c0.3-0.5-0.1-1.1,0-1.6c0.4,0.1,0.9,0.2,1.3,0.3c0.1,0.3,0.4,0.3,0.7,0.3
				c0,0.8,1.3,1.3,0.7,2.3c-0.1,0-0.2,0-0.3,0c-0.3-0.5-0.6-1-1.3-1c-0.3,0.2-0.5,0.1-0.7-0.1C134.1,444.8,134,444.7,134,444.6z"/>
			<path id="XMLID_1094_" class="st31" d="M136.6,445.9c0.2-0.9-1.2-1.3-0.7-2.3C136.4,444.3,137.8,444.7,136.6,445.9z"/>
			<path id="XMLID_1093_" class="st98" d="M136.6,446.2c-0.2,0.6,0.4,1.7-1,1.6c0.3-0.6,0-1.4,0.7-1.9
				C136.4,446,136.5,446.1,136.6,446.2z"/>
			<path id="XMLID_1092_" class="st60" d="M115.7,444.6c0.5-0.3,1.1-0.7,1.6-1c0.1,0,0.2,0,0.3,0c0.7,0.6,1.8-0.4,2.4,0.6
				c-0.6,0.4-0.7,1.1-1,1.6c-0.5,0.4-1.1,0.6-1.8,0.7C116.3,446.2,115.9,445.5,115.7,444.6z"/>
			<path id="XMLID_1091_" class="st70" d="M119.9,444.3c-0.6-0.7-1.9,0.7-2.3-0.6c0.9-0.6,2-0.3,2.9-0.6c0,0.3,0,0.6,0,1
				C120.5,444.3,120.3,444.4,119.9,444.3z"/>
			<path id="XMLID_1090_" class="st95" d="M111.1,454.4c0.3-0.1,0.3-0.4,0.3-0.7c0.6-0.1,0.6,0.4,0.7,0.7c0.3,1,1.7,1.1,1.7,2.4
				c-0.1,0.7-0.4,1.1-1.2,1.1c-0.3-0.2-0.5-0.1-0.6,0.3c-0.1,0.1-0.2,0.2-0.3,0.3c-0.2,0.1-0.3,0.2-0.5,0.2c0.2,0.1,0.5,0,0.6,0.3
				c0,0.4-0.3,0.5-0.6,0.6c-0.9,0.1-1.6,1.1-2.6,0.9c-0.7-0.4-1.2-1.4-2.2-0.6c-0.4,0.3-0.8,0.4-1.3,0.3c-0.6-0.2-0.4-0.8-0.6-1.2
				c-0.3-0.5,0.3-0.7,0.4-0.6c1.1,0.9,1.3-0.4,1.9-0.7c0.2,0.2,0.3,0.5,0.6,0.3c0.3-0.2-0.1-0.1-0.1-0.1c-0.2,0-0.4-0.1-0.6-0.2
				c0.6-0.7,1.9-0.3,2.3-1.3c0.7,0.3,0.3-0.6,0.7-0.7c0-0.1,0-0.2,0-0.3C110.3,455.1,111.7,456.1,111.1,454.4z"/>
			<path id="XMLID_1089_" class="st72" d="M104.6,459c0.2,0.3,0.4,0.7,0.7,1c0.1,0.3-0.3,1.1,0.6,0.6c0.3-0.2,0.6-0.4,1-0.6
				c0.6-0.2,0.9-0.1,0.9,0.6c0,0.2-0.1,0.3-0.2,0.5c-1.3,1.1-2.9,1.3-4.4,2c-0.7,0.3-1.4,0.4-2,1c-0.4,0.4-0.9,0.4-1.2-0.2
				c0.2-0.4,0.2-0.7-0.3-0.7c0-1,1.1-0.7,1.5-1.2c0.1-0.2,0.2-0.3,0.4-0.5c0.1-0.1,0.3-0.1,0.4-0.1c0.8-0.1,0.3-0.4,0.1-0.6
				c0-0.1-0.1-0.1-0.1-0.2c0.3-1.1,0.3-1,1.4-0.7C104,460.1,104.1,459.2,104.6,459z"/>
			<path id="XMLID_1088_" class="st82" d="M101.6,462.2c-0.7,0.3-1.3,0.7-2,1c-0.7,0-0.7-0.5-0.7-1c1.2,0.3,0.7-1.3,1.6-1.3
				c0.2,0.2,0.6,0.1,0.7,0.3C101.5,461.6,101.3,462,101.6,462.2z"/>
			<path id="XMLID_1087_" class="st93" d="M101.3,461.3c-0.3,0-0.5-0.1-0.6-0.3c0.5,0,0.9-0.1,1.3-0.3l0,0c0.2,0.2,0.7,0.1,0.7,0.5
				c0,0.3-0.3,0.6-0.7,0.4c-0.1,0-0.2,0-0.3,0C101.4,461.6,101.4,461.4,101.3,461.3z"/>
			<path id="XMLID_1086_" class="st83" d="M109.8,455.7c-0.1,0.3,0.2,1.1-0.7,0.7c0.4-0.3-0.6-0.6,0-0.8
				C109.3,455.5,109.6,455.6,109.8,455.7z"/>
			<path id="XMLID_1085_" class="st99" d="M100,463.9c0.2,0.1,0.5,0.3,0.6,0.2c2-1.8,4.7-2,6.9-3.1c0.8,0,1.1,0.5,1.2,1.1
				c0,0.2,0,0.3-0.1,0.4c-0.3,0.5-1,0.7-1.5,1c-0.3,0.2-0.7,0.4-1,0.7c-0.3,0.7-1,0.8-1.6,1c-0.1,0.3-0.3,0.5-0.7,0.7
				c-0.8,0.3-1.7,0.3-2.3,1c0,0.1,0,0.2,0,0.3c-0.9,0.5-1.9,0.4-2.6-0.3c-0.6-0.5-0.8-1.2-0.3-2C99.4,464.9,99.4,464,100,463.9z"/>
			<path id="XMLID_1084_" class="st19" d="M100.3,469.7c-0.1,0.6-0.4,0.8-0.9,0.5c-0.6-0.5,0.3-0.4,0.4-0.7c0-0.3,0.1-0.5,0.1-0.8
				c0-0.1,0-0.2,0-0.3C101.1,468.6,100.5,469.2,100.3,469.7z"/>
			<path id="XMLID_1083_" class="st100" d="M99,468.4c-0.4,0-0.6-0.2-0.7-0.7C98.8,467.8,99.4,467.6,99,468.4z"/>
			<path id="XMLID_1082_" class="st86" d="M115.4,463.5c-0.5-1-1-1.4-1.9-0.3c-0.2,0.3-0.4,0.6-0.8,0.5c-0.5-0.2,0.1-0.7-0.2-1
				c-1,1.5-2.7,0.8-4,1.1c-0.2-0.2-0.2-0.4-0.1-0.6c0.3-0.5,0.7-0.7,1.4-0.5c-0.3-0.2-0.7-0.1-0.9-0.4c0.4-0.7,0.3-2.1,1.8-1.2
				c0.1,0.2-0.1,0.6,0.2,0.6c0.1,0,0.1-0.4,0.1-0.6c0.2-0.6,0.3-1.2,0.8-1.6c0.3-0.2,0.6-0.2,0.9,0c0.3,0.3,0.4,0.8,0.9,0.8
				c0.2-0.7,0.4-1.4,1.3-1.5c0.1,0,0.3,0.1,0.4,0.1c0.3,0.2,0.6,0.2,0.9,0c0.6-0.4,1.1-1,1.9-0.6c0.1,0,0.3,0.1,0.4,0.2
				c0.3,0.2,0.6,0.3,1,0.2c0.3,0.1,0.8,0,0.7,0.6c-0.1,0.7,0.5,0.2,0.7,0.3c-0.1,0.3-0.4,0.3-0.7,0.3c-0.5,0.5-0.4,1.9-1.7,1.1
				c-0.3-0.4-0.5-0.1-0.8,0.1c-0.9,0.3-1.3,0.8-0.9,1.8C116.4,463.7,116.1,464,115.4,463.5z"/>
			<path id="XMLID_1081_" class="st101" d="M118.3,460.9c1.1,0.6,0.9-0.9,1.6-1c0.4,0.8,0.7,1.7,0.7,2.6c-0.3,0.7-1,0.8-1.6,1
				c-0.7-0.2-1.7,0.1-1.9-1.1c0-0.2,0.1-0.5,0.2-0.6C117.8,461.7,117.7,460.9,118.3,460.9z"/>
			<path id="XMLID_1080_" class="st101" d="M125.2,460.6c-1.1,1.5-2.7,2.2-4.6,2C121.6,460.7,123.6,461.2,125.2,460.6z"/>
			<path id="XMLID_1079_" class="st86" d="M121.9,458.6c-0.1-0.4-1.2-0.5-0.6-1c0.3-0.3,0.9-1,1.6-0.6c0.5,0.3,0.9,0.3,1.3,0.3
				c-0.3,0.2-0.7,0.4-1,0.7c-0.2,0.3-0.5,0.7-1,0.7C122.1,458.6,122,458.6,121.9,458.6z"/>
			<path id="XMLID_1078_" class="st101" d="M122.2,458.6c0.3-0.2,0.7-0.4,1-0.7c0.2,0.6,0.9,1.4-0.4,1.6c-0.6,0.1-0.5,0.9-1,1.2
				C121.3,460,122.8,459.5,122.2,458.6z"/>
			<path id="XMLID_1077_" class="st101" d="M127.8,460.3c-0.5,0-1-0.1-1.4,0.5c-0.5,0.8-0.8,0.1-1.2-0.2
				C126,460,126.7,459.2,127.8,460.3z"/>
			<path id="XMLID_1076_" class="st72" d="M119.9,459.3c-0.2-0.4-0.6-0.3-1-0.3c-0.1-0.1-0.1-0.2-0.1-0.4c0.3-0.3,0.6-0.6,0.8-0.9
				c0.1-0.1,0.2-0.1,0.4-0.2c0.1,0,0.1,0.1,0.2,0.1C120.3,458.3,120.6,458.9,119.9,459.3z"/>
			<path id="XMLID_1075_" class="st72" d="M119.3,457c0.4-0.4,0.9-0.5,1.3,0c0,0.3-0.1,0.5-0.3,0.7l0,0
				C120,457.3,119.2,457.9,119.3,457z"/>
			<path id="XMLID_1074_" class="st58" d="M119.3,457c0.3,0.2,0.7,0.4,1,0.7c-0.1,0-0.2,0-0.3,0c-0.1,0.1-0.2,0.2-0.3,0.3
				c-0.5,0.2-1.3,0-1.6,0.7c-0.9-0.4-1.3,0.4-2,0.7c-0.3-0.1-0.7,0.2-1,0c0-0.1,0-0.2,0-0.3c-0.1-0.8,0.6-0.9,1.1-1.2
				c0.4-0.2,0.7-0.4,1.1-0.6c0.4-0.2,0.8-0.3,1.2-0.5c0.1,0,0.1,0,0.2,0C118.8,456.8,119.1,456.9,119.3,457z"/>
			<path id="XMLID_1073_" class="st102" d="M121.3,455.1c-0.3,0.5-0.8,0.6-1.4,0.6c-0.2,0.1-0.5,0.1-0.7,0c0-1.1,0.7-1.2,1.6-1.2
				C121.1,454.7,121.3,454.9,121.3,455.1z"/>
			<path id="XMLID_1072_" class="st6" d="M118.7,456.4c0,0.1,0,0.2,0,0.3l0,0c-0.5,0.4-1,0.5-1.6,0.6c-0.4,0-0.7-0.1-0.8-0.5
				c0-0.3,0.1-0.5,0.3-0.6c0.2-0.1,0.5-0.2,0.7-0.2s0.3,0,0.5,0C118.1,456,118.4,456.1,118.7,456.4z"/>
			<path id="XMLID_1071_" class="st103" d="M118.7,456.4c-0.3,0-0.7,0-1,0c0.3-0.9,0.9-1,1.6-0.6c0.2,0,0.5,0,0.7,0.1
				C119.8,456.6,119.2,456.3,118.7,456.4z"/>
			<path id="XMLID_1070_" class="st104" d="M121.3,455.1c-0.1-0.1-0.3-0.3-0.4-0.4c0.1-0.5,0.3-0.5,0.7-0.3c0.2,0.1,0.5,0.2,0.7,0.4
				C122,454.9,121.6,455,121.3,455.1z"/>
			<path id="XMLID_1069_" class="st30" d="M121.6,454.4c-0.2,0.1-0.5,0.2-0.7,0.3c-0.6,0.2-1.3,0.3-1.6,1c-0.6,0.1-1.2,0.2-1.6,0.6
				c-0.1,0-0.2,0-0.3,0c-0.3-1.4,1.2-1.3,1.7-2c0.6-0.4,1.1-1.4,2-0.7c0.2,0.1,0.4,0.2,0.5,0.4C121.6,454.2,121.6,454.3,121.6,454.4
				z"/>
			<path id="XMLID_1068_" class="st19" d="M121.6,454.1c-0.2,0-0.5,0-0.7,0c0-0.7,0.3-0.9,1-0.6c0,0.1,0,0.2,0,0.3
				c0,0.1,0,0.2,0,0.3C121.8,454.1,121.7,454.1,121.6,454.1z"/>
			<path id="XMLID_1067_" class="st105" d="M100.7,453.8c0.1-0.8,0.4-1.5,1.2-1.8c0.6-0.2,0.2-0.5,0.2-0.7c0.3-1.1,1.1-1.4,2.1-1.6
				c0.6-0.1,1.1-0.3,1.7-0.5c1.3-1.1,3-1.2,4.5-1.7c0.9,1.5,0.8,1.8-1.1,1.9c0.6,0.4,1.1,0.4,1.5,0.1c1.6-1,3.3-0.7,5-1
				c1-0.1,1.5,1.1,2.5,1.3c0.3,0.7-0.1,1.1-0.6,1.4c-0.1,0.1-0.3,0.1-0.5,0c-0.9-1.2-2-0.2-3-0.4c-0.5,0.1-1,0.2-1.5,0.3
				c-0.1,0-0.3,0.1-0.4,0.1c-1.3,0.1-2.5,0.7-3.9,0.6l0,0c-0.5,0.4-1.2,0.1-1.6,0.6c-0.1,0-0.2,0-0.3,0c-1.2,0-2.3,0.4-3.3,1
				C102.3,453,101.6,454.4,100.7,453.8z"/>
			<path id="XMLID_1066_" class="st73" d="M108.5,451.8c1.3-0.5,2.5-1,3.9-1c-0.2,1.2-1.6,0.4-2,1.3c-0.2,0.1-0.5,0.2-0.7,0.3
				C109.3,452.2,108.9,452,108.5,451.8z"/>
			<path id="XMLID_1065_" class="st62" d="M111.4,442.3c-0.6,0.1-1.3,0.5-1.9,0.3c-0.4-0.4,0.4-0.4,0.3-0.7c0.2-0.2,0.6-0.2,0.3-0.6
				l0,0c-0.2-0.2-0.2-0.4,0-0.6c0.1,0,0.2,0,0.3,0c0.5,0.1,1.1-0.1,1.6,0c0.1,0,0.2,0,0.3,0c0.1,0.1,0.1,0.1,0.1,0.2
				s-0.1,0.1-0.1,0.1C112.1,441.5,111.2,441.5,111.4,442.3z"/>
			<path id="XMLID_1064_" class="st58" d="M106.5,438.7c0.2,0,0.4,0,0.6,0c0.2,0.1,0.4,0.2,0.7,0.3c0.2,0.6-0.4,0.6-0.6,0.8
				c-0.1,0.1-0.2,0.1-0.4,0.2c-0.4,0-0.8,0.1-0.9-0.4C105.8,439.2,106.4,439.1,106.5,438.7z"/>
			<path id="XMLID_1063_" class="st60" d="M110.1,440.7c0,0.2,0,0.4,0,0.6c-1,0-2-0.2-2.9-0.6c0.1-0.3,0.3-0.5,0.7-0.3
				C108.6,440.6,109.4,440.7,110.1,440.7z"/>
			<path id="XMLID_1062_" class="st58" d="M106.6,442.3c0.1,0,0.2,0,0.3,0c0.5-0.1,0.9-0.1,1.4-0.2c0.2,0.5-0.1,0.9-0.5,1.2
				C107.7,442.6,106.9,442.8,106.6,442.3z"/>
			<path id="XMLID_1061_" class="st106" d="M107.9,440.4c-0.2,0.1-0.4,0.2-0.7,0.3c-0.3-0.1-0.3-0.4-0.3-0.7c0-0.1,0-0.2,0-0.3
				C107.5,439.5,108.1,439.2,107.9,440.4C107.8,440.4,107.9,440.4,107.9,440.4z"/>
			<path id="XMLID_1060_" class="st21" d="M107.2,444.6c-0.2-0.1-0.2-0.2,0-0.3c0.2-0.2,0.3-0.5,0.7-0.6c0.1,0,0.2,0,0.3,0
				c0.1,0.4,0.7,0.6,0.2,1.1C108,445,107.6,445,107.2,444.6z"/>
			<path id="XMLID_1059_" class="st52" d="M108.5,444.6c-0.1-0.3-0.2-0.6-0.3-1c0.3,0.1,0.6,0.2,1,0.3c0,0.3-0.1,0.5-0.3,0.7
				C108.7,444.7,108.6,444.7,108.5,444.6z"/>
			<path id="XMLID_1058_" class="st107" d="M107.9,443.6c0,0.4-0.2,0.6-0.7,0.6c0-0.5,0-0.9,0.7-1
				C107.9,443.4,107.9,443.5,107.9,443.6z"/>
			<path id="XMLID_1057_" class="st21" d="M110.1,441.4c0.2,0.1,0.6,0,0.5,0.4c-0.1,0.3-0.5,0.2-0.8,0.2
				C109.9,441.8,110,441.6,110.1,441.4z"/>
			<path id="XMLID_1056_" class="st60" d="M111.4,438.4c0.1,1.3-0.7,0.7-1.3,0.6C110.5,438.6,110.9,438.5,111.4,438.4z"/>
			<path id="XMLID_1055_" class="st89" d="M107.8,440.4c0-0.7-0.5-0.7-1-0.6c0.3-0.2,0.6-0.4,1-0.7c0.2,0,0.4,0,0.7,0
				c0.2,0.4-0.2,0.7-0.3,1C108.1,440.1,108,440.3,107.8,440.4z"/>
			<path id="XMLID_1054_" class="st60" d="M108.2,440c0.1-0.3,0.2-0.7,0.3-1c0.2,0.1,0.4,0.2,0.6,0.3
				C108.8,439.6,108.5,439.8,108.2,440z"/>
			<path id="XMLID_1053_" class="st108" d="M104.6,465.2c0.4-0.5,1.1-0.7,1.6-1c0.8,0.6,1.8,0.7,2.7,1c0.4,0.1,0.8,0.1,0.9,0.7
				c-0.7,0.2-1.1,0.7-2.1,0c-1.2-0.8-0.6,0.8-0.8,1.3c-0.8,0.5-0.7-0.4-1-0.6l0,0C105.6,465.9,105.1,465.5,104.6,465.2z"/>
			<path id="XMLID_1052_" class="st81" d="M117.3,462.2c0,1.2,1.2,0.7,1.6,1.3c-1,0.3,0.1,0.7,0,1c0.1,0.1,0.1,0.2,0.1,0.2
				c0,0.1,0,0.1-0.1,0.1c-0.1,0.1-0.3,0.1-0.4,0.1c-0.5-0.1-0.9-0.3-1.4-0.3c-0.7-0.4-1.9,0.5-2.1-0.9c0.1-0.1,0.2-0.2,0.3-0.3
				c0.7,0.1,1.1-0.3,1-1C116.6,462.2,116.9,462,117.3,462.2z"/>
			<path id="XMLID_1051_" class="st109" d="M115,463.9c0.5,1,1.7-0.1,2.3,0.7c0.4,0.5,0.3,0.9-0.3,1.1c-0.4,0.1-0.8,0.2-1.2,0.3
				c-0.8-0.2-1.6,0.1-2.3-0.4c0-0.2,0-0.4,0-0.7C114,464.6,114.6,464.4,115,463.9z"/>
			<path id="XMLID_1050_" class="st110" d="M108.5,463.2c0,0.2,0,0.4,0,0.7c-0.4-0.1-0.9-0.2-1.3-0.3c0.3-0.5,0.6-1,1.3-1
				C108.7,462.8,108.7,463,108.5,463.2z"/>
			<path id="XMLID_1049_" class="st78" d="M101.6,466.8c0.4-1.1,1.2-1.3,2.3-1c0,0.1,0,0.2,0,0.3C103.3,467,102.4,466.6,101.6,466.8
				z"/>
			<path id="XMLID_1048_" class="st74" d="M105.9,466.5c0.3,0.2,0.5,0.7,1,0.6C105.9,467.8,105.9,467.1,105.9,466.5z"/>
			<path id="XMLID_1047_" class="st63" d="M118,475.6c-1.3,1-2.2-0.3-3.2-0.7c-0.2-0.1-0.5-0.2-0.7-0.3c-0.1-0.1-0.2-0.3-0.2-0.4
				c0-0.2,0.1-0.3,0.2-0.4c0.2-0.1,0.4-0.1,0.7-0.1c1.1,0.4,2,1.1,3,1.7C117.9,475.5,117.9,475.6,118,475.6z"/>
			<path id="XMLID_1046_" class="st70" d="M119.9,476.6c-0.3-0.5-0.7-0.1-1,0c0-0.3-0.1-0.5-0.3-0.6c-0.1-0.1-0.1-0.1-0.1-0.2
				s0.1-0.1,0.1-0.1c0.5,0,1-0.1,1.4,0.1C120.8,476,120.7,476.4,119.9,476.6z"/>
			<path id="XMLID_1045_" class="st63" d="M110.8,474.6c0.7,0.1,1.3,0.4,2,0.3c0.3-0.3,0.7-0.3,1,0c-0.1,0.1-0.2,0.2-0.3,0.3
				c-0.7,0.5-1.3-0.1-2,0C111.2,475.1,111,474.9,110.8,474.6z"/>
			<path id="XMLID_1044_" class="st111" d="M113.7,475c-0.3,0-0.7,0-1,0c0-0.3,0-0.7,0-1c0.5-0.3,0.9,0,1.3,0.3c0,0.1,0,0.2,0,0.3
				C113.9,474.8,113.8,474.9,113.7,475z"/>
			<path id="XMLID_1043_" class="st63" d="M118.6,475.6c0,0.1,0,0.2,0,0.3c-0.2-0.1-0.4-0.2-0.6-0.3l0,0c0.3-0.5-0.6-0.6-0.3-1.1
				c0.1-0.1,0.3-0.1,0.4-0.1c0.3,0.1,0.6,0.1,0.5,0.6C118.6,475.2,118.6,475.4,118.6,475.6z"/>
			<path id="XMLID_1042_" class="st62" d="M119.3,479.5c0.4-0.6-0.5-0.8-0.3-1.3c0.8,0.4,1.9,0.6,1.6,2
				C120.1,480.1,119.4,480.4,119.3,479.5z"/>
			<path id="XMLID_1041_" class="st60" d="M112.4,441c0-0.1,0-0.2,0-0.3c0.9-1.1,2.1-0.6,3.3-0.6c-0.3,0.2-0.7,0.4-1,0.6
				C113.9,440.3,113.2,441.1,112.4,441z"/>
			<path id="XMLID_1040_" class="st19" d="M117.3,437.4c0,0.1,0,0.2,0,0.3c-1,0.2-0.9-0.9-1.3-1.3
				C116.7,436.4,117.3,436.6,117.3,437.4z"/>
			<path id="XMLID_1039_" class="st60" d="M112.1,440.7c-0.5,0.2-1.1,0.6-1.6,0C111,440.2,111.5,440.2,112.1,440.7z"/>
			<path id="XMLID_1038_" class="st112" d="M122.2,471.4c0.3,0.6,1.8,1.4-0.3,1.7c-0.4,0.1-0.2,0.5-0.2,0.8c0,0.4,0.2,0.6,0.5,0.7
				c0.4,0.1,0.9,0,1.3,0.1c-0.8,0.7-1.8,0.5-2.6,0.5c-1.5-0.2-0.8-1.5-0.7-2.4c0-0.1,0.1-0.1,0.1-0.2
				C120.8,471.8,121.2,471,122.2,471.4z"/>
			<path id="XMLID_1037_" class="st113" d="M118.6,475c-0.1-0.3-0.4-0.3-0.7-0.3c0.2-0.6-0.4-1.4,0.4-1.9c0.4-0.2,0.8-0.6,1.2-0.7
				c0.6-0.2,1-0.1,0.7,0.7l0,0C119.2,473.1,119.9,474.7,118.6,475z"/>
			<path id="XMLID_1036_" class="st114" d="M121.6,479.1c-0.1-0.1-0.2-0.3-0.3-0.5c0-0.3,0.2-0.3,0.4-0.3c0.3,0,0.3,0.2,0.3,0.4
				C122.2,479,122,479.1,121.6,479.1z"/>
			<path id="XMLID_1035_" class="st74" d="M100.3,452.4c-0.3,0.4-0.7,0.4-1,0C99.7,452.4,100,451.9,100.3,452.4z"/>
			<path id="XMLID_1034_" class="st74" d="M119.9,467.1c-0.3,0.6-0.5,1.3-0.3,2c-0.1,0.1-0.2,0.1-0.3,0.1c-0.1-0.5-0.4-0.4-0.8-0.3
				c-0.6-0.1-1.1,0.2-1.6,0.4c-0.2,0-0.3,0-0.5-0.1c-0.8-0.4-1.4-0.9-0.7-1.9c0.7-0.1,1.2-0.2,1.4-1c0.1-0.5,0.4-1.1,1.1-1.2
				c0.9,0.7,1.3,1.4-0.1,2.3c0.6-0.3,1-0.4,1.5-0.3C119.7,467.1,119.8,467.1,119.9,467.1z"/>
			<path id="XMLID_1033_" class="st86" d="M119.6,467.1c-0.2,0.3-0.4,0.4-0.7,0.3c-0.5-0.2-0.4,1-0.9,0.4c-0.4-0.5,0-0.8,0.5-1.1
				c0.9-0.6-0.2-1.1-0.2-1.6c0-0.2,0.2-0.2,0.3-0.3c0.1,0,0.2,0,0.3,0c0.5,0.2,0.8,0.4,0.7,1C119.9,466.3,119.9,466.7,119.6,467.1z"
				/>
			<path id="XMLID_1032_" class="st74" d="M123.8,463.5c-0.1,0.3-0.3,0.5-0.7,0.6c-0.3-0.2-0.6-0.4-0.9-0.6
				C122.9,463,123.4,463.3,123.8,463.5z"/>
			<path id="XMLID_1031_" class="st115" d="M119.6,465.8c-0.2-0.3-0.4-0.7-0.7-1c0-0.1,0-0.2,0-0.3c0.4,0.1,0.9,0.2,1.3,0.3l0,0
				C120.3,465.3,120,465.6,119.6,465.8z"/>
			<path id="XMLID_1030_" class="st116" d="M120.3,464.9c0.3-1.1,1-0.5,1.6-0.5C121.3,464.5,120.8,464.7,120.3,464.9L120.3,464.9z"
				/>
			<path id="XMLID_1029_" class="st83" d="M111.8,454.7c0-0.4,0.1-0.7-0.3-1c0.1-0.3,0.3-0.5,0.6-0.7c0.4-0.1,0.1-0.6,0.3-0.8
				c0.2-0.1,0.3-0.2,0.5-0.3c0.3-0.1,0.7-0.2,1-0.3c0.5-0.1,0.7-0.7,1.3-0.7c0.6,0.2,0.8,0.7,0.7,1.3c-0.1,0.2-0.2,0.4-0.3,0.6
				c-0.3,0.4-0.7,0.8-1.1,1.2C113.6,454.1,112.8,455.1,111.8,454.7z"/>
			<path id="XMLID_1028_" class="st67" d="M110.4,452.1c0.3-1,1.5-0.6,2-1.3c0.1,0,0.2,0,0.3,0c0.2,0.1,0.2,0.3,0.2,0.6
				c-0.1,0.2-0.2,0.4-0.3,0.5c-0.3,0.2-0.3,0.6-0.5,0.8c-0.2,0-0.4,0-0.7,0C111.9,451.4,110.9,452.2,110.4,452.1z"/>
			<path id="XMLID_1027_" class="st63" d="M112.1,452.8c0-0.4-0.1-0.8,0.3-1c0.2,0.2,0.2,0.4,0,0.7c0.1,0.3,0.4,0.5,0.1,0.8
				c-0.2,0.2-0.3,0-0.5-0.1C112.1,453,112.1,452.9,112.1,452.8z"/>
			<path id="XMLID_1026_" class="st117" d="M118.3,449.8c-0.7,0-1.3,0-1.9-0.8c-0.4-0.6-1.6,0.1-2.5,0.1c-1.4-0.1-2.5,0.7-3.8,1
				c-0.5,0.1-1.1,0.3-1.5-0.3c-0.2-0.4,0.1-0.6,0.3-0.8c0.6-0.7,1-0.1,1.5,0.1c0-0.5,0-1,0-1.5c0.4-0.2,0.7,0,1.1,0.2
				c1,0.8,1.2-0.2,1.7-0.7c0.2-0.2,0.3-0.3,0.6-0.3c1.2,0,2.5,0.6,3.6-0.5c0.5-0.2,1.1-0.4,1.6-0.7c1.5-1.1,3.2-0.7,4.9-0.7
				c0.8,0.2,1.5-0.5,2.3,0c0.1,0.7-0.6,0.8-1,1.1c-1.4,0.9-3,1.5-4.6,2.2c2,0.8,3.9,0.5,5.8,0.5c0.8,0,1.5-0.2,2.1,0.5
				c0,0.1,0,0.2,0,0.3c0.1,0.3,0.3,0.7-0.3,0.6c-0.5,0-0.9,0.1-1.4,0.3c-0.8-0.4-1.7-0.5-2.5,0c-1,0.6-1.8-0.2-2.8-0.2
				c-0.3,0-0.6,0-1,0c-0.2,0-0.3,0-0.5,0C119.4,450.3,118.8,450.3,118.3,449.8z"/>
			<path id="XMLID_1025_" class="st113" d="M121.6,449.8c1.2,0.5,2.4,0.7,3.5,0c0.9-0.6,1.3,0,1.7,0.7c0.1,0.2,0.2,0.4,0.3,0.6
				c-1.1-0.5-2.1-0.2-2.9,0.7c-0.6,0.1-1.2,0.2-1.7,0.3c-0.4,0.1-0.6,0.3-0.2,0.6c0,0.3-0.1,0.5-0.3,0.7c-0.5,0-0.8,0.2-1,0.6
				c-0.8-1.1-1,0.5-1.6,0.3c-0.6-0.3-1.2,0.9-1.8,0.1c-1.2-1.6-1.2-1.6,0.4-2.5c0.4-0.5,0.9-0.2,1.3,0c0.5,0.3,1,0.4,1.4-0.1
				c1.1-0.6,1.1-0.6,2.3-0.6C121.9,451.2,121,451.1,121.6,449.8z"/>
			<path id="XMLID_1024_" class="st118" d="M103,446.6c1-0.6,2.4-0.4,3.3-1.3l0,0c0.6-0.3,1-0.3,1.2,0.4c0.1,0.5-0.1,0.9-0.6,1.1
				c-0.4,0.1-0.8,0.3-1.2,0.4c-0.5,0-0.9,0.2-1.1,0.8c-0.2,0.5-0.6,0.6-0.9,0.9c-0.7,0.9-2.1,0.8-2.5,2.1c-0.1,0.3-1,0.2-0.9-0.2
				c0.5-2-1.2-0.6-1.6-1.1C99.9,448.3,101.2,447.2,103,446.6z"/>
			<path id="XMLID_1023_" class="st108" d="M104.3,447.9c0.2-0.4,0.1-1.2,1-1c0.7,0.8,1.6,0.5,2.4,0.4c0.2,0,0.5,0.1,0.4-0.3
				c-0.5-1.8,1.3-1.7,1.8-1.5c1.2,0.4,2.3,0.4,3.5,0.2c0.3,0.1,0.6,0.2,0.8,0.5c0.1,0.4-0.1,0.6-0.4,0.7c-0.1,0.1-0.2,0.2-0.3,0.3
				c-0.6,0.4-1.1,1-2,0.7c-0.3-0.1-0.7-0.2-1-0.3c-1.3,1.1-3.1,1-4.6,1.6c0.1-0.2,0.3-0.6,0.2-0.7c-0.4-0.4-0.7,0.2-1.1,0.1
				C104.6,448.4,104.5,448.1,104.3,447.9z"/>
			<path id="XMLID_1022_" class="st119" d="M104.3,447.9c0.4,0,0.6,0.2,0.7,0.7c-0.3,0.5-0.9,0.3-1.3,0.3
				C103.8,448.5,104,448.2,104.3,447.9z"/>
			<path id="XMLID_1021_" class="st93" d="M114.1,474.3c-0.5,0.1-0.9-0.1-1.3-0.3c-0.6-0.2-0.8-1-1.7-1.1c-0.4,0,0.1-0.4,0.4-0.5
				c0.2-0.2,0.3-0.4,0.2-0.7c-0.6-1.5-0.5-1.8,1.1-2.5c0.2-0.5,0.4-1.1,0.7-1.6c1.1,0,1.8,0.7,1.9,2.2c-0.8,1.3-1.9,2.6-1.3,4.3
				C114.1,474.1,114.1,474.2,114.1,474.3z"/>
			<path id="XMLID_1020_" class="st95" d="M112.7,469.1c-0.1,0.6-0.9,0.5-1.1,1.1c-0.1,0.4-0.6,0.6,0.2,1c1,0.5-0.1,0.8-0.4,1.2
				c-1.4-1.3-0.5-2.5,0.3-3.6C112.1,468.9,112.4,469,112.7,469.1z"/>
			<path id="XMLID_1019_" class="st95" d="M115,469.7c0-1.2-0.9-1.6-1.6-2.3c0.2-0.2,0.4-0.4,0.7-0.7c0.6-0.3,1.1-1,2-0.7
				c0.4,0.4,0.3,0.9,0,1.3c-0.9,1,0.4,1.1,0.7,1.6C116,469.1,115.8,470.1,115,469.7z"/>
			<path id="XMLID_1018_" class="st57" d="M115.7,466.2c-0.6,0.1-0.8,1.2-1.6,0.7c-0.3,0-0.5-0.1-0.6-0.3c0.5-0.5,0.1-0.6-0.3-0.7
				c0.1-0.1,0.2-0.2,0.3-0.3c0.8,0.2,1.6-0.5,2.3,0.3c0.1,0.1,0.1,0.1,0.1,0.2C115.7,466.1,115.7,466.2,115.7,466.2z"/>
			<path id="XMLID_1017_" class="st111" d="M113.4,445.9c-1.2,0.6-2.2,0.6-3.4-0.2c-0.4-0.3-1.1,0.8-1.9,0.4
				c-0.3,0.8,1.2,1.1,0.3,1.7c-0.9,0.7-2.9,0.1-3.2-0.9c0.4-0.2,0.7-0.4,1.1-0.5c0.3-0.1,0.8,0.1,0.8-0.5c0-0.7-0.5-0.7-1-0.7
				c0.3-0.2,0.7-0.4,1-0.7c0.4,0,0.9,0,1.3,0c0.1,0,0.2,0,0.3,0c0.5,0.5,1.1,0.3,1.6,0.3c1.2-0.6,2,0.2,2.9,0.7
				c0.1,0.1,0.1,0.1,0.1,0.2C113.5,445.9,113.4,445.9,113.4,445.9z"/>
			<path id="XMLID_1016_" class="st93" d="M120.3,472.7c-0.1-0.4-0.2-0.8-0.6-0.3c-0.4,0.5-0.8,0.6-1.3,0.6
				c-0.7-0.7-0.7-1.3,0.2-1.8c0.9,0.1,0.9-0.9,1.5-1.2c0.2,0,0.4,0,0.6,0c0.1,0.3-0.2,1.2,0.6,0.6c0.5-0.4,0.9,0.1,1.3,0
				c0,0.3-0.1,0.5-0.3,0.7C121.2,471.3,121.3,472.8,120.3,472.7z"/>
			<path id="XMLID_1015_" class="st74" d="M119.9,470.1c0.1,0.9-0.3,1.4-1.3,1.3c-0.4,0-0.8,0-1.1-0.5c0-0.1,0-0.3,0.1-0.4
				c0.3-0.3,0.5-0.6,0.8-1c0.2-0.2,0.4-0.7,0.8-0.5c0.1,0,0.2,0,0.3,0C119.2,469.6,119.7,469.8,119.9,470.1z"/>
			<path id="XMLID_1014_" class="st120" d="M128.4,449.2c-1.6-0.1-3.1-0.1-4.7,0.1c-1.2,0.2-2.4-0.6-3.6-0.5c-0.2,0-0.4-0.2-0.4-0.5
				c0-0.4,0.4-0.6,0.7-0.6c2.1-0.6,4-1.7,5.8-2.8c0.6-0.1,1.2-0.2,1.6-0.7c1.6-0.5,3.1-0.7,4.8-0.6c0.8,0,1.1,0.4,1.4,0.9
				c0.1,0,0.2,0,0.3,0c0.4,0.5,0.2,1.2,0.6,1.6l0,0C133.6,449.1,131.2,449.5,128.4,449.2z"/>
			<path id="XMLID_1013_" class="st75" d="M134.9,446.2c-0.8-0.3-0.9-0.9-0.6-1.6c0.2,0.1,0.4,0.2,0.7,0.3
				C135.3,445.4,135,445.8,134.9,446.2z"/>
			<path id="XMLID_1012_" class="st52" d="M110.8,444.3c-0.1,0.1-0.2,0.2-0.3,0.3c-0.3-0.1-0.8,0.2-0.8-0.5c0-0.6,0.5-0.6,0.8-0.8
				C110.6,443.7,109.9,444.2,110.8,444.3z"/>
			<path id="XMLID_1011_" class="st121" d="M113.7,446.9c0.1-0.2,0.2-0.4,0.3-0.7c-0.3-0.4-0.1-0.9,0.3-0.8c1.1,0.3,0.4-0.7,0.7-0.8
				c0.2,0,0.4,0,0.6,0c1,0.1,0.7,1.4,1.6,1.6C116.5,448.4,115,447,113.7,446.9z"/>
			<path id="XMLID_1010_" class="st60" d="M115,444.6c0.1,0.4,0.3,0.9,0.4,1.4c-0.5,0.2-1.2-1.2-1.4,0.2c-0.2-0.1-0.4-0.2-0.7-0.3
				c0-0.1,0-0.2,0-0.3C113.4,444.3,114.5,444.9,115,444.6z"/>
			<path id="XMLID_1009_" class="st122" d="M123.8,444.9c-1.6,0.2-3.3,0.4-4.9,0.7c0.2-0.5,0.3-1.2,1-1.3c0.2-0.1,0.4-0.2,0.6-0.3
				c1,0.5,2.1,0.8,3.3,0.7C123.8,444.7,123.8,444.8,123.8,444.9z"/>
			<path id="XMLID_1008_" class="st121" d="M117.5,445.3c0.1-0.1,0.3-0.2,0.4-0.2c0.2,0,0.3,0.2,0.2,0.3c-0.1,0.1-0.3,0.1-0.4,0.1
				C117.7,445.5,117.6,445.4,117.5,445.3z"/>
			<path id="XMLID_1007_" class="st19" d="M116.3,458c-0.3,0.5-1.1,0.3-1.3,1c-1.2,0.2-1.2,1.1-1.2,1.7c0.8-1-2.6,0.7-1.1-1.1
				c-0.1-0.2,0-0.3,0.1-0.5c-0.2-0.4-0.4,0.1-0.7,0c-0.2,0-0.3,0-0.4-0.1c-0.3,0-0.6,0-1.4,0c0.9-0.4,1.2-0.9,1.8-1
				c0.1-0.1,0.1-0.3,0.3-0.3c0.8,0.1,1.1-0.4,1.3-1c0.1,0,0.1,0,0.2-0.1c0.5,0.2,1.1,0.2,1.5,0.5C115.8,457.4,116.1,457.6,116.3,458
				z"/>
			<path id="XMLID_1006_" class="st123" d="M111.8,459.6c-0.1,0.6-0.2,1.2-0.7,1.6c-0.2,0.2-0.4,0.2-0.7,0c-0.2-0.3-0.8-0.4-0.7-0.1
				c0.1,0.8-0.7,0.7-0.9,1.1c-0.1,0.1-0.2,0.1-0.3,0c-0.1-0.6-0.6-0.9-1-1.3c0-0.1,0-0.2,0-0.3c0.3-0.3,0.5-0.5,1-0.3
				c1.1,0.3,1.5-1.2,2.6-1C111.3,459.5,111.6,459.4,111.8,459.6z"/>
			<path id="XMLID_1005_" class="st121" d="M111.8,454.7c0.9-0.3,1.7-0.7,2.6-1c0.5-0.3,0.8-0.1,0.8,0.4c-0.1,0.6-0.1,1.1,0.1,1.7
				c0.3,1-1,0.5-1.5,0.8l0,0C113.2,455.9,112.2,455.6,111.8,454.7z"/>
			<path id="XMLID_1004_" class="st114" d="M106.9,460.3c-0.2,0.2-0.5,0.4-0.7,0.6c-0.5,0.4-1,0.5-1.4,0.1c-0.5-0.6,0.6-0.5,0.5-1
				c0.4-0.1,0.9-0.2,1.3-0.3C106.8,459.8,107,459.9,106.9,460.3z"/>
			<path id="XMLID_1003_" class="st116" d="M106.9,460.3c-0.1-0.2-0.2-0.4-0.3-0.7c1.2-0.6,1.2-0.6,2,0.7c-0.3,0.1-0.7,0.2-1,0.3
				C107.5,460,107.2,460.1,106.9,460.3z"/>
			<path id="XMLID_1002_" class="st124" d="M111.8,459.6c-0.3,0-0.5-0.1-0.7-0.3c0.3,0,0.5-0.1,0.7-0.3c0.1,0,0.2,0,0.3,0
				c0.4-0.1,0.9-0.5,1,0.3c-0.1,0.1-0.2,0.2-0.3,0.3C112.4,459.6,112.1,459.6,111.8,459.6z"/>
			<path id="XMLID_1001_" class="st118" d="M106.9,457.7c0.4,0,0.9,0,1.4,0C107.1,458.4,107.1,458.4,106.9,457.7L106.9,457.7z"/>
			<path id="XMLID_1000_" class="st83" d="M112.4,457.7c-0.1,0.1-0.2,0.2-0.3,0.3c0-0.3-0.7-0.5-0.3-0.9
				C112,457,112.3,457.4,112.4,457.7z"/>
			<path id="XMLID_999_" class="st55" d="M102,461.6c0.8-0.3,0.2-0.7,0-1c0.4,0,0.9,0,1,0.6c0,0.3,0,0.7-0.4,0.8
				C102.3,462.1,102.1,461.8,102,461.6z"/>
			<path id="XMLID_998_" class="st124" d="M101.3,461.3c0.1,0.1,0.2,0.2,0.3,0.3c0,0.2,0,0.4,0,0.7
				C100.8,462.2,101.1,461.7,101.3,461.3z"/>
			<path id="XMLID_997_" class="st71" d="M108.5,462.2c0.1,0,0.2,0,0.3,0c0.5,0,0.9,0,1.4,0.5c-0.6,0.3-1.3,0.1-1.7,0.5
				c0-0.2,0-0.4,0-0.7C108.5,462.5,108.5,462.4,108.5,462.2z"/>
			<path id="XMLID_996_" class="st125" d="M117.3,462.2c-0.3,0.1-0.7,0.2-1,0.3c-0.4-0.1-0.6-0.1-0.3-0.7s0.9-0.7,1.3-0.9
				c0.3,0.3,0.5,0.6,0.3,1C117.5,462,117.4,462.1,117.3,462.2z"/>
			<path id="XMLID_995_" class="st81" d="M117.6,461.9c-0.1-0.3-0.2-0.7-0.3-1c0.4-0.2-0.2-0.9,0.4-0.8c0.5,0,0.5,0.5,0.6,0.8
				C118,461.2,118.2,461.8,117.6,461.9z"/>
			<path id="XMLID_994_" class="st82" d="M110.5,461.3c0.2,0,0.4,0,0.7,0c-0.1,0.4,0.5,0.8,0.1,1.1c0,0-0.3-0.2-0.5-0.3
				C109.8,462,110.4,461.6,110.5,461.3z"/>
			<path id="XMLID_993_" class="st72" d="M118,458.6c-0.2-1.6,1.1-0.7,1.6-1c0.2,0.5-0.3,0.5-0.5,0.7c-0.3,0.1-0.5,0.3-0.8,0.3
				C118.2,458.6,118.1,458.6,118,458.6z"/>
			<path id="XMLID_992_" class="st58" d="M118.3,458.6c0.1-0.3,0.4-0.3,0.7-0.3c0.1,0.1,0.1,0.1,0.1,0.2s-0.1,0.1-0.1,0.1
				c0,0.1,0,0.2,0,0.3C118.4,459.5,118.4,459.1,118.3,458.6z"/>
			<path id="XMLID_991_" class="st19" d="M115,459.3c0.3-0.1,0.7-0.5,1,0C115.7,459.7,115.4,459.7,115,459.3z"/>
			<path id="XMLID_990_" class="st86" d="M118.9,458.6c0-0.1,0-0.2,0-0.3c0.2-0.2,0.4-0.4,0.7-0.7c0.1,0,0.2,0,0.3,0
				C119.9,458.3,119.6,458.6,118.9,458.6z"/>
			<path id="XMLID_989_" class="st91" d="M116.3,458c-0.5,0-0.8-0.2-1-0.7c0-0.7,0.3-1,1-0.7c0.1,0.3,0.4,0.3,0.7,0.3
				c0.1,0.1,0.3,0.1,0.3,0.3C117,457.6,116.7,457.8,116.3,458z"/>
			<path id="XMLID_988_" class="st30" d="M117.3,457.3c-0.1-0.1-0.2-0.2-0.3-0.3c0.5-0.1,1.1-0.2,1.6-0.3
				C118.4,457.3,117.9,457.4,117.3,457.3z"/>
			<path id="XMLID_987_" class="st109" d="M116.3,456.7c-0.5,0-0.8,0.2-1,0.7c-0.5-0.4-1.2,0-1.6-0.6c0.1-0.9,1.1-0.1,1.4-0.8
				c-0.9-0.2-1.2-0.7-0.5-1.4c0.5-0.5,0.2-0.6-0.3-0.7c0.3-0.3,0.7-0.7,1-1c0.6,0.6,1.4,0.9,2,1.6c-0.3,0.7-0.2,1.5-0.7,2
				C116.5,456.5,116.4,456.6,116.3,456.7z"/>
			<path id="XMLID_986_" class="st63" d="M116.7,456.4c-0.1-0.7-0.1-1.5,0.7-1.9c0.1-0.1,0.2-0.1,0.3,0c0.3,0.1,0.7,0.3,0.8-0.1
				c0.5-1.3,0.6-0.1,0.8,0.1c-0.2,1.1-1.7,0.9-2,2C117.1,456.4,116.9,456.4,116.7,456.4z"/>
			<path id="XMLID_985_" class="st126" d="M120.6,452.1c-0.2,0.9-0.8,0.7-1.4,0.4c-0.4-0.2-0.7-0.7-1.3-0.4c-0.8-0.1-0.6-0.5-0.3-1
				c0.2-0.5,0.7-0.7,0.7-1.3c0.7,0,1.3,0,2,0c0.2,0.4,0,0.6-0.1,1c-0.1,0.2-0.2,0.4-0.1,0.6C120.2,451.7,120.5,451.8,120.6,452.1z"
				/>
			<path id="XMLID_984_" class="st121" d="M117.6,451.1c0,0.4-0.1,0.7,0.3,1c0,0.1,0.1,0.3,0.1,0.3c-1,0.7-1,0.7-0.4,2
				c-0.1,0-0.2,0-0.3,0c-0.7-0.5-1.9-0.3-2-1.6c0.1-0.1,0.2-0.2,0.3-0.3c0.5-0.5,0.7-1.3,1.6-1.3
				C117.4,451.1,117.5,451.1,117.6,451.1z"/>
			<path id="XMLID_983_" class="st122" d="M117.3,451.1c-0.5,0.5-0.9,1.1-1.6,1.3c0-0.6-0.1-1.1-0.7-1.3c-0.4,0.3-0.6,0.2-0.8-0.2
				c0-0.2,0-0.3,0.1-0.5c0.5-0.2,1,0,1.6-0.3C116.6,450,117.4,450,117.3,451.1z"/>
			<path id="XMLID_982_" class="st63" d="M114.4,450.5c0,0.1,0,0.2,0,0.3c-0.4,0.5-0.9,0.9-1.6,0.7c0-0.2,0-0.4,0-0.6
				C113.2,450.5,113.8,450.4,114.4,450.5z"/>
			<path id="XMLID_981_" class="st56" d="M115.7,466.2c0-0.1,0-0.2,0-0.3c0.1-0.7,0.5-0.7,1-0.6c0.7,0.2,0.6-0.3,0.6-0.7
				c0.6-0.5,0.9-0.1,1.3,0.3c-0.1,0.1-0.2,0.2-0.3,0.3c-0.3,0.5-0.6,1.1-0.8,1.6c-0.3,0.7-0.7,1-1.4,0.7
				C116,467,116.2,466.5,115.7,466.2z"/>
			<path id="XMLID_980_" class="st101" d="M119.3,469.1c-0.2,0.2-0.4,0.4-0.6,0.7c-0.4,0.2-0.6,0.8-1,1l0,0
				c-0.2,0.3-0.5,0.5-0.7,0.8c-0.3,0.6-0.9,0.9-1.4,1.3c-0.5,0.2-0.6,0.7-0.8,1.1c-0.2,0-0.4,0-0.6,0c-0.5-0.8-1.5-1.5-0.2-2.4
				c0.1-0.1,0.2-0.2,0.2-0.2c-1.2-1.4,1.1-0.8,0.9-1.6c0.4-0.6,0.9-0.9,1.6-0.7c0.1,0,0.2,0,0.3,0c0.5-0.4,1.1-0.3,1.6-0.3
				C119,468.6,119.3,468.5,119.3,469.1z"/>
			<path id="XMLID_979_" class="st111" d="M114.7,474c-0.2-0.7,0-1.1,0.7-1.3c0.1,0,0.1,0,0.2,0c0.5,0.1,1,0.1,1.5,0.2
				c0.6,0.4,0.4,1.1,0.6,1.7c0.2,0.3,0.7,0.5,0.3,1C116.6,475.6,115.8,474.5,114.7,474z"/>
			<path id="XMLID_978_" class="st72" d="M117.6,474.6c-1.2-0.2,0.1-1.3-0.7-1.6c-0.1-0.1-0.2-0.2-0.2-0.4c0.1-0.4,0.2-0.9-0.2-1.2
				c0-0.7,0.5-0.7,1-0.7c0.3,0.2,0.7,0.4,1,0.7c-0.8,0.4-0.5,1-0.3,1.6c0.7,0.7,0.1,1.1-0.3,1.6
				C117.9,474.6,117.8,474.6,117.6,474.6z"/>
			<path id="XMLID_977_" class="st107" d="M118.6,468.8c-0.5,0.5-1.1,0.3-1.6,0.3C117.4,468.4,117.9,468.2,118.6,468.8z"/>
			<path id="XMLID_976_" class="st73" d="M112.7,451.5c0.5-0.2,1.1-0.4,1.6-0.7c0.1,0.3,0.4,0.3,0.7,0.3c-0.2,0.4-0.3,1-1,1
				c-0.5-0.4-0.7,0-1,0.3c-0.2,0-0.4,0-0.6,0c0-0.2,0-0.4,0-0.7C112.5,451.7,112.6,451.6,112.7,451.5z"/>
			<path id="XMLID_975_" class="st63" d="M113.1,452.4c0-0.3,0.1-0.7,0.4-0.8c0.3-0.1,0.4,0.2,0.6,0.5
				C113.7,452.2,113.4,452.3,113.1,452.4z"/>
			<path id="XMLID_974_" class="st93" d="M120.6,452.1c-0.5,0-0.8-0.2-1-0.7c0.2-0.5,0.9-0.2,1-0.7c-0.1-0.3-0.2-0.6,0-0.9
				c0.3,0,0.7,0,1,0c0,1.4,1.2,1.2,2.1,1.5C122.6,451.6,121.6,451.8,120.6,452.1z"/>
			<path id="XMLID_973_" class="st105" d="M111.4,447.9c0.7-0.2,1.3-0.4,2-0.7C112.5,448.8,112.3,448.9,111.4,447.9z"/>
			<path id="XMLID_972_" class="st113" d="M120.6,449.8c0.1,0.3,0.2,0.7,0.3,1c-0.3,0.2-0.7,0.2-1,0c0.1-0.3,0.2-0.7,0.3-1
				C120.4,449.8,120.5,449.8,120.6,449.8z"/>
			<path id="XMLID_971_" class="st72" d="M117.6,470.7c0.2-0.4,0.3-1,1-1C118.4,470.2,118.3,470.7,117.6,470.7z"/>
			<path id="XMLID_970_" class="st95" d="M113.1,459.3c-0.2-0.4-0.6-0.3-1-0.3c0.4-0.4,0.9-1,1.4-0.2
				C113.8,459.1,113.4,459.2,113.1,459.3z"/>
			<path id="XMLID_969_" class="st127" d="M119.9,450.8c0.3,0,0.7,0,1,0c0.2,0.8,0.2,0.9-0.3,0.7c-0.4-0.2-0.7,0-1.1,0
				C119.1,450.9,119.5,450.9,119.9,450.8z"/>
			<path id="XMLID_968_" class="st74" d="M116.7,471.4c1.2,0.2,1,0.7,0.3,1.3c-0.5,0.4-1.1,0.3-1.6,0l0,0
				C115.8,472.2,116.2,471.8,116.7,471.4z"/>
			<path id="XMLID_967_" class="st128" d="M115.4,472.7c0.5,0,1.1,0,1.6,0c0,0.1,0,0.2,0,0.3C116.3,473.4,115.8,473.2,115.4,472.7z"
				/>
		</g>
	</g>
	<g id="XMLID_4_">
		<path id="XMLID_37_" class="st129" d="M-4.5,420c10.3-2.1,21.2-3.2,32.7-3.2c26.4,0,39.6,12.3,39.6,36.9
			c0,27.2-12.3,40.7-36.8,40.7c-5.2,0-10.5-1.2-15.8-3.7v31.8H-4.4L-4.5,420L-4.5,420z M15.1,474.2c4.9,2.7,10.1,4,15.8,4
			c11.7,0,17.5-8.2,17.5-24.6c0-14-6.5-20.9-19.4-20.9c-5.6,0-10.2,0.3-13.9,1V474.2z"/>
		<path id="XMLID_49_" class="st129" d="M182.5,388.7v105.7h-19.6V388.7H182.5z"/>
		<path id="XMLID_71_" class="st129" d="M216.8,388.7v15.5h-19.6v-15.5H216.8z M216.8,416.8v77.6h-19.6v-77.6H216.8z"/>
		<path id="XMLID_106_" class="st129" d="M230.4,404.2h14.5l3,12.6h19.5v15.5H250V468c0,7.2,3.1,10.9,9.4,10.9h8v15.5H250
			c-13,0-19.5-7-19.5-20.9v-69.3H230.4z"/>
		<path id="XMLID_120_" class="st129" d="M296.5,388.7v15.5h-19.6v-15.5H296.5z M296.5,416.8v77.6h-19.6v-77.6H296.5z"/>
		<path id="XMLID_128_" class="st129" d="M380.5,522.5h-19.6v-31.8c-5.3,2.5-11.3,3.7-18,3.7c-23.6,0-35.3-13.1-35.3-39.3
			c0-25.6,13.4-38.4,40.3-38.4c10,0,20.9,1.1,32.7,3.2v102.6H380.5z M360.9,434.4c-4.7-1.2-9-1.8-12.9-1.8c-14,0-21.1,7.5-21.1,22.4
			c0,15.4,6.1,23.1,18.3,23.1c6.1,0,11.4-1.3,15.8-4L360.9,434.4L360.9,434.4z"/>
	</g>
	<g id="XMLID_46_">
		<g>
			<path class="st130" d="M208.6,506.8"/>
		</g>
	</g>
</g>
</svg>
