<?xml version="1.0" encoding="utf-8"?>
<!-- Generator: Adobe Illustrator 19.0.0, SVG Export Plug-In . SVG Version: 6.00 Build 0)  -->
<svg version="1.1" id="Isolation_Mode" xmlns="http://www.w3.org/2000/svg" xmlns:xlink="http://www.w3.org/1999/xlink" x="0px"
	 y="0px" viewBox="0 0 500 500" style="enable-background:new 0 0 500 500;" xml:space="preserve">
<style type="text/css">
	.st0{fill:#45C4E3;}
	.st1{fill:#FFFFFF;}
</style>
<circle id="circle" class="st0" cx="223.7" cy="335.8" r="273.1"/>
<g id="small3">
	<path class="st1" d="M271.3,237.3c7.6-8.3,15.3-16.5,23.1-24.6c0.7-0.7,0.5-2.2-0.6-2.4c-4.4-0.6-8.4-2-12.3-4.2
		c0.1,0.8,0.2,1.5,0.3,2.3c6.6-6.9,14.9-11.8,22.9-16.9c8.9-5.7,17.9-11.3,26.8-17c-0.6-0.8-1.2-1.5-1.7-2.3
		c-10.4,10.4-20.4,21.1-30.2,32.1c-0.6,0.7-0.6,1.8,0.3,2.3c1.4,0.7,2.7,1.4,4.1,2.2c1.1,0.6,4.6,1.7,4.5,3.3
		c0.2-0.4,0.5-0.8,0.7-1.2c-13,8.9-26.4,17.3-40.1,25.2c-1.6,0.9-0.2,3.4,1.5,2.5c9.9-5.7,19.6-11.6,29.1-17.8
		c2.5-1.6,4.9-3.2,7.3-4.9c1.2-0.8,4.3-2,4.4-3.7c0-1.8-0.8-2.7-2.2-3.8c-2.2-1.7-5.3-2.9-7.8-4.2c0.1,0.8,0.2,1.5,0.3,2.3
		c9.8-11,19.8-21.7,30.2-32.1c1.1-1.1-0.3-3.1-1.7-2.3c-8.9,5.7-17.9,11.3-26.8,17c-8.2,5.2-16.7,10.2-23.5,17.3
		c-0.6,0.7-0.5,1.8,0.3,2.3c4,2.3,8.3,3.9,12.9,4.5c-0.2-0.8-0.4-1.6-0.6-2.4c-7.9,8-15.6,16.2-23.1,24.6
		C268,236.6,270,238.7,271.3,237.3L271.3,237.3z"/>
</g>
<g id="loudspeaker">
	<g>
		<path class="st1" d="M177.9,248.6c-8.4,13.8-13.4,29.4-14.9,45.5c-1.6,17,1.7,34,7.2,50c2.8,8.1,6.2,16,9.7,23.9
			c3.5,7.8,7.5,15.4,12.7,22.3c9.5,12.6,23.5,22.2,39.1,25.4c7.3,1.5,15.7,1.7,22.7-1.2c6-2.5,9.8-8.2,12.2-14
			c6.3-15.4,8.1-33.2,7.3-49.7c-0.8-17.3-4.8-34.4-11.2-50.4c-5.8-14.6-13.4-28.9-23.9-40.7c-8.2-9.2-18.9-16.9-31.1-19.5
			c-10.9-2.3-23.7,0.1-30.9,9.2c-1.1,1.4,0.6,3.3,2,2c0.4-0.4,0.8-0.7,1.2-1.1c1.4-1.2-0.6-3.2-2-2c-0.4,0.4-0.8,0.7-1.2,1.1
			c0.7,0.7,1.4,1.4,2,2c9.4-11.9,26.6-10.7,38.9-4.7c13.8,6.7,23.8,19.3,31.4,32.2c18,30.6,26.4,67.8,19.7,102.9
			c-1.5,7.8-3.4,16-7.6,22.8c-4.8,7.7-13.1,9.4-21.6,9.1c-17.1-0.5-32.8-10.8-43.5-23.6c-5.6-6.7-9.7-14.7-13.3-22.6
			c-3.8-8.2-7.3-16.6-10.2-25.1c-5.7-16.5-8.4-33.8-6.4-51.2c1.6-14.5,6.7-28.6,14.2-41.1C181.4,248.5,178.9,247,177.9,248.6z"/>
	</g>
	<g>
		<path class="st1" d="M177.9,248.6c-8.4,13.8-13.4,29.4-14.9,45.5c-1.6,17,1.7,34,7.2,50c2.8,8.1,6.2,16,9.7,23.9
			c3.5,7.8,7.5,15.4,12.7,22.3c9.5,12.6,23.5,22.2,39.1,25.4c7.3,1.5,15.7,1.7,22.7-1.2c6-2.5,9.8-8.2,12.2-14
			c6.3-15.4,8.1-33.2,7.3-49.7c-0.8-17.3-4.8-34.4-11.2-50.4c-5.8-14.6-13.4-28.9-23.9-40.7c-8.2-9.2-18.9-16.9-31.1-19.5
			c-10.9-2.3-23.7,0.1-30.9,9.2c-1.1,1.4,0.9,3.5,2,2c9.4-11.9,26.6-10.7,38.9-4.7c13.8,6.7,23.8,19.3,31.4,32.2
			c18,30.6,26.4,67.8,19.7,102.9c-1.5,7.8-3.4,16-7.6,22.8c-4.8,7.7-13.1,9.4-21.6,9.1c-17.1-0.5-32.8-10.8-43.5-23.6
			c-5.6-6.7-9.7-14.7-13.3-22.6c-3.8-8.2-7.3-16.6-10.2-25.1c-5.7-16.5-8.4-33.8-6.4-51.2c1.6-14.5,6.7-28.6,14.2-41.1
			C181.4,248.5,178.9,247,177.9,248.6L177.9,248.6z"/>
	</g>
	<g>
		<path class="st1" d="M183.7,253.5c-5.1,5.7-7.7,12.7-9.5,20c-1.9,7.9-2.8,16.1-3.2,24.2c-0.8,16.6,1.6,33.4,6.7,49.2
			c2.5,7.7,5.6,15.4,9.6,22.5c1.8,3.3,4.2,6.1,7,8.7c3.2,2.9,6,5.8,8.7,9.3c4.9,6.3,11.4,11.2,18.1,15.3c6.1,3.7,13.6,6.2,20.8,4.9
			c15.7-2.7,20.4-21.4,23.3-34.7c3.6-16.3,3.2-33.3-0.8-49.5c-2.1-8.6-5.4-16.8-8.8-24.9c-3.2-7.6-6.8-15.2-11.2-22.2
			c-7.9-12.6-19.4-23.4-34-27.5c-9.9-2.8-22.3-1.9-28.9,6.9c-1.1,1.5,1.4,2.9,2.5,1.5c4.9-6.5,13.8-7.5,21.3-6.5
			c7.8,1.1,15.1,4.8,21.3,9.6c13.3,10.3,20.8,26.1,27.1,41.3c7,16.7,11.5,33.5,11,51.7c-0.2,8.7-1.7,17.4-4,25.8
			c-2.1,7.6-4.8,16.1-10.6,21.6c-5.9,5.6-14.9,5-21.9,2.3c-7.4-2.8-14.6-8.3-20.1-13.9c-2.8-2.8-4.9-6.2-7.6-9.1
			c-2.8-3-6.2-5.3-8.7-8.6c-4.8-6.5-7.8-14.7-10.5-22.3c-5.3-15.1-7.8-31.2-7.6-47.2c0.1-8.3,1-16.6,2.6-24.7
			c1.5-7.7,3.9-15.6,9.3-21.5C187,254.1,185,252.1,183.7,253.5L183.7,253.5z"/>
	</g>
	<g>
		<path class="st1" d="M201.6,321c-2.3,4.9-1.1,9.8,1.5,14.3c1.8,3.2,4.8,8.8,9.1,6.2c3.9-2.4,1.4-9.1,0.1-12.2
			c-1.4-3.4-4.2-9.2-8.5-9.2c-1.9,0-1.9,2.9,0,2.9c2.5,0,4.6,4.7,5.5,6.6c1.2,2.4,2.4,5.8,1.9,8.5c-0.6,3.7-3.7-1.2-4.1-1.8
			c-0.7-1.1-1.4-2.1-2.1-3.3c-1.8-3.2-2.6-7.1-1-10.5C204.9,320.8,202.4,319.3,201.6,321L201.6,321z"/>
	</g>
	<g>
		<path class="st1" d="M175.4,284.6c4.4-4.7,10.8-6.3,17.1-5.2c6.4,1.1,11.8,5.3,16,9.9c4.7,5.2,7.8,11.7,10.6,18.1
			c3.1,6.9,6.1,13.8,9.1,20.7c2.9,6.6,4.5,13.2,5.6,20.4c1.1,7.4,1.8,15.1,0,22.4c-1.5,6.1-5,11.8-10.4,15.2
			c-5.4,3.3-13,3.1-17.8-1.1c-1.4-1.2-3.4,0.8-2,2c4.6,4,10.6,4.9,16.5,3.5c6.6-1.6,11.4-6.9,14.3-12.8c3.5-7.2,3.8-15.4,3.1-23.2
			c-0.8-8.4-2.3-16.9-5.4-24.8c-3.1-7.7-6.7-15.3-10-22.9c-3.3-7.5-7.1-14.9-12.8-20.9c-9.1-9.7-25.8-14.3-35.9-3.4
			C172.1,283.9,174.1,286,175.4,284.6L175.4,284.6z"/>
	</g>
	<g>
		<path class="st1" d="M174.6,324.9c9.2,1.3,20.8,2.9,29-2.5c1.5-1,0.1-3.5-1.5-2.5c-7.5,4.9-18.4,3.4-26.8,2.2
			C173.5,321.9,172.7,324.7,174.6,324.9L174.6,324.9z"/>
	</g>
	<g>
		<path class="st1" d="M209.6,339.9c-3.9,4.1-9.4,5.8-14.3,8.2c-4.8,2.5-8.7,6.3-11.4,11c-0.9,1.6,1.6,3.1,2.5,1.5
			c3-5.2,7.4-8.5,12.7-11.1c4.5-2.1,9.1-3.9,12.6-7.6C212.9,340.6,210.9,338.6,209.6,339.9L209.6,339.9z"/>
	</g>
	<g>
		<path class="st1" d="M56,335.7c11.3-4.1,22.6-8.1,33.9-12.2c5-1.8,10-3.8,14.7-6.3c5-2.7,9.7-6,14.4-9.1
			c18.3-12.2,37.7-23.8,52.2-40.6c1.2-1.4-0.8-3.4-2-2c-14.1,16.4-32.9,27.7-50.6,39.6c-4.5,3-8.9,6-13.5,8.7
			c-5,3-10.4,5.1-15.8,7.1c-11.3,4.1-22.6,8.1-33.9,12.2C53.5,333.5,54.3,336.3,56,335.7L56,335.7z"/>
	</g>
	<g>
		<path class="st1" d="M78.2,418.5c21-7.1,42.5-13,64.6-14.6c11-0.8,22,0,33,0.7c11.4,0.8,22.7,1.6,34.1,2.5c1.9,0.1,1.8-2.7,0-2.9
			c-11.4-0.8-22.7-1.6-34.1-2.5c-11.4-0.8-22.7-1.5-34-0.7c-22,1.6-43.5,7.6-64.3,14.6C75.7,416.4,76.5,419.1,78.2,418.5L78.2,418.5
			z"/>
	</g>
	<g>
		<path class="st1" d="M53.9,333.1c-5.8,4.9-7.4,12.6-7.8,19.8c-0.5,8.7,0.8,17.5,3.2,25.9c2.4,8.4,6.4,16.3,11.4,23.4
			c4.7,6.6,10.6,13.1,18.6,15.5c1.8,0.5,2.5-2.2,0.8-2.8c-7.6-2.3-13-8.6-17.5-14.9c-4.5-6.4-7.9-13.6-10.3-21.1
			c-2.4-7.5-3.5-15.3-3.4-23.2c0-7.4,1.1-15.6,7-20.6C57.3,333.9,55.3,331.9,53.9,333.1L53.9,333.1z"/>
	</g>
	<g>
		<path class="st1" d="M77,326.7c-7.1,14.5-6.4,31.5-0.3,46.3c6,14.7,16.9,26.8,28.8,37c1.4,1.2,3.5-0.8,2-2
			c-11.3-9.6-21.3-20.7-27.5-34.3c-6.5-14.1-7.5-31.3-0.6-45.4C80.3,326.5,77.9,325,77,326.7L77,326.7z"/>
	</g>
	<g>
		<path class="st1" d="M106,410c-0.2,7.7-0.1,15.4,0.2,23c0.1,1.8,3,1.9,2.9,0c-0.3-7.7-0.4-15.3-0.2-23
			C109,408.1,106.1,408.1,106,410L106,410z"/>
	</g>
	<g>
		<path class="st1" d="M127.9,450.5c-6.5-6.1-13-12.1-19.3-18.2c-1.3-1.3-3.4,0.7-2,2c6.4,6.2,13,12.3,19.5,18.4
			C126.6,451.9,127.2,451.1,127.9,450.5z"/>
	</g>
	<g>
		<path class="st1" d="M105.7,469.3c-7.7-9.9-14.6-20.5-20.5-31.7c-0.9-1.6-3.4-0.2-2.5,1.5c5.7,10.9,12.4,21.2,19.9,30.9
			C103.7,469.6,104.7,469.4,105.7,469.3z"/>
	</g>
	<g>
		<path class="st1" d="M85.1,438c-0.1-7.3,0.2-14.6,0.8-21.9c0.2-1.8-2.7-1.8-2.9,0c-0.7,7.3-0.9,14.6-0.8,21.9
			C82.2,439.9,85.1,439.9,85.1,438L85.1,438z"/>
	</g>
	<g>
		<path class="st1" d="M99.1,412.3c0,7,0,14.1,0,21.1c0,1.9,2.9,1.9,2.9,0c0-7,0-14.1,0-21.1C101.9,410.4,99.1,410.4,99.1,412.3
			L99.1,412.3z"/>
	</g>
	<g>
		<path class="st1" d="M100.5,435.2c2.4,0,4.9,0,7.3,0c1.9,0,1.9-2.9,0-2.9c-2.4,0-4.9,0-7.3,0C98.7,432.3,98.7,435.2,100.5,435.2
			L100.5,435.2z"/>
	</g>
	<g>
		<path class="st1" d="M122,454.9c-6.6-7.3-13.5-14.4-20.7-21.2c-1.3-1.3-3.4,0.8-2,2c6.7,6.4,13.1,12.9,19.4,19.7
			C119.7,455.2,120.9,455,122,454.9z"/>
	</g>
	<g>
		<path class="st1" d="M177.6,324.8c-0.1,3.6,1.3,7,2.3,10.3c1.2,3.8,2.4,7.6,3.7,11.4c0.6,1.8,3.4,1,2.8-0.8
			c-1.2-3.4-2.3-6.9-3.4-10.4c-1.1-3.4-2.6-7-2.5-10.6C180.6,323,177.7,323,177.6,324.8L177.6,324.8z"/>
	</g>
	<g>
		<path class="st1" d="M182.4,326.3c0.5,5.1,1.9,10,4.3,14.5c0.9,1.6,3.4,0.2,2.5-1.5c-2.2-4.1-3.5-8.5-3.9-13.1
			C185.1,324.4,182.3,324.4,182.4,326.3L182.4,326.3z"/>
	</g>
	<g>
		<path class="st1" d="M186.8,326.3c0.1,3.3,1.2,6.3,3.4,8.8c1.2,1.4,3.2-0.6,2-2c-1.6-1.9-2.5-4.2-2.5-6.7
			C189.6,324.4,186.8,324.4,186.8,326.3L186.8,326.3z"/>
	</g>
	<g>
		<path class="st1" d="M191.1,326.4c0.4,1.3,1,2.4,1.9,3.5c0.5,0.6,1.5,0.5,2,0c0.6-0.6,0.5-1.4,0-2c-0.5-0.7-0.9-1.4-1.1-2.2
			C193.4,323.8,190.6,324.6,191.1,326.4L191.1,326.4z"/>
	</g>
	<g>
		<path class="st1" d="M174.1,291.5c5.5-7.6,15.8-8,23.6-3.9c8.8,4.6,13.8,14,17.1,22.9c0.6,1.7,3.4,1,2.8-0.8
			c-3.9-10.4-9.6-20.5-20-25.4c-8.9-4.2-20.1-2.4-26,5.8C170.5,291.6,173,293,174.1,291.5L174.1,291.5z"/>
	</g>
	<g>
		<path class="st1" d="M173.9,296.9c4.8-4.4,11.2-6.6,17.5-4.5c6.3,2.1,11.5,7.6,14.5,13.3c0.9,1.6,3.4,0.2,2.5-1.5
			c-3.5-6.6-9.2-11.9-16.2-14.6c-7-2.8-15.1,0.4-20.3,5.2C170.5,296.2,172.5,298.2,173.9,296.9L173.9,296.9z"/>
	</g>
	<g>
		<path class="st1" d="M172.9,302.8c1.4-0.6,2.6-1.5,3.9-2.5c2.3-1.8,4.4-2.6,7.4-2.6c3.2-0.1,5.5,0.5,7.9,2.6
			c1.7,1.5,3.3,3.2,5,4.8c1.3,1.3,3.4-0.7,2-2c-3.9-3.7-7.2-7.9-12.9-8.3c-2.4-0.1-5.3-0.2-7.6,0.9c-2.6,1.2-4.6,3.4-7.2,4.6
			C169.7,301.1,171.2,303.5,172.9,302.8L172.9,302.8z"/>
	</g>
	<g>
		<path class="st1" d="M173.1,308.2c4.5-6.2,12.9-4,17,1.3c1.2,1.5,3.2-0.6,2-2c-5.5-6.9-16-8.3-21.6-0.7
			C169.6,308.2,172.1,309.7,173.1,308.2L173.1,308.2z"/>
	</g>
	<g>
		<path class="st1" d="M173.2,312.9c2.9-1.3,6.2-0.8,8.8,0.9c1.5,1,3-1.5,1.5-2.5c-3.5-2.4-7.8-2.6-11.7-0.9
			C170.1,311.1,171.5,313.6,173.2,312.9L173.2,312.9z"/>
	</g>
	<g>
		<path class="st1" d="M210.7,394.8c3.6,0.5,7.1,0.9,10.7,0c3.4-0.9,6.8-3.3,9.6-5.3c5.8-4.2,10.1-10.1,11-17.3
			c0.2-1.8-2.6-1.8-2.9,0c-0.8,6.2-4.7,11.1-9.6,14.8c-2.3,1.7-4.8,3.2-7.4,4.4c-3.3,1.6-7.2,1.1-10.8,0.6
			C209.6,391.8,208.8,394.6,210.7,394.8L210.7,394.8z"/>
	</g>
	<g>
		<path class="st1" d="M217.6,399.9c10.7,0.5,21-5.3,26.1-14.8c0.9-1.6-1.6-3.1-2.5-1.5c-4.6,8.6-13.8,13.8-23.6,13.4
			C215.8,397,215.8,399.9,217.6,399.9L217.6,399.9z"/>
	</g>
	<g>
		<path class="st1" d="M224.7,404.4c4,0.6,7.5-0.5,10.9-2.5c3.5-2.1,7.4-5.2,9.7-8.7c1-1.6-1.5-3-2.5-1.5c-1.7,2.6-4.5,4.6-6.9,6.5
			c-3,2.3-6.6,4-10.4,3.4C223.7,401.3,222.9,404.1,224.7,404.4L224.7,404.4z"/>
	</g>
	<g>
		<path class="st1" d="M237.6,407.5c3.5-0.5,6.5-2.8,8.1-6c0.8-1.7-1.7-3.1-2.5-1.5c-1.3,2.6-3.5,4.2-6.4,4.6
			C235,405,235.8,407.8,237.6,407.5L237.6,407.5z"/>
	</g>
	<g>
		<path class="st1" d="M160.7,275.2c-3.7,15.6-5,31.6-3.8,47.6c0.1,1.8,3,1.9,2.9,0c-1.2-15.7,0-31.5,3.7-46.8
			C163.9,274.2,161.1,273.4,160.7,275.2L160.7,275.2z"/>
	</g>
	<g>
		<path class="st1" d="M154.3,281c-2.6,10.9-3.5,22-2.6,33.1c0.2,1.8,3,1.8,2.9,0c-0.9-10.9-0.1-21.8,2.5-32.4
			C157.5,280,154.7,279.2,154.3,281L154.3,281z"/>
	</g>
	<g>
		<path class="st1" d="M146.7,286.5c-1.5,8.1-1.7,16.2-0.6,24.4c0.3,1.8,3,1,2.8-0.8c-1.1-7.6-0.8-15.3,0.6-22.8
			C149.8,285.4,147,284.6,146.7,286.5L146.7,286.5z"/>
	</g>
	<g>
		<path class="st1" d="M140.6,291.9c-1.6,5.5-2.2,11.1-1.7,16.8c0.1,1.8,3,1.9,2.9,0c-0.4-5.4,0.1-10.8,1.6-16
			C143.9,290.9,141.1,290.1,140.6,291.9L140.6,291.9z"/>
	</g>
	<g>
		<path class="st1" d="M133.3,296.6c0,2.9,0,5.8,0,8.6c0,1.9,2.9,1.9,2.9,0c0-2.9,0-5.8,0-8.6C136.2,294.8,133.3,294.8,133.3,296.6
			L133.3,296.6z"/>
	</g>
	<g>
		<path class="st1" d="M80.8,365.1c0.6,8.7,6.2,16.6,11.4,23.2c5.6,7.3,12.6,13.5,20.2,18.6c1.5,1,3-1.5,1.5-2.5
			c-6.7-4.5-12.7-9.8-17.9-16c-5.4-6.3-11.7-14.8-12.3-23.4C83.5,363.3,80.7,363.3,80.8,365.1L80.8,365.1z"/>
	</g>
	<g>
		<path class="st1" d="M120.7,400.2c1.9,0,1.9-2.9,0-2.9C118.8,397.3,118.8,400.2,120.7,400.2L120.7,400.2z"/>
	</g>
	<g>
		<path class="st1" d="M130.9,397.9c13.6-2.6,27.5-2.7,41.2-0.3c1.8,0.3,2.6-2.5,0.8-2.8c-14.2-2.5-28.6-2.4-42.7,0.3
			C128.3,395.5,129.1,398.2,130.9,397.9L130.9,397.9z"/>
	</g>
	<g>
		<path class="st1" d="M98.6,404.6c-0.4,1.5-0.9,3-1.7,4.4c-0.8,1.6,1.6,3.1,2.5,1.5c0.8-1.6,1.5-3.3,2-5.1
			C101.8,403.6,99.1,402.8,98.6,404.6L98.6,404.6z"/>
	</g>
	<g>
		<path class="st1" d="M95.7,400.1c-1.7,3.9-3.4,7.8-5.2,11.6c-0.8,1.7,1.7,3.1,2.5,1.5c1.8-3.9,3.5-7.7,5.2-11.6
			C99,399.9,96.5,398.4,95.7,400.1L95.7,400.1z"/>
	</g>
	<g>
		<path class="st1" d="M91,395.8c-1.4,6.4-4.5,12.2-7.7,17.9c-0.9,1.6,1.6,3.1,2.5,1.5c3.3-5.9,6.5-11.9,8-18.6
			C94.2,394.8,91.4,394,91,395.8L91,395.8z"/>
	</g>
	<g>
		<path class="st1" d="M86.6,390.2c0,3.1-1.6,6-2.9,8.8c-1.4,2.9-2.9,5.7-4.6,8.5c-1,1.6,1.5,3,2.5,1.5c1.9-3.1,3.5-6.2,5-9.5
			c1.4-3,2.8-6,2.8-9.3C89.5,388.4,86.6,388.4,86.6,390.2L86.6,390.2z"/>
	</g>
	<g>
		<path class="st1" d="M83.7,385.1c-0.7,4.6-2.3,8.8-4.7,12.7c-1,1.6,1.5,3,2.5,1.5c2.5-4.1,4.2-8.6,5-13.4
			C86.7,384,84,383.2,83.7,385.1L83.7,385.1z"/>
	</g>
	<g>
		<path class="st1" d="M80.4,379.6c-1.4,3-2.9,6-4.3,9c-0.8,1.7,1.7,3.1,2.5,1.5c1.4-3,2.9-6,4.3-9
			C83.7,379.4,81.2,377.9,80.4,379.6L80.4,379.6z"/>
	</g>
	<g>
		<path class="st1" d="M100.5,412.8c2.2,0.9,3.4,3.3,5.9,3.7c1.8,0.3,2.6-2.5,0.8-2.8c-1.1-0.2-1.9-0.9-2.7-1.6
			c-1-0.9-2-1.6-3.2-2.1C99.5,409.3,98.8,412.1,100.5,412.8L100.5,412.8z"/>
	</g>
	<g>
		<path class="st1" d="M100.4,417.7c1.6,1.1,3.2,2.2,4.7,3.3c1.5,1.1,3-1.4,1.5-2.5c-1.6-1.1-3.2-2.2-4.7-3.3
			C100.3,414.2,98.9,416.7,100.4,417.7L100.4,417.7z"/>
	</g>
	<g>
		<path class="st1" d="M99.1,421.9c2.4,2.1,4.8,4,7.4,5.8c1.5,1.1,2.9-1.4,1.5-2.5c-2.3-1.7-4.6-3.5-6.8-5.4
			C99.8,418.7,97.7,420.7,99.1,421.9L99.1,421.9z"/>
	</g>
	<g>
		<path class="st1" d="M99.3,428.3c1.9,2.3,4.1,4.3,6.5,6.1c1.5,1.1,2.9-1.4,1.5-2.5c-2.2-1.6-4.2-3.5-5.9-5.6
			C100.1,424.8,98.1,426.9,99.3,428.3L99.3,428.3z"/>
	</g>
</g>
<g id="lightning">
	<path class="st1" d="M457.2,224c0.4,0.1,0.2-0.2,0.2-0.3C456.8,223.6,457.3,224.1,457.2,224z"/>
	<path class="st1" d="M451.5,224.5l0-0.3c0,0-0.2,0.2-0.3,0.4c-0.2,0.2-0.3,0.5-0.3,0.5s0.2-0.1,0.3-0.3
		C451.4,224.6,451.5,224.5,451.5,224.5z"/>
	<path class="st1" d="M446,224.5c0.6,1,1,0.9,1.5,0.6c0.5-0.3,1-0.7,1.6-0.4l0.3,0.4l0-1.4C448.2,223.9,447,225.1,446,224.5z"/>
	<path class="st1" d="M441.4,219.5c0.5,1-0.4,0.7,0.8,0.4c-0.1-0.1-0.1-0.2-0.2-0.3C441.9,219.6,441.7,219.6,441.4,219.5z"/>
	<path class="st1" d="M442,219.6C442.6,219.6,441.3,218.8,442,219.6L442,219.6z"/>
	<path class="st1" d="M439.3,219.8c0,0,0.1-0.2,0.3-0.4c0.1-0.2,0.3-0.4,0.3-0.4c-0.4-0.6-1.2-0.8-1-1.2
		C438.1,218.1,438.5,218.8,439.3,219.8z"/>
	<path class="st1" d="M439.2,221.8l0.3-0.4C439.3,221.1,439.2,221,439.2,221.8z"/>
	<path class="st1" d="M440.1,220.6c0,0-0.2,0.2-0.3,0.4c-0.2,0.2-0.3,0.4-0.3,0.4c0.3,0.4,0.6,1.3,0.3-0.3
		C440,221.9,439.9,221.1,440.1,220.6z"/>
	<path class="st1" d="M440.7,221c0.6,0.6,1.3,0.9,0.8,1.8C442.9,222.4,442.2,220.8,440.7,221z"/>
	<path class="st1" d="M446.4,226.8l0.7,0.5l0.3-0.8C447.3,226.9,446.2,226.1,446.4,226.8z"/>
	<path class="st1" d="M433.6,218c0.2,0.7,0.9,1.8,1.3,2.6l0.3-0.7C434.7,219.4,434,218.9,433.6,218z"/>
	<path class="st1" d="M434.9,220.6c0,0-0.1,0.3-0.2,0.6c-0.1,0.3-0.2,0.6-0.2,0.6C435.2,221.8,435.2,221.3,434.9,220.6z"/>
	<path class="st1" d="M440.1,224.8c0,0,0.2-0.5,0.3-1.1c0.2-0.5,0.4-1,0.4-1s-0.3,0.5-0.5,1.1c-0.2,0.5-0.5,1.1-0.5,1.1L440.1,224.8
		z"/>
	<polygon class="st1" points="430.1,217.7 430,216.1 430,218.6 	"/>
	<path class="st1" d="M427.9,218c-0.2-1.4-1.5-2.4-1.4-3.3c-0.5,0.2-0.6,1.5-0.6,2.6C426.1,216.6,426.7,216.8,427.9,218z"/>
	<path class="st1" d="M425.7,219c0.1-0.4,0.1-1,0.1-1.7C425.7,217.6,425.6,218.1,425.7,219z"/>
	<path class="st1" d="M432.8,221.4c-0.2-0.4-0.8-1.5-1.4-2l1.1,2C432.5,221.4,432.7,221.4,432.8,221.4z"/>
	<path class="st1" d="M432.5,221.5L432.5,221.5c-0.4-0.1-0.7-0.1-0.8-0.1C431.7,221.3,432,221.4,432.5,221.5z"/>
	<path class="st1" d="M432.9,221.4C432.8,221.4,432.8,221.4,432.9,221.4C432.9,221.6,432.9,221.7,432.9,221.4z"/>
	<path class="st1" d="M437.3,223.4c-0.2,1-0.8,2.3,0.7,3.6C438,225.8,437.1,225,437.3,223.4z"/>
	<path class="st1" d="M434.2,223.8l1.1,0.3c-0.2-0.5-0.6-1.2-0.6-1.7c0,0-0.1,0.3-0.3,0.7C434.3,223.4,434.2,223.8,434.2,223.8z"/>
	<polygon class="st1" points="434,224.5 434.2,223.8 433.8,223.7 	"/>
	<path class="st1" d="M428.1,220.9c0,1-0.4,1.1-0.9,1.3c0.7,0.4,1.3,0.5,1.8,0.5C428.9,222,428.6,220.8,428.1,220.9z"/>
	<path class="st1" d="M430.3,221.4c0,0,0,0.1,0,0.1C430.4,221.7,430.4,221.7,430.3,221.4z"/>
	<path class="st1" d="M422.5,222.8c0.1,0.1,0.2,0.3,0.3,0.4c-0.1-0.1-0.1-0.3-0.2-0.4L422.5,222.8z"/>
	<path class="st1" d="M429.3,223.1c0.5,0.4,0.6-0.2,0.6-0.9c-0.2,0.2-0.5,0.4-0.8,0.5C429.1,223,429.2,223.2,429.3,223.1z"/>
	<path class="st1" d="M424.7,220.1c0.4,0.5,0.8,0.8,1.2,1.2C425.4,220.6,424.6,219.5,424.7,220.1z"/>
	<path class="st1" d="M429.9,220.9C429.9,220.9,429.9,220.8,429.9,220.9C429.6,220.4,429.7,220.6,429.9,220.9z"/>
	<path class="st1" d="M429.9,220.9c-0.1,0.3-0.1,0.8,0,1.3c0.2-0.2,0.3-0.4,0.4-0.7C430.1,221.3,430,221.1,429.9,220.9z"/>
	<path class="st1" d="M427.5,238.7c-0.9-2.3-0.8-4.7,0.9-2.6c0.1-2-3.3-8.8-5.7-12.8c0.4,1,0.7,1.8,0.4,3.3c0.8,1.2,3,2.4,3.1,4.5
		c-0.6,1.5-1.2-0.5-2.2-1.6c1.6,2.6,0.3,4.5,2.3,8.7l0.3-1.8C426.9,237,427,238.2,427.5,238.7z"/>
	<path class="st1" d="M424.5,223.2l0.3-0.3c-0.6-0.3-1.2-1.1-2.5-2.8c-0.2,1.1,0,2,0.3,2.7l1.9,0L424.5,223.2z"/>
	<path class="st1" d="M426.4,222.6c0.6,2.3,0.2,3.4,1.7,5.8c1-0.4,0-2.1,0.2-3.1c-1.5,0.8,0-1.3-1.7-2.4c0.2-0.4,0.5-0.6,0.7-0.7
		c-0.4-0.2-0.9-0.5-1.3-0.9c0,0.1,0.1,0.1,0.1,0.1l0,0c0,0,0,0,0,0c0.2,0.3,0.3,0.4,0.1,0.3c0,0,0,0,0,0
		C426.2,222.1,426.3,222.4,426.4,222.6c-0.7-0.4-0.3-0.6-0.3-0.9c0-0.1-0.1-0.2-0.1-0.3l0,0c0,0-0.3,0.4-0.6,0.7
		c-0.3,0.4-0.6,0.7-0.6,0.7C425.2,223.1,425.7,223,426.4,222.6z"/>
	<path class="st1" d="M438.6,231.2c-0.1-0.1-0.2-0.3-0.2-0.4C438.4,231,438.4,231.2,438.6,231.2z"/>
	<path class="st1" d="M437.6,230.3c0-0.3-0.2-1.1,0.3-1c0.5,0.5,0.3,0.9,0.6,1.5c0-0.6,0.3-1.5-0.7-2.2l0,0.3
		c-0.9-0.5-2.6-2.7-2.6-3C435.9,227.5,436.5,228.7,437.6,230.3z"/>
	<path class="st1" d="M432.3,227.3c0,0-0.3,0.3-0.5,0.7c-0.2,0.3-0.5,0.7-0.5,0.7l1.4,1.7l-0.5-1.1
		C433.2,229.5,432.6,228.2,432.3,227.3z"/>
	<polygon class="st1" points="421.8,221.6 420.9,219 421.6,222.8 	"/>
	<polygon class="st1" points="420,222.2 419.2,219.9 419.2,221.3 	"/>
	<path class="st1" d="M342.1,291.3L342,292C342.1,291.8,342.1,291.5,342.1,291.3z"/>
	<path class="st1" d="M344.9,290.4l-0.4-1C344.6,290,344.8,290.4,344.9,290.4z"/>
	<path class="st1" d="M378,236.2c-1.8-2.5-4.4-6.4-2.8-3.1l1.7,3.1C377,235.4,377.4,235.6,378,236.2z"/>
	<path class="st1" d="M360.3,268.1c0.2,0.2,0.4,0.5,0.5,0.7c-0.3-1-0.6-1.9-0.9-2.7C360,266.8,360.1,267.4,360.3,268.1z"/>
	<path class="st1" d="M365.1,279.1l-1.5-1.4C364,278.2,364.5,278.7,365.1,279.1z"/>
	<path class="st1" d="M328.4,299l0.6,2.1C329.7,300.9,328.8,300,328.4,299z"/>
	<path class="st1" d="M402,227.4c-1-1-1.7-1.4-2.1-1.5C401.3,227.5,403,230,402,227.4z"/>
	<path class="st1" d="M331.5,267.2c0,0.5,0.1,1,0.4,1.5C331.9,268.3,331.8,267.8,331.5,267.2z"/>
	<path class="st1" d="M398.5,226.4c0.2,0.3,0.4,0.4,0.6,0.6c0.1-0.6,0.3-1.2,0.8-1.1C398.8,224.8,397.9,224.1,398.5,226.4z"/>
	<path class="st1" d="M273.6,317c-0.1,0-0.1,0-0.2-0.1C273.5,317,273.5,317,273.6,317z"/>
	<path class="st1" d="M255.4,318.2c0.1-0.1,0.3-0.3,0.5-0.4C255.9,317.8,255.7,318,255.4,318.2z"/>
	<path class="st1" d="M412,222.3C412.4,222.1,412,222,412,222.3L412,222.3z"/>
	<path class="st1" d="M418.6,232.6c0.1,0.3,0.2,0.7,0.4,1.4C418.7,233.3,418.6,232.9,418.6,232.6z"/>
	<path class="st1" d="M404,247.2C404,247.2,404,247.2,404,247.2C404.4,247.8,404.3,247.7,404,247.2z"/>
	<path class="st1" d="M413.2,223.5c-0.3-0.3-0.6-0.6-0.9-0.7C412.5,222.9,412.8,223.2,413.2,223.5z"/>
	<path class="st1" d="M412.5,222.2c0.2,0.1,0.3,0.1,0.5,0.2C412.8,221.9,412.7,221.6,412.5,222.2z"/>
	<path class="st1" d="M411.6,222.6c0.2-0.1,0.5,0,0.8,0.2c-0.2-0.2-0.3-0.3-0.3-0.4C411.9,222.4,411.8,222.5,411.6,222.6z"/>
	<path class="st1" d="M300.6,302.6c0,0-0.1-0.1-0.1-0.1C300.4,303.3,300.5,303.1,300.6,302.6z"/>
	<path class="st1" d="M384.7,273.2c0,0,0-0.1,0-0.2c0,0-0.1-0.1-0.1-0.1L384.7,273.2z"/>
	<path class="st1" d="M384.5,275.9c-1.3-4-0.7-3.6,0.1-3l-4.6-8.7L384.5,275.9z"/>
	<path class="st1" d="M336,294.4l1.8,1.6c0.5,3.5-0.9,2.7,1.3,5c-1.6-3.3-0.8-3.8,0-4.2c0.8-0.5,1.6-0.9,0-4.3l1.3,1.2
		c-0.2,0,0,0.4-0.2,0.4c2.8,2.8-1.6-5.2,0.3-4.9c0.8,0.3,1.6,1.2,1.7,2.1l0.3-2.2c0.4,0,0.9,1.3,0.5,1.2l1.4-1.2l0.1,0.2
		c-0.3-1.2-0.6-3.1-0.7-4c0.9,0.8,0.2,0.8,0.7,1.7l0.1-2.1c1.3,1.7,1.4,3.8,0.6,3.8c4.4,6.8-0.1-2.1,3.9,1.3l-0.5,1.3
		c2.6,3.9,2.6,2.1,4.9,4.4c-0.9-1.3-5.2-5.7-5.1-7.9c0.6,0.4,1.1,0.6,0.9-1.1c1.3,2.6,1.5,1.8,2.1,1.3l1.7,3.5c0.3-1.3-0.7-3-1-4.8
		c1,0,2.5,2.7,3.8,4.9c1.6,0.1-3.1-4-1.8-5.3c1.8,0.9,1.8-0.8,2.1-3.5c1.4,0.9,0.9,2.3,1.7,3.2l-0.7-3.2c0.2,0,0.6,0.9,0.8,1.4
		c0-1.4-1.7-3.7-1.3-5c-0.9-2.1,0.3-0.8,1.6,0.4c1.3,1.2,2.6,2.3,2-0.3c0.8,1,1,2.3,1.8,3.7c0-3.7,0.2-2.7-0.6-7.4l2.3,2.1
		c-2.2-2.6-2.8-6.3-3.3-9.6c-0.9-1.3-1.8-2.4-2.2-2.9l0.3-2.8c0.5,0.6,1,2,1.5,3.7c-0.1-0.4-0.1-0.7-0.2-1.1c1.2,1.2,2,3.6,2.7,5.9
		c-0.5-0.7-1.1-1.4-1.6-2.2c0.8,2.5,1.7,5.2,2.9,7.5c-0.1-0.5-0.1-0.9,0-1.2c0.2,0.7,0.4,1.3,0.7,1.6c0.2,0.4,0-0.5-0.3-1.6l2.4,4.2
		l-0.8-1.7l3.2,2.1c-0.8-4.9-2.9-12-1.8-14.8c1.1,3.6,2.5,5.5,4.4,9.5c-2.6-4-0.8,2.4-2.3,1.9c0.8,0.2,1.5,2.1,1.7,2.8l0.1-4.5
		c1.5,3.2,1.6,2.3,2.7,3.4c-3.5-6.3-0.6-4.8-0.8-7.1c1.1,2.2,2,4.5,0.8,4.3c1.7,2.3,1.1,0.2,0.5-1.9c-0.6-2.1-1.3-4.4,0.2-2.5
		c-0.2,0.1-0.5-0.1,0,1c-0.4-2.2,1.7-1.1,2.3,1l-0.2,0.1c1.9,0.2,4.8-1.6,2.2-7.7c0.4,0.8,3.2,7.2,3.7,8.5l-6.9-21.3
		c2.2,5.3,9.1,17.3,9.2,20.7c0.7,0.6,1.6,1.3,1.5-0.8c-0.6-0.7-4.2-7.3-4.1-7.9c3.7,5.5,2.1,2.8,5.7,7.4c-0.9-1-4.4-9.4-3.7-9.4
		c0.5,1.3,3.9,8.2,4.1,9.2l-2.4-8.8c0.3,1.6,3.2,7,4.7,9.2c-0.9-1.6,1.4-0.3,1.4-1.3l-1.5-1.7c2.3,0.6-3.9-12.4-2.1-12.7
		c0.6,1.8,4.6,10.9,5.9,11.6c-1.6-4.5-8.1-21.5-8.3-25.6l1.4,2.3l-0.2-3.4c2.4,6.9,6.9,21.5,8.4,27.3c1.5,1.7,1.5,2.8,2.4,2.2
		c1.4,2.2,1.2,3.7,0.9,4l2.8,0.6c-2.5-5-0.8-5.8-2.8-10l0.2,6.3c-2.5-5-5.4-15-3.5-14.8c1.3,1.8,4,9.2,4.8,10.9
		c-0.6-1.8-0.1-4,0.6-2.8l0.6,3c1.7,1.5-1.8-7.4,1.5-3c0.5,0.2,4.1,6,2.7,3c-3.2-5.5-11.7-23.3-13.3-27.8c0.3,0.3,4.4,4.7,6.1,7.3
		c2.7,4.2,4.1,11.1,6.4,14.8c-0.6-1.4-1.1-3.2-1.2-3.8c0.9,1,1.8,4.3,2.3,3.3c-2.2-5.1,1.8-0.4-1.6-4.5c0.1-1.8,1.3,0.6,2.1-0.1
		c-1.8-3.1-4.3-11.5-4.2-13.2c0.5,1.3,1.5,2.9,1.9,3.6c1.8-0.3,3.7,1.5,5.2,0.8c0.7,1.1,2,2.2,2.7,4.4c-0.2-1-0.7-2.7-0.4-3
		c2.8,3.7-0.7,1.2,2.3,5.8c-1.2-2.8-0.6-4.5-0.8-6.5c-2.1-4.2-1.9-0.1-1.7,2c-2.8-6-4.5-12.7-4.1-16c0.6-1.9,2.3,3.5,2.1,2.6
		c1.4,0,0.8-2.7,0.3-4.9c-0.5-2.3-0.8-4.1,1.2-2.3c2.4,3.3,3.2,7,4.5,9.6c-0.4,1.8-2.6-1.6-3.2-1.2l1.6,1.4c0.2,1.3,0,2.6-0.9,1.7
		c2.1,3,4.2-1.1,7.3,0.9c-0.2-1.3-0.2-2.7-1-4l-0.4,0.7c-1.8-2.6-0.6-4.2-1.9-5.2c-0.1-2.2-0.4-5.5,1.4-4.3l1.8,3.7
		c-0.5-1.1-1.7-2-1.5-0.7c-0.1-0.9,0.9,0.2,1.7,0.9c0.8,0.7,1.4,1,0.7-1.5l-1.9-2.3c0-2.1-0.6-6.2,1-5.3c-2-3.5-0.1,0.5-2.6-3.6
		c2.9,5.1-2.9,0.3,0.6,5.6c-2.9-4.8-2.3-1.8-5.2-6c0.6,1.3,1.4,2.3,0.2,1.9c0.1,0.4,0.2,0.9,0.3,1.2c0,0-0.1,0-0.1-0.1
		c0,0,0.1,0.1,0.1,0.1c0,0.2,0.1,0.2,0,0c0.5,0.5,0.9,1.1,1.3,1.8c0.8,3-0.6,3.3-0.4,5c-0.8-0.5-0.4-1.6-1.3-2.9l0.3,2.5
		c-1.3-2.9-3.6-4.5-3.1-6.5l-1.2,0.1c-1.4-1.5-2.6-2-2.6-0.6c-0.8-0.5,0.2,3.7-0.4,1.2l-0.9,2.4l-0.4-0.8c-1.9,0-1.1,6.2-5.6,1.1
		c-0.2,1-0.3,2.2-1.7,1.5l-1.5-2.8c-0.3,1.2-3.5-2.2-2.4,0.9c-2.2-3.7-3.2-3.9-4-3.2c-0.7,0.7-1.2,2.2-2.1,1.8l1.7,3.8
		c-0.9,0.1-1.2,1.5-1.5,3.5l1.6,3.4c0.4,3.2-3.4-1.4-4.6-0.4c-0.5-1.3,0-1.2,0.6-0.5c-5.2-6.9-0.8,7.2-4.9,2.4
		c0.2,1.4-0.2,1.1-0.9,0.4c0,0,0-0.1,0-0.2c-0.1,0-0.1,0-0.2,0c-0.4-0.5-0.9-1.1-1.3-1.5c0.5,0.7,1,1.3,1.3,1.6
		c-0.2,0.2-0.5,0.9-0.5,1.9l-1.9-3.5c0,0.1,0,0.1,0,0.2c-1-1.1,0.5,1.9,2,4.4c0.1,0.7,0.2,1.5,0.5,2.5c-3-5.6-0.2,2.5-3.5-3.3
		c1.1,3.1-1,3.4,1.7,9.7c-0.4-0.8-0.7-1.1-0.5-1.3c-0.8-0.5-1.6-0.9-1.2,1.1l-2.3-4.3l1.8,6.5c-1.9-2.3-2.8-3.7-3.8-7.4
		c1,6-0.2,2.7,0.9,8.4l-1.3-2.8c-0.4,0.4,0.7,4.4-0.7,2.3c-1.7-2.3-3-1.7-4.5-1c-1.5,0.7-3.1,1.6-5.4,0.1c4.1,7.2-2.8-2.6-0.1,3.2
		c-1-1.7-1.8-2.4-2.1-4.2c-0.4,2.5-3.2-1.5-1.8,3.8c-1-1.6-0.9-2.7-1.6-3.6c0.1,0.4,0.3,1.7-0.3,0.8c-0.6-0.9-0.5-1.5-0.7-2.4
		c-1.1,1.2,1.2,6.4,3.5,11.3c-1.8-1.9-1.9-1.4-0.9,2c-1-1.4-2.2-2.8-1.6-3.9c-0.6,0-3.9-0.6-2.1,3.2c-0.6-0.9-0.8,0.1-0.7,0.6
		c-1.1,0.4-1.4,0.1-2.3,1l0.6,0.4c1.8,4.7-0.4,1.4-0.9,2.4l-0.2-0.5c-3.4-2.1-0.1,1.9-3.7-0.6l1.4,2.6c2.6,5.9-3.3-2.5-3.3,0.3
		l1.1,1.3c0.3,2.2-5.4-6.8-6.3-7.1c-0.4-0.4-0.2-0.9-0.2-1.4c-3.1-2.4,1.5,3.5,0.7,5c-1.1-1.7-2-4.8-2.9-4.7
		c-1.1-1.2,0.7,7.2-2.1,4.4c0.9,1.2,1.8,2.5,1.8,3.8c-0.6,0.9-4.7-3.8-3.4,0.8c-0.3-0.3-0.5-0.6-0.7-1c-0.1,1.5-1.1,3-0.4,5.4
		c-2.4-4-2.8-2.4-3.2-0.8c-0.4,1.6-0.6,3.2-2.5-0.5l-1.7,1.5l-0.3-0.8c-1.5,0.3-1,2.3-0.6,4.2c-0.5-0.3-0.7-1.1-0.8-1.5
		c-2.5-0.4-2.5,0.1-2.3,4.4l-1.3-2.2c0.1,0.8-1,0.3-2.1,0.1c-1.2-0.2-2.4-0.1-2.6,1.7c-0.1-0.3-0.3-0.7-0.3-1.1
		c-0.3,1.9-2.2,1.1-3.6,1c-1.4-0.1-2.3,0.3-0.8,4.2l-0.4,2.6c2-0.4,1.3,3.3,2.6,4.1c-0.5,0.8-2.8-1.2-2.2-2.1l0.3,0.3
		c-1.6-3.9-2.8-0.1-4-2.6c-3.2,2.1-7.3,2.2-10.4,4.1l1.6,2.3l-1.1,0.5c-0.6-0.4-1.3-1.7-0.5-2.1c-1.1-1.1-0.7,2-0.4,2.5
		c-2,0-0.9-3.2-1.3-3l-0.5,0.6l0.3,0.2c0,1.3,0.5,2.4-0.5,2.8c-0.8-0.1-1-1.2-1.3-1.2c-0.1-0.2-0.2-0.2-0.4,0.2l-1.4,0.7l1.5,1.4
		c-0.1,1.3-1.3,0.7,0.3,2.3c-2.5-2.5-5.6,2-6.6,1.4c-0.2,1.7-1.1,2.1-2.2,2.6c0.4,0.2,1.5,1.8,0.5,2.1c-1.5-3.7-2.4-0.6-4.3-2.5
		c1.4,1.2-2.3,2-0.1,3.5c-0.9,0.2-0.7-1.2-1.6-1.6c-0.5,1.2-1.6,1.6-2.7,2c-1.1,0.4-2.4,0.7-3.3,1.6c0.1,0.4,0.8,0.7,0.6,1.5
		c0,0-0.5-0.3-1-0.5c-0.5-0.2-1-0.5-1-0.5c-0.3,0.5,0.6,2.2-0.7,1.5c0.3,0.2,0.6,0.5,0.4,0.8c-2.5,0.6-4.4,2.3-6.5,3.8
		c-2.1,1.5-4.3,2.8-6.8,3.4c0.7,0,0.4,0.3,0,0.6c0.3-0.1,0.2,0.5,0.4,0.7c0,0-0.5,0.1-1.1,0.2c-0.5,0.1-1,0.3-1,0.3
		c0,0.8-1.8,1.3-1.8,2l0.5-0.5c-0.2,0.5,0.2,0.7,0.8,0.9c0.5,0.2,1.2,0.4,1.4,0.8c0.3-0.6,1-0.6,1.8-0.6c0.8,0,1.7-0.1,2.1-1
		c0.4,0.1-0.1,0.5,0.2,0.6c0.1-0.6,0.5-0.9,1.5-1l0,0.2c2.3-1.1,3.6-1,6.6-1.6l-0.6-0.7c0.6-0.1,0.9,0,1.3,0.1
		c0.1-1.4-1.7,0.6-1.7-0.9c0.8,0.6,1.8,0.2,2.8-0.2c1-0.4,2-0.7,2.8,0.2c0.9-0.3-0.8-0.9,0.1-1.2l0.5,0.5l-0.1-0.8
		c0.6-0.1,1.3,0.5,1.6,0.9c-0.2,0-0.3,0.3-0.5,0.4c1.1,0.4,2.1-1,2.5-0.9l-1.1,0c1.1-0.7,2.5-1.2,3.8-1.7c1.3-0.5,2.6-1.2,3.4-2.3
		l-0.5-0.5c1.3-1.7,1.7,0,3.5-1.3l0,0.2c0.1-0.7,0.5-1.2,1-1.4c-0.1,0.9,1.6,1,1.4,2c1.3-1.9,0.5-1.3,0.6-4.1l0.8,0.9
		c0-1.1-0.3-1.6,0.6-2.3c-0.3,1.3,1.5,1.3,1.2,2.9c1.6,0.7,2.1-0.1,2.5-0.9c0.4-0.7,0.7-1.3,2.1,0.3c-0.7-3.5-2.7-1-2.5-1.9
		c-0.9-0.8-0.4-2.6,0.4-2.6c0.7-0.2,3.2,3.5,4.8,2.8c-0.2,0.1-0.1,0.3-0.2,0.4c1.1,0.6,0.6-1.6,2.1-0.6c-0.6-2.2,1.1-0.3-0.2-2.9
		l-1.2,1.2c0.5-1-0.3-4.5,1.9-3.6c0.2,0.6,0.1,1.5,0,2c0.8,0.6,0.5-0.9,1.4-0.2c1.3,2.7-1.5,1.4-1.5,3.7c1,0.9,0.8-2.6,1.8,0.5
		c-0.6-1.9-0.1-2,0.5-2c0.6,0,1.3,0.2,1.1-1.5l0.8,1.7c0-0.3,0-1.2,0.4-1.3l0.5,2.4c0-2.2,2.6,1,3-0.3c-1.8,0.7-1.5-1.9-2.9-2.8
		c1.1-3.2,3.6,3.9,5.8,2.2c-0.2,0.4-1.8-0.6-1.7-1.6c0.7,0.2,1.7,0.6,2.4,1.5c1.5-1-1.2-1.7-1-3.1c1.7,2,0.4-1.2,0.7-2.2l0.9,1.9
		c2.5,0.5-1.5-4.1,1-3.4l0.6,2.9l0.6-1l0.9,2.2c0.2-2,0.7-1.7,2-1.4c-0.9-1.3-1.7-3.6-0.9-4c1.2,0.9,0.6,2,1.7,1.3
		c0.4,1.4,0.8,3-0.6,1.4c0.3,0.7,0.4,1.3,0.6,2c1.3,1.1,1.7-0.2,2.2-0.4c-0.2,0-0.5-0.1-0.7-0.3l0.3-3.5c0.7,0.7,0.8,1.4,0.8,2
		c0.2-0.4,0-1.4,0.4-1.8c0.7,1.7,1.6,3.5,1.3,4.5l0.7-2.5c0.5,0.7,1.9,1.7,2,2.4c1.5,0.7,0.6-4.1,2.5-3.2c-0.1-0.4-0.1-0.7,0-1.1
		c1.4,0,3.5,1.8,3.6-1.2l2.4,3c0.7-1.1-3.1-3.8-2-5.7c0.7-1.6,1.9,2.7,2.8,3.4c-0.2-1.9-0.9-5.8,1.7-3.5
		C336.8,294.4,336.2,294,336,294.4z M348.3,287.7c0,0.6,0.3,2.5-0.6,1.1C346.6,285.7,347.5,287,348.3,287.7z M364.9,272.9
		c0.3,1.1-0.2,0.7-1.1-0.3C363.9,272.3,364.2,272.3,364.9,272.9z M409,225.8c0,0.1,0,0.1,0,0.2C407.8,224.9,408.3,225.3,409,225.8z
		 M410.8,226.9c-0.1-0.5-0.3-0.9-0.5-1.3c0.3,0.8,0,0.9-0.4,0.8C410.4,227.1,410.8,227.7,410.8,226.9z M291.7,293.9l0.4,0.3
		C291.8,294.9,291.7,294.5,291.7,293.9z"/>
	<path class="st1" d="M364.6,277.8c-0.3-0.5-0.6-1-0.9-1.5C363.8,276.8,364.1,277.4,364.6,277.8z"/>
	<path class="st1" d="M328.3,298.6C328.3,298.6,328.3,298.6,328.3,298.6c0,0.1,0,0.3,0.1,0.4L328.3,298.6z"/>
	<path class="st1" d="M406.1,263.6c-0.5-0.4-0.9-1-1.3-1.6C405.1,262.9,405.6,263.6,406.1,263.6z"/>
	<path class="st1" d="M415.6,220.3l-0.5,0.9c0.4-0.2,0.8,0.4,1.2,0.8C415.9,221.3,415.3,220.4,415.6,220.3z"/>
	<path class="st1" d="M429.7,235.6c0-0.4,0.2-0.1,0.2-0.5l-0.5-1.2C429,234.1,429.1,235.2,429.7,235.6z"/>
	<path class="st1" d="M420.4,229.7c1.1,2.4,1.2,1.4,1.6,0.8c0,0-0.1,0-0.1,0C420.7,227.2,420.6,228.5,420.4,229.7z"/>
	<path class="st1" d="M422.2,230.4c0.1-0.2,0.3-0.3,0.5-0.2C422.2,228.9,422.3,230,422.2,230.4z"/>
	<path class="st1" d="M411.7,224.7c0.6,0.6-1.3-3.4-0.7-2.3C409.9,219,411,226.8,411.7,224.7z"/>
	<polygon class="st1" points="424.3,237.5 422.8,234.6 423.5,237.2 	"/>
	<path class="st1" d="M419.1,237l1.2,0.5c-0.2-0.5-0.3-0.9-0.2-1.2C419.6,236.5,418.7,236.1,419.1,237z"/>
	<path class="st1" d="M420.1,236.4c0.3,0,0.5-0.2,0.5-0.8C420.5,235.7,420.2,235.9,420.1,236.4z"/>
	<polygon class="st1" points="423.5,238.9 423,238.4 422.3,238.4 	"/>
	<path class="st1" d="M409.8,240.1l-0.5,1.4c0.5,1.2,1,1.9,1.2,1.2C410.3,241.8,410.4,241.2,409.8,240.1z"/>
	<path class="st1" d="M416.7,248.2c-0.6-0.6-0.9-1.3-1.6-2.4l1.9,4.2L416.7,248.2z"/>
	<path class="st1" d="M414.7,250.5c0.5,1.2,0.3,4.1,1.3,3.2C415.5,252.5,415.9,251.1,414.7,250.5z"/>
	<polygon class="st1" points="398.7,251.5 398.9,251.4 395.3,243.7 	"/>
	<path class="st1" d="M395.4,275.2c2,1.4-2-4.8,0.1-2.9c-0.6-1.9-1.7-1.5-2.1-3.2C393.6,271.3,392.7,270.4,395.4,275.2z"/>
	<path class="st1" d="M393.4,269.1c0-0.3-0.1-0.8-0.2-1.3C393.2,268.4,393.3,268.8,393.4,269.1z"/>
	<polygon class="st1" points="252.9,319.4 252.2,319.7 252.8,319.7 	"/>
	<path class="st1" d="M252,320.8l-0.4-0.4l-0.1,0.7C251.6,321,251.9,320.8,252,320.8z"/>
	<path class="st1" d="M353.8,294l-0.4-0.9c-0.6-0.9-0.8-0.9-1.2-0.9L353.8,294z"/>
	<polygon class="st1" points="342.8,294.9 343,294.9 341.2,292 	"/>
	<path class="st1" d="M336.5,301.3c0.4,0,0.5-0.7,0.9-0.7C336.9,301.3,334.7,297.8,336.5,301.3z"/>
</g>
<g id="small2">
	<path class="st1" d="M376.6,408.4c11.2-1.3,22.4-2.4,33.6-3.3c1-0.1,1.8-1.4,1.1-2.2c-2.9-3.3-5-7-6.5-11.2
		c-0.4,0.6-0.8,1.3-1.3,1.9c9.5-0.8,19,0.9,28.4,2.4c10.5,1.6,20.9,3.2,31.4,4.9c0.1-0.9,0.1-1.9,0.2-2.8c-14.7,1-29.3,2.5-43.9,4.3
		c-0.9,0.1-1.6,1-1.3,1.9c0.5,1.4,1.1,2.9,1.6,4.3c0.4,1.1,2.3,4.3,1.2,5.5c0.5-0.2,0.9-0.3,1.4-0.5c-15.7-1.9-31.3-4.4-46.7-7.4
		c-1.8-0.4-2.4,2.5-0.5,2.8c11.2,2.2,22.4,4.1,33.6,5.7c2.9,0.4,5.8,0.8,8.7,1.2c1.4,0.2,4.6,1.3,5.7,0.1c1.2-1.3,1.2-2.6,0.8-4.3
		c-0.6-2.8-2.1-5.6-3.1-8.3c-0.4,0.6-0.8,1.3-1.3,1.9c14.6-1.9,29.2-3.3,43.9-4.3c1.6-0.1,1.8-2.6,0.2-2.8
		c-10.5-1.6-20.9-3.2-31.4-4.9c-9.6-1.5-19.3-3.3-29.1-2.4c-0.9,0.1-1.6,1-1.3,1.9c1.5,4.4,3.7,8.4,6.8,11.9
		c0.4-0.7,0.7-1.5,1.1-2.2c-11.2,0.9-22.4,2-33.6,3.3C374.6,405.8,374.8,408.6,376.6,408.4L376.6,408.4z"/>
</g>
<g id="circlefull2">
	<circle class="st1" cx="411.1" cy="330.3" r="8.5"/>
	<g>
		<path class="st1" d="M422,330.2c0,0.1,0.4,0.1,0.5,0.1C422.4,330.1,421.9,330.2,422,330.2z"/>
		<polygon class="st1" points="421,328.7 421.1,328.7 420.7,328.5 		"/>
		<path class="st1" d="M420.6,327.3c-0.6,0.3,0.2,0.5,0.1,0.8l-0.1,0.1l0.6,0C421,327.8,420.5,327.6,420.6,327.3z"/>
		<path class="st1" d="M421.8,326c-0.2,0.2-0.3-0.1,0,0.2c0,0,0,0,0.1-0.1C421.8,326.1,421.8,326.1,421.8,326z"/>
		<path class="st1" d="M421.9,326.2C421.9,326.3,422,326,421.9,326.2L421.9,326.2z"/>
		<path class="st1" d="M421.4,325.5l0.3,0.1c0.1-0.1,0.1-0.3,0.2-0.3C421.7,325.1,421.6,325.3,421.4,325.5z"/>
		<path class="st1" d="M420.8,325.5l0.1,0.1C421,325.5,421,325.5,420.8,325.5z"/>
		<path class="st1" d="M421.3,325.7l-0.3-0.1c-0.1,0.1-0.3,0.2,0.1,0.1C420.9,325.7,421.1,325.7,421.3,325.7z"/>
		<path class="st1" d="M421.2,325.9c-0.1,0.2-0.1,0.4-0.4,0.3C421,326.5,421.5,326.2,421.2,325.9z"/>
		<path class="st1" d="M419.9,327.4l-0.2,0.2l0.3,0C419.9,327.7,420.1,327.4,419.9,327.4z"/>
		<path class="st1" d="M421,324.1c-0.1,0.1-0.3,0.3-0.5,0.4l0.2,0.1C420.9,324.4,420.9,324.2,421,324.1z"/>
		<path class="st1" d="M420.6,324.5l-0.3-0.1C420.3,324.6,420.4,324.6,420.6,324.5z"/>
		<path class="st1" d="M420.1,325.8c0,0,0.2,0,0.3,0c0.2,0,0.3,0.1,0.3,0.1s-0.2,0-0.3-0.1C420.2,325.8,420.1,325.8,420.1,325.8
			L420.1,325.8z"/>
		<polygon class="st1" points="420.5,323.2 420.9,323.1 420.3,323.3 		"/>
		<path class="st1" d="M420.1,322.8c0.3-0.1,0.3-0.4,0.5-0.5c-0.2-0.1-0.5-0.1-0.7,0C420,322.3,420.1,322.5,420.1,322.8z"/>
		<path class="st1" d="M419.4,322.4c0.1,0,0.2,0,0.4-0.1C419.7,322.3,419.6,322.3,419.4,322.4z"/>
		<path class="st1" d="M420.1,324c0.1-0.1,0.2-0.2,0.2-0.4L420.1,324C420,324,420.1,324,420.1,324z"/>
		<path class="st1" d="M420,323.9L420,323.9c0-0.1-0.1-0.2-0.1-0.2C419.9,323.8,420,323.8,420,323.9z"/>
		<path class="st1" d="M420.1,324L420.1,324C420,324,420,324.1,420.1,324z"/>
		<path class="st1" d="M420.2,325.1c-0.3,0-0.6-0.1-0.8,0.3C419.7,325.4,419.8,325.1,420.2,325.1z"/>
		<path class="st1" d="M419.7,324.4c0,0,0,0.3,0,0.3c0.1-0.1,0.2-0.2,0.3-0.2L419.7,324.4z"/>
		<polygon class="st1" points="419.5,324.4 419.7,324.4 419.7,324.3 		"/>
		<path class="st1" d="M419.4,323c-0.2,0-0.3,0-0.4-0.1c0,0.2,0.1,0.3,0.2,0.4C419.3,323.2,419.6,323.1,419.4,323z"/>
		<path class="st1" d="M419.7,323.5L419.7,323.5C419.7,323.5,419.7,323.5,419.7,323.5z"/>
		<path class="st1" d="M418.1,321.9C418.1,321.9,418,322,418.1,321.9L418.1,321.9L418.1,321.9z"/>
		<path class="st1" d="M419.2,323.3c0,0.1,0.1,0.1,0.3,0.1C419.4,323.4,419.3,323.3,419.2,323.3
			C419.2,323.3,419.1,323.3,419.2,323.3z"/>
		<path class="st1" d="M419,322.2c0,0.1,0,0.2,0,0.3C419.1,322.4,419.1,322.1,419,322.2z"/>
		<path class="st1" d="M419.7,323.3L419.7,323.3C419.8,323.3,419.8,323.3,419.7,323.3z"/>
		<path class="st1" d="M419.7,323.3c-0.1,0-0.2,0-0.3,0c0.1,0,0.1,0.1,0.2,0.1C419.7,323.4,419.7,323.4,419.7,323.3z"/>
		<path class="st1" d="M416.1,323.8c0.2-0.3,0.7-0.5,0.5,0c0.3-0.1,1.1-1.1,1.4-1.9c-0.1,0.1-0.2,0.2-0.6,0.3
			c-0.1,0.2,0.1,0.7-0.3,0.9c-0.3,0-0.1-0.3-0.1-0.5c-0.2,0.5-0.7,0.4-1.1,1l0.3-0.1C416.3,323.6,416.1,323.7,416.1,323.8z"/>
		<path class="st1" d="M418.4,322.3l0.1,0c0-0.1,0-0.3,0.1-0.6c-0.3,0-0.4,0.1-0.5,0.2L418.4,322.3L418.4,322.3z"/>
		<path class="st1" d="M418.8,322.7c-0.4,0.2-0.7,0.2-0.9,0.6c0.2,0.2,0.4-0.1,0.6-0.1C418.2,322.9,418.8,323.1,418.8,322.7
			c0.1,0.1,0.2,0.1,0.2,0.2c0-0.1,0-0.2,0-0.3l0,0l0,0l0,0c0,0.1,0,0.1,0,0c0,0,0,0,0,0C418.9,322.6,418.8,322.7,418.8,322.7
			c0-0.2,0.1-0.1,0.1-0.1l0,0l0,0c0,0-0.5-0.2-0.5-0.2C418.5,322.5,418.6,322.6,418.8,322.7z"/>
		<path class="st1" d="M418.5,325.7C418.5,325.7,418.5,325.7,418.5,325.7C418.5,325.7,418.4,325.7,418.5,325.7z"/>
		<path class="st1" d="M418.6,325.5c0.1,0,0.2-0.1,0.2,0c-0.1,0.1-0.2,0.1-0.3,0.2c0.1,0,0.4,0,0.5-0.3l-0.1,0
			c0-0.2,0.4-0.7,0.4-0.7C419.1,325,418.9,325.2,418.6,325.5z"/>
		<path class="st1" d="M418.7,324.2c0,0-0.4-0.1-0.4-0.1l-0.2,0.4l0.2-0.2C418.4,324.5,418.6,324.3,418.7,324.2z"/>
		<polygon class="st1" points="418.2,321.7 418.5,321.4 417.9,321.8 		"/>
		<polygon class="st1" points="417.7,321.4 418,321.1 417.7,321.2 		"/>
		<path class="st1" d="M405.8,333.4l0.1,0C405.9,333.4,405.9,333.4,405.8,333.4z"/>
		<path class="st1" d="M405.6,333l-0.2,0.1C405.6,333,405.6,333,405.6,333z"/>
		<path class="st1" d="M405.3,320.9c-0.3-0.2-0.8-0.6-0.6-0.2l0.3,0.3C405.1,320.9,405.2,320.9,405.3,320.9z"/>
		<path class="st1" d="M402.9,328.6c0,0,0.1,0,0.1,0c-0.1-0.1-0.3-0.1-0.4-0.2C402.7,328.5,402.8,328.6,402.9,328.6z"/>
		<path class="st1" d="M404.6,329l-0.3,0.1C404.4,329.1,404.5,329.1,404.6,329z"/>
		<path class="st1" d="M407.9,334.9l0.3-0.3C408.1,334.6,408,334.8,407.9,334.9z"/>
		<path class="st1" d="M412.7,319.5c-0.1-0.2-0.2-0.3-0.3-0.3C412.5,319.5,412.6,319.9,412.7,319.5z"/>
		<path class="st1" d="M401.7,335.5c0.1,0,0.2,0,0.3,0C401.9,335.4,401.8,335.4,401.7,335.5z"/>
		<path class="st1" d="M411.9,319.2c0,0,0,0.1,0.1,0.1c0.1-0.1,0.2-0.1,0.4-0.1C412.2,319,412,318.9,411.9,319.2z"/>
		<path class="st1" d="M416.1,333.6C416.1,333.6,416.1,333.6,416.1,333.6C416.1,333.6,416.1,333.6,416.1,333.6z"/>
		<path class="st1" d="M421.4,331.7c0,0.1,0,0.1,0,0.2C421.4,331.8,421.5,331.8,421.4,331.7z"/>
		<path class="st1" d="M415.9,320.2C416.1,320.2,416,320.1,415.9,320.2L415.9,320.2z"/>
		<path class="st1" d="M415.6,321.9c0,0-0.1,0.1-0.1,0.2C415.6,322,415.6,321.9,415.6,321.9z"/>
		<path class="st1" d="M410.8,321.9L410.8,321.9C410.8,321.9,410.8,321.9,410.8,321.9z"/>
		<path class="st1" d="M416,320.4c0-0.1,0-0.1-0.1-0.2C415.9,320.3,416,320.3,416,320.4z"/>
		<path class="st1" d="M416.1,320.2C416.1,320.2,416.1,320.3,416.1,320.2C416.2,320.2,416.2,320.2,416.1,320.2z"/>
		<path class="st1" d="M415.8,320.1c0.1,0,0.1,0.1,0.1,0.1c0,0,0-0.1,0-0.1C415.9,320.1,415.9,320.1,415.8,320.1z"/>
		<path class="st1" d="M412.1,337.4C412.1,337.4,412.1,337.4,412.1,337.4C412.1,337.2,412.1,337.3,412.1,337.4z"/>
		<polygon class="st1" points="406.4,325.9 406.3,325.9 406.3,325.8 		"/>
		<path class="st1" d="M406.4,326.3c-0.3-0.4-0.2-0.4-0.1-0.4l-1-0.8c0,0,0.3,0.3,0.5,0.6C406.2,326,406.4,326.3,406.4,326.3z"/>
		<path class="st1" d="M406.6,334.3l0.2-0.4c0.6-0.3,0.5-0.1,0.8-0.5c-1,0.9-0.4-0.3-1.5,0.5l0.2-0.2c0,0,0.1,0,0.1,0
			c0.4-0.5-0.9,0.4-0.9,0.1c0-0.1,0.2-0.3,0.3-0.3l-0.4,0c0-0.1,0.2-0.2,0.2-0.1c0,0-0.2-0.2-0.2-0.2l0,0c-0.2,0.1-0.6,0.1-0.7,0.1
			c0.1-0.2,0.2,0,0.3-0.1l-0.4,0c0.3-0.2,0.7-0.2,0.7-0.1c1.2-0.7-0.4,0,0.2-0.6l0.2,0.1c0.7-0.4,0.4-0.4,0.8-0.7
			c-0.2,0.1-1,0.7-1.4,0.6c0.1-0.1,0.1-0.2-0.2-0.2c0.5-0.1,0.3-0.2,0.3-0.3l0.6-0.2c-0.2-0.1-0.5,0-0.8,0c0-0.2,0.5-0.3,0.9-0.4
			c0.1-0.2-0.8,0.3-0.9,0.1c0.2-0.2-0.1-0.3-0.5-0.5c0.2-0.2,0.4,0,0.6-0.1l-0.5-0.1c0,0,0.2,0,0.2,0c-0.2-0.1-0.6,0-0.8-0.2
			c-0.7-0.1,1-0.4,0.2-0.6c0.2,0,0.4,0,0.6,0c-0.5-0.3-0.4-0.3-1-0.6l0.4-0.2c-0.5,0.1-1-0.2-1.5-0.5c-0.2,0-0.4,0-0.5,0.1
			c0,0-0.3-0.4-0.3-0.4c0.1,0,0.3,0.1,0.6,0.2c0,0-0.1-0.1-0.1-0.1c0.3-0.1,0.6,0.1,0.9,0.2c-0.1,0-0.3,0-0.4,0
			c0.4,0.2,0.8,0.3,1.2,0.4c-0.1,0-0.1-0.1-0.2-0.1c0.1,0,0.2,0.1,0.3,0.1c0.1,0-0.1-0.1-0.2-0.1l0.7,0.1l-0.3-0.1
			c0,0,0.1-0.1,0.3-0.1c0.1-0.1,0.3-0.1,0.3-0.1c-0.6-0.4-1.5-1-1.6-1.6c0.4,0.3,0.8,0.4,1.3,0.6c-0.7-0.1,0.1,0.4-0.1,0.6
			c0.1-0.1,0.4,0,0.5,0.1c0,0-0.1-0.1-0.2-0.3c-0.1-0.1-0.2-0.3-0.2-0.3c0.5,0.2,0.4,0.1,0.6,0.1c-0.9-0.3-0.5-0.5-0.7-0.8
			c0.3,0.1,0.6,0.3,0.4,0.5c0.8,0.2-0.9-0.8-0.2-0.7c0,0-0.1,0,0.1,0.1c-0.2-0.2,0.2-0.4,0.4-0.2l0,0c0.2-0.2,0.5-0.8-0.1-1.4
			c0.1,0.1,0.8,0.7,0.9,0.8c0,0-0.5-0.6-0.9-1.1c-0.4-0.6-0.8-1.2-0.8-1.2c0.5,0.5,1.9,1.6,2,2.1c0.1,0,0.3,0,0.2-0.2
			c-0.1,0-0.8-0.7-0.8-0.8c0.7,0.4,0.4,0.2,1.1,0.6c-0.2-0.1-0.9-1-0.7-1c0.1,0.1,0.7,0.9,0.8,1c0,0-0.1-0.3-0.3-0.5
			c-0.1-0.3-0.2-0.5-0.2-0.5c0.1,0.2,0.6,0.8,0.8,1c-0.2-0.2,0.2-0.1,0.2-0.3l-0.3-0.1c0.4-0.1-0.6-1.5-0.2-1.7
			c0.1,0.2,0.6,1.3,0.9,1.3c-0.2-0.5-1-2.6-0.8-3.2l0.2,0.3c0,0,0-0.1,0.1-0.2c0-0.1,0.1-0.2,0.1-0.2c0.1,0.9,0.4,2.8,0.6,3.5
			c0.2,0.2,0.2,0.3,0.4,0.2c0.2,0.3,0.1,0.5,0.1,0.5l0.4,0c-0.3-0.6,0-0.7-0.2-1.2c0,0-0.1,0.2-0.1,0.4c0,0.2-0.1,0.4-0.1,0.4
			c-0.3-0.6-0.6-1.9-0.2-1.9c0.2,0.2,0.4,1.1,0.5,1.3c-0.1-0.2,0.1-0.5,0.2-0.4l0,0.4c0.2,0.2,0-0.9,0.4-0.4c0.1,0,0.4,0.8,0.3,0.4
			c-0.3-0.7-0.9-3-0.9-3.6c0.1,0,0.7,0.6,0.8,1c0.2,0.6,0.1,1.4,0.3,1.9c0-0.2,0-0.4,0-0.5c0.1,0.1,0.1,0.6,0.2,0.5
			c-0.1-0.7,0.3,0,0-0.6c0.1-0.2,0.2,0.1,0.4,0.1c-0.1-0.4,0.1-1.5,0.3-1.7c0,0.2,0.1,0.4,0.1,0.5c0.4,0,0.6,0.4,1,0.4
			c0,0.2,0.2,0.4,0.1,0.7c0.1-0.1,0.1-0.3,0.2-0.3c0.1,0.6-0.2,0.1-0.2,0.8c0.1-0.4,0.3-0.5,0.5-0.7c0.1-0.6-0.3-0.2-0.5,0.1
			c0.1-0.8,0.5-1.7,1-2c0.4-0.1,0,0.6,0.1,0.5c0.6,0.3,1-1.3,1.3-0.5c0,0.6-0.3,1-0.4,1.4c-0.3,0.1-0.3-0.5-0.5-0.5l0.1,0.3
			c-0.1,0.1-0.3,0.2-0.4,0.1c0,0.5,1,0.4,1.2,1c0.1-0.1,0.4-0.2,0.4-0.5l-0.2,0c0-0.5,0.5-0.4,0.4-0.7c0.3-0.2,0.8-0.5,0.9-0.1
			l-0.3,0.6c0.1-0.2,0-0.4-0.2-0.3c0.3-0.2,0,1,0.5,0.3l0-0.5c0.3-0.1,1-0.5,1.1-0.2c0.2-0.6-0.1,0,0.1-0.7
			c-0.3,0.8-0.7-0.5-0.9,0.5c0.2-0.8-0.1-0.5-0.1-1.3c-0.1,0.2-0.1,0.4-0.3,0.2c0,0-0.1,0.1-0.1,0.1l0,0l0,0c0,0,0,0,0,0
			c0,0.1,0,0.2,0,0.3c-0.3,0.4-0.7,0.2-0.9,0.3c-0.1-0.2,0.1-0.2,0.2-0.4l-0.3,0.3c0.2-0.4-0.1-0.8,0.3-1l-0.3-0.1
			c-0.1-0.3-0.3-0.5-0.6-0.4c-0.1-0.1-0.5,0.4-0.3,0.1l-0.6,0.1l0-0.1c-0.5-0.2-1.1,0.5-1.6-0.3c-0.2,0.1-0.4,0.2-0.6,0.1l-0.1-0.4
			c-0.2,0.1-0.7-0.4-0.8,0c-0.3-1.1-1.2-0.1-1.6-0.2l0.1,0.5c-0.3,0-0.5,0.2-0.8,0.5l0.1,0.4c-0.2,0.4-0.8-0.1-1.2,0.1
			c0-0.2,0.1-0.2,0.2-0.1c-0.4-0.4-0.7-0.1-0.8,0.2c-0.2,0.3-0.3,0.6-0.7,0.4c0,0.2-0.1,0.2-0.3,0.1c0,0,0,0,0,0c0,0,0,0,0,0
			c-0.1,0-0.2-0.1-0.3-0.1c0.1,0.1,0.2,0.1,0.2,0.1c-0.1,0.1-0.2,0.2-0.2,0.3L405,321c0,0,0,0,0,0c-0.2-0.1,0,0.2,0.3,0.5
			c0,0.1,0,0.2,0,0.3c-0.5-0.6-0.1,0.4-0.7-0.2c0.2,0.4-0.4,0.7,0.2,1.4c-0.1-0.1-0.1-0.1-0.1-0.1c-0.2,0-0.3,0-0.3,0.3l-0.5-0.4
			c0,0,0.1,0.2,0.2,0.4c0.1,0.2,0.2,0.4,0.2,0.4c-0.4-0.1-0.6-0.2-0.8-0.7c0.2,0.8-0.1,0.5,0.2,1.2l-0.3-0.3
			c-0.1,0.1,0.2,0.6-0.1,0.5c-0.8-0.2-0.9,1.2-1.9,1.6c1.1,0.3-0.6,0.2,0.2,0.5c-0.3-0.1-0.5,0-0.6-0.2c0.1,0.5-0.7,0.5,0,1
			c-0.3,0-0.4-0.2-0.5-0.2c0,0.1,0.2,0.2,0,0.2c-0.2,0-0.2-0.1-0.3-0.2c-0.1,0.5,0.7,0.7,1.5,0.9c-0.4,0.1-0.4,0.2,0.1,0.5
			c-0.3,0-0.6,0.1-0.6-0.2c-0.1,0.1-0.5,0.8,0.1,0.9c-0.2,0-0.1,0.2,0,0.2c-0.1,0.3-0.1,0.3-0.1,0.7l0.1-0.1
			c0.8,0.1,0.2,0.3,0.3,0.5l-0.1,0c-0.5,0.6,0.3,0.2-0.3,0.8l0.5-0.1c1-0.1-0.5,0.6-0.1,0.8l0.2-0.2c0.4,0.1-1.3,0.8-1.3,1
			c-0.1,0.1-0.2,0-0.2-0.1c-0.5,0.7,0.6-0.1,0.9,0.2c-0.3,0.2-0.9,0.2-0.8,0.4c-0.2,0.2,1.3,0.4,0.8,0.9c0.2-0.2,0.4-0.3,0.7-0.3
			c0.2,0.2-0.6,1.1,0.3,0.9c0,0.1-0.1,0.1-0.2,0.1c0.3,0.1,0.6,0.4,1.1,0.2c-0.6,0.5-0.3,0.7,0.1,0.8c0.3,0.1,0.7,0.1,0.1,0.6
			l0.5,0.4l-0.1,0.1c0.2,0.4,0.6,0.2,0.9,0c0,0.1-0.1,0.2-0.2,0.3c0.2,0.6,0.4,0.6,1.2,0.3l-0.2,0.4c0.2-0.2,0.3,1.1,1.1,0.9
			c0,0-0.1,0.1-0.2,0.2c0.4-0.1,0.6,0.4,0.9,0.7c0.3,0.3,0.5,0.4,0.9-0.4c0,0,0.1-0.1,0.3-0.2c0.1-0.1,0.3-0.2,0.3-0.2
			c-0.5-0.3,0.3-0.7,0.2-1.1c0.2-0.1,0.3,0.6,0.1,0.7l0-0.1c-0.3,0.9,0.5,0.5,0.4,1.1c1,0.2,2.1,0.7,3.1,0.6l-0.2-0.7l0.3,0
			c0.1,0.2,0.2,0.5-0.1,0.6c0.2,0.4,0.4-0.4,0.4-0.6c0.5,0.2-0.1,0.9,0.1,0.9l0.2-0.1l-0.1-0.1c0.1-0.3,0.1-0.6,0.4-0.7
			c0.2,0.1,0.2,0.4,0.3,0.4c0,0.1,0,0.1,0.1,0l0.5-0.1l-0.3-0.5c0.1-0.3,0.4-0.1,0-0.7c0.3,0.4,0.7,0.4,1.1,0.3
			c0.4-0.1,0.7-0.4,0.8-0.3c0.1-0.5,0.3-0.6,0.6-0.7c-0.1-0.1-0.5-0.6-0.2-0.7c0.7,1.2,0.7,0.2,1.5,0.8c-0.5-0.4,0.6-0.6-0.3-1.1
			c0.2-0.1,0.3,0.4,0.7,0.5c0.1-0.8,1.2-0.6,1.5-1.4c-0.1-0.1-0.4-0.2-0.5-0.5c0,0,0.2,0.1,0.5,0.1c0.2,0.1,0.5,0.1,0.5,0.1
			c0-0.2-0.7-0.7-0.1-0.6c-0.1,0-0.4-0.1-0.4-0.2c0.7-0.3,0.9-1.1,1.1-1.8c0.2-0.7,0.4-1.3,1.3-1.9c-0.4,0.1-0.4,0-0.4-0.1
			c-0.1,0.1-0.4-0.1-0.7-0.1c0,0,0.2-0.1,0.4-0.2c0.2-0.1,0.4-0.3,0.4-0.3c-0.7-0.2,0-0.6-0.6-0.7l0.1,0.2c-0.7-0.2-1.7,0.2-2.6,0.1
			c0.4,0.1,0.1,0.2-0.2,0.4c-0.3,0.1-0.5,0.2,0,0.5c-0.2,0-0.3-0.1-0.5-0.1c0.4,0.2,0.4,0.3,0.2,0.4l-0.1,0c0,0.5-0.5,0.6-0.9,0.9
			l0.4,0.2c-0.1,0.1-0.3,0-0.4,0c0.6,0.4,0.2-0.3,0.8,0.2c-0.5-0.1-0.6,0.1-0.7,0.2c-0.1,0.2-0.3,0.3-0.7,0.1
			c-0.1,0.1,0.5,0.2,0.4,0.4l-0.3-0.1l0.3,0.2c-0.1,0.1-0.5-0.1-0.7-0.2c0,0,0-0.1,0-0.1c-0.4-0.1-0.1,0.4-0.3,0.3l0.2,0
			c0,0.6-0.7,0.7-0.7,1.4l0.2,0.1c0,0.6-0.4,0-0.6,0.4l0-0.1c0.1,0.2,0,0.4-0.1,0.4c-0.1-0.3-0.4-0.3-0.5-0.6
			c-0.1,0.6,0,0.4,0.2,1.3l-0.2-0.3c0.1,0.3,0.1,0.5,0,0.7c0-0.4-0.4-0.5-0.4-0.9c-0.7-0.6-0.3,1-0.9,0c0.1,1,0.5,0.4,0.5,0.7
			c0.2,0.3,0.1,0.8-0.1,0.7c-0.2,0-0.6-1.2-0.9-1.1c0,0,0-0.1,0-0.1c-0.2-0.2-0.2,0.4-0.4,0c0,0.6-0.2,0-0.1,0.8l0.3-0.2
			c-0.1,0.2-0.2,1.2-0.6,0.8c0-0.2,0.1-0.4,0.1-0.5c-0.1-0.2-0.2,0.2-0.3,0c-0.1-0.8,0.4-0.2,0.4-0.8c-0.1-0.3-0.2,0.6-0.3-0.2
			c0,1.1-0.3-0.1-0.5,0.7l0-0.5c0,0.1-0.1,0.3-0.2,0.3l0.1-0.6c-0.2,0.5-0.3-0.4-0.5-0.2c0.3,0,0.1,0.6,0.2,0.9
			c-0.5,0.6-0.2-1.3-0.7-1c0.1-0.1,0.2,0.3,0.1,0.5c-0.1-0.1-0.2-0.3-0.2-0.6c-0.3,0.1,0,0.5-0.2,0.8c0-0.6-0.2,0.2-0.4,0.4l0.1-0.5
			c-0.3-0.4-0.3,1-0.6,0.5l0.3-0.6l-0.2,0.1l0.2-0.5c-0.3,0.3-0.3,0.2-0.4,0c-0.1,0.3-0.3,0.8-0.5,0.8c0-0.3,0.2-0.4,0-0.4
			c0.2-0.3,0.3-0.6,0.3-0.1c0.1-0.1,0.1-0.3,0.2-0.4c0-0.3-0.2-0.2-0.3-0.2c0,0,0,0.1,0,0.1c0,0-0.1,0.1-0.3,0.3
			c-0.1,0.1-0.3,0.2-0.3,0.2c0-0.2,0.1-0.3,0.2-0.4c-0.1,0-0.2,0.2-0.3,0.2c0.2-0.3,0.4-0.7,0.6-0.8c0,0-0.1,0.1-0.2,0.1
			c-0.1,0.1-0.2,0.1-0.2,0.1c0.1-0.2,0.1-0.5,0.2-0.6c0-0.3-0.7,0.5-0.7,0.1c-0.1,0.1-0.1,0.1-0.2,0.1c-0.1-0.2,0-0.7-0.5-0.4
			l0.4-0.6c-0.2,0-0.5,0.8-0.9,0.8c-0.3,0,0.4-0.5,0.4-0.7c-0.3,0.2-1,0.5-0.7,0C406.6,334.1,406.5,334.2,406.6,334.3z M405.2,332.4
			c0.1,0,0.4,0,0.2,0.1C404.8,332.6,405,332.5,405.2,332.4z M403.9,328.4c0.1,0.1,0.1,0.1-0.1,0.2
			C403.7,328.5,403.7,328.4,403.9,328.4z M414.6,320L414.6,320C414.5,319.8,414.5,319.9,414.6,320z M414.9,320.4
			c0.1,0,0.1-0.1,0.1-0.2c-0.1,0.1-0.2,0.1-0.2,0C414.8,320.3,414.8,320.4,414.9,320.4z M413.6,340.4l-0.1-0.1
			C413.6,340.1,413.6,340.3,413.6,340.4z"/>
		<path class="st1" d="M404.4,329c-0.1,0-0.2,0-0.3,0C404.2,329,404.3,329,404.4,329z"/>
		<polygon class="st1" points="407.8,335 407.9,335 407.9,334.9 		"/>
		<path class="st1" d="M410,323.9c-0.1-0.1-0.1-0.1-0.1-0.2C409.9,323.7,409.9,323.8,410,323.9z"/>
		<path class="st1" d="M417.1,320.5l-0.3,0c0.1,0,0.1,0.2,0.1,0.3C417,320.7,417,320.5,417.1,320.5z"/>
		<path class="st1" d="M416.8,324.1c0.1,0,0,0,0.1,0l0.1-0.2C417,323.8,416.8,323.9,416.8,324.1z"/>
		<path class="st1" d="M416.4,322c-0.2,0.4,0,0.3,0.1,0.3c0,0,0,0,0,0C416.9,321.9,416.7,321.9,416.4,322z"/>
		<path class="st1" d="M416.6,322.4c0,0,0.1,0,0.1,0.1C416.9,322.3,416.7,322.4,416.6,322.4z"/>
		<path class="st1" d="M415.5,320.3c0,0.1,0.3-0.5,0.2-0.3C416,319.6,414.9,320.4,415.5,320.3z"/>
		<polygon class="st1" points="415.8,323.2 416,322.8 415.8,323 		"/>
		<path class="st1" d="M415.1,322.3l0.1,0.2c0-0.1,0.1-0.1,0.1-0.1C415.2,322.4,415.1,322.2,415.1,322.3z"/>
		<path class="st1" d="M415.3,322.4c0.1,0,0.1,0.1,0.2,0C415.5,322.4,415.4,322.4,415.3,322.4z"/>
		<polygon class="st1" points="415.5,323.2 415.5,323 415.4,322.9 		"/>
		<path class="st1" d="M412.8,321.5l-0.3,0.1c-0.1,0.2,0,0.3,0.1,0.2C412.7,321.7,412.8,321.6,412.8,321.5z"/>
		<path class="st1" d="M413.2,323c0-0.1,0-0.2,0-0.4l-0.2,0.6L413.2,323z"/>
		<path class="st1" d="M412.6,323c-0.1,0.2-0.4,0.4-0.1,0.4C412.5,323.2,412.7,323.1,412.6,323z"/>
		<polygon class="st1" points="409.3,322.2 409.4,322.2 409.2,321.2 		"/>
		<path class="st1" d="M407.9,325.4c0.3,0.1-0.3-0.6,0-0.4c-0.1-0.2-0.3-0.1-0.3-0.3C407.7,325,407.5,324.9,407.9,325.4z"/>
		<path class="st1" d="M407.6,324.7c0,0,0-0.1,0-0.2C407.6,324.6,407.6,324.7,407.6,324.7z"/>
		<polygon class="st1" points="422,330.9 422.3,330.7 421.9,330.8 		"/>
		<path class="st1" d="M421.3,330.5l0.7,0l-0.6-0.1C421.4,330.3,421.4,330.4,421.3,330.5z"/>
		<path class="st1" d="M406.3,331.7l-0.2,0c-0.2,0.1-0.2,0.1-0.2,0.1L406.3,331.7z"/>
		<polygon class="st1" points="406.5,333.2 406.5,333.2 406,333.5 		"/>
		<path class="st1" d="M407.8,333.7c0,0-0.1,0-0.2,0C407.8,333.6,407.3,334.2,407.8,333.7z"/>
	</g>
</g>
<g id="circlefull">
	<circle class="st1" cx="244.7" cy="184.2" r="12.4"/>
	<g>
		<path class="st1" d="M259.6,184.1c0,0.1,0.4,0.1,0.5,0.1C260,184,259.5,184.1,259.6,184.1z"/>
		<polygon class="st1" points="258.5,182 258.6,182 258.2,181.8 		"/>
		<path class="st1" d="M258,180c-0.6,0.4,0.3,0.7,0.1,1.1l-0.1,0.1l0.6,0C258.4,180.8,257.9,180.4,258,180z"/>
		<path class="st1" d="M259.1,178.5c-0.2,0.2-0.3-0.1,0,0.3c0,0,0,0,0-0.1C259.1,178.6,259.1,178.6,259.1,178.5z"/>
		<path class="st1" d="M259.2,178.7C259.3,178.9,259.3,178.5,259.2,178.7L259.2,178.7z"/>
		<path class="st1" d="M258.6,177.8l0.4,0.2c0.1-0.1,0-0.4,0.2-0.3C258.9,177.4,258.8,177.5,258.6,177.8z"/>
		<path class="st1" d="M258,177.7l0.2,0.1C258.2,177.8,258.2,177.7,258,177.7z"/>
		<path class="st1" d="M258.5,178l-0.3-0.2c-0.1,0.1-0.3,0.2,0.1,0.1C258.1,178,258.3,178,258.5,178z"/>
		<path class="st1" d="M258.5,178.2c-0.1,0.2-0.1,0.4-0.4,0.3C258.4,179,258.8,178.7,258.5,178.2z"/>
		<path class="st1" d="M257.3,180.2l-0.1,0.2l0.3,0.1C257.3,180.5,257.5,180.1,257.3,180.2z"/>
		<path class="st1" d="M258,175.9c-0.1,0.1-0.3,0.3-0.4,0.4l0.3,0.1C257.9,176.3,257.8,176,258,175.9z"/>
		<path class="st1" d="M257.6,176.3l-0.4-0.1C257.3,176.5,257.4,176.4,257.6,176.3z"/>
		<polygon class="st1" points="257.3,178 258,178.3 257.2,178 		"/>
		<polygon class="st1" points="257.3,174.8 257.7,174.8 257,174.8 		"/>
		<path class="st1" d="M256.7,174.2c0.3-0.1,0.2-0.5,0.5-0.5c-0.2-0.2-0.5-0.1-0.8-0.1C256.6,173.6,256.7,173.8,256.7,174.2z"/>
		<path class="st1" d="M255.9,173.6c0.1,0,0.3,0,0.4,0C256.2,173.5,256.1,173.5,255.9,173.6z"/>
		<path class="st1" d="M256.9,175.7c0.1-0.1,0.2-0.3,0.2-0.5l-0.3,0.4C256.9,175.6,256.9,175.6,256.9,175.7z"/>
		<path class="st1" d="M256.8,175.6L256.8,175.6c-0.1-0.1-0.1-0.2-0.1-0.2C256.7,175.4,256.8,175.4,256.8,175.6z"/>
		<path class="st1" d="M256.9,175.7L256.9,175.7C256.9,175.7,256.9,175.7,256.9,175.7z"/>
		<path class="st1" d="M257.2,177.1c-0.3,0-0.7-0.2-0.8,0.3C256.7,177.4,256.8,177.1,257.2,177.1z"/>
		<path class="st1" d="M256.6,176.1c0,0,0.1,0.3,0.1,0.3c0.1-0.1,0.2-0.2,0.3-0.2C257,176.3,256.6,176.1,256.6,176.1z"/>
		<polygon class="st1" points="256.4,176.1 256.6,176.1 256.6,176 		"/>
		<path class="st1" d="M256,174.3c-0.2,0-0.4-0.1-0.5-0.2c0.1,0.2,0.2,0.4,0.3,0.5C255.9,174.5,256.2,174.4,256,174.3z"/>
		<path class="st1" d="M256.4,174.9L256.4,174.9C256.4,175,256.4,175,256.4,174.9z"/>
		<path class="st1" d="M254.2,172.8C254.2,172.9,254.2,172.9,254.2,172.8L254.2,172.8L254.2,172.8z"/>
		<path class="st1" d="M255.8,174.7c0,0.2,0.2,0.2,0.3,0.1C256,174.8,255.9,174.7,255.8,174.7C255.8,174.6,255.7,174.7,255.8,174.7z
			"/>
		<path class="st1" d="M255.4,173.3c0,0.1,0,0.2,0,0.4C255.5,173.5,255.5,173.3,255.4,173.3z"/>
		<path class="st1" d="M256.4,174.8C256.5,174.8,256.5,174.8,256.4,174.8C256.5,174.7,256.5,174.8,256.4,174.8z"/>
		<path class="st1" d="M256.4,174.8c-0.1,0-0.2,0-0.3,0c0.1,0,0.2,0.1,0.3,0.1C256.4,174.9,256.4,174.8,256.4,174.8z"/>
		<path class="st1" d="M252.1,174.7c0.2-0.3,0.8-0.4,0.7,0.1c0.4,0,1.1-1.1,1.4-1.9c-0.1,0.1-0.2,0.2-0.6,0.2c0,0.2,0.2,0.8-0.2,0.9
			c-0.4-0.1-0.2-0.3-0.2-0.6c-0.2,0.5-0.9,0.3-1.2,0.9l0.4,0C252.3,174.5,252.1,174.5,252.1,174.7z"/>
		<path class="st1" d="M254.6,173.4l0.1,0.1c-0.1-0.2,0-0.4,0-0.7c-0.3,0-0.4,0.1-0.5,0.2L254.6,173.4L254.6,173.4z"/>
		<path class="st1" d="M255.2,173.9c-0.4,0.2-0.7,0.1-0.9,0.6c0.3,0.2,0.4-0.1,0.7,0C254.5,174,255.3,174.4,255.2,173.9
			c0.1,0.1,0.2,0.2,0.3,0.2c0-0.1-0.1-0.3-0.1-0.4l0,0l0,0l0,0c0,0.1,0,0.1,0,0c0,0,0,0,0,0C255.3,173.8,255.3,173.8,255.2,173.9
			c-0.1-0.2,0.1-0.1,0.1-0.1l0.1,0l0,0c0,0-0.6-0.3-0.6-0.3C254.8,173.6,255,173.7,255.2,173.9z"/>
		<path class="st1" d="M255.4,177.6C255.5,177.6,255.5,177.6,255.4,177.6C255.4,177.5,255.4,177.5,255.4,177.6z"/>
		<path class="st1" d="M255.5,177.3c0.1,0,0.2-0.1,0.3,0.1c0,0.2-0.2,0.1-0.3,0.2c0.1,0,0.4,0.1,0.5-0.2l-0.1,0
			c0-0.3,0.3-0.8,0.4-0.8C256,176.7,255.8,176.9,255.5,177.3z"/>
		<path class="st1" d="M255.4,175.6c0,0-0.5-0.3-0.5-0.3l-0.1,0.4l0.2-0.2C255.1,175.9,255.2,175.7,255.4,175.6z"/>
		<polygon class="st1" points="254.3,172.6 254.7,172.3 254,172.6 		"/>
		<polygon class="st1" points="253.7,172.2 254,171.9 253.7,172 		"/>
		<path class="st1" d="M236.1,189.3l0.2,0C236.2,189.3,236.1,189.3,236.1,189.3z"/>
		<path class="st1" d="M235.7,188.6l-0.2,0.1C235.7,188.7,235.8,188.6,235.7,188.6z"/>
		<path class="st1" d="M236.9,171.5c-0.4-0.2-1-0.5-0.7-0.2l0.3,0.3C236.6,171.5,236.8,171.5,236.9,171.5z"/>
		<path class="st1" d="M232.7,181.8c0,0,0.1,0,0.1,0c-0.1-0.1-0.3-0.1-0.4-0.2C232.5,181.6,232.6,181.7,232.7,181.8z"/>
		<path class="st1" d="M234.4,182.2l-0.3,0.2C234.2,182.4,234.3,182.3,234.4,182.2z"/>
		<path class="st1" d="M239.3,192.1l0.3-0.3C239.5,191.7,239.5,191.9,239.3,192.1z"/>
		<path class="st1" d="M246.8,169.6c-0.2-0.2-0.3-0.3-0.5-0.3C246.6,169.5,246.7,169.9,246.8,169.6z"/>
		<path class="st1" d="M231.9,191.3c0.1,0,0.2,0,0.3,0C232.1,191.2,232,191.2,231.9,191.3z"/>
		<path class="st1" d="M245.8,169.2c0,0,0.1,0.1,0.1,0.1c0.2-0.1,0.3-0.1,0.5-0.1C246.2,169,246,168.9,245.8,169.2z"/>
		<path class="st1" d="M253,189.8C253,189.8,253,189.8,253,189.8C253,189.7,253,189.7,253,189.8z"/>
		<path class="st1" d="M258.9,186.1c0,0.1,0,0.2,0,0.3C259,186.3,259,186.3,258.9,186.1z"/>
		<path class="st1" d="M251.3,170.5C251.4,170.6,251.3,170.5,251.3,170.5L251.3,170.5z"/>
		<path class="st1" d="M251.1,172.4c0,0-0.1,0.1-0.1,0.2C251,172.5,251.1,172.4,251.1,172.4z"/>
		<path class="st1" d="M244.3,171.9L244.3,171.9C244.3,171.9,244.3,171.9,244.3,171.9z"/>
		<path class="st1" d="M251.4,170.8c0-0.1-0.1-0.1-0.1-0.2C251.3,170.7,251.3,170.7,251.4,170.8z"/>
		<path class="st1" d="M251.5,170.6c0,0,0.1,0.1,0.1,0.1C251.6,170.7,251.6,170.6,251.5,170.6z"/>
		<path class="st1" d="M251.1,170.5c0.1,0,0.2,0.1,0.2,0.2c0,0,0-0.1,0-0.1C251.2,170.5,251.2,170.5,251.1,170.5z"/>
		<path class="st1" d="M246.2,195.2C246.2,195.2,246.2,195.2,246.2,195.2C246.3,195.1,246.3,195.1,246.2,195.2z"/>
		<path class="st1" d="M237.1,177.1C237.1,177.1,237.1,177.1,237.1,177.1L237.1,177.1L237.1,177.1z"/>
		<path class="st1" d="M237.1,177.6c-0.3-0.5-0.2-0.5,0-0.5l-1-0.7c0,0,0.3,0.3,0.5,0.6C236.8,177.3,237.1,177.6,237.1,177.6z"/>
		<path class="st1" d="M237.3,190.8l0.1-0.4c0.7-0.2,0.6,0.1,0.9-0.4c-0.5,0.4-0.7,0.3-0.9,0.1c-0.2-0.2-0.3-0.3-0.9,0l0.1-0.3
			c0,0,0.1,0,0.1,0.1c0.3-0.6-1,0.4-1-0.1c0-0.2,0.1-0.4,0.3-0.4l-0.5-0.1c0-0.1,0.2-0.2,0.2-0.1c0,0-0.3-0.4-0.3-0.4l0,0
			c-0.2,0-0.6,0-0.8,0c0.1-0.2,0.2,0,0.3-0.1l-0.4-0.1c0.3-0.2,0.7-0.2,0.7,0c1.1-0.8-0.4-0.1,0.1-0.9l0.2,0.2
			c0.7-0.4,0.3-0.5,0.7-0.9c-0.2,0.1-0.9,0.9-1.4,0.7c0.1-0.1,0.1-0.2-0.2-0.3c0.5-0.1,0.3-0.3,0.2-0.5l0.6-0.2
			c-0.2-0.2-0.5-0.1-0.9-0.1c0-0.3,0.5-0.4,0.9-0.5c0-0.4-0.7,0.4-0.9,0c0.2-0.4-0.1-0.5-0.5-0.9c0.2-0.3,0.4,0,0.6-0.1l-0.5-0.2
			c0-0.1,0.2,0,0.2,0c-0.2-0.2-0.6,0-0.8-0.3c-0.4,0-0.1-0.2,0.1-0.4c0.3-0.2,0.5-0.4,0.1-0.6c0.2-0.1,0.4,0.1,0.6,0.1
			c-0.5-0.5-0.4-0.4-1-0.9l0.5-0.3c-0.5,0.2-1-0.2-1.4-0.6c-0.2,0.1-0.5,0.1-0.6,0.2c0,0-0.1-0.1-0.1-0.3c-0.1-0.1-0.1-0.3-0.1-0.3
			c0.1,0,0.3,0.1,0.6,0.2c0,0-0.1-0.1-0.1-0.1c0.3-0.1,0.6,0.1,0.9,0.3c-0.1,0-0.3,0.1-0.4,0.1c0.4,0.2,0.8,0.4,1.1,0.4
			c-0.1,0-0.1-0.1-0.1-0.2c0.1,0.1,0.2,0.1,0.3,0.1c0.1,0-0.1-0.1-0.2-0.2l0.7,0.1l-0.3-0.1l0.6-0.4c-0.6-0.6-1.4-1.3-1.4-2.1
			c0.4,0.4,0.8,0.4,1.3,0.6c-0.7-0.1,0.1,0.6-0.2,0.9c0.1-0.1,0.4,0,0.5,0.1c0,0-0.1-0.2-0.2-0.4c-0.1-0.2-0.2-0.4-0.2-0.4
			c0.5,0.2,0.4,0,0.7,0c-1-0.3-0.4-0.7-0.6-1.1c0.3,0.1,0.6,0.4,0.4,0.6c0.8,0.1-0.9-0.9-0.1-0.9c0,0.1-0.1,0.1,0,0.2
			c-0.2-0.3,0.3-0.6,0.5-0.3l0,0.1c0.3-0.4,0.9-1.2,0.3-1.8c0.1,0.1,0.7,0.7,0.9,0.8c0,0-0.4-0.6-0.8-1.3c-0.4-0.7-0.7-1.4-0.7-1.4
			c0.5,0.6,1.9,1.6,2,2.1c0.2,0,0.3,0,0.3-0.4c-0.1,0-0.9-0.6-0.9-0.7c0.8,0.4,0.5,0.2,1.2,0.4c-0.2,0-0.9-1-0.7-1.1
			c0.1,0.2,0.7,0.8,0.8,1c0,0-0.1-0.3-0.2-0.6c-0.1-0.3-0.2-0.6-0.2-0.6c0,0.2,0.6,0.8,0.9,0.9c-0.2-0.1,0.3-0.2,0.4-0.4l-0.3-0.1
			c0.5-0.2-0.5-1.6,0.1-1.9c0.1,0.2,0.6,1.3,0.9,1.3c-0.2-0.6-0.8-2.7-0.4-3.4l0.2,0.3c0,0,0.3-0.5,0.3-0.5c0,0.9,0.2,2.9,0.2,3.6
			c0.3,0.1,0.2,0.3,0.5,0.2c0.2,0.2,0.1,0.5,0,0.5l0.6-0.1c-0.3-0.6,0.2-0.8,0-1.3c0,0-0.1,0.2-0.2,0.5c-0.1,0.2-0.2,0.5-0.2,0.5
			c-0.3-0.6-0.4-2,0.2-2c0.2,0.2,0.3,1.2,0.4,1.4c0-0.2,0.3-0.6,0.4-0.4l-0.1,0.4c0.3,0.1,0.1-1,0.6-0.5c0.1,0,0.5,0.8,0.4,0.4
			c-0.3-0.7-1-3-1-3.6c0.1,0,0.9,0.5,1.1,0.9c0.3,0.6,0,1.5,0.2,1.9c0-0.2,0-0.4,0.1-0.5c0.1,0.1,0,0.6,0.3,0.4
			c-0.1-0.7,0.5,0,0-0.6c0.2-0.2,0.3,0.1,0.6,0c-0.1-0.4,0.2-1.5,0.5-1.7c0,0.2,0.1,0.4,0.1,0.5c0.6,0,0.9,0.4,1.4,0.4
			c0,0.2,0.3,0.4,0.1,0.7c0.1-0.1,0.2-0.3,0.3-0.3c0.2,0.6-0.4,0-0.2,0.8c0.1-0.4,0.5-0.5,0.7-0.7c0-0.6-0.5-0.2-0.8,0
			c0.1-0.8,0.6-1.7,1.3-1.9c0.5-0.1,0.1,0.6,0.2,0.5c0.8,0.4,1.2-1.3,1.8-0.4c0.1,0.6-0.3,1-0.4,1.4c-0.4,0.1-0.5-0.5-0.7-0.6
			l0.2,0.3c-0.2,0.1-0.5,0.2-0.5,0c0.1,0.5,1.4,0.5,1.8,1.2c0.2-0.1,0.4-0.2,0.5-0.4l-0.2,0c0-0.5,0.6-0.4,0.5-0.7
			c0.4-0.1,1-0.4,1.2,0l-0.2,0.6c0.1-0.2-0.1-0.5-0.3-0.4c0.3-0.1,0.1,1.1,0.7,0.5l0-0.5c0.4-0.1,1.2-0.4,1.4,0c0.2-0.6-0.1,0,0-0.8
			c-0.3,0.9-0.9-0.6-1,0.4c0.2-0.9-0.3-0.6-0.3-1.4c-0.1,0.2,0,0.4-0.3,0.2c0,0-0.1,0.1-0.2,0.1c0,0,0,0,0,0l0,0c0,0,0,0,0,0
			c0,0.1,0.1,0.2,0,0.4c-0.4,0.3-0.9,0.1-1.1,0.2c-0.1-0.2,0.2-0.2,0.2-0.4c0,0-0.1,0.1-0.2,0.1c-0.1,0.1-0.2,0.1-0.2,0.1
			c0.2-0.4-0.2-0.9,0.3-1l-0.4-0.2c-0.2-0.3-0.5-0.6-0.8-0.4c-0.2-0.2-0.7,0.3-0.4,0l-0.8,0.1l0-0.1c-0.3-0.1-0.7,0-1.1,0
			c-0.4,0-0.7,0-1.1-0.4c-0.2,0.1-0.5,0.2-0.9,0.1l-0.1-0.4c-0.3,0.1-0.9-0.4-1.1,0c-0.4-1.1-1.5-0.1-2.1-0.2l0.1,0.5
			c-0.4,0-0.7,0.3-1.1,0.6l0.1,0.4c-0.3,0.4-1,0-1.6,0.2c0-0.2,0.1-0.2,0.3-0.1c-0.5-0.4-0.8,0-1.1,0.3c-0.2,0.4-0.5,0.7-0.9,0.6
			c-0.1,0.2-0.2,0.2-0.3,0.2c0,0,0,0,0,0c0,0,0,0-0.1,0c-0.1,0-0.2-0.1-0.3-0.1c0.1,0.1,0.2,0.1,0.3,0.1c-0.1,0.1-0.2,0.2-0.3,0.4
			l-0.3-0.4c0,0,0,0,0,0c-0.3,0,0,0.3,0.3,0.5c0,0.1,0,0.2,0,0.4c-0.6-0.5-0.2,0.5-0.9,0c0.1,0.2-0.1,0.4-0.2,0.6
			c-0.1,0.3-0.1,0.5,0.1,0.9c-0.1-0.1-0.2-0.1-0.1-0.2c-0.2,0.1-0.4,0.1-0.4,0.4l-0.5-0.4c0,0,0.1,0.2,0.1,0.4
			c0.1,0.2,0.1,0.4,0.1,0.4c-0.4-0.1-0.7-0.1-0.8-0.7c0.1,1-0.2,0.6,0,1.4l-0.3-0.3c-0.1,0.2,0.1,0.7-0.2,0.6
			c-0.9-0.1-1.3,1.7-2.3,2.4c1.2,0.3-0.7,0.3,0.1,0.7c-0.3,0-0.5,0.1-0.6-0.2c0.1,0.6-0.7,0.7-0.1,1.3c-0.3,0-0.4-0.2-0.5-0.2
			c0,0.1,0.2,0.3,0,0.3c-0.2,0-0.2-0.1-0.3-0.3c-0.1,0.6,0.7,0.9,1.5,1.1c-0.4,0.2-0.4,0.4,0.1,0.7c-0.3,0-0.6,0.2-0.6-0.2
			c-0.1,0.2-0.6,1.2,0.1,1.3c-0.2,0-0.1,0.3,0,0.3c-0.1,0.4-0.1,0.5-0.1,0.9l0.1-0.1c0.8,0.2,0.2,0.4,0.3,0.7l-0.1,0
			c-0.5,0.8,0.3,0.3-0.3,1.2l0.5-0.1c1-0.1-0.5,0.8,0,1.2l0.2-0.2c0.4,0.2-1.2,1-1.3,1.3c-0.1,0.1-0.2-0.1-0.2-0.1
			c-0.4,0.9,0.6-0.1,0.9,0.4c-0.3,0.2-0.9,0.1-0.8,0.5c-0.2,0.3,1.4,0.6,1,1.3c0.2-0.2,0.4-0.4,0.7-0.3c0.2,0.3-0.5,1.4,0.4,1.3
			c0,0.1-0.1,0.1-0.1,0.2c0.3,0.1,0.8,0.6,1.2,0.5c-0.6,0.6-0.2,0.8,0.2,1c0.4,0.2,0.8,0.3,0.2,0.8l0.6,0.6l-0.1,0.1
			c0.3,0.5,0.7,0.3,1.1,0.2c0,0.2-0.1,0.2-0.2,0.3c0.4,0.8,0.5,0.8,1.5,0.6l-0.2,0.4c0.3-0.1,0.6,1.3,1.6,1.2c0,0-0.1,0.1-0.2,0.2
			c0.5-0.1,0.9,0.5,1.2,0.8c0.4,0.3,0.8,0.5,1.2-0.3c0,0,0.7-0.3,0.7-0.3c-0.7-0.3,0.3-0.7,0.1-1.1c0.3,0,0.5,0.7,0.2,0.7l0-0.1
			c-0.4,0.9,0.8,0.6,0.6,1.2c1.4,0.2,2.9,0.8,4.3,0.7l-0.2-0.7l0.5,0c0.1,0.2,0.2,0.5-0.1,0.6c0.2,0.4,0.5-0.4,0.5-0.6
			c0.7,0.2-0.1,0.9,0.1,0.9l0.3-0.1l-0.1-0.1c0.2-0.3,0.1-0.6,0.6-0.7c0.3,0.1,0.2,0.4,0.3,0.4c0,0.1,0.1,0.1,0.2,0l0.6-0.1
			l-0.4-0.5c0.2-0.3,0.6-0.1,0.1-0.7c0.3,0.4,0.9,0.3,1.4,0.1c0.5-0.2,0.9-0.5,1.1-0.4c0.2-0.5,0.4-0.7,0.9-0.9
			c-0.2,0-0.6-0.6-0.2-0.7c0.6,1.2,0.9,0.1,1.7,0.7c-0.6-0.3,0.8-0.8-0.1-1.3c0.3-0.1,0.3,0.4,0.7,0.4c0.2-0.9,1.5-1,2-1.9
			c-0.1-0.1-0.4-0.2-0.5-0.5c0,0,0.3,0,0.5,0.1c0.3,0,0.5,0,0.5,0c0-0.2-0.7-0.7,0-0.7c-0.2,0-0.4-0.1-0.4-0.2
			c0.9-0.6,1.2-1.6,1.5-2.5c0.1-0.5,0.3-0.9,0.5-1.4c0.2-0.5,0.5-0.9,1-1.3c-0.4,0.2-0.4,0-0.4-0.2c-0.1,0.1-0.4-0.1-0.7-0.1
			c0,0,0.2-0.2,0.4-0.4c0.2-0.2,0.4-0.4,0.4-0.4c-0.6-0.2,0-0.9-0.6-1l0.1,0.3c-0.7-0.3-1.7,0.4-2.6,0.2c0.4,0.2,0.1,0.4-0.2,0.6
			c-0.3,0.2-0.6,0.4,0,0.7c-0.2,0.1-0.3-0.2-0.5-0.1c0.4,0.2,0.4,0.4,0.2,0.6l-0.1-0.1c-0.1,0.8-0.6,1-1.2,1.6l0.5,0.1
			c-0.1,0.1-0.3,0.1-0.4,0.1c0.6,0.5,0.3-0.4,0.9,0.1c-0.5-0.1-0.6,0.2-0.8,0.5c-0.2,0.3-0.4,0.5-0.9,0.3c-0.1,0.2,0.5,0.2,0.4,0.5
			l-0.3-0.1l0.3,0.3c-0.1,0.1-0.5,0-0.7-0.2c0.1,0,0-0.1,0-0.2c-0.4,0-0.3,0.6-0.4,0.6l0.3-0.1c-0.2,0.8-1.1,1.1-1.3,2.1l0.2,0.1
			c-0.2,0.7-0.5,0.1-0.9,0.6l0-0.1c0,0.3-0.1,0.4-0.2,0.5c0-0.3-0.5-0.3-0.5-0.6c-0.3,0.7-0.1,0.5,0,1.4l-0.3-0.3
			c0,0.4,0.1,0.5-0.2,0.8c0.1-0.4-0.4-0.4-0.3-0.9c-0.5-0.2-0.6,0.1-0.7,0.3c-0.1,0.2-0.2,0.4-0.6-0.1c0,1.1,0.7,0.3,0.6,0.6
			c0.3,0.3,0,0.8-0.2,0.8c-0.2,0.1-0.8-1.1-1.2-1c0.1,0,0-0.1,0.1-0.1c-0.2-0.2-0.3,0.5-0.6,0.1c0,0.6-0.3,0-0.2,0.8l0.5-0.3
			c-0.2,0.2-0.4,1.2-0.9,0.8c0-0.2,0.1-0.4,0.2-0.5c-0.2-0.2-0.2,0.2-0.4,0c0-0.8,0.6-0.3,0.8-0.9c-0.2-0.3-0.4,0.6-0.4-0.2
			c-0.1,1.1-0.5-0.1-0.8,0.8l0-0.5c0,0.1-0.2,0.3-0.3,0.3l0.2-0.6c-0.3,0.5-0.5-0.4-0.8-0.2c0.5,0,0.1,0.6,0.3,0.9
			c-0.7,0.6-0.4-1.3-1.1-1.1c0.1-0.1,0.3,0.3,0.2,0.5c-0.1-0.1-0.3-0.3-0.4-0.6c-0.5,0,0,0.5-0.2,0.8c-0.1-0.6-0.3,0.2-0.6,0.3
			l0.1-0.5c-0.5-0.4-0.4,1-0.8,0.5l0.4-0.6l-0.3,0.1l0.2-0.5c-0.4,0.3-0.5,0.2-0.7,0c0,0.3-0.3,0.8-0.6,0.7
			c-0.1-0.3,0.3-0.4-0.1-0.5c0.2-0.3,0.4-0.6,0.4-0.1c0.1-0.1,0.2-0.3,0.2-0.4c-0.1-0.4-0.4-0.2-0.5-0.3c0,0,0.1,0.1,0.1,0.2
			c0,0-0.2,0.1-0.4,0.2c-0.2,0.1-0.4,0.2-0.4,0.2c0-0.2,0.1-0.3,0.2-0.4c-0.1,0-0.3,0.2-0.4,0.1c0.2-0.3,0.4-0.7,0.6-0.8l-0.6,0.2
			c0-0.2,0-0.5,0.1-0.6c-0.1-0.3-0.9,0.3-1.1-0.1c-0.1,0.1-0.1,0.1-0.2,0.1c-0.2-0.3-0.2-0.8-0.8-0.7l0.3-0.7
			c-0.3-0.1-0.4,0.9-0.9,0.7c-0.4-0.1,0.3-0.5,0.4-0.7c-0.4,0.1-1.1,0.4-0.9-0.3C237.2,190.6,237.2,190.7,237.3,190.8z M235.1,187.6
			c0.1,0,0.5,0.1,0.2,0.2C234.8,187.9,235,187.8,235.1,187.6z M233.7,181.3c0.1,0.1,0,0.2-0.2,0.2
			C233.5,181.5,233.6,181.4,233.7,181.3z M249.6,170.3L249.6,170.3C249.4,170,249.4,170.1,249.6,170.3z M250,170.6
			c0.1,0,0.1-0.1,0.1-0.2c-0.1,0.1-0.2,0.1-0.3,0C249.8,170.6,249.8,170.7,250,170.6z M248.2,198.1l-0.1-0.1
			C248.2,197.9,248.2,198,248.2,198.1z"/>
		<path class="st1" d="M234.2,182.2c-0.1,0-0.2,0-0.3,0C234,182.2,234.1,182.2,234.2,182.2z"/>
		<path class="st1" d="M239.3,192.2C239.3,192.2,239.3,192.2,239.3,192.2C239.3,192.2,239.3,192.1,239.3,192.2L239.3,192.2z"/>
		<path class="st1" d="M242.9,173.9c-0.1-0.1-0.1-0.1-0.2-0.2C242.8,173.8,242.8,173.9,242.9,173.9z"/>
		<path class="st1" d="M252.8,171.1l-0.4-0.1c0.2,0.1,0.1,0.2,0.2,0.3C252.7,171.3,252.7,171.1,252.8,171.1z"/>
		<path class="st1" d="M253.1,175.1c0.1,0,0.1,0.1,0.1,0l0.1-0.2C253.3,174.9,253.1,174.9,253.1,175.1z"/>
		<path class="st1" d="M252.2,172.6c-0.2,0.4,0,0.3,0.3,0.4c0,0,0,0,0,0C252.8,172.6,252.5,172.6,252.2,172.6z"/>
		<path class="st1" d="M252.5,173.1c0.1,0,0.1,0.1,0.2,0.1C252.8,173,252.6,173.1,252.5,173.1z"/>
		<path class="st1" d="M250.7,170.6c0.1,0.1,0.3-0.4,0.3-0.3C251.3,169.9,250,170.6,250.7,170.6z"/>
		<polygon class="st1" points="251.6,173.8 251.8,173.4 251.5,173.7 		"/>
		<path class="st1" d="M250.4,172.8l0.2,0.3c0-0.1,0.1-0.1,0.2-0.1C250.7,172.8,250.5,172.6,250.4,172.8z"/>
		<path class="st1" d="M250.8,172.9c0.1,0.1,0.2,0.1,0.3,0.1C251,172.9,250.9,172.9,250.8,172.9z"/>
		<polygon class="st1" points="251.2,173.8 251.1,173.6 251,173.5 		"/>
		<path class="st1" d="M247.2,171.5l-0.4,0.1c-0.1,0.2,0,0.3,0.1,0.2C247.1,171.8,247.2,171.7,247.2,171.5z"/>
		<path class="st1" d="M247.9,173.1c-0.1-0.1,0-0.2,0-0.4l-0.2,0.6L247.9,173.1z"/>
		<path class="st1" d="M247,173c-0.1,0.2-0.5,0.4-0.1,0.4C246.9,173.3,247.2,173.2,247,173z"/>
		<polygon class="st1" points="242.1,172.3 242.2,172.3 242,171.3 		"/>
		<path class="st1" d="M239.4,176.1c0.4,0-0.3-0.6,0.1-0.5c-0.1-0.2-0.3-0.1-0.4-0.3C239.1,175.6,239,175.5,239.4,176.1z"/>
		<path class="st1" d="M239.2,175.3c0-0.1,0-0.1,0-0.2C239.2,175.2,239.2,175.3,239.2,175.3z"/>
		<polygon class="st1" points="259.6,185.1 259.8,184.8 259.5,184.9 		"/>
		<path class="st1" d="M258.9,184.4l0.7-0.1l-0.6-0.2C259,184.3,259,184.4,258.9,184.4z"/>
		<path class="st1" d="M236.2,186.7l-0.2,0c-0.2,0.1-0.2,0.1-0.2,0.2L236.2,186.7z"/>
		<polygon class="st1" points="236.8,189.2 236.8,189.2 236.3,189.5 		"/>
		<path class="st1" d="M238.7,190.4c0-0.1-0.2-0.1-0.2-0.1C238.6,190.3,238.2,190.9,238.7,190.4z"/>
	</g>
</g>
<g id="circleempty">
	<path class="st1" d="M357.5,340.4c0,0.2,0.4,0.1,0.5,0.2C357.9,340.3,357.4,340.5,357.5,340.4z"/>
	<polygon class="st1" points="356.3,337.3 356.4,337.3 356,336.9 	"/>
	<path class="st1" d="M355.6,334.3c-0.6,0.5,0.4,1,0.3,1.6l-0.1,0.1l0.6,0.1C356.1,335.5,355.5,334.8,355.6,334.3z"/>
	<path class="st1" d="M356.5,332.2c-0.2,0.2-0.4-0.3,0.1,0.4c0,0,0-0.1,0-0.1C356.6,332.5,356.5,332.4,356.5,332.2z"/>
	<path class="st1" d="M356.6,332.6C356.7,332.9,356.7,332.3,356.6,332.6L356.6,332.6z"/>
	<path class="st1" d="M355.8,331.2l0.4,0.3c0.1-0.2,0-0.5,0.1-0.4C356.1,330.7,356,330.8,355.8,331.2z"/>
	<path class="st1" d="M355.2,331l0.2,0.2C355.4,331.1,355.4,331,355.2,331z"/>
	<path class="st1" d="M355.8,331.5l-0.4-0.3c-0.1,0.1-0.3,0.2,0.2,0.2C355.3,331.4,355.6,331.4,355.8,331.5z"/>
	<path class="st1" d="M355.8,331.8c0,0.3,0,0.6-0.4,0.3C355.8,332.8,356.2,332.6,355.8,331.8z"/>
	<path class="st1" d="M354.9,334.4c0,0-0.1,0.3-0.1,0.3l0.3,0.2C354.9,334.8,355.1,334.3,354.9,334.4z"/>
	<path class="st1" d="M354.8,328.5c-0.1,0.1-0.3,0.3-0.4,0.5l0.3,0.2C354.7,329,354.6,328.7,354.8,328.5z"/>
	<path class="st1" d="M354.4,329l-0.5-0.3C354.1,329.1,354.3,329.1,354.4,329z"/>
	<polygon class="st1" points="354.4,331.3 355.3,331.8 354.4,331.2 	"/>
	<polygon class="st1" points="353.8,327 354.2,327 353.5,326.9 	"/>
	<path class="st1" d="M352.9,326c0.4,0,0.2-0.5,0.5-0.5c-0.3-0.2-0.7-0.3-1-0.3C352.7,325.3,352.9,325.6,352.9,326z"/>
	<path class="st1" d="M351.9,325.1c0.1,0.1,0.3,0.1,0.5,0.1C352.2,325.1,352.1,325.1,351.9,325.1z"/>
	<path class="st1" d="M353.5,328c0.1-0.1,0.2-0.3,0.1-0.6l-0.2,0.4C353.5,327.9,353.5,328,353.5,328z"/>
	<path class="st1" d="M353.4,327.9L353.4,327.9c-0.1-0.2-0.2-0.3-0.2-0.4C353.2,327.6,353.3,327.7,353.4,327.9z"/>
	<path class="st1" d="M353.6,328.1L353.6,328.1C353.5,328.1,353.5,328.1,353.6,328.1z"/>
	<path class="st1" d="M354.2,330c-0.4-0.1-0.9-0.5-0.9,0.2C353.7,330.2,353.7,329.9,354.2,330z"/>
	<path class="st1" d="M353.3,328.5c0,0,0.2,0.5,0.2,0.5c0.1-0.1,0.2-0.2,0.4-0.2C353.8,328.8,353.3,328.5,353.3,328.5z"/>
	<polygon class="st1" points="353,328.4 353.3,328.5 353.2,328.4 	"/>
	<path class="st1" d="M352.2,326c-0.3,0-0.5-0.2-0.7-0.4c0.1,0.3,0.3,0.5,0.5,0.7C352.1,326.3,352.4,326.2,352.2,326z"/>
	<path class="st1" d="M352.8,326.9L352.8,326.9C352.7,326.9,352.7,327,352.8,326.9z"/>
	<path class="st1" d="M349.6,323.8C349.6,323.8,349.5,323.8,349.6,323.8L349.6,323.8L349.6,323.8z"/>
	<path class="st1" d="M352,326.4c0.1,0.2,0.2,0.2,0.4,0.3C352.3,326.6,352.1,326.5,352,326.4C351.9,326.4,351.9,326.4,352,326.4z"/>
	<path class="st1" d="M351.2,324.7c0,0.1,0.1,0.3,0.1,0.4C351.3,324.9,351.3,324.6,351.2,324.7z"/>
	<path class="st1" d="M352.8,326.8C352.8,326.8,352.8,326.8,352.8,326.8C352.8,326.7,352.8,326.7,352.8,326.8z"/>
	<path class="st1" d="M352.8,326.8c-0.1-0.1-0.3-0.1-0.4-0.1c0.1,0.1,0.2,0.2,0.3,0.2C352.7,326.9,352.8,326.8,352.8,326.8z"/>
	<path class="st1" d="M347.2,325.4c0.3-0.3,0.9-0.3,1,0.4c0.5,0.1,1.2-1.1,1.3-1.9c-0.1,0.1-0.2,0.2-0.8,0.1c0,0.3,0.5,1.1,0,1.1
		c-0.6-0.3-0.3-0.4-0.4-0.8c-0.1,0.5-1.1,0.1-1.4,0.8l0.6,0.1C347.4,325.2,347.2,325.3,347.2,325.4z"/>
	<path class="st1" d="M350.2,324.5l0.2,0.1c-0.1-0.2-0.1-0.4-0.2-0.9c-0.4-0.1-0.5,0-0.6,0.1L350.2,324.5L350.2,324.5z"/>
	<path class="st1" d="M351.1,325.3c-0.4,0.2-0.9,0-1,0.5c0.4,0.4,0.5,0,0.9,0.2C350.3,325.3,351.4,326,351.1,325.3
		c0.2,0.1,0.3,0.2,0.4,0.4c-0.1-0.2-0.1-0.3-0.2-0.5l0,0l0,0l0,0c0,0.1,0,0.1,0,0c0,0,0,0,0,0C351.2,325.2,351.1,325.2,351.1,325.3
		c-0.1-0.3,0.1-0.1,0.1-0.1c0,0,0,0,0.1,0l0,0c0,0-0.9-0.5-0.9-0.5C350.5,324.8,350.7,325,351.1,325.3z"/>
	<path class="st1" d="M352.3,330.3C352.3,330.2,352.3,330.2,352.3,330.3C352.3,330.2,352.2,330.2,352.3,330.3z"/>
	<path class="st1" d="M352.3,329.8c0.1,0,0.3,0,0.3,0.2c0,0.2-0.2,0.1-0.3,0.2c0.2,0,0.5,0.2,0.5-0.2l-0.1,0
		c-0.1-0.4,0.1-1.1,0.2-1.1C352.7,329.2,352.5,329.4,352.3,329.8z"/>
	<path class="st1" d="M351.7,327.6c0,0-0.2-0.1-0.3-0.2c-0.2-0.1-0.3-0.2-0.3-0.2l0,0.5l0.2-0.2
		C351.4,327.9,351.6,327.7,351.7,327.6z"/>
	<path class="st1" d="M349.6,323.5l0.4-0.3c0,0-0.2,0-0.4,0.1c-0.2,0.1-0.4,0.1-0.4,0.1L349.6,323.5z"/>
	<polygon class="st1" points="348.7,322.9 349,322.6 348.6,322.7 	"/>
	<path class="st1" d="M320.8,349.3l0.2,0.1C320.9,349.4,320.8,349.4,320.8,349.3z"/>
	<path class="st1" d="M320.2,348.1l-0.2,0.1C320.1,348.2,320.2,348.2,320.2,348.1z"/>
	<path class="st1" d="M324,321.9c-0.5-0.1-1.2-0.4-0.9,0l0.3,0.3C323.6,322,323.8,321.9,324,321.9z"/>
	<path class="st1" d="M316.5,336.8c0,0,0.1,0,0.1-0.1c-0.1-0.1-0.2-0.2-0.4-0.3C316.3,336.5,316.4,336.7,316.5,336.8z"/>
	<path class="st1" d="M318.2,337.3l-0.3,0.3C318,337.6,318.1,337.5,318.2,337.3z"/>
	<path class="st1" d="M326.1,354.4l0.4-0.2C326.2,354,326.2,354.2,326.1,354.4z"/>
	<path class="st1" d="M338.7,318.9c-0.3-0.2-0.5-0.3-0.7-0.4C338.3,318.9,338.5,319.3,338.7,318.9z"/>
	<path class="st1" d="M316.5,351.1c0.1,0.1,0.3,0.1,0.3,0C316.7,351.1,316.5,351,316.5,351.1z"/>
	<path class="st1" d="M337,318.5c0.1,0,0.1,0.1,0.2,0.1c0.2-0.1,0.5-0.1,0.7-0.1C337.7,318.3,337.4,318.2,337,318.5z"/>
	<path class="st1" d="M349.7,350.1C349.7,350.1,349.7,350.1,349.7,350.1C349.7,350.1,349.7,350.1,349.7,350.1z"/>
	<path class="st1" d="M356.8,343.5c0,0.1,0,0.3,0,0.4C356.8,343.8,356.8,343.7,356.8,343.5z"/>
	<path class="st1" d="M345.1,320.5C345.3,320.6,345.2,320.5,345.1,320.5L345.1,320.5z"/>
	<path class="st1" d="M345.3,322.5c-0.1,0-0.1,0.1-0.2,0.1C345.2,322.6,345.3,322.6,345.3,322.5z"/>
	<path class="st1" d="M334.9,321.2L334.9,321.2C334.9,321.3,334.9,321.2,334.9,321.2z"/>
	<path class="st1" d="M345.3,320.9c-0.1-0.1-0.1-0.2-0.2-0.2C345.2,320.7,345.2,320.7,345.3,320.9z"/>
	<path class="st1" d="M345.4,320.7c0.1,0,0.1,0.1,0.2,0.1C345.6,320.7,345.6,320.7,345.4,320.7z"/>
	<path class="st1" d="M344.8,320.4c0.1,0.1,0.2,0.1,0.3,0.2c0,0,0-0.1,0-0.1C345.1,320.5,345,320.5,344.8,320.4z"/>
	<path class="st1" d="M337.9,358.7C337.9,358.7,338,358.7,337.9,358.7C338.1,358.5,338.1,358.5,337.9,358.7z"/>
	<path class="st1" d="M322.7,328.7C322.7,328.7,322.7,328.7,322.7,328.7L322.7,328.7L322.7,328.7z"/>
	<path class="st1" d="M322.5,329.4c-0.2-0.6-0.1-0.6,0.2-0.7l-1.1-0.7c0,0,0.2,0.4,0.4,0.7C322.3,329.1,322.5,329.4,322.5,329.4z"/>
	<path class="st1" d="M322.8,351.9l0-0.6c0.8,0,0.9,0.4,1.1-0.3c-0.5,0.4-0.9,0.2-1.1-0.2c-0.3-0.3-0.6-0.6-1.1-0.3l0.1-0.4
		c0,0.1,0.1,0,0.2,0.1c0.2-0.8-1.1,0.2-1.3-0.5c0-0.3,0-0.5,0.3-0.5l-0.6-0.3c-0.1-0.2,0.2-0.2,0.2-0.1c0,0-0.5-0.7-0.5-0.7l0,0
		c-0.2,0-0.7-0.1-0.9-0.2c0.1-0.3,0.2,0,0.3-0.1c0,0-0.5-0.3-0.5-0.3c0.2-0.3,0.7-0.1,0.8,0.2c1-0.9-0.5-0.2-0.1-1.4l0.3,0.4
		c0.6-0.5,0.2-0.8,0.5-1.4c-0.2,0.2-0.8,1.3-1.3,0.9c0-0.2,0-0.4-0.3-0.6c0.5-0.1,0.3-0.4,0.2-0.7l0.6-0.1c-0.3-0.3-0.6-0.2-0.9-0.3
		c0-0.4,0.4-0.6,0.8-0.8c0-0.7-0.7,0.6-0.9-0.1c0.2-0.6-0.2-0.9-0.6-1.6c0.2-0.4,0.4,0,0.6-0.1l-0.5-0.3c0-0.1,0.2-0.1,0.2-0.1
		c-0.2-0.3-0.6,0-0.8-0.5c-0.4-0.1-0.1-0.3,0.1-0.6c0.3-0.3,0.5-0.6,0.1-1c0.2-0.1,0.4,0.1,0.6,0.1c-0.5-0.8-0.4-0.7-1-1.4l0.5-0.5
		c-0.5,0.3-1-0.3-1.4-0.9c-0.3,0.1-0.5,0.2-0.6,0.3c0,0-0.1-0.2-0.1-0.4c0-0.2-0.1-0.4-0.1-0.4c0.1-0.1,0.3,0.1,0.5,0.2
		c0-0.1-0.1-0.1-0.1-0.2c0.3-0.2,0.6,0,0.9,0.3c-0.1,0.1-0.3,0.1-0.5,0.2c0.4,0.3,0.7,0.5,1.1,0.6c-0.1-0.1-0.1-0.2-0.1-0.3
		c0.1,0.1,0.2,0.1,0.3,0.1c0.1,0-0.1-0.1-0.2-0.3l0.7,0l-0.3-0.1l0.7-0.8c-0.3-0.4-0.6-0.9-0.8-1.4c-0.2-0.5-0.4-1.1-0.3-1.7
		c0.4,0.5,0.8,0.4,1.3,0.7c-0.7,0,0,0.9-0.4,1.4c0.2-0.3,0.4-0.1,0.5,0l-0.2-1.2c0.5,0.2,0.4-0.1,0.7-0.2c-1-0.2-0.3-1-0.4-1.5
		c0.3,0.1,0.6,0.4,0.3,0.8c0.9-0.1-0.8-1.2,0.1-1.4c-0.1,0.1-0.1,0.1,0,0.3c-0.1-0.4,0.5-0.9,0.6-0.6l-0.1,0.1
		c0.1-0.2,0.3-0.4,0.4-0.6c0.1-0.2,0.3-0.5,0.4-0.7c0.2-0.5,0.3-1,0-1.3c0.1,0.1,0.7,0.7,0.8,0.9c0,0-0.1-0.2-0.2-0.5
		c-0.1-0.3-0.3-0.6-0.4-1c-0.3-0.8-0.5-1.6-0.5-1.6c0.4,0.6,2,1.4,1.9,2.2c0.2-0.1,0.4-0.2,0.5-0.6c-0.2,0-1-0.5-0.9-0.7
		c0.9,0.2,0.6,0.1,1.5,0.2c-0.3,0-0.9-1-0.6-1.2c0.1,0.2,0.8,0.8,0.8,1c0,0,0-0.3-0.1-0.7c0-0.3,0-0.7,0-0.7c0,0.3,0.6,0.8,0.9,0.9
		c-0.2-0.1,0.5-0.4,0.6-0.6l-0.4,0c0.8-0.4-0.2-1.8,0.7-2.3c0,0.3,0.5,1.4,1,1.3c-0.1-0.3-0.2-1-0.2-1.8c0-0.7,0.1-1.5,0.4-1.9
		l0.3,0.2c0,0,0.1-0.2,0.2-0.3c0.1-0.2,0.3-0.3,0.3-0.3c-0.1,1-0.3,3.1-0.5,4c0.4,0.1,0.3,0.3,0.7,0.1c0.3,0.2,0,0.5-0.1,0.6
		l1.1-0.3c-0.2-0.3,0-0.5,0.1-0.8c0.1-0.2,0.3-0.4,0.2-0.7c0,0-0.1,0.1-0.1,0.2c-0.1,0.1-0.2,0.2-0.3,0.4c-0.2,0.3-0.4,0.6-0.4,0.6
		c-0.3-0.6-0.2-2.1,0.7-2.3c0.3,0.2,0.3,1.2,0.4,1.4c0-0.2,0.6-0.7,0.7-0.6l-0.2,0.5c0.5,0.1,0.4-1.1,1.1-0.6c0.2,0,0.7,0.7,0.7,0.3
		c-0.5-0.7-1.1-2.9-1-3.6c0.1,0,1.3,0.4,1.6,0.8c0.4,0.5-0.2,1.5,0.1,2c0-0.2,0.1-0.4,0.2-0.5c0.2,0.1,0,0.6,0.4,0.4
		c0-0.7,0.9-0.1,0.1-0.6c0.4-0.2,0.5,0,1,0c-0.2-0.4,0.3-1.5,0.8-1.7c0,0.2,0.1,0.4,0.1,0.5c0.9,0,1.4,0.4,2.3,0.4
		c0.1,0.2,0.5,0.4,0.3,0.7c0.1-0.1,0.3-0.3,0.5-0.3c0.4,0.7-0.6,0-0.3,0.8c0.1-0.4,0.7-0.4,1.1-0.6c0-0.6-0.8-0.2-1.2-0.1
		c0.1-0.8,0.9-1.6,1.9-1.8c0.8-0.1,0.2,0.6,0.4,0.5c0.7,0.2,1.1,0,1.4-0.3c0.4-0.2,0.7-0.4,1.2,0.1c0.3,0.7-0.3,1-0.4,1.4
		c-0.6,0-0.8-0.6-1.2-0.7l0.4,0.4c-0.2,0.1-0.7,0.2-0.8-0.1c0.2,0.5,2.2,0.7,3,1.6c0.2-0.1,0.6-0.1,0.6-0.4l-0.3-0.1
		c-0.1-0.5,0.8-0.3,0.5-0.6c0.5-0.1,1.3-0.3,1.7,0.3l-0.2,0.6c0.1-0.2-0.2-0.5-0.4-0.5c0.4-0.1,0.4,1.2,1.1,0.7l-0.2-0.6
		c0.6,0,1.5-0.3,1.9,0.3c0.1-0.7-0.1,0-0.1-0.9c-0.2,0.9-1.4-0.9-1.3,0.2c0-0.9-0.5-0.7-0.7-1.6c-0.1,0.2,0,0.4-0.4,0.1
		c0,0-0.1,0.1-0.2,0.1c0,0,0,0,0,0l0,0c0,0,0,0,0,0c0.1,0.1,0.1,0.3,0.1,0.4c-0.4,0.3-1.2-0.1-1.5,0c-0.2-0.2,0.2-0.2,0.1-0.4
		c0,0-0.1,0-0.3,0.1c-0.1,0-0.3,0.1-0.3,0.1c0.1-0.4-0.5-1,0.3-1l-0.6-0.3c-0.3-0.4-0.8-0.7-1.2-0.6c-0.3-0.2-0.9,0.3-0.6,0l-1.1,0
		l0-0.1c-0.5-0.2-1.1-0.1-1.6,0c-0.6,0-1.1-0.1-1.7-0.5c-0.4,0.1-0.7,0.2-1.3,0.1l-0.1-0.4c-0.4,0.1-1.4-0.3-1.6,0.1
		c-0.3-0.5-0.9-0.6-1.4-0.4c-0.6,0.1-1.2,0.4-1.6,0.4l0.1,0.5c-0.5,0.1-1,0.4-1.6,0.7l0.2,0.4c-0.4,0.5-1.5,0.1-2.3,0.5
		c0-0.2,0.2-0.2,0.4-0.2c-0.7-0.3-1.2,0.1-1.6,0.6c-0.4,0.5-0.8,0.9-1.4,0.8c-0.1,0.3-0.3,0.3-0.5,0.3c0,0,0,0,0-0.1
		c0,0-0.1,0-0.1,0c-0.1,0-0.3,0-0.4,0c0.1,0,0.3,0.1,0.4,0.1c-0.2,0.1-0.4,0.3-0.5,0.5l-0.4-0.3c0,0,0,0,0,0c-0.3,0-0.1,0.3,0.3,0.5
		c-0.1,0.1-0.1,0.3-0.1,0.4c-0.6-0.5-0.4,0.6-1.2,0.2c0,0.2-0.2,0.5-0.4,0.8c-0.2,0.3-0.3,0.7-0.1,1.1c-0.1-0.1-0.2-0.1-0.1-0.2
		c-0.3,0.1-0.6,0.3-0.6,0.6l-0.5-0.4c0,0,0,0.3,0,0.5c0,0.3,0.1,0.5,0.1,0.5c-0.5,0-0.8,0-0.9-0.6c-0.1,1.2-0.3,0.8-0.3,1.8
		l-0.3-0.3c-0.2,0.2,0,0.9-0.4,0.9c-1.1,0.1-1.9,2.6-3.2,3.9c0.6,0.1,0.4,0.2,0.1,0.4c-0.2,0.2-0.5,0.4-0.1,0.6
		c-0.3,0-0.5,0.2-0.6-0.2c0,0.9-0.9,1.1-0.3,1.9c-0.3,0-0.3-0.3-0.5-0.3c0,0.1,0.2,0.3,0,0.4c-0.2,0-0.2-0.2-0.3-0.4
		c-0.2,0.9,0.6,1.2,1.4,1.4c-0.5,0.3-0.5,0.6,0,1c-0.3,0.1-0.6,0.3-0.6-0.2c-0.1,0.3-0.7,1.8,0,1.9c-0.2,0.1-0.1,0.4,0,0.5
		c-0.1,0.7-0.1,0.7-0.1,1.4l0.1-0.2c0.7,0.3,0.2,0.5,0.3,1.1l-0.1,0c-0.5,1.3,0.3,0.5-0.2,1.8l0.5-0.1c1,0-0.4,1.1,0.1,1.8l0.2-0.3
		c0.4,0.3-1.1,1.3-1.1,1.8c-0.1,0.1-0.2-0.1-0.3-0.2c-0.3,1.2,0.6,0,1,0.7c-0.3,0.2-0.9,0.1-0.8,0.6c-0.2,0.4,1.5,1.1,1.2,2
		c0.2-0.3,0.3-0.5,0.7-0.2c0.3,0.4-0.3,1.8,0.7,1.8c0,0.1-0.1,0.2-0.1,0.2c0.4,0.3,1,1,1.5,1c-0.6,0.6,0,1,0.5,1.4
		c0.5,0.4,1.1,0.6,0.5,1.1l0.9,0.9l-0.1,0.1c0.5,0.7,1,0.6,1.5,0.5c0.1,0.2-0.1,0.2-0.2,0.3c0.7,1.1,0.9,1.1,2.1,1l-0.2,0.5
		c0.2,0,0.4,0.4,0.8,0.8c0.4,0.4,0.9,0.9,1.6,0.9c0,0-0.1,0.1-0.2,0.1c0.7,0,1.3,0.7,1.9,1.1c0.6,0.4,1.2,0.7,1.7-0.1
		c0,0,1-0.2,1-0.2c-1-0.4,0.4-0.7,0-1.1c0.4,0,0.9,0.8,0.4,0.8l-0.1-0.1c-0.4,0.9,1.2,0.7,1.1,1.3c2.2,0.4,4.4,0.9,6.5,0.8l-0.3-0.7
		c0,0,0.7-0.1,0.7-0.1c0.2,0.1,0.3,0.5-0.2,0.6c0.3,0.4,0.8-0.5,0.8-0.6c1.1,0.1-0.3,0.9,0.1,0.9l0.4-0.1l-0.1-0.1
		c0.3-0.4,0.3-0.6,0.9-0.8c0.4,0,0.3,0.4,0.5,0.4c0,0.1,0.1,0.1,0.2,0l0.9-0.2l-0.5-0.5c0.3-0.4,0.8-0.2,0.2-0.7
		c0.4,0.4,1.3,0.2,2-0.1c0.8-0.3,1.4-0.8,1.7-0.7c0.3-0.6,0.8-0.9,1.4-1.2c-0.2,0-0.6-0.5-0.1-0.7c0.3,0.6,0.6,0.6,0.9,0.5
		c0.3-0.1,0.7-0.4,1.2-0.1c-0.4-0.1,0-0.4,0.2-0.7c0.3-0.3,0.5-0.6-0.1-0.8c0.4-0.2,0.3,0.4,0.8,0.3c0.5-1.2,2.2-1.6,3-2.9
		c-0.1-0.1-0.5-0.1-0.5-0.5c0,0,0.3,0,0.6,0c0.3,0,0.6-0.1,0.6-0.1c0.1-0.3-0.7-0.8,0.1-0.9c-0.2,0-0.4,0-0.4-0.2
		c1.1-1,1.7-2.4,2.1-3.8c0.2-0.7,0.5-1.4,0.7-2.1c0.3-0.7,0.7-1.4,1.2-2c-0.4,0.3-0.4,0.1-0.4-0.2c-0.1,0.2-0.4-0.1-0.7-0.1
		c0,0,0.2-0.3,0.4-0.6c0.2-0.3,0.4-0.6,0.4-0.6c-0.6-0.3,0-1.3-0.6-1.5l0.1,0.4c-0.7-0.5-1.7,0.6-2.6,0.4c0.4,0.3,0.1,0.6-0.3,0.9
		c-0.3,0.3-0.6,0.7-0.1,1.2c-0.2,0.1-0.3-0.2-0.5-0.2c0.4,0.3,0.4,0.5,0.1,0.9l-0.1-0.1c-0.2,1.3-0.8,1.7-1.6,2.9l0.5,0.1
		c-0.2,0.3-0.4,0.2-0.5,0.3c0.5,0.6,0.4-0.8,1-0.1c-0.5,0-0.8,0.5-1,0.9c-0.3,0.5-0.6,0.9-1.1,0.7c-0.2,0.4,0.5,0.2,0.3,0.6
		l-0.3-0.1l0.3,0.3c-0.2,0.2-0.6,0.1-0.8,0c0.1,0,0.1-0.2,0.1-0.3c-0.5,0.1-0.6,0.9-0.7,1l0.4-0.2c-0.5,1.2-1.9,2-2.4,3.3l0.2,0.1
		c-0.5,0.9-0.8,0.3-1.5,1.1l0-0.1c0,0.3-0.2,0.6-0.5,0.7c0.1-0.4-0.7-0.2-0.6-0.6c-0.6,0.9-0.2,0.6-0.4,1.6l-0.3-0.3
		c-0.1,0.4,0,0.6-0.5,0.9c0.3-0.5-0.5-0.4-0.3-1c-0.7-0.1-0.9,0.2-1.2,0.5c-0.3,0.3-0.5,0.5-0.9,0c-0.2,1.1,1.1,0.2,0.9,0.5
		c0.4,0.2-0.1,0.9-0.5,0.9c-0.4,0.1-1-1.1-1.8-0.8c0.1,0,0.1-0.1,0.2-0.1c-0.4-0.2-0.5,0.5-1,0.2c-0.1,0.6-0.5,0-0.5,0.8l0.8-0.3
		c-0.4,0.3-0.7,1.3-1.6,0.9c0-0.2,0.3-0.4,0.4-0.6c-0.3-0.2-0.4,0.2-0.7,0c0-0.8,1-0.3,1.3-1c-0.3-0.3-0.8,0.7-0.7-0.2
		c-0.1,0.6-0.3,0.6-0.6,0.5c-0.3-0.1-0.5-0.1-0.8,0.3l0-0.5c-0.1,0.1-0.3,0.3-0.4,0.3l0.3-0.6c-0.4,0.5-0.9-0.4-1.3-0.2
		c0.9,0,0.2,0.6,0.6,0.9c-1.2,0.6-0.7-1.3-1.9-1.1c0.2,0,0.6,0.3,0.3,0.5c-0.2-0.1-0.5-0.3-0.7-0.6c-0.8,0,0.1,0.5-0.3,0.7
		c-0.2-0.6-0.5,0.2-0.9,0.3l0.1-0.5c-0.9-0.5-0.5,0.9-1.3,0.4l0.5-0.6l-0.5,0.1l0.2-0.5c-0.6,0.3-0.7,0.2-1.1-0.2
		c0,0.4-0.3,0.8-0.8,0.7c-0.2-0.4,0.3-0.4-0.3-0.5c0.2-0.2,0.5-0.5,0.6,0c0.1-0.1,0.2-0.2,0.3-0.4c-0.2-0.4-0.7-0.3-0.9-0.4
		c0.1,0,0.2,0.1,0.2,0.2c0,0-0.3,0.1-0.5,0.2c-0.3,0.1-0.5,0.1-0.5,0.1c-0.1-0.2,0.1-0.3,0.3-0.4c-0.2,0-0.4,0.1-0.7,0
		c0.2-0.3,0.4-0.7,0.8-0.7l-0.9,0c0-0.2-0.2-0.6,0-0.7c-0.2-0.4-1.3,0.1-1.7-0.5c-0.1,0-0.2,0.1-0.3,0c-0.4-0.4-0.5-1.1-1.4-1.1
		l0.2-0.8c-0.5-0.2-0.2,1-1.1,0.6c-0.6-0.3,0.2-0.6,0.2-0.9c-0.4,0-1.4,0.1-1.3-0.7C322.6,351.6,322.6,351.8,322.8,351.9z
		 M319.2,346.3c0.1,0.1,0.5,0.2,0.3,0.4C318.9,346.8,319.1,346.6,319.2,346.3z M317.6,335.9c0.1,0.1,0,0.3-0.2,0.4
		C317.4,336.2,317.5,336.1,317.6,335.9z M342.7,319.9C342.7,320,342.7,320,342.7,319.9C342.4,319.7,342.5,319.8,342.7,319.9z
		 M343.3,320.4c0.1,0,0.1-0.1,0.1-0.2c-0.1,0.1-0.3,0-0.4-0.1C343,320.3,343.1,320.4,343.3,320.4z M340.7,361.4l-0.2-0.1
		C340.8,361.1,340.7,361.3,340.7,361.4z"/>
	<path class="st1" d="M318,337.3c-0.1,0-0.2,0-0.3,0C317.8,337.3,317.9,337.4,318,337.3z"/>
	<path class="st1" d="M326,354.4C326,354.4,326,354.4,326,354.4C326.1,354.4,326.1,354.4,326,354.4L326,354.4z"/>
	<path class="st1" d="M332.5,323.3c-0.1,0-0.2-0.1-0.3-0.2C332.2,323.2,332.3,323.3,332.5,323.3z"/>
	<path class="st1" d="M347.3,321.5l-0.5-0.2c0.2,0.1,0.2,0.2,0.3,0.4C347.2,321.6,347.2,321.4,347.3,321.5z"/>
	<path class="st1" d="M348.8,326.3c0.1,0,0.1,0.1,0.2,0.1l0.1-0.2C348.9,326,348.6,326.1,348.8,326.3z"/>
	<path class="st1" d="M346.9,323.1c-0.2,0.4,0.1,0.4,0.4,0.5c0,0,0,0,0,0C347.6,323.2,347.3,323.1,346.9,323.1z"/>
	<path class="st1" d="M347.4,323.6c0.1,0,0.2,0.1,0.2,0.2C347.8,323.6,347.5,323.7,347.4,323.6z"/>
	<path class="st1" d="M344.3,320.5c0.1,0.2,0.3-0.4,0.3-0.2C345,319.9,343.4,320.4,344.3,320.5z"/>
	<polygon class="st1" points="346.3,324.3 346.5,323.9 346.1,324.1 	"/>
	<path class="st1" d="M344.4,322.8l0.4,0.3c0-0.1,0.1-0.1,0.2-0.1C344.7,322.9,344.5,322.7,344.4,322.8z"/>
	<path class="st1" d="M345,323c0.1,0.1,0.3,0.2,0.4,0.1C345.3,323.1,345.1,323.1,345,323z"/>
	<polygon class="st1" points="345.7,324.1 345.6,323.9 345.3,323.7 	"/>
	<path class="st1" d="M339.4,321l-0.6,0.1c-0.1,0.2,0,0.3,0.3,0.2C339.2,321.2,339.4,321.2,339.4,321z"/>
	<path class="st1" d="M340.6,322.7c-0.1-0.1-0.1-0.2-0.1-0.4l-0.2,0.6L340.6,322.7z"/>
	<path class="st1" d="M339.1,322.5c-0.1,0.2-0.8,0.4-0.2,0.4C339,322.7,339.6,322.7,339.1,322.5z"/>
	<polygon class="st1" points="331.4,321.8 331.5,321.7 331.3,320.8 	"/>
	<path class="st1" d="M326.3,326.5c0.6-0.1-0.2-0.6,0.4-0.6c0-0.3-0.5,0-0.5-0.2C326.1,326.1,325.8,326,326.3,326.5z"/>
	<path class="st1" d="M326.2,325.7c0-0.1,0.1-0.1,0.1-0.2C326.2,325.6,326.2,325.6,326.2,325.7z"/>
	<polygon class="st1" points="357.5,341.9 357.7,341.4 357.3,341.7 	"/>
	<path class="st1" d="M356.7,341l0.7-0.1l-0.6-0.3C356.9,340.7,356.9,340.9,356.7,341z"/>
	<path class="st1" d="M320.1,345l-0.2,0c-0.1,0.1-0.1,0.2-0.1,0.3L320.1,345z"/>
	<polygon class="st1" points="321.6,349.4 321.5,349.3 321.1,349.8 	"/>
	<path class="st1" d="M324.5,351.9c-0.1-0.1-0.3-0.2-0.4-0.3C324.4,351.8,324.1,352.4,324.5,351.9z"/>
</g>
<g id="circleempty2">
	<path class="st1" d="M379.5,158.3c0,0.1,0.4,0.1,0.5,0.1C379.9,158.2,379.4,158.3,379.5,158.3z"/>
	<polygon class="st1" points="378.4,156.1 378.6,156.1 378.1,155.8 	"/>
	<path class="st1" d="M377.9,154c-0.6,0.4,0.3,0.7,0.2,1.1l-0.1,0.1l0.6,0C378.3,154.9,377.8,154.4,377.9,154z"/>
	<path class="st1" d="M379,152.4c-0.2,0.2-0.3-0.2,0,0.3c0,0,0-0.1,0-0.1C379,152.6,379,152.5,379,152.4z"/>
	<path class="st1" d="M379,152.6C379.1,152.8,379.2,152.4,379,152.6L379,152.6z"/>
	<path class="st1" d="M378.4,151.6l0.4,0.2c0.1-0.1,0-0.4,0.2-0.4C378.7,151.2,378.6,151.4,378.4,151.6z"/>
	<path class="st1" d="M377.8,151.6l0.2,0.1C378.1,151.6,378.1,151.6,377.8,151.6z"/>
	<path class="st1" d="M378.4,151.9l-0.4-0.2c-0.1,0.1-0.3,0.2,0.1,0.1C377.9,151.9,378.2,151.8,378.4,151.9z"/>
	<path class="st1" d="M378.3,152.1c-0.1,0.2-0.1,0.5-0.4,0.3C378.2,152.9,378.7,152.7,378.3,152.1z"/>
	<path class="st1" d="M377.2,154.1l-0.1,0.3l0.3,0.1C377.2,154.5,377.4,154.1,377.2,154.1z"/>
	<path class="st1" d="M377.8,149.7c-0.1,0.1-0.3,0.3-0.4,0.4l0.3,0.1C377.7,150.1,377.6,149.8,377.8,149.7z"/>
	<path class="st1" d="M377.4,150.1L377,150C377.1,150.2,377.2,150.2,377.4,150.1z"/>
	<polygon class="st1" points="377.1,151.9 377.8,152.1 377.1,151.8 	"/>
	<polygon class="st1" points="377,148.5 377.4,148.5 376.8,148.5 	"/>
	<path class="st1" d="M376.4,147.8c0.3-0.1,0.2-0.5,0.5-0.5c-0.2-0.2-0.5-0.2-0.8-0.1C376.3,147.3,376.4,147.5,376.4,147.8z"/>
	<path class="st1" d="M375.6,147.2c0.1,0,0.3,0,0.5,0C375.9,147.2,375.8,147.2,375.6,147.2z"/>
	<path class="st1" d="M376.7,149.4c0.1-0.1,0.2-0.3,0.2-0.5l-0.3,0.4C376.6,149.3,376.7,149.4,376.7,149.4z"/>
	<path class="st1" d="M376.6,149.3L376.6,149.3c-0.1-0.1-0.1-0.2-0.1-0.3C376.5,149.1,376.5,149.2,376.6,149.3z"/>
	<path class="st1" d="M376.7,149.5L376.7,149.5C376.7,149.5,376.7,149.5,376.7,149.5z"/>
	<path class="st1" d="M377.1,150.9c-0.3-0.1-0.7-0.3-0.9,0.3C376.5,151.2,376.6,150.9,377.1,150.9z"/>
	<path class="st1" d="M376.4,149.9c0,0,0.1,0.4,0.1,0.4c0.1-0.1,0.2-0.2,0.3-0.2C376.8,150,376.4,149.9,376.4,149.9z"/>
	<polygon class="st1" points="376.2,149.8 376.4,149.9 376.3,149.8 	"/>
	<path class="st1" d="M375.7,148c-0.2,0-0.4-0.1-0.5-0.2c0.1,0.2,0.2,0.4,0.3,0.6C375.7,148.2,375.9,148.1,375.7,148z"/>
	<path class="st1" d="M376.2,148.6L376.2,148.6C376.1,148.7,376.1,148.7,376.2,148.6z"/>
	<path class="st1" d="M373.8,146.4C373.8,146.4,373.8,146.4,373.8,146.4L373.8,146.4L373.8,146.4z"/>
	<path class="st1" d="M375.5,148.3c0,0.2,0.2,0.2,0.3,0.2C375.7,148.4,375.6,148.4,375.5,148.3C375.5,148.3,375.5,148.3,375.5,148.3
		z"/>
	<path class="st1" d="M375.1,147c0,0.1,0,0.2,0,0.4C375.2,147.2,375.2,146.9,375.1,147z"/>
	<path class="st1" d="M376.2,148.5C376.2,148.5,376.2,148.5,376.2,148.5C376.2,148.4,376.2,148.4,376.2,148.5z"/>
	<path class="st1" d="M376.2,148.5c-0.1,0-0.2,0-0.3,0c0.1,0.1,0.2,0.1,0.3,0.1C376.1,148.6,376.2,148.5,376.2,148.5z"/>
	<path class="st1" d="M371.7,148.2c0.3-0.3,0.8-0.4,0.7,0.2c0.4,0,1.1-1.1,1.4-1.9c-0.1,0.1-0.2,0.2-0.6,0.2c0,0.2,0.3,0.9-0.2,1
		c-0.5-0.1-0.2-0.3-0.2-0.6c-0.2,0.5-0.9,0.2-1.2,0.9l0.4,0C371.9,148,371.7,148.1,371.7,148.2z"/>
	<path class="st1" d="M374.3,147l0.1,0.1c-0.1-0.2-0.1-0.4,0-0.7c-0.3,0-0.4,0.1-0.5,0.1L374.3,147L374.3,147z"/>
	<path class="st1" d="M374.9,147.5c-0.4,0.2-0.8,0.1-0.9,0.6c0.3,0.3,0.5,0,0.8,0C374.2,147.6,375,148.1,374.9,147.5
		c0.1,0.1,0.2,0.2,0.3,0.2c0-0.1-0.1-0.3-0.1-0.4l0,0l0,0l0,0c0,0.1,0,0.1,0,0c0,0,0,0,0,0C375,147.4,375,147.5,374.9,147.5
		c-0.1-0.2,0.1-0.1,0.1-0.1l0.1,0l0,0c0,0-0.7-0.3-0.7-0.3C374.5,147.2,374.6,147.3,374.9,147.5z"/>
	<path class="st1" d="M375.2,151.4C375.3,151.4,375.3,151.3,375.2,151.4C375.2,151.3,375.2,151.3,375.2,151.4z"/>
	<path class="st1" d="M375.3,151c0.1,0,0.2-0.1,0.3,0.1c0,0.2-0.2,0.1-0.3,0.2c0.1,0,0.4,0.1,0.5-0.2l-0.1,0c0-0.3,0.3-0.9,0.3-0.9
		C375.8,150.5,375.6,150.7,375.3,151z"/>
	<path class="st1" d="M375.1,149.3c0,0-0.5-0.3-0.5-0.3l-0.1,0.4l0.2-0.2C374.8,149.6,375,149.4,375.1,149.3z"/>
	<path class="st1" d="M373.9,146.2l0.4-0.3c0,0-0.2,0.1-0.3,0.1c-0.2,0.1-0.3,0.1-0.3,0.1L373.9,146.2z"/>
	<polygon class="st1" points="373.3,145.8 373.5,145.5 373.2,145.5 	"/>
	<path class="st1" d="M354.4,164l0.2,0C354.5,164,354.4,164,354.4,164z"/>
	<path class="st1" d="M354,163.2l-0.2,0.1C353.9,163.3,354,163.3,354,163.2z"/>
	<path class="st1" d="M355.5,145c-0.4-0.2-1-0.5-0.7-0.1l0.3,0.3C355.2,145,355.3,145,355.5,145z"/>
	<path class="st1" d="M350.8,155.9c0,0,0.1,0,0.1,0c-0.1-0.1-0.3-0.2-0.4-0.2C350.7,155.7,350.7,155.8,350.8,155.9z"/>
	<path class="st1" d="M352.6,156.3l-0.3,0.2C352.4,156.5,352.5,156.4,352.6,156.3z"/>
	<path class="st1" d="M357.9,167.1l0.4-0.3C358,166.7,358,166.9,357.9,167.1z"/>
	<path class="st1" d="M366,142.9c-0.2-0.2-0.4-0.3-0.5-0.3C365.7,142.9,365.9,143.3,366,142.9z"/>
	<path class="st1" d="M350.2,166c0.1,0.1,0.2,0,0.3,0C350.4,165.9,350.2,165.9,350.2,166z"/>
	<path class="st1" d="M364.9,142.5c0,0,0.1,0.1,0.1,0.1c0.2-0.1,0.3-0.1,0.5-0.1C365.3,142.4,365.1,142.3,364.9,142.5z"/>
	<path class="st1" d="M372.8,164.5C372.8,164.5,372.8,164.5,372.8,164.5C372.8,164.5,372.8,164.5,372.8,164.5z"/>
	<path class="st1" d="M378.9,160.5c0,0.1,0,0.2,0,0.3C378.9,160.7,378.9,160.6,378.9,160.5z"/>
	<path class="st1" d="M370.7,144C370.9,144,370.7,144,370.7,144L370.7,144z"/>
	<path class="st1" d="M370.6,145.8c-0.1,0-0.1,0.1-0.2,0.2C370.5,145.9,370.6,145.9,370.6,145.8z"/>
	<path class="st1" d="M363.3,145.2L363.3,145.2C363.4,145.3,363.4,145.3,363.3,145.2z"/>
	<path class="st1" d="M370.8,144.3c0-0.1-0.1-0.1-0.1-0.2C370.7,144.1,370.8,144.2,370.8,144.3z"/>
	<path class="st1" d="M370.9,144.1c0,0,0.1,0.1,0.1,0.1C371.1,144.1,371.1,144.1,370.9,144.1z"/>
	<path class="st1" d="M370.5,143.9c0.1,0,0.2,0.1,0.2,0.2c0,0,0-0.1,0-0.1C370.6,144,370.6,143.9,370.5,143.9z"/>
	<path class="st1" d="M365.4,170.3C365.4,170.4,365.4,170.4,365.4,170.3C365.5,170.2,365.4,170.2,365.4,170.3z"/>
	<path class="st1" d="M355.5,150.8C355.5,150.8,355.5,150.8,355.5,150.8L355.5,150.8L355.5,150.8z"/>
	<path class="st1" d="M355.5,151.3c-0.3-0.5-0.2-0.5,0-0.5l-1-0.7c0,0,0.2,0.3,0.5,0.6C355.2,151,355.5,151.3,355.5,151.3z"/>
	<path class="st1" d="M355.7,165.6l0.1-0.5c0.7-0.2,0.7,0.1,0.9-0.4c-0.5,0.4-0.7,0.3-0.9,0.1c-0.2-0.2-0.4-0.4-0.9,0l0.1-0.3
		c0,0,0.1,0,0.1,0.1c0.3-0.6-1,0.3-1.1-0.2c0-0.2,0.1-0.4,0.3-0.4l-0.5-0.1c0-0.1,0.2-0.2,0.2-0.1c0,0-0.3-0.5-0.3-0.5l0,0
		c-0.2,0-0.6,0-0.8,0c0.1-0.2,0.2,0,0.3-0.1l-0.4-0.2c0.3-0.3,0.7-0.1,0.7,0.1c1.1-0.8-0.4-0.1,0.1-1l0.3,0.2c0.7-0.4,0.3-0.5,0.7-1
		c-0.2,0.1-0.9,1-1.4,0.8c0.1-0.1,0.1-0.3-0.3-0.3c0.5-0.1,0.3-0.3,0.2-0.5l0.6-0.2c-0.2-0.2-0.5-0.1-0.9-0.1c0-0.3,0.5-0.4,0.9-0.6
		c0-0.4-0.7,0.4-0.9,0c0.2-0.4-0.1-0.6-0.5-1c0.2-0.3,0.4,0,0.6-0.1l-0.5-0.2c0-0.1,0.2,0,0.2,0c-0.2-0.2-0.6,0-0.8-0.3
		c-0.4,0-0.1-0.2,0.1-0.4c0.3-0.2,0.5-0.4,0.1-0.6c0.2-0.1,0.4,0.1,0.6,0.1c-0.5-0.5-0.4-0.5-1-1l0.5-0.3c-0.5,0.2-1-0.2-1.4-0.7
		c-0.2,0.1-0.5,0.1-0.6,0.2c0,0-0.1-0.2-0.1-0.3c-0.1-0.2-0.1-0.3-0.1-0.3c0.1,0,0.3,0.1,0.6,0.2c0,0-0.1-0.1-0.1-0.1
		c0.3-0.1,0.6,0,0.9,0.3c-0.1,0-0.3,0.1-0.4,0.1c0.4,0.2,0.8,0.4,1.1,0.4c-0.1,0-0.1-0.1-0.1-0.2c0.1,0.1,0.2,0.1,0.3,0.1
		c0.1,0-0.1-0.1-0.2-0.2l0.7,0l-0.3-0.1l0.6-0.5c-0.6-0.6-1.4-1.3-1.4-2.2c0.4,0.4,0.8,0.4,1.3,0.6c-0.7-0.1,0.1,0.6-0.2,0.9
		c0.1-0.2,0.4,0,0.5,0.1c0,0-0.1-0.2-0.2-0.4c-0.1-0.2-0.2-0.4-0.2-0.4c0.5,0.2,0.4,0,0.7-0.1c-1-0.3-0.4-0.7-0.5-1.1
		c0.3,0.1,0.6,0.4,0.4,0.6c0.8,0-0.9-1-0.1-1c0,0.1-0.1,0.1,0,0.2c-0.2-0.3,0.3-0.6,0.5-0.4l0,0.1c0.3-0.4,0.9-1.3,0.3-1.9
		c0.1,0.1,0.7,0.7,0.9,0.8c0,0-0.4-0.6-0.8-1.3c-0.4-0.7-0.7-1.4-0.7-1.4c0.5,0.6,1.9,1.5,1.9,2.1c0.2,0,0.3-0.1,0.3-0.4
		c-0.1,0-0.9-0.6-0.9-0.7c0.8,0.4,0.5,0.1,1.2,0.4c-0.2,0-0.9-1-0.7-1.1c0.1,0.2,0.7,0.8,0.8,1c0,0-0.1-0.3-0.2-0.6
		c-0.1-0.3-0.1-0.6-0.1-0.6c0,0.2,0.6,0.8,0.9,0.9c-0.2-0.1,0.4-0.2,0.4-0.4l-0.3-0.1c0.5-0.2-0.4-1.6,0.2-1.9
		c0,0.2,0.6,1.3,0.9,1.3c-0.2-0.6-0.8-2.7-0.4-3.4l0.2,0.2c0,0,0.3-0.5,0.3-0.5c0,0.9,0.1,2.9,0.1,3.7c0.3,0.1,0.2,0.3,0.5,0.2
		c0.2,0.2,0.1,0.5,0,0.5l0.7-0.1c-0.3-0.6,0.2-0.8,0-1.3c0,0-0.1,0.2-0.2,0.5c-0.1,0.2-0.2,0.5-0.2,0.5c-0.3-0.6-0.4-2,0.2-2
		c0.2,0.2,0.3,1.2,0.4,1.4c0-0.2,0.3-0.6,0.4-0.4l-0.1,0.4c0.3,0.1,0.2-1,0.7-0.5c0.1,0,0.6,0.8,0.5,0.4c-0.4-0.7-1-3-1-3.6
		c0.1,0,0.9,0.5,1.2,0.9c0.3,0.6-0.1,1.5,0.2,1.9c0-0.2,0-0.4,0.1-0.5c0.2,0.1,0,0.6,0.3,0.4c-0.1-0.7,0.6,0,0-0.6
		c0.3-0.2,0.3,0.1,0.6,0c-0.2-0.4,0.2-1.5,0.5-1.7c0,0.2,0.1,0.4,0.1,0.5c0.6,0,1,0.4,1.6,0.4c0,0.2,0.3,0.4,0.1,0.7
		c0.1-0.1,0.2-0.3,0.4-0.3c0.3,0.6-0.4,0-0.2,0.8c0.1-0.4,0.5-0.5,0.8-0.7c0-0.6-0.6-0.2-0.8,0c0.1-0.8,0.6-1.7,1.4-1.9
		c0.6-0.1,0.1,0.6,0.2,0.5c0.9,0.4,1.2-1.2,1.9-0.4c0.1,0.6-0.3,1-0.4,1.4c-0.4,0-0.5-0.5-0.8-0.6l0.3,0.3c-0.2,0.1-0.5,0.2-0.6,0
		c0.1,0.5,1.5,0.5,2,1.3c0.2-0.1,0.5-0.2,0.5-0.4l-0.2,0c0-0.5,0.7-0.3,0.5-0.7c0.4-0.1,1-0.4,1.3,0.1l-0.2,0.6
		c0.1-0.2-0.1-0.5-0.3-0.4c0.3-0.1,0.2,1.1,0.8,0.5l-0.1-0.5c0.4-0.1,1.2-0.4,1.4,0c0.2-0.6-0.1,0,0-0.8c-0.2,0.9-1-0.6-1.1,0.4
		c0.1-0.9-0.3-0.6-0.4-1.4c-0.1,0.2,0,0.4-0.3,0.2c0,0-0.1,0.1-0.2,0.1c0,0,0,0,0,0l0,0c0,0,0,0,0,0c0,0.1,0.1,0.2,0,0.4
		c-0.4,0.3-0.9,0.1-1.2,0.2c-0.2-0.2,0.2-0.2,0.2-0.4c0,0-0.1,0.1-0.2,0.1c-0.1,0.1-0.2,0.1-0.2,0.1c0.2-0.4-0.3-0.9,0.3-1l-0.4-0.2
		c-0.2-0.3-0.5-0.6-0.8-0.5c-0.2-0.2-0.7,0.3-0.4,0l-0.8,0.1l0-0.1c-0.4-0.1-0.8,0-1.2,0c-0.4,0-0.8,0-1.2-0.5
		c-0.3,0.1-0.5,0.2-0.9,0.1l-0.1-0.4c-0.3,0.1-1-0.4-1.1,0.1c-0.4-1.1-1.6-0.1-2.2-0.1l0.1,0.5c-0.4,0-0.7,0.3-1.1,0.6l0.1,0.4
		c-0.3,0.4-1.1,0-1.7,0.3c0-0.2,0.2-0.2,0.3-0.1c-0.5-0.3-0.9,0-1.1,0.4c-0.3,0.4-0.5,0.7-1,0.6c-0.1,0.2-0.2,0.2-0.4,0.2
		c0,0,0,0,0,0c0,0,0,0-0.1,0c-0.1,0-0.2-0.1-0.3-0.1c0.1,0.1,0.2,0.1,0.3,0.1c-0.1,0.1-0.3,0.2-0.4,0.4l-0.3-0.4c0,0,0,0,0,0
		c-0.3,0,0,0.3,0.3,0.5c0,0.1-0.1,0.3,0,0.4c-0.6-0.5-0.3,0.5-0.9,0c0.1,0.2-0.1,0.4-0.2,0.7c-0.1,0.3-0.1,0.6,0.1,0.9
		c-0.1-0.1-0.2-0.1-0.1-0.2c-0.2,0.1-0.4,0.1-0.4,0.4l-0.5-0.4c0,0,0.1,0.2,0.1,0.5c0.1,0.2,0.1,0.5,0.1,0.5
		c-0.5-0.1-0.7-0.1-0.8-0.6c0.1,1-0.2,0.6,0,1.5l-0.3-0.3c-0.1,0.2,0.1,0.8-0.2,0.7c-0.9-0.1-1.4,1.8-2.5,2.6
		c1.2,0.2-0.7,0.3,0.1,0.7c-0.3,0-0.5,0.1-0.6-0.2c0,0.7-0.8,0.8-0.1,1.4c-0.3,0-0.4-0.2-0.5-0.2c0,0.1,0.2,0.3,0,0.3
		c-0.2,0-0.2-0.2-0.3-0.3c-0.1,0.7,0.7,0.9,1.5,1.1c-0.4,0.2-0.4,0.4,0.1,0.7c-0.3,0.1-0.6,0.2-0.6-0.2c-0.1,0.2-0.6,1.3,0.1,1.4
		c-0.2,0.1-0.1,0.3,0,0.4c-0.1,0.5-0.1,0.5-0.1,1l0.1-0.1c0.8,0.2,0.2,0.4,0.3,0.8l-0.1,0c-0.5,0.9,0.3,0.3-0.3,1.2l0.5-0.1
		c1-0.1-0.5,0.8,0,1.3l0.2-0.2c0.4,0.2-1.2,1-1.2,1.4c-0.1,0.1-0.2-0.1-0.3-0.1c-0.4,0.9,0.6-0.1,0.9,0.4c-0.3,0.2-0.9,0.1-0.8,0.5
		c-0.2,0.3,1.4,0.7,1,1.4c0.2-0.2,0.4-0.4,0.7-0.3c0.2,0.3-0.4,1.4,0.5,1.3c0,0.1-0.1,0.1-0.1,0.2c0.3,0.2,0.8,0.7,1.3,0.5
		c-0.6,0.6-0.2,0.8,0.3,1c0.4,0.2,0.8,0.3,0.3,0.8l0.7,0.6l-0.1,0.1c0.3,0.5,0.8,0.4,1.2,0.2c0,0.2-0.1,0.2-0.2,0.3
		c0.4,0.8,0.6,0.8,1.6,0.6l-0.2,0.4c0.3-0.1,0.6,1.3,1.7,1.3c0,0-0.1,0.1-0.2,0.2c0.6-0.1,0.9,0.5,1.3,0.9c0.4,0.4,0.8,0.5,1.3-0.3
		c0,0,0.7-0.3,0.7-0.3c-0.7-0.3,0.3-0.7,0.1-1.1c0.3,0,0.6,0.7,0.2,0.7l0-0.1c-0.4,0.9,0.8,0.6,0.7,1.2c1.5,0.3,3.1,0.8,4.6,0.7
		l-0.2-0.7l0.5,0c0.2,0.1,0.3,0.5-0.1,0.6c0.3,0.4,0.6-0.4,0.6-0.6c0.8,0.2-0.1,0.9,0.1,0.9l0.3-0.1l-0.1-0.1
		c0.2-0.3,0.2-0.6,0.6-0.7c0.3,0.1,0.2,0.4,0.4,0.4c0,0.1,0.1,0.1,0.2,0l0.7-0.1l-0.4-0.5c0.2-0.3,0.6-0.1,0.1-0.7
		c0.3,0.4,0.9,0.3,1.5,0.1c0.5-0.2,1-0.6,1.2-0.5c0.2-0.5,0.5-0.8,0.9-1c-0.2,0-0.6-0.6-0.2-0.7c0.6,1.2,0.9,0.1,1.8,0.6
		c-0.3-0.2-0.1-0.4,0.1-0.6c0.2-0.2,0.3-0.5-0.2-0.7c0.3-0.1,0.3,0.4,0.7,0.4c0.3-0.9,1.6-1.1,2.1-2c-0.1-0.1-0.4-0.1-0.5-0.5
		c0,0,0.3,0,0.5,0c0.3,0,0.5,0,0.5,0c0.1-0.2-0.7-0.7,0-0.7c-0.2,0-0.4-0.1-0.4-0.2c0.9-0.6,1.3-1.7,1.6-2.7c0.1-0.5,0.3-1,0.5-1.5
		c0.2-0.5,0.6-0.9,1-1.4c-0.4,0.2-0.4,0-0.4-0.2c-0.1,0.1-0.4-0.1-0.7-0.1c0,0,0.2-0.2,0.4-0.4c0.2-0.2,0.4-0.4,0.4-0.4
		c-0.6-0.2,0-0.9-0.6-1.1l0.1,0.3c-0.7-0.4-1.7,0.4-2.6,0.2c0.4,0.2,0.1,0.4-0.2,0.6c-0.3,0.2-0.6,0.4,0,0.8
		c-0.2,0.1-0.3-0.2-0.5-0.1c0.4,0.2,0.4,0.4,0.2,0.6l-0.1-0.1c-0.1,0.8-0.6,1.1-1.2,1.8l0.5,0.1c-0.1,0.2-0.3,0.1-0.4,0.2
		c0.5,0.5,0.3-0.5,0.9,0c-0.5-0.1-0.7,0.2-0.8,0.5c-0.2,0.3-0.4,0.6-0.9,0.3c-0.2,0.2,0.5,0.2,0.3,0.5l-0.3-0.1l0.3,0.3
		c-0.2,0.1-0.5,0-0.7-0.1c0.1,0,0-0.1,0-0.2c-0.4,0-0.3,0.6-0.5,0.6l0.3-0.1c-0.2,0.8-1.2,1.3-1.4,2.2l0.2,0.1
		c-0.2,0.7-0.6,0.1-1,0.7l0-0.1c0,0.3-0.1,0.5-0.3,0.5c0-0.3-0.5-0.3-0.5-0.6c-0.3,0.7-0.1,0.5-0.1,1.4l-0.3-0.3
		c0,0.4,0.1,0.5-0.2,0.8c0.1-0.4-0.4-0.4-0.3-0.9c-0.5-0.2-0.6,0.1-0.8,0.3c-0.1,0.2-0.3,0.4-0.6-0.1c0,1.1,0.8,0.3,0.7,0.6
		c0.3,0.3,0,0.8-0.3,0.8c-0.2,0.1-0.8-1.1-1.3-1c0.1,0,0-0.1,0.1-0.1c-0.3-0.2-0.3,0.5-0.7,0.1c0,0.6-0.3,0-0.3,0.8l0.5-0.3
		c-0.2,0.2-0.4,1.2-1,0.8c0-0.2,0.2-0.4,0.2-0.5c-0.2-0.2-0.3,0.2-0.4,0c0-0.8,0.6-0.3,0.8-0.9c-0.2-0.3-0.5,0.7-0.5-0.2
		c0,0.6-0.2,0.5-0.3,0.5c-0.2-0.1-0.3-0.2-0.5,0.3l0-0.5c-0.1,0.1-0.2,0.3-0.3,0.3l0.2-0.6c-0.3,0.5-0.6-0.4-0.8-0.2
		c0.6,0,0.1,0.6,0.4,0.9c-0.8,0.6-0.4-1.3-1.2-1.1c0.1-0.1,0.4,0.3,0.2,0.5c-0.2-0.1-0.3-0.3-0.4-0.6c-0.5,0,0,0.5-0.2,0.8
		c-0.1-0.6-0.3,0.2-0.6,0.3l0.1-0.5c-0.6-0.4-0.4,1-0.9,0.4l0.4-0.6l-0.3,0.1l0.2-0.5c-0.4,0.3-0.5,0.2-0.7-0.1
		c0,0.3-0.3,0.8-0.6,0.7c-0.1-0.3,0.3-0.4-0.1-0.5c0.2-0.2,0.4-0.6,0.4-0.1c0.1-0.1,0.2-0.3,0.2-0.4c-0.1-0.4-0.4-0.2-0.6-0.3
		c0,0,0.1,0.1,0.1,0.2c0,0-0.2,0.1-0.4,0.2c-0.2,0.1-0.4,0.2-0.4,0.2c0-0.2,0.1-0.3,0.2-0.4c-0.1,0-0.3,0.2-0.5,0.1
		c0.2-0.3,0.4-0.7,0.7-0.8l-0.7,0.2c0-0.2,0-0.5,0.1-0.6c-0.1-0.3-1,0.3-1.1-0.2c-0.1,0.1-0.1,0.1-0.2,0.1c-0.2-0.3-0.2-0.8-0.9-0.7
		l0.3-0.7c-0.4-0.1-0.3,0.9-1,0.7c-0.5-0.1,0.3-0.5,0.3-0.8c-0.4,0.1-1.2,0.3-1-0.3C355.6,165.4,355.6,165.6,355.7,165.6z
		 M353.3,162.1c0.1,0,0.5,0.1,0.2,0.2C353,162.5,353.2,162.3,353.3,162.1z M351.9,155.3c0.1,0.1,0,0.2-0.2,0.3
		C351.7,155.5,351.8,155.4,351.9,155.3z M368.9,143.7L368.9,143.7C368.7,143.4,368.7,143.5,368.9,143.7z M369.3,144
		c0.1,0,0.1-0.1,0.1-0.2c-0.1,0.1-0.2,0.1-0.3,0C369.1,144,369.1,144.1,369.3,144z M367.4,173.2l-0.1-0.1
		C367.5,173,367.5,173.1,367.4,173.2z"/>
	<path class="st1" d="M352.4,156.3c-0.1,0-0.2,0-0.3,0C352.2,156.3,352.3,156.3,352.4,156.3z"/>
	<path class="st1" d="M357.8,167.2C357.8,167.2,357.8,167.2,357.8,167.2C357.8,167.1,357.8,167.1,357.8,167.2L357.8,167.2z"/>
	<path class="st1" d="M361.8,147.3c-0.1-0.1-0.2-0.1-0.2-0.2C361.6,147.2,361.7,147.3,361.8,147.3z"/>
	<path class="st1" d="M372.3,144.6l-0.4-0.1c0.2,0.1,0.2,0.2,0.2,0.3C372.2,144.7,372.2,144.6,372.3,144.6z"/>
	<path class="st1" d="M372.8,148.7c0.1,0,0.1,0.1,0.1,0l0.1-0.2C372.9,148.5,372.7,148.5,372.8,148.7z"/>
	<path class="st1" d="M371.7,146.1c-0.2,0.4,0.1,0.3,0.3,0.4c0,0,0,0,0,0C372.4,146.1,372,146.1,371.7,146.1z"/>
	<path class="st1" d="M372.1,146.6c0.1,0,0.1,0.1,0.2,0.1C372.4,146.5,372.2,146.6,372.1,146.6z"/>
	<path class="st1" d="M370.1,144.1c0.1,0.1,0.3-0.4,0.3-0.3C370.7,143.4,369.4,144,370.1,144.1z"/>
	<polygon class="st1" points="371.1,147.4 371.4,146.9 371,147.2 	"/>
	<path class="st1" d="M369.9,146.2l0.2,0.3c0-0.1,0.1-0.1,0.2-0.1C370.1,146.3,369.9,146.1,369.9,146.2z"/>
	<path class="st1" d="M370.3,146.4c0.1,0.1,0.2,0.1,0.3,0.1C370.5,146.4,370.4,146.4,370.3,146.4z"/>
	<polygon class="st1" points="370.7,147.2 370.7,147.1 370.5,147 	"/>
	<path class="st1" d="M366.4,144.9L366,145c-0.1,0.2,0,0.3,0.2,0.2C366.3,145.1,366.5,145.1,366.4,144.9z"/>
	<path class="st1" d="M367.2,146.5c-0.1-0.1,0-0.2,0-0.4l-0.2,0.6L367.2,146.5z"/>
	<path class="st1" d="M366.2,146.4c-0.1,0.2-0.6,0.4-0.1,0.4C366.1,146.7,366.4,146.6,366.2,146.4z"/>
	<polygon class="st1" points="361,145.7 361.1,145.7 360.8,144.7 	"/>
	<path class="st1" d="M358,149.6c0.4,0-0.3-0.6,0.2-0.5c-0.1-0.3-0.4-0.1-0.4-0.3C357.7,149.1,357.5,149.1,358,149.6z"/>
	<path class="st1" d="M357.8,148.8c0-0.1,0-0.1,0-0.2C357.7,148.7,357.7,148.7,357.8,148.8z"/>
	<polygon class="st1" points="379.5,159.4 379.7,159 379.4,159.2 	"/>
	<path class="st1" d="M378.8,158.7l0.7-0.1l-0.6-0.2C378.9,158.5,378.9,158.7,378.8,158.7z"/>
	<path class="st1" d="M354.3,161.2l-0.2,0c-0.2,0.1-0.2,0.1-0.2,0.2L354.3,161.2z"/>
	<polygon class="st1" points="355.1,163.9 355,163.9 354.6,164.3 	"/>
	<path class="st1" d="M357.1,165.3c-0.1-0.1-0.2-0.1-0.3-0.2C357.1,165.2,356.6,165.8,357.1,165.3z"/>
</g>
</svg>
